%TF.GenerationSoftware,KiCad,Pcbnew,9.0.6*%
%TF.CreationDate,2025-12-26T20:14:04+00:00*%
%TF.ProjectId,PIDI-BOX-01-ADAPT-I2C-A1,50494449-2d42-44f5-982d-30312d414441,rev?*%
%TF.SameCoordinates,Original*%
%TF.FileFunction,Legend,Top*%
%TF.FilePolarity,Positive*%
%FSLAX46Y46*%
G04 Gerber Fmt 4.6, Leading zero omitted, Abs format (unit mm)*
G04 Created by KiCad (PCBNEW 9.0.6) date 2025-12-26 20:14:04*
%MOMM*%
%LPD*%
G01*
G04 APERTURE LIST*
%ADD10C,0.200000*%
%ADD11C,0.150000*%
%ADD12C,0.120000*%
%ADD13C,0.695081*%
G04 APERTURE END LIST*
D10*
X86077397Y-64952401D02*
X85982159Y-64904782D01*
X85982159Y-64904782D02*
X85839302Y-64904782D01*
X85839302Y-64904782D02*
X85696445Y-64952401D01*
X85696445Y-64952401D02*
X85601207Y-65047639D01*
X85601207Y-65047639D02*
X85553588Y-65142877D01*
X85553588Y-65142877D02*
X85505969Y-65333353D01*
X85505969Y-65333353D02*
X85505969Y-65476210D01*
X85505969Y-65476210D02*
X85553588Y-65666686D01*
X85553588Y-65666686D02*
X85601207Y-65761924D01*
X85601207Y-65761924D02*
X85696445Y-65857163D01*
X85696445Y-65857163D02*
X85839302Y-65904782D01*
X85839302Y-65904782D02*
X85934540Y-65904782D01*
X85934540Y-65904782D02*
X86077397Y-65857163D01*
X86077397Y-65857163D02*
X86125016Y-65809543D01*
X86125016Y-65809543D02*
X86125016Y-65476210D01*
X86125016Y-65476210D02*
X85934540Y-65476210D01*
X86553588Y-65904782D02*
X86553588Y-64904782D01*
X86553588Y-64904782D02*
X86934540Y-64904782D01*
X86934540Y-64904782D02*
X87029778Y-64952401D01*
X87029778Y-64952401D02*
X87077397Y-65000020D01*
X87077397Y-65000020D02*
X87125016Y-65095258D01*
X87125016Y-65095258D02*
X87125016Y-65238115D01*
X87125016Y-65238115D02*
X87077397Y-65333353D01*
X87077397Y-65333353D02*
X87029778Y-65380972D01*
X87029778Y-65380972D02*
X86934540Y-65428591D01*
X86934540Y-65428591D02*
X86553588Y-65428591D01*
X87553588Y-65523829D02*
X88315493Y-65523829D01*
X88791683Y-65904782D02*
X88791683Y-64904782D01*
X75055969Y-66007163D02*
X75198826Y-66054782D01*
X75198826Y-66054782D02*
X75436921Y-66054782D01*
X75436921Y-66054782D02*
X75532159Y-66007163D01*
X75532159Y-66007163D02*
X75579778Y-65959543D01*
X75579778Y-65959543D02*
X75627397Y-65864305D01*
X75627397Y-65864305D02*
X75627397Y-65769067D01*
X75627397Y-65769067D02*
X75579778Y-65673829D01*
X75579778Y-65673829D02*
X75532159Y-65626210D01*
X75532159Y-65626210D02*
X75436921Y-65578591D01*
X75436921Y-65578591D02*
X75246445Y-65530972D01*
X75246445Y-65530972D02*
X75151207Y-65483353D01*
X75151207Y-65483353D02*
X75103588Y-65435734D01*
X75103588Y-65435734D02*
X75055969Y-65340496D01*
X75055969Y-65340496D02*
X75055969Y-65245258D01*
X75055969Y-65245258D02*
X75103588Y-65150020D01*
X75103588Y-65150020D02*
X75151207Y-65102401D01*
X75151207Y-65102401D02*
X75246445Y-65054782D01*
X75246445Y-65054782D02*
X75484540Y-65054782D01*
X75484540Y-65054782D02*
X75627397Y-65102401D01*
X76627397Y-65959543D02*
X76579778Y-66007163D01*
X76579778Y-66007163D02*
X76436921Y-66054782D01*
X76436921Y-66054782D02*
X76341683Y-66054782D01*
X76341683Y-66054782D02*
X76198826Y-66007163D01*
X76198826Y-66007163D02*
X76103588Y-65911924D01*
X76103588Y-65911924D02*
X76055969Y-65816686D01*
X76055969Y-65816686D02*
X76008350Y-65626210D01*
X76008350Y-65626210D02*
X76008350Y-65483353D01*
X76008350Y-65483353D02*
X76055969Y-65292877D01*
X76055969Y-65292877D02*
X76103588Y-65197639D01*
X76103588Y-65197639D02*
X76198826Y-65102401D01*
X76198826Y-65102401D02*
X76341683Y-65054782D01*
X76341683Y-65054782D02*
X76436921Y-65054782D01*
X76436921Y-65054782D02*
X76579778Y-65102401D01*
X76579778Y-65102401D02*
X76627397Y-65150020D01*
X77532159Y-66054782D02*
X77055969Y-66054782D01*
X77055969Y-66054782D02*
X77055969Y-65054782D01*
X80405969Y-65907163D02*
X80548826Y-65954782D01*
X80548826Y-65954782D02*
X80786921Y-65954782D01*
X80786921Y-65954782D02*
X80882159Y-65907163D01*
X80882159Y-65907163D02*
X80929778Y-65859543D01*
X80929778Y-65859543D02*
X80977397Y-65764305D01*
X80977397Y-65764305D02*
X80977397Y-65669067D01*
X80977397Y-65669067D02*
X80929778Y-65573829D01*
X80929778Y-65573829D02*
X80882159Y-65526210D01*
X80882159Y-65526210D02*
X80786921Y-65478591D01*
X80786921Y-65478591D02*
X80596445Y-65430972D01*
X80596445Y-65430972D02*
X80501207Y-65383353D01*
X80501207Y-65383353D02*
X80453588Y-65335734D01*
X80453588Y-65335734D02*
X80405969Y-65240496D01*
X80405969Y-65240496D02*
X80405969Y-65145258D01*
X80405969Y-65145258D02*
X80453588Y-65050020D01*
X80453588Y-65050020D02*
X80501207Y-65002401D01*
X80501207Y-65002401D02*
X80596445Y-64954782D01*
X80596445Y-64954782D02*
X80834540Y-64954782D01*
X80834540Y-64954782D02*
X80977397Y-65002401D01*
X81405969Y-65954782D02*
X81405969Y-64954782D01*
X81405969Y-64954782D02*
X81644064Y-64954782D01*
X81644064Y-64954782D02*
X81786921Y-65002401D01*
X81786921Y-65002401D02*
X81882159Y-65097639D01*
X81882159Y-65097639D02*
X81929778Y-65192877D01*
X81929778Y-65192877D02*
X81977397Y-65383353D01*
X81977397Y-65383353D02*
X81977397Y-65526210D01*
X81977397Y-65526210D02*
X81929778Y-65716686D01*
X81929778Y-65716686D02*
X81882159Y-65811924D01*
X81882159Y-65811924D02*
X81786921Y-65907163D01*
X81786921Y-65907163D02*
X81644064Y-65954782D01*
X81644064Y-65954782D02*
X81405969Y-65954782D01*
X82358350Y-65669067D02*
X82834540Y-65669067D01*
X82263112Y-65954782D02*
X82596445Y-64954782D01*
X82596445Y-64954782D02*
X82929778Y-65954782D01*
D11*
X71595323Y-67429202D02*
X72357228Y-67429202D01*
X71976275Y-67810155D02*
X71976275Y-67048250D01*
X73309608Y-66810155D02*
X72833418Y-66810155D01*
X72833418Y-66810155D02*
X72785799Y-67286345D01*
X72785799Y-67286345D02*
X72833418Y-67238726D01*
X72833418Y-67238726D02*
X72928656Y-67191107D01*
X72928656Y-67191107D02*
X73166751Y-67191107D01*
X73166751Y-67191107D02*
X73261989Y-67238726D01*
X73261989Y-67238726D02*
X73309608Y-67286345D01*
X73309608Y-67286345D02*
X73357227Y-67381583D01*
X73357227Y-67381583D02*
X73357227Y-67619678D01*
X73357227Y-67619678D02*
X73309608Y-67714916D01*
X73309608Y-67714916D02*
X73261989Y-67762536D01*
X73261989Y-67762536D02*
X73166751Y-67810155D01*
X73166751Y-67810155D02*
X72928656Y-67810155D01*
X72928656Y-67810155D02*
X72833418Y-67762536D01*
X72833418Y-67762536D02*
X72785799Y-67714916D01*
X48230504Y-94657955D02*
X48230504Y-93991288D01*
X48230504Y-93657955D02*
X48192408Y-93705574D01*
X48192408Y-93705574D02*
X48230504Y-93753193D01*
X48230504Y-93753193D02*
X48268599Y-93705574D01*
X48268599Y-93705574D02*
X48230504Y-93657955D01*
X48230504Y-93657955D02*
X48230504Y-93753193D01*
X48611456Y-93991288D02*
X48611456Y-94657955D01*
X48611456Y-94086526D02*
X48649551Y-94038907D01*
X48649551Y-94038907D02*
X48725741Y-93991288D01*
X48725741Y-93991288D02*
X48840027Y-93991288D01*
X48840027Y-93991288D02*
X48916218Y-94038907D01*
X48916218Y-94038907D02*
X48954313Y-94134145D01*
X48954313Y-94134145D02*
X48954313Y-94657955D01*
X49220980Y-93991288D02*
X49525742Y-93991288D01*
X49335266Y-93657955D02*
X49335266Y-94515097D01*
X49335266Y-94515097D02*
X49373361Y-94610336D01*
X49373361Y-94610336D02*
X49449551Y-94657955D01*
X49449551Y-94657955D02*
X49525742Y-94657955D01*
X50097171Y-94610336D02*
X50020980Y-94657955D01*
X50020980Y-94657955D02*
X49868599Y-94657955D01*
X49868599Y-94657955D02*
X49792409Y-94610336D01*
X49792409Y-94610336D02*
X49754313Y-94515097D01*
X49754313Y-94515097D02*
X49754313Y-94134145D01*
X49754313Y-94134145D02*
X49792409Y-94038907D01*
X49792409Y-94038907D02*
X49868599Y-93991288D01*
X49868599Y-93991288D02*
X50020980Y-93991288D01*
X50020980Y-93991288D02*
X50097171Y-94038907D01*
X50097171Y-94038907D02*
X50135266Y-94134145D01*
X50135266Y-94134145D02*
X50135266Y-94229383D01*
X50135266Y-94229383D02*
X49754313Y-94324621D01*
X50478123Y-94657955D02*
X50478123Y-93991288D01*
X50478123Y-94181764D02*
X50516218Y-94086526D01*
X50516218Y-94086526D02*
X50554313Y-94038907D01*
X50554313Y-94038907D02*
X50630504Y-93991288D01*
X50630504Y-93991288D02*
X50706694Y-93991288D01*
X50973361Y-93991288D02*
X50973361Y-94657955D01*
X50973361Y-94086526D02*
X51011456Y-94038907D01*
X51011456Y-94038907D02*
X51087646Y-93991288D01*
X51087646Y-93991288D02*
X51201932Y-93991288D01*
X51201932Y-93991288D02*
X51278123Y-94038907D01*
X51278123Y-94038907D02*
X51316218Y-94134145D01*
X51316218Y-94134145D02*
X51316218Y-94657955D01*
X52040028Y-94657955D02*
X52040028Y-94134145D01*
X52040028Y-94134145D02*
X52001933Y-94038907D01*
X52001933Y-94038907D02*
X51925742Y-93991288D01*
X51925742Y-93991288D02*
X51773361Y-93991288D01*
X51773361Y-93991288D02*
X51697171Y-94038907D01*
X52040028Y-94610336D02*
X51963837Y-94657955D01*
X51963837Y-94657955D02*
X51773361Y-94657955D01*
X51773361Y-94657955D02*
X51697171Y-94610336D01*
X51697171Y-94610336D02*
X51659075Y-94515097D01*
X51659075Y-94515097D02*
X51659075Y-94419859D01*
X51659075Y-94419859D02*
X51697171Y-94324621D01*
X51697171Y-94324621D02*
X51773361Y-94277002D01*
X51773361Y-94277002D02*
X51963837Y-94277002D01*
X51963837Y-94277002D02*
X52040028Y-94229383D01*
X52535266Y-94657955D02*
X52459076Y-94610336D01*
X52459076Y-94610336D02*
X52420981Y-94515097D01*
X52420981Y-94515097D02*
X52420981Y-93657955D01*
X53449553Y-94657955D02*
X53449553Y-93657955D01*
X53792409Y-93753193D02*
X53830505Y-93705574D01*
X53830505Y-93705574D02*
X53906695Y-93657955D01*
X53906695Y-93657955D02*
X54097171Y-93657955D01*
X54097171Y-93657955D02*
X54173362Y-93705574D01*
X54173362Y-93705574D02*
X54211457Y-93753193D01*
X54211457Y-93753193D02*
X54249552Y-93848431D01*
X54249552Y-93848431D02*
X54249552Y-93943669D01*
X54249552Y-93943669D02*
X54211457Y-94086526D01*
X54211457Y-94086526D02*
X53754314Y-94657955D01*
X53754314Y-94657955D02*
X54249552Y-94657955D01*
X55049553Y-94562716D02*
X55011457Y-94610336D01*
X55011457Y-94610336D02*
X54897172Y-94657955D01*
X54897172Y-94657955D02*
X54820981Y-94657955D01*
X54820981Y-94657955D02*
X54706695Y-94610336D01*
X54706695Y-94610336D02*
X54630505Y-94515097D01*
X54630505Y-94515097D02*
X54592410Y-94419859D01*
X54592410Y-94419859D02*
X54554314Y-94229383D01*
X54554314Y-94229383D02*
X54554314Y-94086526D01*
X54554314Y-94086526D02*
X54592410Y-93896050D01*
X54592410Y-93896050D02*
X54630505Y-93800812D01*
X54630505Y-93800812D02*
X54706695Y-93705574D01*
X54706695Y-93705574D02*
X54820981Y-93657955D01*
X54820981Y-93657955D02*
X54897172Y-93657955D01*
X54897172Y-93657955D02*
X55011457Y-93705574D01*
X55011457Y-93705574D02*
X55049553Y-93753193D01*
X56268600Y-94134145D02*
X56382886Y-94181764D01*
X56382886Y-94181764D02*
X56420981Y-94229383D01*
X56420981Y-94229383D02*
X56459077Y-94324621D01*
X56459077Y-94324621D02*
X56459077Y-94467478D01*
X56459077Y-94467478D02*
X56420981Y-94562716D01*
X56420981Y-94562716D02*
X56382886Y-94610336D01*
X56382886Y-94610336D02*
X56306696Y-94657955D01*
X56306696Y-94657955D02*
X56001934Y-94657955D01*
X56001934Y-94657955D02*
X56001934Y-93657955D01*
X56001934Y-93657955D02*
X56268600Y-93657955D01*
X56268600Y-93657955D02*
X56344791Y-93705574D01*
X56344791Y-93705574D02*
X56382886Y-93753193D01*
X56382886Y-93753193D02*
X56420981Y-93848431D01*
X56420981Y-93848431D02*
X56420981Y-93943669D01*
X56420981Y-93943669D02*
X56382886Y-94038907D01*
X56382886Y-94038907D02*
X56344791Y-94086526D01*
X56344791Y-94086526D02*
X56268600Y-94134145D01*
X56268600Y-94134145D02*
X56001934Y-94134145D01*
X56801934Y-93657955D02*
X56801934Y-94467478D01*
X56801934Y-94467478D02*
X56840029Y-94562716D01*
X56840029Y-94562716D02*
X56878124Y-94610336D01*
X56878124Y-94610336D02*
X56954315Y-94657955D01*
X56954315Y-94657955D02*
X57106696Y-94657955D01*
X57106696Y-94657955D02*
X57182886Y-94610336D01*
X57182886Y-94610336D02*
X57220981Y-94562716D01*
X57220981Y-94562716D02*
X57259077Y-94467478D01*
X57259077Y-94467478D02*
X57259077Y-93657955D01*
X57601933Y-94610336D02*
X57716219Y-94657955D01*
X57716219Y-94657955D02*
X57906695Y-94657955D01*
X57906695Y-94657955D02*
X57982886Y-94610336D01*
X57982886Y-94610336D02*
X58020981Y-94562716D01*
X58020981Y-94562716D02*
X58059076Y-94467478D01*
X58059076Y-94467478D02*
X58059076Y-94372240D01*
X58059076Y-94372240D02*
X58020981Y-94277002D01*
X58020981Y-94277002D02*
X57982886Y-94229383D01*
X57982886Y-94229383D02*
X57906695Y-94181764D01*
X57906695Y-94181764D02*
X57754314Y-94134145D01*
X57754314Y-94134145D02*
X57678124Y-94086526D01*
X57678124Y-94086526D02*
X57640029Y-94038907D01*
X57640029Y-94038907D02*
X57601933Y-93943669D01*
X57601933Y-93943669D02*
X57601933Y-93848431D01*
X57601933Y-93848431D02*
X57640029Y-93753193D01*
X57640029Y-93753193D02*
X57678124Y-93705574D01*
X57678124Y-93705574D02*
X57754314Y-93657955D01*
X57754314Y-93657955D02*
X57944791Y-93657955D01*
X57944791Y-93657955D02*
X58059076Y-93705574D01*
D10*
X82124779Y-80558318D02*
X82249779Y-79558318D01*
X82249779Y-79558318D02*
X82630732Y-79558318D01*
X82630732Y-79558318D02*
X82720017Y-79605937D01*
X82720017Y-79605937D02*
X82761684Y-79653556D01*
X82761684Y-79653556D02*
X82797398Y-79748794D01*
X82797398Y-79748794D02*
X82779541Y-79891651D01*
X82779541Y-79891651D02*
X82720017Y-79986889D01*
X82720017Y-79986889D02*
X82666446Y-80034508D01*
X82666446Y-80034508D02*
X82565256Y-80082127D01*
X82565256Y-80082127D02*
X82184303Y-80082127D01*
X83124779Y-80558318D02*
X83249779Y-79558318D01*
X83600969Y-80558318D02*
X83725969Y-79558318D01*
X83725969Y-79558318D02*
X83964065Y-79558318D01*
X83964065Y-79558318D02*
X84100969Y-79605937D01*
X84100969Y-79605937D02*
X84184303Y-79701175D01*
X84184303Y-79701175D02*
X84220017Y-79796413D01*
X84220017Y-79796413D02*
X84243827Y-79986889D01*
X84243827Y-79986889D02*
X84225969Y-80129746D01*
X84225969Y-80129746D02*
X84154541Y-80320222D01*
X84154541Y-80320222D02*
X84095017Y-80415460D01*
X84095017Y-80415460D02*
X83987874Y-80510699D01*
X83987874Y-80510699D02*
X83839065Y-80558318D01*
X83839065Y-80558318D02*
X83600969Y-80558318D01*
X84600969Y-80558318D02*
X84725969Y-79558318D01*
X85124778Y-80177365D02*
X85886683Y-80177365D01*
X86714064Y-80034508D02*
X86850969Y-80082127D01*
X86850969Y-80082127D02*
X86892635Y-80129746D01*
X86892635Y-80129746D02*
X86928350Y-80224984D01*
X86928350Y-80224984D02*
X86910492Y-80367841D01*
X86910492Y-80367841D02*
X86850969Y-80463079D01*
X86850969Y-80463079D02*
X86797397Y-80510699D01*
X86797397Y-80510699D02*
X86696207Y-80558318D01*
X86696207Y-80558318D02*
X86315254Y-80558318D01*
X86315254Y-80558318D02*
X86440254Y-79558318D01*
X86440254Y-79558318D02*
X86773588Y-79558318D01*
X86773588Y-79558318D02*
X86862873Y-79605937D01*
X86862873Y-79605937D02*
X86904540Y-79653556D01*
X86904540Y-79653556D02*
X86940254Y-79748794D01*
X86940254Y-79748794D02*
X86928350Y-79844032D01*
X86928350Y-79844032D02*
X86868826Y-79939270D01*
X86868826Y-79939270D02*
X86815254Y-79986889D01*
X86815254Y-79986889D02*
X86714064Y-80034508D01*
X86714064Y-80034508D02*
X86380731Y-80034508D01*
X87630731Y-79558318D02*
X87821207Y-79558318D01*
X87821207Y-79558318D02*
X87910492Y-79605937D01*
X87910492Y-79605937D02*
X87993826Y-79701175D01*
X87993826Y-79701175D02*
X88017635Y-79891651D01*
X88017635Y-79891651D02*
X87975969Y-80224984D01*
X87975969Y-80224984D02*
X87904540Y-80415460D01*
X87904540Y-80415460D02*
X87797397Y-80510699D01*
X87797397Y-80510699D02*
X87696207Y-80558318D01*
X87696207Y-80558318D02*
X87505731Y-80558318D01*
X87505731Y-80558318D02*
X87416445Y-80510699D01*
X87416445Y-80510699D02*
X87333112Y-80415460D01*
X87333112Y-80415460D02*
X87309302Y-80224984D01*
X87309302Y-80224984D02*
X87350969Y-79891651D01*
X87350969Y-79891651D02*
X87422397Y-79701175D01*
X87422397Y-79701175D02*
X87529540Y-79605937D01*
X87529540Y-79605937D02*
X87630731Y-79558318D01*
X88392635Y-79558318D02*
X88934302Y-80558318D01*
X89059302Y-79558318D02*
X88267635Y-80558318D01*
X89362873Y-80177365D02*
X90124778Y-80177365D01*
X90868826Y-79558318D02*
X90964064Y-79558318D01*
X90964064Y-79558318D02*
X91053349Y-79605937D01*
X91053349Y-79605937D02*
X91095016Y-79653556D01*
X91095016Y-79653556D02*
X91130730Y-79748794D01*
X91130730Y-79748794D02*
X91154540Y-79939270D01*
X91154540Y-79939270D02*
X91124778Y-80177365D01*
X91124778Y-80177365D02*
X91053349Y-80367841D01*
X91053349Y-80367841D02*
X90993826Y-80463079D01*
X90993826Y-80463079D02*
X90940254Y-80510699D01*
X90940254Y-80510699D02*
X90839064Y-80558318D01*
X90839064Y-80558318D02*
X90743826Y-80558318D01*
X90743826Y-80558318D02*
X90654540Y-80510699D01*
X90654540Y-80510699D02*
X90612873Y-80463079D01*
X90612873Y-80463079D02*
X90577159Y-80367841D01*
X90577159Y-80367841D02*
X90553349Y-80177365D01*
X90553349Y-80177365D02*
X90583111Y-79939270D01*
X90583111Y-79939270D02*
X90654540Y-79748794D01*
X90654540Y-79748794D02*
X90714064Y-79653556D01*
X90714064Y-79653556D02*
X90767635Y-79605937D01*
X90767635Y-79605937D02*
X90868826Y-79558318D01*
X92029540Y-80558318D02*
X91458111Y-80558318D01*
X91743826Y-80558318D02*
X91868826Y-79558318D01*
X91868826Y-79558318D02*
X91755730Y-79701175D01*
X91755730Y-79701175D02*
X91648588Y-79796413D01*
X91648588Y-79796413D02*
X91547397Y-79844032D01*
X92505730Y-80177365D02*
X93267635Y-80177365D01*
X93684302Y-80272603D02*
X94160492Y-80272603D01*
X93553349Y-80558318D02*
X94011683Y-79558318D01*
X94011683Y-79558318D02*
X94220016Y-80558318D01*
X94553349Y-80558318D02*
X94678349Y-79558318D01*
X94678349Y-79558318D02*
X94916445Y-79558318D01*
X94916445Y-79558318D02*
X95053349Y-79605937D01*
X95053349Y-79605937D02*
X95136683Y-79701175D01*
X95136683Y-79701175D02*
X95172397Y-79796413D01*
X95172397Y-79796413D02*
X95196207Y-79986889D01*
X95196207Y-79986889D02*
X95178349Y-80129746D01*
X95178349Y-80129746D02*
X95106921Y-80320222D01*
X95106921Y-80320222D02*
X95047397Y-80415460D01*
X95047397Y-80415460D02*
X94940254Y-80510699D01*
X94940254Y-80510699D02*
X94791445Y-80558318D01*
X94791445Y-80558318D02*
X94553349Y-80558318D01*
X95541445Y-80272603D02*
X96017635Y-80272603D01*
X95410492Y-80558318D02*
X95868826Y-79558318D01*
X95868826Y-79558318D02*
X96077159Y-80558318D01*
X96410492Y-80558318D02*
X96535492Y-79558318D01*
X96535492Y-79558318D02*
X96916445Y-79558318D01*
X96916445Y-79558318D02*
X97005730Y-79605937D01*
X97005730Y-79605937D02*
X97047397Y-79653556D01*
X97047397Y-79653556D02*
X97083111Y-79748794D01*
X97083111Y-79748794D02*
X97065254Y-79891651D01*
X97065254Y-79891651D02*
X97005730Y-79986889D01*
X97005730Y-79986889D02*
X96952159Y-80034508D01*
X96952159Y-80034508D02*
X96850969Y-80082127D01*
X96850969Y-80082127D02*
X96470016Y-80082127D01*
X97392635Y-79558318D02*
X97964064Y-79558318D01*
X97553350Y-80558318D02*
X97678350Y-79558318D01*
X98220016Y-80177365D02*
X98981921Y-80177365D01*
X99410492Y-80558318D02*
X99535492Y-79558318D01*
X99952159Y-79653556D02*
X100005730Y-79605937D01*
X100005730Y-79605937D02*
X100106920Y-79558318D01*
X100106920Y-79558318D02*
X100345016Y-79558318D01*
X100345016Y-79558318D02*
X100434301Y-79605937D01*
X100434301Y-79605937D02*
X100475968Y-79653556D01*
X100475968Y-79653556D02*
X100511682Y-79748794D01*
X100511682Y-79748794D02*
X100499778Y-79844032D01*
X100499778Y-79844032D02*
X100434301Y-79986889D01*
X100434301Y-79986889D02*
X99791444Y-80558318D01*
X99791444Y-80558318D02*
X100410492Y-80558318D01*
X101422397Y-80463079D02*
X101368825Y-80510699D01*
X101368825Y-80510699D02*
X101220016Y-80558318D01*
X101220016Y-80558318D02*
X101124778Y-80558318D01*
X101124778Y-80558318D02*
X100987873Y-80510699D01*
X100987873Y-80510699D02*
X100904540Y-80415460D01*
X100904540Y-80415460D02*
X100868825Y-80320222D01*
X100868825Y-80320222D02*
X100845016Y-80129746D01*
X100845016Y-80129746D02*
X100862873Y-79986889D01*
X100862873Y-79986889D02*
X100934301Y-79796413D01*
X100934301Y-79796413D02*
X100993825Y-79701175D01*
X100993825Y-79701175D02*
X101100968Y-79605937D01*
X101100968Y-79605937D02*
X101249778Y-79558318D01*
X101249778Y-79558318D02*
X101345016Y-79558318D01*
X101345016Y-79558318D02*
X101481921Y-79605937D01*
X101481921Y-79605937D02*
X101523587Y-79653556D01*
X101886682Y-80177365D02*
X102648587Y-80177365D01*
X103065254Y-80272603D02*
X103541444Y-80272603D01*
X102934301Y-80558318D02*
X103392635Y-79558318D01*
X103392635Y-79558318D02*
X103600968Y-80558318D01*
X104458111Y-80558318D02*
X103886682Y-80558318D01*
X104172397Y-80558318D02*
X104297397Y-79558318D01*
X104297397Y-79558318D02*
X104184301Y-79701175D01*
X104184301Y-79701175D02*
X104077159Y-79796413D01*
X104077159Y-79796413D02*
X103975968Y-79844032D01*
X48305969Y-80960210D02*
X48572635Y-80960210D01*
X48686921Y-81379258D02*
X48305969Y-81379258D01*
X48305969Y-81379258D02*
X48305969Y-80579258D01*
X48305969Y-80579258D02*
X48686921Y-80579258D01*
X48953588Y-80579258D02*
X49486922Y-81379258D01*
X49486922Y-80579258D02*
X48953588Y-81379258D01*
X49677398Y-80579258D02*
X50134541Y-80579258D01*
X49905969Y-81379258D02*
X49905969Y-80579258D01*
X50401208Y-81074496D02*
X51010732Y-81074496D01*
X51391684Y-81379258D02*
X51391684Y-80579258D01*
X51734540Y-80655448D02*
X51772636Y-80617353D01*
X51772636Y-80617353D02*
X51848826Y-80579258D01*
X51848826Y-80579258D02*
X52039302Y-80579258D01*
X52039302Y-80579258D02*
X52115493Y-80617353D01*
X52115493Y-80617353D02*
X52153588Y-80655448D01*
X52153588Y-80655448D02*
X52191683Y-80731639D01*
X52191683Y-80731639D02*
X52191683Y-80807829D01*
X52191683Y-80807829D02*
X52153588Y-80922115D01*
X52153588Y-80922115D02*
X51696445Y-81379258D01*
X51696445Y-81379258D02*
X52191683Y-81379258D01*
X52991684Y-81303067D02*
X52953588Y-81341163D01*
X52953588Y-81341163D02*
X52839303Y-81379258D01*
X52839303Y-81379258D02*
X52763112Y-81379258D01*
X52763112Y-81379258D02*
X52648826Y-81341163D01*
X52648826Y-81341163D02*
X52572636Y-81264972D01*
X52572636Y-81264972D02*
X52534541Y-81188782D01*
X52534541Y-81188782D02*
X52496445Y-81036401D01*
X52496445Y-81036401D02*
X52496445Y-80922115D01*
X52496445Y-80922115D02*
X52534541Y-80769734D01*
X52534541Y-80769734D02*
X52572636Y-80693543D01*
X52572636Y-80693543D02*
X52648826Y-80617353D01*
X52648826Y-80617353D02*
X52763112Y-80579258D01*
X52763112Y-80579258D02*
X52839303Y-80579258D01*
X52839303Y-80579258D02*
X52953588Y-80617353D01*
X52953588Y-80617353D02*
X52991684Y-80655448D01*
X54210731Y-80960210D02*
X54325017Y-80998305D01*
X54325017Y-80998305D02*
X54363112Y-81036401D01*
X54363112Y-81036401D02*
X54401208Y-81112591D01*
X54401208Y-81112591D02*
X54401208Y-81226877D01*
X54401208Y-81226877D02*
X54363112Y-81303067D01*
X54363112Y-81303067D02*
X54325017Y-81341163D01*
X54325017Y-81341163D02*
X54248827Y-81379258D01*
X54248827Y-81379258D02*
X53944065Y-81379258D01*
X53944065Y-81379258D02*
X53944065Y-80579258D01*
X53944065Y-80579258D02*
X54210731Y-80579258D01*
X54210731Y-80579258D02*
X54286922Y-80617353D01*
X54286922Y-80617353D02*
X54325017Y-80655448D01*
X54325017Y-80655448D02*
X54363112Y-80731639D01*
X54363112Y-80731639D02*
X54363112Y-80807829D01*
X54363112Y-80807829D02*
X54325017Y-80884020D01*
X54325017Y-80884020D02*
X54286922Y-80922115D01*
X54286922Y-80922115D02*
X54210731Y-80960210D01*
X54210731Y-80960210D02*
X53944065Y-80960210D01*
X54744065Y-80579258D02*
X54744065Y-81226877D01*
X54744065Y-81226877D02*
X54782160Y-81303067D01*
X54782160Y-81303067D02*
X54820255Y-81341163D01*
X54820255Y-81341163D02*
X54896446Y-81379258D01*
X54896446Y-81379258D02*
X55048827Y-81379258D01*
X55048827Y-81379258D02*
X55125017Y-81341163D01*
X55125017Y-81341163D02*
X55163112Y-81303067D01*
X55163112Y-81303067D02*
X55201208Y-81226877D01*
X55201208Y-81226877D02*
X55201208Y-80579258D01*
X55544064Y-81341163D02*
X55658350Y-81379258D01*
X55658350Y-81379258D02*
X55848826Y-81379258D01*
X55848826Y-81379258D02*
X55925017Y-81341163D01*
X55925017Y-81341163D02*
X55963112Y-81303067D01*
X55963112Y-81303067D02*
X56001207Y-81226877D01*
X56001207Y-81226877D02*
X56001207Y-81150686D01*
X56001207Y-81150686D02*
X55963112Y-81074496D01*
X55963112Y-81074496D02*
X55925017Y-81036401D01*
X55925017Y-81036401D02*
X55848826Y-80998305D01*
X55848826Y-80998305D02*
X55696445Y-80960210D01*
X55696445Y-80960210D02*
X55620255Y-80922115D01*
X55620255Y-80922115D02*
X55582160Y-80884020D01*
X55582160Y-80884020D02*
X55544064Y-80807829D01*
X55544064Y-80807829D02*
X55544064Y-80731639D01*
X55544064Y-80731639D02*
X55582160Y-80655448D01*
X55582160Y-80655448D02*
X55620255Y-80617353D01*
X55620255Y-80617353D02*
X55696445Y-80579258D01*
X55696445Y-80579258D02*
X55886922Y-80579258D01*
X55886922Y-80579258D02*
X56001207Y-80617353D01*
D11*
X66480408Y-67898136D02*
X66594694Y-67936231D01*
X66594694Y-67936231D02*
X66785170Y-67936231D01*
X66785170Y-67936231D02*
X66861361Y-67898136D01*
X66861361Y-67898136D02*
X66899456Y-67860040D01*
X66899456Y-67860040D02*
X66937551Y-67783850D01*
X66937551Y-67783850D02*
X66937551Y-67707659D01*
X66937551Y-67707659D02*
X66899456Y-67631469D01*
X66899456Y-67631469D02*
X66861361Y-67593374D01*
X66861361Y-67593374D02*
X66785170Y-67555278D01*
X66785170Y-67555278D02*
X66632789Y-67517183D01*
X66632789Y-67517183D02*
X66556599Y-67479088D01*
X66556599Y-67479088D02*
X66518504Y-67440993D01*
X66518504Y-67440993D02*
X66480408Y-67364802D01*
X66480408Y-67364802D02*
X66480408Y-67288612D01*
X66480408Y-67288612D02*
X66518504Y-67212421D01*
X66518504Y-67212421D02*
X66556599Y-67174326D01*
X66556599Y-67174326D02*
X66632789Y-67136231D01*
X66632789Y-67136231D02*
X66823266Y-67136231D01*
X66823266Y-67136231D02*
X66937551Y-67174326D01*
X67280409Y-67936231D02*
X67280409Y-67136231D01*
X67280409Y-67136231D02*
X67470885Y-67136231D01*
X67470885Y-67136231D02*
X67585171Y-67174326D01*
X67585171Y-67174326D02*
X67661361Y-67250516D01*
X67661361Y-67250516D02*
X67699456Y-67326707D01*
X67699456Y-67326707D02*
X67737552Y-67479088D01*
X67737552Y-67479088D02*
X67737552Y-67593374D01*
X67737552Y-67593374D02*
X67699456Y-67745755D01*
X67699456Y-67745755D02*
X67661361Y-67821945D01*
X67661361Y-67821945D02*
X67585171Y-67898136D01*
X67585171Y-67898136D02*
X67470885Y-67936231D01*
X67470885Y-67936231D02*
X67280409Y-67936231D01*
X63724504Y-72740936D02*
X63867361Y-72788555D01*
X63867361Y-72788555D02*
X64105456Y-72788555D01*
X64105456Y-72788555D02*
X64200694Y-72740936D01*
X64200694Y-72740936D02*
X64248313Y-72693316D01*
X64248313Y-72693316D02*
X64295932Y-72598078D01*
X64295932Y-72598078D02*
X64295932Y-72502840D01*
X64295932Y-72502840D02*
X64248313Y-72407602D01*
X64248313Y-72407602D02*
X64200694Y-72359983D01*
X64200694Y-72359983D02*
X64105456Y-72312364D01*
X64105456Y-72312364D02*
X63914980Y-72264745D01*
X63914980Y-72264745D02*
X63819742Y-72217126D01*
X63819742Y-72217126D02*
X63772123Y-72169507D01*
X63772123Y-72169507D02*
X63724504Y-72074269D01*
X63724504Y-72074269D02*
X63724504Y-71979031D01*
X63724504Y-71979031D02*
X63772123Y-71883793D01*
X63772123Y-71883793D02*
X63819742Y-71836174D01*
X63819742Y-71836174D02*
X63914980Y-71788555D01*
X63914980Y-71788555D02*
X64153075Y-71788555D01*
X64153075Y-71788555D02*
X64295932Y-71836174D01*
X65295932Y-72693316D02*
X65248313Y-72740936D01*
X65248313Y-72740936D02*
X65105456Y-72788555D01*
X65105456Y-72788555D02*
X65010218Y-72788555D01*
X65010218Y-72788555D02*
X64867361Y-72740936D01*
X64867361Y-72740936D02*
X64772123Y-72645697D01*
X64772123Y-72645697D02*
X64724504Y-72550459D01*
X64724504Y-72550459D02*
X64676885Y-72359983D01*
X64676885Y-72359983D02*
X64676885Y-72217126D01*
X64676885Y-72217126D02*
X64724504Y-72026650D01*
X64724504Y-72026650D02*
X64772123Y-71931412D01*
X64772123Y-71931412D02*
X64867361Y-71836174D01*
X64867361Y-71836174D02*
X65010218Y-71788555D01*
X65010218Y-71788555D02*
X65105456Y-71788555D01*
X65105456Y-71788555D02*
X65248313Y-71836174D01*
X65248313Y-71836174D02*
X65295932Y-71883793D01*
X90957724Y-76026048D02*
X90881534Y-75987953D01*
X90881534Y-75987953D02*
X90805343Y-75911763D01*
X90805343Y-75911763D02*
X90691057Y-75797477D01*
X90691057Y-75797477D02*
X90614867Y-75759382D01*
X90614867Y-75759382D02*
X90538676Y-75759382D01*
X90576772Y-75949858D02*
X90500581Y-75911763D01*
X90500581Y-75911763D02*
X90424391Y-75835572D01*
X90424391Y-75835572D02*
X90386295Y-75683191D01*
X90386295Y-75683191D02*
X90386295Y-75416524D01*
X90386295Y-75416524D02*
X90424391Y-75264143D01*
X90424391Y-75264143D02*
X90500581Y-75187953D01*
X90500581Y-75187953D02*
X90576772Y-75149858D01*
X90576772Y-75149858D02*
X90729153Y-75149858D01*
X90729153Y-75149858D02*
X90805343Y-75187953D01*
X90805343Y-75187953D02*
X90881534Y-75264143D01*
X90881534Y-75264143D02*
X90919629Y-75416524D01*
X90919629Y-75416524D02*
X90919629Y-75683191D01*
X90919629Y-75683191D02*
X90881534Y-75835572D01*
X90881534Y-75835572D02*
X90805343Y-75911763D01*
X90805343Y-75911763D02*
X90729153Y-75949858D01*
X90729153Y-75949858D02*
X90576772Y-75949858D01*
X91186295Y-75149858D02*
X91681533Y-75149858D01*
X91681533Y-75149858D02*
X91414867Y-75454620D01*
X91414867Y-75454620D02*
X91529152Y-75454620D01*
X91529152Y-75454620D02*
X91605343Y-75492715D01*
X91605343Y-75492715D02*
X91643438Y-75530810D01*
X91643438Y-75530810D02*
X91681533Y-75607001D01*
X91681533Y-75607001D02*
X91681533Y-75797477D01*
X91681533Y-75797477D02*
X91643438Y-75873667D01*
X91643438Y-75873667D02*
X91605343Y-75911763D01*
X91605343Y-75911763D02*
X91529152Y-75949858D01*
X91529152Y-75949858D02*
X91300581Y-75949858D01*
X91300581Y-75949858D02*
X91224390Y-75911763D01*
X91224390Y-75911763D02*
X91186295Y-75873667D01*
X84200582Y-72999858D02*
X83933915Y-72618905D01*
X83743439Y-72999858D02*
X83743439Y-72199858D01*
X83743439Y-72199858D02*
X84048201Y-72199858D01*
X84048201Y-72199858D02*
X84124391Y-72237953D01*
X84124391Y-72237953D02*
X84162486Y-72276048D01*
X84162486Y-72276048D02*
X84200582Y-72352239D01*
X84200582Y-72352239D02*
X84200582Y-72466524D01*
X84200582Y-72466524D02*
X84162486Y-72542715D01*
X84162486Y-72542715D02*
X84124391Y-72580810D01*
X84124391Y-72580810D02*
X84048201Y-72618905D01*
X84048201Y-72618905D02*
X83743439Y-72618905D01*
X84924391Y-72199858D02*
X84543439Y-72199858D01*
X84543439Y-72199858D02*
X84505343Y-72580810D01*
X84505343Y-72580810D02*
X84543439Y-72542715D01*
X84543439Y-72542715D02*
X84619629Y-72504620D01*
X84619629Y-72504620D02*
X84810105Y-72504620D01*
X84810105Y-72504620D02*
X84886296Y-72542715D01*
X84886296Y-72542715D02*
X84924391Y-72580810D01*
X84924391Y-72580810D02*
X84962486Y-72657001D01*
X84962486Y-72657001D02*
X84962486Y-72847477D01*
X84962486Y-72847477D02*
X84924391Y-72923667D01*
X84924391Y-72923667D02*
X84886296Y-72961763D01*
X84886296Y-72961763D02*
X84810105Y-72999858D01*
X84810105Y-72999858D02*
X84619629Y-72999858D01*
X84619629Y-72999858D02*
X84543439Y-72961763D01*
X84543439Y-72961763D02*
X84505343Y-72923667D01*
X57450581Y-91792382D02*
X57450581Y-92506667D01*
X57450581Y-92506667D02*
X57402962Y-92649524D01*
X57402962Y-92649524D02*
X57307724Y-92744763D01*
X57307724Y-92744763D02*
X57164867Y-92792382D01*
X57164867Y-92792382D02*
X57069629Y-92792382D01*
X57831534Y-91792382D02*
X58450581Y-91792382D01*
X58450581Y-91792382D02*
X58117248Y-92173334D01*
X58117248Y-92173334D02*
X58260105Y-92173334D01*
X58260105Y-92173334D02*
X58355343Y-92220953D01*
X58355343Y-92220953D02*
X58402962Y-92268572D01*
X58402962Y-92268572D02*
X58450581Y-92363810D01*
X58450581Y-92363810D02*
X58450581Y-92601905D01*
X58450581Y-92601905D02*
X58402962Y-92697143D01*
X58402962Y-92697143D02*
X58355343Y-92744763D01*
X58355343Y-92744763D02*
X58260105Y-92792382D01*
X58260105Y-92792382D02*
X57974391Y-92792382D01*
X57974391Y-92792382D02*
X57879153Y-92744763D01*
X57879153Y-92744763D02*
X57831534Y-92697143D01*
X68045477Y-72379431D02*
X68045477Y-72950859D01*
X68045477Y-72950859D02*
X68007382Y-73065145D01*
X68007382Y-73065145D02*
X67931191Y-73141336D01*
X67931191Y-73141336D02*
X67816906Y-73179431D01*
X67816906Y-73179431D02*
X67740715Y-73179431D01*
X68845477Y-73179431D02*
X68388334Y-73179431D01*
X68616906Y-73179431D02*
X68616906Y-72379431D01*
X68616906Y-72379431D02*
X68540715Y-72493716D01*
X68540715Y-72493716D02*
X68464525Y-72569907D01*
X68464525Y-72569907D02*
X68388334Y-72608002D01*
X55922010Y-85492382D02*
X55922010Y-86301905D01*
X55922010Y-86301905D02*
X55969629Y-86397143D01*
X55969629Y-86397143D02*
X56017248Y-86444763D01*
X56017248Y-86444763D02*
X56112486Y-86492382D01*
X56112486Y-86492382D02*
X56302962Y-86492382D01*
X56302962Y-86492382D02*
X56398200Y-86444763D01*
X56398200Y-86444763D02*
X56445819Y-86397143D01*
X56445819Y-86397143D02*
X56493438Y-86301905D01*
X56493438Y-86301905D02*
X56493438Y-85492382D01*
X57493438Y-86492382D02*
X56922010Y-86492382D01*
X57207724Y-86492382D02*
X57207724Y-85492382D01*
X57207724Y-85492382D02*
X57112486Y-85635239D01*
X57112486Y-85635239D02*
X57017248Y-85730477D01*
X57017248Y-85730477D02*
X56922010Y-85778096D01*
X78250582Y-79149858D02*
X77983915Y-78768905D01*
X77793439Y-79149858D02*
X77793439Y-78349858D01*
X77793439Y-78349858D02*
X78098201Y-78349858D01*
X78098201Y-78349858D02*
X78174391Y-78387953D01*
X78174391Y-78387953D02*
X78212486Y-78426048D01*
X78212486Y-78426048D02*
X78250582Y-78502239D01*
X78250582Y-78502239D02*
X78250582Y-78616524D01*
X78250582Y-78616524D02*
X78212486Y-78692715D01*
X78212486Y-78692715D02*
X78174391Y-78730810D01*
X78174391Y-78730810D02*
X78098201Y-78768905D01*
X78098201Y-78768905D02*
X77793439Y-78768905D01*
X78517248Y-78349858D02*
X79012486Y-78349858D01*
X79012486Y-78349858D02*
X78745820Y-78654620D01*
X78745820Y-78654620D02*
X78860105Y-78654620D01*
X78860105Y-78654620D02*
X78936296Y-78692715D01*
X78936296Y-78692715D02*
X78974391Y-78730810D01*
X78974391Y-78730810D02*
X79012486Y-78807001D01*
X79012486Y-78807001D02*
X79012486Y-78997477D01*
X79012486Y-78997477D02*
X78974391Y-79073667D01*
X78974391Y-79073667D02*
X78936296Y-79111763D01*
X78936296Y-79111763D02*
X78860105Y-79149858D01*
X78860105Y-79149858D02*
X78631534Y-79149858D01*
X78631534Y-79149858D02*
X78555343Y-79111763D01*
X78555343Y-79111763D02*
X78517248Y-79073667D01*
X81093439Y-68699858D02*
X81093439Y-67899858D01*
X81093439Y-67899858D02*
X81283915Y-67899858D01*
X81283915Y-67899858D02*
X81398201Y-67937953D01*
X81398201Y-67937953D02*
X81474391Y-68014143D01*
X81474391Y-68014143D02*
X81512486Y-68090334D01*
X81512486Y-68090334D02*
X81550582Y-68242715D01*
X81550582Y-68242715D02*
X81550582Y-68357001D01*
X81550582Y-68357001D02*
X81512486Y-68509382D01*
X81512486Y-68509382D02*
X81474391Y-68585572D01*
X81474391Y-68585572D02*
X81398201Y-68661763D01*
X81398201Y-68661763D02*
X81283915Y-68699858D01*
X81283915Y-68699858D02*
X81093439Y-68699858D01*
X81855343Y-67976048D02*
X81893439Y-67937953D01*
X81893439Y-67937953D02*
X81969629Y-67899858D01*
X81969629Y-67899858D02*
X82160105Y-67899858D01*
X82160105Y-67899858D02*
X82236296Y-67937953D01*
X82236296Y-67937953D02*
X82274391Y-67976048D01*
X82274391Y-67976048D02*
X82312486Y-68052239D01*
X82312486Y-68052239D02*
X82312486Y-68128429D01*
X82312486Y-68128429D02*
X82274391Y-68242715D01*
X82274391Y-68242715D02*
X81817248Y-68699858D01*
X81817248Y-68699858D02*
X82312486Y-68699858D01*
X84507724Y-75826048D02*
X84431534Y-75787953D01*
X84431534Y-75787953D02*
X84355343Y-75711763D01*
X84355343Y-75711763D02*
X84241057Y-75597477D01*
X84241057Y-75597477D02*
X84164867Y-75559382D01*
X84164867Y-75559382D02*
X84088676Y-75559382D01*
X84126772Y-75749858D02*
X84050581Y-75711763D01*
X84050581Y-75711763D02*
X83974391Y-75635572D01*
X83974391Y-75635572D02*
X83936295Y-75483191D01*
X83936295Y-75483191D02*
X83936295Y-75216524D01*
X83936295Y-75216524D02*
X83974391Y-75064143D01*
X83974391Y-75064143D02*
X84050581Y-74987953D01*
X84050581Y-74987953D02*
X84126772Y-74949858D01*
X84126772Y-74949858D02*
X84279153Y-74949858D01*
X84279153Y-74949858D02*
X84355343Y-74987953D01*
X84355343Y-74987953D02*
X84431534Y-75064143D01*
X84431534Y-75064143D02*
X84469629Y-75216524D01*
X84469629Y-75216524D02*
X84469629Y-75483191D01*
X84469629Y-75483191D02*
X84431534Y-75635572D01*
X84431534Y-75635572D02*
X84355343Y-75711763D01*
X84355343Y-75711763D02*
X84279153Y-75749858D01*
X84279153Y-75749858D02*
X84126772Y-75749858D01*
X84774390Y-75026048D02*
X84812486Y-74987953D01*
X84812486Y-74987953D02*
X84888676Y-74949858D01*
X84888676Y-74949858D02*
X85079152Y-74949858D01*
X85079152Y-74949858D02*
X85155343Y-74987953D01*
X85155343Y-74987953D02*
X85193438Y-75026048D01*
X85193438Y-75026048D02*
X85231533Y-75102239D01*
X85231533Y-75102239D02*
X85231533Y-75178429D01*
X85231533Y-75178429D02*
X85193438Y-75292715D01*
X85193438Y-75292715D02*
X84736295Y-75749858D01*
X84736295Y-75749858D02*
X85231533Y-75749858D01*
X70793439Y-76849858D02*
X70793439Y-76049858D01*
X70793439Y-76049858D02*
X70983915Y-76049858D01*
X70983915Y-76049858D02*
X71098201Y-76087953D01*
X71098201Y-76087953D02*
X71174391Y-76164143D01*
X71174391Y-76164143D02*
X71212486Y-76240334D01*
X71212486Y-76240334D02*
X71250582Y-76392715D01*
X71250582Y-76392715D02*
X71250582Y-76507001D01*
X71250582Y-76507001D02*
X71212486Y-76659382D01*
X71212486Y-76659382D02*
X71174391Y-76735572D01*
X71174391Y-76735572D02*
X71098201Y-76811763D01*
X71098201Y-76811763D02*
X70983915Y-76849858D01*
X70983915Y-76849858D02*
X70793439Y-76849858D01*
X71936296Y-76316524D02*
X71936296Y-76849858D01*
X71745820Y-76011763D02*
X71555343Y-76583191D01*
X71555343Y-76583191D02*
X72050582Y-76583191D01*
X78200582Y-71599858D02*
X77933915Y-71218905D01*
X77743439Y-71599858D02*
X77743439Y-70799858D01*
X77743439Y-70799858D02*
X78048201Y-70799858D01*
X78048201Y-70799858D02*
X78124391Y-70837953D01*
X78124391Y-70837953D02*
X78162486Y-70876048D01*
X78162486Y-70876048D02*
X78200582Y-70952239D01*
X78200582Y-70952239D02*
X78200582Y-71066524D01*
X78200582Y-71066524D02*
X78162486Y-71142715D01*
X78162486Y-71142715D02*
X78124391Y-71180810D01*
X78124391Y-71180810D02*
X78048201Y-71218905D01*
X78048201Y-71218905D02*
X77743439Y-71218905D01*
X78962486Y-71599858D02*
X78505343Y-71599858D01*
X78733915Y-71599858D02*
X78733915Y-70799858D01*
X78733915Y-70799858D02*
X78657724Y-70914143D01*
X78657724Y-70914143D02*
X78581534Y-70990334D01*
X78581534Y-70990334D02*
X78505343Y-71028429D01*
X90650582Y-72999858D02*
X90383915Y-72618905D01*
X90193439Y-72999858D02*
X90193439Y-72199858D01*
X90193439Y-72199858D02*
X90498201Y-72199858D01*
X90498201Y-72199858D02*
X90574391Y-72237953D01*
X90574391Y-72237953D02*
X90612486Y-72276048D01*
X90612486Y-72276048D02*
X90650582Y-72352239D01*
X90650582Y-72352239D02*
X90650582Y-72466524D01*
X90650582Y-72466524D02*
X90612486Y-72542715D01*
X90612486Y-72542715D02*
X90574391Y-72580810D01*
X90574391Y-72580810D02*
X90498201Y-72618905D01*
X90498201Y-72618905D02*
X90193439Y-72618905D01*
X91107724Y-72542715D02*
X91031534Y-72504620D01*
X91031534Y-72504620D02*
X90993439Y-72466524D01*
X90993439Y-72466524D02*
X90955343Y-72390334D01*
X90955343Y-72390334D02*
X90955343Y-72352239D01*
X90955343Y-72352239D02*
X90993439Y-72276048D01*
X90993439Y-72276048D02*
X91031534Y-72237953D01*
X91031534Y-72237953D02*
X91107724Y-72199858D01*
X91107724Y-72199858D02*
X91260105Y-72199858D01*
X91260105Y-72199858D02*
X91336296Y-72237953D01*
X91336296Y-72237953D02*
X91374391Y-72276048D01*
X91374391Y-72276048D02*
X91412486Y-72352239D01*
X91412486Y-72352239D02*
X91412486Y-72390334D01*
X91412486Y-72390334D02*
X91374391Y-72466524D01*
X91374391Y-72466524D02*
X91336296Y-72504620D01*
X91336296Y-72504620D02*
X91260105Y-72542715D01*
X91260105Y-72542715D02*
X91107724Y-72542715D01*
X91107724Y-72542715D02*
X91031534Y-72580810D01*
X91031534Y-72580810D02*
X90993439Y-72618905D01*
X90993439Y-72618905D02*
X90955343Y-72695096D01*
X90955343Y-72695096D02*
X90955343Y-72847477D01*
X90955343Y-72847477D02*
X90993439Y-72923667D01*
X90993439Y-72923667D02*
X91031534Y-72961763D01*
X91031534Y-72961763D02*
X91107724Y-72999858D01*
X91107724Y-72999858D02*
X91260105Y-72999858D01*
X91260105Y-72999858D02*
X91336296Y-72961763D01*
X91336296Y-72961763D02*
X91374391Y-72923667D01*
X91374391Y-72923667D02*
X91412486Y-72847477D01*
X91412486Y-72847477D02*
X91412486Y-72695096D01*
X91412486Y-72695096D02*
X91374391Y-72618905D01*
X91374391Y-72618905D02*
X91336296Y-72580810D01*
X91336296Y-72580810D02*
X91260105Y-72542715D01*
X73546210Y-77551848D02*
X73165257Y-77818515D01*
X73546210Y-78008991D02*
X72746210Y-78008991D01*
X72746210Y-78008991D02*
X72746210Y-77704229D01*
X72746210Y-77704229D02*
X72784305Y-77628039D01*
X72784305Y-77628039D02*
X72822400Y-77589944D01*
X72822400Y-77589944D02*
X72898591Y-77551848D01*
X72898591Y-77551848D02*
X73012876Y-77551848D01*
X73012876Y-77551848D02*
X73089067Y-77589944D01*
X73089067Y-77589944D02*
X73127162Y-77628039D01*
X73127162Y-77628039D02*
X73165257Y-77704229D01*
X73165257Y-77704229D02*
X73165257Y-78008991D01*
X73546210Y-76789944D02*
X73546210Y-77247087D01*
X73546210Y-77018515D02*
X72746210Y-77018515D01*
X72746210Y-77018515D02*
X72860495Y-77094706D01*
X72860495Y-77094706D02*
X72936686Y-77170896D01*
X72936686Y-77170896D02*
X72974781Y-77247087D01*
X72746210Y-76294705D02*
X72746210Y-76218515D01*
X72746210Y-76218515D02*
X72784305Y-76142324D01*
X72784305Y-76142324D02*
X72822400Y-76104229D01*
X72822400Y-76104229D02*
X72898591Y-76066134D01*
X72898591Y-76066134D02*
X73050972Y-76028039D01*
X73050972Y-76028039D02*
X73241448Y-76028039D01*
X73241448Y-76028039D02*
X73393829Y-76066134D01*
X73393829Y-76066134D02*
X73470019Y-76104229D01*
X73470019Y-76104229D02*
X73508115Y-76142324D01*
X73508115Y-76142324D02*
X73546210Y-76218515D01*
X73546210Y-76218515D02*
X73546210Y-76294705D01*
X73546210Y-76294705D02*
X73508115Y-76370896D01*
X73508115Y-76370896D02*
X73470019Y-76408991D01*
X73470019Y-76408991D02*
X73393829Y-76447086D01*
X73393829Y-76447086D02*
X73241448Y-76485182D01*
X73241448Y-76485182D02*
X73050972Y-76485182D01*
X73050972Y-76485182D02*
X72898591Y-76447086D01*
X72898591Y-76447086D02*
X72822400Y-76408991D01*
X72822400Y-76408991D02*
X72784305Y-76370896D01*
X72784305Y-76370896D02*
X72746210Y-76294705D01*
X75793439Y-68849858D02*
X75793439Y-68049858D01*
X75793439Y-68049858D02*
X75983915Y-68049858D01*
X75983915Y-68049858D02*
X76098201Y-68087953D01*
X76098201Y-68087953D02*
X76174391Y-68164143D01*
X76174391Y-68164143D02*
X76212486Y-68240334D01*
X76212486Y-68240334D02*
X76250582Y-68392715D01*
X76250582Y-68392715D02*
X76250582Y-68507001D01*
X76250582Y-68507001D02*
X76212486Y-68659382D01*
X76212486Y-68659382D02*
X76174391Y-68735572D01*
X76174391Y-68735572D02*
X76098201Y-68811763D01*
X76098201Y-68811763D02*
X75983915Y-68849858D01*
X75983915Y-68849858D02*
X75793439Y-68849858D01*
X77012486Y-68849858D02*
X76555343Y-68849858D01*
X76783915Y-68849858D02*
X76783915Y-68049858D01*
X76783915Y-68049858D02*
X76707724Y-68164143D01*
X76707724Y-68164143D02*
X76631534Y-68240334D01*
X76631534Y-68240334D02*
X76555343Y-68278429D01*
X84300582Y-71499858D02*
X84033915Y-71118905D01*
X83843439Y-71499858D02*
X83843439Y-70699858D01*
X83843439Y-70699858D02*
X84148201Y-70699858D01*
X84148201Y-70699858D02*
X84224391Y-70737953D01*
X84224391Y-70737953D02*
X84262486Y-70776048D01*
X84262486Y-70776048D02*
X84300582Y-70852239D01*
X84300582Y-70852239D02*
X84300582Y-70966524D01*
X84300582Y-70966524D02*
X84262486Y-71042715D01*
X84262486Y-71042715D02*
X84224391Y-71080810D01*
X84224391Y-71080810D02*
X84148201Y-71118905D01*
X84148201Y-71118905D02*
X83843439Y-71118905D01*
X84986296Y-70966524D02*
X84986296Y-71499858D01*
X84795820Y-70661763D02*
X84605343Y-71233191D01*
X84605343Y-71233191D02*
X85100582Y-71233191D01*
X51200581Y-81942382D02*
X51200581Y-82656667D01*
X51200581Y-82656667D02*
X51152962Y-82799524D01*
X51152962Y-82799524D02*
X51057724Y-82894763D01*
X51057724Y-82894763D02*
X50914867Y-82942382D01*
X50914867Y-82942382D02*
X50819629Y-82942382D01*
X51629153Y-82037620D02*
X51676772Y-81990001D01*
X51676772Y-81990001D02*
X51772010Y-81942382D01*
X51772010Y-81942382D02*
X52010105Y-81942382D01*
X52010105Y-81942382D02*
X52105343Y-81990001D01*
X52105343Y-81990001D02*
X52152962Y-82037620D01*
X52152962Y-82037620D02*
X52200581Y-82132858D01*
X52200581Y-82132858D02*
X52200581Y-82228096D01*
X52200581Y-82228096D02*
X52152962Y-82370953D01*
X52152962Y-82370953D02*
X51581534Y-82942382D01*
X51581534Y-82942382D02*
X52200581Y-82942382D01*
X79567248Y-69897143D02*
X79519629Y-69944763D01*
X79519629Y-69944763D02*
X79376772Y-69992382D01*
X79376772Y-69992382D02*
X79281534Y-69992382D01*
X79281534Y-69992382D02*
X79138677Y-69944763D01*
X79138677Y-69944763D02*
X79043439Y-69849524D01*
X79043439Y-69849524D02*
X78995820Y-69754286D01*
X78995820Y-69754286D02*
X78948201Y-69563810D01*
X78948201Y-69563810D02*
X78948201Y-69420953D01*
X78948201Y-69420953D02*
X78995820Y-69230477D01*
X78995820Y-69230477D02*
X79043439Y-69135239D01*
X79043439Y-69135239D02*
X79138677Y-69040001D01*
X79138677Y-69040001D02*
X79281534Y-68992382D01*
X79281534Y-68992382D02*
X79376772Y-68992382D01*
X79376772Y-68992382D02*
X79519629Y-69040001D01*
X79519629Y-69040001D02*
X79567248Y-69087620D01*
X80519629Y-69992382D02*
X79948201Y-69992382D01*
X80233915Y-69992382D02*
X80233915Y-68992382D01*
X80233915Y-68992382D02*
X80138677Y-69135239D01*
X80138677Y-69135239D02*
X80043439Y-69230477D01*
X80043439Y-69230477D02*
X79948201Y-69278096D01*
X84050582Y-78999858D02*
X83783915Y-78618905D01*
X83593439Y-78999858D02*
X83593439Y-78199858D01*
X83593439Y-78199858D02*
X83898201Y-78199858D01*
X83898201Y-78199858D02*
X83974391Y-78237953D01*
X83974391Y-78237953D02*
X84012486Y-78276048D01*
X84012486Y-78276048D02*
X84050582Y-78352239D01*
X84050582Y-78352239D02*
X84050582Y-78466524D01*
X84050582Y-78466524D02*
X84012486Y-78542715D01*
X84012486Y-78542715D02*
X83974391Y-78580810D01*
X83974391Y-78580810D02*
X83898201Y-78618905D01*
X83898201Y-78618905D02*
X83593439Y-78618905D01*
X84736296Y-78199858D02*
X84583915Y-78199858D01*
X84583915Y-78199858D02*
X84507724Y-78237953D01*
X84507724Y-78237953D02*
X84469629Y-78276048D01*
X84469629Y-78276048D02*
X84393439Y-78390334D01*
X84393439Y-78390334D02*
X84355343Y-78542715D01*
X84355343Y-78542715D02*
X84355343Y-78847477D01*
X84355343Y-78847477D02*
X84393439Y-78923667D01*
X84393439Y-78923667D02*
X84431534Y-78961763D01*
X84431534Y-78961763D02*
X84507724Y-78999858D01*
X84507724Y-78999858D02*
X84660105Y-78999858D01*
X84660105Y-78999858D02*
X84736296Y-78961763D01*
X84736296Y-78961763D02*
X84774391Y-78923667D01*
X84774391Y-78923667D02*
X84812486Y-78847477D01*
X84812486Y-78847477D02*
X84812486Y-78657001D01*
X84812486Y-78657001D02*
X84774391Y-78580810D01*
X84774391Y-78580810D02*
X84736296Y-78542715D01*
X84736296Y-78542715D02*
X84660105Y-78504620D01*
X84660105Y-78504620D02*
X84507724Y-78504620D01*
X84507724Y-78504620D02*
X84431534Y-78542715D01*
X84431534Y-78542715D02*
X84393439Y-78580810D01*
X84393439Y-78580810D02*
X84355343Y-78657001D01*
X78807724Y-75826048D02*
X78731534Y-75787953D01*
X78731534Y-75787953D02*
X78655343Y-75711763D01*
X78655343Y-75711763D02*
X78541057Y-75597477D01*
X78541057Y-75597477D02*
X78464867Y-75559382D01*
X78464867Y-75559382D02*
X78388676Y-75559382D01*
X78426772Y-75749858D02*
X78350581Y-75711763D01*
X78350581Y-75711763D02*
X78274391Y-75635572D01*
X78274391Y-75635572D02*
X78236295Y-75483191D01*
X78236295Y-75483191D02*
X78236295Y-75216524D01*
X78236295Y-75216524D02*
X78274391Y-75064143D01*
X78274391Y-75064143D02*
X78350581Y-74987953D01*
X78350581Y-74987953D02*
X78426772Y-74949858D01*
X78426772Y-74949858D02*
X78579153Y-74949858D01*
X78579153Y-74949858D02*
X78655343Y-74987953D01*
X78655343Y-74987953D02*
X78731534Y-75064143D01*
X78731534Y-75064143D02*
X78769629Y-75216524D01*
X78769629Y-75216524D02*
X78769629Y-75483191D01*
X78769629Y-75483191D02*
X78731534Y-75635572D01*
X78731534Y-75635572D02*
X78655343Y-75711763D01*
X78655343Y-75711763D02*
X78579153Y-75749858D01*
X78579153Y-75749858D02*
X78426772Y-75749858D01*
X79531533Y-75749858D02*
X79074390Y-75749858D01*
X79302962Y-75749858D02*
X79302962Y-74949858D01*
X79302962Y-74949858D02*
X79226771Y-75064143D01*
X79226771Y-75064143D02*
X79150581Y-75140334D01*
X79150581Y-75140334D02*
X79074390Y-75178429D01*
X90650582Y-71399858D02*
X90383915Y-71018905D01*
X90193439Y-71399858D02*
X90193439Y-70599858D01*
X90193439Y-70599858D02*
X90498201Y-70599858D01*
X90498201Y-70599858D02*
X90574391Y-70637953D01*
X90574391Y-70637953D02*
X90612486Y-70676048D01*
X90612486Y-70676048D02*
X90650582Y-70752239D01*
X90650582Y-70752239D02*
X90650582Y-70866524D01*
X90650582Y-70866524D02*
X90612486Y-70942715D01*
X90612486Y-70942715D02*
X90574391Y-70980810D01*
X90574391Y-70980810D02*
X90498201Y-71018905D01*
X90498201Y-71018905D02*
X90193439Y-71018905D01*
X90917248Y-70599858D02*
X91450582Y-70599858D01*
X91450582Y-70599858D02*
X91107724Y-71399858D01*
X78150582Y-73118608D02*
X77883915Y-72737655D01*
X77693439Y-73118608D02*
X77693439Y-72318608D01*
X77693439Y-72318608D02*
X77998201Y-72318608D01*
X77998201Y-72318608D02*
X78074391Y-72356703D01*
X78074391Y-72356703D02*
X78112486Y-72394798D01*
X78112486Y-72394798D02*
X78150582Y-72470989D01*
X78150582Y-72470989D02*
X78150582Y-72585274D01*
X78150582Y-72585274D02*
X78112486Y-72661465D01*
X78112486Y-72661465D02*
X78074391Y-72699560D01*
X78074391Y-72699560D02*
X77998201Y-72737655D01*
X77998201Y-72737655D02*
X77693439Y-72737655D01*
X78455343Y-72394798D02*
X78493439Y-72356703D01*
X78493439Y-72356703D02*
X78569629Y-72318608D01*
X78569629Y-72318608D02*
X78760105Y-72318608D01*
X78760105Y-72318608D02*
X78836296Y-72356703D01*
X78836296Y-72356703D02*
X78874391Y-72394798D01*
X78874391Y-72394798D02*
X78912486Y-72470989D01*
X78912486Y-72470989D02*
X78912486Y-72547179D01*
X78912486Y-72547179D02*
X78874391Y-72661465D01*
X78874391Y-72661465D02*
X78417248Y-73118608D01*
X78417248Y-73118608D02*
X78912486Y-73118608D01*
X85893439Y-68749858D02*
X85893439Y-67949858D01*
X85893439Y-67949858D02*
X86083915Y-67949858D01*
X86083915Y-67949858D02*
X86198201Y-67987953D01*
X86198201Y-67987953D02*
X86274391Y-68064143D01*
X86274391Y-68064143D02*
X86312486Y-68140334D01*
X86312486Y-68140334D02*
X86350582Y-68292715D01*
X86350582Y-68292715D02*
X86350582Y-68407001D01*
X86350582Y-68407001D02*
X86312486Y-68559382D01*
X86312486Y-68559382D02*
X86274391Y-68635572D01*
X86274391Y-68635572D02*
X86198201Y-68711763D01*
X86198201Y-68711763D02*
X86083915Y-68749858D01*
X86083915Y-68749858D02*
X85893439Y-68749858D01*
X86617248Y-67949858D02*
X87112486Y-67949858D01*
X87112486Y-67949858D02*
X86845820Y-68254620D01*
X86845820Y-68254620D02*
X86960105Y-68254620D01*
X86960105Y-68254620D02*
X87036296Y-68292715D01*
X87036296Y-68292715D02*
X87074391Y-68330810D01*
X87074391Y-68330810D02*
X87112486Y-68407001D01*
X87112486Y-68407001D02*
X87112486Y-68597477D01*
X87112486Y-68597477D02*
X87074391Y-68673667D01*
X87074391Y-68673667D02*
X87036296Y-68711763D01*
X87036296Y-68711763D02*
X86960105Y-68749858D01*
X86960105Y-68749858D02*
X86731534Y-68749858D01*
X86731534Y-68749858D02*
X86655343Y-68711763D01*
X86655343Y-68711763D02*
X86617248Y-68673667D01*
X92900582Y-77499858D02*
X92633915Y-77118905D01*
X92443439Y-77499858D02*
X92443439Y-76699858D01*
X92443439Y-76699858D02*
X92748201Y-76699858D01*
X92748201Y-76699858D02*
X92824391Y-76737953D01*
X92824391Y-76737953D02*
X92862486Y-76776048D01*
X92862486Y-76776048D02*
X92900582Y-76852239D01*
X92900582Y-76852239D02*
X92900582Y-76966524D01*
X92900582Y-76966524D02*
X92862486Y-77042715D01*
X92862486Y-77042715D02*
X92824391Y-77080810D01*
X92824391Y-77080810D02*
X92748201Y-77118905D01*
X92748201Y-77118905D02*
X92443439Y-77118905D01*
X93281534Y-77499858D02*
X93433915Y-77499858D01*
X93433915Y-77499858D02*
X93510105Y-77461763D01*
X93510105Y-77461763D02*
X93548201Y-77423667D01*
X93548201Y-77423667D02*
X93624391Y-77309382D01*
X93624391Y-77309382D02*
X93662486Y-77157001D01*
X93662486Y-77157001D02*
X93662486Y-76852239D01*
X93662486Y-76852239D02*
X93624391Y-76776048D01*
X93624391Y-76776048D02*
X93586296Y-76737953D01*
X93586296Y-76737953D02*
X93510105Y-76699858D01*
X93510105Y-76699858D02*
X93357724Y-76699858D01*
X93357724Y-76699858D02*
X93281534Y-76737953D01*
X93281534Y-76737953D02*
X93243439Y-76776048D01*
X93243439Y-76776048D02*
X93205343Y-76852239D01*
X93205343Y-76852239D02*
X93205343Y-77042715D01*
X93205343Y-77042715D02*
X93243439Y-77118905D01*
X93243439Y-77118905D02*
X93281534Y-77157001D01*
X93281534Y-77157001D02*
X93357724Y-77195096D01*
X93357724Y-77195096D02*
X93510105Y-77195096D01*
X93510105Y-77195096D02*
X93586296Y-77157001D01*
X93586296Y-77157001D02*
X93624391Y-77118905D01*
X93624391Y-77118905D02*
X93662486Y-77042715D01*
D12*
%TO.C,Q3*%
X86936415Y-74627563D02*
X86986415Y-74627563D01*
X86936415Y-76147563D02*
X86936415Y-74627563D01*
X87936415Y-76147563D02*
X86936415Y-76147563D01*
X88106415Y-74627563D02*
X88886415Y-74627563D01*
X90006415Y-74627563D02*
X90056415Y-74627563D01*
X90056415Y-74627563D02*
X90056415Y-76147563D01*
X90056415Y-76147563D02*
X89056415Y-76147563D01*
X88876415Y-74087563D02*
X88546415Y-74327563D01*
X88546415Y-73847563D01*
X88876415Y-74087563D01*
G36*
X88876415Y-74087563D02*
G01*
X88546415Y-74327563D01*
X88546415Y-73847563D01*
X88876415Y-74087563D01*
G37*
%TO.C,R5*%
X81846657Y-72065063D02*
X82321173Y-72065063D01*
X81846657Y-73110063D02*
X82321173Y-73110063D01*
D10*
%TO.C,J3*%
X59242565Y-86759813D02*
X59255465Y-95286913D01*
X59255465Y-95286913D02*
X67680465Y-95311913D01*
X67668365Y-86764013D02*
X59242565Y-86759813D01*
X67680465Y-95311913D02*
X67668365Y-86764013D01*
D13*
X68267105Y-82355213D02*
G75*
G02*
X67572025Y-82355213I-347540J0D01*
G01*
X67572025Y-82355213D02*
G75*
G02*
X68267105Y-82355213I347540J0D01*
G01*
D12*
%TO.C,J1*%
X63143915Y-68557563D02*
X63143915Y-71317563D01*
X70873915Y-68557563D02*
X63143915Y-68557563D01*
X70873915Y-68557563D02*
X70873915Y-71317563D01*
X70873915Y-71317563D02*
X63143915Y-71317563D01*
X72143915Y-68557563D02*
X73523915Y-68557563D01*
X73523915Y-68557563D02*
X73523915Y-69937563D01*
%TO.C,U1*%
X55173915Y-82377563D02*
X56173915Y-82377563D01*
X55173915Y-83897563D02*
X55173915Y-82377563D01*
X55223915Y-83897563D02*
X55173915Y-83897563D01*
X57123915Y-83897563D02*
X56343915Y-83897563D01*
X57293915Y-82377563D02*
X58293915Y-82377563D01*
X58293915Y-82377563D02*
X58293915Y-83897563D01*
X58293915Y-83897563D02*
X58243915Y-83897563D01*
X56683915Y-84677563D02*
X56353915Y-84437563D01*
X56683915Y-84197563D01*
X56683915Y-84677563D01*
G36*
X56683915Y-84677563D02*
G01*
X56353915Y-84437563D01*
X56683915Y-84197563D01*
X56683915Y-84677563D01*
G37*
%TO.C,R3*%
X78146657Y-76915063D02*
X78621173Y-76915063D01*
X78146657Y-77960063D02*
X78621173Y-77960063D01*
%TO.C,D2*%
X80198915Y-66202563D02*
X80198915Y-67672563D01*
X80198915Y-67672563D02*
X82483915Y-67672563D01*
X82483915Y-66202563D02*
X80198915Y-66202563D01*
%TO.C,Q2*%
X80523915Y-74627563D02*
X80573915Y-74627563D01*
X80523915Y-76147563D02*
X80523915Y-74627563D01*
X81523915Y-76147563D02*
X80523915Y-76147563D01*
X81693915Y-74627563D02*
X82473915Y-74627563D01*
X83593915Y-74627563D02*
X83643915Y-74627563D01*
X83643915Y-74627563D02*
X83643915Y-76147563D01*
X83643915Y-76147563D02*
X82643915Y-76147563D01*
X82463915Y-74087563D02*
X82133915Y-74327563D01*
X82133915Y-73847563D01*
X82463915Y-74087563D01*
G36*
X82463915Y-74087563D02*
G01*
X82133915Y-74327563D01*
X82133915Y-73847563D01*
X82463915Y-74087563D01*
G37*
%TO.C,D4*%
X70698915Y-73487563D02*
X70698915Y-75772563D01*
X70698915Y-75772563D02*
X72168915Y-75772563D01*
X72168915Y-75772563D02*
X72168915Y-73487563D01*
%TO.C,R1*%
X75921657Y-70583813D02*
X76396173Y-70583813D01*
X75921657Y-71628813D02*
X76396173Y-71628813D01*
%TO.C,R8*%
X88246657Y-72065063D02*
X88721173Y-72065063D01*
X88246657Y-73110063D02*
X88721173Y-73110063D01*
%TO.C,R10*%
X72511415Y-74524821D02*
X72511415Y-74050305D01*
X73556415Y-74524821D02*
X73556415Y-74050305D01*
%TO.C,D1*%
X74898915Y-66352563D02*
X74898915Y-67822563D01*
X74898915Y-67822563D02*
X77183915Y-67822563D01*
X77183915Y-66352563D02*
X74898915Y-66352563D01*
%TO.C,R4*%
X81846657Y-70515063D02*
X82321173Y-70515063D01*
X81846657Y-71560063D02*
X82321173Y-71560063D01*
D10*
%TO.C,J2*%
X47100115Y-64345163D02*
X47100115Y-79825163D01*
X47100115Y-79825163D02*
X56150115Y-79825163D01*
X56125115Y-64345163D02*
X47100115Y-64345163D01*
X56125115Y-66810163D02*
X56125115Y-64345163D01*
X56125115Y-66810163D02*
X56425115Y-66810163D01*
X56125115Y-67860163D02*
X56125115Y-69125163D01*
X56125115Y-69125163D02*
X56725115Y-69125163D01*
X56150115Y-69965163D02*
X56150115Y-71560163D01*
X56150115Y-71560163D02*
X56300115Y-71560163D01*
X56150115Y-72610163D02*
X56150115Y-74185163D01*
X56150115Y-74205163D02*
X56725115Y-74205163D01*
X56150115Y-75045163D02*
X56725115Y-75045163D01*
X56150115Y-76310163D02*
X56150115Y-75045163D01*
X56150115Y-77360163D02*
X56400115Y-77360163D01*
X56150115Y-79825163D02*
X56150115Y-77360163D01*
X56300115Y-72610163D02*
X56150115Y-72610163D01*
X56400115Y-76310163D02*
X56150115Y-76310163D01*
X56400115Y-77360163D02*
X56400115Y-76310163D01*
X56425115Y-66810163D02*
X56425115Y-67860163D01*
X56425115Y-67860163D02*
X56125115Y-67860163D01*
X56725115Y-69965163D02*
X56150115Y-69965163D01*
X60725115Y-75995163D02*
G75*
G02*
X60525115Y-75995163I-100000J0D01*
G01*
X60525115Y-75995163D02*
G75*
G02*
X60725115Y-75995163I100000J0D01*
G01*
D12*
%TO.C,C1*%
X79123915Y-71928143D02*
X79123915Y-71646983D01*
X80143915Y-71928143D02*
X80143915Y-71646983D01*
%TO.C,R6*%
X84146657Y-76765063D02*
X84621173Y-76765063D01*
X84146657Y-77810063D02*
X84621173Y-77810063D01*
%TO.C,Q1*%
X74573915Y-74746313D02*
X74623915Y-74746313D01*
X74573915Y-76266313D02*
X74573915Y-74746313D01*
X75573915Y-76266313D02*
X74573915Y-76266313D01*
X75743915Y-74746313D02*
X76523915Y-74746313D01*
X77643915Y-74746313D02*
X77693915Y-74746313D01*
X77693915Y-74746313D02*
X77693915Y-76266313D01*
X77693915Y-76266313D02*
X76693915Y-76266313D01*
X76513915Y-74206313D02*
X76183915Y-74446313D01*
X76183915Y-73966313D01*
X76513915Y-74206313D01*
G36*
X76513915Y-74206313D02*
G01*
X76183915Y-74446313D01*
X76183915Y-73966313D01*
X76513915Y-74206313D01*
G37*
%TO.C,R7*%
X88221657Y-70515063D02*
X88696173Y-70515063D01*
X88221657Y-71560063D02*
X88696173Y-71560063D01*
%TO.C,R2*%
X75921657Y-72183813D02*
X76396173Y-72183813D01*
X75921657Y-73228813D02*
X76396173Y-73228813D01*
%TO.C,D3*%
X85148915Y-66202563D02*
X85148915Y-67672563D01*
X85148915Y-67672563D02*
X87433915Y-67672563D01*
X87433915Y-66202563D02*
X85148915Y-66202563D01*
%TO.C,R9*%
X90496657Y-76615063D02*
X90971173Y-76615063D01*
X90496657Y-77660063D02*
X90971173Y-77660063D01*
%TD*%
M02*
