%TF.GenerationSoftware,KiCad,Pcbnew,9.0.6*%
%TF.CreationDate,2025-12-26T20:14:04+00:00*%
%TF.ProjectId,PIDI-BOX-01-ADAPT-I2C-A1,50494449-2d42-44f5-982d-30312d414441,rev?*%
%TF.SameCoordinates,Original*%
%TF.FileFunction,Soldermask,Top*%
%TF.FilePolarity,Negative*%
%FSLAX46Y46*%
G04 Gerber Fmt 4.6, Leading zero omitted, Abs format (unit mm)*
G04 Created by KiCad (PCBNEW 9.0.6) date 2025-12-26 20:14:04*
%MOMM*%
%LPD*%
G01*
G04 APERTURE LIST*
G04 Aperture macros list*
%AMRoundRect*
0 Rectangle with rounded corners*
0 $1 Rounding radius*
0 $2 $3 $4 $5 $6 $7 $8 $9 X,Y pos of 4 corners*
0 Add a 4 corners polygon primitive as box body*
4,1,4,$2,$3,$4,$5,$6,$7,$8,$9,$2,$3,0*
0 Add four circle primitives for the rounded corners*
1,1,$1+$1,$2,$3*
1,1,$1+$1,$4,$5*
1,1,$1+$1,$6,$7*
1,1,$1+$1,$8,$9*
0 Add four rect primitives between the rounded corners*
20,1,$1+$1,$2,$3,$4,$5,0*
20,1,$1+$1,$4,$5,$6,$7,0*
20,1,$1+$1,$6,$7,$8,$9,0*
20,1,$1+$1,$8,$9,$2,$3,0*%
G04 Aperture macros list end*
%ADD10RoundRect,0.150000X-0.150000X0.587500X-0.150000X-0.587500X0.150000X-0.587500X0.150000X0.587500X0*%
%ADD11RoundRect,0.200000X-0.200000X-0.275000X0.200000X-0.275000X0.200000X0.275000X-0.200000X0.275000X0*%
%ADD12C,1.854000*%
%ADD13R,1.700000X1.700000*%
%ADD14C,1.700000*%
%ADD15RoundRect,0.150000X0.150000X-0.587500X0.150000X0.587500X-0.150000X0.587500X-0.150000X-0.587500X0*%
%ADD16RoundRect,0.218750X-0.218750X-0.256250X0.218750X-0.256250X0.218750X0.256250X-0.218750X0.256250X0*%
%ADD17RoundRect,0.218750X0.256250X-0.218750X0.256250X0.218750X-0.256250X0.218750X-0.256250X-0.218750X0*%
%ADD18RoundRect,0.200000X0.275000X-0.200000X0.275000X0.200000X-0.275000X0.200000X-0.275000X-0.200000X0*%
%ADD19RoundRect,0.225000X0.250000X-0.225000X0.250000X0.225000X-0.250000X0.225000X-0.250000X-0.225000X0*%
G04 APERTURE END LIST*
D10*
%TO.C,Q3*%
X89446415Y-74450063D03*
X87546415Y-74450063D03*
X88496415Y-76325063D03*
%TD*%
D11*
%TO.C,R5*%
X81258915Y-72587563D03*
X82908915Y-72587563D03*
%TD*%
D12*
%TO.C,J3*%
X66059565Y-82400213D03*
X66059565Y-84940213D03*
X63519565Y-82400213D03*
X63519565Y-84940213D03*
X60979565Y-82400213D03*
X60979565Y-84940213D03*
%TD*%
D13*
%TO.C,J1*%
X72143915Y-69937563D03*
D14*
X69603915Y-69937563D03*
X67063915Y-69937563D03*
X64523915Y-69937563D03*
%TD*%
D15*
%TO.C,U1*%
X55783915Y-84075063D03*
X57683915Y-84075063D03*
X56733915Y-82200063D03*
%TD*%
D11*
%TO.C,R3*%
X77558915Y-77437563D03*
X79208915Y-77437563D03*
%TD*%
D16*
%TO.C,D2*%
X80896415Y-66937563D03*
X82471415Y-66937563D03*
%TD*%
D10*
%TO.C,Q2*%
X83033915Y-74450063D03*
X81133915Y-74450063D03*
X82083915Y-76325063D03*
%TD*%
D17*
%TO.C,D4*%
X71433915Y-75075063D03*
X71433915Y-73500063D03*
%TD*%
D11*
%TO.C,R1*%
X75333915Y-71106313D03*
X76983915Y-71106313D03*
%TD*%
%TO.C,R8*%
X87658915Y-72587563D03*
X89308915Y-72587563D03*
%TD*%
D18*
%TO.C,R10*%
X73033915Y-75112563D03*
X73033915Y-73462563D03*
%TD*%
D16*
%TO.C,D1*%
X75596415Y-67087563D03*
X77171415Y-67087563D03*
%TD*%
D11*
%TO.C,R4*%
X81258915Y-71037563D03*
X82908915Y-71037563D03*
%TD*%
D12*
%TO.C,J2*%
X60430115Y-74625163D03*
X57890115Y-74625163D03*
X60430115Y-72085163D03*
X57890115Y-72085163D03*
X60430115Y-69545163D03*
X57890115Y-69545163D03*
%TD*%
D19*
%TO.C,C1*%
X79633915Y-72562563D03*
X79633915Y-71012563D03*
%TD*%
D11*
%TO.C,R6*%
X83558915Y-77287563D03*
X85208915Y-77287563D03*
%TD*%
D10*
%TO.C,Q1*%
X77083915Y-74568813D03*
X75183915Y-74568813D03*
X76133915Y-76443813D03*
%TD*%
D11*
%TO.C,R7*%
X87633915Y-71037563D03*
X89283915Y-71037563D03*
%TD*%
%TO.C,R2*%
X75333915Y-72706313D03*
X76983915Y-72706313D03*
%TD*%
D16*
%TO.C,D3*%
X85846415Y-66937563D03*
X87421415Y-66937563D03*
%TD*%
D11*
%TO.C,R9*%
X89908915Y-77137563D03*
X91558915Y-77137563D03*
%TD*%
M02*
