%TF.GenerationSoftware,KiCad,Pcbnew,9.0.6-rc1*%
%TF.CreationDate,2025-10-18T13:39:51+01:00*%
%TF.ProjectId,PIDI-BOX-01-IO-6-SIDEB-A1,50494449-2d42-44f5-982d-30312d494f2d,rev?*%
%TF.SameCoordinates,Original*%
%TF.FileFunction,Legend,Top*%
%TF.FilePolarity,Positive*%
%FSLAX46Y46*%
G04 Gerber Fmt 4.6, Leading zero omitted, Abs format (unit mm)*
G04 Created by KiCad (PCBNEW 9.0.6-rc1) date 2025-10-18 13:39:51*
%MOMM*%
%LPD*%
G01*
G04 APERTURE LIST*
%ADD10C,0.200000*%
%ADD11C,0.150000*%
%ADD12C,0.120000*%
G04 APERTURE END LIST*
D10*
X134227673Y-88528875D02*
X134227673Y-87528875D01*
X134227673Y-87528875D02*
X134608625Y-87528875D01*
X134608625Y-87528875D02*
X134703863Y-87576494D01*
X134703863Y-87576494D02*
X134751482Y-87624113D01*
X134751482Y-87624113D02*
X134799101Y-87719351D01*
X134799101Y-87719351D02*
X134799101Y-87862208D01*
X134799101Y-87862208D02*
X134751482Y-87957446D01*
X134751482Y-87957446D02*
X134703863Y-88005065D01*
X134703863Y-88005065D02*
X134608625Y-88052684D01*
X134608625Y-88052684D02*
X134227673Y-88052684D01*
X135227673Y-88528875D02*
X135227673Y-87528875D01*
X135703863Y-88528875D02*
X135703863Y-87528875D01*
X135703863Y-87528875D02*
X135941958Y-87528875D01*
X135941958Y-87528875D02*
X136084815Y-87576494D01*
X136084815Y-87576494D02*
X136180053Y-87671732D01*
X136180053Y-87671732D02*
X136227672Y-87766970D01*
X136227672Y-87766970D02*
X136275291Y-87957446D01*
X136275291Y-87957446D02*
X136275291Y-88100303D01*
X136275291Y-88100303D02*
X136227672Y-88290779D01*
X136227672Y-88290779D02*
X136180053Y-88386017D01*
X136180053Y-88386017D02*
X136084815Y-88481256D01*
X136084815Y-88481256D02*
X135941958Y-88528875D01*
X135941958Y-88528875D02*
X135703863Y-88528875D01*
X136703863Y-88528875D02*
X136703863Y-87528875D01*
X137180053Y-88147922D02*
X137941958Y-88147922D01*
X138751481Y-88005065D02*
X138894338Y-88052684D01*
X138894338Y-88052684D02*
X138941957Y-88100303D01*
X138941957Y-88100303D02*
X138989576Y-88195541D01*
X138989576Y-88195541D02*
X138989576Y-88338398D01*
X138989576Y-88338398D02*
X138941957Y-88433636D01*
X138941957Y-88433636D02*
X138894338Y-88481256D01*
X138894338Y-88481256D02*
X138799100Y-88528875D01*
X138799100Y-88528875D02*
X138418148Y-88528875D01*
X138418148Y-88528875D02*
X138418148Y-87528875D01*
X138418148Y-87528875D02*
X138751481Y-87528875D01*
X138751481Y-87528875D02*
X138846719Y-87576494D01*
X138846719Y-87576494D02*
X138894338Y-87624113D01*
X138894338Y-87624113D02*
X138941957Y-87719351D01*
X138941957Y-87719351D02*
X138941957Y-87814589D01*
X138941957Y-87814589D02*
X138894338Y-87909827D01*
X138894338Y-87909827D02*
X138846719Y-87957446D01*
X138846719Y-87957446D02*
X138751481Y-88005065D01*
X138751481Y-88005065D02*
X138418148Y-88005065D01*
X139608624Y-87528875D02*
X139799100Y-87528875D01*
X139799100Y-87528875D02*
X139894338Y-87576494D01*
X139894338Y-87576494D02*
X139989576Y-87671732D01*
X139989576Y-87671732D02*
X140037195Y-87862208D01*
X140037195Y-87862208D02*
X140037195Y-88195541D01*
X140037195Y-88195541D02*
X139989576Y-88386017D01*
X139989576Y-88386017D02*
X139894338Y-88481256D01*
X139894338Y-88481256D02*
X139799100Y-88528875D01*
X139799100Y-88528875D02*
X139608624Y-88528875D01*
X139608624Y-88528875D02*
X139513386Y-88481256D01*
X139513386Y-88481256D02*
X139418148Y-88386017D01*
X139418148Y-88386017D02*
X139370529Y-88195541D01*
X139370529Y-88195541D02*
X139370529Y-87862208D01*
X139370529Y-87862208D02*
X139418148Y-87671732D01*
X139418148Y-87671732D02*
X139513386Y-87576494D01*
X139513386Y-87576494D02*
X139608624Y-87528875D01*
X140370529Y-87528875D02*
X141037195Y-88528875D01*
X141037195Y-87528875D02*
X140370529Y-88528875D01*
X141418148Y-88147922D02*
X142180053Y-88147922D01*
X142846719Y-87528875D02*
X142941957Y-87528875D01*
X142941957Y-87528875D02*
X143037195Y-87576494D01*
X143037195Y-87576494D02*
X143084814Y-87624113D01*
X143084814Y-87624113D02*
X143132433Y-87719351D01*
X143132433Y-87719351D02*
X143180052Y-87909827D01*
X143180052Y-87909827D02*
X143180052Y-88147922D01*
X143180052Y-88147922D02*
X143132433Y-88338398D01*
X143132433Y-88338398D02*
X143084814Y-88433636D01*
X143084814Y-88433636D02*
X143037195Y-88481256D01*
X143037195Y-88481256D02*
X142941957Y-88528875D01*
X142941957Y-88528875D02*
X142846719Y-88528875D01*
X142846719Y-88528875D02*
X142751481Y-88481256D01*
X142751481Y-88481256D02*
X142703862Y-88433636D01*
X142703862Y-88433636D02*
X142656243Y-88338398D01*
X142656243Y-88338398D02*
X142608624Y-88147922D01*
X142608624Y-88147922D02*
X142608624Y-87909827D01*
X142608624Y-87909827D02*
X142656243Y-87719351D01*
X142656243Y-87719351D02*
X142703862Y-87624113D01*
X142703862Y-87624113D02*
X142751481Y-87576494D01*
X142751481Y-87576494D02*
X142846719Y-87528875D01*
X144132433Y-88528875D02*
X143561005Y-88528875D01*
X143846719Y-88528875D02*
X143846719Y-87528875D01*
X143846719Y-87528875D02*
X143751481Y-87671732D01*
X143751481Y-87671732D02*
X143656243Y-87766970D01*
X143656243Y-87766970D02*
X143561005Y-87814589D01*
X144561005Y-88147922D02*
X145322910Y-88147922D01*
X134227673Y-90138819D02*
X134227673Y-89138819D01*
X134894339Y-89138819D02*
X135084815Y-89138819D01*
X135084815Y-89138819D02*
X135180053Y-89186438D01*
X135180053Y-89186438D02*
X135275291Y-89281676D01*
X135275291Y-89281676D02*
X135322910Y-89472152D01*
X135322910Y-89472152D02*
X135322910Y-89805485D01*
X135322910Y-89805485D02*
X135275291Y-89995961D01*
X135275291Y-89995961D02*
X135180053Y-90091200D01*
X135180053Y-90091200D02*
X135084815Y-90138819D01*
X135084815Y-90138819D02*
X134894339Y-90138819D01*
X134894339Y-90138819D02*
X134799101Y-90091200D01*
X134799101Y-90091200D02*
X134703863Y-89995961D01*
X134703863Y-89995961D02*
X134656244Y-89805485D01*
X134656244Y-89805485D02*
X134656244Y-89472152D01*
X134656244Y-89472152D02*
X134703863Y-89281676D01*
X134703863Y-89281676D02*
X134799101Y-89186438D01*
X134799101Y-89186438D02*
X134894339Y-89138819D01*
X135751482Y-89757866D02*
X136513387Y-89757866D01*
X137418148Y-89138819D02*
X137227672Y-89138819D01*
X137227672Y-89138819D02*
X137132434Y-89186438D01*
X137132434Y-89186438D02*
X137084815Y-89234057D01*
X137084815Y-89234057D02*
X136989577Y-89376914D01*
X136989577Y-89376914D02*
X136941958Y-89567390D01*
X136941958Y-89567390D02*
X136941958Y-89948342D01*
X136941958Y-89948342D02*
X136989577Y-90043580D01*
X136989577Y-90043580D02*
X137037196Y-90091200D01*
X137037196Y-90091200D02*
X137132434Y-90138819D01*
X137132434Y-90138819D02*
X137322910Y-90138819D01*
X137322910Y-90138819D02*
X137418148Y-90091200D01*
X137418148Y-90091200D02*
X137465767Y-90043580D01*
X137465767Y-90043580D02*
X137513386Y-89948342D01*
X137513386Y-89948342D02*
X137513386Y-89710247D01*
X137513386Y-89710247D02*
X137465767Y-89615009D01*
X137465767Y-89615009D02*
X137418148Y-89567390D01*
X137418148Y-89567390D02*
X137322910Y-89519771D01*
X137322910Y-89519771D02*
X137132434Y-89519771D01*
X137132434Y-89519771D02*
X137037196Y-89567390D01*
X137037196Y-89567390D02*
X136989577Y-89615009D01*
X136989577Y-89615009D02*
X136941958Y-89710247D01*
X137941958Y-89757866D02*
X138703863Y-89757866D01*
X139132434Y-90091200D02*
X139275291Y-90138819D01*
X139275291Y-90138819D02*
X139513386Y-90138819D01*
X139513386Y-90138819D02*
X139608624Y-90091200D01*
X139608624Y-90091200D02*
X139656243Y-90043580D01*
X139656243Y-90043580D02*
X139703862Y-89948342D01*
X139703862Y-89948342D02*
X139703862Y-89853104D01*
X139703862Y-89853104D02*
X139656243Y-89757866D01*
X139656243Y-89757866D02*
X139608624Y-89710247D01*
X139608624Y-89710247D02*
X139513386Y-89662628D01*
X139513386Y-89662628D02*
X139322910Y-89615009D01*
X139322910Y-89615009D02*
X139227672Y-89567390D01*
X139227672Y-89567390D02*
X139180053Y-89519771D01*
X139180053Y-89519771D02*
X139132434Y-89424533D01*
X139132434Y-89424533D02*
X139132434Y-89329295D01*
X139132434Y-89329295D02*
X139180053Y-89234057D01*
X139180053Y-89234057D02*
X139227672Y-89186438D01*
X139227672Y-89186438D02*
X139322910Y-89138819D01*
X139322910Y-89138819D02*
X139561005Y-89138819D01*
X139561005Y-89138819D02*
X139703862Y-89186438D01*
X140132434Y-90138819D02*
X140132434Y-89138819D01*
X140608624Y-90138819D02*
X140608624Y-89138819D01*
X140608624Y-89138819D02*
X140846719Y-89138819D01*
X140846719Y-89138819D02*
X140989576Y-89186438D01*
X140989576Y-89186438D02*
X141084814Y-89281676D01*
X141084814Y-89281676D02*
X141132433Y-89376914D01*
X141132433Y-89376914D02*
X141180052Y-89567390D01*
X141180052Y-89567390D02*
X141180052Y-89710247D01*
X141180052Y-89710247D02*
X141132433Y-89900723D01*
X141132433Y-89900723D02*
X141084814Y-89995961D01*
X141084814Y-89995961D02*
X140989576Y-90091200D01*
X140989576Y-90091200D02*
X140846719Y-90138819D01*
X140846719Y-90138819D02*
X140608624Y-90138819D01*
X141608624Y-89615009D02*
X141941957Y-89615009D01*
X142084814Y-90138819D02*
X141608624Y-90138819D01*
X141608624Y-90138819D02*
X141608624Y-89138819D01*
X141608624Y-89138819D02*
X142084814Y-89138819D01*
X142846719Y-89615009D02*
X142989576Y-89662628D01*
X142989576Y-89662628D02*
X143037195Y-89710247D01*
X143037195Y-89710247D02*
X143084814Y-89805485D01*
X143084814Y-89805485D02*
X143084814Y-89948342D01*
X143084814Y-89948342D02*
X143037195Y-90043580D01*
X143037195Y-90043580D02*
X142989576Y-90091200D01*
X142989576Y-90091200D02*
X142894338Y-90138819D01*
X142894338Y-90138819D02*
X142513386Y-90138819D01*
X142513386Y-90138819D02*
X142513386Y-89138819D01*
X142513386Y-89138819D02*
X142846719Y-89138819D01*
X142846719Y-89138819D02*
X142941957Y-89186438D01*
X142941957Y-89186438D02*
X142989576Y-89234057D01*
X142989576Y-89234057D02*
X143037195Y-89329295D01*
X143037195Y-89329295D02*
X143037195Y-89424533D01*
X143037195Y-89424533D02*
X142989576Y-89519771D01*
X142989576Y-89519771D02*
X142941957Y-89567390D01*
X142941957Y-89567390D02*
X142846719Y-89615009D01*
X142846719Y-89615009D02*
X142513386Y-89615009D01*
X143513386Y-89757866D02*
X144275291Y-89757866D01*
X144703862Y-89853104D02*
X145180052Y-89853104D01*
X144608624Y-90138819D02*
X144941957Y-89138819D01*
X144941957Y-89138819D02*
X145275290Y-90138819D01*
X146132433Y-90138819D02*
X145561005Y-90138819D01*
X145846719Y-90138819D02*
X145846719Y-89138819D01*
X145846719Y-89138819D02*
X145751481Y-89281676D01*
X145751481Y-89281676D02*
X145656243Y-89376914D01*
X145656243Y-89376914D02*
X145561005Y-89424533D01*
D11*
X101357819Y-101983333D02*
X102072104Y-101983333D01*
X102072104Y-101983333D02*
X102214961Y-102030952D01*
X102214961Y-102030952D02*
X102310200Y-102126190D01*
X102310200Y-102126190D02*
X102357819Y-102269047D01*
X102357819Y-102269047D02*
X102357819Y-102364285D01*
X102357819Y-100983333D02*
X102357819Y-101554761D01*
X102357819Y-101269047D02*
X101357819Y-101269047D01*
X101357819Y-101269047D02*
X101500676Y-101364285D01*
X101500676Y-101364285D02*
X101595914Y-101459523D01*
X101595914Y-101459523D02*
X101643533Y-101554761D01*
X131238666Y-85304819D02*
X131238666Y-86019104D01*
X131238666Y-86019104D02*
X131191047Y-86161961D01*
X131191047Y-86161961D02*
X131095809Y-86257200D01*
X131095809Y-86257200D02*
X130952952Y-86304819D01*
X130952952Y-86304819D02*
X130857714Y-86304819D01*
X131667238Y-85400057D02*
X131714857Y-85352438D01*
X131714857Y-85352438D02*
X131810095Y-85304819D01*
X131810095Y-85304819D02*
X132048190Y-85304819D01*
X132048190Y-85304819D02*
X132143428Y-85352438D01*
X132143428Y-85352438D02*
X132191047Y-85400057D01*
X132191047Y-85400057D02*
X132238666Y-85495295D01*
X132238666Y-85495295D02*
X132238666Y-85590533D01*
X132238666Y-85590533D02*
X132191047Y-85733390D01*
X132191047Y-85733390D02*
X131619619Y-86304819D01*
X131619619Y-86304819D02*
X132238666Y-86304819D01*
D12*
%TO.C,J1*%
X118703000Y-108630000D02*
X118703000Y-100000000D01*
X117733000Y-100000000D02*
X117733000Y-99590000D01*
X117733000Y-97490000D02*
X117733000Y-97050000D01*
X117013000Y-100000000D02*
X117013000Y-99590000D01*
X117013000Y-97490000D02*
X117013000Y-97050000D01*
X116103000Y-108630000D02*
X116103000Y-100000000D01*
X115193000Y-100000000D02*
X115193000Y-99590000D01*
X115193000Y-97490000D02*
X115193000Y-97050000D01*
X114473000Y-100000000D02*
X114473000Y-99590000D01*
X114473000Y-97490000D02*
X114473000Y-97050000D01*
X113563000Y-108630000D02*
X113563000Y-100000000D01*
X112653000Y-100000000D02*
X112653000Y-99590000D01*
X112653000Y-97490000D02*
X112653000Y-97050000D01*
X111933000Y-100000000D02*
X111933000Y-99590000D01*
X111933000Y-97490000D02*
X111933000Y-97050000D01*
X111023000Y-108630000D02*
X111023000Y-100000000D01*
X110113000Y-100000000D02*
X110113000Y-99590000D01*
X110113000Y-97490000D02*
X110113000Y-97050000D01*
X109393000Y-100000000D02*
X109393000Y-99590000D01*
X109393000Y-97490000D02*
X109393000Y-97050000D01*
X108483000Y-108630000D02*
X108483000Y-100000000D01*
X107573000Y-100000000D02*
X107573000Y-99590000D01*
X107573000Y-97490000D02*
X107573000Y-97050000D01*
X106853000Y-100000000D02*
X106853000Y-99590000D01*
X106853000Y-97490000D02*
X106853000Y-97050000D01*
X105943000Y-108630000D02*
X105943000Y-100000000D01*
X105824900Y-108630000D02*
X105824900Y-100000000D01*
X105706805Y-108630000D02*
X105706805Y-100000000D01*
X105588710Y-108630000D02*
X105588710Y-100000000D01*
X105470615Y-108630000D02*
X105470615Y-100000000D01*
X105352520Y-108630000D02*
X105352520Y-100000000D01*
X105234425Y-108630000D02*
X105234425Y-100000000D01*
X105116330Y-108630000D02*
X105116330Y-100000000D01*
X105033000Y-100000000D02*
X105033000Y-99590000D01*
X105033000Y-97490000D02*
X105033000Y-97110000D01*
X104998235Y-108630000D02*
X104998235Y-100000000D01*
X104880140Y-108630000D02*
X104880140Y-100000000D01*
X104762045Y-108630000D02*
X104762045Y-100000000D01*
X104643950Y-108630000D02*
X104643950Y-100000000D01*
X104525855Y-108630000D02*
X104525855Y-100000000D01*
X104407760Y-108630000D02*
X104407760Y-100000000D01*
X104313000Y-100000000D02*
X104313000Y-99590000D01*
X104313000Y-97490000D02*
X104313000Y-97110000D01*
X104289665Y-108630000D02*
X104289665Y-100000000D01*
X104171570Y-108630000D02*
X104171570Y-100000000D01*
X104053475Y-108630000D02*
X104053475Y-100000000D01*
X103935380Y-108630000D02*
X103935380Y-100000000D01*
X103817285Y-108630000D02*
X103817285Y-100000000D01*
X103699190Y-108630000D02*
X103699190Y-100000000D01*
X103581095Y-108630000D02*
X103581095Y-100000000D01*
X103463000Y-108630000D02*
X103463000Y-100000000D01*
X103343000Y-108630000D02*
X118703000Y-108630000D01*
X103343000Y-108630000D02*
X103343000Y-100000000D01*
X103343000Y-100000000D02*
X118703000Y-100000000D01*
X103343000Y-96000000D02*
X103343000Y-94890000D01*
X103343000Y-94890000D02*
X104673000Y-94890000D01*
%TO.C,J2*%
X113630400Y-78870000D02*
X113630400Y-87500000D01*
X114600400Y-87500000D02*
X114600400Y-87910000D01*
X114600400Y-90010000D02*
X114600400Y-90450000D01*
X115320400Y-87500000D02*
X115320400Y-87910000D01*
X115320400Y-90010000D02*
X115320400Y-90450000D01*
X116230400Y-78870000D02*
X116230400Y-87500000D01*
X117140400Y-87500000D02*
X117140400Y-87910000D01*
X117140400Y-90010000D02*
X117140400Y-90450000D01*
X117860400Y-87500000D02*
X117860400Y-87910000D01*
X117860400Y-90010000D02*
X117860400Y-90450000D01*
X118770400Y-78870000D02*
X118770400Y-87500000D01*
X119680400Y-87500000D02*
X119680400Y-87910000D01*
X119680400Y-90010000D02*
X119680400Y-90450000D01*
X120400400Y-87500000D02*
X120400400Y-87910000D01*
X120400400Y-90010000D02*
X120400400Y-90450000D01*
X121310400Y-78870000D02*
X121310400Y-87500000D01*
X122220400Y-87500000D02*
X122220400Y-87910000D01*
X122220400Y-90010000D02*
X122220400Y-90450000D01*
X122940400Y-87500000D02*
X122940400Y-87910000D01*
X122940400Y-90010000D02*
X122940400Y-90450000D01*
X123850400Y-78870000D02*
X123850400Y-87500000D01*
X124760400Y-87500000D02*
X124760400Y-87910000D01*
X124760400Y-90010000D02*
X124760400Y-90450000D01*
X125480400Y-87500000D02*
X125480400Y-87910000D01*
X125480400Y-90010000D02*
X125480400Y-90450000D01*
X126390400Y-78870000D02*
X126390400Y-87500000D01*
X126508500Y-78870000D02*
X126508500Y-87500000D01*
X126626595Y-78870000D02*
X126626595Y-87500000D01*
X126744690Y-78870000D02*
X126744690Y-87500000D01*
X126862785Y-78870000D02*
X126862785Y-87500000D01*
X126980880Y-78870000D02*
X126980880Y-87500000D01*
X127098975Y-78870000D02*
X127098975Y-87500000D01*
X127217070Y-78870000D02*
X127217070Y-87500000D01*
X127300400Y-87500000D02*
X127300400Y-87910000D01*
X127300400Y-90010000D02*
X127300400Y-90390000D01*
X127335165Y-78870000D02*
X127335165Y-87500000D01*
X127453260Y-78870000D02*
X127453260Y-87500000D01*
X127571355Y-78870000D02*
X127571355Y-87500000D01*
X127689450Y-78870000D02*
X127689450Y-87500000D01*
X127807545Y-78870000D02*
X127807545Y-87500000D01*
X127925640Y-78870000D02*
X127925640Y-87500000D01*
X128020400Y-87500000D02*
X128020400Y-87910000D01*
X128020400Y-90010000D02*
X128020400Y-90390000D01*
X128043735Y-78870000D02*
X128043735Y-87500000D01*
X128161830Y-78870000D02*
X128161830Y-87500000D01*
X128279925Y-78870000D02*
X128279925Y-87500000D01*
X128398020Y-78870000D02*
X128398020Y-87500000D01*
X128516115Y-78870000D02*
X128516115Y-87500000D01*
X128634210Y-78870000D02*
X128634210Y-87500000D01*
X128752305Y-78870000D02*
X128752305Y-87500000D01*
X128870400Y-78870000D02*
X128870400Y-87500000D01*
X128990400Y-78870000D02*
X113630400Y-78870000D01*
X128990400Y-78870000D02*
X128990400Y-87500000D01*
X128990400Y-87500000D02*
X113630400Y-87500000D01*
X128990400Y-91500000D02*
X128990400Y-92610000D01*
X128990400Y-92610000D02*
X127660400Y-92610000D01*
%TD*%
M02*
