M48
; DRILL file {KiCad 9.0.6-rc1} date 2025-10-18T13:39:55+0100
; FORMAT={-:-/ absolute / metric / decimal}
; #@! TF.CreationDate,2025-10-18T13:39:55+01:00
; #@! TF.GenerationSoftware,Kicad,Pcbnew,9.0.6-rc1
; #@! TF.FileFunction,Plated,1,2,PTH
FMAT,2
METRIC
; #@! TA.AperFunction,Plated,PTH,ComponentDrill
T1C1.000
%
G90
G05
T1
X104.673Y-96.0
X104.673Y-98.54
X107.213Y-96.0
X107.213Y-98.54
X109.753Y-96.0
X109.753Y-98.54
X112.293Y-96.0
X112.293Y-98.54
X114.833Y-96.0
X114.833Y-98.54
X114.96Y-88.96
X114.96Y-91.5
X117.373Y-96.0
X117.373Y-98.54
X117.5Y-88.96
X117.5Y-91.5
X120.04Y-88.96
X120.04Y-91.5
X122.58Y-88.96
X122.58Y-91.5
X125.12Y-88.96
X125.12Y-91.5
X127.66Y-88.96
X127.66Y-91.5
M30
