%TF.GenerationSoftware,KiCad,Pcbnew,9.0.6-rc1*%
%TF.CreationDate,2025-10-18T13:39:51+01:00*%
%TF.ProjectId,PIDI-BOX-01-IO-6-SIDEB-A1,50494449-2d42-44f5-982d-30312d494f2d,rev?*%
%TF.SameCoordinates,Original*%
%TF.FileFunction,Copper,L2,Bot*%
%TF.FilePolarity,Positive*%
%FSLAX46Y46*%
G04 Gerber Fmt 4.6, Leading zero omitted, Abs format (unit mm)*
G04 Created by KiCad (PCBNEW 9.0.6-rc1) date 2025-10-18 13:39:51*
%MOMM*%
%LPD*%
G01*
G04 APERTURE LIST*
%ADD10C,0.150000*%
%TA.AperFunction,NonConductor*%
%ADD11C,0.150000*%
%TD*%
%TA.AperFunction,ComponentPad*%
%ADD12C,1.700000*%
%TD*%
%TA.AperFunction,ComponentPad*%
%ADD13R,1.700000X1.700000*%
%TD*%
%TA.AperFunction,Conductor*%
%ADD14C,0.400000*%
%TD*%
G04 APERTURE END LIST*
D10*
D11*
X149520039Y-81225095D02*
X149520039Y-80425095D01*
X149520039Y-80425095D02*
X149215277Y-80425095D01*
X149215277Y-80425095D02*
X149139087Y-80463190D01*
X149139087Y-80463190D02*
X149100992Y-80501285D01*
X149100992Y-80501285D02*
X149062896Y-80577476D01*
X149062896Y-80577476D02*
X149062896Y-80691761D01*
X149062896Y-80691761D02*
X149100992Y-80767952D01*
X149100992Y-80767952D02*
X149139087Y-80806047D01*
X149139087Y-80806047D02*
X149215277Y-80844142D01*
X149215277Y-80844142D02*
X149520039Y-80844142D01*
X148720039Y-81225095D02*
X148720039Y-80425095D01*
X148339087Y-81225095D02*
X148339087Y-80425095D01*
X148339087Y-80425095D02*
X148148611Y-80425095D01*
X148148611Y-80425095D02*
X148034325Y-80463190D01*
X148034325Y-80463190D02*
X147958135Y-80539380D01*
X147958135Y-80539380D02*
X147920040Y-80615571D01*
X147920040Y-80615571D02*
X147881944Y-80767952D01*
X147881944Y-80767952D02*
X147881944Y-80882238D01*
X147881944Y-80882238D02*
X147920040Y-81034619D01*
X147920040Y-81034619D02*
X147958135Y-81110809D01*
X147958135Y-81110809D02*
X148034325Y-81187000D01*
X148034325Y-81187000D02*
X148148611Y-81225095D01*
X148148611Y-81225095D02*
X148339087Y-81225095D01*
X147539087Y-81225095D02*
X147539087Y-80425095D01*
X147158135Y-80920333D02*
X146548612Y-80920333D01*
X145900993Y-80806047D02*
X145786707Y-80844142D01*
X145786707Y-80844142D02*
X145748612Y-80882238D01*
X145748612Y-80882238D02*
X145710516Y-80958428D01*
X145710516Y-80958428D02*
X145710516Y-81072714D01*
X145710516Y-81072714D02*
X145748612Y-81148904D01*
X145748612Y-81148904D02*
X145786707Y-81187000D01*
X145786707Y-81187000D02*
X145862897Y-81225095D01*
X145862897Y-81225095D02*
X146167659Y-81225095D01*
X146167659Y-81225095D02*
X146167659Y-80425095D01*
X146167659Y-80425095D02*
X145900993Y-80425095D01*
X145900993Y-80425095D02*
X145824802Y-80463190D01*
X145824802Y-80463190D02*
X145786707Y-80501285D01*
X145786707Y-80501285D02*
X145748612Y-80577476D01*
X145748612Y-80577476D02*
X145748612Y-80653666D01*
X145748612Y-80653666D02*
X145786707Y-80729857D01*
X145786707Y-80729857D02*
X145824802Y-80767952D01*
X145824802Y-80767952D02*
X145900993Y-80806047D01*
X145900993Y-80806047D02*
X146167659Y-80806047D01*
X145215278Y-80425095D02*
X145062897Y-80425095D01*
X145062897Y-80425095D02*
X144986707Y-80463190D01*
X144986707Y-80463190D02*
X144910516Y-80539380D01*
X144910516Y-80539380D02*
X144872421Y-80691761D01*
X144872421Y-80691761D02*
X144872421Y-80958428D01*
X144872421Y-80958428D02*
X144910516Y-81110809D01*
X144910516Y-81110809D02*
X144986707Y-81187000D01*
X144986707Y-81187000D02*
X145062897Y-81225095D01*
X145062897Y-81225095D02*
X145215278Y-81225095D01*
X145215278Y-81225095D02*
X145291469Y-81187000D01*
X145291469Y-81187000D02*
X145367659Y-81110809D01*
X145367659Y-81110809D02*
X145405755Y-80958428D01*
X145405755Y-80958428D02*
X145405755Y-80691761D01*
X145405755Y-80691761D02*
X145367659Y-80539380D01*
X145367659Y-80539380D02*
X145291469Y-80463190D01*
X145291469Y-80463190D02*
X145215278Y-80425095D01*
X144605755Y-80425095D02*
X144072421Y-81225095D01*
X144072421Y-80425095D02*
X144605755Y-81225095D01*
X143767659Y-80920333D02*
X143158136Y-80920333D01*
X142624802Y-80425095D02*
X142548612Y-80425095D01*
X142548612Y-80425095D02*
X142472421Y-80463190D01*
X142472421Y-80463190D02*
X142434326Y-80501285D01*
X142434326Y-80501285D02*
X142396231Y-80577476D01*
X142396231Y-80577476D02*
X142358136Y-80729857D01*
X142358136Y-80729857D02*
X142358136Y-80920333D01*
X142358136Y-80920333D02*
X142396231Y-81072714D01*
X142396231Y-81072714D02*
X142434326Y-81148904D01*
X142434326Y-81148904D02*
X142472421Y-81187000D01*
X142472421Y-81187000D02*
X142548612Y-81225095D01*
X142548612Y-81225095D02*
X142624802Y-81225095D01*
X142624802Y-81225095D02*
X142700993Y-81187000D01*
X142700993Y-81187000D02*
X142739088Y-81148904D01*
X142739088Y-81148904D02*
X142777183Y-81072714D01*
X142777183Y-81072714D02*
X142815279Y-80920333D01*
X142815279Y-80920333D02*
X142815279Y-80729857D01*
X142815279Y-80729857D02*
X142777183Y-80577476D01*
X142777183Y-80577476D02*
X142739088Y-80501285D01*
X142739088Y-80501285D02*
X142700993Y-80463190D01*
X142700993Y-80463190D02*
X142624802Y-80425095D01*
X141596231Y-81225095D02*
X142053374Y-81225095D01*
X141824802Y-81225095D02*
X141824802Y-80425095D01*
X141824802Y-80425095D02*
X141900993Y-80539380D01*
X141900993Y-80539380D02*
X141977183Y-80615571D01*
X141977183Y-80615571D02*
X142053374Y-80653666D01*
X141253373Y-80920333D02*
X140643850Y-80920333D01*
X140262897Y-81225095D02*
X140262897Y-80425095D01*
X139729564Y-80425095D02*
X139577183Y-80425095D01*
X139577183Y-80425095D02*
X139500993Y-80463190D01*
X139500993Y-80463190D02*
X139424802Y-80539380D01*
X139424802Y-80539380D02*
X139386707Y-80691761D01*
X139386707Y-80691761D02*
X139386707Y-80958428D01*
X139386707Y-80958428D02*
X139424802Y-81110809D01*
X139424802Y-81110809D02*
X139500993Y-81187000D01*
X139500993Y-81187000D02*
X139577183Y-81225095D01*
X139577183Y-81225095D02*
X139729564Y-81225095D01*
X139729564Y-81225095D02*
X139805755Y-81187000D01*
X139805755Y-81187000D02*
X139881945Y-81110809D01*
X139881945Y-81110809D02*
X139920041Y-80958428D01*
X139920041Y-80958428D02*
X139920041Y-80691761D01*
X139920041Y-80691761D02*
X139881945Y-80539380D01*
X139881945Y-80539380D02*
X139805755Y-80463190D01*
X139805755Y-80463190D02*
X139729564Y-80425095D01*
X139043850Y-80920333D02*
X138434327Y-80920333D01*
X137710517Y-80425095D02*
X137862898Y-80425095D01*
X137862898Y-80425095D02*
X137939089Y-80463190D01*
X137939089Y-80463190D02*
X137977184Y-80501285D01*
X137977184Y-80501285D02*
X138053374Y-80615571D01*
X138053374Y-80615571D02*
X138091470Y-80767952D01*
X138091470Y-80767952D02*
X138091470Y-81072714D01*
X138091470Y-81072714D02*
X138053374Y-81148904D01*
X138053374Y-81148904D02*
X138015279Y-81187000D01*
X138015279Y-81187000D02*
X137939089Y-81225095D01*
X137939089Y-81225095D02*
X137786708Y-81225095D01*
X137786708Y-81225095D02*
X137710517Y-81187000D01*
X137710517Y-81187000D02*
X137672422Y-81148904D01*
X137672422Y-81148904D02*
X137634327Y-81072714D01*
X137634327Y-81072714D02*
X137634327Y-80882238D01*
X137634327Y-80882238D02*
X137672422Y-80806047D01*
X137672422Y-80806047D02*
X137710517Y-80767952D01*
X137710517Y-80767952D02*
X137786708Y-80729857D01*
X137786708Y-80729857D02*
X137939089Y-80729857D01*
X137939089Y-80729857D02*
X138015279Y-80767952D01*
X138015279Y-80767952D02*
X138053374Y-80806047D01*
X138053374Y-80806047D02*
X138091470Y-80882238D01*
X137291469Y-80920333D02*
X136681946Y-80920333D01*
X136339089Y-81187000D02*
X136224803Y-81225095D01*
X136224803Y-81225095D02*
X136034327Y-81225095D01*
X136034327Y-81225095D02*
X135958136Y-81187000D01*
X135958136Y-81187000D02*
X135920041Y-81148904D01*
X135920041Y-81148904D02*
X135881946Y-81072714D01*
X135881946Y-81072714D02*
X135881946Y-80996523D01*
X135881946Y-80996523D02*
X135920041Y-80920333D01*
X135920041Y-80920333D02*
X135958136Y-80882238D01*
X135958136Y-80882238D02*
X136034327Y-80844142D01*
X136034327Y-80844142D02*
X136186708Y-80806047D01*
X136186708Y-80806047D02*
X136262898Y-80767952D01*
X136262898Y-80767952D02*
X136300993Y-80729857D01*
X136300993Y-80729857D02*
X136339089Y-80653666D01*
X136339089Y-80653666D02*
X136339089Y-80577476D01*
X136339089Y-80577476D02*
X136300993Y-80501285D01*
X136300993Y-80501285D02*
X136262898Y-80463190D01*
X136262898Y-80463190D02*
X136186708Y-80425095D01*
X136186708Y-80425095D02*
X135996231Y-80425095D01*
X135996231Y-80425095D02*
X135881946Y-80463190D01*
X135539088Y-81225095D02*
X135539088Y-80425095D01*
X135158136Y-81225095D02*
X135158136Y-80425095D01*
X135158136Y-80425095D02*
X134967660Y-80425095D01*
X134967660Y-80425095D02*
X134853374Y-80463190D01*
X134853374Y-80463190D02*
X134777184Y-80539380D01*
X134777184Y-80539380D02*
X134739089Y-80615571D01*
X134739089Y-80615571D02*
X134700993Y-80767952D01*
X134700993Y-80767952D02*
X134700993Y-80882238D01*
X134700993Y-80882238D02*
X134739089Y-81034619D01*
X134739089Y-81034619D02*
X134777184Y-81110809D01*
X134777184Y-81110809D02*
X134853374Y-81187000D01*
X134853374Y-81187000D02*
X134967660Y-81225095D01*
X134967660Y-81225095D02*
X135158136Y-81225095D01*
X134358136Y-80806047D02*
X134091470Y-80806047D01*
X133977184Y-81225095D02*
X134358136Y-81225095D01*
X134358136Y-81225095D02*
X134358136Y-80425095D01*
X134358136Y-80425095D02*
X133977184Y-80425095D01*
X133367660Y-80806047D02*
X133253374Y-80844142D01*
X133253374Y-80844142D02*
X133215279Y-80882238D01*
X133215279Y-80882238D02*
X133177183Y-80958428D01*
X133177183Y-80958428D02*
X133177183Y-81072714D01*
X133177183Y-81072714D02*
X133215279Y-81148904D01*
X133215279Y-81148904D02*
X133253374Y-81187000D01*
X133253374Y-81187000D02*
X133329564Y-81225095D01*
X133329564Y-81225095D02*
X133634326Y-81225095D01*
X133634326Y-81225095D02*
X133634326Y-80425095D01*
X133634326Y-80425095D02*
X133367660Y-80425095D01*
X133367660Y-80425095D02*
X133291469Y-80463190D01*
X133291469Y-80463190D02*
X133253374Y-80501285D01*
X133253374Y-80501285D02*
X133215279Y-80577476D01*
X133215279Y-80577476D02*
X133215279Y-80653666D01*
X133215279Y-80653666D02*
X133253374Y-80729857D01*
X133253374Y-80729857D02*
X133291469Y-80767952D01*
X133291469Y-80767952D02*
X133367660Y-80806047D01*
X133367660Y-80806047D02*
X133634326Y-80806047D01*
X132834326Y-80920333D02*
X132224803Y-80920333D01*
X131881946Y-80996523D02*
X131500993Y-80996523D01*
X131958136Y-81225095D02*
X131691469Y-80425095D01*
X131691469Y-80425095D02*
X131424803Y-81225095D01*
X130739089Y-81225095D02*
X131196232Y-81225095D01*
X130967660Y-81225095D02*
X130967660Y-80425095D01*
X130967660Y-80425095D02*
X131043851Y-80539380D01*
X131043851Y-80539380D02*
X131120041Y-80615571D01*
X131120041Y-80615571D02*
X131196232Y-80653666D01*
D12*
%TO.P,J1,12,Pin_12*%
%TO.N,Net-(J1-Pin_12)*%
X117373000Y-98540000D03*
%TO.P,J1,11,Pin_11*%
%TO.N,Net-(J1-Pin_11)*%
X117373000Y-96000000D03*
%TO.P,J1,10,Pin_10*%
%TO.N,Net-(J1-Pin_10)*%
X114833000Y-98540000D03*
%TO.P,J1,9,Pin_9*%
%TO.N,Net-(J1-Pin_9)*%
X114833000Y-96000000D03*
%TO.P,J1,8,Pin_8*%
%TO.N,Net-(J1-Pin_8)*%
X112293000Y-98540000D03*
%TO.P,J1,7,Pin_7*%
%TO.N,Net-(J1-Pin_7)*%
X112293000Y-96000000D03*
%TO.P,J1,6,Pin_6*%
%TO.N,Net-(J1-Pin_6)*%
X109753000Y-98540000D03*
%TO.P,J1,5,Pin_5*%
%TO.N,Net-(J1-Pin_5)*%
X109753000Y-96000000D03*
%TO.P,J1,4,Pin_4*%
%TO.N,Net-(J1-Pin_4)*%
X107213000Y-98540000D03*
%TO.P,J1,3,Pin_3*%
%TO.N,Net-(J1-Pin_3)*%
X107213000Y-96000000D03*
%TO.P,J1,2,Pin_2*%
%TO.N,Net-(J1-Pin_2)*%
X104673000Y-98540000D03*
D13*
%TO.P,J1,1,Pin_1*%
%TO.N,Net-(J1-Pin_1)*%
X104673000Y-96000000D03*
%TD*%
%TO.P,J2,1,Pin_1*%
%TO.N,Net-(J1-Pin_2)*%
X127660400Y-91500000D03*
D12*
%TO.P,J2,2,Pin_2*%
%TO.N,Net-(J1-Pin_1)*%
X127660400Y-88960000D03*
%TO.P,J2,3,Pin_3*%
%TO.N,Net-(J1-Pin_4)*%
X125120400Y-91500000D03*
%TO.P,J2,4,Pin_4*%
%TO.N,Net-(J1-Pin_3)*%
X125120400Y-88960000D03*
%TO.P,J2,5,Pin_5*%
%TO.N,Net-(J1-Pin_6)*%
X122580400Y-91500000D03*
%TO.P,J2,6,Pin_6*%
%TO.N,Net-(J1-Pin_5)*%
X122580400Y-88960000D03*
%TO.P,J2,7,Pin_7*%
%TO.N,Net-(J1-Pin_8)*%
X120040400Y-91500000D03*
%TO.P,J2,8,Pin_8*%
%TO.N,Net-(J1-Pin_7)*%
X120040400Y-88960000D03*
%TO.P,J2,9,Pin_9*%
%TO.N,Net-(J1-Pin_10)*%
X117500400Y-91500000D03*
%TO.P,J2,10,Pin_10*%
%TO.N,Net-(J1-Pin_9)*%
X117500400Y-88960000D03*
%TO.P,J2,11,Pin_11*%
%TO.N,Net-(J1-Pin_12)*%
X114960400Y-91500000D03*
%TO.P,J2,12,Pin_12*%
%TO.N,Net-(J1-Pin_11)*%
X114960400Y-88960000D03*
%TD*%
D14*
%TO.N,Net-(J1-Pin_12)*%
X117435800Y-98602800D02*
X117373000Y-98540000D01*
X118795800Y-98602800D02*
X117435800Y-98602800D01*
X119634000Y-94183200D02*
X119634000Y-97764600D01*
X118694200Y-93243400D02*
X119634000Y-94183200D01*
X119634000Y-97764600D02*
X118795800Y-98602800D01*
X114960400Y-91500000D02*
X115020400Y-91500000D01*
X115020400Y-91500000D02*
X116763800Y-93243400D01*
X116763800Y-93243400D02*
X118694200Y-93243400D01*
%TO.N,Net-(J1-Pin_11)*%
X113325600Y-88960000D02*
X114960400Y-88960000D01*
X113131600Y-89154000D02*
X113325600Y-88960000D01*
X113131600Y-93243400D02*
X113131600Y-89154000D01*
X116687600Y-94183200D02*
X114071400Y-94183200D01*
X114071400Y-94183200D02*
X113131600Y-93243400D01*
X117373000Y-96000000D02*
X117373000Y-94868600D01*
X117373000Y-94868600D02*
X116687600Y-94183200D01*
%TO.N,Net-(J1-Pin_2)*%
X127660400Y-92964000D02*
X127660400Y-91500000D01*
X119634000Y-103378000D02*
X122224800Y-100787200D01*
X106730800Y-103378000D02*
X119634000Y-103378000D01*
X122224800Y-98399600D02*
X127660400Y-92964000D01*
X104673000Y-101320200D02*
X106730800Y-103378000D01*
X104673000Y-98540000D02*
X104673000Y-101320200D01*
X122224800Y-100787200D02*
X122224800Y-98399600D01*
%TO.N,Net-(J1-Pin_4)*%
X108204000Y-102209600D02*
X107213000Y-101218600D01*
X125120400Y-93980000D02*
X121208800Y-97891600D01*
X107213000Y-101218600D02*
X107213000Y-98540000D01*
X125120400Y-91500000D02*
X125120400Y-93980000D01*
X121208800Y-97891600D02*
X121208800Y-100330000D01*
X121208800Y-100330000D02*
X119329200Y-102209600D01*
X119329200Y-102209600D02*
X108204000Y-102209600D01*
%TD*%
M02*
