%TF.GenerationSoftware,KiCad,Pcbnew,9.0.6*%
%TF.CreationDate,2025-12-26T20:18:53+00:00*%
%TF.ProjectId,PIDI-BOX-01-IO-6-CTRL74-A1,50494449-2d42-44f5-982d-30312d494f2d,rev?*%
%TF.SameCoordinates,Original*%
%TF.FileFunction,Legend,Top*%
%TF.FilePolarity,Positive*%
%FSLAX46Y46*%
G04 Gerber Fmt 4.6, Leading zero omitted, Abs format (unit mm)*
G04 Created by KiCad (PCBNEW 9.0.6) date 2025-12-26 20:18:53*
%MOMM*%
%LPD*%
G01*
G04 APERTURE LIST*
%ADD10C,0.150000*%
%ADD11C,0.200000*%
%ADD12C,0.120000*%
%ADD13C,0.152400*%
%ADD14C,0.350000*%
G04 APERTURE END LIST*
D10*
X124355464Y-87740200D02*
X124469750Y-87778295D01*
X124469750Y-87778295D02*
X124660226Y-87778295D01*
X124660226Y-87778295D02*
X124736417Y-87740200D01*
X124736417Y-87740200D02*
X124774512Y-87702104D01*
X124774512Y-87702104D02*
X124812607Y-87625914D01*
X124812607Y-87625914D02*
X124812607Y-87549723D01*
X124812607Y-87549723D02*
X124774512Y-87473533D01*
X124774512Y-87473533D02*
X124736417Y-87435438D01*
X124736417Y-87435438D02*
X124660226Y-87397342D01*
X124660226Y-87397342D02*
X124507845Y-87359247D01*
X124507845Y-87359247D02*
X124431655Y-87321152D01*
X124431655Y-87321152D02*
X124393560Y-87283057D01*
X124393560Y-87283057D02*
X124355464Y-87206866D01*
X124355464Y-87206866D02*
X124355464Y-87130676D01*
X124355464Y-87130676D02*
X124393560Y-87054485D01*
X124393560Y-87054485D02*
X124431655Y-87016390D01*
X124431655Y-87016390D02*
X124507845Y-86978295D01*
X124507845Y-86978295D02*
X124698322Y-86978295D01*
X124698322Y-86978295D02*
X124812607Y-87016390D01*
X125612608Y-87702104D02*
X125574512Y-87740200D01*
X125574512Y-87740200D02*
X125460227Y-87778295D01*
X125460227Y-87778295D02*
X125384036Y-87778295D01*
X125384036Y-87778295D02*
X125269750Y-87740200D01*
X125269750Y-87740200D02*
X125193560Y-87664009D01*
X125193560Y-87664009D02*
X125155465Y-87587819D01*
X125155465Y-87587819D02*
X125117369Y-87435438D01*
X125117369Y-87435438D02*
X125117369Y-87321152D01*
X125117369Y-87321152D02*
X125155465Y-87168771D01*
X125155465Y-87168771D02*
X125193560Y-87092580D01*
X125193560Y-87092580D02*
X125269750Y-87016390D01*
X125269750Y-87016390D02*
X125384036Y-86978295D01*
X125384036Y-86978295D02*
X125460227Y-86978295D01*
X125460227Y-86978295D02*
X125574512Y-87016390D01*
X125574512Y-87016390D02*
X125612608Y-87054485D01*
X125955465Y-87473533D02*
X126564989Y-87473533D01*
X126907845Y-87740200D02*
X127022131Y-87778295D01*
X127022131Y-87778295D02*
X127212607Y-87778295D01*
X127212607Y-87778295D02*
X127288798Y-87740200D01*
X127288798Y-87740200D02*
X127326893Y-87702104D01*
X127326893Y-87702104D02*
X127364988Y-87625914D01*
X127364988Y-87625914D02*
X127364988Y-87549723D01*
X127364988Y-87549723D02*
X127326893Y-87473533D01*
X127326893Y-87473533D02*
X127288798Y-87435438D01*
X127288798Y-87435438D02*
X127212607Y-87397342D01*
X127212607Y-87397342D02*
X127060226Y-87359247D01*
X127060226Y-87359247D02*
X126984036Y-87321152D01*
X126984036Y-87321152D02*
X126945941Y-87283057D01*
X126945941Y-87283057D02*
X126907845Y-87206866D01*
X126907845Y-87206866D02*
X126907845Y-87130676D01*
X126907845Y-87130676D02*
X126945941Y-87054485D01*
X126945941Y-87054485D02*
X126984036Y-87016390D01*
X126984036Y-87016390D02*
X127060226Y-86978295D01*
X127060226Y-86978295D02*
X127250703Y-86978295D01*
X127250703Y-86978295D02*
X127364988Y-87016390D01*
X127707846Y-87778295D02*
X127707846Y-86978295D01*
X127707846Y-86978295D02*
X127898322Y-86978295D01*
X127898322Y-86978295D02*
X128012608Y-87016390D01*
X128012608Y-87016390D02*
X128088798Y-87092580D01*
X128088798Y-87092580D02*
X128126893Y-87168771D01*
X128126893Y-87168771D02*
X128164989Y-87321152D01*
X128164989Y-87321152D02*
X128164989Y-87435438D01*
X128164989Y-87435438D02*
X128126893Y-87587819D01*
X128126893Y-87587819D02*
X128088798Y-87664009D01*
X128088798Y-87664009D02*
X128012608Y-87740200D01*
X128012608Y-87740200D02*
X127898322Y-87778295D01*
X127898322Y-87778295D02*
X127707846Y-87778295D01*
X128507846Y-87473533D02*
X129117370Y-87473533D01*
X129498322Y-87778295D02*
X129498322Y-86978295D01*
X129879274Y-87778295D02*
X129879274Y-86978295D01*
X129879274Y-86978295D02*
X130336417Y-87778295D01*
X130336417Y-87778295D02*
X130336417Y-86978295D01*
X130603083Y-86978295D02*
X131060226Y-86978295D01*
X130831654Y-87778295D02*
X130831654Y-86978295D01*
X131326893Y-87473533D02*
X131936417Y-87473533D01*
X132279273Y-87549723D02*
X132660226Y-87549723D01*
X132203083Y-87778295D02*
X132469750Y-86978295D01*
X132469750Y-86978295D02*
X132736416Y-87778295D01*
X133155464Y-86978295D02*
X133231654Y-86978295D01*
X133231654Y-86978295D02*
X133307845Y-87016390D01*
X133307845Y-87016390D02*
X133345940Y-87054485D01*
X133345940Y-87054485D02*
X133384035Y-87130676D01*
X133384035Y-87130676D02*
X133422130Y-87283057D01*
X133422130Y-87283057D02*
X133422130Y-87473533D01*
X133422130Y-87473533D02*
X133384035Y-87625914D01*
X133384035Y-87625914D02*
X133345940Y-87702104D01*
X133345940Y-87702104D02*
X133307845Y-87740200D01*
X133307845Y-87740200D02*
X133231654Y-87778295D01*
X133231654Y-87778295D02*
X133155464Y-87778295D01*
X133155464Y-87778295D02*
X133079273Y-87740200D01*
X133079273Y-87740200D02*
X133041178Y-87702104D01*
X133041178Y-87702104D02*
X133003083Y-87625914D01*
X133003083Y-87625914D02*
X132964987Y-87473533D01*
X132964987Y-87473533D02*
X132964987Y-87283057D01*
X132964987Y-87283057D02*
X133003083Y-87130676D01*
X133003083Y-87130676D02*
X133041178Y-87054485D01*
X133041178Y-87054485D02*
X133079273Y-87016390D01*
X133079273Y-87016390D02*
X133155464Y-86978295D01*
X133764988Y-87473533D02*
X134374512Y-87473533D01*
X134717368Y-87549723D02*
X135098321Y-87549723D01*
X134641178Y-87778295D02*
X134907845Y-86978295D01*
X134907845Y-86978295D02*
X135174511Y-87778295D01*
X135860225Y-87778295D02*
X135403082Y-87778295D01*
X135631654Y-87778295D02*
X135631654Y-86978295D01*
X135631654Y-86978295D02*
X135555463Y-87092580D01*
X135555463Y-87092580D02*
X135479273Y-87168771D01*
X135479273Y-87168771D02*
X135403082Y-87206866D01*
X136203083Y-87473533D02*
X136812607Y-87473533D01*
X137155463Y-87549723D02*
X137536416Y-87549723D01*
X137079273Y-87778295D02*
X137345940Y-86978295D01*
X137345940Y-86978295D02*
X137612606Y-87778295D01*
X137841177Y-87054485D02*
X137879273Y-87016390D01*
X137879273Y-87016390D02*
X137955463Y-86978295D01*
X137955463Y-86978295D02*
X138145939Y-86978295D01*
X138145939Y-86978295D02*
X138222130Y-87016390D01*
X138222130Y-87016390D02*
X138260225Y-87054485D01*
X138260225Y-87054485D02*
X138298320Y-87130676D01*
X138298320Y-87130676D02*
X138298320Y-87206866D01*
X138298320Y-87206866D02*
X138260225Y-87321152D01*
X138260225Y-87321152D02*
X137803082Y-87778295D01*
X137803082Y-87778295D02*
X138298320Y-87778295D01*
X118370579Y-106463875D02*
X118370579Y-105463875D01*
X118370579Y-105463875D02*
X118751531Y-105463875D01*
X118751531Y-105463875D02*
X118846769Y-105511494D01*
X118846769Y-105511494D02*
X118894388Y-105559113D01*
X118894388Y-105559113D02*
X118942007Y-105654351D01*
X118942007Y-105654351D02*
X118942007Y-105797208D01*
X118942007Y-105797208D02*
X118894388Y-105892446D01*
X118894388Y-105892446D02*
X118846769Y-105940065D01*
X118846769Y-105940065D02*
X118751531Y-105987684D01*
X118751531Y-105987684D02*
X118370579Y-105987684D01*
X119370579Y-106463875D02*
X119370579Y-105463875D01*
X119846769Y-106463875D02*
X119846769Y-105463875D01*
X119846769Y-105463875D02*
X120084864Y-105463875D01*
X120084864Y-105463875D02*
X120227721Y-105511494D01*
X120227721Y-105511494D02*
X120322959Y-105606732D01*
X120322959Y-105606732D02*
X120370578Y-105701970D01*
X120370578Y-105701970D02*
X120418197Y-105892446D01*
X120418197Y-105892446D02*
X120418197Y-106035303D01*
X120418197Y-106035303D02*
X120370578Y-106225779D01*
X120370578Y-106225779D02*
X120322959Y-106321017D01*
X120322959Y-106321017D02*
X120227721Y-106416256D01*
X120227721Y-106416256D02*
X120084864Y-106463875D01*
X120084864Y-106463875D02*
X119846769Y-106463875D01*
X120846769Y-106463875D02*
X120846769Y-105463875D01*
X121322959Y-106082922D02*
X122084864Y-106082922D01*
X122894387Y-105940065D02*
X123037244Y-105987684D01*
X123037244Y-105987684D02*
X123084863Y-106035303D01*
X123084863Y-106035303D02*
X123132482Y-106130541D01*
X123132482Y-106130541D02*
X123132482Y-106273398D01*
X123132482Y-106273398D02*
X123084863Y-106368636D01*
X123084863Y-106368636D02*
X123037244Y-106416256D01*
X123037244Y-106416256D02*
X122942006Y-106463875D01*
X122942006Y-106463875D02*
X122561054Y-106463875D01*
X122561054Y-106463875D02*
X122561054Y-105463875D01*
X122561054Y-105463875D02*
X122894387Y-105463875D01*
X122894387Y-105463875D02*
X122989625Y-105511494D01*
X122989625Y-105511494D02*
X123037244Y-105559113D01*
X123037244Y-105559113D02*
X123084863Y-105654351D01*
X123084863Y-105654351D02*
X123084863Y-105749589D01*
X123084863Y-105749589D02*
X123037244Y-105844827D01*
X123037244Y-105844827D02*
X122989625Y-105892446D01*
X122989625Y-105892446D02*
X122894387Y-105940065D01*
X122894387Y-105940065D02*
X122561054Y-105940065D01*
X123751530Y-105463875D02*
X123942006Y-105463875D01*
X123942006Y-105463875D02*
X124037244Y-105511494D01*
X124037244Y-105511494D02*
X124132482Y-105606732D01*
X124132482Y-105606732D02*
X124180101Y-105797208D01*
X124180101Y-105797208D02*
X124180101Y-106130541D01*
X124180101Y-106130541D02*
X124132482Y-106321017D01*
X124132482Y-106321017D02*
X124037244Y-106416256D01*
X124037244Y-106416256D02*
X123942006Y-106463875D01*
X123942006Y-106463875D02*
X123751530Y-106463875D01*
X123751530Y-106463875D02*
X123656292Y-106416256D01*
X123656292Y-106416256D02*
X123561054Y-106321017D01*
X123561054Y-106321017D02*
X123513435Y-106130541D01*
X123513435Y-106130541D02*
X123513435Y-105797208D01*
X123513435Y-105797208D02*
X123561054Y-105606732D01*
X123561054Y-105606732D02*
X123656292Y-105511494D01*
X123656292Y-105511494D02*
X123751530Y-105463875D01*
X124513435Y-105463875D02*
X125180101Y-106463875D01*
X125180101Y-105463875D02*
X124513435Y-106463875D01*
X125561054Y-106082922D02*
X126322959Y-106082922D01*
X126989625Y-105463875D02*
X127084863Y-105463875D01*
X127084863Y-105463875D02*
X127180101Y-105511494D01*
X127180101Y-105511494D02*
X127227720Y-105559113D01*
X127227720Y-105559113D02*
X127275339Y-105654351D01*
X127275339Y-105654351D02*
X127322958Y-105844827D01*
X127322958Y-105844827D02*
X127322958Y-106082922D01*
X127322958Y-106082922D02*
X127275339Y-106273398D01*
X127275339Y-106273398D02*
X127227720Y-106368636D01*
X127227720Y-106368636D02*
X127180101Y-106416256D01*
X127180101Y-106416256D02*
X127084863Y-106463875D01*
X127084863Y-106463875D02*
X126989625Y-106463875D01*
X126989625Y-106463875D02*
X126894387Y-106416256D01*
X126894387Y-106416256D02*
X126846768Y-106368636D01*
X126846768Y-106368636D02*
X126799149Y-106273398D01*
X126799149Y-106273398D02*
X126751530Y-106082922D01*
X126751530Y-106082922D02*
X126751530Y-105844827D01*
X126751530Y-105844827D02*
X126799149Y-105654351D01*
X126799149Y-105654351D02*
X126846768Y-105559113D01*
X126846768Y-105559113D02*
X126894387Y-105511494D01*
X126894387Y-105511494D02*
X126989625Y-105463875D01*
X128275339Y-106463875D02*
X127703911Y-106463875D01*
X127989625Y-106463875D02*
X127989625Y-105463875D01*
X127989625Y-105463875D02*
X127894387Y-105606732D01*
X127894387Y-105606732D02*
X127799149Y-105701970D01*
X127799149Y-105701970D02*
X127703911Y-105749589D01*
X118370579Y-107692866D02*
X119132484Y-107692866D01*
X119608674Y-108073819D02*
X119608674Y-107073819D01*
X120275340Y-107073819D02*
X120465816Y-107073819D01*
X120465816Y-107073819D02*
X120561054Y-107121438D01*
X120561054Y-107121438D02*
X120656292Y-107216676D01*
X120656292Y-107216676D02*
X120703911Y-107407152D01*
X120703911Y-107407152D02*
X120703911Y-107740485D01*
X120703911Y-107740485D02*
X120656292Y-107930961D01*
X120656292Y-107930961D02*
X120561054Y-108026200D01*
X120561054Y-108026200D02*
X120465816Y-108073819D01*
X120465816Y-108073819D02*
X120275340Y-108073819D01*
X120275340Y-108073819D02*
X120180102Y-108026200D01*
X120180102Y-108026200D02*
X120084864Y-107930961D01*
X120084864Y-107930961D02*
X120037245Y-107740485D01*
X120037245Y-107740485D02*
X120037245Y-107407152D01*
X120037245Y-107407152D02*
X120084864Y-107216676D01*
X120084864Y-107216676D02*
X120180102Y-107121438D01*
X120180102Y-107121438D02*
X120275340Y-107073819D01*
X121132483Y-107692866D02*
X121894388Y-107692866D01*
X122799149Y-107073819D02*
X122608673Y-107073819D01*
X122608673Y-107073819D02*
X122513435Y-107121438D01*
X122513435Y-107121438D02*
X122465816Y-107169057D01*
X122465816Y-107169057D02*
X122370578Y-107311914D01*
X122370578Y-107311914D02*
X122322959Y-107502390D01*
X122322959Y-107502390D02*
X122322959Y-107883342D01*
X122322959Y-107883342D02*
X122370578Y-107978580D01*
X122370578Y-107978580D02*
X122418197Y-108026200D01*
X122418197Y-108026200D02*
X122513435Y-108073819D01*
X122513435Y-108073819D02*
X122703911Y-108073819D01*
X122703911Y-108073819D02*
X122799149Y-108026200D01*
X122799149Y-108026200D02*
X122846768Y-107978580D01*
X122846768Y-107978580D02*
X122894387Y-107883342D01*
X122894387Y-107883342D02*
X122894387Y-107645247D01*
X122894387Y-107645247D02*
X122846768Y-107550009D01*
X122846768Y-107550009D02*
X122799149Y-107502390D01*
X122799149Y-107502390D02*
X122703911Y-107454771D01*
X122703911Y-107454771D02*
X122513435Y-107454771D01*
X122513435Y-107454771D02*
X122418197Y-107502390D01*
X122418197Y-107502390D02*
X122370578Y-107550009D01*
X122370578Y-107550009D02*
X122322959Y-107645247D01*
X123322959Y-107692866D02*
X124084864Y-107692866D01*
X125132482Y-107978580D02*
X125084863Y-108026200D01*
X125084863Y-108026200D02*
X124942006Y-108073819D01*
X124942006Y-108073819D02*
X124846768Y-108073819D01*
X124846768Y-108073819D02*
X124703911Y-108026200D01*
X124703911Y-108026200D02*
X124608673Y-107930961D01*
X124608673Y-107930961D02*
X124561054Y-107835723D01*
X124561054Y-107835723D02*
X124513435Y-107645247D01*
X124513435Y-107645247D02*
X124513435Y-107502390D01*
X124513435Y-107502390D02*
X124561054Y-107311914D01*
X124561054Y-107311914D02*
X124608673Y-107216676D01*
X124608673Y-107216676D02*
X124703911Y-107121438D01*
X124703911Y-107121438D02*
X124846768Y-107073819D01*
X124846768Y-107073819D02*
X124942006Y-107073819D01*
X124942006Y-107073819D02*
X125084863Y-107121438D01*
X125084863Y-107121438D02*
X125132482Y-107169057D01*
X125418197Y-107073819D02*
X125989625Y-107073819D01*
X125703911Y-108073819D02*
X125703911Y-107073819D01*
X126894387Y-108073819D02*
X126561054Y-107597628D01*
X126322959Y-108073819D02*
X126322959Y-107073819D01*
X126322959Y-107073819D02*
X126703911Y-107073819D01*
X126703911Y-107073819D02*
X126799149Y-107121438D01*
X126799149Y-107121438D02*
X126846768Y-107169057D01*
X126846768Y-107169057D02*
X126894387Y-107264295D01*
X126894387Y-107264295D02*
X126894387Y-107407152D01*
X126894387Y-107407152D02*
X126846768Y-107502390D01*
X126846768Y-107502390D02*
X126799149Y-107550009D01*
X126799149Y-107550009D02*
X126703911Y-107597628D01*
X126703911Y-107597628D02*
X126322959Y-107597628D01*
X127799149Y-108073819D02*
X127322959Y-108073819D01*
X127322959Y-108073819D02*
X127322959Y-107073819D01*
X128037245Y-107073819D02*
X128703911Y-107073819D01*
X128703911Y-107073819D02*
X128275340Y-108073819D01*
X129513435Y-107407152D02*
X129513435Y-108073819D01*
X129275340Y-107026200D02*
X129037245Y-107740485D01*
X129037245Y-107740485D02*
X129656292Y-107740485D01*
X130037245Y-107692866D02*
X130799150Y-107692866D01*
X131227721Y-107788104D02*
X131703911Y-107788104D01*
X131132483Y-108073819D02*
X131465816Y-107073819D01*
X131465816Y-107073819D02*
X131799149Y-108073819D01*
X132656292Y-108073819D02*
X132084864Y-108073819D01*
X132370578Y-108073819D02*
X132370578Y-107073819D01*
X132370578Y-107073819D02*
X132275340Y-107216676D01*
X132275340Y-107216676D02*
X132180102Y-107311914D01*
X132180102Y-107311914D02*
X132084864Y-107359533D01*
D11*
X132652873Y-113684666D02*
X133414778Y-113684666D01*
X133033825Y-114065619D02*
X133033825Y-113303714D01*
D10*
X157422914Y-100133495D02*
X157156247Y-99752542D01*
X156965771Y-100133495D02*
X156965771Y-99333495D01*
X156965771Y-99333495D02*
X157270533Y-99333495D01*
X157270533Y-99333495D02*
X157346723Y-99371590D01*
X157346723Y-99371590D02*
X157384818Y-99409685D01*
X157384818Y-99409685D02*
X157422914Y-99485876D01*
X157422914Y-99485876D02*
X157422914Y-99600161D01*
X157422914Y-99600161D02*
X157384818Y-99676352D01*
X157384818Y-99676352D02*
X157346723Y-99714447D01*
X157346723Y-99714447D02*
X157270533Y-99752542D01*
X157270533Y-99752542D02*
X156965771Y-99752542D01*
X158184818Y-100133495D02*
X157727675Y-100133495D01*
X157956247Y-100133495D02*
X157956247Y-99333495D01*
X157956247Y-99333495D02*
X157880056Y-99447780D01*
X157880056Y-99447780D02*
X157803866Y-99523971D01*
X157803866Y-99523971D02*
X157727675Y-99562066D01*
X158489580Y-99409685D02*
X158527676Y-99371590D01*
X158527676Y-99371590D02*
X158603866Y-99333495D01*
X158603866Y-99333495D02*
X158794342Y-99333495D01*
X158794342Y-99333495D02*
X158870533Y-99371590D01*
X158870533Y-99371590D02*
X158908628Y-99409685D01*
X158908628Y-99409685D02*
X158946723Y-99485876D01*
X158946723Y-99485876D02*
X158946723Y-99562066D01*
X158946723Y-99562066D02*
X158908628Y-99676352D01*
X158908628Y-99676352D02*
X158451485Y-100133495D01*
X158451485Y-100133495D02*
X158946723Y-100133495D01*
X151072914Y-112122295D02*
X150806247Y-111741342D01*
X150615771Y-112122295D02*
X150615771Y-111322295D01*
X150615771Y-111322295D02*
X150920533Y-111322295D01*
X150920533Y-111322295D02*
X150996723Y-111360390D01*
X150996723Y-111360390D02*
X151034818Y-111398485D01*
X151034818Y-111398485D02*
X151072914Y-111474676D01*
X151072914Y-111474676D02*
X151072914Y-111588961D01*
X151072914Y-111588961D02*
X151034818Y-111665152D01*
X151034818Y-111665152D02*
X150996723Y-111703247D01*
X150996723Y-111703247D02*
X150920533Y-111741342D01*
X150920533Y-111741342D02*
X150615771Y-111741342D01*
X151834818Y-112122295D02*
X151377675Y-112122295D01*
X151606247Y-112122295D02*
X151606247Y-111322295D01*
X151606247Y-111322295D02*
X151530056Y-111436580D01*
X151530056Y-111436580D02*
X151453866Y-111512771D01*
X151453866Y-111512771D02*
X151377675Y-111550866D01*
X152596723Y-112122295D02*
X152139580Y-112122295D01*
X152368152Y-112122295D02*
X152368152Y-111322295D01*
X152368152Y-111322295D02*
X152291961Y-111436580D01*
X152291961Y-111436580D02*
X152215771Y-111512771D01*
X152215771Y-111512771D02*
X152139580Y-111550866D01*
X130016267Y-103460895D02*
X129749600Y-103079942D01*
X129559124Y-103460895D02*
X129559124Y-102660895D01*
X129559124Y-102660895D02*
X129863886Y-102660895D01*
X129863886Y-102660895D02*
X129940076Y-102698990D01*
X129940076Y-102698990D02*
X129978171Y-102737085D01*
X129978171Y-102737085D02*
X130016267Y-102813276D01*
X130016267Y-102813276D02*
X130016267Y-102927561D01*
X130016267Y-102927561D02*
X129978171Y-103003752D01*
X129978171Y-103003752D02*
X129940076Y-103041847D01*
X129940076Y-103041847D02*
X129863886Y-103079942D01*
X129863886Y-103079942D02*
X129559124Y-103079942D01*
X130778171Y-103460895D02*
X130321028Y-103460895D01*
X130549600Y-103460895D02*
X130549600Y-102660895D01*
X130549600Y-102660895D02*
X130473409Y-102775180D01*
X130473409Y-102775180D02*
X130397219Y-102851371D01*
X130397219Y-102851371D02*
X130321028Y-102889466D01*
X122212133Y-94761495D02*
X122212133Y-95332923D01*
X122212133Y-95332923D02*
X122174038Y-95447209D01*
X122174038Y-95447209D02*
X122097847Y-95523400D01*
X122097847Y-95523400D02*
X121983562Y-95561495D01*
X121983562Y-95561495D02*
X121907371Y-95561495D01*
X122935943Y-95028161D02*
X122935943Y-95561495D01*
X122745467Y-94723400D02*
X122554990Y-95294828D01*
X122554990Y-95294828D02*
X123050229Y-95294828D01*
X145611867Y-90887895D02*
X145345200Y-90506942D01*
X145154724Y-90887895D02*
X145154724Y-90087895D01*
X145154724Y-90087895D02*
X145459486Y-90087895D01*
X145459486Y-90087895D02*
X145535676Y-90125990D01*
X145535676Y-90125990D02*
X145573771Y-90164085D01*
X145573771Y-90164085D02*
X145611867Y-90240276D01*
X145611867Y-90240276D02*
X145611867Y-90354561D01*
X145611867Y-90354561D02*
X145573771Y-90430752D01*
X145573771Y-90430752D02*
X145535676Y-90468847D01*
X145535676Y-90468847D02*
X145459486Y-90506942D01*
X145459486Y-90506942D02*
X145154724Y-90506942D01*
X146297581Y-90354561D02*
X146297581Y-90887895D01*
X146107105Y-90049800D02*
X145916628Y-90621228D01*
X145916628Y-90621228D02*
X146411867Y-90621228D01*
X158896133Y-100806695D02*
X158896133Y-101378123D01*
X158896133Y-101378123D02*
X158858038Y-101492409D01*
X158858038Y-101492409D02*
X158781847Y-101568600D01*
X158781847Y-101568600D02*
X158667562Y-101606695D01*
X158667562Y-101606695D02*
X158591371Y-101606695D01*
X159277086Y-101606695D02*
X159277086Y-100806695D01*
X159277086Y-100806695D02*
X159581848Y-100806695D01*
X159581848Y-100806695D02*
X159658038Y-100844790D01*
X159658038Y-100844790D02*
X159696133Y-100882885D01*
X159696133Y-100882885D02*
X159734229Y-100959076D01*
X159734229Y-100959076D02*
X159734229Y-101073361D01*
X159734229Y-101073361D02*
X159696133Y-101149552D01*
X159696133Y-101149552D02*
X159658038Y-101187647D01*
X159658038Y-101187647D02*
X159581848Y-101225742D01*
X159581848Y-101225742D02*
X159277086Y-101225742D01*
X160000895Y-100806695D02*
X160496133Y-100806695D01*
X160496133Y-100806695D02*
X160229467Y-101111457D01*
X160229467Y-101111457D02*
X160343752Y-101111457D01*
X160343752Y-101111457D02*
X160419943Y-101149552D01*
X160419943Y-101149552D02*
X160458038Y-101187647D01*
X160458038Y-101187647D02*
X160496133Y-101263838D01*
X160496133Y-101263838D02*
X160496133Y-101454314D01*
X160496133Y-101454314D02*
X160458038Y-101530504D01*
X160458038Y-101530504D02*
X160419943Y-101568600D01*
X160419943Y-101568600D02*
X160343752Y-101606695D01*
X160343752Y-101606695D02*
X160115181Y-101606695D01*
X160115181Y-101606695D02*
X160038990Y-101568600D01*
X160038990Y-101568600D02*
X160000895Y-101530504D01*
X159689771Y-104705495D02*
X159232628Y-104705495D01*
X159461200Y-104705495D02*
X159461200Y-103905495D01*
X159461200Y-103905495D02*
X159385009Y-104019780D01*
X159385009Y-104019780D02*
X159308819Y-104095971D01*
X159308819Y-104095971D02*
X159232628Y-104134066D01*
X154571733Y-103956295D02*
X155066971Y-103956295D01*
X155066971Y-103956295D02*
X154800305Y-104261057D01*
X154800305Y-104261057D02*
X154914590Y-104261057D01*
X154914590Y-104261057D02*
X154990781Y-104299152D01*
X154990781Y-104299152D02*
X155028876Y-104337247D01*
X155028876Y-104337247D02*
X155066971Y-104413438D01*
X155066971Y-104413438D02*
X155066971Y-104603914D01*
X155066971Y-104603914D02*
X155028876Y-104680104D01*
X155028876Y-104680104D02*
X154990781Y-104718200D01*
X154990781Y-104718200D02*
X154914590Y-104756295D01*
X154914590Y-104756295D02*
X154686019Y-104756295D01*
X154686019Y-104756295D02*
X154609828Y-104718200D01*
X154609828Y-104718200D02*
X154571733Y-104680104D01*
X127615867Y-103396695D02*
X127349200Y-103015742D01*
X127158724Y-103396695D02*
X127158724Y-102596695D01*
X127158724Y-102596695D02*
X127463486Y-102596695D01*
X127463486Y-102596695D02*
X127539676Y-102634790D01*
X127539676Y-102634790D02*
X127577771Y-102672885D01*
X127577771Y-102672885D02*
X127615867Y-102749076D01*
X127615867Y-102749076D02*
X127615867Y-102863361D01*
X127615867Y-102863361D02*
X127577771Y-102939552D01*
X127577771Y-102939552D02*
X127539676Y-102977647D01*
X127539676Y-102977647D02*
X127463486Y-103015742D01*
X127463486Y-103015742D02*
X127158724Y-103015742D01*
X127920628Y-102672885D02*
X127958724Y-102634790D01*
X127958724Y-102634790D02*
X128034914Y-102596695D01*
X128034914Y-102596695D02*
X128225390Y-102596695D01*
X128225390Y-102596695D02*
X128301581Y-102634790D01*
X128301581Y-102634790D02*
X128339676Y-102672885D01*
X128339676Y-102672885D02*
X128377771Y-102749076D01*
X128377771Y-102749076D02*
X128377771Y-102825266D01*
X128377771Y-102825266D02*
X128339676Y-102939552D01*
X128339676Y-102939552D02*
X127882533Y-103396695D01*
X127882533Y-103396695D02*
X128377771Y-103396695D01*
X116382876Y-95523495D02*
X116382876Y-96171114D01*
X116382876Y-96171114D02*
X116420971Y-96247304D01*
X116420971Y-96247304D02*
X116459066Y-96285400D01*
X116459066Y-96285400D02*
X116535257Y-96323495D01*
X116535257Y-96323495D02*
X116687638Y-96323495D01*
X116687638Y-96323495D02*
X116763828Y-96285400D01*
X116763828Y-96285400D02*
X116801923Y-96247304D01*
X116801923Y-96247304D02*
X116840019Y-96171114D01*
X116840019Y-96171114D02*
X116840019Y-95523495D01*
X117640018Y-96323495D02*
X117182875Y-96323495D01*
X117411447Y-96323495D02*
X117411447Y-95523495D01*
X117411447Y-95523495D02*
X117335256Y-95637780D01*
X117335256Y-95637780D02*
X117259066Y-95713971D01*
X117259066Y-95713971D02*
X117182875Y-95752066D01*
X121183476Y-100933695D02*
X121183476Y-101581314D01*
X121183476Y-101581314D02*
X121221571Y-101657504D01*
X121221571Y-101657504D02*
X121259666Y-101695600D01*
X121259666Y-101695600D02*
X121335857Y-101733695D01*
X121335857Y-101733695D02*
X121488238Y-101733695D01*
X121488238Y-101733695D02*
X121564428Y-101695600D01*
X121564428Y-101695600D02*
X121602523Y-101657504D01*
X121602523Y-101657504D02*
X121640619Y-101581314D01*
X121640619Y-101581314D02*
X121640619Y-100933695D01*
X121983475Y-101009885D02*
X122021571Y-100971790D01*
X122021571Y-100971790D02*
X122097761Y-100933695D01*
X122097761Y-100933695D02*
X122288237Y-100933695D01*
X122288237Y-100933695D02*
X122364428Y-100971790D01*
X122364428Y-100971790D02*
X122402523Y-101009885D01*
X122402523Y-101009885D02*
X122440618Y-101086076D01*
X122440618Y-101086076D02*
X122440618Y-101162266D01*
X122440618Y-101162266D02*
X122402523Y-101276552D01*
X122402523Y-101276552D02*
X121945380Y-101733695D01*
X121945380Y-101733695D02*
X122440618Y-101733695D01*
X113283998Y-95217089D02*
X113283998Y-95788517D01*
X113283998Y-95788517D02*
X113245903Y-95902803D01*
X113245903Y-95902803D02*
X113169712Y-95978994D01*
X113169712Y-95978994D02*
X113055427Y-96017089D01*
X113055427Y-96017089D02*
X112979236Y-96017089D01*
X113588760Y-95217089D02*
X114083998Y-95217089D01*
X114083998Y-95217089D02*
X113817332Y-95521851D01*
X113817332Y-95521851D02*
X113931617Y-95521851D01*
X113931617Y-95521851D02*
X114007808Y-95559946D01*
X114007808Y-95559946D02*
X114045903Y-95598041D01*
X114045903Y-95598041D02*
X114083998Y-95674232D01*
X114083998Y-95674232D02*
X114083998Y-95864708D01*
X114083998Y-95864708D02*
X114045903Y-95940898D01*
X114045903Y-95940898D02*
X114007808Y-95978994D01*
X114007808Y-95978994D02*
X113931617Y-96017089D01*
X113931617Y-96017089D02*
X113703046Y-96017089D01*
X113703046Y-96017089D02*
X113626855Y-95978994D01*
X113626855Y-95978994D02*
X113588760Y-95940898D01*
X142716267Y-90938695D02*
X142449600Y-90557742D01*
X142259124Y-90938695D02*
X142259124Y-90138695D01*
X142259124Y-90138695D02*
X142563886Y-90138695D01*
X142563886Y-90138695D02*
X142640076Y-90176790D01*
X142640076Y-90176790D02*
X142678171Y-90214885D01*
X142678171Y-90214885D02*
X142716267Y-90291076D01*
X142716267Y-90291076D02*
X142716267Y-90405361D01*
X142716267Y-90405361D02*
X142678171Y-90481552D01*
X142678171Y-90481552D02*
X142640076Y-90519647D01*
X142640076Y-90519647D02*
X142563886Y-90557742D01*
X142563886Y-90557742D02*
X142259124Y-90557742D01*
X142982933Y-90138695D02*
X143478171Y-90138695D01*
X143478171Y-90138695D02*
X143211505Y-90443457D01*
X143211505Y-90443457D02*
X143325790Y-90443457D01*
X143325790Y-90443457D02*
X143401981Y-90481552D01*
X143401981Y-90481552D02*
X143440076Y-90519647D01*
X143440076Y-90519647D02*
X143478171Y-90595838D01*
X143478171Y-90595838D02*
X143478171Y-90786314D01*
X143478171Y-90786314D02*
X143440076Y-90862504D01*
X143440076Y-90862504D02*
X143401981Y-90900600D01*
X143401981Y-90900600D02*
X143325790Y-90938695D01*
X143325790Y-90938695D02*
X143097219Y-90938695D01*
X143097219Y-90938695D02*
X143021028Y-90900600D01*
X143021028Y-90900600D02*
X142982933Y-90862504D01*
X156787867Y-96044104D02*
X156749771Y-96082200D01*
X156749771Y-96082200D02*
X156635486Y-96120295D01*
X156635486Y-96120295D02*
X156559295Y-96120295D01*
X156559295Y-96120295D02*
X156445009Y-96082200D01*
X156445009Y-96082200D02*
X156368819Y-96006009D01*
X156368819Y-96006009D02*
X156330724Y-95929819D01*
X156330724Y-95929819D02*
X156292628Y-95777438D01*
X156292628Y-95777438D02*
X156292628Y-95663152D01*
X156292628Y-95663152D02*
X156330724Y-95510771D01*
X156330724Y-95510771D02*
X156368819Y-95434580D01*
X156368819Y-95434580D02*
X156445009Y-95358390D01*
X156445009Y-95358390D02*
X156559295Y-95320295D01*
X156559295Y-95320295D02*
X156635486Y-95320295D01*
X156635486Y-95320295D02*
X156749771Y-95358390D01*
X156749771Y-95358390D02*
X156787867Y-95396485D01*
X157549771Y-96120295D02*
X157092628Y-96120295D01*
X157321200Y-96120295D02*
X157321200Y-95320295D01*
X157321200Y-95320295D02*
X157245009Y-95434580D01*
X157245009Y-95434580D02*
X157168819Y-95510771D01*
X157168819Y-95510771D02*
X157092628Y-95548866D01*
X149390133Y-85719095D02*
X149390133Y-86290523D01*
X149390133Y-86290523D02*
X149352038Y-86404809D01*
X149352038Y-86404809D02*
X149275847Y-86481000D01*
X149275847Y-86481000D02*
X149161562Y-86519095D01*
X149161562Y-86519095D02*
X149085371Y-86519095D01*
X150190133Y-86519095D02*
X149732990Y-86519095D01*
X149961562Y-86519095D02*
X149961562Y-85719095D01*
X149961562Y-85719095D02*
X149885371Y-85833380D01*
X149885371Y-85833380D02*
X149809181Y-85909571D01*
X149809181Y-85909571D02*
X149732990Y-85947666D01*
X148304267Y-112071495D02*
X148037600Y-111690542D01*
X147847124Y-112071495D02*
X147847124Y-111271495D01*
X147847124Y-111271495D02*
X148151886Y-111271495D01*
X148151886Y-111271495D02*
X148228076Y-111309590D01*
X148228076Y-111309590D02*
X148266171Y-111347685D01*
X148266171Y-111347685D02*
X148304267Y-111423876D01*
X148304267Y-111423876D02*
X148304267Y-111538161D01*
X148304267Y-111538161D02*
X148266171Y-111614352D01*
X148266171Y-111614352D02*
X148228076Y-111652447D01*
X148228076Y-111652447D02*
X148151886Y-111690542D01*
X148151886Y-111690542D02*
X147847124Y-111690542D01*
X148570933Y-111271495D02*
X149104267Y-111271495D01*
X149104267Y-111271495D02*
X148761409Y-112071495D01*
X152647714Y-107905895D02*
X152381047Y-107524942D01*
X152190571Y-107905895D02*
X152190571Y-107105895D01*
X152190571Y-107105895D02*
X152495333Y-107105895D01*
X152495333Y-107105895D02*
X152571523Y-107143990D01*
X152571523Y-107143990D02*
X152609618Y-107182085D01*
X152609618Y-107182085D02*
X152647714Y-107258276D01*
X152647714Y-107258276D02*
X152647714Y-107372561D01*
X152647714Y-107372561D02*
X152609618Y-107448752D01*
X152609618Y-107448752D02*
X152571523Y-107486847D01*
X152571523Y-107486847D02*
X152495333Y-107524942D01*
X152495333Y-107524942D02*
X152190571Y-107524942D01*
X153409618Y-107905895D02*
X152952475Y-107905895D01*
X153181047Y-107905895D02*
X153181047Y-107105895D01*
X153181047Y-107105895D02*
X153104856Y-107220180D01*
X153104856Y-107220180D02*
X153028666Y-107296371D01*
X153028666Y-107296371D02*
X152952475Y-107334466D01*
X153904857Y-107105895D02*
X153981047Y-107105895D01*
X153981047Y-107105895D02*
X154057238Y-107143990D01*
X154057238Y-107143990D02*
X154095333Y-107182085D01*
X154095333Y-107182085D02*
X154133428Y-107258276D01*
X154133428Y-107258276D02*
X154171523Y-107410657D01*
X154171523Y-107410657D02*
X154171523Y-107601133D01*
X154171523Y-107601133D02*
X154133428Y-107753514D01*
X154133428Y-107753514D02*
X154095333Y-107829704D01*
X154095333Y-107829704D02*
X154057238Y-107867800D01*
X154057238Y-107867800D02*
X153981047Y-107905895D01*
X153981047Y-107905895D02*
X153904857Y-107905895D01*
X153904857Y-107905895D02*
X153828666Y-107867800D01*
X153828666Y-107867800D02*
X153790571Y-107829704D01*
X153790571Y-107829704D02*
X153752476Y-107753514D01*
X153752476Y-107753514D02*
X153714380Y-107601133D01*
X153714380Y-107601133D02*
X153714380Y-107410657D01*
X153714380Y-107410657D02*
X153752476Y-107258276D01*
X153752476Y-107258276D02*
X153790571Y-107182085D01*
X153790571Y-107182085D02*
X153828666Y-107143990D01*
X153828666Y-107143990D02*
X153904857Y-107105895D01*
X107931048Y-110420495D02*
X107931048Y-109620495D01*
X108769143Y-110344304D02*
X108731047Y-110382400D01*
X108731047Y-110382400D02*
X108616762Y-110420495D01*
X108616762Y-110420495D02*
X108540571Y-110420495D01*
X108540571Y-110420495D02*
X108426285Y-110382400D01*
X108426285Y-110382400D02*
X108350095Y-110306209D01*
X108350095Y-110306209D02*
X108312000Y-110230019D01*
X108312000Y-110230019D02*
X108273904Y-110077638D01*
X108273904Y-110077638D02*
X108273904Y-109963352D01*
X108273904Y-109963352D02*
X108312000Y-109810971D01*
X108312000Y-109810971D02*
X108350095Y-109734780D01*
X108350095Y-109734780D02*
X108426285Y-109658590D01*
X108426285Y-109658590D02*
X108540571Y-109620495D01*
X108540571Y-109620495D02*
X108616762Y-109620495D01*
X108616762Y-109620495D02*
X108731047Y-109658590D01*
X108731047Y-109658590D02*
X108769143Y-109696685D01*
X109531047Y-110420495D02*
X109073904Y-110420495D01*
X109302476Y-110420495D02*
X109302476Y-109620495D01*
X109302476Y-109620495D02*
X109226285Y-109734780D01*
X109226285Y-109734780D02*
X109150095Y-109810971D01*
X109150095Y-109810971D02*
X109073904Y-109849066D01*
X106749867Y-119869304D02*
X106711771Y-119907400D01*
X106711771Y-119907400D02*
X106597486Y-119945495D01*
X106597486Y-119945495D02*
X106521295Y-119945495D01*
X106521295Y-119945495D02*
X106407009Y-119907400D01*
X106407009Y-119907400D02*
X106330819Y-119831209D01*
X106330819Y-119831209D02*
X106292724Y-119755019D01*
X106292724Y-119755019D02*
X106254628Y-119602638D01*
X106254628Y-119602638D02*
X106254628Y-119488352D01*
X106254628Y-119488352D02*
X106292724Y-119335971D01*
X106292724Y-119335971D02*
X106330819Y-119259780D01*
X106330819Y-119259780D02*
X106407009Y-119183590D01*
X106407009Y-119183590D02*
X106521295Y-119145495D01*
X106521295Y-119145495D02*
X106597486Y-119145495D01*
X106597486Y-119145495D02*
X106711771Y-119183590D01*
X106711771Y-119183590D02*
X106749867Y-119221685D01*
X107435581Y-119412161D02*
X107435581Y-119945495D01*
X107245105Y-119107400D02*
X107054628Y-119678828D01*
X107054628Y-119678828D02*
X107549867Y-119678828D01*
X112763333Y-118511895D02*
X112763333Y-119083323D01*
X112763333Y-119083323D02*
X112725238Y-119197609D01*
X112725238Y-119197609D02*
X112649047Y-119273800D01*
X112649047Y-119273800D02*
X112534762Y-119311895D01*
X112534762Y-119311895D02*
X112458571Y-119311895D01*
X113525238Y-118511895D02*
X113144286Y-118511895D01*
X113144286Y-118511895D02*
X113106190Y-118892847D01*
X113106190Y-118892847D02*
X113144286Y-118854752D01*
X113144286Y-118854752D02*
X113220476Y-118816657D01*
X113220476Y-118816657D02*
X113410952Y-118816657D01*
X113410952Y-118816657D02*
X113487143Y-118854752D01*
X113487143Y-118854752D02*
X113525238Y-118892847D01*
X113525238Y-118892847D02*
X113563333Y-118969038D01*
X113563333Y-118969038D02*
X113563333Y-119159514D01*
X113563333Y-119159514D02*
X113525238Y-119235704D01*
X113525238Y-119235704D02*
X113487143Y-119273800D01*
X113487143Y-119273800D02*
X113410952Y-119311895D01*
X113410952Y-119311895D02*
X113220476Y-119311895D01*
X113220476Y-119311895D02*
X113144286Y-119273800D01*
X113144286Y-119273800D02*
X113106190Y-119235704D01*
X145002267Y-112122295D02*
X144735600Y-111741342D01*
X144545124Y-112122295D02*
X144545124Y-111322295D01*
X144545124Y-111322295D02*
X144849886Y-111322295D01*
X144849886Y-111322295D02*
X144926076Y-111360390D01*
X144926076Y-111360390D02*
X144964171Y-111398485D01*
X144964171Y-111398485D02*
X145002267Y-111474676D01*
X145002267Y-111474676D02*
X145002267Y-111588961D01*
X145002267Y-111588961D02*
X144964171Y-111665152D01*
X144964171Y-111665152D02*
X144926076Y-111703247D01*
X144926076Y-111703247D02*
X144849886Y-111741342D01*
X144849886Y-111741342D02*
X144545124Y-111741342D01*
X145383219Y-112122295D02*
X145535600Y-112122295D01*
X145535600Y-112122295D02*
X145611790Y-112084200D01*
X145611790Y-112084200D02*
X145649886Y-112046104D01*
X145649886Y-112046104D02*
X145726076Y-111931819D01*
X145726076Y-111931819D02*
X145764171Y-111779438D01*
X145764171Y-111779438D02*
X145764171Y-111474676D01*
X145764171Y-111474676D02*
X145726076Y-111398485D01*
X145726076Y-111398485D02*
X145687981Y-111360390D01*
X145687981Y-111360390D02*
X145611790Y-111322295D01*
X145611790Y-111322295D02*
X145459409Y-111322295D01*
X145459409Y-111322295D02*
X145383219Y-111360390D01*
X145383219Y-111360390D02*
X145345124Y-111398485D01*
X145345124Y-111398485D02*
X145307028Y-111474676D01*
X145307028Y-111474676D02*
X145307028Y-111665152D01*
X145307028Y-111665152D02*
X145345124Y-111741342D01*
X145345124Y-111741342D02*
X145383219Y-111779438D01*
X145383219Y-111779438D02*
X145459409Y-111817533D01*
X145459409Y-111817533D02*
X145611790Y-111817533D01*
X145611790Y-111817533D02*
X145687981Y-111779438D01*
X145687981Y-111779438D02*
X145726076Y-111741342D01*
X145726076Y-111741342D02*
X145764171Y-111665152D01*
X148355067Y-90887895D02*
X148088400Y-90506942D01*
X147897924Y-90887895D02*
X147897924Y-90087895D01*
X147897924Y-90087895D02*
X148202686Y-90087895D01*
X148202686Y-90087895D02*
X148278876Y-90125990D01*
X148278876Y-90125990D02*
X148316971Y-90164085D01*
X148316971Y-90164085D02*
X148355067Y-90240276D01*
X148355067Y-90240276D02*
X148355067Y-90354561D01*
X148355067Y-90354561D02*
X148316971Y-90430752D01*
X148316971Y-90430752D02*
X148278876Y-90468847D01*
X148278876Y-90468847D02*
X148202686Y-90506942D01*
X148202686Y-90506942D02*
X147897924Y-90506942D01*
X149078876Y-90087895D02*
X148697924Y-90087895D01*
X148697924Y-90087895D02*
X148659828Y-90468847D01*
X148659828Y-90468847D02*
X148697924Y-90430752D01*
X148697924Y-90430752D02*
X148774114Y-90392657D01*
X148774114Y-90392657D02*
X148964590Y-90392657D01*
X148964590Y-90392657D02*
X149040781Y-90430752D01*
X149040781Y-90430752D02*
X149078876Y-90468847D01*
X149078876Y-90468847D02*
X149116971Y-90545038D01*
X149116971Y-90545038D02*
X149116971Y-90735514D01*
X149116971Y-90735514D02*
X149078876Y-90811704D01*
X149078876Y-90811704D02*
X149040781Y-90849800D01*
X149040781Y-90849800D02*
X148964590Y-90887895D01*
X148964590Y-90887895D02*
X148774114Y-90887895D01*
X148774114Y-90887895D02*
X148697924Y-90849800D01*
X148697924Y-90849800D02*
X148659828Y-90811704D01*
X116986114Y-91642295D02*
X116719447Y-91261342D01*
X116528971Y-91642295D02*
X116528971Y-90842295D01*
X116528971Y-90842295D02*
X116833733Y-90842295D01*
X116833733Y-90842295D02*
X116909923Y-90880390D01*
X116909923Y-90880390D02*
X116948018Y-90918485D01*
X116948018Y-90918485D02*
X116986114Y-90994676D01*
X116986114Y-90994676D02*
X116986114Y-91108961D01*
X116986114Y-91108961D02*
X116948018Y-91185152D01*
X116948018Y-91185152D02*
X116909923Y-91223247D01*
X116909923Y-91223247D02*
X116833733Y-91261342D01*
X116833733Y-91261342D02*
X116528971Y-91261342D01*
X117748018Y-91642295D02*
X117290875Y-91642295D01*
X117519447Y-91642295D02*
X117519447Y-90842295D01*
X117519447Y-90842295D02*
X117443256Y-90956580D01*
X117443256Y-90956580D02*
X117367066Y-91032771D01*
X117367066Y-91032771D02*
X117290875Y-91070866D01*
X118014685Y-90842295D02*
X118509923Y-90842295D01*
X118509923Y-90842295D02*
X118243257Y-91147057D01*
X118243257Y-91147057D02*
X118357542Y-91147057D01*
X118357542Y-91147057D02*
X118433733Y-91185152D01*
X118433733Y-91185152D02*
X118471828Y-91223247D01*
X118471828Y-91223247D02*
X118509923Y-91299438D01*
X118509923Y-91299438D02*
X118509923Y-91489914D01*
X118509923Y-91489914D02*
X118471828Y-91566104D01*
X118471828Y-91566104D02*
X118433733Y-91604200D01*
X118433733Y-91604200D02*
X118357542Y-91642295D01*
X118357542Y-91642295D02*
X118128971Y-91642295D01*
X118128971Y-91642295D02*
X118052780Y-91604200D01*
X118052780Y-91604200D02*
X118014685Y-91566104D01*
X139384210Y-109471619D02*
X139384210Y-108471619D01*
X140431828Y-109376380D02*
X140384209Y-109424000D01*
X140384209Y-109424000D02*
X140241352Y-109471619D01*
X140241352Y-109471619D02*
X140146114Y-109471619D01*
X140146114Y-109471619D02*
X140003257Y-109424000D01*
X140003257Y-109424000D02*
X139908019Y-109328761D01*
X139908019Y-109328761D02*
X139860400Y-109233523D01*
X139860400Y-109233523D02*
X139812781Y-109043047D01*
X139812781Y-109043047D02*
X139812781Y-108900190D01*
X139812781Y-108900190D02*
X139860400Y-108709714D01*
X139860400Y-108709714D02*
X139908019Y-108614476D01*
X139908019Y-108614476D02*
X140003257Y-108519238D01*
X140003257Y-108519238D02*
X140146114Y-108471619D01*
X140146114Y-108471619D02*
X140241352Y-108471619D01*
X140241352Y-108471619D02*
X140384209Y-108519238D01*
X140384209Y-108519238D02*
X140431828Y-108566857D01*
X141288971Y-108804952D02*
X141288971Y-109471619D01*
X141050876Y-108424000D02*
X140812781Y-109138285D01*
X140812781Y-109138285D02*
X141431828Y-109138285D01*
X133745410Y-103883619D02*
X133745410Y-102883619D01*
X134793028Y-103788380D02*
X134745409Y-103836000D01*
X134745409Y-103836000D02*
X134602552Y-103883619D01*
X134602552Y-103883619D02*
X134507314Y-103883619D01*
X134507314Y-103883619D02*
X134364457Y-103836000D01*
X134364457Y-103836000D02*
X134269219Y-103740761D01*
X134269219Y-103740761D02*
X134221600Y-103645523D01*
X134221600Y-103645523D02*
X134173981Y-103455047D01*
X134173981Y-103455047D02*
X134173981Y-103312190D01*
X134173981Y-103312190D02*
X134221600Y-103121714D01*
X134221600Y-103121714D02*
X134269219Y-103026476D01*
X134269219Y-103026476D02*
X134364457Y-102931238D01*
X134364457Y-102931238D02*
X134507314Y-102883619D01*
X134507314Y-102883619D02*
X134602552Y-102883619D01*
X134602552Y-102883619D02*
X134745409Y-102931238D01*
X134745409Y-102931238D02*
X134793028Y-102978857D01*
X135126362Y-102883619D02*
X135745409Y-102883619D01*
X135745409Y-102883619D02*
X135412076Y-103264571D01*
X135412076Y-103264571D02*
X135554933Y-103264571D01*
X135554933Y-103264571D02*
X135650171Y-103312190D01*
X135650171Y-103312190D02*
X135697790Y-103359809D01*
X135697790Y-103359809D02*
X135745409Y-103455047D01*
X135745409Y-103455047D02*
X135745409Y-103693142D01*
X135745409Y-103693142D02*
X135697790Y-103788380D01*
X135697790Y-103788380D02*
X135650171Y-103836000D01*
X135650171Y-103836000D02*
X135554933Y-103883619D01*
X135554933Y-103883619D02*
X135269219Y-103883619D01*
X135269219Y-103883619D02*
X135173981Y-103836000D01*
X135173981Y-103836000D02*
X135126362Y-103788380D01*
X120516724Y-86569895D02*
X120516724Y-85769895D01*
X120516724Y-85769895D02*
X120707200Y-85769895D01*
X120707200Y-85769895D02*
X120821486Y-85807990D01*
X120821486Y-85807990D02*
X120897676Y-85884180D01*
X120897676Y-85884180D02*
X120935771Y-85960371D01*
X120935771Y-85960371D02*
X120973867Y-86112752D01*
X120973867Y-86112752D02*
X120973867Y-86227038D01*
X120973867Y-86227038D02*
X120935771Y-86379419D01*
X120935771Y-86379419D02*
X120897676Y-86455609D01*
X120897676Y-86455609D02*
X120821486Y-86531800D01*
X120821486Y-86531800D02*
X120707200Y-86569895D01*
X120707200Y-86569895D02*
X120516724Y-86569895D01*
X121735771Y-86569895D02*
X121278628Y-86569895D01*
X121507200Y-86569895D02*
X121507200Y-85769895D01*
X121507200Y-85769895D02*
X121431009Y-85884180D01*
X121431009Y-85884180D02*
X121354819Y-85960371D01*
X121354819Y-85960371D02*
X121278628Y-85998466D01*
X149726667Y-107905895D02*
X149460000Y-107524942D01*
X149269524Y-107905895D02*
X149269524Y-107105895D01*
X149269524Y-107105895D02*
X149574286Y-107105895D01*
X149574286Y-107105895D02*
X149650476Y-107143990D01*
X149650476Y-107143990D02*
X149688571Y-107182085D01*
X149688571Y-107182085D02*
X149726667Y-107258276D01*
X149726667Y-107258276D02*
X149726667Y-107372561D01*
X149726667Y-107372561D02*
X149688571Y-107448752D01*
X149688571Y-107448752D02*
X149650476Y-107486847D01*
X149650476Y-107486847D02*
X149574286Y-107524942D01*
X149574286Y-107524942D02*
X149269524Y-107524942D01*
X150412381Y-107105895D02*
X150260000Y-107105895D01*
X150260000Y-107105895D02*
X150183809Y-107143990D01*
X150183809Y-107143990D02*
X150145714Y-107182085D01*
X150145714Y-107182085D02*
X150069524Y-107296371D01*
X150069524Y-107296371D02*
X150031428Y-107448752D01*
X150031428Y-107448752D02*
X150031428Y-107753514D01*
X150031428Y-107753514D02*
X150069524Y-107829704D01*
X150069524Y-107829704D02*
X150107619Y-107867800D01*
X150107619Y-107867800D02*
X150183809Y-107905895D01*
X150183809Y-107905895D02*
X150336190Y-107905895D01*
X150336190Y-107905895D02*
X150412381Y-107867800D01*
X150412381Y-107867800D02*
X150450476Y-107829704D01*
X150450476Y-107829704D02*
X150488571Y-107753514D01*
X150488571Y-107753514D02*
X150488571Y-107563038D01*
X150488571Y-107563038D02*
X150450476Y-107486847D01*
X150450476Y-107486847D02*
X150412381Y-107448752D01*
X150412381Y-107448752D02*
X150336190Y-107410657D01*
X150336190Y-107410657D02*
X150183809Y-107410657D01*
X150183809Y-107410657D02*
X150107619Y-107448752D01*
X150107619Y-107448752D02*
X150069524Y-107486847D01*
X150069524Y-107486847D02*
X150031428Y-107563038D01*
X156707010Y-110690819D02*
X156707010Y-109690819D01*
X157754628Y-110595580D02*
X157707009Y-110643200D01*
X157707009Y-110643200D02*
X157564152Y-110690819D01*
X157564152Y-110690819D02*
X157468914Y-110690819D01*
X157468914Y-110690819D02*
X157326057Y-110643200D01*
X157326057Y-110643200D02*
X157230819Y-110547961D01*
X157230819Y-110547961D02*
X157183200Y-110452723D01*
X157183200Y-110452723D02*
X157135581Y-110262247D01*
X157135581Y-110262247D02*
X157135581Y-110119390D01*
X157135581Y-110119390D02*
X157183200Y-109928914D01*
X157183200Y-109928914D02*
X157230819Y-109833676D01*
X157230819Y-109833676D02*
X157326057Y-109738438D01*
X157326057Y-109738438D02*
X157468914Y-109690819D01*
X157468914Y-109690819D02*
X157564152Y-109690819D01*
X157564152Y-109690819D02*
X157707009Y-109738438D01*
X157707009Y-109738438D02*
X157754628Y-109786057D01*
X158659390Y-109690819D02*
X158183200Y-109690819D01*
X158183200Y-109690819D02*
X158135581Y-110167009D01*
X158135581Y-110167009D02*
X158183200Y-110119390D01*
X158183200Y-110119390D02*
X158278438Y-110071771D01*
X158278438Y-110071771D02*
X158516533Y-110071771D01*
X158516533Y-110071771D02*
X158611771Y-110119390D01*
X158611771Y-110119390D02*
X158659390Y-110167009D01*
X158659390Y-110167009D02*
X158707009Y-110262247D01*
X158707009Y-110262247D02*
X158707009Y-110500342D01*
X158707009Y-110500342D02*
X158659390Y-110595580D01*
X158659390Y-110595580D02*
X158611771Y-110643200D01*
X158611771Y-110643200D02*
X158516533Y-110690819D01*
X158516533Y-110690819D02*
X158278438Y-110690819D01*
X158278438Y-110690819D02*
X158183200Y-110643200D01*
X158183200Y-110643200D02*
X158135581Y-110595580D01*
X132861067Y-112604904D02*
X132822971Y-112643000D01*
X132822971Y-112643000D02*
X132708686Y-112681095D01*
X132708686Y-112681095D02*
X132632495Y-112681095D01*
X132632495Y-112681095D02*
X132518209Y-112643000D01*
X132518209Y-112643000D02*
X132442019Y-112566809D01*
X132442019Y-112566809D02*
X132403924Y-112490619D01*
X132403924Y-112490619D02*
X132365828Y-112338238D01*
X132365828Y-112338238D02*
X132365828Y-112223952D01*
X132365828Y-112223952D02*
X132403924Y-112071571D01*
X132403924Y-112071571D02*
X132442019Y-111995380D01*
X132442019Y-111995380D02*
X132518209Y-111919190D01*
X132518209Y-111919190D02*
X132632495Y-111881095D01*
X132632495Y-111881095D02*
X132708686Y-111881095D01*
X132708686Y-111881095D02*
X132822971Y-111919190D01*
X132822971Y-111919190D02*
X132861067Y-111957285D01*
X133127733Y-111881095D02*
X133622971Y-111881095D01*
X133622971Y-111881095D02*
X133356305Y-112185857D01*
X133356305Y-112185857D02*
X133470590Y-112185857D01*
X133470590Y-112185857D02*
X133546781Y-112223952D01*
X133546781Y-112223952D02*
X133584876Y-112262047D01*
X133584876Y-112262047D02*
X133622971Y-112338238D01*
X133622971Y-112338238D02*
X133622971Y-112528714D01*
X133622971Y-112528714D02*
X133584876Y-112604904D01*
X133584876Y-112604904D02*
X133546781Y-112643000D01*
X133546781Y-112643000D02*
X133470590Y-112681095D01*
X133470590Y-112681095D02*
X133242019Y-112681095D01*
X133242019Y-112681095D02*
X133165828Y-112643000D01*
X133165828Y-112643000D02*
X133127733Y-112604904D01*
X147555048Y-95811495D02*
X147555048Y-95011495D01*
X148393143Y-95735304D02*
X148355047Y-95773400D01*
X148355047Y-95773400D02*
X148240762Y-95811495D01*
X148240762Y-95811495D02*
X148164571Y-95811495D01*
X148164571Y-95811495D02*
X148050285Y-95773400D01*
X148050285Y-95773400D02*
X147974095Y-95697209D01*
X147974095Y-95697209D02*
X147936000Y-95621019D01*
X147936000Y-95621019D02*
X147897904Y-95468638D01*
X147897904Y-95468638D02*
X147897904Y-95354352D01*
X147897904Y-95354352D02*
X147936000Y-95201971D01*
X147936000Y-95201971D02*
X147974095Y-95125780D01*
X147974095Y-95125780D02*
X148050285Y-95049590D01*
X148050285Y-95049590D02*
X148164571Y-95011495D01*
X148164571Y-95011495D02*
X148240762Y-95011495D01*
X148240762Y-95011495D02*
X148355047Y-95049590D01*
X148355047Y-95049590D02*
X148393143Y-95087685D01*
X148697904Y-95087685D02*
X148736000Y-95049590D01*
X148736000Y-95049590D02*
X148812190Y-95011495D01*
X148812190Y-95011495D02*
X149002666Y-95011495D01*
X149002666Y-95011495D02*
X149078857Y-95049590D01*
X149078857Y-95049590D02*
X149116952Y-95087685D01*
X149116952Y-95087685D02*
X149155047Y-95163876D01*
X149155047Y-95163876D02*
X149155047Y-95240066D01*
X149155047Y-95240066D02*
X149116952Y-95354352D01*
X149116952Y-95354352D02*
X148659809Y-95811495D01*
X148659809Y-95811495D02*
X149155047Y-95811495D01*
X112102933Y-85769895D02*
X112102933Y-86341323D01*
X112102933Y-86341323D02*
X112064838Y-86455609D01*
X112064838Y-86455609D02*
X111988647Y-86531800D01*
X111988647Y-86531800D02*
X111874362Y-86569895D01*
X111874362Y-86569895D02*
X111798171Y-86569895D01*
X112445790Y-85846085D02*
X112483886Y-85807990D01*
X112483886Y-85807990D02*
X112560076Y-85769895D01*
X112560076Y-85769895D02*
X112750552Y-85769895D01*
X112750552Y-85769895D02*
X112826743Y-85807990D01*
X112826743Y-85807990D02*
X112864838Y-85846085D01*
X112864838Y-85846085D02*
X112902933Y-85922276D01*
X112902933Y-85922276D02*
X112902933Y-85998466D01*
X112902933Y-85998466D02*
X112864838Y-86112752D01*
X112864838Y-86112752D02*
X112407695Y-86569895D01*
X112407695Y-86569895D02*
X112902933Y-86569895D01*
X109797867Y-119869304D02*
X109759771Y-119907400D01*
X109759771Y-119907400D02*
X109645486Y-119945495D01*
X109645486Y-119945495D02*
X109569295Y-119945495D01*
X109569295Y-119945495D02*
X109455009Y-119907400D01*
X109455009Y-119907400D02*
X109378819Y-119831209D01*
X109378819Y-119831209D02*
X109340724Y-119755019D01*
X109340724Y-119755019D02*
X109302628Y-119602638D01*
X109302628Y-119602638D02*
X109302628Y-119488352D01*
X109302628Y-119488352D02*
X109340724Y-119335971D01*
X109340724Y-119335971D02*
X109378819Y-119259780D01*
X109378819Y-119259780D02*
X109455009Y-119183590D01*
X109455009Y-119183590D02*
X109569295Y-119145495D01*
X109569295Y-119145495D02*
X109645486Y-119145495D01*
X109645486Y-119145495D02*
X109759771Y-119183590D01*
X109759771Y-119183590D02*
X109797867Y-119221685D01*
X110102628Y-119221685D02*
X110140724Y-119183590D01*
X110140724Y-119183590D02*
X110216914Y-119145495D01*
X110216914Y-119145495D02*
X110407390Y-119145495D01*
X110407390Y-119145495D02*
X110483581Y-119183590D01*
X110483581Y-119183590D02*
X110521676Y-119221685D01*
X110521676Y-119221685D02*
X110559771Y-119297876D01*
X110559771Y-119297876D02*
X110559771Y-119374066D01*
X110559771Y-119374066D02*
X110521676Y-119488352D01*
X110521676Y-119488352D02*
X110064533Y-119945495D01*
X110064533Y-119945495D02*
X110559771Y-119945495D01*
X146577067Y-107905895D02*
X146310400Y-107524942D01*
X146119924Y-107905895D02*
X146119924Y-107105895D01*
X146119924Y-107105895D02*
X146424686Y-107105895D01*
X146424686Y-107105895D02*
X146500876Y-107143990D01*
X146500876Y-107143990D02*
X146538971Y-107182085D01*
X146538971Y-107182085D02*
X146577067Y-107258276D01*
X146577067Y-107258276D02*
X146577067Y-107372561D01*
X146577067Y-107372561D02*
X146538971Y-107448752D01*
X146538971Y-107448752D02*
X146500876Y-107486847D01*
X146500876Y-107486847D02*
X146424686Y-107524942D01*
X146424686Y-107524942D02*
X146119924Y-107524942D01*
X147034209Y-107448752D02*
X146958019Y-107410657D01*
X146958019Y-107410657D02*
X146919924Y-107372561D01*
X146919924Y-107372561D02*
X146881828Y-107296371D01*
X146881828Y-107296371D02*
X146881828Y-107258276D01*
X146881828Y-107258276D02*
X146919924Y-107182085D01*
X146919924Y-107182085D02*
X146958019Y-107143990D01*
X146958019Y-107143990D02*
X147034209Y-107105895D01*
X147034209Y-107105895D02*
X147186590Y-107105895D01*
X147186590Y-107105895D02*
X147262781Y-107143990D01*
X147262781Y-107143990D02*
X147300876Y-107182085D01*
X147300876Y-107182085D02*
X147338971Y-107258276D01*
X147338971Y-107258276D02*
X147338971Y-107296371D01*
X147338971Y-107296371D02*
X147300876Y-107372561D01*
X147300876Y-107372561D02*
X147262781Y-107410657D01*
X147262781Y-107410657D02*
X147186590Y-107448752D01*
X147186590Y-107448752D02*
X147034209Y-107448752D01*
X147034209Y-107448752D02*
X146958019Y-107486847D01*
X146958019Y-107486847D02*
X146919924Y-107524942D01*
X146919924Y-107524942D02*
X146881828Y-107601133D01*
X146881828Y-107601133D02*
X146881828Y-107753514D01*
X146881828Y-107753514D02*
X146919924Y-107829704D01*
X146919924Y-107829704D02*
X146958019Y-107867800D01*
X146958019Y-107867800D02*
X147034209Y-107905895D01*
X147034209Y-107905895D02*
X147186590Y-107905895D01*
X147186590Y-107905895D02*
X147262781Y-107867800D01*
X147262781Y-107867800D02*
X147300876Y-107829704D01*
X147300876Y-107829704D02*
X147338971Y-107753514D01*
X147338971Y-107753514D02*
X147338971Y-107601133D01*
X147338971Y-107601133D02*
X147300876Y-107524942D01*
X147300876Y-107524942D02*
X147262781Y-107486847D01*
X147262781Y-107486847D02*
X147186590Y-107448752D01*
D12*
%TO.C,R12*%
X155382700Y-99533942D02*
X155382700Y-100008458D01*
X156427700Y-99533942D02*
X156427700Y-100008458D01*
%TO.C,R11*%
X150963100Y-109711258D02*
X150963100Y-109236742D01*
X152008100Y-109711258D02*
X152008100Y-109236742D01*
%TO.C,R1*%
X129627100Y-100626142D02*
X129627100Y-101100658D01*
X130672100Y-100626142D02*
X130672100Y-101100658D01*
%TO.C,J4*%
X123853935Y-90618206D02*
X123853935Y-93278206D01*
X123853935Y-93278206D02*
X139213935Y-93278206D01*
X123913935Y-98528206D02*
X123913935Y-97258206D01*
X124803935Y-93675277D02*
X124803935Y-93278206D01*
X124803935Y-96148206D02*
X124803935Y-95761135D01*
X125183935Y-98528206D02*
X123913935Y-98528206D01*
X125563935Y-93675277D02*
X125563935Y-93278206D01*
X125563935Y-96148206D02*
X125563935Y-95761135D01*
X126453935Y-93278206D02*
X126453935Y-90618206D01*
X127343935Y-93675277D02*
X127343935Y-93278206D01*
X127343935Y-96215277D02*
X127343935Y-95761135D01*
X128103935Y-93675277D02*
X128103935Y-93278206D01*
X128103935Y-96215277D02*
X128103935Y-95761135D01*
X128993935Y-93278206D02*
X128993935Y-90618206D01*
X129883935Y-93675277D02*
X129883935Y-93278206D01*
X129883935Y-96215277D02*
X129883935Y-95761135D01*
X130643935Y-93675277D02*
X130643935Y-93278206D01*
X130643935Y-96215277D02*
X130643935Y-95761135D01*
X131533935Y-93278206D02*
X131533935Y-90618206D01*
X132423935Y-93675277D02*
X132423935Y-93278206D01*
X132423935Y-96215277D02*
X132423935Y-95761135D01*
X133183935Y-93675277D02*
X133183935Y-93278206D01*
X133183935Y-96215277D02*
X133183935Y-95761135D01*
X134073935Y-93278206D02*
X134073935Y-90618206D01*
X134963935Y-93675277D02*
X134963935Y-93278206D01*
X134963935Y-96215277D02*
X134963935Y-95761135D01*
X135723935Y-93675277D02*
X135723935Y-93278206D01*
X135723935Y-96215277D02*
X135723935Y-95761135D01*
X136613935Y-93278206D02*
X136613935Y-90618206D01*
X137503935Y-93675277D02*
X137503935Y-93278206D01*
X137503935Y-96215277D02*
X137503935Y-95761135D01*
X138263935Y-93675277D02*
X138263935Y-93278206D01*
X138263935Y-96215277D02*
X138263935Y-95761135D01*
X139213935Y-90618206D02*
X123853935Y-90618206D01*
X139213935Y-93278206D02*
X139213935Y-90618206D01*
%TO.C,R4*%
X145375100Y-92511342D02*
X145375100Y-92985858D01*
X146420100Y-92511342D02*
X146420100Y-92985858D01*
%TO.C,JP3*%
X155074400Y-103170000D02*
X155074400Y-102570000D01*
X155724400Y-101870000D02*
X158524400Y-101870000D01*
X158524400Y-103870000D02*
X155724400Y-103870000D01*
X159174400Y-102570000D02*
X159174400Y-103170000D01*
X155074400Y-102570000D02*
G75*
G02*
X155774400Y-101870000I700000J0D01*
G01*
X155774400Y-103870000D02*
G75*
G02*
X155074400Y-103170000I0J700000D01*
G01*
X158474400Y-101870000D02*
G75*
G02*
X159174400Y-102570000I1J-699999D01*
G01*
X159174400Y-103170000D02*
G75*
G02*
X158474400Y-103870000I-699999J-1D01*
G01*
%TO.C,R2*%
X127277500Y-100612742D02*
X127277500Y-101087258D01*
X128322500Y-100612742D02*
X128322500Y-101087258D01*
%TO.C,U1*%
X118924800Y-94477400D02*
X120444800Y-94477400D01*
X118924800Y-94527400D02*
X118924800Y-94477400D01*
X118924800Y-96427400D02*
X118924800Y-95647400D01*
X118924800Y-97597400D02*
X118924800Y-97547400D01*
X120444800Y-94477400D02*
X120444800Y-95477400D01*
X120444800Y-96597400D02*
X120444800Y-97597400D01*
X120444800Y-97597400D02*
X118924800Y-97597400D01*
X118624800Y-95987400D02*
X118144800Y-95987400D01*
X118384800Y-95657400D01*
X118624800Y-95987400D01*
G36*
X118624800Y-95987400D02*
G01*
X118144800Y-95987400D01*
X118384800Y-95657400D01*
X118624800Y-95987400D01*
G37*
%TO.C,U2*%
X117990000Y-99440000D02*
X119510000Y-99440000D01*
X117990000Y-100440000D02*
X117990000Y-99440000D01*
X117990000Y-102560000D02*
X117990000Y-101560000D01*
X119510000Y-99440000D02*
X119510000Y-99490000D01*
X119510000Y-100610000D02*
X119510000Y-101390000D01*
X119510000Y-102510000D02*
X119510000Y-102560000D01*
X119510000Y-102560000D02*
X117990000Y-102560000D01*
X120050000Y-101380000D02*
X119810000Y-101050000D01*
X120290000Y-101050000D01*
X120050000Y-101380000D01*
G36*
X120050000Y-101380000D02*
G01*
X119810000Y-101050000D01*
X120290000Y-101050000D01*
X120050000Y-101380000D01*
G37*
D11*
%TO.C,J3*%
X101850200Y-93199600D02*
X101850200Y-108679600D01*
X101850200Y-108679600D02*
X110900200Y-108679600D01*
X110875200Y-93199600D02*
X101850200Y-93199600D01*
X110875200Y-95664600D02*
X110875200Y-93199600D01*
X110875200Y-95664600D02*
X111175200Y-95664600D01*
X110875200Y-96714600D02*
X110875200Y-97979600D01*
X110875200Y-97979600D02*
X111475200Y-97979600D01*
X110900200Y-98819600D02*
X110900200Y-100414600D01*
X110900200Y-100414600D02*
X111050200Y-100414600D01*
X110900200Y-101464600D02*
X110900200Y-103039600D01*
X110900200Y-103059600D02*
X111475200Y-103059600D01*
X110900200Y-103899600D02*
X111475200Y-103899600D01*
X110900200Y-105164600D02*
X110900200Y-103899600D01*
X110900200Y-106214600D02*
X111150200Y-106214600D01*
X110900200Y-108679600D02*
X110900200Y-106214600D01*
X111050200Y-101464600D02*
X110900200Y-101464600D01*
X111150200Y-105164600D02*
X110900200Y-105164600D01*
X111150200Y-106214600D02*
X111150200Y-105164600D01*
X111175200Y-95664600D02*
X111175200Y-96714600D01*
X111175200Y-96714600D02*
X110875200Y-96714600D01*
X111475200Y-98819600D02*
X110900200Y-98819600D01*
X115475200Y-104849600D02*
G75*
G02*
X115275200Y-104849600I-100000J0D01*
G01*
X115275200Y-104849600D02*
G75*
G02*
X115475200Y-104849600I100000J0D01*
G01*
D12*
%TO.C,R3*%
X143089100Y-92511342D02*
X143089100Y-92985858D01*
X144134100Y-92511342D02*
X144134100Y-92985858D01*
%TO.C,C1*%
X156425020Y-96721200D02*
X156706180Y-96721200D01*
X156425020Y-97741200D02*
X156706180Y-97741200D01*
%TO.C,J1*%
X143030935Y-87610000D02*
X143030935Y-86280000D01*
X144360935Y-87610000D02*
X143030935Y-87610000D01*
X145630935Y-84950000D02*
X148230935Y-84950000D01*
X145630935Y-87610000D02*
X145630935Y-84950000D01*
X145630935Y-87610000D02*
X148230935Y-87610000D01*
X148230935Y-87610000D02*
X148230935Y-84950000D01*
%TO.C,R7*%
X147813500Y-109711258D02*
X147813500Y-109236742D01*
X148858500Y-109711258D02*
X148858500Y-109236742D01*
%TO.C,R10*%
X152537900Y-109711258D02*
X152537900Y-109236742D01*
X153582900Y-109711258D02*
X153582900Y-109236742D01*
%TO.C,IC1*%
X106098000Y-114402400D02*
X106098000Y-111822400D01*
X107078000Y-111822400D02*
X106098000Y-111822400D01*
X109838000Y-111822400D02*
X110818000Y-111822400D01*
X110818000Y-111822400D02*
X110818000Y-114542400D01*
X106248000Y-114952400D02*
X105918000Y-115192400D01*
X105918000Y-114712400D01*
X106248000Y-114952400D01*
G36*
X106248000Y-114952400D02*
G01*
X105918000Y-115192400D01*
X105918000Y-114712400D01*
X106248000Y-114952400D01*
G37*
%TO.C,C4*%
X106474800Y-117525220D02*
X106474800Y-117806380D01*
X107494800Y-117525220D02*
X107494800Y-117806380D01*
%TO.C,J5*%
X114341600Y-110390000D02*
X115671600Y-110390000D01*
X114341600Y-111500000D02*
X114341600Y-110390000D01*
X114341600Y-115500000D02*
X129701600Y-115500000D01*
X114341600Y-124130000D02*
X114341600Y-115500000D01*
X114341600Y-124130000D02*
X129701600Y-124130000D01*
X114461600Y-124130000D02*
X114461600Y-115500000D01*
X114579695Y-124130000D02*
X114579695Y-115500000D01*
X114697790Y-124130000D02*
X114697790Y-115500000D01*
X114815885Y-124130000D02*
X114815885Y-115500000D01*
X114933980Y-124130000D02*
X114933980Y-115500000D01*
X115052075Y-124130000D02*
X115052075Y-115500000D01*
X115170170Y-124130000D02*
X115170170Y-115500000D01*
X115288265Y-124130000D02*
X115288265Y-115500000D01*
X115311600Y-112990000D02*
X115311600Y-112610000D01*
X115311600Y-115500000D02*
X115311600Y-115090000D01*
X115406360Y-124130000D02*
X115406360Y-115500000D01*
X115524455Y-124130000D02*
X115524455Y-115500000D01*
X115642550Y-124130000D02*
X115642550Y-115500000D01*
X115760645Y-124130000D02*
X115760645Y-115500000D01*
X115878740Y-124130000D02*
X115878740Y-115500000D01*
X115996835Y-124130000D02*
X115996835Y-115500000D01*
X116031600Y-112990000D02*
X116031600Y-112610000D01*
X116031600Y-115500000D02*
X116031600Y-115090000D01*
X116114930Y-124130000D02*
X116114930Y-115500000D01*
X116233025Y-124130000D02*
X116233025Y-115500000D01*
X116351120Y-124130000D02*
X116351120Y-115500000D01*
X116469215Y-124130000D02*
X116469215Y-115500000D01*
X116587310Y-124130000D02*
X116587310Y-115500000D01*
X116705405Y-124130000D02*
X116705405Y-115500000D01*
X116823500Y-124130000D02*
X116823500Y-115500000D01*
X116941600Y-124130000D02*
X116941600Y-115500000D01*
X117851600Y-112990000D02*
X117851600Y-112550000D01*
X117851600Y-115500000D02*
X117851600Y-115090000D01*
X118571600Y-112990000D02*
X118571600Y-112550000D01*
X118571600Y-115500000D02*
X118571600Y-115090000D01*
X119481600Y-124130000D02*
X119481600Y-115500000D01*
X120391600Y-112990000D02*
X120391600Y-112550000D01*
X120391600Y-115500000D02*
X120391600Y-115090000D01*
X121111600Y-112990000D02*
X121111600Y-112550000D01*
X121111600Y-115500000D02*
X121111600Y-115090000D01*
X122021600Y-124130000D02*
X122021600Y-115500000D01*
X122931600Y-112990000D02*
X122931600Y-112550000D01*
X122931600Y-115500000D02*
X122931600Y-115090000D01*
X123651600Y-112990000D02*
X123651600Y-112550000D01*
X123651600Y-115500000D02*
X123651600Y-115090000D01*
X124561600Y-124130000D02*
X124561600Y-115500000D01*
X125471600Y-112990000D02*
X125471600Y-112550000D01*
X125471600Y-115500000D02*
X125471600Y-115090000D01*
X126191600Y-112990000D02*
X126191600Y-112550000D01*
X126191600Y-115500000D02*
X126191600Y-115090000D01*
X127101600Y-124130000D02*
X127101600Y-115500000D01*
X128011600Y-112990000D02*
X128011600Y-112550000D01*
X128011600Y-115500000D02*
X128011600Y-115090000D01*
X128731600Y-112990000D02*
X128731600Y-112550000D01*
X128731600Y-115500000D02*
X128731600Y-115090000D01*
X129701600Y-124130000D02*
X129701600Y-115500000D01*
%TO.C,R9*%
X144663900Y-109711258D02*
X144663900Y-109236742D01*
X145708900Y-109711258D02*
X145708900Y-109236742D01*
%TO.C,R5*%
X147508700Y-92511342D02*
X147508700Y-92985858D01*
X148553700Y-92511342D02*
X148553700Y-92985858D01*
%TO.C,R13*%
X117263142Y-92187500D02*
X117737658Y-92187500D01*
X117263142Y-93232500D02*
X117737658Y-93232500D01*
D13*
%TO.C,IC4*%
X136182100Y-107861100D02*
X136182100Y-109461300D01*
X138645900Y-109461300D02*
X138645900Y-107861100D01*
D14*
X136164000Y-109811200D02*
G75*
G02*
X135814000Y-109811200I-175000J0D01*
G01*
X135814000Y-109811200D02*
G75*
G02*
X136164000Y-109811200I175000J0D01*
G01*
D13*
%TO.C,IC3*%
X136283700Y-102425500D02*
X136283700Y-104025700D01*
X138747500Y-104025700D02*
X138747500Y-102425500D01*
D14*
X139115600Y-102075600D02*
G75*
G02*
X138765600Y-102075600I-175000J0D01*
G01*
X138765600Y-102075600D02*
G75*
G02*
X139115600Y-102075600I175000J0D01*
G01*
D12*
%TO.C,D1*%
X119520600Y-83796200D02*
X119520600Y-85266200D01*
X119520600Y-85266200D02*
X121805600Y-85266200D01*
X121805600Y-83796200D02*
X119520600Y-83796200D01*
%TO.C,R6*%
X149388300Y-109723458D02*
X149388300Y-109248942D01*
X150433300Y-109723458D02*
X150433300Y-109248942D01*
D13*
%TO.C,IC5*%
X156451300Y-106387900D02*
X156451300Y-107988100D01*
X158915100Y-107988100D02*
X158915100Y-106387900D01*
D14*
X159283200Y-106038000D02*
G75*
G02*
X158933200Y-106038000I-175000J0D01*
G01*
X158933200Y-106038000D02*
G75*
G02*
X159283200Y-106038000I175000J0D01*
G01*
D12*
%TO.C,C3*%
X130988400Y-114392500D02*
X130988400Y-122457500D01*
X135508400Y-114392500D02*
X130988400Y-114392500D01*
X135508400Y-122457500D02*
X135508400Y-114392500D01*
%TO.C,IC2*%
X144476000Y-96289200D02*
X152196000Y-96289200D01*
X144476000Y-96544200D02*
X144476000Y-96289200D01*
X144476000Y-106809200D02*
X144476000Y-106554200D01*
X152196000Y-96289200D02*
X152196000Y-96544200D01*
X152196000Y-106554200D02*
X152196000Y-106809200D01*
X152196000Y-106809200D02*
X144476000Y-106809200D01*
X143686000Y-96539200D02*
X143346000Y-96069200D01*
X144026000Y-96069200D01*
X143686000Y-96539200D01*
G36*
X143686000Y-96539200D02*
G01*
X143346000Y-96069200D01*
X144026000Y-96069200D01*
X143686000Y-96539200D01*
G37*
%TO.C,J2*%
X113480400Y-87610000D02*
X113480400Y-86280000D01*
X114810400Y-87610000D02*
X113480400Y-87610000D01*
X116080400Y-84950000D02*
X118680400Y-84950000D01*
X116080400Y-87610000D02*
X116080400Y-84950000D01*
X116080400Y-87610000D02*
X118680400Y-87610000D01*
X118680400Y-87610000D02*
X118680400Y-84950000D01*
%TO.C,C2*%
X109472000Y-117512220D02*
X109472000Y-117793380D01*
X110492000Y-117512220D02*
X110492000Y-117793380D01*
%TO.C,R8*%
X146238700Y-109711258D02*
X146238700Y-109236742D01*
X147283700Y-109711258D02*
X147283700Y-109236742D01*
%TD*%
M02*
