%TF.GenerationSoftware,KiCad,Pcbnew,9.0.6*%
%TF.CreationDate,2025-12-26T20:18:53+00:00*%
%TF.ProjectId,PIDI-BOX-01-IO-6-CTRL74-A1,50494449-2d42-44f5-982d-30312d494f2d,rev?*%
%TF.SameCoordinates,Original*%
%TF.FileFunction,Paste,Top*%
%TF.FilePolarity,Positive*%
%FSLAX46Y46*%
G04 Gerber Fmt 4.6, Leading zero omitted, Abs format (unit mm)*
G04 Created by KiCad (PCBNEW 9.0.6) date 2025-12-26 20:18:53*
%MOMM*%
%LPD*%
G01*
G04 APERTURE LIST*
G04 Aperture macros list*
%AMRoundRect*
0 Rectangle with rounded corners*
0 $1 Rounding radius*
0 $2 $3 $4 $5 $6 $7 $8 $9 X,Y pos of 4 corners*
0 Add a 4 corners polygon primitive as box body*
4,1,4,$2,$3,$4,$5,$6,$7,$8,$9,$2,$3,0*
0 Add four circle primitives for the rounded corners*
1,1,$1+$1,$2,$3*
1,1,$1+$1,$4,$5*
1,1,$1+$1,$6,$7*
1,1,$1+$1,$8,$9*
0 Add four rect primitives between the rounded corners*
20,1,$1+$1,$2,$3,$4,$5,0*
20,1,$1+$1,$4,$5,$6,$7,0*
20,1,$1+$1,$6,$7,$8,$9,0*
20,1,$1+$1,$8,$9,$2,$3,0*%
%AMFreePoly0*
4,1,9,3.862500,-0.866500,0.737500,-0.866500,0.737500,-0.450000,-0.737500,-0.450000,-0.737500,0.450000,0.737500,0.450000,0.737500,0.866500,3.862500,0.866500,3.862500,-0.866500,3.862500,-0.866500,$1*%
G04 Aperture macros list end*
%ADD10RoundRect,0.200000X-0.275000X0.200000X-0.275000X-0.200000X0.275000X-0.200000X0.275000X0.200000X0*%
%ADD11RoundRect,0.200000X0.275000X-0.200000X0.275000X0.200000X-0.275000X0.200000X-0.275000X-0.200000X0*%
%ADD12RoundRect,0.150000X-0.587500X-0.150000X0.587500X-0.150000X0.587500X0.150000X-0.587500X0.150000X0*%
%ADD13RoundRect,0.150000X0.587500X0.150000X-0.587500X0.150000X-0.587500X-0.150000X0.587500X-0.150000X0*%
%ADD14RoundRect,0.225000X-0.225000X-0.250000X0.225000X-0.250000X0.225000X0.250000X-0.225000X0.250000X0*%
%ADD15RoundRect,0.225000X0.225000X-0.425000X0.225000X0.425000X-0.225000X0.425000X-0.225000X-0.425000X0*%
%ADD16FreePoly0,90.000000*%
%ADD17RoundRect,0.225000X-0.250000X0.225000X-0.250000X-0.225000X0.250000X-0.225000X0.250000X0.225000X0*%
%ADD18RoundRect,0.200000X-0.200000X-0.275000X0.200000X-0.275000X0.200000X0.275000X-0.200000X0.275000X0*%
%ADD19R,0.355600X0.787400*%
%ADD20RoundRect,0.218750X-0.218750X-0.256250X0.218750X-0.256250X0.218750X0.256250X-0.218750X0.256250X0*%
%ADD21RoundRect,0.250000X-1.045000X0.785000X-1.045000X-0.785000X1.045000X-0.785000X1.045000X0.785000X0*%
%ADD22RoundRect,0.150000X-0.875000X-0.150000X0.875000X-0.150000X0.875000X0.150000X-0.875000X0.150000X0*%
G04 APERTURE END LIST*
D10*
%TO.C,R12*%
X155905200Y-98946200D03*
X155905200Y-100596200D03*
%TD*%
D11*
%TO.C,R11*%
X151485600Y-110299000D03*
X151485600Y-108649000D03*
%TD*%
D10*
%TO.C,R1*%
X130149600Y-100038400D03*
X130149600Y-101688400D03*
%TD*%
%TO.C,R4*%
X145897600Y-91923600D03*
X145897600Y-93573600D03*
%TD*%
%TO.C,R2*%
X127800000Y-100025000D03*
X127800000Y-101675000D03*
%TD*%
D12*
%TO.C,U1*%
X118747300Y-95087400D03*
X118747300Y-96987400D03*
X120622300Y-96037400D03*
%TD*%
D13*
%TO.C,U2*%
X119687500Y-101950000D03*
X119687500Y-100050000D03*
X117812500Y-101000000D03*
%TD*%
D10*
%TO.C,R3*%
X143611600Y-91923600D03*
X143611600Y-93573600D03*
%TD*%
D14*
%TO.C,C1*%
X155790600Y-97231200D03*
X157340600Y-97231200D03*
%TD*%
D11*
%TO.C,R7*%
X148336000Y-110299000D03*
X148336000Y-108649000D03*
%TD*%
%TO.C,R10*%
X153060400Y-110299000D03*
X153060400Y-108649000D03*
%TD*%
D15*
%TO.C,IC1*%
X106958000Y-115132400D03*
D16*
X108458000Y-115044900D03*
D15*
X109958000Y-115132400D03*
%TD*%
D17*
%TO.C,C4*%
X106984800Y-116890800D03*
X106984800Y-118440800D03*
%TD*%
D11*
%TO.C,R9*%
X145186400Y-110299000D03*
X145186400Y-108649000D03*
%TD*%
D10*
%TO.C,R5*%
X148031200Y-91923600D03*
X148031200Y-93573600D03*
%TD*%
D18*
%TO.C,R13*%
X116675400Y-92710000D03*
X118325400Y-92710000D03*
%TD*%
D19*
%TO.C,IC4*%
X136764001Y-109728000D03*
X137414000Y-109728000D03*
X138063999Y-109728000D03*
X138063999Y-107594400D03*
X137414000Y-107594400D03*
X136764001Y-107594400D03*
%TD*%
%TO.C,IC3*%
X138165599Y-102158800D03*
X137515600Y-102158800D03*
X136865601Y-102158800D03*
X136865601Y-104292400D03*
X137515600Y-104292400D03*
X138165599Y-104292400D03*
%TD*%
D20*
%TO.C,D1*%
X120218100Y-84531200D03*
X121793100Y-84531200D03*
%TD*%
D11*
%TO.C,R6*%
X149910800Y-110311200D03*
X149910800Y-108661200D03*
%TD*%
D19*
%TO.C,IC5*%
X158333199Y-106121200D03*
X157683200Y-106121200D03*
X157033201Y-106121200D03*
X157033201Y-108254800D03*
X157683200Y-108254800D03*
X158333199Y-108254800D03*
%TD*%
D21*
%TO.C,C3*%
X133248400Y-115687500D03*
X133248400Y-121927500D03*
%TD*%
D22*
%TO.C,IC2*%
X143686000Y-97104200D03*
X143686000Y-98374200D03*
X143686000Y-99644200D03*
X143686000Y-100914200D03*
X143686000Y-102184200D03*
X143686000Y-103454200D03*
X143686000Y-104724200D03*
X143686000Y-105994200D03*
X152986000Y-105994200D03*
X152986000Y-104724200D03*
X152986000Y-103454200D03*
X152986000Y-102184200D03*
X152986000Y-100914200D03*
X152986000Y-99644200D03*
X152986000Y-98374200D03*
X152986000Y-97104200D03*
%TD*%
D17*
%TO.C,C2*%
X109982000Y-116877800D03*
X109982000Y-118427800D03*
%TD*%
D11*
%TO.C,R8*%
X146761200Y-110299000D03*
X146761200Y-108649000D03*
%TD*%
M02*
