%TF.GenerationSoftware,KiCad,Pcbnew,9.0.6*%
%TF.CreationDate,2025-12-26T20:18:53+00:00*%
%TF.ProjectId,PIDI-BOX-01-IO-6-CTRL74-A1,50494449-2d42-44f5-982d-30312d494f2d,rev?*%
%TF.SameCoordinates,Original*%
%TF.FileFunction,Copper,L1,Top*%
%TF.FilePolarity,Positive*%
%FSLAX46Y46*%
G04 Gerber Fmt 4.6, Leading zero omitted, Abs format (unit mm)*
G04 Created by KiCad (PCBNEW 9.0.6) date 2025-12-26 20:18:53*
%MOMM*%
%LPD*%
G01*
G04 APERTURE LIST*
G04 Aperture macros list*
%AMRoundRect*
0 Rectangle with rounded corners*
0 $1 Rounding radius*
0 $2 $3 $4 $5 $6 $7 $8 $9 X,Y pos of 4 corners*
0 Add a 4 corners polygon primitive as box body*
4,1,4,$2,$3,$4,$5,$6,$7,$8,$9,$2,$3,0*
0 Add four circle primitives for the rounded corners*
1,1,$1+$1,$2,$3*
1,1,$1+$1,$4,$5*
1,1,$1+$1,$6,$7*
1,1,$1+$1,$8,$9*
0 Add four rect primitives between the rounded corners*
20,1,$1+$1,$2,$3,$4,$5,0*
20,1,$1+$1,$4,$5,$6,$7,0*
20,1,$1+$1,$6,$7,$8,$9,0*
20,1,$1+$1,$8,$9,$2,$3,0*%
%AMFreePoly0*
4,1,23,0.550000,-0.750000,0.000000,-0.750000,0.000000,-0.745722,-0.065263,-0.745722,-0.191342,-0.711940,-0.304381,-0.646677,-0.396677,-0.554381,-0.461940,-0.441342,-0.495722,-0.315263,-0.495722,-0.250000,-0.500000,-0.250000,-0.500000,0.250000,-0.495722,0.250000,-0.495722,0.315263,-0.461940,0.441342,-0.396677,0.554381,-0.304381,0.646677,-0.191342,0.711940,-0.065263,0.745722,0.000000,0.745722,
0.000000,0.750000,0.550000,0.750000,0.550000,-0.750000,0.550000,-0.750000,$1*%
%AMFreePoly1*
4,1,23,0.000000,0.745722,0.065263,0.745722,0.191342,0.711940,0.304381,0.646677,0.396677,0.554381,0.461940,0.441342,0.495722,0.315263,0.495722,0.250000,0.500000,0.250000,0.500000,-0.250000,0.495722,-0.250000,0.495722,-0.315263,0.461940,-0.441342,0.396677,-0.554381,0.304381,-0.646677,0.191342,-0.711940,0.065263,-0.745722,0.000000,-0.745722,0.000000,-0.750000,-0.550000,-0.750000,
-0.550000,0.750000,0.000000,0.750000,0.000000,0.745722,0.000000,0.745722,$1*%
%AMFreePoly2*
4,1,9,3.862500,-0.866500,0.737500,-0.866500,0.737500,-0.450000,-0.737500,-0.450000,-0.737500,0.450000,0.737500,0.450000,0.737500,0.866500,3.862500,0.866500,3.862500,-0.866500,3.862500,-0.866500,$1*%
G04 Aperture macros list end*
%ADD10C,0.150000*%
%TA.AperFunction,NonConductor*%
%ADD11C,0.150000*%
%TD*%
%TA.AperFunction,SMDPad,CuDef*%
%ADD12RoundRect,0.200000X-0.275000X0.200000X-0.275000X-0.200000X0.275000X-0.200000X0.275000X0.200000X0*%
%TD*%
%TA.AperFunction,SMDPad,CuDef*%
%ADD13RoundRect,0.200000X0.275000X-0.200000X0.275000X0.200000X-0.275000X0.200000X-0.275000X-0.200000X0*%
%TD*%
%TA.AperFunction,ComponentPad*%
%ADD14R,1.700000X1.700000*%
%TD*%
%TA.AperFunction,ComponentPad*%
%ADD15O,1.700000X1.700000*%
%TD*%
%TA.AperFunction,SMDPad,CuDef*%
%ADD16FreePoly0,180.000000*%
%TD*%
%TA.AperFunction,SMDPad,CuDef*%
%ADD17R,1.000000X1.500000*%
%TD*%
%TA.AperFunction,SMDPad,CuDef*%
%ADD18FreePoly1,180.000000*%
%TD*%
%TA.AperFunction,SMDPad,CuDef*%
%ADD19RoundRect,0.150000X-0.587500X-0.150000X0.587500X-0.150000X0.587500X0.150000X-0.587500X0.150000X0*%
%TD*%
%TA.AperFunction,SMDPad,CuDef*%
%ADD20RoundRect,0.150000X0.587500X0.150000X-0.587500X0.150000X-0.587500X-0.150000X0.587500X-0.150000X0*%
%TD*%
%TA.AperFunction,ComponentPad*%
%ADD21C,1.650000*%
%TD*%
%TA.AperFunction,SMDPad,CuDef*%
%ADD22RoundRect,0.225000X-0.225000X-0.250000X0.225000X-0.250000X0.225000X0.250000X-0.225000X0.250000X0*%
%TD*%
%TA.AperFunction,SMDPad,CuDef*%
%ADD23RoundRect,0.225000X0.225000X-0.425000X0.225000X0.425000X-0.225000X0.425000X-0.225000X-0.425000X0*%
%TD*%
%TA.AperFunction,SMDPad,CuDef*%
%ADD24FreePoly2,90.000000*%
%TD*%
%TA.AperFunction,SMDPad,CuDef*%
%ADD25RoundRect,0.225000X-0.250000X0.225000X-0.250000X-0.225000X0.250000X-0.225000X0.250000X0.225000X0*%
%TD*%
%TA.AperFunction,ComponentPad*%
%ADD26C,1.700000*%
%TD*%
%TA.AperFunction,SMDPad,CuDef*%
%ADD27RoundRect,0.200000X-0.200000X-0.275000X0.200000X-0.275000X0.200000X0.275000X-0.200000X0.275000X0*%
%TD*%
%TA.AperFunction,SMDPad,CuDef*%
%ADD28R,0.355600X0.787400*%
%TD*%
%TA.AperFunction,SMDPad,CuDef*%
%ADD29RoundRect,0.218750X-0.218750X-0.256250X0.218750X-0.256250X0.218750X0.256250X-0.218750X0.256250X0*%
%TD*%
%TA.AperFunction,SMDPad,CuDef*%
%ADD30RoundRect,0.250000X-1.045000X0.785000X-1.045000X-0.785000X1.045000X-0.785000X1.045000X0.785000X0*%
%TD*%
%TA.AperFunction,SMDPad,CuDef*%
%ADD31RoundRect,0.150000X-0.875000X-0.150000X0.875000X-0.150000X0.875000X0.150000X-0.875000X0.150000X0*%
%TD*%
%TA.AperFunction,ViaPad*%
%ADD32C,0.600000*%
%TD*%
%TA.AperFunction,ViaPad*%
%ADD33C,1.000000*%
%TD*%
%TA.AperFunction,Conductor*%
%ADD34C,0.300000*%
%TD*%
%TA.AperFunction,Conductor*%
%ADD35C,0.200000*%
%TD*%
%TA.AperFunction,Conductor*%
%ADD36C,0.900000*%
%TD*%
%TA.AperFunction,Conductor*%
%ADD37C,0.800000*%
%TD*%
%TA.AperFunction,Conductor*%
%ADD38C,0.400000*%
%TD*%
%TA.AperFunction,Conductor*%
%ADD39C,0.600000*%
%TD*%
%TA.AperFunction,Conductor*%
%ADD40C,1.000000*%
%TD*%
%TA.AperFunction,Conductor*%
%ADD41C,0.700000*%
%TD*%
%TA.AperFunction,Conductor*%
%ADD42C,0.500000*%
%TD*%
G04 APERTURE END LIST*
D10*
D11*
X122259960Y-88794295D02*
X122259960Y-87994295D01*
X122259960Y-87994295D02*
X122564722Y-87994295D01*
X122564722Y-87994295D02*
X122640912Y-88032390D01*
X122640912Y-88032390D02*
X122679007Y-88070485D01*
X122679007Y-88070485D02*
X122717103Y-88146676D01*
X122717103Y-88146676D02*
X122717103Y-88260961D01*
X122717103Y-88260961D02*
X122679007Y-88337152D01*
X122679007Y-88337152D02*
X122640912Y-88375247D01*
X122640912Y-88375247D02*
X122564722Y-88413342D01*
X122564722Y-88413342D02*
X122259960Y-88413342D01*
X123059960Y-88794295D02*
X123059960Y-87994295D01*
X123440912Y-88794295D02*
X123440912Y-87994295D01*
X123440912Y-87994295D02*
X123631388Y-87994295D01*
X123631388Y-87994295D02*
X123745674Y-88032390D01*
X123745674Y-88032390D02*
X123821864Y-88108580D01*
X123821864Y-88108580D02*
X123859959Y-88184771D01*
X123859959Y-88184771D02*
X123898055Y-88337152D01*
X123898055Y-88337152D02*
X123898055Y-88451438D01*
X123898055Y-88451438D02*
X123859959Y-88603819D01*
X123859959Y-88603819D02*
X123821864Y-88680009D01*
X123821864Y-88680009D02*
X123745674Y-88756200D01*
X123745674Y-88756200D02*
X123631388Y-88794295D01*
X123631388Y-88794295D02*
X123440912Y-88794295D01*
X124240912Y-88794295D02*
X124240912Y-87994295D01*
X124621864Y-88489533D02*
X125231388Y-88489533D01*
X125879006Y-88375247D02*
X125993292Y-88413342D01*
X125993292Y-88413342D02*
X126031387Y-88451438D01*
X126031387Y-88451438D02*
X126069483Y-88527628D01*
X126069483Y-88527628D02*
X126069483Y-88641914D01*
X126069483Y-88641914D02*
X126031387Y-88718104D01*
X126031387Y-88718104D02*
X125993292Y-88756200D01*
X125993292Y-88756200D02*
X125917102Y-88794295D01*
X125917102Y-88794295D02*
X125612340Y-88794295D01*
X125612340Y-88794295D02*
X125612340Y-87994295D01*
X125612340Y-87994295D02*
X125879006Y-87994295D01*
X125879006Y-87994295D02*
X125955197Y-88032390D01*
X125955197Y-88032390D02*
X125993292Y-88070485D01*
X125993292Y-88070485D02*
X126031387Y-88146676D01*
X126031387Y-88146676D02*
X126031387Y-88222866D01*
X126031387Y-88222866D02*
X125993292Y-88299057D01*
X125993292Y-88299057D02*
X125955197Y-88337152D01*
X125955197Y-88337152D02*
X125879006Y-88375247D01*
X125879006Y-88375247D02*
X125612340Y-88375247D01*
X126564721Y-87994295D02*
X126717102Y-87994295D01*
X126717102Y-87994295D02*
X126793292Y-88032390D01*
X126793292Y-88032390D02*
X126869483Y-88108580D01*
X126869483Y-88108580D02*
X126907578Y-88260961D01*
X126907578Y-88260961D02*
X126907578Y-88527628D01*
X126907578Y-88527628D02*
X126869483Y-88680009D01*
X126869483Y-88680009D02*
X126793292Y-88756200D01*
X126793292Y-88756200D02*
X126717102Y-88794295D01*
X126717102Y-88794295D02*
X126564721Y-88794295D01*
X126564721Y-88794295D02*
X126488530Y-88756200D01*
X126488530Y-88756200D02*
X126412340Y-88680009D01*
X126412340Y-88680009D02*
X126374244Y-88527628D01*
X126374244Y-88527628D02*
X126374244Y-88260961D01*
X126374244Y-88260961D02*
X126412340Y-88108580D01*
X126412340Y-88108580D02*
X126488530Y-88032390D01*
X126488530Y-88032390D02*
X126564721Y-87994295D01*
X127174244Y-87994295D02*
X127707578Y-88794295D01*
X127707578Y-87994295D02*
X127174244Y-88794295D01*
X128012340Y-88489533D02*
X128621864Y-88489533D01*
X129155197Y-87994295D02*
X129231387Y-87994295D01*
X129231387Y-87994295D02*
X129307578Y-88032390D01*
X129307578Y-88032390D02*
X129345673Y-88070485D01*
X129345673Y-88070485D02*
X129383768Y-88146676D01*
X129383768Y-88146676D02*
X129421863Y-88299057D01*
X129421863Y-88299057D02*
X129421863Y-88489533D01*
X129421863Y-88489533D02*
X129383768Y-88641914D01*
X129383768Y-88641914D02*
X129345673Y-88718104D01*
X129345673Y-88718104D02*
X129307578Y-88756200D01*
X129307578Y-88756200D02*
X129231387Y-88794295D01*
X129231387Y-88794295D02*
X129155197Y-88794295D01*
X129155197Y-88794295D02*
X129079006Y-88756200D01*
X129079006Y-88756200D02*
X129040911Y-88718104D01*
X129040911Y-88718104D02*
X129002816Y-88641914D01*
X129002816Y-88641914D02*
X128964720Y-88489533D01*
X128964720Y-88489533D02*
X128964720Y-88299057D01*
X128964720Y-88299057D02*
X129002816Y-88146676D01*
X129002816Y-88146676D02*
X129040911Y-88070485D01*
X129040911Y-88070485D02*
X129079006Y-88032390D01*
X129079006Y-88032390D02*
X129155197Y-87994295D01*
X130183768Y-88794295D02*
X129726625Y-88794295D01*
X129955197Y-88794295D02*
X129955197Y-87994295D01*
X129955197Y-87994295D02*
X129879006Y-88108580D01*
X129879006Y-88108580D02*
X129802816Y-88184771D01*
X129802816Y-88184771D02*
X129726625Y-88222866D01*
X130526626Y-88489533D02*
X131136150Y-88489533D01*
X131517102Y-88794295D02*
X131517102Y-87994295D01*
X132050435Y-87994295D02*
X132202816Y-87994295D01*
X132202816Y-87994295D02*
X132279006Y-88032390D01*
X132279006Y-88032390D02*
X132355197Y-88108580D01*
X132355197Y-88108580D02*
X132393292Y-88260961D01*
X132393292Y-88260961D02*
X132393292Y-88527628D01*
X132393292Y-88527628D02*
X132355197Y-88680009D01*
X132355197Y-88680009D02*
X132279006Y-88756200D01*
X132279006Y-88756200D02*
X132202816Y-88794295D01*
X132202816Y-88794295D02*
X132050435Y-88794295D01*
X132050435Y-88794295D02*
X131974244Y-88756200D01*
X131974244Y-88756200D02*
X131898054Y-88680009D01*
X131898054Y-88680009D02*
X131859958Y-88527628D01*
X131859958Y-88527628D02*
X131859958Y-88260961D01*
X131859958Y-88260961D02*
X131898054Y-88108580D01*
X131898054Y-88108580D02*
X131974244Y-88032390D01*
X131974244Y-88032390D02*
X132050435Y-87994295D01*
X132736149Y-88489533D02*
X133345673Y-88489533D01*
X134069482Y-87994295D02*
X133917101Y-87994295D01*
X133917101Y-87994295D02*
X133840910Y-88032390D01*
X133840910Y-88032390D02*
X133802815Y-88070485D01*
X133802815Y-88070485D02*
X133726625Y-88184771D01*
X133726625Y-88184771D02*
X133688529Y-88337152D01*
X133688529Y-88337152D02*
X133688529Y-88641914D01*
X133688529Y-88641914D02*
X133726625Y-88718104D01*
X133726625Y-88718104D02*
X133764720Y-88756200D01*
X133764720Y-88756200D02*
X133840910Y-88794295D01*
X133840910Y-88794295D02*
X133993291Y-88794295D01*
X133993291Y-88794295D02*
X134069482Y-88756200D01*
X134069482Y-88756200D02*
X134107577Y-88718104D01*
X134107577Y-88718104D02*
X134145672Y-88641914D01*
X134145672Y-88641914D02*
X134145672Y-88451438D01*
X134145672Y-88451438D02*
X134107577Y-88375247D01*
X134107577Y-88375247D02*
X134069482Y-88337152D01*
X134069482Y-88337152D02*
X133993291Y-88299057D01*
X133993291Y-88299057D02*
X133840910Y-88299057D01*
X133840910Y-88299057D02*
X133764720Y-88337152D01*
X133764720Y-88337152D02*
X133726625Y-88375247D01*
X133726625Y-88375247D02*
X133688529Y-88451438D01*
X134488530Y-88489533D02*
X135098054Y-88489533D01*
X135936149Y-88718104D02*
X135898053Y-88756200D01*
X135898053Y-88756200D02*
X135783768Y-88794295D01*
X135783768Y-88794295D02*
X135707577Y-88794295D01*
X135707577Y-88794295D02*
X135593291Y-88756200D01*
X135593291Y-88756200D02*
X135517101Y-88680009D01*
X135517101Y-88680009D02*
X135479006Y-88603819D01*
X135479006Y-88603819D02*
X135440910Y-88451438D01*
X135440910Y-88451438D02*
X135440910Y-88337152D01*
X135440910Y-88337152D02*
X135479006Y-88184771D01*
X135479006Y-88184771D02*
X135517101Y-88108580D01*
X135517101Y-88108580D02*
X135593291Y-88032390D01*
X135593291Y-88032390D02*
X135707577Y-87994295D01*
X135707577Y-87994295D02*
X135783768Y-87994295D01*
X135783768Y-87994295D02*
X135898053Y-88032390D01*
X135898053Y-88032390D02*
X135936149Y-88070485D01*
X136164720Y-87994295D02*
X136621863Y-87994295D01*
X136393291Y-88794295D02*
X136393291Y-87994295D01*
X137345673Y-88794295D02*
X137079006Y-88413342D01*
X136888530Y-88794295D02*
X136888530Y-87994295D01*
X136888530Y-87994295D02*
X137193292Y-87994295D01*
X137193292Y-87994295D02*
X137269482Y-88032390D01*
X137269482Y-88032390D02*
X137307577Y-88070485D01*
X137307577Y-88070485D02*
X137345673Y-88146676D01*
X137345673Y-88146676D02*
X137345673Y-88260961D01*
X137345673Y-88260961D02*
X137307577Y-88337152D01*
X137307577Y-88337152D02*
X137269482Y-88375247D01*
X137269482Y-88375247D02*
X137193292Y-88413342D01*
X137193292Y-88413342D02*
X136888530Y-88413342D01*
X138069482Y-88794295D02*
X137688530Y-88794295D01*
X137688530Y-88794295D02*
X137688530Y-87994295D01*
X138259958Y-87994295D02*
X138793292Y-87994295D01*
X138793292Y-87994295D02*
X138450434Y-88794295D01*
X139440911Y-88260961D02*
X139440911Y-88794295D01*
X139250435Y-87956200D02*
X139059958Y-88527628D01*
X139059958Y-88527628D02*
X139555197Y-88527628D01*
X139859959Y-88489533D02*
X140469483Y-88489533D01*
X140812339Y-88565723D02*
X141193292Y-88565723D01*
X140736149Y-88794295D02*
X141002816Y-87994295D01*
X141002816Y-87994295D02*
X141269482Y-88794295D01*
X141955196Y-88794295D02*
X141498053Y-88794295D01*
X141726625Y-88794295D02*
X141726625Y-87994295D01*
X141726625Y-87994295D02*
X141650434Y-88108580D01*
X141650434Y-88108580D02*
X141574244Y-88184771D01*
X141574244Y-88184771D02*
X141498053Y-88222866D01*
D12*
%TO.P,R12,1*%
%TO.N,+5V*%
X155905200Y-98946200D03*
%TO.P,R12,2*%
%TO.N,Net-(IC2-P7)*%
X155905200Y-100596200D03*
%TD*%
D13*
%TO.P,R11,1*%
%TO.N,+5V*%
X151485600Y-110299000D03*
%TO.P,R11,2*%
%TO.N,P5*%
X151485600Y-108649000D03*
%TD*%
D12*
%TO.P,R1,1*%
%TO.N,Net-(J4-Pin_3)*%
X130149600Y-100038400D03*
%TO.P,R1,2*%
%TO.N,+5V*%
X130149600Y-101688400D03*
%TD*%
D14*
%TO.P,J4,1,Pin_1*%
%TO.N,Net-(J4-Pin_1)*%
X125183935Y-97258206D03*
D15*
%TO.P,J4,2,Pin_2*%
%TO.N,Net-(IC2-SCL)*%
X125183935Y-94718206D03*
%TO.P,J4,3,Pin_3*%
%TO.N,Net-(J4-Pin_3)*%
X127723935Y-97258206D03*
%TO.P,J4,4,Pin_4*%
%TO.N,Net-(IC2-SDA)*%
X127723935Y-94718206D03*
%TO.P,J4,5,Pin_5*%
%TO.N,/IO-ext(GPIO)*%
X130263935Y-97258206D03*
%TO.P,J4,6,Pin_6*%
%TO.N,Net-(IC2-~{INT})*%
X130263935Y-94718206D03*
%TO.P,J4,7,Pin_7*%
%TO.N,GND*%
X132803935Y-97258206D03*
%TO.P,J4,8,Pin_8*%
%TO.N,Net-(IC2-A0)*%
X132803935Y-94718206D03*
%TO.P,J4,9,Pin_9*%
%TO.N,GND*%
X135343935Y-97258206D03*
%TO.P,J4,10,Pin_10*%
%TO.N,Net-(IC2-A1)*%
X135343935Y-94718206D03*
%TO.P,J4,11,Pin_11*%
%TO.N,GND*%
X137883935Y-97258206D03*
%TO.P,J4,12,Pin_12*%
%TO.N,Net-(IC2-A2)*%
X137883935Y-94718206D03*
%TD*%
D12*
%TO.P,R4,1*%
%TO.N,+5V*%
X145897600Y-91923600D03*
%TO.P,R4,2*%
%TO.N,Net-(IC2-A1)*%
X145897600Y-93573600D03*
%TD*%
D16*
%TO.P,JP3,1,A*%
%TO.N,GND*%
X158424400Y-102870000D03*
D17*
%TO.P,JP3,2,C*%
%TO.N,SELECT*%
X157124400Y-102870000D03*
D18*
%TO.P,JP3,3,B*%
%TO.N,Net-(IC2-P7)*%
X155824400Y-102870000D03*
%TD*%
D12*
%TO.P,R2,1*%
%TO.N,Net-(J4-Pin_1)*%
X127800000Y-100025000D03*
%TO.P,R2,2*%
%TO.N,+5V*%
X127800000Y-101675000D03*
%TD*%
D19*
%TO.P,U1,1,1*%
%TO.N,Net-(IC2-SDA)*%
X118747300Y-95087400D03*
%TO.P,U1,2,2*%
%TO.N,Net-(IC2-SCL)*%
X118747300Y-96987400D03*
%TO.P,U1,3,3*%
%TO.N,GND*%
X120622300Y-96037400D03*
%TD*%
D20*
%TO.P,U2,1,1*%
%TO.N,/IO-ext(GPIO)*%
X119687500Y-101950000D03*
%TO.P,U2,2,2*%
X119687500Y-100050000D03*
%TO.P,U2,3,3*%
%TO.N,GND*%
X117812500Y-101000000D03*
%TD*%
D21*
%TO.P,J3,1*%
%TO.N,unconnected-(J3-Pad1)*%
X115180200Y-103479600D03*
%TO.P,J3,2*%
%TO.N,Net-(IC2-SCL)*%
X112640200Y-103479600D03*
%TO.P,J3,3*%
%TO.N,GND*%
X115180200Y-100939600D03*
%TO.P,J3,4*%
%TO.N,Net-(IC2-SDA)*%
X112640200Y-100939600D03*
%TO.P,J3,5*%
%TO.N,GND*%
X115180200Y-98399600D03*
%TO.P,J3,6*%
%TO.N,/IO-ext(GPIO)*%
X112640200Y-98399600D03*
%TD*%
D12*
%TO.P,R3,1*%
%TO.N,+5V*%
X143611600Y-91923600D03*
%TO.P,R3,2*%
%TO.N,Net-(IC2-A0)*%
X143611600Y-93573600D03*
%TD*%
D22*
%TO.P,C1,1*%
%TO.N,+5V*%
X155790600Y-97231200D03*
%TO.P,C1,2*%
%TO.N,GND*%
X157340600Y-97231200D03*
%TD*%
D14*
%TO.P,J1,1,Pin_1*%
%TO.N,unconnected-(J1-Pin_1-Pad1)*%
X144360935Y-86280000D03*
D15*
%TO.P,J1,2,Pin_2*%
%TO.N,unconnected-(J1-Pin_2-Pad2)*%
X146900935Y-86280000D03*
%TD*%
D13*
%TO.P,R7,1*%
%TO.N,+5V*%
X148336000Y-110299000D03*
%TO.P,R7,2*%
%TO.N,P1*%
X148336000Y-108649000D03*
%TD*%
%TO.P,R10,1*%
%TO.N,+5V*%
X153060400Y-110299000D03*
%TO.P,R10,2*%
%TO.N,P4*%
X153060400Y-108649000D03*
%TD*%
D23*
%TO.P,IC1,1,OUT*%
%TO.N,+5V*%
X106958000Y-115132400D03*
D24*
%TO.P,IC1,2,GND*%
%TO.N,GND*%
X108458000Y-115044900D03*
D23*
%TO.P,IC1,3,IN*%
%TO.N,/+12V*%
X109958000Y-115132400D03*
%TD*%
D25*
%TO.P,C4,1*%
%TO.N,+5V*%
X106984800Y-116890800D03*
%TO.P,C4,2*%
%TO.N,GND*%
X106984800Y-118440800D03*
%TD*%
D14*
%TO.P,J5,1,Pin_1*%
%TO.N,/+12V*%
X115671600Y-111500000D03*
D26*
%TO.P,J5,2,Pin_2*%
%TO.N,GND*%
X115671600Y-114040000D03*
%TO.P,J5,3,Pin_3*%
%TO.N,unconnected-(J5-Pin_3-Pad3)*%
X118211600Y-111500000D03*
%TO.P,J5,4,Pin_4*%
%TO.N,Net-(IC2-P7)*%
X118211600Y-114040000D03*
%TO.P,J5,5,Pin_5*%
%TO.N,P1*%
X120751600Y-111500000D03*
%TO.P,J5,6,Pin_6*%
%TO.N,P0*%
X120751600Y-114040000D03*
%TO.P,J5,7,Pin_7*%
%TO.N,P5*%
X123291600Y-111500000D03*
%TO.P,J5,8,Pin_8*%
%TO.N,P2*%
X123291600Y-114040000D03*
%TO.P,J5,9,Pin_9*%
%TO.N,unconnected-(J5-Pin_9-Pad9)*%
X125831600Y-111500000D03*
%TO.P,J5,10,Pin_10*%
%TO.N,+5V*%
X125831600Y-114040000D03*
%TO.P,J5,11,Pin_11*%
%TO.N,P4*%
X128371600Y-111500000D03*
%TO.P,J5,12,Pin_12*%
%TO.N,P3*%
X128371600Y-114040000D03*
%TD*%
D13*
%TO.P,R9,1*%
%TO.N,+5V*%
X145186400Y-110299000D03*
%TO.P,R9,2*%
%TO.N,P3*%
X145186400Y-108649000D03*
%TD*%
D12*
%TO.P,R5,1*%
%TO.N,+5V*%
X148031200Y-91923600D03*
%TO.P,R5,2*%
%TO.N,Net-(IC2-A2)*%
X148031200Y-93573600D03*
%TD*%
D27*
%TO.P,R13,1*%
%TO.N,+5V*%
X116675400Y-92710000D03*
%TO.P,R13,2*%
%TO.N,Net-(D1-A)*%
X118325400Y-92710000D03*
%TD*%
D28*
%TO.P,IC4,1,E_TR1*%
%TO.N,GND*%
X136764001Y-109728000D03*
%TO.P,IC4,2,B_TR1*%
%TO.N,SELECT*%
X137414000Y-109728000D03*
%TO.P,IC4,3,C_TR2*%
%TO.N,P3*%
X138063999Y-109728000D03*
%TO.P,IC4,4,E_TR2*%
%TO.N,GND*%
X138063999Y-107594400D03*
%TO.P,IC4,5,B_TR2*%
%TO.N,SELECT*%
X137414000Y-107594400D03*
%TO.P,IC4,6,C_TR1*%
%TO.N,P2*%
X136764001Y-107594400D03*
%TD*%
%TO.P,IC3,1,E_TR1*%
%TO.N,GND*%
X138165599Y-102158800D03*
%TO.P,IC3,2,B_TR1*%
%TO.N,SELECT*%
X137515600Y-102158800D03*
%TO.P,IC3,3,C_TR2*%
%TO.N,P0*%
X136865601Y-102158800D03*
%TO.P,IC3,4,E_TR2*%
%TO.N,GND*%
X136865601Y-104292400D03*
%TO.P,IC3,5,B_TR2*%
%TO.N,SELECT*%
X137515600Y-104292400D03*
%TO.P,IC3,6,C_TR1*%
%TO.N,P1*%
X138165599Y-104292400D03*
%TD*%
D29*
%TO.P,D1,1,K*%
%TO.N,GND*%
X120218100Y-84531200D03*
%TO.P,D1,2,A*%
%TO.N,Net-(D1-A)*%
X121793100Y-84531200D03*
%TD*%
D13*
%TO.P,R6,1*%
%TO.N,+5V*%
X149910800Y-110311200D03*
%TO.P,R6,2*%
%TO.N,P0*%
X149910800Y-108661200D03*
%TD*%
D28*
%TO.P,IC5,1,E_TR1*%
%TO.N,GND*%
X158333199Y-106121200D03*
%TO.P,IC5,2,B_TR1*%
%TO.N,SELECT*%
X157683200Y-106121200D03*
%TO.P,IC5,3,C_TR2*%
%TO.N,P5*%
X157033201Y-106121200D03*
%TO.P,IC5,4,E_TR2*%
%TO.N,GND*%
X157033201Y-108254800D03*
%TO.P,IC5,5,B_TR2*%
%TO.N,SELECT*%
X157683200Y-108254800D03*
%TO.P,IC5,6,C_TR1*%
%TO.N,P4*%
X158333199Y-108254800D03*
%TD*%
D30*
%TO.P,C3,1*%
%TO.N,+5V*%
X133248400Y-115687500D03*
%TO.P,C3,2*%
%TO.N,GND*%
X133248400Y-121927500D03*
%TD*%
D31*
%TO.P,IC2,1,A0*%
%TO.N,Net-(IC2-A0)*%
X143686000Y-97104200D03*
%TO.P,IC2,2,A1*%
%TO.N,Net-(IC2-A1)*%
X143686000Y-98374200D03*
%TO.P,IC2,3,A2*%
%TO.N,Net-(IC2-A2)*%
X143686000Y-99644200D03*
%TO.P,IC2,4,P0*%
%TO.N,P0*%
X143686000Y-100914200D03*
%TO.P,IC2,5,P1*%
%TO.N,P1*%
X143686000Y-102184200D03*
%TO.P,IC2,6,P2*%
%TO.N,P2*%
X143686000Y-103454200D03*
%TO.P,IC2,7,P3*%
%TO.N,P3*%
X143686000Y-104724200D03*
%TO.P,IC2,8,GND*%
%TO.N,GND*%
X143686000Y-105994200D03*
%TO.P,IC2,9,P4*%
%TO.N,P4*%
X152986000Y-105994200D03*
%TO.P,IC2,10,P5*%
%TO.N,P5*%
X152986000Y-104724200D03*
%TO.P,IC2,11,P6*%
%TO.N,unconnected-(IC2-P6-Pad11)*%
X152986000Y-103454200D03*
%TO.P,IC2,12,P7*%
%TO.N,Net-(IC2-P7)*%
X152986000Y-102184200D03*
%TO.P,IC2,13,~{INT}*%
%TO.N,Net-(IC2-~{INT})*%
X152986000Y-100914200D03*
%TO.P,IC2,14,SCL*%
%TO.N,Net-(IC2-SCL)*%
X152986000Y-99644200D03*
%TO.P,IC2,15,SDA*%
%TO.N,Net-(IC2-SDA)*%
X152986000Y-98374200D03*
%TO.P,IC2,16,VDD*%
%TO.N,+5V*%
X152986000Y-97104200D03*
%TD*%
D14*
%TO.P,J2,1,Pin_1*%
%TO.N,unconnected-(J2-Pin_1-Pad1)*%
X114810400Y-86280000D03*
D15*
%TO.P,J2,2,Pin_2*%
%TO.N,unconnected-(J2-Pin_2-Pad2)*%
X117350400Y-86280000D03*
%TD*%
D25*
%TO.P,C2,1*%
%TO.N,/+12V*%
X109982000Y-116877800D03*
%TO.P,C2,2*%
%TO.N,GND*%
X109982000Y-118427800D03*
%TD*%
D13*
%TO.P,R8,1*%
%TO.N,+5V*%
X146761200Y-110299000D03*
%TO.P,R8,2*%
%TO.N,P2*%
X146761200Y-108649000D03*
%TD*%
D32*
%TO.N,GND*%
X133248400Y-111099600D03*
D33*
X108508800Y-117094000D03*
D32*
X119659400Y-91109800D03*
X158343600Y-97637600D03*
X121158000Y-94996000D03*
X135839200Y-104597200D03*
X141986000Y-106578400D03*
X156006800Y-108254800D03*
X139268200Y-107111800D03*
X139344400Y-101803200D03*
D33*
X129844800Y-121920000D03*
D32*
%TO.N,SELECT*%
X157632399Y-105181400D03*
X140309600Y-103174800D03*
X140309600Y-106324400D03*
%TO.N,P4*%
X153060400Y-107492800D03*
%TO.N,P5*%
X150571200Y-105867200D03*
%TO.N,Net-(IC2-~{INT})*%
X149225000Y-98983800D03*
%TO.N,+5V*%
X155752800Y-95199200D03*
X142290800Y-91846400D03*
%TO.N,/IO-ext(GPIO)*%
X122148000Y-100050000D03*
%TD*%
D34*
%TO.N,P1*%
X140258800Y-104292400D02*
X142367000Y-102184200D01*
X120751600Y-110413800D02*
X125603000Y-105562400D01*
X148336000Y-104800400D02*
X148336000Y-108649000D01*
X143686000Y-102184200D02*
X145719800Y-102184200D01*
X137718800Y-105562400D02*
X138165599Y-105115601D01*
X142367000Y-102184200D02*
X143686000Y-102184200D01*
X138165599Y-104292400D02*
X140258800Y-104292400D01*
X125603000Y-105562400D02*
X137718800Y-105562400D01*
X120751600Y-111500000D02*
X120751600Y-110413800D01*
X138165599Y-105115601D02*
X138165599Y-104292400D01*
X145719800Y-102184200D02*
X148336000Y-104800400D01*
D35*
%TO.N,GND*%
X120218100Y-89585700D02*
X120218100Y-84531200D01*
D36*
X108458000Y-117043200D02*
X108508800Y-117094000D01*
D34*
X133248400Y-111099600D02*
X133248400Y-110820200D01*
X158343600Y-97637600D02*
X158343600Y-102789200D01*
D37*
X108432000Y-118440800D02*
X109969000Y-118440800D01*
D35*
X109969000Y-118440800D02*
X109982000Y-118427800D01*
D34*
X158333199Y-102961201D02*
X158424400Y-102870000D01*
X138785600Y-107594400D02*
X138063999Y-107594400D01*
X158292800Y-97637600D02*
X158343600Y-97637600D01*
D38*
X121158000Y-94996000D02*
X120622300Y-95531700D01*
D36*
X108508800Y-118364000D02*
X108508800Y-117094000D01*
D34*
X138988800Y-102158800D02*
X139344400Y-101803200D01*
D39*
X117812500Y-101000000D02*
X115240600Y-101000000D01*
D36*
X108458000Y-115146500D02*
X108458000Y-117043200D01*
D34*
X157886400Y-97231200D02*
X158292800Y-97637600D01*
D35*
X119659400Y-91109800D02*
X119659400Y-90144400D01*
D34*
X157340600Y-97231200D02*
X157886400Y-97231200D01*
D40*
X133248400Y-121920000D02*
X129844800Y-121920000D01*
D34*
X138165599Y-102158800D02*
X138988800Y-102158800D01*
X141986000Y-106578400D02*
X142519400Y-106045000D01*
D38*
X120622300Y-95531700D02*
X120622300Y-96037400D01*
D34*
X133248400Y-110820200D02*
X134340600Y-109728000D01*
D37*
X106984800Y-118440800D02*
X108432000Y-118440800D01*
D34*
X135343935Y-97258206D02*
X137883935Y-97258206D01*
X158333199Y-106121200D02*
X158333199Y-102961201D01*
D35*
X115240600Y-101000000D02*
X115180200Y-100939600D01*
D34*
X157033201Y-108254800D02*
X156006800Y-108254800D01*
X142519400Y-106045000D02*
X143686000Y-106045000D01*
X136865601Y-104292400D02*
X136144000Y-104292400D01*
X136144000Y-104292400D02*
X135839200Y-104597200D01*
X132803935Y-97258206D02*
X135343935Y-97258206D01*
X139268200Y-107111800D02*
X138785600Y-107594400D01*
X158343600Y-102789200D02*
X158424400Y-102870000D01*
D35*
X119659400Y-90144400D02*
X120218100Y-89585700D01*
D34*
X134340600Y-109728000D02*
X136764001Y-109728000D01*
%TO.N,SELECT*%
X157683200Y-105181400D02*
X157683200Y-106121200D01*
X140309600Y-103174800D02*
X137515600Y-103174800D01*
X157124400Y-104673401D02*
X157124400Y-102870000D01*
X137414000Y-109728000D02*
X137414000Y-108610400D01*
X157632399Y-105181400D02*
X157124400Y-104673401D01*
X139649200Y-108610400D02*
X137414000Y-108610400D01*
X157683200Y-106121200D02*
X157683200Y-108254800D01*
X137515600Y-102158800D02*
X137515600Y-103174800D01*
X140309600Y-106324400D02*
X140309600Y-107950000D01*
X137414000Y-108610400D02*
X137414000Y-107594400D01*
X140309600Y-107950000D02*
X139649200Y-108610400D01*
X137515600Y-103174800D02*
X137515600Y-104292400D01*
%TO.N,P0*%
X119481600Y-110566200D02*
X119481600Y-112770000D01*
X125347800Y-104700000D02*
X119481600Y-110566200D01*
X136865601Y-102158800D02*
X134924800Y-102158800D01*
X149910800Y-108661200D02*
X149910800Y-103530400D01*
X141554200Y-100965000D02*
X140157200Y-99568000D01*
X132383600Y-104700000D02*
X125347800Y-104700000D01*
X119481600Y-112770000D02*
X120751600Y-114040000D01*
X134924800Y-102158800D02*
X132383600Y-104700000D01*
X137668000Y-99568000D02*
X136865601Y-100370399D01*
X140157200Y-99568000D02*
X137668000Y-99568000D01*
X147345400Y-100965000D02*
X141554200Y-100965000D01*
X149910800Y-103530400D02*
X147345400Y-100965000D01*
X136865601Y-100370399D02*
X136865601Y-102158800D01*
%TO.N,P3*%
X141071600Y-109016800D02*
X140360400Y-109728000D01*
X131501800Y-114040000D02*
X134899400Y-110642400D01*
X144710999Y-104775000D02*
X142214600Y-104775000D01*
X141071600Y-105918000D02*
X141071600Y-109016800D01*
X140360400Y-109728000D02*
X138063999Y-109728000D01*
X137771100Y-110642400D02*
X138063999Y-110349501D01*
X128371600Y-114040000D02*
X131501800Y-114040000D01*
X134899400Y-110642400D02*
X137771100Y-110642400D01*
X142214600Y-104775000D02*
X141071600Y-105918000D01*
X145186400Y-108649000D02*
X145186400Y-105250401D01*
X145186400Y-105250401D02*
X144710999Y-104775000D01*
X138063999Y-110349501D02*
X138063999Y-109728000D01*
%TO.N,P2*%
X145465800Y-103505000D02*
X141909800Y-103505000D01*
X137160000Y-106426000D02*
X136764001Y-106821999D01*
X146761200Y-108649000D02*
X146761200Y-104800400D01*
X136764001Y-106821999D02*
X136764001Y-107594400D01*
X138988800Y-106426000D02*
X137160000Y-106426000D01*
X124739400Y-107594400D02*
X136764001Y-107594400D01*
X141909800Y-103505000D02*
X138988800Y-106426000D01*
X122021600Y-112770000D02*
X122021600Y-110312200D01*
X146761200Y-104800400D02*
X145465800Y-103505000D01*
X122021600Y-110312200D02*
X124739400Y-107594400D01*
X123291600Y-114040000D02*
X122021600Y-112770000D01*
%TO.N,P4*%
X153060400Y-108649000D02*
X153060400Y-106119400D01*
X154635200Y-108559600D02*
X155651200Y-109575600D01*
X158333199Y-109027201D02*
X158333199Y-108254800D01*
X152986000Y-106045000D02*
X153746200Y-106045000D01*
X153746200Y-106045000D02*
X154635200Y-106934000D01*
X153060400Y-106119400D02*
X152986000Y-106045000D01*
X154635200Y-106934000D02*
X154635200Y-108559600D01*
X155651200Y-109575600D02*
X157784800Y-109575600D01*
X157784800Y-109575600D02*
X158333199Y-109027201D01*
%TO.N,P5*%
X155168600Y-104775000D02*
X156514800Y-106121200D01*
X150622000Y-107594400D02*
X150622000Y-105816400D01*
X151485600Y-108649000D02*
X151485600Y-108458000D01*
X156514800Y-106121200D02*
X157033201Y-106121200D01*
X151485600Y-108458000D02*
X150622000Y-107594400D01*
X151663400Y-104775000D02*
X152986000Y-104775000D01*
X150622000Y-105816400D02*
X151663400Y-104775000D01*
X152986000Y-104775000D02*
X155168600Y-104775000D01*
%TO.N,Net-(IC2-~{INT})*%
X151180800Y-100939600D02*
X149225000Y-98983800D01*
X151206200Y-100965000D02*
X149225000Y-98983800D01*
X152986000Y-100965000D02*
X151206200Y-100965000D01*
D35*
%TO.N,Net-(IC2-P7)*%
X140486004Y-98958400D02*
X136991600Y-98958400D01*
X116916200Y-110363000D02*
X116916200Y-112744600D01*
D34*
X152986000Y-102235000D02*
X154508200Y-102235000D01*
D35*
X119405400Y-109702600D02*
X117576600Y-109702600D01*
X147989410Y-100514000D02*
X147987996Y-100514000D01*
D34*
X152960600Y-102260400D02*
X152986000Y-102235000D01*
D35*
X147788196Y-100314200D02*
X144752968Y-100314200D01*
X142619032Y-100314200D02*
X141841804Y-100314200D01*
D34*
X155824400Y-100677000D02*
X155905200Y-100596200D01*
D35*
X132267200Y-103682800D02*
X125425200Y-103682800D01*
X142620032Y-100313200D02*
X142619032Y-100314200D01*
D34*
X155824400Y-102870000D02*
X155824400Y-100677000D01*
X154508200Y-102235000D02*
X155143200Y-102870000D01*
D35*
X144752968Y-100314200D02*
X144751968Y-100313200D01*
X125425200Y-103682800D02*
X119405400Y-109702600D01*
D34*
X155143200Y-102870000D02*
X155824400Y-102870000D01*
D35*
X141841804Y-100314200D02*
X140486004Y-98958400D01*
X144751968Y-100313200D02*
X142620032Y-100313200D01*
X147987996Y-100514000D02*
X147788196Y-100314200D01*
X152986000Y-102184200D02*
X149659610Y-102184200D01*
X136991600Y-98958400D02*
X132267200Y-103682800D01*
X149659610Y-102184200D02*
X147989410Y-100514000D01*
X116916200Y-112744600D02*
X118211600Y-114040000D01*
X117576600Y-109702600D02*
X116916200Y-110363000D01*
D40*
%TO.N,/+12V*%
X112852200Y-111607600D02*
X112852200Y-113868200D01*
X115671600Y-111500000D02*
X115564000Y-111607600D01*
D41*
X109982000Y-116877800D02*
X109982000Y-115156400D01*
D40*
X115564000Y-111607600D02*
X112852200Y-111607600D01*
X111588000Y-115132400D02*
X109958000Y-115132400D01*
X112852200Y-113868200D02*
X111588000Y-115132400D01*
D41*
X109982000Y-115156400D02*
X109958000Y-115132400D01*
D34*
%TO.N,+5V*%
X152986000Y-97155000D02*
X153036800Y-97104200D01*
D35*
X130149600Y-101688400D02*
X127838200Y-101688400D01*
D34*
X143611600Y-91923600D02*
X142368000Y-91923600D01*
D35*
X151028400Y-95148400D02*
X155702000Y-95148400D01*
D40*
X135407400Y-111607600D02*
X158198000Y-111607600D01*
D35*
X155702000Y-95148400D02*
X155752800Y-95199200D01*
D34*
X131521200Y-93522800D02*
X133375400Y-91668600D01*
D38*
X130124200Y-101663000D02*
X130149600Y-101688400D01*
D34*
X143611600Y-91923600D02*
X145897600Y-91923600D01*
X142368000Y-91923600D02*
X142290800Y-91846400D01*
X142113000Y-91668600D02*
X142290800Y-91846400D01*
D40*
X133248400Y-115695000D02*
X133248400Y-113766600D01*
D34*
X155790600Y-97231200D02*
X155790600Y-95237000D01*
D40*
X160223200Y-109582400D02*
X160223200Y-96977200D01*
D42*
X149910800Y-110311200D02*
X148348200Y-110311200D01*
D40*
X133248400Y-113766600D02*
X135407400Y-111607600D01*
X104419400Y-118084600D02*
X105613200Y-116890800D01*
X116027200Y-115976400D02*
X113842800Y-118160800D01*
D35*
X127838200Y-101688400D02*
X127762000Y-101612200D01*
D38*
X127774200Y-101600000D02*
X127762000Y-101612200D01*
D42*
X146761200Y-110299000D02*
X148336000Y-110299000D01*
D34*
X153036800Y-97104200D02*
X155663600Y-97104200D01*
D35*
X117398800Y-94107000D02*
X119278400Y-94107000D01*
X116675400Y-93383600D02*
X117398800Y-94107000D01*
D40*
X158198000Y-111607600D02*
X160223200Y-109582400D01*
X125905800Y-115695000D02*
X125831600Y-115620800D01*
D34*
X130150000Y-101525000D02*
X130732600Y-101525000D01*
D38*
X127800000Y-101675000D02*
X127812000Y-101663000D01*
D40*
X113842800Y-118160800D02*
X113842800Y-120142000D01*
D38*
X127812000Y-101663000D02*
X130124200Y-101663000D01*
D35*
X149301200Y-89535000D02*
X150241000Y-90474800D01*
D34*
X145186400Y-110299000D02*
X145013700Y-110471700D01*
X155956000Y-97396600D02*
X155790600Y-97231200D01*
D35*
X123850400Y-89535000D02*
X149301200Y-89535000D01*
X119278400Y-94107000D02*
X123850400Y-89535000D01*
X150241000Y-94361000D02*
X151028400Y-95148400D01*
X116675400Y-92710000D02*
X116675400Y-93383600D01*
D34*
X151485600Y-110299000D02*
X153060400Y-110299000D01*
X148348200Y-110311200D02*
X148336000Y-110299000D01*
X149910800Y-110311200D02*
X151473400Y-110311200D01*
X155790600Y-95237000D02*
X155752800Y-95199200D01*
D40*
X132967000Y-115976400D02*
X116027200Y-115976400D01*
X113842800Y-120142000D02*
X111988600Y-121996200D01*
D34*
X155956000Y-99149400D02*
X155956000Y-97396600D01*
D40*
X158445200Y-95199200D02*
X155752800Y-95199200D01*
X106984800Y-116890800D02*
X106984800Y-115159200D01*
D34*
X133375400Y-91668600D02*
X142113000Y-91668600D01*
D40*
X106984800Y-115159200D02*
X106958000Y-115132400D01*
X104419400Y-121005600D02*
X104419400Y-118084600D01*
D34*
X145186400Y-110299000D02*
X146761200Y-110299000D01*
D40*
X111988600Y-121996200D02*
X105410000Y-121996200D01*
D42*
X148336000Y-110299000D02*
X148336000Y-111746400D01*
D34*
X130732600Y-101525000D02*
X131521200Y-100736400D01*
D40*
X105410000Y-121996200D02*
X104419400Y-121005600D01*
X105613200Y-116890800D02*
X106984800Y-116890800D01*
X133248400Y-115695000D02*
X132967000Y-115976400D01*
D34*
X151473400Y-110311200D02*
X151485600Y-110299000D01*
D35*
X150241000Y-90474800D02*
X150241000Y-94361000D01*
D34*
X155663600Y-97104200D02*
X155790600Y-97231200D01*
X145897600Y-91923600D02*
X148031200Y-91923600D01*
X145013700Y-110471700D02*
X145013700Y-110510300D01*
D40*
X125831600Y-115620800D02*
X125831600Y-114040000D01*
D34*
X131521200Y-100736400D02*
X131521200Y-93522800D01*
D40*
X160223200Y-96977200D02*
X158445200Y-95199200D01*
D34*
%TO.N,Net-(IC2-A2)*%
X140411200Y-98247200D02*
X140411200Y-95504000D01*
X143686000Y-99695000D02*
X141859000Y-99695000D01*
X148031200Y-96374799D02*
X144710999Y-99695000D01*
X148031200Y-93573600D02*
X148031200Y-95295799D01*
X144710999Y-99695000D02*
X143686000Y-99695000D01*
X148031200Y-95295799D02*
X148031200Y-96374799D01*
X139625406Y-94718206D02*
X137883935Y-94718206D01*
X141859000Y-99695000D02*
X140411200Y-98247200D01*
X140411200Y-95504000D02*
X139625406Y-94718206D01*
%TO.N,Net-(IC2-SDA)*%
X111353600Y-97256600D02*
X113522800Y-95087400D01*
X149275800Y-90195400D02*
X149656800Y-90576400D01*
X149656800Y-96062800D02*
X152019000Y-98425000D01*
X152019000Y-98425000D02*
X152986000Y-98425000D01*
X118747300Y-95087400D02*
X119542600Y-95087400D01*
X127723935Y-94718206D02*
X127723935Y-91630465D01*
X111353600Y-99653000D02*
X111353600Y-97256600D01*
X127723935Y-91630465D02*
X129159000Y-90195400D01*
X127609935Y-92850000D02*
X127723935Y-92964000D01*
X127723935Y-92964000D02*
X127723935Y-94718206D01*
X113522800Y-95087400D02*
X118747300Y-95087400D01*
X112640200Y-100939600D02*
X111353600Y-99653000D01*
X119542600Y-95087400D02*
X121780000Y-92850000D01*
X121780000Y-92850000D02*
X127609935Y-92850000D01*
X129159000Y-90195400D02*
X149275800Y-90195400D01*
X149656800Y-90576400D02*
X149656800Y-96062800D01*
%TO.N,Net-(IC2-A1)*%
X145897600Y-93573600D02*
X145897600Y-97238399D01*
X145897600Y-97238399D02*
X144710999Y-98425000D01*
X144710999Y-98425000D02*
X143686000Y-98425000D01*
X142163800Y-98425000D02*
X141427200Y-97688400D01*
X141427200Y-97688400D02*
X141427200Y-94132400D01*
X140309600Y-93014800D02*
X135585200Y-93014800D01*
X135343935Y-93256065D02*
X135343935Y-94718206D01*
X135585200Y-93014800D02*
X135343935Y-93256065D01*
X141427200Y-94132400D02*
X140309600Y-93014800D01*
X143686000Y-98425000D02*
X142163800Y-98425000D01*
%TO.N,Net-(IC2-SCL)*%
X122732800Y-96697800D02*
X122732800Y-95453200D01*
X122443200Y-96987400D02*
X122732800Y-96697800D01*
X118186200Y-96977200D02*
X118196400Y-96987400D01*
X114503200Y-96977200D02*
X118186200Y-96977200D01*
X149098000Y-91262200D02*
X149098000Y-96977200D01*
X148717000Y-90881200D02*
X149098000Y-91262200D01*
X122732800Y-95453200D02*
X123467794Y-94718206D01*
X118747300Y-96987400D02*
X122443200Y-96987400D01*
X125183935Y-94718206D02*
X126477729Y-96012000D01*
X149098000Y-96977200D02*
X151815800Y-99695000D01*
X151815800Y-99695000D02*
X152986000Y-99695000D01*
X113944400Y-102277000D02*
X113944400Y-97536000D01*
X118196400Y-96987400D02*
X118747300Y-96987400D01*
X126477729Y-96012000D02*
X128473200Y-96012000D01*
X118795800Y-97035900D02*
X118747300Y-96987400D01*
X128473200Y-96012000D02*
X128981200Y-95504000D01*
X112691000Y-104207400D02*
X112691000Y-103530400D01*
X128981200Y-92252800D02*
X130352800Y-90881200D01*
X128981200Y-95504000D02*
X128981200Y-92252800D01*
X123467794Y-94718206D02*
X125183935Y-94718206D01*
X112691000Y-103530400D02*
X113944400Y-102277000D01*
X152986000Y-99695000D02*
X152987200Y-99696200D01*
X113944400Y-97536000D02*
X114503200Y-96977200D01*
X130352800Y-90881200D02*
X148717000Y-90881200D01*
%TO.N,Net-(IC2-A0)*%
X143713200Y-97127800D02*
X143686000Y-97155000D01*
X133629400Y-92329000D02*
X141452600Y-92329000D01*
X132803935Y-93154465D02*
X133629400Y-92329000D01*
X141452600Y-92329000D02*
X142697200Y-93573600D01*
X132803935Y-94718206D02*
X132803935Y-93154465D01*
X143611600Y-93573600D02*
X143713200Y-93675200D01*
X142697200Y-93573600D02*
X143611600Y-93573600D01*
X143713200Y-93675200D02*
X143713200Y-97127800D01*
%TO.N,Net-(D1-A)*%
X118350800Y-92735400D02*
X118325400Y-92710000D01*
X121793100Y-84531200D02*
X121793100Y-90398500D01*
X119456200Y-92735400D02*
X118350800Y-92735400D01*
X121793100Y-90398500D02*
X119456200Y-92735400D01*
D35*
%TO.N,/IO-ext(GPIO)*%
X119687500Y-101950000D02*
X119687500Y-100050000D01*
X122148000Y-100050000D02*
X119687500Y-100050000D01*
D34*
%TO.N,Net-(J4-Pin_1)*%
X127850000Y-99250000D02*
X127800000Y-99300000D01*
X125650000Y-98900000D02*
X127500000Y-98900000D01*
X125272800Y-97347071D02*
X125183935Y-97258206D01*
X125183935Y-97258206D02*
X125100000Y-97342141D01*
X125100000Y-98350000D02*
X125650000Y-98900000D01*
X125100000Y-97342141D02*
X125100000Y-98350000D01*
X127800000Y-99300000D02*
X127800000Y-100025000D01*
X127500000Y-98900000D02*
X127850000Y-99250000D01*
%TO.N,Net-(J4-Pin_3)*%
X127723935Y-98123935D02*
X128400000Y-98800000D01*
X128400000Y-98800000D02*
X129850000Y-98800000D01*
X130150000Y-99100000D02*
X130150000Y-99875000D01*
X127762000Y-97296271D02*
X127723935Y-97258206D01*
X129850000Y-98800000D02*
X130150000Y-99100000D01*
X127723935Y-97258206D02*
X127723935Y-98123935D01*
%TD*%
M02*
