M48
; DRILL file {KiCad 9.0.6} date 2025-12-26T20:18:56+0000
; FORMAT={-:-/ absolute / metric / decimal}
; #@! TF.CreationDate,2025-12-26T20:18:56+00:00
; #@! TF.GenerationSoftware,Kicad,Pcbnew,9.0.6
; #@! TF.FileFunction,Plated,1,2,PTH
FMAT,2
METRIC
; #@! TA.AperFunction,Plated,PTH,ViaDrill
T1C0.300
; #@! TA.AperFunction,Plated,PTH,ViaDrill
T2C0.500
; #@! TA.AperFunction,Plated,PTH,ComponentDrill
T3C0.900
; #@! TA.AperFunction,Plated,PTH,ComponentDrill
T4C1.000
; #@! TA.AperFunction,Plated,PTH,ComponentDrill
T5C1.100
%
G90
G05
T1
X119.659Y-91.11
X121.158Y-94.996
X122.148Y-100.05
X133.248Y-111.1
X135.839Y-104.597
X139.268Y-107.112
X139.344Y-101.803
X140.31Y-103.175
X140.31Y-106.324
X141.986Y-106.578
X142.291Y-91.846
X149.225Y-98.984
X150.571Y-105.867
X153.06Y-107.493
X155.753Y-95.199
X156.007Y-108.255
X157.632Y-105.181
X158.344Y-97.638
T2
X108.509Y-117.094
X129.845Y-121.92
T3
X114.81Y-86.28
X117.35Y-86.28
X144.361Y-86.28
X146.901Y-86.28
T4
X115.672Y-111.5
X115.672Y-114.04
X118.212Y-111.5
X118.212Y-114.04
X120.752Y-111.5
X120.752Y-114.04
X123.292Y-111.5
X123.292Y-114.04
X125.184Y-94.718
X125.184Y-97.258
X125.832Y-111.5
X125.832Y-114.04
X127.724Y-94.718
X127.724Y-97.258
X128.372Y-111.5
X128.372Y-114.04
X130.264Y-94.718
X130.264Y-97.258
X132.804Y-94.718
X132.804Y-97.258
X135.344Y-94.718
X135.344Y-97.258
X137.884Y-94.718
X137.884Y-97.258
T5
X112.64Y-98.4
X112.64Y-100.94
X112.64Y-103.48
X115.18Y-98.4
X115.18Y-100.94
X115.18Y-103.48
M30
