%TF.GenerationSoftware,KiCad,Pcbnew,9.0.6*%
%TF.CreationDate,2025-12-26T20:18:53+00:00*%
%TF.ProjectId,PIDI-BOX-01-IO-6-CTRL74-A1,50494449-2d42-44f5-982d-30312d494f2d,rev?*%
%TF.SameCoordinates,Original*%
%TF.FileFunction,Copper,L2,Bot*%
%TF.FilePolarity,Positive*%
%FSLAX46Y46*%
G04 Gerber Fmt 4.6, Leading zero omitted, Abs format (unit mm)*
G04 Created by KiCad (PCBNEW 9.0.6) date 2025-12-26 20:18:53*
%MOMM*%
%LPD*%
G01*
G04 APERTURE LIST*
%ADD10C,0.150000*%
%TA.AperFunction,ComponentPad*%
%ADD11R,1.700000X1.700000*%
%TD*%
%TA.AperFunction,ComponentPad*%
%ADD12O,1.700000X1.700000*%
%TD*%
%TA.AperFunction,ComponentPad*%
%ADD13C,1.650000*%
%TD*%
%TA.AperFunction,ComponentPad*%
%ADD14C,1.700000*%
%TD*%
%TA.AperFunction,ViaPad*%
%ADD15C,0.600000*%
%TD*%
%TA.AperFunction,ViaPad*%
%ADD16C,1.000000*%
%TD*%
%TA.AperFunction,Conductor*%
%ADD17C,0.300000*%
%TD*%
%TA.AperFunction,Conductor*%
%ADD18C,0.600000*%
%TD*%
%TA.AperFunction,Conductor*%
%ADD19C,0.400000*%
%TD*%
G04 APERTURE END LIST*
D10*
G36*
X128953852Y-91065791D02*
G01*
X128974735Y-91086674D01*
X128999470Y-91136143D01*
X128999470Y-91291208D01*
X128974734Y-91340678D01*
X128953851Y-91361561D01*
X128904384Y-91386295D01*
X128787413Y-91386295D01*
X128737944Y-91361561D01*
X128717061Y-91340677D01*
X128692327Y-91291209D01*
X128692327Y-91136142D01*
X128717061Y-91086673D01*
X128737943Y-91065791D01*
X128787413Y-91041057D01*
X128904384Y-91041057D01*
X128953852Y-91065791D01*
G37*
G36*
X130744328Y-90761029D02*
G01*
X130797222Y-90813923D01*
X130828041Y-90937196D01*
X130828041Y-91185392D01*
X130797222Y-91308666D01*
X130744327Y-91361560D01*
X130694859Y-91386295D01*
X130577888Y-91386295D01*
X130528420Y-91361561D01*
X130475524Y-91308665D01*
X130444707Y-91185394D01*
X130444707Y-90937194D01*
X130475524Y-90813923D01*
X130528419Y-90761029D01*
X130577888Y-90736295D01*
X130694859Y-90736295D01*
X130744328Y-90761029D01*
G37*
G36*
X133639566Y-90761029D02*
G01*
X133660448Y-90781911D01*
X133689418Y-90839850D01*
X133723279Y-90975292D01*
X133723279Y-91147297D01*
X133689418Y-91282738D01*
X133660448Y-91340677D01*
X133639565Y-91361561D01*
X133590097Y-91386295D01*
X133549317Y-91386295D01*
X133499848Y-91361561D01*
X133478965Y-91340677D01*
X133449995Y-91282738D01*
X133416136Y-91147299D01*
X133416136Y-90975290D01*
X133449995Y-90839851D01*
X133478965Y-90781911D01*
X133499847Y-90761029D01*
X133549317Y-90736295D01*
X133590097Y-90736295D01*
X133639566Y-90761029D01*
G37*
G36*
X136230042Y-90761029D02*
G01*
X136282936Y-90813923D01*
X136313755Y-90937196D01*
X136313755Y-91185392D01*
X136282936Y-91308666D01*
X136230041Y-91361560D01*
X136180573Y-91386295D01*
X136063602Y-91386295D01*
X136014134Y-91361561D01*
X135961238Y-91308665D01*
X135930421Y-91185394D01*
X135930421Y-90937194D01*
X135961238Y-90813923D01*
X136014133Y-90761029D01*
X136063602Y-90736295D01*
X136180573Y-90736295D01*
X136230042Y-90761029D01*
G37*
G36*
X137075659Y-91386295D02*
G01*
X136863602Y-91386295D01*
X136814134Y-91361561D01*
X136793250Y-91340676D01*
X136768516Y-91291208D01*
X136768516Y-91212334D01*
X136793250Y-91162865D01*
X136810221Y-91145893D01*
X136896163Y-91117247D01*
X137075659Y-91117247D01*
X137075659Y-91386295D01*
G37*
G36*
X137075659Y-90967247D02*
G01*
X136901698Y-90967247D01*
X136852228Y-90942512D01*
X136831346Y-90921630D01*
X136806612Y-90872161D01*
X136806612Y-90831380D01*
X136831346Y-90781911D01*
X136852228Y-90761029D01*
X136901698Y-90736295D01*
X137075659Y-90736295D01*
X137075659Y-90967247D01*
G37*
G36*
X139247087Y-91386295D02*
G01*
X139143781Y-91386295D01*
X139057839Y-91357648D01*
X139002774Y-91302582D01*
X138973804Y-91244642D01*
X138939944Y-91109202D01*
X138939944Y-91013387D01*
X138973804Y-90877946D01*
X139002774Y-90820006D01*
X139057838Y-90764942D01*
X139143781Y-90736295D01*
X139247087Y-90736295D01*
X139247087Y-91386295D01*
G37*
G36*
X125799469Y-91005342D02*
G01*
X125587412Y-91005342D01*
X125537944Y-90980608D01*
X125517061Y-90959725D01*
X125492326Y-90910255D01*
X125492326Y-90831381D01*
X125517061Y-90781911D01*
X125537944Y-90761029D01*
X125587412Y-90736295D01*
X125799469Y-90736295D01*
X125799469Y-91005342D01*
G37*
G36*
X121846603Y-91157723D02*
G01*
X121673764Y-91157723D01*
X121760183Y-90898465D01*
X121846603Y-91157723D01*
G37*
G36*
X140428039Y-91005342D02*
G01*
X140215982Y-91005342D01*
X140166514Y-90980608D01*
X140145631Y-90959725D01*
X140120896Y-90910255D01*
X140120896Y-90831381D01*
X140145631Y-90781911D01*
X140166514Y-90761029D01*
X140215982Y-90736295D01*
X140428039Y-90736295D01*
X140428039Y-91005342D01*
G37*
G36*
X140666928Y-91625184D02*
G01*
X120645355Y-91625184D01*
X120645355Y-91446663D01*
X120734244Y-91446663D01*
X120734244Y-91475927D01*
X120745443Y-91502963D01*
X120766135Y-91523655D01*
X120793171Y-91534854D01*
X120807803Y-91536295D01*
X121264946Y-91536295D01*
X121279578Y-91534854D01*
X121306614Y-91523655D01*
X121327306Y-91502963D01*
X121338505Y-91475927D01*
X121338505Y-91451915D01*
X121419106Y-91451915D01*
X121421181Y-91481105D01*
X121434267Y-91507278D01*
X121456375Y-91526452D01*
X121484137Y-91535706D01*
X121513327Y-91533631D01*
X121539500Y-91520545D01*
X121558674Y-91498437D01*
X121564668Y-91485012D01*
X121623764Y-91307723D01*
X121896603Y-91307723D01*
X121955699Y-91485012D01*
X121961693Y-91498437D01*
X121980867Y-91520545D01*
X122007040Y-91533631D01*
X122036230Y-91535706D01*
X122063993Y-91526452D01*
X122086100Y-91507278D01*
X122099186Y-91481105D01*
X122101261Y-91451915D01*
X122098001Y-91437578D01*
X121999442Y-91141901D01*
X122219958Y-91141901D01*
X122219958Y-91171165D01*
X122231157Y-91198201D01*
X122251849Y-91218893D01*
X122278885Y-91230092D01*
X122293517Y-91231533D01*
X122903040Y-91231533D01*
X122917672Y-91230092D01*
X122944708Y-91218893D01*
X122965400Y-91198201D01*
X122972941Y-91179996D01*
X123134243Y-91179996D01*
X123134243Y-91209260D01*
X123145442Y-91236296D01*
X123166134Y-91256988D01*
X123193170Y-91268187D01*
X123207802Y-91269628D01*
X123247088Y-91269628D01*
X123247088Y-91461295D01*
X123248529Y-91475927D01*
X123259728Y-91502963D01*
X123280420Y-91523655D01*
X123307456Y-91534854D01*
X123336720Y-91534854D01*
X123363756Y-91523655D01*
X123384448Y-91502963D01*
X123395647Y-91475927D01*
X123397088Y-91461295D01*
X123397088Y-91269628D01*
X123703041Y-91269628D01*
X123710446Y-91268898D01*
X123712421Y-91269039D01*
X123713846Y-91268563D01*
X123717673Y-91268187D01*
X123728780Y-91263586D01*
X123740184Y-91259785D01*
X123742220Y-91258018D01*
X123744709Y-91256988D01*
X123753208Y-91248488D01*
X123762291Y-91240611D01*
X123763495Y-91238201D01*
X123765401Y-91236296D01*
X123770003Y-91225184D01*
X123775377Y-91214437D01*
X123775567Y-91211751D01*
X123776600Y-91209260D01*
X123776600Y-91197232D01*
X123777452Y-91185247D01*
X123776600Y-91181500D01*
X123776600Y-91179996D01*
X123775841Y-91178165D01*
X123774192Y-91170911D01*
X123599741Y-90647561D01*
X123895975Y-90647561D01*
X123896148Y-90661740D01*
X123896148Y-90675927D01*
X123896326Y-90676357D01*
X123896332Y-90676822D01*
X123900771Y-90690839D01*
X124243629Y-91490839D01*
X124250717Y-91503720D01*
X124271661Y-91524158D01*
X124298831Y-91535026D01*
X124328092Y-91534670D01*
X124354990Y-91523142D01*
X124375429Y-91502199D01*
X124386297Y-91475029D01*
X124385951Y-91446663D01*
X124619958Y-91446663D01*
X124619958Y-91475927D01*
X124631157Y-91502963D01*
X124651849Y-91523655D01*
X124678885Y-91534854D01*
X124693517Y-91536295D01*
X125074469Y-91536295D01*
X125089101Y-91534854D01*
X125116137Y-91523655D01*
X125136829Y-91502963D01*
X125148028Y-91475927D01*
X125149469Y-91461295D01*
X125149469Y-90813676D01*
X125342326Y-90813676D01*
X125342326Y-90927961D01*
X125343767Y-90942593D01*
X125344797Y-90945081D01*
X125344989Y-90947771D01*
X125350244Y-90961502D01*
X125388340Y-91037693D01*
X125392303Y-91043989D01*
X125393062Y-91045820D01*
X125394753Y-91047881D01*
X125396173Y-91050136D01*
X125397668Y-91051432D01*
X125402389Y-91057185D01*
X125440484Y-91095280D01*
X125446233Y-91099998D01*
X125447533Y-91101497D01*
X125449792Y-91102918D01*
X125451849Y-91104607D01*
X125453676Y-91105364D01*
X125459976Y-91109329D01*
X125536166Y-91147424D01*
X125543517Y-91150237D01*
X125355884Y-91418285D01*
X125348673Y-91431099D01*
X125342344Y-91459670D01*
X125347429Y-91488487D01*
X125363156Y-91513166D01*
X125387130Y-91529948D01*
X125415701Y-91536277D01*
X125444518Y-91531192D01*
X125469197Y-91515465D01*
X125478768Y-91504305D01*
X125723042Y-91155342D01*
X125799469Y-91155342D01*
X125799469Y-91461295D01*
X125800910Y-91475927D01*
X125812109Y-91502963D01*
X125832801Y-91523655D01*
X125859837Y-91534854D01*
X125889101Y-91534854D01*
X125916137Y-91523655D01*
X125936829Y-91502963D01*
X125948028Y-91475927D01*
X125949469Y-91461295D01*
X125949469Y-90661295D01*
X125948028Y-90646663D01*
X126067577Y-90646663D01*
X126067577Y-90675927D01*
X126078776Y-90702963D01*
X126099468Y-90723655D01*
X126126504Y-90734854D01*
X126141136Y-90736295D01*
X126294708Y-90736295D01*
X126294708Y-91461295D01*
X126296149Y-91475927D01*
X126307348Y-91502963D01*
X126328040Y-91523655D01*
X126355076Y-91534854D01*
X126384340Y-91534854D01*
X126411376Y-91523655D01*
X126432068Y-91502963D01*
X126443267Y-91475927D01*
X126444708Y-91461295D01*
X126444708Y-90736295D01*
X126598279Y-90736295D01*
X126612911Y-90734854D01*
X126639947Y-90723655D01*
X126640749Y-90722853D01*
X126753291Y-90722853D01*
X126753291Y-90752115D01*
X126764489Y-90779152D01*
X126785182Y-90799845D01*
X126812218Y-90811044D01*
X126841480Y-90811044D01*
X126868517Y-90799846D01*
X126879882Y-90790519D01*
X126905459Y-90764942D01*
X126991401Y-90736295D01*
X127043252Y-90736295D01*
X127129194Y-90764942D01*
X127184258Y-90820006D01*
X127213228Y-90877945D01*
X127247089Y-91013387D01*
X127247089Y-91109202D01*
X127213228Y-91244643D01*
X127184258Y-91302582D01*
X127129193Y-91357648D01*
X127043252Y-91386295D01*
X126991401Y-91386295D01*
X126905460Y-91357648D01*
X126879883Y-91332071D01*
X126868518Y-91322744D01*
X126841481Y-91311545D01*
X126812219Y-91311545D01*
X126785182Y-91322744D01*
X126764490Y-91343436D01*
X126753291Y-91370473D01*
X126753291Y-91399735D01*
X126764490Y-91426772D01*
X126773817Y-91438137D01*
X126811913Y-91476233D01*
X126823278Y-91485561D01*
X126825768Y-91486592D01*
X126827803Y-91488357D01*
X126841229Y-91494351D01*
X126955514Y-91532446D01*
X126962767Y-91534095D01*
X126964599Y-91534854D01*
X126967253Y-91535115D01*
X126969851Y-91535706D01*
X126971825Y-91535565D01*
X126979231Y-91536295D01*
X127055422Y-91536295D01*
X127062827Y-91535565D01*
X127064802Y-91535706D01*
X127067399Y-91535115D01*
X127070054Y-91534854D01*
X127071885Y-91534095D01*
X127079139Y-91532446D01*
X127193425Y-91494351D01*
X127206850Y-91488357D01*
X127208885Y-91486591D01*
X127211376Y-91485560D01*
X127222741Y-91476233D01*
X127298932Y-91400041D01*
X127303649Y-91394292D01*
X127305148Y-91392993D01*
X127306569Y-91390734D01*
X127308259Y-91388676D01*
X127309016Y-91386846D01*
X127312980Y-91380550D01*
X127351075Y-91304360D01*
X127351484Y-91303290D01*
X127351807Y-91302855D01*
X127354005Y-91296703D01*
X127356330Y-91290628D01*
X127356368Y-91290089D01*
X127356754Y-91289010D01*
X127393532Y-91141901D01*
X127591387Y-91141901D01*
X127591387Y-91171165D01*
X127602586Y-91198201D01*
X127623278Y-91218893D01*
X127650314Y-91230092D01*
X127664946Y-91231533D01*
X128274469Y-91231533D01*
X128289101Y-91230092D01*
X128316137Y-91218893D01*
X128336829Y-91198201D01*
X128348028Y-91171165D01*
X128348028Y-91141901D01*
X128338309Y-91118438D01*
X128542327Y-91118438D01*
X128542327Y-91308914D01*
X128543768Y-91323546D01*
X128544799Y-91326035D01*
X128544990Y-91328723D01*
X128550245Y-91342455D01*
X128588340Y-91418645D01*
X128592303Y-91424941D01*
X128593061Y-91426771D01*
X128594750Y-91428829D01*
X128596172Y-91431088D01*
X128597670Y-91432387D01*
X128602388Y-91438136D01*
X128640483Y-91476232D01*
X128646234Y-91480952D01*
X128647533Y-91482450D01*
X128649788Y-91483869D01*
X128651848Y-91485560D01*
X128653678Y-91486318D01*
X128659976Y-91490282D01*
X128736167Y-91528377D01*
X128749899Y-91533632D01*
X128752586Y-91533822D01*
X128755076Y-91534854D01*
X128769708Y-91536295D01*
X128922089Y-91536295D01*
X128936721Y-91534854D01*
X128939210Y-91533822D01*
X128941898Y-91533632D01*
X128955630Y-91528377D01*
X129031820Y-91490282D01*
X129038119Y-91486317D01*
X129039947Y-91485560D01*
X129042003Y-91483872D01*
X129044263Y-91482450D01*
X129045563Y-91480950D01*
X129051313Y-91476232D01*
X129089408Y-91438136D01*
X129094128Y-91432384D01*
X129095623Y-91431088D01*
X129097042Y-91428833D01*
X129098735Y-91426771D01*
X129099493Y-91424940D01*
X129103456Y-91418646D01*
X129141551Y-91342456D01*
X129146806Y-91328724D01*
X129146996Y-91326037D01*
X129148029Y-91323546D01*
X129149470Y-91308914D01*
X129149470Y-91141901D01*
X129343768Y-91141901D01*
X129343768Y-91171165D01*
X129354967Y-91198201D01*
X129375659Y-91218893D01*
X129402695Y-91230092D01*
X129417327Y-91231533D01*
X130026850Y-91231533D01*
X130041482Y-91230092D01*
X130068518Y-91218893D01*
X130089210Y-91198201D01*
X130100409Y-91171165D01*
X130100409Y-91141901D01*
X130089210Y-91114865D01*
X130068518Y-91094173D01*
X130041482Y-91082974D01*
X130026850Y-91081533D01*
X129417327Y-91081533D01*
X129402695Y-91082974D01*
X129375659Y-91094173D01*
X129354967Y-91114865D01*
X129343768Y-91141901D01*
X129149470Y-91141901D01*
X129149470Y-91004152D01*
X129149218Y-91001598D01*
X129149381Y-91000506D01*
X129148571Y-90995032D01*
X129148029Y-90989520D01*
X129147606Y-90988498D01*
X129147231Y-90985962D01*
X129132731Y-90927961D01*
X130294707Y-90927961D01*
X130294707Y-91194628D01*
X130294958Y-91197181D01*
X130294796Y-91198273D01*
X130295604Y-91203745D01*
X130296148Y-91209260D01*
X130296571Y-91210281D01*
X130296946Y-91212818D01*
X130335041Y-91365199D01*
X130339988Y-91379045D01*
X130343308Y-91383526D01*
X130345442Y-91388677D01*
X130354769Y-91400042D01*
X130430960Y-91476233D01*
X130436709Y-91480951D01*
X130438009Y-91482450D01*
X130440268Y-91483871D01*
X130442325Y-91485560D01*
X130444152Y-91486317D01*
X130450452Y-91490282D01*
X130526642Y-91528377D01*
X130540374Y-91533632D01*
X130543061Y-91533822D01*
X130545551Y-91534854D01*
X130560183Y-91536295D01*
X130712564Y-91536295D01*
X130727196Y-91534854D01*
X130729685Y-91533822D01*
X130732373Y-91533632D01*
X130746105Y-91528377D01*
X130822296Y-91490282D01*
X130828595Y-91486317D01*
X130830423Y-91485560D01*
X130832479Y-91483871D01*
X130834739Y-91482450D01*
X130836038Y-91480951D01*
X130841788Y-91476233D01*
X130917979Y-91400041D01*
X130927306Y-91388676D01*
X130929439Y-91383525D01*
X130932759Y-91379045D01*
X130937706Y-91365200D01*
X130975802Y-91212818D01*
X130976177Y-91210281D01*
X130976600Y-91209260D01*
X130977142Y-91203747D01*
X130977952Y-91198274D01*
X130977789Y-91197181D01*
X130978041Y-91194628D01*
X130978041Y-90927961D01*
X130977789Y-90925407D01*
X130977952Y-90924315D01*
X130977142Y-90918841D01*
X130976600Y-90913329D01*
X130976177Y-90912307D01*
X130975802Y-90909771D01*
X130937706Y-90757389D01*
X130932759Y-90743544D01*
X130929440Y-90739064D01*
X130927306Y-90733912D01*
X130917978Y-90722547D01*
X130856726Y-90661295D01*
X131170897Y-90661295D01*
X131170897Y-91461295D01*
X131172338Y-91475927D01*
X131183537Y-91502963D01*
X131204229Y-91523655D01*
X131231265Y-91534854D01*
X131260529Y-91534854D01*
X131287565Y-91523655D01*
X131308257Y-91502963D01*
X131319456Y-91475927D01*
X131320897Y-91461295D01*
X131320897Y-91446663D01*
X132505672Y-91446663D01*
X132505672Y-91475927D01*
X132516871Y-91502963D01*
X132537563Y-91523655D01*
X132564599Y-91534854D01*
X132579231Y-91536295D01*
X133036374Y-91536295D01*
X133051006Y-91534854D01*
X133078042Y-91523655D01*
X133098734Y-91502963D01*
X133109933Y-91475927D01*
X133109933Y-91446663D01*
X133098734Y-91419627D01*
X133078042Y-91398935D01*
X133051006Y-91387736D01*
X133036374Y-91386295D01*
X132882802Y-91386295D01*
X132882802Y-90966057D01*
X133266136Y-90966057D01*
X133266136Y-91156533D01*
X133266387Y-91159086D01*
X133266225Y-91160178D01*
X133267033Y-91165650D01*
X133267577Y-91171165D01*
X133268000Y-91172186D01*
X133268375Y-91174723D01*
X133306470Y-91327104D01*
X133306855Y-91328183D01*
X133306894Y-91328723D01*
X133309221Y-91334804D01*
X133311417Y-91340950D01*
X133311739Y-91341385D01*
X133312149Y-91342455D01*
X133350244Y-91418645D01*
X133354207Y-91424941D01*
X133354965Y-91426771D01*
X133356654Y-91428829D01*
X133358076Y-91431088D01*
X133359574Y-91432387D01*
X133364292Y-91438136D01*
X133402387Y-91476232D01*
X133408138Y-91480952D01*
X133409437Y-91482450D01*
X133411692Y-91483869D01*
X133413752Y-91485560D01*
X133415582Y-91486318D01*
X133421880Y-91490282D01*
X133498071Y-91528377D01*
X133511803Y-91533632D01*
X133514490Y-91533822D01*
X133516980Y-91534854D01*
X133531612Y-91536295D01*
X133607802Y-91536295D01*
X133622434Y-91534854D01*
X133624923Y-91533822D01*
X133627611Y-91533632D01*
X133641343Y-91528377D01*
X133717534Y-91490282D01*
X133723833Y-91486317D01*
X133725661Y-91485560D01*
X133727717Y-91483872D01*
X133729977Y-91482450D01*
X133731277Y-91480950D01*
X133737027Y-91476232D01*
X133775122Y-91438136D01*
X133779839Y-91432387D01*
X133781338Y-91431088D01*
X133782759Y-91428829D01*
X133784449Y-91426771D01*
X133785206Y-91424941D01*
X133789170Y-91418645D01*
X133827265Y-91342455D01*
X133827674Y-91341385D01*
X133827997Y-91340950D01*
X133830195Y-91334798D01*
X133832520Y-91328723D01*
X133832558Y-91328184D01*
X133832944Y-91327105D01*
X133871040Y-91174723D01*
X133871415Y-91172186D01*
X133871838Y-91171165D01*
X133872380Y-91165652D01*
X133873190Y-91160179D01*
X133873027Y-91159086D01*
X133873279Y-91156533D01*
X133873279Y-91141901D01*
X134067577Y-91141901D01*
X134067577Y-91171165D01*
X134078776Y-91198201D01*
X134099468Y-91218893D01*
X134126504Y-91230092D01*
X134141136Y-91231533D01*
X134750659Y-91231533D01*
X134765291Y-91230092D01*
X134792327Y-91218893D01*
X134813019Y-91198201D01*
X134824218Y-91171165D01*
X134824218Y-91141901D01*
X134813019Y-91114865D01*
X134792327Y-91094173D01*
X134765291Y-91082974D01*
X134750659Y-91081533D01*
X134141136Y-91081533D01*
X134126504Y-91082974D01*
X134099468Y-91094173D01*
X134078776Y-91114865D01*
X134067577Y-91141901D01*
X133873279Y-91141901D01*
X133873279Y-90966057D01*
X133873027Y-90963503D01*
X133873190Y-90962411D01*
X133872380Y-90956937D01*
X133871838Y-90951425D01*
X133871415Y-90950403D01*
X133871040Y-90947867D01*
X133832944Y-90795485D01*
X133832558Y-90794405D01*
X133832520Y-90793867D01*
X133830195Y-90787791D01*
X133827997Y-90781640D01*
X133827674Y-90781204D01*
X133827265Y-90780135D01*
X133789170Y-90703944D01*
X133785205Y-90697644D01*
X133784448Y-90695817D01*
X133782759Y-90693760D01*
X133781338Y-90691501D01*
X133779839Y-90690201D01*
X133775121Y-90684452D01*
X133751885Y-90661216D01*
X134980421Y-90661216D01*
X134986100Y-90689924D01*
X134993017Y-90702898D01*
X135231948Y-91061295D01*
X134993017Y-91419692D01*
X134986100Y-91432666D01*
X134980421Y-91461374D01*
X134986160Y-91490068D01*
X135002443Y-91514383D01*
X135026792Y-91530616D01*
X135055500Y-91536295D01*
X135084194Y-91530556D01*
X135108509Y-91514273D01*
X135117825Y-91502898D01*
X135322087Y-91196503D01*
X135526351Y-91502898D01*
X135535667Y-91514273D01*
X135559982Y-91530556D01*
X135588676Y-91536295D01*
X135617384Y-91530616D01*
X135641733Y-91514384D01*
X135658016Y-91490069D01*
X135663755Y-91461374D01*
X135658076Y-91432667D01*
X135651159Y-91419693D01*
X135412227Y-91061295D01*
X135501116Y-90927961D01*
X135780421Y-90927961D01*
X135780421Y-91194628D01*
X135780672Y-91197181D01*
X135780510Y-91198273D01*
X135781318Y-91203745D01*
X135781862Y-91209260D01*
X135782285Y-91210281D01*
X135782660Y-91212818D01*
X135820755Y-91365199D01*
X135825702Y-91379045D01*
X135829022Y-91383526D01*
X135831156Y-91388677D01*
X135840483Y-91400042D01*
X135916674Y-91476233D01*
X135922423Y-91480951D01*
X135923723Y-91482450D01*
X135925982Y-91483871D01*
X135928039Y-91485560D01*
X135929866Y-91486317D01*
X135936166Y-91490282D01*
X136012356Y-91528377D01*
X136026088Y-91533632D01*
X136028775Y-91533822D01*
X136031265Y-91534854D01*
X136045897Y-91536295D01*
X136198278Y-91536295D01*
X136212910Y-91534854D01*
X136215399Y-91533822D01*
X136218087Y-91533632D01*
X136231819Y-91528377D01*
X136308010Y-91490282D01*
X136314309Y-91486317D01*
X136316137Y-91485560D01*
X136318193Y-91483871D01*
X136320453Y-91482450D01*
X136321752Y-91480951D01*
X136327502Y-91476233D01*
X136403693Y-91400041D01*
X136413020Y-91388676D01*
X136415153Y-91383525D01*
X136418473Y-91379045D01*
X136423420Y-91365200D01*
X136461516Y-91212818D01*
X136461891Y-91210281D01*
X136462314Y-91209260D01*
X136462856Y-91203747D01*
X136463666Y-91198274D01*
X136463503Y-91197181D01*
X136463755Y-91194628D01*
X136618516Y-91194628D01*
X136618516Y-91308914D01*
X136619957Y-91323546D01*
X136620987Y-91326034D01*
X136621179Y-91328724D01*
X136626434Y-91342456D01*
X136664530Y-91418645D01*
X136668492Y-91424939D01*
X136669251Y-91426771D01*
X136670944Y-91428834D01*
X136672363Y-91431088D01*
X136673857Y-91432384D01*
X136678578Y-91438136D01*
X136716673Y-91476232D01*
X136722424Y-91480952D01*
X136723723Y-91482450D01*
X136725978Y-91483869D01*
X136728038Y-91485560D01*
X136729868Y-91486318D01*
X136736166Y-91490282D01*
X136812356Y-91528377D01*
X136826088Y-91533632D01*
X136828775Y-91533822D01*
X136831265Y-91534854D01*
X136845897Y-91536295D01*
X137150659Y-91536295D01*
X137165291Y-91534854D01*
X137192327Y-91523655D01*
X137213019Y-91502963D01*
X137224218Y-91475927D01*
X137225659Y-91461295D01*
X137225659Y-91141901D01*
X137458053Y-91141901D01*
X137458053Y-91171165D01*
X137469252Y-91198201D01*
X137489944Y-91218893D01*
X137516980Y-91230092D01*
X137531612Y-91231533D01*
X138141135Y-91231533D01*
X138155767Y-91230092D01*
X138182803Y-91218893D01*
X138203495Y-91198201D01*
X138214694Y-91171165D01*
X138214694Y-91141901D01*
X138203495Y-91114865D01*
X138182803Y-91094173D01*
X138155767Y-91082974D01*
X138141135Y-91081533D01*
X137531612Y-91081533D01*
X137516980Y-91082974D01*
X137489944Y-91094173D01*
X137469252Y-91114865D01*
X137458053Y-91141901D01*
X137225659Y-91141901D01*
X137225659Y-90661295D01*
X138447087Y-90661295D01*
X138447087Y-91461295D01*
X138448528Y-91475927D01*
X138459727Y-91502963D01*
X138480419Y-91523655D01*
X138507455Y-91534854D01*
X138536719Y-91534854D01*
X138563755Y-91523655D01*
X138584447Y-91502963D01*
X138595646Y-91475927D01*
X138597087Y-91461295D01*
X138597087Y-91004152D01*
X138789944Y-91004152D01*
X138789944Y-91118438D01*
X138790195Y-91120991D01*
X138790033Y-91122084D01*
X138790842Y-91127558D01*
X138791385Y-91133070D01*
X138791807Y-91134090D01*
X138792183Y-91136629D01*
X138830279Y-91289010D01*
X138830664Y-91290089D01*
X138830703Y-91290628D01*
X138833027Y-91296703D01*
X138835226Y-91302855D01*
X138835548Y-91303290D01*
X138835958Y-91304360D01*
X138874053Y-91380550D01*
X138878016Y-91386846D01*
X138878774Y-91388676D01*
X138880463Y-91390734D01*
X138881885Y-91392993D01*
X138883383Y-91394292D01*
X138888102Y-91400042D01*
X138964292Y-91476233D01*
X138975657Y-91485560D01*
X138978147Y-91486591D01*
X138980183Y-91488357D01*
X138993608Y-91494351D01*
X139107894Y-91532446D01*
X139115147Y-91534095D01*
X139116979Y-91534854D01*
X139119633Y-91535115D01*
X139122231Y-91535706D01*
X139124205Y-91535565D01*
X139131611Y-91536295D01*
X139322087Y-91536295D01*
X139336719Y-91534854D01*
X139363755Y-91523655D01*
X139384447Y-91502963D01*
X139395646Y-91475927D01*
X139397087Y-91461295D01*
X139397087Y-90661295D01*
X139628039Y-90661295D01*
X139628039Y-91461295D01*
X139629480Y-91475927D01*
X139640679Y-91502963D01*
X139661371Y-91523655D01*
X139688407Y-91534854D01*
X139717671Y-91534854D01*
X139744707Y-91523655D01*
X139765399Y-91502963D01*
X139776598Y-91475927D01*
X139778039Y-91461295D01*
X139778039Y-90813676D01*
X139970896Y-90813676D01*
X139970896Y-90927961D01*
X139972337Y-90942593D01*
X139973367Y-90945081D01*
X139973559Y-90947771D01*
X139978814Y-90961502D01*
X140016910Y-91037693D01*
X140020873Y-91043989D01*
X140021632Y-91045820D01*
X140023323Y-91047881D01*
X140024743Y-91050136D01*
X140026238Y-91051432D01*
X140030959Y-91057185D01*
X140069054Y-91095280D01*
X140074803Y-91099998D01*
X140076103Y-91101497D01*
X140078362Y-91102918D01*
X140080419Y-91104607D01*
X140082246Y-91105364D01*
X140088546Y-91109329D01*
X140164736Y-91147424D01*
X140178468Y-91152679D01*
X140181155Y-91152869D01*
X140183645Y-91153901D01*
X140198277Y-91155342D01*
X140428039Y-91155342D01*
X140428039Y-91461295D01*
X140429480Y-91475927D01*
X140440679Y-91502963D01*
X140461371Y-91523655D01*
X140488407Y-91534854D01*
X140517671Y-91534854D01*
X140544707Y-91523655D01*
X140565399Y-91502963D01*
X140576598Y-91475927D01*
X140578039Y-91461295D01*
X140578039Y-90661295D01*
X140576598Y-90646663D01*
X140565399Y-90619627D01*
X140544707Y-90598935D01*
X140517671Y-90587736D01*
X140503039Y-90586295D01*
X140198277Y-90586295D01*
X140183645Y-90587736D01*
X140181155Y-90588767D01*
X140178468Y-90588958D01*
X140164736Y-90594213D01*
X140088546Y-90632308D01*
X140082246Y-90636272D01*
X140080419Y-90637030D01*
X140078362Y-90638718D01*
X140076103Y-90640140D01*
X140074803Y-90641638D01*
X140069054Y-90646357D01*
X140030959Y-90684452D01*
X140026238Y-90690204D01*
X140024743Y-90691501D01*
X140023323Y-90693755D01*
X140021632Y-90695817D01*
X140020873Y-90697647D01*
X140016910Y-90703944D01*
X139978814Y-90780135D01*
X139973559Y-90793866D01*
X139973367Y-90796555D01*
X139972337Y-90799044D01*
X139970896Y-90813676D01*
X139778039Y-90813676D01*
X139778039Y-90661295D01*
X139776598Y-90646663D01*
X139765399Y-90619627D01*
X139744707Y-90598935D01*
X139717671Y-90587736D01*
X139688407Y-90587736D01*
X139661371Y-90598935D01*
X139640679Y-90619627D01*
X139629480Y-90646663D01*
X139628039Y-90661295D01*
X139397087Y-90661295D01*
X139395646Y-90646663D01*
X139384447Y-90619627D01*
X139363755Y-90598935D01*
X139336719Y-90587736D01*
X139322087Y-90586295D01*
X139131611Y-90586295D01*
X139124205Y-90587024D01*
X139122231Y-90586884D01*
X139119633Y-90587474D01*
X139116979Y-90587736D01*
X139115147Y-90588494D01*
X139107894Y-90590144D01*
X138993608Y-90628239D01*
X138980183Y-90634233D01*
X138978149Y-90635996D01*
X138975657Y-90637029D01*
X138964292Y-90646357D01*
X138888102Y-90722547D01*
X138883383Y-90728296D01*
X138881885Y-90729596D01*
X138880463Y-90731855D01*
X138878775Y-90733912D01*
X138878017Y-90735739D01*
X138874053Y-90742039D01*
X138835958Y-90818230D01*
X138835548Y-90819299D01*
X138835226Y-90819735D01*
X138833027Y-90825886D01*
X138830703Y-90831962D01*
X138830664Y-90832500D01*
X138830279Y-90833580D01*
X138792183Y-90985961D01*
X138791807Y-90988499D01*
X138791385Y-90989520D01*
X138790842Y-90995031D01*
X138790033Y-91000506D01*
X138790195Y-91001598D01*
X138789944Y-91004152D01*
X138597087Y-91004152D01*
X138597087Y-90661295D01*
X138595646Y-90646663D01*
X138584447Y-90619627D01*
X138563755Y-90598935D01*
X138536719Y-90587736D01*
X138507455Y-90587736D01*
X138480419Y-90598935D01*
X138459727Y-90619627D01*
X138448528Y-90646663D01*
X138447087Y-90661295D01*
X137225659Y-90661295D01*
X137224218Y-90646663D01*
X137213019Y-90619627D01*
X137192327Y-90598935D01*
X137165291Y-90587736D01*
X137150659Y-90586295D01*
X136883993Y-90586295D01*
X136869361Y-90587736D01*
X136866871Y-90588767D01*
X136864184Y-90588958D01*
X136850452Y-90594213D01*
X136774261Y-90632308D01*
X136767961Y-90636272D01*
X136766134Y-90637030D01*
X136764077Y-90638718D01*
X136761818Y-90640140D01*
X136760518Y-90641638D01*
X136754769Y-90646357D01*
X136716674Y-90684452D01*
X136711955Y-90690201D01*
X136710457Y-90691501D01*
X136709035Y-90693760D01*
X136707347Y-90695817D01*
X136706589Y-90697644D01*
X136702625Y-90703944D01*
X136664530Y-90780135D01*
X136659275Y-90793867D01*
X136659084Y-90796554D01*
X136658053Y-90799044D01*
X136656612Y-90813676D01*
X136656612Y-90889866D01*
X136658053Y-90904498D01*
X136659084Y-90906987D01*
X136659275Y-90909675D01*
X136664530Y-90923407D01*
X136702625Y-90999598D01*
X136706589Y-91005897D01*
X136707347Y-91007725D01*
X136709035Y-91009781D01*
X136710457Y-91012041D01*
X136711955Y-91013340D01*
X136716674Y-91019090D01*
X136721188Y-91023604D01*
X136716673Y-91027310D01*
X136678578Y-91065406D01*
X136673857Y-91071157D01*
X136672363Y-91072454D01*
X136670944Y-91074707D01*
X136669251Y-91076771D01*
X136668492Y-91078602D01*
X136664530Y-91084897D01*
X136626434Y-91161086D01*
X136621179Y-91174818D01*
X136620987Y-91177507D01*
X136619957Y-91179996D01*
X136618516Y-91194628D01*
X136463755Y-91194628D01*
X136463755Y-90927961D01*
X136463503Y-90925407D01*
X136463666Y-90924315D01*
X136462856Y-90918841D01*
X136462314Y-90913329D01*
X136461891Y-90912307D01*
X136461516Y-90909771D01*
X136423420Y-90757389D01*
X136418473Y-90743544D01*
X136415154Y-90739064D01*
X136413020Y-90733912D01*
X136403692Y-90722547D01*
X136327502Y-90646357D01*
X136321752Y-90641638D01*
X136320453Y-90640140D01*
X136318193Y-90638718D01*
X136316137Y-90637030D01*
X136314309Y-90636272D01*
X136308010Y-90632308D01*
X136231819Y-90594213D01*
X136218087Y-90588958D01*
X136215399Y-90588767D01*
X136212910Y-90587736D01*
X136198278Y-90586295D01*
X136045897Y-90586295D01*
X136031265Y-90587736D01*
X136028775Y-90588767D01*
X136026088Y-90588958D01*
X136012356Y-90594213D01*
X135936166Y-90632308D01*
X135929869Y-90636271D01*
X135928040Y-90637029D01*
X135925981Y-90638718D01*
X135923723Y-90640140D01*
X135922423Y-90641638D01*
X135916675Y-90646356D01*
X135840483Y-90722547D01*
X135831156Y-90733912D01*
X135829022Y-90739062D01*
X135825702Y-90743544D01*
X135820755Y-90757390D01*
X135782660Y-90909771D01*
X135782285Y-90912307D01*
X135781862Y-90913329D01*
X135781318Y-90918843D01*
X135780510Y-90924316D01*
X135780672Y-90925407D01*
X135780421Y-90927961D01*
X135501116Y-90927961D01*
X135651159Y-90702897D01*
X135658076Y-90689923D01*
X135663755Y-90661216D01*
X135658016Y-90632521D01*
X135641733Y-90608206D01*
X135617384Y-90591974D01*
X135588676Y-90586295D01*
X135559982Y-90592034D01*
X135535667Y-90608317D01*
X135526351Y-90619692D01*
X135322087Y-90926086D01*
X135117825Y-90619692D01*
X135108509Y-90608317D01*
X135084194Y-90592034D01*
X135055500Y-90586295D01*
X135026792Y-90591974D01*
X135002443Y-90608207D01*
X134986160Y-90632522D01*
X134980421Y-90661216D01*
X133751885Y-90661216D01*
X133737026Y-90646357D01*
X133731276Y-90641638D01*
X133729977Y-90640140D01*
X133727717Y-90638718D01*
X133725661Y-90637030D01*
X133723833Y-90636272D01*
X133717534Y-90632308D01*
X133641343Y-90594213D01*
X133627611Y-90588958D01*
X133624923Y-90588767D01*
X133622434Y-90587736D01*
X133607802Y-90586295D01*
X133531612Y-90586295D01*
X133516980Y-90587736D01*
X133514490Y-90588767D01*
X133511803Y-90588958D01*
X133498071Y-90594213D01*
X133421880Y-90632308D01*
X133415580Y-90636272D01*
X133413753Y-90637030D01*
X133411696Y-90638718D01*
X133409437Y-90640140D01*
X133408137Y-90641638D01*
X133402388Y-90646357D01*
X133364293Y-90684452D01*
X133359574Y-90690201D01*
X133358076Y-90691501D01*
X133356654Y-90693760D01*
X133354966Y-90695817D01*
X133354208Y-90697644D01*
X133350244Y-90703944D01*
X133312149Y-90780135D01*
X133311739Y-90781204D01*
X133311417Y-90781640D01*
X133309221Y-90787785D01*
X133306894Y-90793867D01*
X133306855Y-90794406D01*
X133306470Y-90795486D01*
X133268375Y-90947867D01*
X133268000Y-90950403D01*
X133267577Y-90951425D01*
X133267033Y-90956939D01*
X133266225Y-90962412D01*
X133266387Y-90963503D01*
X133266136Y-90966057D01*
X132882802Y-90966057D01*
X132882802Y-90880455D01*
X132907150Y-90904804D01*
X132912899Y-90909522D01*
X132914199Y-90911021D01*
X132916458Y-90912442D01*
X132918515Y-90914131D01*
X132920342Y-90914888D01*
X132926642Y-90918853D01*
X133002833Y-90956948D01*
X133016565Y-90962203D01*
X133045755Y-90964277D01*
X133073516Y-90955023D01*
X133095624Y-90935850D01*
X133108711Y-90909675D01*
X133110785Y-90880485D01*
X133101531Y-90852724D01*
X133082358Y-90830616D01*
X133069915Y-90822784D01*
X133004610Y-90790131D01*
X132942278Y-90727800D01*
X132870206Y-90619692D01*
X132870171Y-90619649D01*
X132870162Y-90619627D01*
X132870110Y-90619575D01*
X132860890Y-90608317D01*
X132854720Y-90604185D01*
X132849470Y-90598935D01*
X132842680Y-90596122D01*
X132836575Y-90592034D01*
X132829294Y-90590577D01*
X132822434Y-90587736D01*
X132815085Y-90587736D01*
X132807880Y-90586295D01*
X132800596Y-90587736D01*
X132793170Y-90587736D01*
X132786381Y-90590547D01*
X132779173Y-90591974D01*
X132772994Y-90596093D01*
X132766134Y-90598935D01*
X132760938Y-90604130D01*
X132754824Y-90608207D01*
X132750692Y-90614376D01*
X132745442Y-90619627D01*
X132742629Y-90626416D01*
X132738541Y-90632522D01*
X132737084Y-90639802D01*
X132734243Y-90646663D01*
X132732817Y-90661141D01*
X132732802Y-90661217D01*
X132732807Y-90661242D01*
X132732802Y-90661295D01*
X132732802Y-91386295D01*
X132579231Y-91386295D01*
X132564599Y-91387736D01*
X132537563Y-91398935D01*
X132516871Y-91419627D01*
X132505672Y-91446663D01*
X131320897Y-91446663D01*
X131320897Y-91141901D01*
X131553291Y-91141901D01*
X131553291Y-91171165D01*
X131564490Y-91198201D01*
X131585182Y-91218893D01*
X131612218Y-91230092D01*
X131626850Y-91231533D01*
X132236373Y-91231533D01*
X132251005Y-91230092D01*
X132278041Y-91218893D01*
X132298733Y-91198201D01*
X132309932Y-91171165D01*
X132309932Y-91141901D01*
X132298733Y-91114865D01*
X132278041Y-91094173D01*
X132251005Y-91082974D01*
X132236373Y-91081533D01*
X131626850Y-91081533D01*
X131612218Y-91082974D01*
X131585182Y-91094173D01*
X131564490Y-91114865D01*
X131553291Y-91141901D01*
X131320897Y-91141901D01*
X131320897Y-90661295D01*
X131319456Y-90646663D01*
X131308257Y-90619627D01*
X131287565Y-90598935D01*
X131260529Y-90587736D01*
X131231265Y-90587736D01*
X131204229Y-90598935D01*
X131183537Y-90619627D01*
X131172338Y-90646663D01*
X131170897Y-90661295D01*
X130856726Y-90661295D01*
X130841788Y-90646357D01*
X130836038Y-90641638D01*
X130834739Y-90640140D01*
X130832479Y-90638718D01*
X130830423Y-90637030D01*
X130828595Y-90636272D01*
X130822296Y-90632308D01*
X130746105Y-90594213D01*
X130732373Y-90588958D01*
X130729685Y-90588767D01*
X130727196Y-90587736D01*
X130712564Y-90586295D01*
X130560183Y-90586295D01*
X130545551Y-90587736D01*
X130543061Y-90588767D01*
X130540374Y-90588958D01*
X130526642Y-90594213D01*
X130450452Y-90632308D01*
X130444155Y-90636271D01*
X130442326Y-90637029D01*
X130440267Y-90638718D01*
X130438009Y-90640140D01*
X130436709Y-90641638D01*
X130430961Y-90646356D01*
X130354769Y-90722547D01*
X130345442Y-90733912D01*
X130343308Y-90739062D01*
X130339988Y-90743544D01*
X130335041Y-90757390D01*
X130296946Y-90909771D01*
X130296571Y-90912307D01*
X130296148Y-90913329D01*
X130295604Y-90918843D01*
X130294796Y-90924316D01*
X130294958Y-90925407D01*
X130294707Y-90927961D01*
X129132731Y-90927961D01*
X129109135Y-90833580D01*
X129106054Y-90824957D01*
X129105695Y-90823142D01*
X129104816Y-90821494D01*
X129104188Y-90819735D01*
X129103084Y-90818246D01*
X129098778Y-90810168D01*
X129022588Y-90695883D01*
X129022554Y-90695841D01*
X129022544Y-90695817D01*
X129017778Y-90690009D01*
X129013273Y-90684507D01*
X129013248Y-90684490D01*
X129013217Y-90684452D01*
X128975122Y-90646357D01*
X128969372Y-90641638D01*
X128968073Y-90640140D01*
X128965813Y-90638718D01*
X128963757Y-90637030D01*
X128961929Y-90636272D01*
X128955630Y-90632308D01*
X128879439Y-90594213D01*
X128865707Y-90588958D01*
X128863019Y-90588767D01*
X128860530Y-90587736D01*
X128845898Y-90586295D01*
X128693517Y-90586295D01*
X128678885Y-90587736D01*
X128651849Y-90598935D01*
X128631157Y-90619627D01*
X128619958Y-90646663D01*
X128619958Y-90675927D01*
X128631157Y-90702963D01*
X128651849Y-90723655D01*
X128678885Y-90734854D01*
X128693517Y-90736295D01*
X128828193Y-90736295D01*
X128877662Y-90761029D01*
X128901899Y-90785266D01*
X128966763Y-90882562D01*
X128973043Y-90907681D01*
X128955630Y-90898975D01*
X128941898Y-90893720D01*
X128939210Y-90893529D01*
X128936721Y-90892498D01*
X128922089Y-90891057D01*
X128769708Y-90891057D01*
X128755076Y-90892498D01*
X128752586Y-90893529D01*
X128749899Y-90893720D01*
X128736167Y-90898975D01*
X128659976Y-90937070D01*
X128653676Y-90941034D01*
X128651849Y-90941792D01*
X128649792Y-90943480D01*
X128647533Y-90944902D01*
X128646233Y-90946400D01*
X128640484Y-90951119D01*
X128602389Y-90989214D01*
X128597670Y-90994963D01*
X128596172Y-90996263D01*
X128594750Y-90998522D01*
X128593062Y-91000579D01*
X128592304Y-91002406D01*
X128588340Y-91008706D01*
X128550245Y-91084897D01*
X128544990Y-91098629D01*
X128544799Y-91101316D01*
X128543768Y-91103806D01*
X128542327Y-91118438D01*
X128338309Y-91118438D01*
X128336829Y-91114865D01*
X128316137Y-91094173D01*
X128289101Y-91082974D01*
X128274469Y-91081533D01*
X127664946Y-91081533D01*
X127650314Y-91082974D01*
X127623278Y-91094173D01*
X127602586Y-91114865D01*
X127591387Y-91141901D01*
X127393532Y-91141901D01*
X127394850Y-91136628D01*
X127395225Y-91134091D01*
X127395648Y-91133070D01*
X127396190Y-91127557D01*
X127397000Y-91122084D01*
X127396837Y-91120991D01*
X127397089Y-91118438D01*
X127397089Y-91004152D01*
X127396837Y-91001598D01*
X127397000Y-91000506D01*
X127396190Y-90995032D01*
X127395648Y-90989520D01*
X127395225Y-90988498D01*
X127394850Y-90985962D01*
X127356754Y-90833580D01*
X127356368Y-90832500D01*
X127356330Y-90831962D01*
X127354005Y-90825886D01*
X127351807Y-90819735D01*
X127351484Y-90819299D01*
X127351075Y-90818230D01*
X127312980Y-90742039D01*
X127309017Y-90735744D01*
X127308259Y-90733912D01*
X127306567Y-90731850D01*
X127305148Y-90729596D01*
X127303651Y-90728297D01*
X127298931Y-90722547D01*
X127222741Y-90646357D01*
X127211376Y-90637030D01*
X127208885Y-90635998D01*
X127206850Y-90634233D01*
X127193425Y-90628239D01*
X127079139Y-90590144D01*
X127071885Y-90588494D01*
X127070054Y-90587736D01*
X127067399Y-90587474D01*
X127064802Y-90586884D01*
X127062827Y-90587024D01*
X127055422Y-90586295D01*
X126979231Y-90586295D01*
X126971825Y-90587024D01*
X126969851Y-90586884D01*
X126967253Y-90587474D01*
X126964599Y-90587736D01*
X126962767Y-90588494D01*
X126955514Y-90590144D01*
X126841229Y-90628239D01*
X126827803Y-90634233D01*
X126825767Y-90635998D01*
X126823279Y-90637029D01*
X126811914Y-90646356D01*
X126773818Y-90684451D01*
X126764490Y-90695817D01*
X126753291Y-90722853D01*
X126640749Y-90722853D01*
X126660639Y-90702963D01*
X126671838Y-90675927D01*
X126671838Y-90646663D01*
X126660639Y-90619627D01*
X126639947Y-90598935D01*
X126612911Y-90587736D01*
X126598279Y-90586295D01*
X126141136Y-90586295D01*
X126126504Y-90587736D01*
X126099468Y-90598935D01*
X126078776Y-90619627D01*
X126067577Y-90646663D01*
X125948028Y-90646663D01*
X125936829Y-90619627D01*
X125916137Y-90598935D01*
X125889101Y-90587736D01*
X125874469Y-90586295D01*
X125569707Y-90586295D01*
X125555075Y-90587736D01*
X125552585Y-90588767D01*
X125549898Y-90588958D01*
X125536166Y-90594213D01*
X125459976Y-90632308D01*
X125453676Y-90636272D01*
X125451849Y-90637030D01*
X125449792Y-90638718D01*
X125447533Y-90640140D01*
X125446233Y-90641638D01*
X125440484Y-90646357D01*
X125402389Y-90684452D01*
X125397668Y-90690204D01*
X125396173Y-90691501D01*
X125394753Y-90693755D01*
X125393062Y-90695817D01*
X125392303Y-90697647D01*
X125388340Y-90703944D01*
X125350244Y-90780135D01*
X125344989Y-90793866D01*
X125344797Y-90796555D01*
X125343767Y-90799044D01*
X125342326Y-90813676D01*
X125149469Y-90813676D01*
X125149469Y-90661295D01*
X125148028Y-90646663D01*
X125136829Y-90619627D01*
X125116137Y-90598935D01*
X125089101Y-90587736D01*
X125059837Y-90587736D01*
X125032801Y-90598935D01*
X125012109Y-90619627D01*
X125000910Y-90646663D01*
X124999469Y-90661295D01*
X124999469Y-91386295D01*
X124693517Y-91386295D01*
X124678885Y-91387736D01*
X124651849Y-91398935D01*
X124631157Y-91419627D01*
X124619958Y-91446663D01*
X124385951Y-91446663D01*
X124385940Y-91445767D01*
X124381501Y-91431751D01*
X124083448Y-90736295D01*
X124503041Y-90736295D01*
X124517673Y-90734854D01*
X124544709Y-90723655D01*
X124565401Y-90702963D01*
X124576600Y-90675927D01*
X124576600Y-90646663D01*
X124565401Y-90619627D01*
X124544709Y-90598935D01*
X124517673Y-90587736D01*
X124503041Y-90586295D01*
X123969707Y-90586295D01*
X123955075Y-90587736D01*
X123954644Y-90587914D01*
X123954180Y-90587920D01*
X123941139Y-90593508D01*
X123928039Y-90598935D01*
X123927710Y-90599263D01*
X123927282Y-90599447D01*
X123917366Y-90609607D01*
X123907347Y-90619627D01*
X123907168Y-90620057D01*
X123906843Y-90620391D01*
X123901569Y-90633573D01*
X123896148Y-90646663D01*
X123896148Y-90647128D01*
X123895975Y-90647561D01*
X123599741Y-90647561D01*
X123583715Y-90599483D01*
X123577721Y-90586057D01*
X123558547Y-90563950D01*
X123532374Y-90550863D01*
X123503184Y-90548789D01*
X123475421Y-90558043D01*
X123453314Y-90577217D01*
X123440227Y-90603390D01*
X123438153Y-90632580D01*
X123441413Y-90646917D01*
X123598984Y-91119628D01*
X123397088Y-91119628D01*
X123397088Y-90927961D01*
X123395647Y-90913329D01*
X123384448Y-90886293D01*
X123363756Y-90865601D01*
X123336720Y-90854402D01*
X123307456Y-90854402D01*
X123280420Y-90865601D01*
X123259728Y-90886293D01*
X123248529Y-90913329D01*
X123247088Y-90927961D01*
X123247088Y-91119628D01*
X123207802Y-91119628D01*
X123193170Y-91121069D01*
X123166134Y-91132268D01*
X123145442Y-91152960D01*
X123134243Y-91179996D01*
X122972941Y-91179996D01*
X122976599Y-91171165D01*
X122976599Y-91141901D01*
X122965400Y-91114865D01*
X122944708Y-91094173D01*
X122917672Y-91082974D01*
X122903040Y-91081533D01*
X122293517Y-91081533D01*
X122278885Y-91082974D01*
X122251849Y-91094173D01*
X122231157Y-91114865D01*
X122219958Y-91141901D01*
X121999442Y-91141901D01*
X121831334Y-90637578D01*
X121825340Y-90624152D01*
X121821830Y-90620105D01*
X121819433Y-90615311D01*
X121812325Y-90609147D01*
X121806166Y-90602045D01*
X121801374Y-90599649D01*
X121797326Y-90596138D01*
X121788402Y-90593163D01*
X121779993Y-90588959D01*
X121774648Y-90588579D01*
X121769563Y-90586884D01*
X121760180Y-90587550D01*
X121750803Y-90586884D01*
X121745720Y-90588578D01*
X121740373Y-90588958D01*
X121731959Y-90593164D01*
X121723040Y-90596138D01*
X121718992Y-90599648D01*
X121714200Y-90602045D01*
X121708037Y-90609149D01*
X121700933Y-90615312D01*
X121698537Y-90620103D01*
X121695026Y-90624152D01*
X121689032Y-90637578D01*
X121422366Y-91437578D01*
X121419106Y-91451915D01*
X121338505Y-91451915D01*
X121338505Y-91446663D01*
X121327306Y-91419627D01*
X121306614Y-91398935D01*
X121279578Y-91387736D01*
X121264946Y-91386295D01*
X121111374Y-91386295D01*
X121111374Y-90880455D01*
X121135722Y-90904804D01*
X121141471Y-90909522D01*
X121142771Y-90911021D01*
X121145030Y-90912442D01*
X121147087Y-90914131D01*
X121148914Y-90914888D01*
X121155214Y-90918853D01*
X121231405Y-90956948D01*
X121245137Y-90962203D01*
X121274327Y-90964277D01*
X121302088Y-90955023D01*
X121324196Y-90935850D01*
X121337283Y-90909675D01*
X121339357Y-90880485D01*
X121330103Y-90852724D01*
X121310930Y-90830616D01*
X121298487Y-90822784D01*
X121233182Y-90790131D01*
X121170850Y-90727800D01*
X121098778Y-90619692D01*
X121098743Y-90619649D01*
X121098734Y-90619627D01*
X121098682Y-90619575D01*
X121089462Y-90608317D01*
X121083292Y-90604185D01*
X121078042Y-90598935D01*
X121071252Y-90596122D01*
X121065147Y-90592034D01*
X121057866Y-90590577D01*
X121051006Y-90587736D01*
X121043657Y-90587736D01*
X121036452Y-90586295D01*
X121029168Y-90587736D01*
X121021742Y-90587736D01*
X121014953Y-90590547D01*
X121007745Y-90591974D01*
X121001566Y-90596093D01*
X120994706Y-90598935D01*
X120989510Y-90604130D01*
X120983396Y-90608207D01*
X120979264Y-90614376D01*
X120974014Y-90619627D01*
X120971201Y-90626416D01*
X120967113Y-90632522D01*
X120965656Y-90639802D01*
X120962815Y-90646663D01*
X120961389Y-90661141D01*
X120961374Y-90661217D01*
X120961379Y-90661242D01*
X120961374Y-90661295D01*
X120961374Y-91386295D01*
X120807803Y-91386295D01*
X120793171Y-91387736D01*
X120766135Y-91398935D01*
X120745443Y-91419627D01*
X120734244Y-91446663D01*
X120645355Y-91446663D01*
X120645355Y-90459900D01*
X140666928Y-90459900D01*
X140666928Y-91625184D01*
G37*
D11*
%TO.P,J4,1,Pin_1*%
%TO.N,Net-(J4-Pin_1)*%
X125183935Y-97258206D03*
D12*
%TO.P,J4,2,Pin_2*%
%TO.N,Net-(IC2-SCL)*%
X125183935Y-94718206D03*
%TO.P,J4,3,Pin_3*%
%TO.N,Net-(J4-Pin_3)*%
X127723935Y-97258206D03*
%TO.P,J4,4,Pin_4*%
%TO.N,Net-(IC2-SDA)*%
X127723935Y-94718206D03*
%TO.P,J4,5,Pin_5*%
%TO.N,/IO-ext(GPIO)*%
X130263935Y-97258206D03*
%TO.P,J4,6,Pin_6*%
%TO.N,Net-(IC2-~{INT})*%
X130263935Y-94718206D03*
%TO.P,J4,7,Pin_7*%
%TO.N,GND*%
X132803935Y-97258206D03*
%TO.P,J4,8,Pin_8*%
%TO.N,Net-(IC2-A0)*%
X132803935Y-94718206D03*
%TO.P,J4,9,Pin_9*%
%TO.N,GND*%
X135343935Y-97258206D03*
%TO.P,J4,10,Pin_10*%
%TO.N,Net-(IC2-A1)*%
X135343935Y-94718206D03*
%TO.P,J4,11,Pin_11*%
%TO.N,GND*%
X137883935Y-97258206D03*
%TO.P,J4,12,Pin_12*%
%TO.N,Net-(IC2-A2)*%
X137883935Y-94718206D03*
%TD*%
D13*
%TO.P,J3,1*%
%TO.N,unconnected-(J3-Pad1)*%
X115180200Y-103479600D03*
%TO.P,J3,2*%
%TO.N,Net-(IC2-SCL)*%
X112640200Y-103479600D03*
%TO.P,J3,3*%
%TO.N,GND*%
X115180200Y-100939600D03*
%TO.P,J3,4*%
%TO.N,Net-(IC2-SDA)*%
X112640200Y-100939600D03*
%TO.P,J3,5*%
%TO.N,GND*%
X115180200Y-98399600D03*
%TO.P,J3,6*%
%TO.N,/IO-ext(GPIO)*%
X112640200Y-98399600D03*
%TD*%
D11*
%TO.P,J1,1,Pin_1*%
%TO.N,unconnected-(J1-Pin_1-Pad1)*%
X144360935Y-86280000D03*
D12*
%TO.P,J1,2,Pin_2*%
%TO.N,unconnected-(J1-Pin_2-Pad2)*%
X146900935Y-86280000D03*
%TD*%
D11*
%TO.P,J5,1,Pin_1*%
%TO.N,/+12V*%
X115671600Y-111500000D03*
D14*
%TO.P,J5,2,Pin_2*%
%TO.N,GND*%
X115671600Y-114040000D03*
%TO.P,J5,3,Pin_3*%
%TO.N,unconnected-(J5-Pin_3-Pad3)*%
X118211600Y-111500000D03*
%TO.P,J5,4,Pin_4*%
%TO.N,Net-(IC2-P7)*%
X118211600Y-114040000D03*
%TO.P,J5,5,Pin_5*%
%TO.N,P1*%
X120751600Y-111500000D03*
%TO.P,J5,6,Pin_6*%
%TO.N,P0*%
X120751600Y-114040000D03*
%TO.P,J5,7,Pin_7*%
%TO.N,P5*%
X123291600Y-111500000D03*
%TO.P,J5,8,Pin_8*%
%TO.N,P2*%
X123291600Y-114040000D03*
%TO.P,J5,9,Pin_9*%
%TO.N,unconnected-(J5-Pin_9-Pad9)*%
X125831600Y-111500000D03*
%TO.P,J5,10,Pin_10*%
%TO.N,+5V*%
X125831600Y-114040000D03*
%TO.P,J5,11,Pin_11*%
%TO.N,P4*%
X128371600Y-111500000D03*
%TO.P,J5,12,Pin_12*%
%TO.N,P3*%
X128371600Y-114040000D03*
%TD*%
D11*
%TO.P,J2,1,Pin_1*%
%TO.N,unconnected-(J2-Pin_1-Pad1)*%
X114810400Y-86280000D03*
D12*
%TO.P,J2,2,Pin_2*%
%TO.N,unconnected-(J2-Pin_2-Pad2)*%
X117350400Y-86280000D03*
%TD*%
D15*
%TO.N,GND*%
X133248400Y-111099600D03*
D16*
X108508800Y-117094000D03*
D15*
X119659400Y-91109800D03*
X158343600Y-97637600D03*
X121158000Y-94996000D03*
X135839200Y-104597200D03*
X141986000Y-106578400D03*
X156006800Y-108254800D03*
X139268200Y-107111800D03*
X139344400Y-101803200D03*
D16*
X129844800Y-121920000D03*
D15*
%TO.N,SELECT*%
X157632399Y-105181400D03*
X140309600Y-103174800D03*
X140309600Y-106324400D03*
%TO.N,P4*%
X153060400Y-107492800D03*
%TO.N,P5*%
X150571200Y-105867200D03*
%TO.N,Net-(IC2-~{INT})*%
X149225000Y-98983800D03*
%TO.N,+5V*%
X155752800Y-95199200D03*
X142290800Y-91846400D03*
%TO.N,/IO-ext(GPIO)*%
X122148000Y-100050000D03*
%TD*%
D17*
%TO.N,GND*%
X158394400Y-97688400D02*
X158343600Y-97637600D01*
%TO.N,SELECT*%
X140309600Y-106324400D02*
X140309600Y-103174800D01*
X155625799Y-103174800D02*
X157632399Y-105181400D01*
X140309600Y-103174800D02*
X155625799Y-103174800D01*
%TO.N,P4*%
X128371600Y-111500000D02*
X130042000Y-109829600D01*
X130042000Y-109829600D02*
X149428200Y-109829600D01*
X151765000Y-107492800D02*
X153060400Y-107492800D01*
X149428200Y-109829600D02*
X151765000Y-107492800D01*
%TO.N,P5*%
X150571200Y-107645200D02*
X150571200Y-105867200D01*
X125120400Y-109270800D02*
X148945600Y-109270800D01*
X148945600Y-109270800D02*
X150571200Y-107645200D01*
X123291600Y-111099600D02*
X125120400Y-109270800D01*
X123291600Y-111500000D02*
X123291600Y-111099600D01*
%TO.N,Net-(IC2-~{INT})*%
X130251200Y-94705471D02*
X130263935Y-94718206D01*
X149225000Y-98983800D02*
X144805400Y-98983800D01*
X138734800Y-92913200D02*
X130860800Y-92913200D01*
X144805400Y-98983800D02*
X138734800Y-92913200D01*
X130251200Y-93522800D02*
X130251200Y-94705471D01*
X130860800Y-92913200D02*
X130251200Y-93522800D01*
D18*
%TO.N,+5V*%
X155752800Y-95199200D02*
X145592800Y-95199200D01*
X142290800Y-91897200D02*
X142290800Y-91846400D01*
X145592800Y-95199200D02*
X142290800Y-91897200D01*
D19*
%TO.N,/IO-ext(GPIO)*%
X129261200Y-100050000D02*
X130263935Y-99047265D01*
X112623600Y-98383000D02*
X112640200Y-98399600D01*
X130263935Y-99047265D02*
X130263935Y-97258206D01*
X112623600Y-97485200D02*
X112623600Y-98383000D01*
X118770400Y-96672400D02*
X113436400Y-96672400D01*
X122148000Y-100050000D02*
X118770400Y-96672400D01*
X122148000Y-100050000D02*
X129261200Y-100050000D01*
X113436400Y-96672400D02*
X112623600Y-97485200D01*
%TD*%
%TA.AperFunction,Conductor*%
%TO.N,GND*%
G36*
X117190018Y-112395417D02*
G01*
X117218273Y-112416569D01*
X117331813Y-112530109D01*
X117503782Y-112655050D01*
X117512546Y-112659516D01*
X117563342Y-112707491D01*
X117580136Y-112775312D01*
X117557598Y-112841447D01*
X117512546Y-112880484D01*
X117503782Y-112884949D01*
X117331813Y-113009890D01*
X117181490Y-113160213D01*
X117056549Y-113332182D01*
X117051802Y-113341499D01*
X117003827Y-113392293D01*
X116936005Y-113409087D01*
X116869871Y-113386548D01*
X116830834Y-113341495D01*
X116826226Y-113332452D01*
X116786870Y-113278282D01*
X116786869Y-113278282D01*
X116154562Y-113910590D01*
X116137525Y-113847007D01*
X116071699Y-113732993D01*
X115978607Y-113639901D01*
X115864593Y-113574075D01*
X115801009Y-113557037D01*
X116471227Y-112886818D01*
X116532550Y-112853333D01*
X116558907Y-112850499D01*
X116569472Y-112850499D01*
X116629083Y-112844091D01*
X116763931Y-112793796D01*
X116879146Y-112707546D01*
X116965396Y-112592331D01*
X117014410Y-112460916D01*
X117056281Y-112404984D01*
X117121745Y-112380566D01*
X117190018Y-112395417D01*
G37*
%TD.AperFunction*%
%TA.AperFunction,Conductor*%
G36*
X114667682Y-101151892D02*
G01*
X114740090Y-101277308D01*
X114842492Y-101379710D01*
X114967908Y-101452118D01*
X115009965Y-101463387D01*
X114436379Y-102036971D01*
X114436380Y-102036972D01*
X114485743Y-102072836D01*
X114485761Y-102072847D01*
X114536761Y-102098833D01*
X114587558Y-102146807D01*
X114604353Y-102214628D01*
X114581816Y-102280763D01*
X114536763Y-102319802D01*
X114485488Y-102345928D01*
X114316693Y-102468566D01*
X114169166Y-102616093D01*
X114046530Y-102784885D01*
X114020685Y-102835610D01*
X113972710Y-102886406D01*
X113904890Y-102903201D01*
X113838755Y-102880664D01*
X113799715Y-102835610D01*
X113797810Y-102831871D01*
X113773870Y-102784886D01*
X113651235Y-102616095D01*
X113503705Y-102468565D01*
X113373962Y-102374300D01*
X113334912Y-102345928D01*
X113284190Y-102320085D01*
X113233394Y-102272111D01*
X113216598Y-102204290D01*
X113239135Y-102138155D01*
X113284190Y-102099115D01*
X113334912Y-102073271D01*
X113334911Y-102073271D01*
X113334914Y-102073270D01*
X113503705Y-101950635D01*
X113651235Y-101803105D01*
X113773870Y-101634314D01*
X113799996Y-101583037D01*
X113847969Y-101532242D01*
X113915790Y-101515446D01*
X113981925Y-101537983D01*
X114020966Y-101583037D01*
X114046959Y-101634051D01*
X114082827Y-101683418D01*
X114082827Y-101683419D01*
X114656412Y-101109834D01*
X114667682Y-101151892D01*
G37*
%TD.AperFunction*%
%TA.AperFunction,Conductor*%
G36*
X114667682Y-98611892D02*
G01*
X114740090Y-98737308D01*
X114842492Y-98839710D01*
X114967908Y-98912118D01*
X115009965Y-98923387D01*
X114436379Y-99496971D01*
X114436380Y-99496972D01*
X114485743Y-99532836D01*
X114485761Y-99532847D01*
X114537315Y-99559116D01*
X114588110Y-99607090D01*
X114604905Y-99674911D01*
X114582367Y-99741046D01*
X114537315Y-99780084D01*
X114485755Y-99806355D01*
X114436380Y-99842227D01*
X115009966Y-100415812D01*
X114967908Y-100427082D01*
X114842492Y-100499490D01*
X114740090Y-100601892D01*
X114667682Y-100727308D01*
X114656412Y-100769365D01*
X114082827Y-100195780D01*
X114046955Y-100245155D01*
X114020965Y-100296163D01*
X113972990Y-100346958D01*
X113905169Y-100363753D01*
X113839034Y-100341215D01*
X113799996Y-100296161D01*
X113773871Y-100244887D01*
X113732991Y-100188622D01*
X113651235Y-100076095D01*
X113503705Y-99928565D01*
X113384872Y-99842227D01*
X113334912Y-99805928D01*
X113284190Y-99780085D01*
X113233394Y-99732111D01*
X113216598Y-99664290D01*
X113239135Y-99598155D01*
X113284190Y-99559115D01*
X113334912Y-99533271D01*
X113334911Y-99533271D01*
X113334914Y-99533270D01*
X113503705Y-99410635D01*
X113651235Y-99263105D01*
X113773870Y-99094314D01*
X113799996Y-99043037D01*
X113847969Y-98992242D01*
X113915790Y-98975446D01*
X113981925Y-98997983D01*
X114020966Y-99043037D01*
X114046959Y-99094051D01*
X114082827Y-99143418D01*
X114082827Y-99143419D01*
X114656412Y-98569833D01*
X114667682Y-98611892D01*
G37*
%TD.AperFunction*%
%TA.AperFunction,Conductor*%
G36*
X134878010Y-97065213D02*
G01*
X134843935Y-97192380D01*
X134843935Y-97324032D01*
X134878010Y-97451199D01*
X134910923Y-97508206D01*
X133236947Y-97508206D01*
X133269860Y-97451199D01*
X133303935Y-97324032D01*
X133303935Y-97192380D01*
X133269860Y-97065213D01*
X133236947Y-97008206D01*
X134910923Y-97008206D01*
X134878010Y-97065213D01*
G37*
%TD.AperFunction*%
%TA.AperFunction,Conductor*%
G36*
X137418010Y-97065213D02*
G01*
X137383935Y-97192380D01*
X137383935Y-97324032D01*
X137418010Y-97451199D01*
X137450923Y-97508206D01*
X135776947Y-97508206D01*
X135809860Y-97451199D01*
X135843935Y-97324032D01*
X135843935Y-97192380D01*
X135809860Y-97065213D01*
X135776947Y-97008206D01*
X137450923Y-97008206D01*
X137418010Y-97065213D01*
G37*
%TD.AperFunction*%
%TA.AperFunction,Conductor*%
G36*
X151174099Y-89580382D02*
G01*
X151220127Y-89632948D01*
X151231600Y-89685042D01*
X151231600Y-93370400D01*
X151661090Y-93370400D01*
X151699924Y-93378124D01*
X151700095Y-93377488D01*
X151707944Y-93379591D01*
X151707946Y-93379592D01*
X151835240Y-93413700D01*
X151835242Y-93413700D01*
X160454800Y-93413700D01*
X160521839Y-93433385D01*
X160567594Y-93486189D01*
X160578800Y-93537700D01*
X160578800Y-112245600D01*
X160559115Y-112312639D01*
X160506311Y-112358394D01*
X160454800Y-112369600D01*
X135686800Y-112369600D01*
X135636561Y-123422164D01*
X135616572Y-123489113D01*
X135563560Y-123534627D01*
X135512562Y-123545600D01*
X102129776Y-123545600D01*
X102062737Y-123525915D01*
X102016982Y-123473111D01*
X102005778Y-123422225D01*
X102005611Y-123389141D01*
X102000280Y-122332175D01*
X101999730Y-110602135D01*
X114321100Y-110602135D01*
X114321100Y-112397870D01*
X114321101Y-112397876D01*
X114327508Y-112457483D01*
X114377802Y-112592328D01*
X114377806Y-112592335D01*
X114464052Y-112707544D01*
X114464055Y-112707547D01*
X114579264Y-112793793D01*
X114579271Y-112793797D01*
X114624218Y-112810561D01*
X114714117Y-112844091D01*
X114773727Y-112850500D01*
X114784285Y-112850499D01*
X114851323Y-112870179D01*
X114871972Y-112886818D01*
X115542191Y-113557037D01*
X115478607Y-113574075D01*
X115364593Y-113639901D01*
X115271501Y-113732993D01*
X115205675Y-113847007D01*
X115188637Y-113910591D01*
X114556328Y-113278282D01*
X114556327Y-113278282D01*
X114516980Y-113332439D01*
X114420504Y-113521782D01*
X114354842Y-113723869D01*
X114354842Y-113723872D01*
X114321600Y-113933753D01*
X114321600Y-114146246D01*
X114354842Y-114356127D01*
X114354842Y-114356130D01*
X114420504Y-114558217D01*
X114516975Y-114747550D01*
X114556328Y-114801716D01*
X115188637Y-114169408D01*
X115205675Y-114232993D01*
X115271501Y-114347007D01*
X115364593Y-114440099D01*
X115478607Y-114505925D01*
X115542190Y-114522962D01*
X114909882Y-115155269D01*
X114909882Y-115155270D01*
X114964049Y-115194624D01*
X115153382Y-115291095D01*
X115355470Y-115356757D01*
X115565354Y-115390000D01*
X115777846Y-115390000D01*
X115987727Y-115356757D01*
X115987730Y-115356757D01*
X116189817Y-115291095D01*
X116379154Y-115194622D01*
X116433316Y-115155270D01*
X116433317Y-115155270D01*
X115801008Y-114522962D01*
X115864593Y-114505925D01*
X115978607Y-114440099D01*
X116071699Y-114347007D01*
X116137525Y-114232993D01*
X116154562Y-114169408D01*
X116786870Y-114801717D01*
X116786870Y-114801716D01*
X116826222Y-114747555D01*
X116830832Y-114738507D01*
X116878805Y-114687709D01*
X116946625Y-114670912D01*
X117012761Y-114693447D01*
X117051804Y-114738504D01*
X117056549Y-114747817D01*
X117181490Y-114919786D01*
X117331813Y-115070109D01*
X117503779Y-115195048D01*
X117503781Y-115195049D01*
X117503784Y-115195051D01*
X117693188Y-115291557D01*
X117895357Y-115357246D01*
X118105313Y-115390500D01*
X118105314Y-115390500D01*
X118317886Y-115390500D01*
X118317887Y-115390500D01*
X118527843Y-115357246D01*
X118730012Y-115291557D01*
X118919416Y-115195051D01*
X119039209Y-115108017D01*
X119091386Y-115070109D01*
X119091388Y-115070106D01*
X119091392Y-115070104D01*
X119241704Y-114919792D01*
X119241706Y-114919788D01*
X119241709Y-114919786D01*
X119366648Y-114747820D01*
X119366650Y-114747817D01*
X119366651Y-114747816D01*
X119371114Y-114739054D01*
X119419088Y-114688259D01*
X119486908Y-114671463D01*
X119553044Y-114693999D01*
X119592086Y-114739056D01*
X119596551Y-114747820D01*
X119721490Y-114919786D01*
X119871813Y-115070109D01*
X120043779Y-115195048D01*
X120043781Y-115195049D01*
X120043784Y-115195051D01*
X120233188Y-115291557D01*
X120435357Y-115357246D01*
X120645313Y-115390500D01*
X120645314Y-115390500D01*
X120857886Y-115390500D01*
X120857887Y-115390500D01*
X121067843Y-115357246D01*
X121270012Y-115291557D01*
X121459416Y-115195051D01*
X121579209Y-115108017D01*
X121631386Y-115070109D01*
X121631388Y-115070106D01*
X121631392Y-115070104D01*
X121781704Y-114919792D01*
X121781706Y-114919788D01*
X121781709Y-114919786D01*
X121906648Y-114747820D01*
X121906650Y-114747817D01*
X121906651Y-114747816D01*
X121911114Y-114739054D01*
X121959088Y-114688259D01*
X122026908Y-114671463D01*
X122093044Y-114693999D01*
X122132086Y-114739056D01*
X122136551Y-114747820D01*
X122261490Y-114919786D01*
X122411813Y-115070109D01*
X122583779Y-115195048D01*
X122583781Y-115195049D01*
X122583784Y-115195051D01*
X122773188Y-115291557D01*
X122975357Y-115357246D01*
X123185313Y-115390500D01*
X123185314Y-115390500D01*
X123397886Y-115390500D01*
X123397887Y-115390500D01*
X123607843Y-115357246D01*
X123810012Y-115291557D01*
X123999416Y-115195051D01*
X124119209Y-115108017D01*
X124171386Y-115070109D01*
X124171388Y-115070106D01*
X124171392Y-115070104D01*
X124321704Y-114919792D01*
X124321706Y-114919788D01*
X124321709Y-114919786D01*
X124446648Y-114747820D01*
X124446650Y-114747817D01*
X124446651Y-114747816D01*
X124451114Y-114739054D01*
X124499088Y-114688259D01*
X124566908Y-114671463D01*
X124633044Y-114693999D01*
X124672086Y-114739056D01*
X124676551Y-114747820D01*
X124801490Y-114919786D01*
X124951813Y-115070109D01*
X125123779Y-115195048D01*
X125123781Y-115195049D01*
X125123784Y-115195051D01*
X125313188Y-115291557D01*
X125515357Y-115357246D01*
X125725313Y-115390500D01*
X125725314Y-115390500D01*
X125937886Y-115390500D01*
X125937887Y-115390500D01*
X126147843Y-115357246D01*
X126350012Y-115291557D01*
X126539416Y-115195051D01*
X126659209Y-115108017D01*
X126711386Y-115070109D01*
X126711388Y-115070106D01*
X126711392Y-115070104D01*
X126861704Y-114919792D01*
X126861706Y-114919788D01*
X126861709Y-114919786D01*
X126986648Y-114747820D01*
X126986650Y-114747817D01*
X126986651Y-114747816D01*
X126991114Y-114739054D01*
X127039088Y-114688259D01*
X127106908Y-114671463D01*
X127173044Y-114693999D01*
X127212086Y-114739056D01*
X127216551Y-114747820D01*
X127341490Y-114919786D01*
X127491813Y-115070109D01*
X127663779Y-115195048D01*
X127663781Y-115195049D01*
X127663784Y-115195051D01*
X127853188Y-115291557D01*
X128055357Y-115357246D01*
X128265313Y-115390500D01*
X128265314Y-115390500D01*
X128477886Y-115390500D01*
X128477887Y-115390500D01*
X128687843Y-115357246D01*
X128890012Y-115291557D01*
X129079416Y-115195051D01*
X129199209Y-115108017D01*
X129251386Y-115070109D01*
X129251388Y-115070106D01*
X129251392Y-115070104D01*
X129401704Y-114919792D01*
X129401706Y-114919788D01*
X129401709Y-114919786D01*
X129526648Y-114747820D01*
X129526650Y-114747817D01*
X129526651Y-114747816D01*
X129623157Y-114558412D01*
X129688846Y-114356243D01*
X129722100Y-114146287D01*
X129722100Y-113933713D01*
X129688846Y-113723757D01*
X129623157Y-113521588D01*
X129526651Y-113332184D01*
X129526649Y-113332181D01*
X129526648Y-113332179D01*
X129401709Y-113160213D01*
X129251386Y-113009890D01*
X129079420Y-112884951D01*
X129078715Y-112884591D01*
X129070654Y-112880485D01*
X129019859Y-112832512D01*
X129003063Y-112764692D01*
X129025599Y-112698556D01*
X129070654Y-112659515D01*
X129079416Y-112655051D01*
X129165738Y-112592335D01*
X129251386Y-112530109D01*
X129251388Y-112530106D01*
X129251392Y-112530104D01*
X129401704Y-112379792D01*
X129401706Y-112379788D01*
X129401709Y-112379786D01*
X129526648Y-112207820D01*
X129526647Y-112207820D01*
X129526651Y-112207816D01*
X129623157Y-112018412D01*
X129688846Y-111816243D01*
X129722100Y-111606287D01*
X129722100Y-111393713D01*
X129688846Y-111183757D01*
X129688084Y-111178945D01*
X129689726Y-111178684D01*
X129692854Y-111116137D01*
X129722257Y-111069288D01*
X129990600Y-110800946D01*
X130275127Y-110516419D01*
X130336450Y-110482934D01*
X130362808Y-110480100D01*
X149492271Y-110480100D01*
X149576815Y-110463282D01*
X149617944Y-110455101D01*
X149736327Y-110406065D01*
X149842869Y-110334877D01*
X151998127Y-108179619D01*
X152059450Y-108146134D01*
X152085808Y-108143300D01*
X152555465Y-108143300D01*
X152622504Y-108162985D01*
X152624309Y-108164166D01*
X152681221Y-108202194D01*
X152681223Y-108202195D01*
X152681227Y-108202197D01*
X152826898Y-108262535D01*
X152826903Y-108262537D01*
X152981553Y-108293299D01*
X152981556Y-108293300D01*
X152981558Y-108293300D01*
X153139244Y-108293300D01*
X153139245Y-108293299D01*
X153293897Y-108262537D01*
X153439579Y-108202194D01*
X153570689Y-108114589D01*
X153682189Y-108003089D01*
X153769794Y-107871979D01*
X153830137Y-107726297D01*
X153860900Y-107571642D01*
X153860900Y-107413958D01*
X153860900Y-107413955D01*
X153860899Y-107413953D01*
X153830138Y-107259310D01*
X153830137Y-107259303D01*
X153774466Y-107124900D01*
X153769797Y-107113627D01*
X153769790Y-107113614D01*
X153682189Y-106982511D01*
X153682186Y-106982507D01*
X153570692Y-106871013D01*
X153570688Y-106871010D01*
X153439585Y-106783409D01*
X153439572Y-106783402D01*
X153293901Y-106723064D01*
X153293889Y-106723061D01*
X153139245Y-106692300D01*
X153139242Y-106692300D01*
X152981558Y-106692300D01*
X152981555Y-106692300D01*
X152826910Y-106723061D01*
X152826898Y-106723064D01*
X152681227Y-106783402D01*
X152681220Y-106783406D01*
X152652328Y-106802711D01*
X152624355Y-106821402D01*
X152557679Y-106842280D01*
X152555465Y-106842300D01*
X151700929Y-106842300D01*
X151575261Y-106867297D01*
X151575255Y-106867299D01*
X151456871Y-106916335D01*
X151414589Y-106944587D01*
X151347912Y-106965464D01*
X151280532Y-106946979D01*
X151233842Y-106894999D01*
X151221700Y-106841484D01*
X151221700Y-106372135D01*
X151241385Y-106305096D01*
X151242566Y-106303290D01*
X151280594Y-106246379D01*
X151340937Y-106100697D01*
X151371700Y-105946042D01*
X151371700Y-105788358D01*
X151371700Y-105788355D01*
X151371699Y-105788353D01*
X151340938Y-105633710D01*
X151340937Y-105633703D01*
X151310651Y-105560585D01*
X151280597Y-105488027D01*
X151280590Y-105488014D01*
X151192989Y-105356911D01*
X151192986Y-105356907D01*
X151081492Y-105245413D01*
X151081488Y-105245410D01*
X150950385Y-105157809D01*
X150950372Y-105157802D01*
X150804701Y-105097464D01*
X150804689Y-105097461D01*
X150650045Y-105066700D01*
X150650042Y-105066700D01*
X150492358Y-105066700D01*
X150492355Y-105066700D01*
X150337710Y-105097461D01*
X150337698Y-105097464D01*
X150192027Y-105157802D01*
X150192014Y-105157809D01*
X150060911Y-105245410D01*
X150060907Y-105245413D01*
X149949413Y-105356907D01*
X149949410Y-105356911D01*
X149861809Y-105488014D01*
X149861802Y-105488027D01*
X149801464Y-105633698D01*
X149801461Y-105633710D01*
X149770700Y-105788353D01*
X149770700Y-105946046D01*
X149801461Y-106100689D01*
X149801464Y-106100701D01*
X149861802Y-106246372D01*
X149861806Y-106246379D01*
X149899802Y-106303244D01*
X149920680Y-106369921D01*
X149920700Y-106372135D01*
X149920700Y-107324392D01*
X149901015Y-107391431D01*
X149884381Y-107412073D01*
X148712473Y-108583981D01*
X148651150Y-108617466D01*
X148624792Y-108620300D01*
X125056329Y-108620300D01*
X124930661Y-108645297D01*
X124930655Y-108645299D01*
X124812274Y-108694334D01*
X124705726Y-108765526D01*
X124705725Y-108765527D01*
X123358073Y-110113181D01*
X123296750Y-110146666D01*
X123270392Y-110149500D01*
X123185313Y-110149500D01*
X123136642Y-110157208D01*
X122975360Y-110182753D01*
X122773185Y-110248444D01*
X122583779Y-110344951D01*
X122411813Y-110469890D01*
X122261490Y-110620213D01*
X122136549Y-110792182D01*
X122132084Y-110800946D01*
X122084109Y-110851742D01*
X122016288Y-110868536D01*
X121950153Y-110845998D01*
X121911116Y-110800946D01*
X121906650Y-110792182D01*
X121781709Y-110620213D01*
X121631386Y-110469890D01*
X121459420Y-110344951D01*
X121270014Y-110248444D01*
X121270013Y-110248443D01*
X121270012Y-110248443D01*
X121067843Y-110182754D01*
X121067841Y-110182753D01*
X121067840Y-110182753D01*
X120906557Y-110157208D01*
X120857887Y-110149500D01*
X120645313Y-110149500D01*
X120596642Y-110157208D01*
X120435360Y-110182753D01*
X120233185Y-110248444D01*
X120043779Y-110344951D01*
X119871813Y-110469890D01*
X119721490Y-110620213D01*
X119596549Y-110792182D01*
X119592084Y-110800946D01*
X119544109Y-110851742D01*
X119476288Y-110868536D01*
X119410153Y-110845998D01*
X119371116Y-110800946D01*
X119366650Y-110792182D01*
X119241709Y-110620213D01*
X119091386Y-110469890D01*
X118919420Y-110344951D01*
X118730014Y-110248444D01*
X118730013Y-110248443D01*
X118730012Y-110248443D01*
X118527843Y-110182754D01*
X118527841Y-110182753D01*
X118527840Y-110182753D01*
X118366557Y-110157208D01*
X118317887Y-110149500D01*
X118105313Y-110149500D01*
X118056642Y-110157208D01*
X117895360Y-110182753D01*
X117693185Y-110248444D01*
X117503779Y-110344951D01*
X117331815Y-110469889D01*
X117218273Y-110583431D01*
X117156950Y-110616915D01*
X117087258Y-110611931D01*
X117031325Y-110570059D01*
X117014410Y-110539082D01*
X116965397Y-110407671D01*
X116965393Y-110407664D01*
X116879147Y-110292455D01*
X116879144Y-110292452D01*
X116763935Y-110206206D01*
X116763928Y-110206202D01*
X116629082Y-110155908D01*
X116629083Y-110155908D01*
X116569483Y-110149501D01*
X116569481Y-110149500D01*
X116569473Y-110149500D01*
X116569464Y-110149500D01*
X114773729Y-110149500D01*
X114773723Y-110149501D01*
X114714116Y-110155908D01*
X114579271Y-110206202D01*
X114579264Y-110206206D01*
X114464055Y-110292452D01*
X114464052Y-110292455D01*
X114377806Y-110407664D01*
X114377802Y-110407671D01*
X114327508Y-110542517D01*
X114321101Y-110602116D01*
X114321100Y-110602135D01*
X101999730Y-110602135D01*
X101999152Y-98295275D01*
X111314700Y-98295275D01*
X111314700Y-98503924D01*
X111347337Y-98709989D01*
X111411812Y-98908420D01*
X111490392Y-99062642D01*
X111506530Y-99094314D01*
X111629165Y-99263105D01*
X111776695Y-99410635D01*
X111945486Y-99533270D01*
X111967966Y-99544724D01*
X111996210Y-99559115D01*
X112047006Y-99607090D01*
X112063801Y-99674910D01*
X112041264Y-99741045D01*
X111996210Y-99780085D01*
X111945485Y-99805930D01*
X111776693Y-99928566D01*
X111629166Y-100076093D01*
X111506530Y-100244885D01*
X111411812Y-100430779D01*
X111347337Y-100629210D01*
X111314700Y-100835275D01*
X111314700Y-101043924D01*
X111347337Y-101249989D01*
X111411812Y-101448420D01*
X111506396Y-101634051D01*
X111506530Y-101634314D01*
X111629165Y-101803105D01*
X111776695Y-101950635D01*
X111945486Y-102073270D01*
X111992471Y-102097210D01*
X111996210Y-102099115D01*
X112047006Y-102147090D01*
X112063801Y-102214910D01*
X112041264Y-102281045D01*
X111996210Y-102320085D01*
X111945485Y-102345930D01*
X111776693Y-102468566D01*
X111629166Y-102616093D01*
X111506530Y-102784885D01*
X111411812Y-102970779D01*
X111347337Y-103169210D01*
X111314700Y-103375275D01*
X111314700Y-103583924D01*
X111347337Y-103789989D01*
X111411812Y-103988420D01*
X111480685Y-104123590D01*
X111506530Y-104174314D01*
X111629165Y-104343105D01*
X111776695Y-104490635D01*
X111945486Y-104613270D01*
X112033316Y-104658021D01*
X112131379Y-104707987D01*
X112131381Y-104707987D01*
X112131384Y-104707989D01*
X112237745Y-104742548D01*
X112329810Y-104772462D01*
X112535876Y-104805100D01*
X112535881Y-104805100D01*
X112744524Y-104805100D01*
X112950589Y-104772462D01*
X113149016Y-104707989D01*
X113334914Y-104613270D01*
X113503705Y-104490635D01*
X113651235Y-104343105D01*
X113773870Y-104174314D01*
X113799715Y-104123590D01*
X113847689Y-104072794D01*
X113915510Y-104055998D01*
X113981645Y-104078535D01*
X114020685Y-104123590D01*
X114046528Y-104174312D01*
X114128286Y-104286841D01*
X114169165Y-104343105D01*
X114316695Y-104490635D01*
X114485486Y-104613270D01*
X114573316Y-104658021D01*
X114671379Y-104707987D01*
X114671381Y-104707987D01*
X114671384Y-104707989D01*
X114777745Y-104742548D01*
X114869810Y-104772462D01*
X115075876Y-104805100D01*
X115075881Y-104805100D01*
X115284524Y-104805100D01*
X115490589Y-104772462D01*
X115689016Y-104707989D01*
X115874914Y-104613270D01*
X116043705Y-104490635D01*
X116191235Y-104343105D01*
X116313870Y-104174314D01*
X116408589Y-103988416D01*
X116473062Y-103789989D01*
X116505700Y-103583924D01*
X116505700Y-103375275D01*
X116486434Y-103253642D01*
X116473062Y-103169211D01*
X116473061Y-103169207D01*
X116473061Y-103169206D01*
X116459732Y-103128184D01*
X116449259Y-103095953D01*
X139509100Y-103095953D01*
X139509100Y-103253646D01*
X139539861Y-103408289D01*
X139539864Y-103408301D01*
X139600202Y-103553972D01*
X139600206Y-103553979D01*
X139638202Y-103610844D01*
X139659080Y-103677521D01*
X139659100Y-103679735D01*
X139659100Y-105819464D01*
X139639415Y-105886503D01*
X139638203Y-105888354D01*
X139600208Y-105945217D01*
X139600202Y-105945228D01*
X139539864Y-106090898D01*
X139539861Y-106090910D01*
X139509100Y-106245553D01*
X139509100Y-106403246D01*
X139539861Y-106557889D01*
X139539864Y-106557901D01*
X139600202Y-106703572D01*
X139600209Y-106703585D01*
X139687810Y-106834688D01*
X139687813Y-106834692D01*
X139799307Y-106946186D01*
X139799311Y-106946189D01*
X139930414Y-107033790D01*
X139930427Y-107033797D01*
X140076098Y-107094135D01*
X140076103Y-107094137D01*
X140230753Y-107124899D01*
X140230756Y-107124900D01*
X140230758Y-107124900D01*
X140388444Y-107124900D01*
X140388445Y-107124899D01*
X140543097Y-107094137D01*
X140688779Y-107033794D01*
X140819889Y-106946189D01*
X140931389Y-106834689D01*
X141018994Y-106703579D01*
X141079337Y-106557897D01*
X141110100Y-106403242D01*
X141110100Y-106245558D01*
X141110100Y-106245555D01*
X141110099Y-106245553D01*
X141081285Y-106100697D01*
X141079337Y-106090903D01*
X141034187Y-105981900D01*
X141018997Y-105945228D01*
X141018996Y-105945227D01*
X141018994Y-105945221D01*
X140980996Y-105888353D01*
X140960120Y-105821676D01*
X140960100Y-105819464D01*
X140960100Y-103949300D01*
X140979785Y-103882261D01*
X141032589Y-103836506D01*
X141084100Y-103825300D01*
X155304991Y-103825300D01*
X155372030Y-103844985D01*
X155392672Y-103861619D01*
X156815383Y-105284330D01*
X156848868Y-105345653D01*
X156849319Y-105347820D01*
X156862660Y-105414889D01*
X156862663Y-105414901D01*
X156923001Y-105560572D01*
X156923008Y-105560585D01*
X157010609Y-105691688D01*
X157010612Y-105691692D01*
X157122106Y-105803186D01*
X157122110Y-105803189D01*
X157253213Y-105890790D01*
X157253226Y-105890797D01*
X157384619Y-105945221D01*
X157398902Y-105951137D01*
X157553552Y-105981899D01*
X157553555Y-105981900D01*
X157553557Y-105981900D01*
X157711243Y-105981900D01*
X157711244Y-105981899D01*
X157865896Y-105951137D01*
X158011578Y-105890794D01*
X158142688Y-105803189D01*
X158254188Y-105691689D01*
X158341793Y-105560579D01*
X158402136Y-105414897D01*
X158432899Y-105260242D01*
X158432899Y-105102558D01*
X158432899Y-105102555D01*
X158432898Y-105102553D01*
X158402137Y-104947910D01*
X158402136Y-104947903D01*
X158342986Y-104805100D01*
X158341796Y-104802227D01*
X158341789Y-104802214D01*
X158254188Y-104671111D01*
X158254185Y-104671107D01*
X158142691Y-104559613D01*
X158142687Y-104559610D01*
X158011584Y-104472009D01*
X158011571Y-104472002D01*
X157865900Y-104411664D01*
X157865888Y-104411661D01*
X157798819Y-104398320D01*
X157736908Y-104365935D01*
X157735329Y-104364384D01*
X156040473Y-102669527D01*
X156040472Y-102669526D01*
X156040468Y-102669523D01*
X155933926Y-102598335D01*
X155815543Y-102549299D01*
X155815537Y-102549297D01*
X155689870Y-102524300D01*
X155689868Y-102524300D01*
X140814535Y-102524300D01*
X140747496Y-102504615D01*
X140745690Y-102503433D01*
X140688779Y-102465406D01*
X140688772Y-102465402D01*
X140543101Y-102405064D01*
X140543089Y-102405061D01*
X140388445Y-102374300D01*
X140388442Y-102374300D01*
X140230758Y-102374300D01*
X140230755Y-102374300D01*
X140076110Y-102405061D01*
X140076098Y-102405064D01*
X139930427Y-102465402D01*
X139930414Y-102465409D01*
X139799311Y-102553010D01*
X139799307Y-102553013D01*
X139687813Y-102664507D01*
X139687810Y-102664511D01*
X139600209Y-102795614D01*
X139600202Y-102795627D01*
X139539864Y-102941298D01*
X139539861Y-102941310D01*
X139509100Y-103095953D01*
X116449259Y-103095953D01*
X116408587Y-102970779D01*
X116339715Y-102835610D01*
X116313870Y-102784886D01*
X116191235Y-102616095D01*
X116043705Y-102468565D01*
X115874914Y-102345930D01*
X115824190Y-102320085D01*
X115823637Y-102319803D01*
X115772841Y-102271828D01*
X115756046Y-102204007D01*
X115778584Y-102137872D01*
X115823638Y-102098833D01*
X115874648Y-102072842D01*
X115874649Y-102072842D01*
X115924018Y-102036972D01*
X115924018Y-102036971D01*
X115350434Y-101463387D01*
X115392492Y-101452118D01*
X115517908Y-101379710D01*
X115620310Y-101277308D01*
X115692718Y-101151892D01*
X115703987Y-101109834D01*
X116277571Y-101683418D01*
X116277572Y-101683418D01*
X116313440Y-101634051D01*
X116408124Y-101448227D01*
X116472573Y-101249872D01*
X116505200Y-101043879D01*
X116505200Y-100835320D01*
X116472573Y-100629327D01*
X116408124Y-100430972D01*
X116313444Y-100245156D01*
X116313436Y-100245143D01*
X116277572Y-100195780D01*
X116277571Y-100195779D01*
X115703987Y-100769364D01*
X115692718Y-100727308D01*
X115620310Y-100601892D01*
X115517908Y-100499490D01*
X115392492Y-100427082D01*
X115350433Y-100415812D01*
X115924019Y-99842227D01*
X115874651Y-99806359D01*
X115823085Y-99780085D01*
X115772289Y-99732111D01*
X115755494Y-99664290D01*
X115778031Y-99598155D01*
X115823085Y-99559115D01*
X115874651Y-99532840D01*
X115924018Y-99496972D01*
X115924018Y-99496971D01*
X115350434Y-98923387D01*
X115392492Y-98912118D01*
X115517908Y-98839710D01*
X115620310Y-98737308D01*
X115692718Y-98611892D01*
X115703987Y-98569834D01*
X116277571Y-99143418D01*
X116277572Y-99143418D01*
X116313440Y-99094051D01*
X116408124Y-98908227D01*
X116472573Y-98709872D01*
X116505200Y-98503879D01*
X116505200Y-98295320D01*
X116472573Y-98089327D01*
X116408124Y-97890972D01*
X116313438Y-97705145D01*
X116215094Y-97569785D01*
X116191614Y-97503979D01*
X116207439Y-97435925D01*
X116257545Y-97387230D01*
X116315412Y-97372900D01*
X118428881Y-97372900D01*
X118495920Y-97392585D01*
X118516562Y-97409219D01*
X121351928Y-100244585D01*
X121378808Y-100284814D01*
X121438602Y-100429172D01*
X121438609Y-100429185D01*
X121526210Y-100560288D01*
X121526213Y-100560292D01*
X121637707Y-100671786D01*
X121637711Y-100671789D01*
X121768814Y-100759390D01*
X121768827Y-100759397D01*
X121914498Y-100819735D01*
X121914503Y-100819737D01*
X121992844Y-100835320D01*
X122069153Y-100850499D01*
X122069156Y-100850500D01*
X122069158Y-100850500D01*
X122226844Y-100850500D01*
X122226845Y-100850499D01*
X122381497Y-100819737D01*
X122456963Y-100788478D01*
X122525864Y-100759939D01*
X122573316Y-100750500D01*
X129330196Y-100750500D01*
X129446786Y-100727308D01*
X129465528Y-100723580D01*
X129529269Y-100697177D01*
X129593007Y-100670777D01*
X129593008Y-100670776D01*
X129593011Y-100670775D01*
X129707743Y-100594114D01*
X130808048Y-99493808D01*
X130864228Y-99409730D01*
X130884710Y-99379076D01*
X130937515Y-99251593D01*
X130937932Y-99249500D01*
X130953040Y-99173544D01*
X130964435Y-99116258D01*
X130964435Y-98481753D01*
X130984120Y-98414714D01*
X131015549Y-98381436D01*
X131131792Y-98296981D01*
X131143723Y-98288313D01*
X131143723Y-98288312D01*
X131143727Y-98288310D01*
X131294039Y-98137998D01*
X131294041Y-98137994D01*
X131294044Y-98137992D01*
X131418983Y-97966026D01*
X131418986Y-97966022D01*
X131423728Y-97956714D01*
X131471698Y-97905917D01*
X131539518Y-97889117D01*
X131605654Y-97911651D01*
X131644698Y-97956706D01*
X131649312Y-97965761D01*
X131774207Y-98137665D01*
X131774211Y-98137670D01*
X131924470Y-98287929D01*
X131924475Y-98287933D01*
X132096377Y-98412826D01*
X132285717Y-98509301D01*
X132487806Y-98574963D01*
X132553935Y-98585437D01*
X132553935Y-97691218D01*
X132610942Y-97724131D01*
X132738109Y-97758206D01*
X132869761Y-97758206D01*
X132996928Y-97724131D01*
X133053935Y-97691218D01*
X133053935Y-98585436D01*
X133120061Y-98574963D01*
X133120064Y-98574963D01*
X133322152Y-98509301D01*
X133511492Y-98412826D01*
X133683394Y-98287933D01*
X133683399Y-98287929D01*
X133833658Y-98137670D01*
X133833662Y-98137665D01*
X133958555Y-97965764D01*
X133963449Y-97956160D01*
X134011423Y-97905363D01*
X134079243Y-97888567D01*
X134145379Y-97911103D01*
X134184421Y-97956160D01*
X134189314Y-97965764D01*
X134314207Y-98137665D01*
X134314211Y-98137670D01*
X134464470Y-98287929D01*
X134464475Y-98287933D01*
X134636377Y-98412826D01*
X134825717Y-98509301D01*
X135027806Y-98574963D01*
X135093935Y-98585437D01*
X135093935Y-97691218D01*
X135150942Y-97724131D01*
X135278109Y-97758206D01*
X135409761Y-97758206D01*
X135536928Y-97724131D01*
X135593935Y-97691218D01*
X135593935Y-98585436D01*
X135660061Y-98574963D01*
X135660064Y-98574963D01*
X135862152Y-98509301D01*
X136051492Y-98412826D01*
X136223394Y-98287933D01*
X136223399Y-98287929D01*
X136373658Y-98137670D01*
X136373662Y-98137665D01*
X136498555Y-97965764D01*
X136503449Y-97956160D01*
X136551423Y-97905363D01*
X136619243Y-97888567D01*
X136685379Y-97911103D01*
X136724421Y-97956160D01*
X136729314Y-97965764D01*
X136854207Y-98137665D01*
X136854211Y-98137670D01*
X137004470Y-98287929D01*
X137004475Y-98287933D01*
X137176377Y-98412826D01*
X137365717Y-98509301D01*
X137567806Y-98574963D01*
X137633935Y-98585437D01*
X137633935Y-97691218D01*
X137690942Y-97724131D01*
X137818109Y-97758206D01*
X137949761Y-97758206D01*
X138076928Y-97724131D01*
X138133935Y-97691218D01*
X138133935Y-98585436D01*
X138200061Y-98574963D01*
X138200064Y-98574963D01*
X138402152Y-98509301D01*
X138591492Y-98412826D01*
X138763394Y-98287933D01*
X138763399Y-98287929D01*
X138913658Y-98137670D01*
X138913662Y-98137665D01*
X139038555Y-97965763D01*
X139135030Y-97776423D01*
X139200692Y-97574335D01*
X139200692Y-97574332D01*
X139211166Y-97508206D01*
X138316947Y-97508206D01*
X138349860Y-97451199D01*
X138383935Y-97324032D01*
X138383935Y-97192380D01*
X138349860Y-97065213D01*
X138316947Y-97008206D01*
X139211166Y-97008206D01*
X139200692Y-96942079D01*
X139200692Y-96942076D01*
X139135030Y-96739988D01*
X139038555Y-96550648D01*
X138913662Y-96378746D01*
X138913658Y-96378741D01*
X138763399Y-96228482D01*
X138763394Y-96228478D01*
X138591490Y-96103583D01*
X138582435Y-96098969D01*
X138531641Y-96050994D01*
X138514847Y-95983172D01*
X138537386Y-95917038D01*
X138582443Y-95877999D01*
X138591751Y-95873257D01*
X138681489Y-95808059D01*
X138763721Y-95748315D01*
X138763723Y-95748312D01*
X138763727Y-95748310D01*
X138914039Y-95597998D01*
X138914041Y-95597994D01*
X138914044Y-95597992D01*
X139038983Y-95426026D01*
X139038982Y-95426026D01*
X139038986Y-95426022D01*
X139135492Y-95236618D01*
X139201181Y-95034449D01*
X139234435Y-94824493D01*
X139234435Y-94632143D01*
X139254120Y-94565104D01*
X139306924Y-94519349D01*
X139376082Y-94509405D01*
X139439638Y-94538430D01*
X139446116Y-94544462D01*
X144390725Y-99489072D01*
X144390728Y-99489075D01*
X144474015Y-99544725D01*
X144474014Y-99544725D01*
X144491477Y-99556392D01*
X144497273Y-99560265D01*
X144615656Y-99609301D01*
X144615660Y-99609301D01*
X144615661Y-99609302D01*
X144741328Y-99634300D01*
X144741331Y-99634300D01*
X148720065Y-99634300D01*
X148787104Y-99653985D01*
X148788909Y-99655166D01*
X148845821Y-99693194D01*
X148845823Y-99693195D01*
X148845827Y-99693197D01*
X148991498Y-99753535D01*
X148991503Y-99753537D01*
X149124963Y-99780084D01*
X149146153Y-99784299D01*
X149146156Y-99784300D01*
X149146158Y-99784300D01*
X149303844Y-99784300D01*
X149303845Y-99784299D01*
X149458497Y-99753537D01*
X149604179Y-99693194D01*
X149735289Y-99605589D01*
X149846789Y-99494089D01*
X149934394Y-99362979D01*
X149994737Y-99217297D01*
X150025500Y-99062642D01*
X150025500Y-98904958D01*
X150025500Y-98904955D01*
X150025499Y-98904953D01*
X149999209Y-98772785D01*
X149994737Y-98750303D01*
X149937406Y-98611892D01*
X149934397Y-98604627D01*
X149934390Y-98604614D01*
X149846789Y-98473511D01*
X149846786Y-98473507D01*
X149735292Y-98362013D01*
X149735288Y-98362010D01*
X149604185Y-98274409D01*
X149604172Y-98274402D01*
X149458501Y-98214064D01*
X149458489Y-98214061D01*
X149303845Y-98183300D01*
X149303842Y-98183300D01*
X149146158Y-98183300D01*
X149146155Y-98183300D01*
X148991510Y-98214061D01*
X148991498Y-98214064D01*
X148845827Y-98274402D01*
X148845820Y-98274406D01*
X148821862Y-98290415D01*
X148788955Y-98312402D01*
X148722279Y-98333280D01*
X148720065Y-98333300D01*
X145126208Y-98333300D01*
X145059169Y-98313615D01*
X145038527Y-98296981D01*
X139149474Y-92407927D01*
X139149473Y-92407926D01*
X139149466Y-92407921D01*
X139042927Y-92336735D01*
X138924544Y-92287699D01*
X138924538Y-92287697D01*
X138798871Y-92262700D01*
X138798869Y-92262700D01*
X130796731Y-92262700D01*
X130796729Y-92262700D01*
X130671061Y-92287697D01*
X130671051Y-92287700D01*
X130622020Y-92308010D01*
X130552681Y-92336730D01*
X130552663Y-92336740D01*
X130446132Y-92407921D01*
X130446125Y-92407927D01*
X129745924Y-93108128D01*
X129687865Y-93195020D01*
X129687866Y-93195021D01*
X129674736Y-93214671D01*
X129674733Y-93214677D01*
X129625699Y-93333055D01*
X129625697Y-93333061D01*
X129600700Y-93458728D01*
X129600700Y-93467583D01*
X129581015Y-93534622D01*
X129549585Y-93567901D01*
X129384149Y-93688096D01*
X129384144Y-93688100D01*
X129233825Y-93838419D01*
X129108884Y-94010388D01*
X129104419Y-94019152D01*
X129056444Y-94069948D01*
X128988623Y-94086742D01*
X128922488Y-94064204D01*
X128883451Y-94019152D01*
X128878985Y-94010388D01*
X128754044Y-93838419D01*
X128603721Y-93688096D01*
X128431755Y-93563157D01*
X128242349Y-93466650D01*
X128242348Y-93466649D01*
X128242347Y-93466649D01*
X128040178Y-93400960D01*
X128040176Y-93400959D01*
X128040175Y-93400959D01*
X127878892Y-93375414D01*
X127830222Y-93367706D01*
X127617648Y-93367706D01*
X127568977Y-93375414D01*
X127407695Y-93400959D01*
X127205520Y-93466650D01*
X127016114Y-93563157D01*
X126844148Y-93688096D01*
X126693825Y-93838419D01*
X126568884Y-94010388D01*
X126564419Y-94019152D01*
X126516444Y-94069948D01*
X126448623Y-94086742D01*
X126382488Y-94064204D01*
X126343451Y-94019152D01*
X126338985Y-94010388D01*
X126214044Y-93838419D01*
X126063721Y-93688096D01*
X125891755Y-93563157D01*
X125702349Y-93466650D01*
X125702348Y-93466649D01*
X125702347Y-93466649D01*
X125500178Y-93400960D01*
X125500176Y-93400959D01*
X125500175Y-93400959D01*
X125338892Y-93375414D01*
X125290222Y-93367706D01*
X125077648Y-93367706D01*
X125028977Y-93375414D01*
X124867695Y-93400959D01*
X124665520Y-93466650D01*
X124476114Y-93563157D01*
X124304148Y-93688096D01*
X124153825Y-93838419D01*
X124028886Y-94010385D01*
X123932379Y-94199791D01*
X123866688Y-94401966D01*
X123833435Y-94611919D01*
X123833435Y-94824492D01*
X123866688Y-95034445D01*
X123932379Y-95236620D01*
X124028886Y-95426026D01*
X124153825Y-95597992D01*
X124267365Y-95711532D01*
X124300850Y-95772855D01*
X124295866Y-95842547D01*
X124253994Y-95898480D01*
X124223018Y-95915395D01*
X124091604Y-95964409D01*
X124091599Y-95964412D01*
X123976390Y-96050658D01*
X123976387Y-96050661D01*
X123890141Y-96165870D01*
X123890137Y-96165877D01*
X123839843Y-96300723D01*
X123833436Y-96360322D01*
X123833435Y-96360341D01*
X123833435Y-98156076D01*
X123833436Y-98156082D01*
X123839843Y-98215689D01*
X123890137Y-98350534D01*
X123890141Y-98350541D01*
X123976387Y-98465750D01*
X123976390Y-98465753D01*
X124091599Y-98551999D01*
X124091606Y-98552003D01*
X124226452Y-98602297D01*
X124226451Y-98602297D01*
X124233379Y-98603041D01*
X124286062Y-98608706D01*
X126081807Y-98608705D01*
X126141418Y-98602297D01*
X126276266Y-98552002D01*
X126391481Y-98465752D01*
X126477731Y-98350537D01*
X126526745Y-98219122D01*
X126568616Y-98163190D01*
X126634080Y-98138772D01*
X126702353Y-98153623D01*
X126730608Y-98174775D01*
X126844148Y-98288315D01*
X127016114Y-98413254D01*
X127016116Y-98413255D01*
X127016119Y-98413257D01*
X127205523Y-98509763D01*
X127407692Y-98575452D01*
X127617648Y-98608706D01*
X127617649Y-98608706D01*
X127830221Y-98608706D01*
X127830222Y-98608706D01*
X128040178Y-98575452D01*
X128242347Y-98509763D01*
X128431751Y-98413257D01*
X128453724Y-98397292D01*
X128603721Y-98288315D01*
X128603723Y-98288312D01*
X128603727Y-98288310D01*
X128754039Y-98137998D01*
X128754041Y-98137994D01*
X128754044Y-98137992D01*
X128878983Y-97966026D01*
X128878982Y-97966026D01*
X128878986Y-97966022D01*
X128883449Y-97957260D01*
X128931423Y-97906465D01*
X128999243Y-97889669D01*
X129065379Y-97912205D01*
X129104421Y-97957262D01*
X129108886Y-97966026D01*
X129233825Y-98137992D01*
X129384146Y-98288313D01*
X129437658Y-98327191D01*
X129512320Y-98381435D01*
X129515660Y-98385766D01*
X129520638Y-98388040D01*
X129536768Y-98413139D01*
X129554986Y-98436764D01*
X129556239Y-98443437D01*
X129558412Y-98446818D01*
X129563435Y-98481753D01*
X129563435Y-98705746D01*
X129543750Y-98772785D01*
X129527116Y-98793427D01*
X129007362Y-99313181D01*
X128946039Y-99346666D01*
X128919681Y-99349500D01*
X122573316Y-99349500D01*
X122525863Y-99340061D01*
X122382813Y-99280808D01*
X122342585Y-99253928D01*
X119216946Y-96128288D01*
X119216945Y-96128287D01*
X119102207Y-96051622D01*
X118974732Y-95998821D01*
X118974722Y-95998818D01*
X118839396Y-95971900D01*
X118839394Y-95971900D01*
X118839393Y-95971900D01*
X113505394Y-95971900D01*
X113367406Y-95971900D01*
X113367404Y-95971900D01*
X113232077Y-95998818D01*
X113232067Y-95998821D01*
X113104592Y-96051622D01*
X112989854Y-96128287D01*
X112079485Y-97038656D01*
X112002828Y-97153382D01*
X112002822Y-97153394D01*
X111974205Y-97222479D01*
X111932531Y-97275341D01*
X111776701Y-97388560D01*
X111776692Y-97388567D01*
X111629166Y-97536093D01*
X111506530Y-97704885D01*
X111411812Y-97890779D01*
X111347337Y-98089210D01*
X111314700Y-98295275D01*
X101999152Y-98295275D01*
X101998928Y-93514358D01*
X102018609Y-93447320D01*
X102071411Y-93401563D01*
X102122897Y-93390355D01*
X111037463Y-93388300D01*
X111102392Y-93388300D01*
X111102447Y-93388285D01*
X111102507Y-93388285D01*
X111165128Y-93371489D01*
X111165128Y-93371492D01*
X111165150Y-93371482D01*
X111229686Y-93354192D01*
X111229697Y-93354185D01*
X111229783Y-93354149D01*
X111229793Y-93354147D01*
X111285002Y-93322253D01*
X111285028Y-93322247D01*
X111285025Y-93322241D01*
X111285027Y-93322240D01*
X111343814Y-93288300D01*
X111343816Y-93288297D01*
X111344224Y-93288062D01*
X111345618Y-93287269D01*
X111345784Y-93287176D01*
X111405762Y-93271358D01*
X111912400Y-93268800D01*
X111912400Y-91767553D01*
X141490300Y-91767553D01*
X141490300Y-91976046D01*
X141521061Y-92130689D01*
X141521064Y-92130701D01*
X141581402Y-92276372D01*
X141581409Y-92276385D01*
X141669010Y-92407488D01*
X141669013Y-92407492D01*
X144971011Y-95709489D01*
X145034377Y-95772855D01*
X145082512Y-95820990D01*
X145213614Y-95908590D01*
X145213618Y-95908592D01*
X145213621Y-95908594D01*
X145348374Y-95964410D01*
X145348377Y-95964411D01*
X145348378Y-95964412D01*
X145359298Y-95968935D01*
X145359303Y-95968937D01*
X145359307Y-95968937D01*
X145359308Y-95968938D01*
X145513954Y-95999700D01*
X145513957Y-95999700D01*
X155831644Y-95999700D01*
X155831645Y-95999699D01*
X155986297Y-95968937D01*
X156131979Y-95908594D01*
X156263089Y-95820989D01*
X156374589Y-95709489D01*
X156462194Y-95578379D01*
X156522537Y-95432697D01*
X156553300Y-95278042D01*
X156553300Y-95120358D01*
X156553300Y-95120355D01*
X156553299Y-95120353D01*
X156522537Y-94965703D01*
X156522535Y-94965698D01*
X156462197Y-94820027D01*
X156462190Y-94820014D01*
X156374589Y-94688911D01*
X156374586Y-94688907D01*
X156263092Y-94577413D01*
X156263088Y-94577410D01*
X156131985Y-94489809D01*
X156131972Y-94489802D01*
X155986301Y-94429464D01*
X155986289Y-94429461D01*
X155831645Y-94398700D01*
X155831642Y-94398700D01*
X145975740Y-94398700D01*
X145908701Y-94379015D01*
X145888059Y-94362381D01*
X143021577Y-91495899D01*
X143003904Y-91472069D01*
X143003579Y-91472287D01*
X142912589Y-91336110D01*
X142801092Y-91224613D01*
X142801088Y-91224610D01*
X142669985Y-91137009D01*
X142669972Y-91137002D01*
X142524301Y-91076664D01*
X142524289Y-91076661D01*
X142369645Y-91045900D01*
X142369642Y-91045900D01*
X142211958Y-91045900D01*
X142211955Y-91045900D01*
X142057310Y-91076661D01*
X142057298Y-91076664D01*
X141911627Y-91137002D01*
X141911614Y-91137009D01*
X141780511Y-91224610D01*
X141780507Y-91224613D01*
X141669013Y-91336107D01*
X141669010Y-91336111D01*
X141581409Y-91467214D01*
X141581402Y-91467227D01*
X141521064Y-91612898D01*
X141521061Y-91612910D01*
X141490300Y-91767553D01*
X111912400Y-91767553D01*
X111912400Y-91542670D01*
X120727803Y-91542670D01*
X140583039Y-91542670D01*
X140583039Y-90542344D01*
X120727803Y-90542344D01*
X120727803Y-91542670D01*
X111912400Y-91542670D01*
X111912400Y-89886960D01*
X111932085Y-89819921D01*
X111984889Y-89774166D01*
X112035756Y-89762962D01*
X151106959Y-89561044D01*
X151174099Y-89580382D01*
G37*
%TD.AperFunction*%
%TD*%
M02*
