%TF.GenerationSoftware,KiCad,Pcbnew,9.0.6*%
%TF.CreationDate,2025-12-26T20:15:28+00:00*%
%TF.ProjectId,PIDI-BOX-01-ADC-4-MAIN-A2,50494449-2d42-44f5-982d-30312d414443,rev?*%
%TF.SameCoordinates,Original*%
%TF.FileFunction,Legend,Bot*%
%TF.FilePolarity,Positive*%
%FSLAX46Y46*%
G04 Gerber Fmt 4.6, Leading zero omitted, Abs format (unit mm)*
G04 Created by KiCad (PCBNEW 9.0.6) date 2025-12-26 20:15:28*
%MOMM*%
%LPD*%
G01*
G04 APERTURE LIST*
%ADD10C,0.100000*%
%ADD11C,0.120000*%
G04 APERTURE END LIST*
D10*
X152781000Y-75082400D02*
X152297099Y-75082400D01*
X151765000Y-75590400D02*
X152781000Y-75082400D01*
X152781000Y-75082400D02*
X152552400Y-75438000D01*
X151426182Y-75991000D02*
X151297611Y-76033857D01*
X151297611Y-76033857D02*
X151083325Y-76033857D01*
X151083325Y-76033857D02*
X150997611Y-75991000D01*
X150997611Y-75991000D02*
X150954753Y-75948142D01*
X150954753Y-75948142D02*
X150911896Y-75862428D01*
X150911896Y-75862428D02*
X150911896Y-75776714D01*
X150911896Y-75776714D02*
X150954753Y-75691000D01*
X150954753Y-75691000D02*
X150997611Y-75648142D01*
X150997611Y-75648142D02*
X151083325Y-75605285D01*
X151083325Y-75605285D02*
X151254753Y-75562428D01*
X151254753Y-75562428D02*
X151340468Y-75519571D01*
X151340468Y-75519571D02*
X151383325Y-75476714D01*
X151383325Y-75476714D02*
X151426182Y-75391000D01*
X151426182Y-75391000D02*
X151426182Y-75305285D01*
X151426182Y-75305285D02*
X151383325Y-75219571D01*
X151383325Y-75219571D02*
X151340468Y-75176714D01*
X151340468Y-75176714D02*
X151254753Y-75133857D01*
X151254753Y-75133857D02*
X151040468Y-75133857D01*
X151040468Y-75133857D02*
X150911896Y-75176714D01*
X150011896Y-75948142D02*
X150054753Y-75991000D01*
X150054753Y-75991000D02*
X150183325Y-76033857D01*
X150183325Y-76033857D02*
X150269039Y-76033857D01*
X150269039Y-76033857D02*
X150397610Y-75991000D01*
X150397610Y-75991000D02*
X150483325Y-75905285D01*
X150483325Y-75905285D02*
X150526182Y-75819571D01*
X150526182Y-75819571D02*
X150569039Y-75648142D01*
X150569039Y-75648142D02*
X150569039Y-75519571D01*
X150569039Y-75519571D02*
X150526182Y-75348142D01*
X150526182Y-75348142D02*
X150483325Y-75262428D01*
X150483325Y-75262428D02*
X150397610Y-75176714D01*
X150397610Y-75176714D02*
X150269039Y-75133857D01*
X150269039Y-75133857D02*
X150183325Y-75133857D01*
X150183325Y-75133857D02*
X150054753Y-75176714D01*
X150054753Y-75176714D02*
X150011896Y-75219571D01*
X149197610Y-76033857D02*
X149626182Y-76033857D01*
X149626182Y-76033857D02*
X149626182Y-75133857D01*
X148254754Y-75091000D02*
X149026182Y-76248142D01*
X147997611Y-75991000D02*
X147869040Y-76033857D01*
X147869040Y-76033857D02*
X147654754Y-76033857D01*
X147654754Y-76033857D02*
X147569040Y-75991000D01*
X147569040Y-75991000D02*
X147526182Y-75948142D01*
X147526182Y-75948142D02*
X147483325Y-75862428D01*
X147483325Y-75862428D02*
X147483325Y-75776714D01*
X147483325Y-75776714D02*
X147526182Y-75691000D01*
X147526182Y-75691000D02*
X147569040Y-75648142D01*
X147569040Y-75648142D02*
X147654754Y-75605285D01*
X147654754Y-75605285D02*
X147826182Y-75562428D01*
X147826182Y-75562428D02*
X147911897Y-75519571D01*
X147911897Y-75519571D02*
X147954754Y-75476714D01*
X147954754Y-75476714D02*
X147997611Y-75391000D01*
X147997611Y-75391000D02*
X147997611Y-75305285D01*
X147997611Y-75305285D02*
X147954754Y-75219571D01*
X147954754Y-75219571D02*
X147911897Y-75176714D01*
X147911897Y-75176714D02*
X147826182Y-75133857D01*
X147826182Y-75133857D02*
X147611897Y-75133857D01*
X147611897Y-75133857D02*
X147483325Y-75176714D01*
X147097611Y-76033857D02*
X147097611Y-75133857D01*
X147097611Y-75133857D02*
X146883325Y-75133857D01*
X146883325Y-75133857D02*
X146754754Y-75176714D01*
X146754754Y-75176714D02*
X146669039Y-75262428D01*
X146669039Y-75262428D02*
X146626182Y-75348142D01*
X146626182Y-75348142D02*
X146583325Y-75519571D01*
X146583325Y-75519571D02*
X146583325Y-75648142D01*
X146583325Y-75648142D02*
X146626182Y-75819571D01*
X146626182Y-75819571D02*
X146669039Y-75905285D01*
X146669039Y-75905285D02*
X146754754Y-75991000D01*
X146754754Y-75991000D02*
X146883325Y-76033857D01*
X146883325Y-76033857D02*
X147097611Y-76033857D01*
X146240468Y-75776714D02*
X145811897Y-75776714D01*
X146326182Y-76033857D02*
X146026182Y-75133857D01*
X146026182Y-75133857D02*
X145726182Y-76033857D01*
X154706001Y-69865419D02*
X154706001Y-70579704D01*
X154706001Y-70579704D02*
X154753620Y-70722561D01*
X154753620Y-70722561D02*
X154848858Y-70817800D01*
X154848858Y-70817800D02*
X154991715Y-70865419D01*
X154991715Y-70865419D02*
X155086953Y-70865419D01*
X154229810Y-70865419D02*
X154229810Y-69865419D01*
X154229810Y-69865419D02*
X153848858Y-69865419D01*
X153848858Y-69865419D02*
X153753620Y-69913038D01*
X153753620Y-69913038D02*
X153706001Y-69960657D01*
X153706001Y-69960657D02*
X153658382Y-70055895D01*
X153658382Y-70055895D02*
X153658382Y-70198752D01*
X153658382Y-70198752D02*
X153706001Y-70293990D01*
X153706001Y-70293990D02*
X153753620Y-70341609D01*
X153753620Y-70341609D02*
X153848858Y-70389228D01*
X153848858Y-70389228D02*
X154229810Y-70389228D01*
X152753620Y-69865419D02*
X153229810Y-69865419D01*
X153229810Y-69865419D02*
X153277429Y-70341609D01*
X153277429Y-70341609D02*
X153229810Y-70293990D01*
X153229810Y-70293990D02*
X153134572Y-70246371D01*
X153134572Y-70246371D02*
X152896477Y-70246371D01*
X152896477Y-70246371D02*
X152801239Y-70293990D01*
X152801239Y-70293990D02*
X152753620Y-70341609D01*
X152753620Y-70341609D02*
X152706001Y-70436847D01*
X152706001Y-70436847D02*
X152706001Y-70674942D01*
X152706001Y-70674942D02*
X152753620Y-70770180D01*
X152753620Y-70770180D02*
X152801239Y-70817800D01*
X152801239Y-70817800D02*
X152896477Y-70865419D01*
X152896477Y-70865419D02*
X153134572Y-70865419D01*
X153134572Y-70865419D02*
X153229810Y-70817800D01*
X153229810Y-70817800D02*
X153277429Y-70770180D01*
X156082325Y-83271707D02*
X156082325Y-82371707D01*
X155696611Y-82457421D02*
X155653754Y-82414564D01*
X155653754Y-82414564D02*
X155568040Y-82371707D01*
X155568040Y-82371707D02*
X155353754Y-82371707D01*
X155353754Y-82371707D02*
X155268040Y-82414564D01*
X155268040Y-82414564D02*
X155225182Y-82457421D01*
X155225182Y-82457421D02*
X155182325Y-82543135D01*
X155182325Y-82543135D02*
X155182325Y-82628850D01*
X155182325Y-82628850D02*
X155225182Y-82757421D01*
X155225182Y-82757421D02*
X155739468Y-83271707D01*
X155739468Y-83271707D02*
X155182325Y-83271707D01*
X154282325Y-83185992D02*
X154325182Y-83228850D01*
X154325182Y-83228850D02*
X154453754Y-83271707D01*
X154453754Y-83271707D02*
X154539468Y-83271707D01*
X154539468Y-83271707D02*
X154668039Y-83228850D01*
X154668039Y-83228850D02*
X154753754Y-83143135D01*
X154753754Y-83143135D02*
X154796611Y-83057421D01*
X154796611Y-83057421D02*
X154839468Y-82885992D01*
X154839468Y-82885992D02*
X154839468Y-82757421D01*
X154839468Y-82757421D02*
X154796611Y-82585992D01*
X154796611Y-82585992D02*
X154753754Y-82500278D01*
X154753754Y-82500278D02*
X154668039Y-82414564D01*
X154668039Y-82414564D02*
X154539468Y-82371707D01*
X154539468Y-82371707D02*
X154453754Y-82371707D01*
X154453754Y-82371707D02*
X154325182Y-82414564D01*
X154325182Y-82414564D02*
X154282325Y-82457421D01*
X153253754Y-83014564D02*
X152825183Y-83014564D01*
X153339468Y-83271707D02*
X153039468Y-82371707D01*
X153039468Y-82371707D02*
X152739468Y-83271707D01*
X152439468Y-83271707D02*
X152439468Y-82371707D01*
X152439468Y-82371707D02*
X152225182Y-82371707D01*
X152225182Y-82371707D02*
X152096611Y-82414564D01*
X152096611Y-82414564D02*
X152010896Y-82500278D01*
X152010896Y-82500278D02*
X151968039Y-82585992D01*
X151968039Y-82585992D02*
X151925182Y-82757421D01*
X151925182Y-82757421D02*
X151925182Y-82885992D01*
X151925182Y-82885992D02*
X151968039Y-83057421D01*
X151968039Y-83057421D02*
X152010896Y-83143135D01*
X152010896Y-83143135D02*
X152096611Y-83228850D01*
X152096611Y-83228850D02*
X152225182Y-83271707D01*
X152225182Y-83271707D02*
X152439468Y-83271707D01*
X151539468Y-83271707D02*
X151539468Y-82371707D01*
X151539468Y-82371707D02*
X151325182Y-82371707D01*
X151325182Y-82371707D02*
X151196611Y-82414564D01*
X151196611Y-82414564D02*
X151110896Y-82500278D01*
X151110896Y-82500278D02*
X151068039Y-82585992D01*
X151068039Y-82585992D02*
X151025182Y-82757421D01*
X151025182Y-82757421D02*
X151025182Y-82885992D01*
X151025182Y-82885992D02*
X151068039Y-83057421D01*
X151068039Y-83057421D02*
X151110896Y-83143135D01*
X151110896Y-83143135D02*
X151196611Y-83228850D01*
X151196611Y-83228850D02*
X151325182Y-83271707D01*
X151325182Y-83271707D02*
X151539468Y-83271707D01*
X150125182Y-83271707D02*
X150425182Y-82843135D01*
X150639468Y-83271707D02*
X150639468Y-82371707D01*
X150639468Y-82371707D02*
X150296611Y-82371707D01*
X150296611Y-82371707D02*
X150210896Y-82414564D01*
X150210896Y-82414564D02*
X150168039Y-82457421D01*
X150168039Y-82457421D02*
X150125182Y-82543135D01*
X150125182Y-82543135D02*
X150125182Y-82671707D01*
X150125182Y-82671707D02*
X150168039Y-82757421D01*
X150168039Y-82757421D02*
X150210896Y-82800278D01*
X150210896Y-82800278D02*
X150296611Y-82843135D01*
X150296611Y-82843135D02*
X150639468Y-82843135D01*
X156125182Y-84677800D02*
X156039468Y-84720657D01*
X156039468Y-84720657D02*
X155868039Y-84720657D01*
X155868039Y-84720657D02*
X155782325Y-84677800D01*
X155782325Y-84677800D02*
X155739468Y-84592085D01*
X155739468Y-84592085D02*
X155739468Y-84549228D01*
X155739468Y-84549228D02*
X155782325Y-84463514D01*
X155782325Y-84463514D02*
X155868039Y-84420657D01*
X155868039Y-84420657D02*
X155996611Y-84420657D01*
X155996611Y-84420657D02*
X156082325Y-84377800D01*
X156082325Y-84377800D02*
X156125182Y-84292085D01*
X156125182Y-84292085D02*
X156125182Y-84249228D01*
X156125182Y-84249228D02*
X156082325Y-84163514D01*
X156082325Y-84163514D02*
X155996611Y-84120657D01*
X155996611Y-84120657D02*
X155868039Y-84120657D01*
X155868039Y-84120657D02*
X155782325Y-84163514D01*
X155010897Y-84677800D02*
X155096611Y-84720657D01*
X155096611Y-84720657D02*
X155268040Y-84720657D01*
X155268040Y-84720657D02*
X155353754Y-84677800D01*
X155353754Y-84677800D02*
X155396611Y-84592085D01*
X155396611Y-84592085D02*
X155396611Y-84249228D01*
X155396611Y-84249228D02*
X155353754Y-84163514D01*
X155353754Y-84163514D02*
X155268040Y-84120657D01*
X155268040Y-84120657D02*
X155096611Y-84120657D01*
X155096611Y-84120657D02*
X155010897Y-84163514D01*
X155010897Y-84163514D02*
X154968040Y-84249228D01*
X154968040Y-84249228D02*
X154968040Y-84334942D01*
X154968040Y-84334942D02*
X155396611Y-84420657D01*
X154453753Y-84720657D02*
X154539468Y-84677800D01*
X154539468Y-84677800D02*
X154582325Y-84592085D01*
X154582325Y-84592085D02*
X154582325Y-83820657D01*
X153768039Y-84677800D02*
X153853753Y-84720657D01*
X153853753Y-84720657D02*
X154025182Y-84720657D01*
X154025182Y-84720657D02*
X154110896Y-84677800D01*
X154110896Y-84677800D02*
X154153753Y-84592085D01*
X154153753Y-84592085D02*
X154153753Y-84249228D01*
X154153753Y-84249228D02*
X154110896Y-84163514D01*
X154110896Y-84163514D02*
X154025182Y-84120657D01*
X154025182Y-84120657D02*
X153853753Y-84120657D01*
X153853753Y-84120657D02*
X153768039Y-84163514D01*
X153768039Y-84163514D02*
X153725182Y-84249228D01*
X153725182Y-84249228D02*
X153725182Y-84334942D01*
X153725182Y-84334942D02*
X154153753Y-84420657D01*
X152953753Y-84677800D02*
X153039467Y-84720657D01*
X153039467Y-84720657D02*
X153210895Y-84720657D01*
X153210895Y-84720657D02*
X153296610Y-84677800D01*
X153296610Y-84677800D02*
X153339467Y-84634942D01*
X153339467Y-84634942D02*
X153382324Y-84549228D01*
X153382324Y-84549228D02*
X153382324Y-84292085D01*
X153382324Y-84292085D02*
X153339467Y-84206371D01*
X153339467Y-84206371D02*
X153296610Y-84163514D01*
X153296610Y-84163514D02*
X153210895Y-84120657D01*
X153210895Y-84120657D02*
X153039467Y-84120657D01*
X153039467Y-84120657D02*
X152953753Y-84163514D01*
X152696609Y-84120657D02*
X152353752Y-84120657D01*
X152568038Y-83820657D02*
X152568038Y-84592085D01*
X152568038Y-84592085D02*
X152525181Y-84677800D01*
X152525181Y-84677800D02*
X152439466Y-84720657D01*
X152439466Y-84720657D02*
X152353752Y-84720657D01*
X152213582Y-80715400D02*
X152085011Y-80758257D01*
X152085011Y-80758257D02*
X151870725Y-80758257D01*
X151870725Y-80758257D02*
X151785011Y-80715400D01*
X151785011Y-80715400D02*
X151742153Y-80672542D01*
X151742153Y-80672542D02*
X151699296Y-80586828D01*
X151699296Y-80586828D02*
X151699296Y-80501114D01*
X151699296Y-80501114D02*
X151742153Y-80415400D01*
X151742153Y-80415400D02*
X151785011Y-80372542D01*
X151785011Y-80372542D02*
X151870725Y-80329685D01*
X151870725Y-80329685D02*
X152042153Y-80286828D01*
X152042153Y-80286828D02*
X152127868Y-80243971D01*
X152127868Y-80243971D02*
X152170725Y-80201114D01*
X152170725Y-80201114D02*
X152213582Y-80115400D01*
X152213582Y-80115400D02*
X152213582Y-80029685D01*
X152213582Y-80029685D02*
X152170725Y-79943971D01*
X152170725Y-79943971D02*
X152127868Y-79901114D01*
X152127868Y-79901114D02*
X152042153Y-79858257D01*
X152042153Y-79858257D02*
X151827868Y-79858257D01*
X151827868Y-79858257D02*
X151699296Y-79901114D01*
X150799296Y-80672542D02*
X150842153Y-80715400D01*
X150842153Y-80715400D02*
X150970725Y-80758257D01*
X150970725Y-80758257D02*
X151056439Y-80758257D01*
X151056439Y-80758257D02*
X151185010Y-80715400D01*
X151185010Y-80715400D02*
X151270725Y-80629685D01*
X151270725Y-80629685D02*
X151313582Y-80543971D01*
X151313582Y-80543971D02*
X151356439Y-80372542D01*
X151356439Y-80372542D02*
X151356439Y-80243971D01*
X151356439Y-80243971D02*
X151313582Y-80072542D01*
X151313582Y-80072542D02*
X151270725Y-79986828D01*
X151270725Y-79986828D02*
X151185010Y-79901114D01*
X151185010Y-79901114D02*
X151056439Y-79858257D01*
X151056439Y-79858257D02*
X150970725Y-79858257D01*
X150970725Y-79858257D02*
X150842153Y-79901114D01*
X150842153Y-79901114D02*
X150799296Y-79943971D01*
X149985010Y-80758257D02*
X150413582Y-80758257D01*
X150413582Y-80758257D02*
X150413582Y-79858257D01*
X152213582Y-78124600D02*
X152085011Y-78167457D01*
X152085011Y-78167457D02*
X151870725Y-78167457D01*
X151870725Y-78167457D02*
X151785011Y-78124600D01*
X151785011Y-78124600D02*
X151742153Y-78081742D01*
X151742153Y-78081742D02*
X151699296Y-77996028D01*
X151699296Y-77996028D02*
X151699296Y-77910314D01*
X151699296Y-77910314D02*
X151742153Y-77824600D01*
X151742153Y-77824600D02*
X151785011Y-77781742D01*
X151785011Y-77781742D02*
X151870725Y-77738885D01*
X151870725Y-77738885D02*
X152042153Y-77696028D01*
X152042153Y-77696028D02*
X152127868Y-77653171D01*
X152127868Y-77653171D02*
X152170725Y-77610314D01*
X152170725Y-77610314D02*
X152213582Y-77524600D01*
X152213582Y-77524600D02*
X152213582Y-77438885D01*
X152213582Y-77438885D02*
X152170725Y-77353171D01*
X152170725Y-77353171D02*
X152127868Y-77310314D01*
X152127868Y-77310314D02*
X152042153Y-77267457D01*
X152042153Y-77267457D02*
X151827868Y-77267457D01*
X151827868Y-77267457D02*
X151699296Y-77310314D01*
X151313582Y-78167457D02*
X151313582Y-77267457D01*
X151313582Y-77267457D02*
X151099296Y-77267457D01*
X151099296Y-77267457D02*
X150970725Y-77310314D01*
X150970725Y-77310314D02*
X150885010Y-77396028D01*
X150885010Y-77396028D02*
X150842153Y-77481742D01*
X150842153Y-77481742D02*
X150799296Y-77653171D01*
X150799296Y-77653171D02*
X150799296Y-77781742D01*
X150799296Y-77781742D02*
X150842153Y-77953171D01*
X150842153Y-77953171D02*
X150885010Y-78038885D01*
X150885010Y-78038885D02*
X150970725Y-78124600D01*
X150970725Y-78124600D02*
X151099296Y-78167457D01*
X151099296Y-78167457D02*
X151313582Y-78167457D01*
X150456439Y-77910314D02*
X150027868Y-77910314D01*
X150542153Y-78167457D02*
X150242153Y-77267457D01*
X150242153Y-77267457D02*
X149942153Y-78167457D01*
X155876495Y-78276533D02*
X156447923Y-78276533D01*
X156447923Y-78276533D02*
X156562209Y-78238438D01*
X156562209Y-78238438D02*
X156638400Y-78162247D01*
X156638400Y-78162247D02*
X156676495Y-78047962D01*
X156676495Y-78047962D02*
X156676495Y-77971771D01*
X156676495Y-78657486D02*
X155876495Y-78657486D01*
X155876495Y-78657486D02*
X155876495Y-78962248D01*
X155876495Y-78962248D02*
X155914590Y-79038438D01*
X155914590Y-79038438D02*
X155952685Y-79076533D01*
X155952685Y-79076533D02*
X156028876Y-79114629D01*
X156028876Y-79114629D02*
X156143161Y-79114629D01*
X156143161Y-79114629D02*
X156219352Y-79076533D01*
X156219352Y-79076533D02*
X156257447Y-79038438D01*
X156257447Y-79038438D02*
X156295542Y-78962248D01*
X156295542Y-78962248D02*
X156295542Y-78657486D01*
X155876495Y-79381295D02*
X155876495Y-79876533D01*
X155876495Y-79876533D02*
X156181257Y-79609867D01*
X156181257Y-79609867D02*
X156181257Y-79724152D01*
X156181257Y-79724152D02*
X156219352Y-79800343D01*
X156219352Y-79800343D02*
X156257447Y-79838438D01*
X156257447Y-79838438D02*
X156333638Y-79876533D01*
X156333638Y-79876533D02*
X156524114Y-79876533D01*
X156524114Y-79876533D02*
X156600304Y-79838438D01*
X156600304Y-79838438D02*
X156638400Y-79800343D01*
X156638400Y-79800343D02*
X156676495Y-79724152D01*
X156676495Y-79724152D02*
X156676495Y-79495581D01*
X156676495Y-79495581D02*
X156638400Y-79419390D01*
X156638400Y-79419390D02*
X156600304Y-79381295D01*
X155876495Y-72739333D02*
X156447923Y-72739333D01*
X156447923Y-72739333D02*
X156562209Y-72701238D01*
X156562209Y-72701238D02*
X156638400Y-72625047D01*
X156638400Y-72625047D02*
X156676495Y-72510762D01*
X156676495Y-72510762D02*
X156676495Y-72434571D01*
X156676495Y-73120286D02*
X155876495Y-73120286D01*
X155876495Y-73120286D02*
X155876495Y-73425048D01*
X155876495Y-73425048D02*
X155914590Y-73501238D01*
X155914590Y-73501238D02*
X155952685Y-73539333D01*
X155952685Y-73539333D02*
X156028876Y-73577429D01*
X156028876Y-73577429D02*
X156143161Y-73577429D01*
X156143161Y-73577429D02*
X156219352Y-73539333D01*
X156219352Y-73539333D02*
X156257447Y-73501238D01*
X156257447Y-73501238D02*
X156295542Y-73425048D01*
X156295542Y-73425048D02*
X156295542Y-73120286D01*
X156143161Y-74263143D02*
X156676495Y-74263143D01*
X155838400Y-74072667D02*
X156409828Y-73882190D01*
X156409828Y-73882190D02*
X156409828Y-74377429D01*
D11*
%TO.C,JP3*%
X152617300Y-80494000D02*
X152617300Y-79894000D01*
X152917300Y-80194000D02*
X152617300Y-79894000D01*
X152917300Y-80194000D02*
X152617300Y-80494000D01*
X153117300Y-77594000D02*
X153117300Y-80394000D01*
X153817300Y-81044000D02*
X154417300Y-81044000D01*
X154417300Y-76944000D02*
X153817300Y-76944000D01*
X155117300Y-80394000D02*
X155117300Y-77594000D01*
X153117300Y-77644000D02*
G75*
G02*
X153817300Y-76944000I700000J0D01*
G01*
X153817300Y-81044000D02*
G75*
G02*
X153117300Y-80344000I-1J699999D01*
G01*
X154417300Y-76944000D02*
G75*
G02*
X155117300Y-77644000I0J-700000D01*
G01*
X155117300Y-80344000D02*
G75*
G02*
X154417300Y-81044000I-699999J-1D01*
G01*
%TO.C,JP4*%
X153127200Y-71925200D02*
X153127200Y-74725200D01*
X153827200Y-75375200D02*
X154427200Y-75375200D01*
X154427200Y-71275200D02*
X153827200Y-71275200D01*
X155127200Y-74725200D02*
X155127200Y-71925200D01*
X155327200Y-72125200D02*
X155627200Y-71825200D01*
X155327200Y-72125200D02*
X155627200Y-72425200D01*
X155627200Y-71825200D02*
X155627200Y-72425200D01*
X153127200Y-71975200D02*
G75*
G02*
X153827200Y-71275200I699999J1D01*
G01*
X153827200Y-75375200D02*
G75*
G02*
X153127200Y-74675200I0J700000D01*
G01*
X154427200Y-71275200D02*
G75*
G02*
X155127200Y-71975200I1J-699999D01*
G01*
X155127200Y-74675200D02*
G75*
G02*
X154427200Y-75375200I-700000J0D01*
G01*
%TD*%
M02*
