%TF.GenerationSoftware,KiCad,Pcbnew,9.0.6*%
%TF.CreationDate,2025-12-26T20:15:28+00:00*%
%TF.ProjectId,PIDI-BOX-01-ADC-4-MAIN-A2,50494449-2d42-44f5-982d-30312d414443,rev?*%
%TF.SameCoordinates,Original*%
%TF.FileFunction,Legend,Top*%
%TF.FilePolarity,Positive*%
%FSLAX46Y46*%
G04 Gerber Fmt 4.6, Leading zero omitted, Abs format (unit mm)*
G04 Created by KiCad (PCBNEW 9.0.6) date 2025-12-26 20:15:28*
%MOMM*%
%LPD*%
G01*
G04 APERTURE LIST*
%ADD10C,0.100000*%
%ADD11C,0.150000*%
%ADD12C,0.120000*%
%ADD13C,0.200000*%
%ADD14C,0.152400*%
G04 APERTURE END LIST*
D10*
X160288912Y-86764895D02*
X159831769Y-86764895D01*
X160060341Y-86764895D02*
X160060341Y-85964895D01*
X160060341Y-85964895D02*
X159984150Y-86079180D01*
X159984150Y-86079180D02*
X159907960Y-86155371D01*
X159907960Y-86155371D02*
X159831769Y-86193466D01*
D11*
X142017979Y-88312619D02*
X142017979Y-87312619D01*
X142017979Y-87312619D02*
X142398931Y-87312619D01*
X142398931Y-87312619D02*
X142494169Y-87360238D01*
X142494169Y-87360238D02*
X142541788Y-87407857D01*
X142541788Y-87407857D02*
X142589407Y-87503095D01*
X142589407Y-87503095D02*
X142589407Y-87645952D01*
X142589407Y-87645952D02*
X142541788Y-87741190D01*
X142541788Y-87741190D02*
X142494169Y-87788809D01*
X142494169Y-87788809D02*
X142398931Y-87836428D01*
X142398931Y-87836428D02*
X142017979Y-87836428D01*
X143017979Y-88312619D02*
X143017979Y-87312619D01*
X143494169Y-88312619D02*
X143494169Y-87312619D01*
X143494169Y-87312619D02*
X143732264Y-87312619D01*
X143732264Y-87312619D02*
X143875121Y-87360238D01*
X143875121Y-87360238D02*
X143970359Y-87455476D01*
X143970359Y-87455476D02*
X144017978Y-87550714D01*
X144017978Y-87550714D02*
X144065597Y-87741190D01*
X144065597Y-87741190D02*
X144065597Y-87884047D01*
X144065597Y-87884047D02*
X144017978Y-88074523D01*
X144017978Y-88074523D02*
X143970359Y-88169761D01*
X143970359Y-88169761D02*
X143875121Y-88265000D01*
X143875121Y-88265000D02*
X143732264Y-88312619D01*
X143732264Y-88312619D02*
X143494169Y-88312619D01*
X144494169Y-88312619D02*
X144494169Y-87312619D01*
X144970359Y-87931666D02*
X145732264Y-87931666D01*
X146541787Y-87788809D02*
X146684644Y-87836428D01*
X146684644Y-87836428D02*
X146732263Y-87884047D01*
X146732263Y-87884047D02*
X146779882Y-87979285D01*
X146779882Y-87979285D02*
X146779882Y-88122142D01*
X146779882Y-88122142D02*
X146732263Y-88217380D01*
X146732263Y-88217380D02*
X146684644Y-88265000D01*
X146684644Y-88265000D02*
X146589406Y-88312619D01*
X146589406Y-88312619D02*
X146208454Y-88312619D01*
X146208454Y-88312619D02*
X146208454Y-87312619D01*
X146208454Y-87312619D02*
X146541787Y-87312619D01*
X146541787Y-87312619D02*
X146637025Y-87360238D01*
X146637025Y-87360238D02*
X146684644Y-87407857D01*
X146684644Y-87407857D02*
X146732263Y-87503095D01*
X146732263Y-87503095D02*
X146732263Y-87598333D01*
X146732263Y-87598333D02*
X146684644Y-87693571D01*
X146684644Y-87693571D02*
X146637025Y-87741190D01*
X146637025Y-87741190D02*
X146541787Y-87788809D01*
X146541787Y-87788809D02*
X146208454Y-87788809D01*
X147398930Y-87312619D02*
X147589406Y-87312619D01*
X147589406Y-87312619D02*
X147684644Y-87360238D01*
X147684644Y-87360238D02*
X147779882Y-87455476D01*
X147779882Y-87455476D02*
X147827501Y-87645952D01*
X147827501Y-87645952D02*
X147827501Y-87979285D01*
X147827501Y-87979285D02*
X147779882Y-88169761D01*
X147779882Y-88169761D02*
X147684644Y-88265000D01*
X147684644Y-88265000D02*
X147589406Y-88312619D01*
X147589406Y-88312619D02*
X147398930Y-88312619D01*
X147398930Y-88312619D02*
X147303692Y-88265000D01*
X147303692Y-88265000D02*
X147208454Y-88169761D01*
X147208454Y-88169761D02*
X147160835Y-87979285D01*
X147160835Y-87979285D02*
X147160835Y-87645952D01*
X147160835Y-87645952D02*
X147208454Y-87455476D01*
X147208454Y-87455476D02*
X147303692Y-87360238D01*
X147303692Y-87360238D02*
X147398930Y-87312619D01*
X148160835Y-87312619D02*
X148827501Y-88312619D01*
X148827501Y-87312619D02*
X148160835Y-88312619D01*
X149208454Y-87931666D02*
X149970359Y-87931666D01*
X150637025Y-87312619D02*
X150732263Y-87312619D01*
X150732263Y-87312619D02*
X150827501Y-87360238D01*
X150827501Y-87360238D02*
X150875120Y-87407857D01*
X150875120Y-87407857D02*
X150922739Y-87503095D01*
X150922739Y-87503095D02*
X150970358Y-87693571D01*
X150970358Y-87693571D02*
X150970358Y-87931666D01*
X150970358Y-87931666D02*
X150922739Y-88122142D01*
X150922739Y-88122142D02*
X150875120Y-88217380D01*
X150875120Y-88217380D02*
X150827501Y-88265000D01*
X150827501Y-88265000D02*
X150732263Y-88312619D01*
X150732263Y-88312619D02*
X150637025Y-88312619D01*
X150637025Y-88312619D02*
X150541787Y-88265000D01*
X150541787Y-88265000D02*
X150494168Y-88217380D01*
X150494168Y-88217380D02*
X150446549Y-88122142D01*
X150446549Y-88122142D02*
X150398930Y-87931666D01*
X150398930Y-87931666D02*
X150398930Y-87693571D01*
X150398930Y-87693571D02*
X150446549Y-87503095D01*
X150446549Y-87503095D02*
X150494168Y-87407857D01*
X150494168Y-87407857D02*
X150541787Y-87360238D01*
X150541787Y-87360238D02*
X150637025Y-87312619D01*
X151922739Y-88312619D02*
X151351311Y-88312619D01*
X151637025Y-88312619D02*
X151637025Y-87312619D01*
X151637025Y-87312619D02*
X151541787Y-87455476D01*
X151541787Y-87455476D02*
X151446549Y-87550714D01*
X151446549Y-87550714D02*
X151351311Y-87598333D01*
X152351311Y-87931666D02*
X153113216Y-87931666D01*
X153541787Y-88026904D02*
X154017977Y-88026904D01*
X153446549Y-88312619D02*
X153779882Y-87312619D01*
X153779882Y-87312619D02*
X154113215Y-88312619D01*
X154446549Y-88312619D02*
X154446549Y-87312619D01*
X154446549Y-87312619D02*
X154684644Y-87312619D01*
X154684644Y-87312619D02*
X154827501Y-87360238D01*
X154827501Y-87360238D02*
X154922739Y-87455476D01*
X154922739Y-87455476D02*
X154970358Y-87550714D01*
X154970358Y-87550714D02*
X155017977Y-87741190D01*
X155017977Y-87741190D02*
X155017977Y-87884047D01*
X155017977Y-87884047D02*
X154970358Y-88074523D01*
X154970358Y-88074523D02*
X154922739Y-88169761D01*
X154922739Y-88169761D02*
X154827501Y-88265000D01*
X154827501Y-88265000D02*
X154684644Y-88312619D01*
X154684644Y-88312619D02*
X154446549Y-88312619D01*
X156017977Y-88217380D02*
X155970358Y-88265000D01*
X155970358Y-88265000D02*
X155827501Y-88312619D01*
X155827501Y-88312619D02*
X155732263Y-88312619D01*
X155732263Y-88312619D02*
X155589406Y-88265000D01*
X155589406Y-88265000D02*
X155494168Y-88169761D01*
X155494168Y-88169761D02*
X155446549Y-88074523D01*
X155446549Y-88074523D02*
X155398930Y-87884047D01*
X155398930Y-87884047D02*
X155398930Y-87741190D01*
X155398930Y-87741190D02*
X155446549Y-87550714D01*
X155446549Y-87550714D02*
X155494168Y-87455476D01*
X155494168Y-87455476D02*
X155589406Y-87360238D01*
X155589406Y-87360238D02*
X155732263Y-87312619D01*
X155732263Y-87312619D02*
X155827501Y-87312619D01*
X155827501Y-87312619D02*
X155970358Y-87360238D01*
X155970358Y-87360238D02*
X156017977Y-87407857D01*
X156446549Y-87931666D02*
X157208454Y-87931666D01*
X158113215Y-87645952D02*
X158113215Y-88312619D01*
X157875120Y-87265000D02*
X157637025Y-87979285D01*
X157637025Y-87979285D02*
X158256072Y-87979285D01*
X158637025Y-87931666D02*
X159398930Y-87931666D01*
X159875120Y-88312619D02*
X159875120Y-87312619D01*
X159875120Y-87312619D02*
X160208453Y-88026904D01*
X160208453Y-88026904D02*
X160541786Y-87312619D01*
X160541786Y-87312619D02*
X160541786Y-88312619D01*
X160970358Y-88026904D02*
X161446548Y-88026904D01*
X160875120Y-88312619D02*
X161208453Y-87312619D01*
X161208453Y-87312619D02*
X161541786Y-88312619D01*
X161875120Y-88312619D02*
X161875120Y-87312619D01*
X162351310Y-88312619D02*
X162351310Y-87312619D01*
X162351310Y-87312619D02*
X162922738Y-88312619D01*
X162922738Y-88312619D02*
X162922738Y-87312619D01*
X163398929Y-87931666D02*
X164160834Y-87931666D01*
X164589405Y-88026904D02*
X165065595Y-88026904D01*
X164494167Y-88312619D02*
X164827500Y-87312619D01*
X164827500Y-87312619D02*
X165160833Y-88312619D01*
X165446548Y-87407857D02*
X165494167Y-87360238D01*
X165494167Y-87360238D02*
X165589405Y-87312619D01*
X165589405Y-87312619D02*
X165827500Y-87312619D01*
X165827500Y-87312619D02*
X165922738Y-87360238D01*
X165922738Y-87360238D02*
X165970357Y-87407857D01*
X165970357Y-87407857D02*
X166017976Y-87503095D01*
X166017976Y-87503095D02*
X166017976Y-87598333D01*
X166017976Y-87598333D02*
X165970357Y-87741190D01*
X165970357Y-87741190D02*
X165398929Y-88312619D01*
X165398929Y-88312619D02*
X166017976Y-88312619D01*
D10*
X156422495Y-76561885D02*
X156041542Y-76828552D01*
X156422495Y-77019028D02*
X155622495Y-77019028D01*
X155622495Y-77019028D02*
X155622495Y-76714266D01*
X155622495Y-76714266D02*
X155660590Y-76638076D01*
X155660590Y-76638076D02*
X155698685Y-76599981D01*
X155698685Y-76599981D02*
X155774876Y-76561885D01*
X155774876Y-76561885D02*
X155889161Y-76561885D01*
X155889161Y-76561885D02*
X155965352Y-76599981D01*
X155965352Y-76599981D02*
X156003447Y-76638076D01*
X156003447Y-76638076D02*
X156041542Y-76714266D01*
X156041542Y-76714266D02*
X156041542Y-77019028D01*
X155622495Y-76295219D02*
X155622495Y-75799981D01*
X155622495Y-75799981D02*
X155927257Y-76066647D01*
X155927257Y-76066647D02*
X155927257Y-75952362D01*
X155927257Y-75952362D02*
X155965352Y-75876171D01*
X155965352Y-75876171D02*
X156003447Y-75838076D01*
X156003447Y-75838076D02*
X156079638Y-75799981D01*
X156079638Y-75799981D02*
X156270114Y-75799981D01*
X156270114Y-75799981D02*
X156346304Y-75838076D01*
X156346304Y-75838076D02*
X156384400Y-75876171D01*
X156384400Y-75876171D02*
X156422495Y-75952362D01*
X156422495Y-75952362D02*
X156422495Y-76180933D01*
X156422495Y-76180933D02*
X156384400Y-76257124D01*
X156384400Y-76257124D02*
X156346304Y-76295219D01*
X156422495Y-75038076D02*
X156422495Y-75495219D01*
X156422495Y-75266647D02*
X155622495Y-75266647D01*
X155622495Y-75266647D02*
X155736780Y-75342838D01*
X155736780Y-75342838D02*
X155812971Y-75419028D01*
X155812971Y-75419028D02*
X155851066Y-75495219D01*
X173435714Y-60064895D02*
X173169047Y-59683942D01*
X172978571Y-60064895D02*
X172978571Y-59264895D01*
X172978571Y-59264895D02*
X173283333Y-59264895D01*
X173283333Y-59264895D02*
X173359523Y-59302990D01*
X173359523Y-59302990D02*
X173397618Y-59341085D01*
X173397618Y-59341085D02*
X173435714Y-59417276D01*
X173435714Y-59417276D02*
X173435714Y-59531561D01*
X173435714Y-59531561D02*
X173397618Y-59607752D01*
X173397618Y-59607752D02*
X173359523Y-59645847D01*
X173359523Y-59645847D02*
X173283333Y-59683942D01*
X173283333Y-59683942D02*
X172978571Y-59683942D01*
X173740475Y-59341085D02*
X173778571Y-59302990D01*
X173778571Y-59302990D02*
X173854761Y-59264895D01*
X173854761Y-59264895D02*
X174045237Y-59264895D01*
X174045237Y-59264895D02*
X174121428Y-59302990D01*
X174121428Y-59302990D02*
X174159523Y-59341085D01*
X174159523Y-59341085D02*
X174197618Y-59417276D01*
X174197618Y-59417276D02*
X174197618Y-59493466D01*
X174197618Y-59493466D02*
X174159523Y-59607752D01*
X174159523Y-59607752D02*
X173702380Y-60064895D01*
X173702380Y-60064895D02*
X174197618Y-60064895D01*
X174692857Y-59264895D02*
X174769047Y-59264895D01*
X174769047Y-59264895D02*
X174845238Y-59302990D01*
X174845238Y-59302990D02*
X174883333Y-59341085D01*
X174883333Y-59341085D02*
X174921428Y-59417276D01*
X174921428Y-59417276D02*
X174959523Y-59569657D01*
X174959523Y-59569657D02*
X174959523Y-59760133D01*
X174959523Y-59760133D02*
X174921428Y-59912514D01*
X174921428Y-59912514D02*
X174883333Y-59988704D01*
X174883333Y-59988704D02*
X174845238Y-60026800D01*
X174845238Y-60026800D02*
X174769047Y-60064895D01*
X174769047Y-60064895D02*
X174692857Y-60064895D01*
X174692857Y-60064895D02*
X174616666Y-60026800D01*
X174616666Y-60026800D02*
X174578571Y-59988704D01*
X174578571Y-59988704D02*
X174540476Y-59912514D01*
X174540476Y-59912514D02*
X174502380Y-59760133D01*
X174502380Y-59760133D02*
X174502380Y-59569657D01*
X174502380Y-59569657D02*
X174540476Y-59417276D01*
X174540476Y-59417276D02*
X174578571Y-59341085D01*
X174578571Y-59341085D02*
X174616666Y-59302990D01*
X174616666Y-59302990D02*
X174692857Y-59264895D01*
X117684648Y-73974095D02*
X117684648Y-73174095D01*
X118522743Y-73897904D02*
X118484647Y-73936000D01*
X118484647Y-73936000D02*
X118370362Y-73974095D01*
X118370362Y-73974095D02*
X118294171Y-73974095D01*
X118294171Y-73974095D02*
X118179885Y-73936000D01*
X118179885Y-73936000D02*
X118103695Y-73859809D01*
X118103695Y-73859809D02*
X118065600Y-73783619D01*
X118065600Y-73783619D02*
X118027504Y-73631238D01*
X118027504Y-73631238D02*
X118027504Y-73516952D01*
X118027504Y-73516952D02*
X118065600Y-73364571D01*
X118065600Y-73364571D02*
X118103695Y-73288380D01*
X118103695Y-73288380D02*
X118179885Y-73212190D01*
X118179885Y-73212190D02*
X118294171Y-73174095D01*
X118294171Y-73174095D02*
X118370362Y-73174095D01*
X118370362Y-73174095D02*
X118484647Y-73212190D01*
X118484647Y-73212190D02*
X118522743Y-73250285D01*
X119284647Y-73974095D02*
X118827504Y-73974095D01*
X119056076Y-73974095D02*
X119056076Y-73174095D01*
X119056076Y-73174095D02*
X118979885Y-73288380D01*
X118979885Y-73288380D02*
X118903695Y-73364571D01*
X118903695Y-73364571D02*
X118827504Y-73402666D01*
X130424733Y-60155295D02*
X130424733Y-60726723D01*
X130424733Y-60726723D02*
X130386638Y-60841009D01*
X130386638Y-60841009D02*
X130310447Y-60917200D01*
X130310447Y-60917200D02*
X130196162Y-60955295D01*
X130196162Y-60955295D02*
X130119971Y-60955295D01*
X130805686Y-60955295D02*
X130805686Y-60155295D01*
X130805686Y-60155295D02*
X131110448Y-60155295D01*
X131110448Y-60155295D02*
X131186638Y-60193390D01*
X131186638Y-60193390D02*
X131224733Y-60231485D01*
X131224733Y-60231485D02*
X131262829Y-60307676D01*
X131262829Y-60307676D02*
X131262829Y-60421961D01*
X131262829Y-60421961D02*
X131224733Y-60498152D01*
X131224733Y-60498152D02*
X131186638Y-60536247D01*
X131186638Y-60536247D02*
X131110448Y-60574342D01*
X131110448Y-60574342D02*
X130805686Y-60574342D01*
X132024733Y-60955295D02*
X131567590Y-60955295D01*
X131796162Y-60955295D02*
X131796162Y-60155295D01*
X131796162Y-60155295D02*
X131719971Y-60269580D01*
X131719971Y-60269580D02*
X131643781Y-60345771D01*
X131643781Y-60345771D02*
X131567590Y-60383866D01*
X153460514Y-60258104D02*
X153422418Y-60296200D01*
X153422418Y-60296200D02*
X153308133Y-60334295D01*
X153308133Y-60334295D02*
X153231942Y-60334295D01*
X153231942Y-60334295D02*
X153117656Y-60296200D01*
X153117656Y-60296200D02*
X153041466Y-60220009D01*
X153041466Y-60220009D02*
X153003371Y-60143819D01*
X153003371Y-60143819D02*
X152965275Y-59991438D01*
X152965275Y-59991438D02*
X152965275Y-59877152D01*
X152965275Y-59877152D02*
X153003371Y-59724771D01*
X153003371Y-59724771D02*
X153041466Y-59648580D01*
X153041466Y-59648580D02*
X153117656Y-59572390D01*
X153117656Y-59572390D02*
X153231942Y-59534295D01*
X153231942Y-59534295D02*
X153308133Y-59534295D01*
X153308133Y-59534295D02*
X153422418Y-59572390D01*
X153422418Y-59572390D02*
X153460514Y-59610485D01*
X154222418Y-60334295D02*
X153765275Y-60334295D01*
X153993847Y-60334295D02*
X153993847Y-59534295D01*
X153993847Y-59534295D02*
X153917656Y-59648580D01*
X153917656Y-59648580D02*
X153841466Y-59724771D01*
X153841466Y-59724771D02*
X153765275Y-59762866D01*
X154946228Y-59534295D02*
X154565276Y-59534295D01*
X154565276Y-59534295D02*
X154527180Y-59915247D01*
X154527180Y-59915247D02*
X154565276Y-59877152D01*
X154565276Y-59877152D02*
X154641466Y-59839057D01*
X154641466Y-59839057D02*
X154831942Y-59839057D01*
X154831942Y-59839057D02*
X154908133Y-59877152D01*
X154908133Y-59877152D02*
X154946228Y-59915247D01*
X154946228Y-59915247D02*
X154984323Y-59991438D01*
X154984323Y-59991438D02*
X154984323Y-60181914D01*
X154984323Y-60181914D02*
X154946228Y-60258104D01*
X154946228Y-60258104D02*
X154908133Y-60296200D01*
X154908133Y-60296200D02*
X154831942Y-60334295D01*
X154831942Y-60334295D02*
X154641466Y-60334295D01*
X154641466Y-60334295D02*
X154565276Y-60296200D01*
X154565276Y-60296200D02*
X154527180Y-60258104D01*
X151784067Y-76920504D02*
X151745971Y-76958600D01*
X151745971Y-76958600D02*
X151631686Y-76996695D01*
X151631686Y-76996695D02*
X151555495Y-76996695D01*
X151555495Y-76996695D02*
X151441209Y-76958600D01*
X151441209Y-76958600D02*
X151365019Y-76882409D01*
X151365019Y-76882409D02*
X151326924Y-76806219D01*
X151326924Y-76806219D02*
X151288828Y-76653838D01*
X151288828Y-76653838D02*
X151288828Y-76539552D01*
X151288828Y-76539552D02*
X151326924Y-76387171D01*
X151326924Y-76387171D02*
X151365019Y-76310980D01*
X151365019Y-76310980D02*
X151441209Y-76234790D01*
X151441209Y-76234790D02*
X151555495Y-76196695D01*
X151555495Y-76196695D02*
X151631686Y-76196695D01*
X151631686Y-76196695D02*
X151745971Y-76234790D01*
X151745971Y-76234790D02*
X151784067Y-76272885D01*
X152050733Y-76196695D02*
X152545971Y-76196695D01*
X152545971Y-76196695D02*
X152279305Y-76501457D01*
X152279305Y-76501457D02*
X152393590Y-76501457D01*
X152393590Y-76501457D02*
X152469781Y-76539552D01*
X152469781Y-76539552D02*
X152507876Y-76577647D01*
X152507876Y-76577647D02*
X152545971Y-76653838D01*
X152545971Y-76653838D02*
X152545971Y-76844314D01*
X152545971Y-76844314D02*
X152507876Y-76920504D01*
X152507876Y-76920504D02*
X152469781Y-76958600D01*
X152469781Y-76958600D02*
X152393590Y-76996695D01*
X152393590Y-76996695D02*
X152165019Y-76996695D01*
X152165019Y-76996695D02*
X152088828Y-76958600D01*
X152088828Y-76958600D02*
X152050733Y-76920504D01*
X142579504Y-81260932D02*
X142617600Y-81299028D01*
X142617600Y-81299028D02*
X142655695Y-81413313D01*
X142655695Y-81413313D02*
X142655695Y-81489504D01*
X142655695Y-81489504D02*
X142617600Y-81603790D01*
X142617600Y-81603790D02*
X142541409Y-81679980D01*
X142541409Y-81679980D02*
X142465219Y-81718075D01*
X142465219Y-81718075D02*
X142312838Y-81756171D01*
X142312838Y-81756171D02*
X142198552Y-81756171D01*
X142198552Y-81756171D02*
X142046171Y-81718075D01*
X142046171Y-81718075D02*
X141969980Y-81679980D01*
X141969980Y-81679980D02*
X141893790Y-81603790D01*
X141893790Y-81603790D02*
X141855695Y-81489504D01*
X141855695Y-81489504D02*
X141855695Y-81413313D01*
X141855695Y-81413313D02*
X141893790Y-81299028D01*
X141893790Y-81299028D02*
X141931885Y-81260932D01*
X142198552Y-80803790D02*
X142160457Y-80879980D01*
X142160457Y-80879980D02*
X142122361Y-80918075D01*
X142122361Y-80918075D02*
X142046171Y-80956171D01*
X142046171Y-80956171D02*
X142008076Y-80956171D01*
X142008076Y-80956171D02*
X141931885Y-80918075D01*
X141931885Y-80918075D02*
X141893790Y-80879980D01*
X141893790Y-80879980D02*
X141855695Y-80803790D01*
X141855695Y-80803790D02*
X141855695Y-80651409D01*
X141855695Y-80651409D02*
X141893790Y-80575218D01*
X141893790Y-80575218D02*
X141931885Y-80537123D01*
X141931885Y-80537123D02*
X142008076Y-80499028D01*
X142008076Y-80499028D02*
X142046171Y-80499028D01*
X142046171Y-80499028D02*
X142122361Y-80537123D01*
X142122361Y-80537123D02*
X142160457Y-80575218D01*
X142160457Y-80575218D02*
X142198552Y-80651409D01*
X142198552Y-80651409D02*
X142198552Y-80803790D01*
X142198552Y-80803790D02*
X142236647Y-80879980D01*
X142236647Y-80879980D02*
X142274742Y-80918075D01*
X142274742Y-80918075D02*
X142350933Y-80956171D01*
X142350933Y-80956171D02*
X142503314Y-80956171D01*
X142503314Y-80956171D02*
X142579504Y-80918075D01*
X142579504Y-80918075D02*
X142617600Y-80879980D01*
X142617600Y-80879980D02*
X142655695Y-80803790D01*
X142655695Y-80803790D02*
X142655695Y-80651409D01*
X142655695Y-80651409D02*
X142617600Y-80575218D01*
X142617600Y-80575218D02*
X142579504Y-80537123D01*
X142579504Y-80537123D02*
X142503314Y-80499028D01*
X142503314Y-80499028D02*
X142350933Y-80499028D01*
X142350933Y-80499028D02*
X142274742Y-80537123D01*
X142274742Y-80537123D02*
X142236647Y-80575218D01*
X142236647Y-80575218D02*
X142198552Y-80651409D01*
X173735714Y-71664895D02*
X173469047Y-71283942D01*
X173278571Y-71664895D02*
X173278571Y-70864895D01*
X173278571Y-70864895D02*
X173583333Y-70864895D01*
X173583333Y-70864895D02*
X173659523Y-70902990D01*
X173659523Y-70902990D02*
X173697618Y-70941085D01*
X173697618Y-70941085D02*
X173735714Y-71017276D01*
X173735714Y-71017276D02*
X173735714Y-71131561D01*
X173735714Y-71131561D02*
X173697618Y-71207752D01*
X173697618Y-71207752D02*
X173659523Y-71245847D01*
X173659523Y-71245847D02*
X173583333Y-71283942D01*
X173583333Y-71283942D02*
X173278571Y-71283942D01*
X174040475Y-70941085D02*
X174078571Y-70902990D01*
X174078571Y-70902990D02*
X174154761Y-70864895D01*
X174154761Y-70864895D02*
X174345237Y-70864895D01*
X174345237Y-70864895D02*
X174421428Y-70902990D01*
X174421428Y-70902990D02*
X174459523Y-70941085D01*
X174459523Y-70941085D02*
X174497618Y-71017276D01*
X174497618Y-71017276D02*
X174497618Y-71093466D01*
X174497618Y-71093466D02*
X174459523Y-71207752D01*
X174459523Y-71207752D02*
X174002380Y-71664895D01*
X174002380Y-71664895D02*
X174497618Y-71664895D01*
X174802380Y-70941085D02*
X174840476Y-70902990D01*
X174840476Y-70902990D02*
X174916666Y-70864895D01*
X174916666Y-70864895D02*
X175107142Y-70864895D01*
X175107142Y-70864895D02*
X175183333Y-70902990D01*
X175183333Y-70902990D02*
X175221428Y-70941085D01*
X175221428Y-70941085D02*
X175259523Y-71017276D01*
X175259523Y-71017276D02*
X175259523Y-71093466D01*
X175259523Y-71093466D02*
X175221428Y-71207752D01*
X175221428Y-71207752D02*
X174764285Y-71664895D01*
X174764285Y-71664895D02*
X175259523Y-71664895D01*
X142055867Y-73313695D02*
X141789200Y-72932742D01*
X141598724Y-73313695D02*
X141598724Y-72513695D01*
X141598724Y-72513695D02*
X141903486Y-72513695D01*
X141903486Y-72513695D02*
X141979676Y-72551790D01*
X141979676Y-72551790D02*
X142017771Y-72589885D01*
X142017771Y-72589885D02*
X142055867Y-72666076D01*
X142055867Y-72666076D02*
X142055867Y-72780361D01*
X142055867Y-72780361D02*
X142017771Y-72856552D01*
X142017771Y-72856552D02*
X141979676Y-72894647D01*
X141979676Y-72894647D02*
X141903486Y-72932742D01*
X141903486Y-72932742D02*
X141598724Y-72932742D01*
X142322533Y-72513695D02*
X142817771Y-72513695D01*
X142817771Y-72513695D02*
X142551105Y-72818457D01*
X142551105Y-72818457D02*
X142665390Y-72818457D01*
X142665390Y-72818457D02*
X142741581Y-72856552D01*
X142741581Y-72856552D02*
X142779676Y-72894647D01*
X142779676Y-72894647D02*
X142817771Y-72970838D01*
X142817771Y-72970838D02*
X142817771Y-73161314D01*
X142817771Y-73161314D02*
X142779676Y-73237504D01*
X142779676Y-73237504D02*
X142741581Y-73275600D01*
X142741581Y-73275600D02*
X142665390Y-73313695D01*
X142665390Y-73313695D02*
X142436819Y-73313695D01*
X142436819Y-73313695D02*
X142360628Y-73275600D01*
X142360628Y-73275600D02*
X142322533Y-73237504D01*
X155473409Y-80679685D02*
X155397219Y-80641590D01*
X155397219Y-80641590D02*
X155321028Y-80565400D01*
X155321028Y-80565400D02*
X155206742Y-80451114D01*
X155206742Y-80451114D02*
X155130552Y-80413019D01*
X155130552Y-80413019D02*
X155054361Y-80413019D01*
X155092457Y-80603495D02*
X155016266Y-80565400D01*
X155016266Y-80565400D02*
X154940076Y-80489209D01*
X154940076Y-80489209D02*
X154901980Y-80336828D01*
X154901980Y-80336828D02*
X154901980Y-80070161D01*
X154901980Y-80070161D02*
X154940076Y-79917780D01*
X154940076Y-79917780D02*
X155016266Y-79841590D01*
X155016266Y-79841590D02*
X155092457Y-79803495D01*
X155092457Y-79803495D02*
X155244838Y-79803495D01*
X155244838Y-79803495D02*
X155321028Y-79841590D01*
X155321028Y-79841590D02*
X155397219Y-79917780D01*
X155397219Y-79917780D02*
X155435314Y-80070161D01*
X155435314Y-80070161D02*
X155435314Y-80336828D01*
X155435314Y-80336828D02*
X155397219Y-80489209D01*
X155397219Y-80489209D02*
X155321028Y-80565400D01*
X155321028Y-80565400D02*
X155244838Y-80603495D01*
X155244838Y-80603495D02*
X155092457Y-80603495D01*
X156197218Y-80603495D02*
X155740075Y-80603495D01*
X155968647Y-80603495D02*
X155968647Y-79803495D01*
X155968647Y-79803495D02*
X155892456Y-79917780D01*
X155892456Y-79917780D02*
X155816266Y-79993971D01*
X155816266Y-79993971D02*
X155740075Y-80032066D01*
X180511295Y-68666667D02*
X180473200Y-68628571D01*
X180473200Y-68628571D02*
X180435104Y-68514286D01*
X180435104Y-68514286D02*
X180435104Y-68438095D01*
X180435104Y-68438095D02*
X180473200Y-68323809D01*
X180473200Y-68323809D02*
X180549390Y-68247619D01*
X180549390Y-68247619D02*
X180625580Y-68209524D01*
X180625580Y-68209524D02*
X180777961Y-68171428D01*
X180777961Y-68171428D02*
X180892247Y-68171428D01*
X180892247Y-68171428D02*
X181044628Y-68209524D01*
X181044628Y-68209524D02*
X181120819Y-68247619D01*
X181120819Y-68247619D02*
X181197009Y-68323809D01*
X181197009Y-68323809D02*
X181235104Y-68438095D01*
X181235104Y-68438095D02*
X181235104Y-68514286D01*
X181235104Y-68514286D02*
X181197009Y-68628571D01*
X181197009Y-68628571D02*
X181158914Y-68666667D01*
X180435104Y-69466667D02*
X180816057Y-69200000D01*
X180435104Y-69009524D02*
X181235104Y-69009524D01*
X181235104Y-69009524D02*
X181235104Y-69314286D01*
X181235104Y-69314286D02*
X181197009Y-69390476D01*
X181197009Y-69390476D02*
X181158914Y-69428571D01*
X181158914Y-69428571D02*
X181082723Y-69466667D01*
X181082723Y-69466667D02*
X180968438Y-69466667D01*
X180968438Y-69466667D02*
X180892247Y-69428571D01*
X180892247Y-69428571D02*
X180854152Y-69390476D01*
X180854152Y-69390476D02*
X180816057Y-69314286D01*
X180816057Y-69314286D02*
X180816057Y-69009524D01*
X181235104Y-69733333D02*
X181235104Y-70228571D01*
X181235104Y-70228571D02*
X180930342Y-69961905D01*
X180930342Y-69961905D02*
X180930342Y-70076190D01*
X180930342Y-70076190D02*
X180892247Y-70152381D01*
X180892247Y-70152381D02*
X180854152Y-70190476D01*
X180854152Y-70190476D02*
X180777961Y-70228571D01*
X180777961Y-70228571D02*
X180587485Y-70228571D01*
X180587485Y-70228571D02*
X180511295Y-70190476D01*
X180511295Y-70190476D02*
X180473200Y-70152381D01*
X180473200Y-70152381D02*
X180435104Y-70076190D01*
X180435104Y-70076190D02*
X180435104Y-69847619D01*
X180435104Y-69847619D02*
X180473200Y-69771428D01*
X180473200Y-69771428D02*
X180511295Y-69733333D01*
X117835714Y-63688704D02*
X117797618Y-63726800D01*
X117797618Y-63726800D02*
X117683333Y-63764895D01*
X117683333Y-63764895D02*
X117607142Y-63764895D01*
X117607142Y-63764895D02*
X117492856Y-63726800D01*
X117492856Y-63726800D02*
X117416666Y-63650609D01*
X117416666Y-63650609D02*
X117378571Y-63574419D01*
X117378571Y-63574419D02*
X117340475Y-63422038D01*
X117340475Y-63422038D02*
X117340475Y-63307752D01*
X117340475Y-63307752D02*
X117378571Y-63155371D01*
X117378571Y-63155371D02*
X117416666Y-63079180D01*
X117416666Y-63079180D02*
X117492856Y-63002990D01*
X117492856Y-63002990D02*
X117607142Y-62964895D01*
X117607142Y-62964895D02*
X117683333Y-62964895D01*
X117683333Y-62964895D02*
X117797618Y-63002990D01*
X117797618Y-63002990D02*
X117835714Y-63041085D01*
X118140475Y-63041085D02*
X118178571Y-63002990D01*
X118178571Y-63002990D02*
X118254761Y-62964895D01*
X118254761Y-62964895D02*
X118445237Y-62964895D01*
X118445237Y-62964895D02*
X118521428Y-63002990D01*
X118521428Y-63002990D02*
X118559523Y-63041085D01*
X118559523Y-63041085D02*
X118597618Y-63117276D01*
X118597618Y-63117276D02*
X118597618Y-63193466D01*
X118597618Y-63193466D02*
X118559523Y-63307752D01*
X118559523Y-63307752D02*
X118102380Y-63764895D01*
X118102380Y-63764895D02*
X118597618Y-63764895D01*
X119359523Y-63764895D02*
X118902380Y-63764895D01*
X119130952Y-63764895D02*
X119130952Y-62964895D01*
X119130952Y-62964895D02*
X119054761Y-63079180D01*
X119054761Y-63079180D02*
X118978571Y-63155371D01*
X118978571Y-63155371D02*
X118902380Y-63193466D01*
X149885476Y-65300095D02*
X149885476Y-65947714D01*
X149885476Y-65947714D02*
X149923571Y-66023904D01*
X149923571Y-66023904D02*
X149961666Y-66062000D01*
X149961666Y-66062000D02*
X150037857Y-66100095D01*
X150037857Y-66100095D02*
X150190238Y-66100095D01*
X150190238Y-66100095D02*
X150266428Y-66062000D01*
X150266428Y-66062000D02*
X150304523Y-66023904D01*
X150304523Y-66023904D02*
X150342619Y-65947714D01*
X150342619Y-65947714D02*
X150342619Y-65300095D01*
X151066428Y-65566761D02*
X151066428Y-66100095D01*
X150875952Y-65262000D02*
X150685475Y-65833428D01*
X150685475Y-65833428D02*
X151180714Y-65833428D01*
X131684524Y-70814895D02*
X131684524Y-70014895D01*
X131684524Y-70014895D02*
X131875000Y-70014895D01*
X131875000Y-70014895D02*
X131989286Y-70052990D01*
X131989286Y-70052990D02*
X132065476Y-70129180D01*
X132065476Y-70129180D02*
X132103571Y-70205371D01*
X132103571Y-70205371D02*
X132141667Y-70357752D01*
X132141667Y-70357752D02*
X132141667Y-70472038D01*
X132141667Y-70472038D02*
X132103571Y-70624419D01*
X132103571Y-70624419D02*
X132065476Y-70700609D01*
X132065476Y-70700609D02*
X131989286Y-70776800D01*
X131989286Y-70776800D02*
X131875000Y-70814895D01*
X131875000Y-70814895D02*
X131684524Y-70814895D01*
X132408333Y-70014895D02*
X132903571Y-70014895D01*
X132903571Y-70014895D02*
X132636905Y-70319657D01*
X132636905Y-70319657D02*
X132751190Y-70319657D01*
X132751190Y-70319657D02*
X132827381Y-70357752D01*
X132827381Y-70357752D02*
X132865476Y-70395847D01*
X132865476Y-70395847D02*
X132903571Y-70472038D01*
X132903571Y-70472038D02*
X132903571Y-70662514D01*
X132903571Y-70662514D02*
X132865476Y-70738704D01*
X132865476Y-70738704D02*
X132827381Y-70776800D01*
X132827381Y-70776800D02*
X132751190Y-70814895D01*
X132751190Y-70814895D02*
X132522619Y-70814895D01*
X132522619Y-70814895D02*
X132446428Y-70776800D01*
X132446428Y-70776800D02*
X132408333Y-70738704D01*
X148990067Y-59978695D02*
X148723400Y-59597742D01*
X148532924Y-59978695D02*
X148532924Y-59178695D01*
X148532924Y-59178695D02*
X148837686Y-59178695D01*
X148837686Y-59178695D02*
X148913876Y-59216790D01*
X148913876Y-59216790D02*
X148951971Y-59254885D01*
X148951971Y-59254885D02*
X148990067Y-59331076D01*
X148990067Y-59331076D02*
X148990067Y-59445361D01*
X148990067Y-59445361D02*
X148951971Y-59521552D01*
X148951971Y-59521552D02*
X148913876Y-59559647D01*
X148913876Y-59559647D02*
X148837686Y-59597742D01*
X148837686Y-59597742D02*
X148532924Y-59597742D01*
X149256733Y-59178695D02*
X149790067Y-59178695D01*
X149790067Y-59178695D02*
X149447209Y-59978695D01*
X144941695Y-82175332D02*
X144560742Y-82441999D01*
X144941695Y-82632475D02*
X144141695Y-82632475D01*
X144141695Y-82632475D02*
X144141695Y-82327713D01*
X144141695Y-82327713D02*
X144179790Y-82251523D01*
X144179790Y-82251523D02*
X144217885Y-82213428D01*
X144217885Y-82213428D02*
X144294076Y-82175332D01*
X144294076Y-82175332D02*
X144408361Y-82175332D01*
X144408361Y-82175332D02*
X144484552Y-82213428D01*
X144484552Y-82213428D02*
X144522647Y-82251523D01*
X144522647Y-82251523D02*
X144560742Y-82327713D01*
X144560742Y-82327713D02*
X144560742Y-82632475D01*
X144141695Y-81451523D02*
X144141695Y-81832475D01*
X144141695Y-81832475D02*
X144522647Y-81870571D01*
X144522647Y-81870571D02*
X144484552Y-81832475D01*
X144484552Y-81832475D02*
X144446457Y-81756285D01*
X144446457Y-81756285D02*
X144446457Y-81565809D01*
X144446457Y-81565809D02*
X144484552Y-81489618D01*
X144484552Y-81489618D02*
X144522647Y-81451523D01*
X144522647Y-81451523D02*
X144598838Y-81413428D01*
X144598838Y-81413428D02*
X144789314Y-81413428D01*
X144789314Y-81413428D02*
X144865504Y-81451523D01*
X144865504Y-81451523D02*
X144903600Y-81489618D01*
X144903600Y-81489618D02*
X144941695Y-81565809D01*
X144941695Y-81565809D02*
X144941695Y-81756285D01*
X144941695Y-81756285D02*
X144903600Y-81832475D01*
X144903600Y-81832475D02*
X144865504Y-81870571D01*
X122477380Y-57189895D02*
X122477380Y-57761323D01*
X122477380Y-57761323D02*
X122439285Y-57875609D01*
X122439285Y-57875609D02*
X122363094Y-57951800D01*
X122363094Y-57951800D02*
X122248809Y-57989895D01*
X122248809Y-57989895D02*
X122172618Y-57989895D01*
X123277380Y-57989895D02*
X122820237Y-57989895D01*
X123048809Y-57989895D02*
X123048809Y-57189895D01*
X123048809Y-57189895D02*
X122972618Y-57304180D01*
X122972618Y-57304180D02*
X122896428Y-57380371D01*
X122896428Y-57380371D02*
X122820237Y-57418466D01*
X123772619Y-57189895D02*
X123848809Y-57189895D01*
X123848809Y-57189895D02*
X123925000Y-57227990D01*
X123925000Y-57227990D02*
X123963095Y-57266085D01*
X123963095Y-57266085D02*
X124001190Y-57342276D01*
X124001190Y-57342276D02*
X124039285Y-57494657D01*
X124039285Y-57494657D02*
X124039285Y-57685133D01*
X124039285Y-57685133D02*
X124001190Y-57837514D01*
X124001190Y-57837514D02*
X123963095Y-57913704D01*
X123963095Y-57913704D02*
X123925000Y-57951800D01*
X123925000Y-57951800D02*
X123848809Y-57989895D01*
X123848809Y-57989895D02*
X123772619Y-57989895D01*
X123772619Y-57989895D02*
X123696428Y-57951800D01*
X123696428Y-57951800D02*
X123658333Y-57913704D01*
X123658333Y-57913704D02*
X123620238Y-57837514D01*
X123620238Y-57837514D02*
X123582142Y-57685133D01*
X123582142Y-57685133D02*
X123582142Y-57494657D01*
X123582142Y-57494657D02*
X123620238Y-57342276D01*
X123620238Y-57342276D02*
X123658333Y-57266085D01*
X123658333Y-57266085D02*
X123696428Y-57227990D01*
X123696428Y-57227990D02*
X123772619Y-57189895D01*
X160558533Y-84490495D02*
X160558533Y-85061923D01*
X160558533Y-85061923D02*
X160520438Y-85176209D01*
X160520438Y-85176209D02*
X160444247Y-85252400D01*
X160444247Y-85252400D02*
X160329962Y-85290495D01*
X160329962Y-85290495D02*
X160253771Y-85290495D01*
X161358533Y-85290495D02*
X160901390Y-85290495D01*
X161129962Y-85290495D02*
X161129962Y-84490495D01*
X161129962Y-84490495D02*
X161053771Y-84604780D01*
X161053771Y-84604780D02*
X160977581Y-84680971D01*
X160977581Y-84680971D02*
X160901390Y-84719066D01*
X180561295Y-75816667D02*
X180523200Y-75778571D01*
X180523200Y-75778571D02*
X180485104Y-75664286D01*
X180485104Y-75664286D02*
X180485104Y-75588095D01*
X180485104Y-75588095D02*
X180523200Y-75473809D01*
X180523200Y-75473809D02*
X180599390Y-75397619D01*
X180599390Y-75397619D02*
X180675580Y-75359524D01*
X180675580Y-75359524D02*
X180827961Y-75321428D01*
X180827961Y-75321428D02*
X180942247Y-75321428D01*
X180942247Y-75321428D02*
X181094628Y-75359524D01*
X181094628Y-75359524D02*
X181170819Y-75397619D01*
X181170819Y-75397619D02*
X181247009Y-75473809D01*
X181247009Y-75473809D02*
X181285104Y-75588095D01*
X181285104Y-75588095D02*
X181285104Y-75664286D01*
X181285104Y-75664286D02*
X181247009Y-75778571D01*
X181247009Y-75778571D02*
X181208914Y-75816667D01*
X180485104Y-76616667D02*
X180866057Y-76350000D01*
X180485104Y-76159524D02*
X181285104Y-76159524D01*
X181285104Y-76159524D02*
X181285104Y-76464286D01*
X181285104Y-76464286D02*
X181247009Y-76540476D01*
X181247009Y-76540476D02*
X181208914Y-76578571D01*
X181208914Y-76578571D02*
X181132723Y-76616667D01*
X181132723Y-76616667D02*
X181018438Y-76616667D01*
X181018438Y-76616667D02*
X180942247Y-76578571D01*
X180942247Y-76578571D02*
X180904152Y-76540476D01*
X180904152Y-76540476D02*
X180866057Y-76464286D01*
X180866057Y-76464286D02*
X180866057Y-76159524D01*
X181018438Y-77302381D02*
X180485104Y-77302381D01*
X181323200Y-77111905D02*
X180751771Y-76921428D01*
X180751771Y-76921428D02*
X180751771Y-77416667D01*
X142681104Y-85070932D02*
X142719200Y-85109028D01*
X142719200Y-85109028D02*
X142757295Y-85223313D01*
X142757295Y-85223313D02*
X142757295Y-85299504D01*
X142757295Y-85299504D02*
X142719200Y-85413790D01*
X142719200Y-85413790D02*
X142643009Y-85489980D01*
X142643009Y-85489980D02*
X142566819Y-85528075D01*
X142566819Y-85528075D02*
X142414438Y-85566171D01*
X142414438Y-85566171D02*
X142300152Y-85566171D01*
X142300152Y-85566171D02*
X142147771Y-85528075D01*
X142147771Y-85528075D02*
X142071580Y-85489980D01*
X142071580Y-85489980D02*
X141995390Y-85413790D01*
X141995390Y-85413790D02*
X141957295Y-85299504D01*
X141957295Y-85299504D02*
X141957295Y-85223313D01*
X141957295Y-85223313D02*
X141995390Y-85109028D01*
X141995390Y-85109028D02*
X142033485Y-85070932D01*
X141957295Y-84385218D02*
X141957295Y-84537599D01*
X141957295Y-84537599D02*
X141995390Y-84613790D01*
X141995390Y-84613790D02*
X142033485Y-84651885D01*
X142033485Y-84651885D02*
X142147771Y-84728075D01*
X142147771Y-84728075D02*
X142300152Y-84766171D01*
X142300152Y-84766171D02*
X142604914Y-84766171D01*
X142604914Y-84766171D02*
X142681104Y-84728075D01*
X142681104Y-84728075D02*
X142719200Y-84689980D01*
X142719200Y-84689980D02*
X142757295Y-84613790D01*
X142757295Y-84613790D02*
X142757295Y-84461409D01*
X142757295Y-84461409D02*
X142719200Y-84385218D01*
X142719200Y-84385218D02*
X142681104Y-84347123D01*
X142681104Y-84347123D02*
X142604914Y-84309028D01*
X142604914Y-84309028D02*
X142414438Y-84309028D01*
X142414438Y-84309028D02*
X142338247Y-84347123D01*
X142338247Y-84347123D02*
X142300152Y-84385218D01*
X142300152Y-84385218D02*
X142262057Y-84461409D01*
X142262057Y-84461409D02*
X142262057Y-84613790D01*
X142262057Y-84613790D02*
X142300152Y-84689980D01*
X142300152Y-84689980D02*
X142338247Y-84728075D01*
X142338247Y-84728075D02*
X142414438Y-84766171D01*
X160547114Y-59724695D02*
X160280447Y-59343742D01*
X160089971Y-59724695D02*
X160089971Y-58924695D01*
X160089971Y-58924695D02*
X160394733Y-58924695D01*
X160394733Y-58924695D02*
X160470923Y-58962790D01*
X160470923Y-58962790D02*
X160509018Y-59000885D01*
X160509018Y-59000885D02*
X160547114Y-59077076D01*
X160547114Y-59077076D02*
X160547114Y-59191361D01*
X160547114Y-59191361D02*
X160509018Y-59267552D01*
X160509018Y-59267552D02*
X160470923Y-59305647D01*
X160470923Y-59305647D02*
X160394733Y-59343742D01*
X160394733Y-59343742D02*
X160089971Y-59343742D01*
X161309018Y-59724695D02*
X160851875Y-59724695D01*
X161080447Y-59724695D02*
X161080447Y-58924695D01*
X161080447Y-58924695D02*
X161004256Y-59038980D01*
X161004256Y-59038980D02*
X160928066Y-59115171D01*
X160928066Y-59115171D02*
X160851875Y-59153266D01*
X162070923Y-59724695D02*
X161613780Y-59724695D01*
X161842352Y-59724695D02*
X161842352Y-58924695D01*
X161842352Y-58924695D02*
X161766161Y-59038980D01*
X161766161Y-59038980D02*
X161689971Y-59115171D01*
X161689971Y-59115171D02*
X161613780Y-59153266D01*
X110535714Y-73764895D02*
X110269047Y-73383942D01*
X110078571Y-73764895D02*
X110078571Y-72964895D01*
X110078571Y-72964895D02*
X110383333Y-72964895D01*
X110383333Y-72964895D02*
X110459523Y-73002990D01*
X110459523Y-73002990D02*
X110497618Y-73041085D01*
X110497618Y-73041085D02*
X110535714Y-73117276D01*
X110535714Y-73117276D02*
X110535714Y-73231561D01*
X110535714Y-73231561D02*
X110497618Y-73307752D01*
X110497618Y-73307752D02*
X110459523Y-73345847D01*
X110459523Y-73345847D02*
X110383333Y-73383942D01*
X110383333Y-73383942D02*
X110078571Y-73383942D01*
X111297618Y-73764895D02*
X110840475Y-73764895D01*
X111069047Y-73764895D02*
X111069047Y-72964895D01*
X111069047Y-72964895D02*
X110992856Y-73079180D01*
X110992856Y-73079180D02*
X110916666Y-73155371D01*
X110916666Y-73155371D02*
X110840475Y-73193466D01*
X111678571Y-73764895D02*
X111830952Y-73764895D01*
X111830952Y-73764895D02*
X111907142Y-73726800D01*
X111907142Y-73726800D02*
X111945238Y-73688704D01*
X111945238Y-73688704D02*
X112021428Y-73574419D01*
X112021428Y-73574419D02*
X112059523Y-73422038D01*
X112059523Y-73422038D02*
X112059523Y-73117276D01*
X112059523Y-73117276D02*
X112021428Y-73041085D01*
X112021428Y-73041085D02*
X111983333Y-73002990D01*
X111983333Y-73002990D02*
X111907142Y-72964895D01*
X111907142Y-72964895D02*
X111754761Y-72964895D01*
X111754761Y-72964895D02*
X111678571Y-73002990D01*
X111678571Y-73002990D02*
X111640476Y-73041085D01*
X111640476Y-73041085D02*
X111602380Y-73117276D01*
X111602380Y-73117276D02*
X111602380Y-73307752D01*
X111602380Y-73307752D02*
X111640476Y-73383942D01*
X111640476Y-73383942D02*
X111678571Y-73422038D01*
X111678571Y-73422038D02*
X111754761Y-73460133D01*
X111754761Y-73460133D02*
X111907142Y-73460133D01*
X111907142Y-73460133D02*
X111983333Y-73422038D01*
X111983333Y-73422038D02*
X112021428Y-73383942D01*
X112021428Y-73383942D02*
X112059523Y-73307752D01*
X150463314Y-62340904D02*
X150425218Y-62379000D01*
X150425218Y-62379000D02*
X150310933Y-62417095D01*
X150310933Y-62417095D02*
X150234742Y-62417095D01*
X150234742Y-62417095D02*
X150120456Y-62379000D01*
X150120456Y-62379000D02*
X150044266Y-62302809D01*
X150044266Y-62302809D02*
X150006171Y-62226619D01*
X150006171Y-62226619D02*
X149968075Y-62074238D01*
X149968075Y-62074238D02*
X149968075Y-61959952D01*
X149968075Y-61959952D02*
X150006171Y-61807571D01*
X150006171Y-61807571D02*
X150044266Y-61731380D01*
X150044266Y-61731380D02*
X150120456Y-61655190D01*
X150120456Y-61655190D02*
X150234742Y-61617095D01*
X150234742Y-61617095D02*
X150310933Y-61617095D01*
X150310933Y-61617095D02*
X150425218Y-61655190D01*
X150425218Y-61655190D02*
X150463314Y-61693285D01*
X151225218Y-62417095D02*
X150768075Y-62417095D01*
X150996647Y-62417095D02*
X150996647Y-61617095D01*
X150996647Y-61617095D02*
X150920456Y-61731380D01*
X150920456Y-61731380D02*
X150844266Y-61807571D01*
X150844266Y-61807571D02*
X150768075Y-61845666D01*
X151491885Y-61617095D02*
X151987123Y-61617095D01*
X151987123Y-61617095D02*
X151720457Y-61921857D01*
X151720457Y-61921857D02*
X151834742Y-61921857D01*
X151834742Y-61921857D02*
X151910933Y-61959952D01*
X151910933Y-61959952D02*
X151949028Y-61998047D01*
X151949028Y-61998047D02*
X151987123Y-62074238D01*
X151987123Y-62074238D02*
X151987123Y-62264714D01*
X151987123Y-62264714D02*
X151949028Y-62340904D01*
X151949028Y-62340904D02*
X151910933Y-62379000D01*
X151910933Y-62379000D02*
X151834742Y-62417095D01*
X151834742Y-62417095D02*
X151606171Y-62417095D01*
X151606171Y-62417095D02*
X151529980Y-62379000D01*
X151529980Y-62379000D02*
X151491885Y-62340904D01*
X156984028Y-64012714D02*
X157012600Y-64041286D01*
X157012600Y-64041286D02*
X157041171Y-64127000D01*
X157041171Y-64127000D02*
X157041171Y-64184143D01*
X157041171Y-64184143D02*
X157012600Y-64269857D01*
X157012600Y-64269857D02*
X156955457Y-64327000D01*
X156955457Y-64327000D02*
X156898314Y-64355571D01*
X156898314Y-64355571D02*
X156784028Y-64384143D01*
X156784028Y-64384143D02*
X156698314Y-64384143D01*
X156698314Y-64384143D02*
X156584028Y-64355571D01*
X156584028Y-64355571D02*
X156526885Y-64327000D01*
X156526885Y-64327000D02*
X156469742Y-64269857D01*
X156469742Y-64269857D02*
X156441171Y-64184143D01*
X156441171Y-64184143D02*
X156441171Y-64127000D01*
X156441171Y-64127000D02*
X156469742Y-64041286D01*
X156469742Y-64041286D02*
X156498314Y-64012714D01*
X157041171Y-63441286D02*
X157041171Y-63784143D01*
X157041171Y-63612714D02*
X156441171Y-63612714D01*
X156441171Y-63612714D02*
X156526885Y-63669857D01*
X156526885Y-63669857D02*
X156584028Y-63727000D01*
X156584028Y-63727000D02*
X156612600Y-63784143D01*
X156441171Y-62927000D02*
X156441171Y-63041285D01*
X156441171Y-63041285D02*
X156469742Y-63098428D01*
X156469742Y-63098428D02*
X156498314Y-63127000D01*
X156498314Y-63127000D02*
X156584028Y-63184142D01*
X156584028Y-63184142D02*
X156698314Y-63212714D01*
X156698314Y-63212714D02*
X156926885Y-63212714D01*
X156926885Y-63212714D02*
X156984028Y-63184142D01*
X156984028Y-63184142D02*
X157012600Y-63155571D01*
X157012600Y-63155571D02*
X157041171Y-63098428D01*
X157041171Y-63098428D02*
X157041171Y-62984142D01*
X157041171Y-62984142D02*
X157012600Y-62927000D01*
X157012600Y-62927000D02*
X156984028Y-62898428D01*
X156984028Y-62898428D02*
X156926885Y-62869857D01*
X156926885Y-62869857D02*
X156784028Y-62869857D01*
X156784028Y-62869857D02*
X156726885Y-62898428D01*
X156726885Y-62898428D02*
X156698314Y-62927000D01*
X156698314Y-62927000D02*
X156669742Y-62984142D01*
X156669742Y-62984142D02*
X156669742Y-63098428D01*
X156669742Y-63098428D02*
X156698314Y-63155571D01*
X156698314Y-63155571D02*
X156726885Y-63184142D01*
X156726885Y-63184142D02*
X156784028Y-63212714D01*
X160738399Y-70422633D02*
X160505066Y-70089300D01*
X160338399Y-70422633D02*
X160338399Y-69722633D01*
X160338399Y-69722633D02*
X160605066Y-69722633D01*
X160605066Y-69722633D02*
X160671733Y-69755966D01*
X160671733Y-69755966D02*
X160705066Y-69789300D01*
X160705066Y-69789300D02*
X160738399Y-69855966D01*
X160738399Y-69855966D02*
X160738399Y-69955966D01*
X160738399Y-69955966D02*
X160705066Y-70022633D01*
X160705066Y-70022633D02*
X160671733Y-70055966D01*
X160671733Y-70055966D02*
X160605066Y-70089300D01*
X160605066Y-70089300D02*
X160338399Y-70089300D01*
X161405066Y-70422633D02*
X161005066Y-70422633D01*
X161205066Y-70422633D02*
X161205066Y-69722633D01*
X161205066Y-69722633D02*
X161138399Y-69822633D01*
X161138399Y-69822633D02*
X161071733Y-69889300D01*
X161071733Y-69889300D02*
X161005066Y-69922633D01*
X161638400Y-69722633D02*
X162071733Y-69722633D01*
X162071733Y-69722633D02*
X161838400Y-69989300D01*
X161838400Y-69989300D02*
X161938400Y-69989300D01*
X161938400Y-69989300D02*
X162005066Y-70022633D01*
X162005066Y-70022633D02*
X162038400Y-70055966D01*
X162038400Y-70055966D02*
X162071733Y-70122633D01*
X162071733Y-70122633D02*
X162071733Y-70289300D01*
X162071733Y-70289300D02*
X162038400Y-70355966D01*
X162038400Y-70355966D02*
X162005066Y-70389300D01*
X162005066Y-70389300D02*
X161938400Y-70422633D01*
X161938400Y-70422633D02*
X161738400Y-70422633D01*
X161738400Y-70422633D02*
X161671733Y-70389300D01*
X161671733Y-70389300D02*
X161638400Y-70355966D01*
X181180133Y-56840295D02*
X181180133Y-57411723D01*
X181180133Y-57411723D02*
X181142038Y-57526009D01*
X181142038Y-57526009D02*
X181065847Y-57602200D01*
X181065847Y-57602200D02*
X180951562Y-57640295D01*
X180951562Y-57640295D02*
X180875371Y-57640295D01*
X181903943Y-56840295D02*
X181751562Y-56840295D01*
X181751562Y-56840295D02*
X181675371Y-56878390D01*
X181675371Y-56878390D02*
X181637276Y-56916485D01*
X181637276Y-56916485D02*
X181561086Y-57030771D01*
X181561086Y-57030771D02*
X181522990Y-57183152D01*
X181522990Y-57183152D02*
X181522990Y-57487914D01*
X181522990Y-57487914D02*
X181561086Y-57564104D01*
X181561086Y-57564104D02*
X181599181Y-57602200D01*
X181599181Y-57602200D02*
X181675371Y-57640295D01*
X181675371Y-57640295D02*
X181827752Y-57640295D01*
X181827752Y-57640295D02*
X181903943Y-57602200D01*
X181903943Y-57602200D02*
X181942038Y-57564104D01*
X181942038Y-57564104D02*
X181980133Y-57487914D01*
X181980133Y-57487914D02*
X181980133Y-57297438D01*
X181980133Y-57297438D02*
X181942038Y-57221247D01*
X181942038Y-57221247D02*
X181903943Y-57183152D01*
X181903943Y-57183152D02*
X181827752Y-57145057D01*
X181827752Y-57145057D02*
X181675371Y-57145057D01*
X181675371Y-57145057D02*
X181599181Y-57183152D01*
X181599181Y-57183152D02*
X181561086Y-57221247D01*
X181561086Y-57221247D02*
X181522990Y-57297438D01*
X173485714Y-62714895D02*
X173219047Y-62333942D01*
X173028571Y-62714895D02*
X173028571Y-61914895D01*
X173028571Y-61914895D02*
X173333333Y-61914895D01*
X173333333Y-61914895D02*
X173409523Y-61952990D01*
X173409523Y-61952990D02*
X173447618Y-61991085D01*
X173447618Y-61991085D02*
X173485714Y-62067276D01*
X173485714Y-62067276D02*
X173485714Y-62181561D01*
X173485714Y-62181561D02*
X173447618Y-62257752D01*
X173447618Y-62257752D02*
X173409523Y-62295847D01*
X173409523Y-62295847D02*
X173333333Y-62333942D01*
X173333333Y-62333942D02*
X173028571Y-62333942D01*
X174247618Y-62714895D02*
X173790475Y-62714895D01*
X174019047Y-62714895D02*
X174019047Y-61914895D01*
X174019047Y-61914895D02*
X173942856Y-62029180D01*
X173942856Y-62029180D02*
X173866666Y-62105371D01*
X173866666Y-62105371D02*
X173790475Y-62143466D01*
X174971428Y-61914895D02*
X174590476Y-61914895D01*
X174590476Y-61914895D02*
X174552380Y-62295847D01*
X174552380Y-62295847D02*
X174590476Y-62257752D01*
X174590476Y-62257752D02*
X174666666Y-62219657D01*
X174666666Y-62219657D02*
X174857142Y-62219657D01*
X174857142Y-62219657D02*
X174933333Y-62257752D01*
X174933333Y-62257752D02*
X174971428Y-62295847D01*
X174971428Y-62295847D02*
X175009523Y-62372038D01*
X175009523Y-62372038D02*
X175009523Y-62562514D01*
X175009523Y-62562514D02*
X174971428Y-62638704D01*
X174971428Y-62638704D02*
X174933333Y-62676800D01*
X174933333Y-62676800D02*
X174857142Y-62714895D01*
X174857142Y-62714895D02*
X174666666Y-62714895D01*
X174666666Y-62714895D02*
X174590476Y-62676800D01*
X174590476Y-62676800D02*
X174552380Y-62638704D01*
X180689314Y-79054095D02*
X180422647Y-78673142D01*
X180232171Y-79054095D02*
X180232171Y-78254095D01*
X180232171Y-78254095D02*
X180536933Y-78254095D01*
X180536933Y-78254095D02*
X180613123Y-78292190D01*
X180613123Y-78292190D02*
X180651218Y-78330285D01*
X180651218Y-78330285D02*
X180689314Y-78406476D01*
X180689314Y-78406476D02*
X180689314Y-78520761D01*
X180689314Y-78520761D02*
X180651218Y-78596952D01*
X180651218Y-78596952D02*
X180613123Y-78635047D01*
X180613123Y-78635047D02*
X180536933Y-78673142D01*
X180536933Y-78673142D02*
X180232171Y-78673142D01*
X180994075Y-78330285D02*
X181032171Y-78292190D01*
X181032171Y-78292190D02*
X181108361Y-78254095D01*
X181108361Y-78254095D02*
X181298837Y-78254095D01*
X181298837Y-78254095D02*
X181375028Y-78292190D01*
X181375028Y-78292190D02*
X181413123Y-78330285D01*
X181413123Y-78330285D02*
X181451218Y-78406476D01*
X181451218Y-78406476D02*
X181451218Y-78482666D01*
X181451218Y-78482666D02*
X181413123Y-78596952D01*
X181413123Y-78596952D02*
X180955980Y-79054095D01*
X180955980Y-79054095D02*
X181451218Y-79054095D01*
X181717885Y-78254095D02*
X182251219Y-78254095D01*
X182251219Y-78254095D02*
X181908361Y-79054095D01*
X162813704Y-84958332D02*
X162851800Y-84996428D01*
X162851800Y-84996428D02*
X162889895Y-85110713D01*
X162889895Y-85110713D02*
X162889895Y-85186904D01*
X162889895Y-85186904D02*
X162851800Y-85301190D01*
X162851800Y-85301190D02*
X162775609Y-85377380D01*
X162775609Y-85377380D02*
X162699419Y-85415475D01*
X162699419Y-85415475D02*
X162547038Y-85453571D01*
X162547038Y-85453571D02*
X162432752Y-85453571D01*
X162432752Y-85453571D02*
X162280371Y-85415475D01*
X162280371Y-85415475D02*
X162204180Y-85377380D01*
X162204180Y-85377380D02*
X162127990Y-85301190D01*
X162127990Y-85301190D02*
X162089895Y-85186904D01*
X162089895Y-85186904D02*
X162089895Y-85110713D01*
X162089895Y-85110713D02*
X162127990Y-84996428D01*
X162127990Y-84996428D02*
X162166085Y-84958332D01*
X162889895Y-84577380D02*
X162889895Y-84424999D01*
X162889895Y-84424999D02*
X162851800Y-84348809D01*
X162851800Y-84348809D02*
X162813704Y-84310713D01*
X162813704Y-84310713D02*
X162699419Y-84234523D01*
X162699419Y-84234523D02*
X162547038Y-84196428D01*
X162547038Y-84196428D02*
X162242276Y-84196428D01*
X162242276Y-84196428D02*
X162166085Y-84234523D01*
X162166085Y-84234523D02*
X162127990Y-84272618D01*
X162127990Y-84272618D02*
X162089895Y-84348809D01*
X162089895Y-84348809D02*
X162089895Y-84501190D01*
X162089895Y-84501190D02*
X162127990Y-84577380D01*
X162127990Y-84577380D02*
X162166085Y-84615475D01*
X162166085Y-84615475D02*
X162242276Y-84653571D01*
X162242276Y-84653571D02*
X162432752Y-84653571D01*
X162432752Y-84653571D02*
X162508942Y-84615475D01*
X162508942Y-84615475D02*
X162547038Y-84577380D01*
X162547038Y-84577380D02*
X162585133Y-84501190D01*
X162585133Y-84501190D02*
X162585133Y-84348809D01*
X162585133Y-84348809D02*
X162547038Y-84272618D01*
X162547038Y-84272618D02*
X162508942Y-84234523D01*
X162508942Y-84234523D02*
X162432752Y-84196428D01*
X174616667Y-57738704D02*
X174578571Y-57776800D01*
X174578571Y-57776800D02*
X174464286Y-57814895D01*
X174464286Y-57814895D02*
X174388095Y-57814895D01*
X174388095Y-57814895D02*
X174273809Y-57776800D01*
X174273809Y-57776800D02*
X174197619Y-57700609D01*
X174197619Y-57700609D02*
X174159524Y-57624419D01*
X174159524Y-57624419D02*
X174121428Y-57472038D01*
X174121428Y-57472038D02*
X174121428Y-57357752D01*
X174121428Y-57357752D02*
X174159524Y-57205371D01*
X174159524Y-57205371D02*
X174197619Y-57129180D01*
X174197619Y-57129180D02*
X174273809Y-57052990D01*
X174273809Y-57052990D02*
X174388095Y-57014895D01*
X174388095Y-57014895D02*
X174464286Y-57014895D01*
X174464286Y-57014895D02*
X174578571Y-57052990D01*
X174578571Y-57052990D02*
X174616667Y-57091085D01*
X175416667Y-57814895D02*
X175150000Y-57433942D01*
X174959524Y-57814895D02*
X174959524Y-57014895D01*
X174959524Y-57014895D02*
X175264286Y-57014895D01*
X175264286Y-57014895D02*
X175340476Y-57052990D01*
X175340476Y-57052990D02*
X175378571Y-57091085D01*
X175378571Y-57091085D02*
X175416667Y-57167276D01*
X175416667Y-57167276D02*
X175416667Y-57281561D01*
X175416667Y-57281561D02*
X175378571Y-57357752D01*
X175378571Y-57357752D02*
X175340476Y-57395847D01*
X175340476Y-57395847D02*
X175264286Y-57433942D01*
X175264286Y-57433942D02*
X174959524Y-57433942D01*
X175721428Y-57091085D02*
X175759524Y-57052990D01*
X175759524Y-57052990D02*
X175835714Y-57014895D01*
X175835714Y-57014895D02*
X176026190Y-57014895D01*
X176026190Y-57014895D02*
X176102381Y-57052990D01*
X176102381Y-57052990D02*
X176140476Y-57091085D01*
X176140476Y-57091085D02*
X176178571Y-57167276D01*
X176178571Y-57167276D02*
X176178571Y-57243466D01*
X176178571Y-57243466D02*
X176140476Y-57357752D01*
X176140476Y-57357752D02*
X175683333Y-57814895D01*
X175683333Y-57814895D02*
X176178571Y-57814895D01*
X146916667Y-70738704D02*
X146878571Y-70776800D01*
X146878571Y-70776800D02*
X146764286Y-70814895D01*
X146764286Y-70814895D02*
X146688095Y-70814895D01*
X146688095Y-70814895D02*
X146573809Y-70776800D01*
X146573809Y-70776800D02*
X146497619Y-70700609D01*
X146497619Y-70700609D02*
X146459524Y-70624419D01*
X146459524Y-70624419D02*
X146421428Y-70472038D01*
X146421428Y-70472038D02*
X146421428Y-70357752D01*
X146421428Y-70357752D02*
X146459524Y-70205371D01*
X146459524Y-70205371D02*
X146497619Y-70129180D01*
X146497619Y-70129180D02*
X146573809Y-70052990D01*
X146573809Y-70052990D02*
X146688095Y-70014895D01*
X146688095Y-70014895D02*
X146764286Y-70014895D01*
X146764286Y-70014895D02*
X146878571Y-70052990D01*
X146878571Y-70052990D02*
X146916667Y-70091085D01*
X147640476Y-70014895D02*
X147259524Y-70014895D01*
X147259524Y-70014895D02*
X147221428Y-70395847D01*
X147221428Y-70395847D02*
X147259524Y-70357752D01*
X147259524Y-70357752D02*
X147335714Y-70319657D01*
X147335714Y-70319657D02*
X147526190Y-70319657D01*
X147526190Y-70319657D02*
X147602381Y-70357752D01*
X147602381Y-70357752D02*
X147640476Y-70395847D01*
X147640476Y-70395847D02*
X147678571Y-70472038D01*
X147678571Y-70472038D02*
X147678571Y-70662514D01*
X147678571Y-70662514D02*
X147640476Y-70738704D01*
X147640476Y-70738704D02*
X147602381Y-70776800D01*
X147602381Y-70776800D02*
X147526190Y-70814895D01*
X147526190Y-70814895D02*
X147335714Y-70814895D01*
X147335714Y-70814895D02*
X147259524Y-70776800D01*
X147259524Y-70776800D02*
X147221428Y-70738704D01*
X126242924Y-60701095D02*
X126242924Y-59901095D01*
X126242924Y-59901095D02*
X126433400Y-59901095D01*
X126433400Y-59901095D02*
X126547686Y-59939190D01*
X126547686Y-59939190D02*
X126623876Y-60015380D01*
X126623876Y-60015380D02*
X126661971Y-60091571D01*
X126661971Y-60091571D02*
X126700067Y-60243952D01*
X126700067Y-60243952D02*
X126700067Y-60358238D01*
X126700067Y-60358238D02*
X126661971Y-60510619D01*
X126661971Y-60510619D02*
X126623876Y-60586809D01*
X126623876Y-60586809D02*
X126547686Y-60663000D01*
X126547686Y-60663000D02*
X126433400Y-60701095D01*
X126433400Y-60701095D02*
X126242924Y-60701095D01*
X127385781Y-60167761D02*
X127385781Y-60701095D01*
X127195305Y-59863000D02*
X127004828Y-60434428D01*
X127004828Y-60434428D02*
X127500067Y-60434428D01*
X153536667Y-86699504D02*
X153498571Y-86737600D01*
X153498571Y-86737600D02*
X153384286Y-86775695D01*
X153384286Y-86775695D02*
X153308095Y-86775695D01*
X153308095Y-86775695D02*
X153193809Y-86737600D01*
X153193809Y-86737600D02*
X153117619Y-86661409D01*
X153117619Y-86661409D02*
X153079524Y-86585219D01*
X153079524Y-86585219D02*
X153041428Y-86432838D01*
X153041428Y-86432838D02*
X153041428Y-86318552D01*
X153041428Y-86318552D02*
X153079524Y-86166171D01*
X153079524Y-86166171D02*
X153117619Y-86089980D01*
X153117619Y-86089980D02*
X153193809Y-86013790D01*
X153193809Y-86013790D02*
X153308095Y-85975695D01*
X153308095Y-85975695D02*
X153384286Y-85975695D01*
X153384286Y-85975695D02*
X153498571Y-86013790D01*
X153498571Y-86013790D02*
X153536667Y-86051885D01*
X153841428Y-86051885D02*
X153879524Y-86013790D01*
X153879524Y-86013790D02*
X153955714Y-85975695D01*
X153955714Y-85975695D02*
X154146190Y-85975695D01*
X154146190Y-85975695D02*
X154222381Y-86013790D01*
X154222381Y-86013790D02*
X154260476Y-86051885D01*
X154260476Y-86051885D02*
X154298571Y-86128076D01*
X154298571Y-86128076D02*
X154298571Y-86204266D01*
X154298571Y-86204266D02*
X154260476Y-86318552D01*
X154260476Y-86318552D02*
X153803333Y-86775695D01*
X153803333Y-86775695D02*
X154298571Y-86775695D01*
X180980133Y-86640295D02*
X180980133Y-87211723D01*
X180980133Y-87211723D02*
X180942038Y-87326009D01*
X180942038Y-87326009D02*
X180865847Y-87402200D01*
X180865847Y-87402200D02*
X180751562Y-87440295D01*
X180751562Y-87440295D02*
X180675371Y-87440295D01*
X181284895Y-86640295D02*
X181818229Y-86640295D01*
X181818229Y-86640295D02*
X181475371Y-87440295D01*
X129184476Y-86077295D02*
X129184476Y-86724914D01*
X129184476Y-86724914D02*
X129222571Y-86801104D01*
X129222571Y-86801104D02*
X129260666Y-86839200D01*
X129260666Y-86839200D02*
X129336857Y-86877295D01*
X129336857Y-86877295D02*
X129489238Y-86877295D01*
X129489238Y-86877295D02*
X129565428Y-86839200D01*
X129565428Y-86839200D02*
X129603523Y-86801104D01*
X129603523Y-86801104D02*
X129641619Y-86724914D01*
X129641619Y-86724914D02*
X129641619Y-86077295D01*
X129946380Y-86077295D02*
X130441618Y-86077295D01*
X130441618Y-86077295D02*
X130174952Y-86382057D01*
X130174952Y-86382057D02*
X130289237Y-86382057D01*
X130289237Y-86382057D02*
X130365428Y-86420152D01*
X130365428Y-86420152D02*
X130403523Y-86458247D01*
X130403523Y-86458247D02*
X130441618Y-86534438D01*
X130441618Y-86534438D02*
X130441618Y-86724914D01*
X130441618Y-86724914D02*
X130403523Y-86801104D01*
X130403523Y-86801104D02*
X130365428Y-86839200D01*
X130365428Y-86839200D02*
X130289237Y-86877295D01*
X130289237Y-86877295D02*
X130060666Y-86877295D01*
X130060666Y-86877295D02*
X129984475Y-86839200D01*
X129984475Y-86839200D02*
X129946380Y-86801104D01*
X147599476Y-65757295D02*
X147599476Y-66404914D01*
X147599476Y-66404914D02*
X147637571Y-66481104D01*
X147637571Y-66481104D02*
X147675666Y-66519200D01*
X147675666Y-66519200D02*
X147751857Y-66557295D01*
X147751857Y-66557295D02*
X147904238Y-66557295D01*
X147904238Y-66557295D02*
X147980428Y-66519200D01*
X147980428Y-66519200D02*
X148018523Y-66481104D01*
X148018523Y-66481104D02*
X148056619Y-66404914D01*
X148056619Y-66404914D02*
X148056619Y-65757295D01*
X148399475Y-65833485D02*
X148437571Y-65795390D01*
X148437571Y-65795390D02*
X148513761Y-65757295D01*
X148513761Y-65757295D02*
X148704237Y-65757295D01*
X148704237Y-65757295D02*
X148780428Y-65795390D01*
X148780428Y-65795390D02*
X148818523Y-65833485D01*
X148818523Y-65833485D02*
X148856618Y-65909676D01*
X148856618Y-65909676D02*
X148856618Y-65985866D01*
X148856618Y-65985866D02*
X148818523Y-66100152D01*
X148818523Y-66100152D02*
X148361380Y-66557295D01*
X148361380Y-66557295D02*
X148856618Y-66557295D01*
X173810714Y-68689895D02*
X173544047Y-68308942D01*
X173353571Y-68689895D02*
X173353571Y-67889895D01*
X173353571Y-67889895D02*
X173658333Y-67889895D01*
X173658333Y-67889895D02*
X173734523Y-67927990D01*
X173734523Y-67927990D02*
X173772618Y-67966085D01*
X173772618Y-67966085D02*
X173810714Y-68042276D01*
X173810714Y-68042276D02*
X173810714Y-68156561D01*
X173810714Y-68156561D02*
X173772618Y-68232752D01*
X173772618Y-68232752D02*
X173734523Y-68270847D01*
X173734523Y-68270847D02*
X173658333Y-68308942D01*
X173658333Y-68308942D02*
X173353571Y-68308942D01*
X174572618Y-68689895D02*
X174115475Y-68689895D01*
X174344047Y-68689895D02*
X174344047Y-67889895D01*
X174344047Y-67889895D02*
X174267856Y-68004180D01*
X174267856Y-68004180D02*
X174191666Y-68080371D01*
X174191666Y-68080371D02*
X174115475Y-68118466D01*
X175258333Y-67889895D02*
X175105952Y-67889895D01*
X175105952Y-67889895D02*
X175029761Y-67927990D01*
X175029761Y-67927990D02*
X174991666Y-67966085D01*
X174991666Y-67966085D02*
X174915476Y-68080371D01*
X174915476Y-68080371D02*
X174877380Y-68232752D01*
X174877380Y-68232752D02*
X174877380Y-68537514D01*
X174877380Y-68537514D02*
X174915476Y-68613704D01*
X174915476Y-68613704D02*
X174953571Y-68651800D01*
X174953571Y-68651800D02*
X175029761Y-68689895D01*
X175029761Y-68689895D02*
X175182142Y-68689895D01*
X175182142Y-68689895D02*
X175258333Y-68651800D01*
X175258333Y-68651800D02*
X175296428Y-68613704D01*
X175296428Y-68613704D02*
X175334523Y-68537514D01*
X175334523Y-68537514D02*
X175334523Y-68347038D01*
X175334523Y-68347038D02*
X175296428Y-68270847D01*
X175296428Y-68270847D02*
X175258333Y-68232752D01*
X175258333Y-68232752D02*
X175182142Y-68194657D01*
X175182142Y-68194657D02*
X175029761Y-68194657D01*
X175029761Y-68194657D02*
X174953571Y-68232752D01*
X174953571Y-68232752D02*
X174915476Y-68270847D01*
X174915476Y-68270847D02*
X174877380Y-68347038D01*
X160724914Y-74177295D02*
X160458247Y-73796342D01*
X160267771Y-74177295D02*
X160267771Y-73377295D01*
X160267771Y-73377295D02*
X160572533Y-73377295D01*
X160572533Y-73377295D02*
X160648723Y-73415390D01*
X160648723Y-73415390D02*
X160686818Y-73453485D01*
X160686818Y-73453485D02*
X160724914Y-73529676D01*
X160724914Y-73529676D02*
X160724914Y-73643961D01*
X160724914Y-73643961D02*
X160686818Y-73720152D01*
X160686818Y-73720152D02*
X160648723Y-73758247D01*
X160648723Y-73758247D02*
X160572533Y-73796342D01*
X160572533Y-73796342D02*
X160267771Y-73796342D01*
X161486818Y-74177295D02*
X161029675Y-74177295D01*
X161258247Y-74177295D02*
X161258247Y-73377295D01*
X161258247Y-73377295D02*
X161182056Y-73491580D01*
X161182056Y-73491580D02*
X161105866Y-73567771D01*
X161105866Y-73567771D02*
X161029675Y-73605866D01*
X162172533Y-73643961D02*
X162172533Y-74177295D01*
X161982057Y-73339200D02*
X161791580Y-73910628D01*
X161791580Y-73910628D02*
X162286819Y-73910628D01*
X138061733Y-73072495D02*
X138061733Y-73643923D01*
X138061733Y-73643923D02*
X138023638Y-73758209D01*
X138023638Y-73758209D02*
X137947447Y-73834400D01*
X137947447Y-73834400D02*
X137833162Y-73872495D01*
X137833162Y-73872495D02*
X137756971Y-73872495D01*
X138366495Y-73072495D02*
X138861733Y-73072495D01*
X138861733Y-73072495D02*
X138595067Y-73377257D01*
X138595067Y-73377257D02*
X138709352Y-73377257D01*
X138709352Y-73377257D02*
X138785543Y-73415352D01*
X138785543Y-73415352D02*
X138823638Y-73453447D01*
X138823638Y-73453447D02*
X138861733Y-73529638D01*
X138861733Y-73529638D02*
X138861733Y-73720114D01*
X138861733Y-73720114D02*
X138823638Y-73796304D01*
X138823638Y-73796304D02*
X138785543Y-73834400D01*
X138785543Y-73834400D02*
X138709352Y-73872495D01*
X138709352Y-73872495D02*
X138480781Y-73872495D01*
X138480781Y-73872495D02*
X138404590Y-73834400D01*
X138404590Y-73834400D02*
X138366495Y-73796304D01*
X111773495Y-62526666D02*
X112344923Y-62526666D01*
X112344923Y-62526666D02*
X112459209Y-62564761D01*
X112459209Y-62564761D02*
X112535400Y-62640952D01*
X112535400Y-62640952D02*
X112573495Y-62755237D01*
X112573495Y-62755237D02*
X112573495Y-62831428D01*
X112116352Y-62031428D02*
X112078257Y-62107618D01*
X112078257Y-62107618D02*
X112040161Y-62145713D01*
X112040161Y-62145713D02*
X111963971Y-62183809D01*
X111963971Y-62183809D02*
X111925876Y-62183809D01*
X111925876Y-62183809D02*
X111849685Y-62145713D01*
X111849685Y-62145713D02*
X111811590Y-62107618D01*
X111811590Y-62107618D02*
X111773495Y-62031428D01*
X111773495Y-62031428D02*
X111773495Y-61879047D01*
X111773495Y-61879047D02*
X111811590Y-61802856D01*
X111811590Y-61802856D02*
X111849685Y-61764761D01*
X111849685Y-61764761D02*
X111925876Y-61726666D01*
X111925876Y-61726666D02*
X111963971Y-61726666D01*
X111963971Y-61726666D02*
X112040161Y-61764761D01*
X112040161Y-61764761D02*
X112078257Y-61802856D01*
X112078257Y-61802856D02*
X112116352Y-61879047D01*
X112116352Y-61879047D02*
X112116352Y-62031428D01*
X112116352Y-62031428D02*
X112154447Y-62107618D01*
X112154447Y-62107618D02*
X112192542Y-62145713D01*
X112192542Y-62145713D02*
X112268733Y-62183809D01*
X112268733Y-62183809D02*
X112421114Y-62183809D01*
X112421114Y-62183809D02*
X112497304Y-62145713D01*
X112497304Y-62145713D02*
X112535400Y-62107618D01*
X112535400Y-62107618D02*
X112573495Y-62031428D01*
X112573495Y-62031428D02*
X112573495Y-61879047D01*
X112573495Y-61879047D02*
X112535400Y-61802856D01*
X112535400Y-61802856D02*
X112497304Y-61764761D01*
X112497304Y-61764761D02*
X112421114Y-61726666D01*
X112421114Y-61726666D02*
X112268733Y-61726666D01*
X112268733Y-61726666D02*
X112192542Y-61764761D01*
X112192542Y-61764761D02*
X112154447Y-61802856D01*
X112154447Y-61802856D02*
X112116352Y-61879047D01*
X118052914Y-71916704D02*
X118014818Y-71954800D01*
X118014818Y-71954800D02*
X117900533Y-71992895D01*
X117900533Y-71992895D02*
X117824342Y-71992895D01*
X117824342Y-71992895D02*
X117710056Y-71954800D01*
X117710056Y-71954800D02*
X117633866Y-71878609D01*
X117633866Y-71878609D02*
X117595771Y-71802419D01*
X117595771Y-71802419D02*
X117557675Y-71650038D01*
X117557675Y-71650038D02*
X117557675Y-71535752D01*
X117557675Y-71535752D02*
X117595771Y-71383371D01*
X117595771Y-71383371D02*
X117633866Y-71307180D01*
X117633866Y-71307180D02*
X117710056Y-71230990D01*
X117710056Y-71230990D02*
X117824342Y-71192895D01*
X117824342Y-71192895D02*
X117900533Y-71192895D01*
X117900533Y-71192895D02*
X118014818Y-71230990D01*
X118014818Y-71230990D02*
X118052914Y-71269085D01*
X118814818Y-71992895D02*
X118357675Y-71992895D01*
X118586247Y-71992895D02*
X118586247Y-71192895D01*
X118586247Y-71192895D02*
X118510056Y-71307180D01*
X118510056Y-71307180D02*
X118433866Y-71383371D01*
X118433866Y-71383371D02*
X118357675Y-71421466D01*
X119195771Y-71992895D02*
X119348152Y-71992895D01*
X119348152Y-71992895D02*
X119424342Y-71954800D01*
X119424342Y-71954800D02*
X119462438Y-71916704D01*
X119462438Y-71916704D02*
X119538628Y-71802419D01*
X119538628Y-71802419D02*
X119576723Y-71650038D01*
X119576723Y-71650038D02*
X119576723Y-71345276D01*
X119576723Y-71345276D02*
X119538628Y-71269085D01*
X119538628Y-71269085D02*
X119500533Y-71230990D01*
X119500533Y-71230990D02*
X119424342Y-71192895D01*
X119424342Y-71192895D02*
X119271961Y-71192895D01*
X119271961Y-71192895D02*
X119195771Y-71230990D01*
X119195771Y-71230990D02*
X119157676Y-71269085D01*
X119157676Y-71269085D02*
X119119580Y-71345276D01*
X119119580Y-71345276D02*
X119119580Y-71535752D01*
X119119580Y-71535752D02*
X119157676Y-71611942D01*
X119157676Y-71611942D02*
X119195771Y-71650038D01*
X119195771Y-71650038D02*
X119271961Y-71688133D01*
X119271961Y-71688133D02*
X119424342Y-71688133D01*
X119424342Y-71688133D02*
X119500533Y-71650038D01*
X119500533Y-71650038D02*
X119538628Y-71611942D01*
X119538628Y-71611942D02*
X119576723Y-71535752D01*
X133403095Y-69035532D02*
X133022142Y-69302199D01*
X133403095Y-69492675D02*
X132603095Y-69492675D01*
X132603095Y-69492675D02*
X132603095Y-69187913D01*
X132603095Y-69187913D02*
X132641190Y-69111723D01*
X132641190Y-69111723D02*
X132679285Y-69073628D01*
X132679285Y-69073628D02*
X132755476Y-69035532D01*
X132755476Y-69035532D02*
X132869761Y-69035532D01*
X132869761Y-69035532D02*
X132945952Y-69073628D01*
X132945952Y-69073628D02*
X132984047Y-69111723D01*
X132984047Y-69111723D02*
X133022142Y-69187913D01*
X133022142Y-69187913D02*
X133022142Y-69492675D01*
X133403095Y-68273628D02*
X133403095Y-68730771D01*
X133403095Y-68502199D02*
X132603095Y-68502199D01*
X132603095Y-68502199D02*
X132717380Y-68578390D01*
X132717380Y-68578390D02*
X132793571Y-68654580D01*
X132793571Y-68654580D02*
X132831666Y-68730771D01*
X133439304Y-67513132D02*
X133477400Y-67551228D01*
X133477400Y-67551228D02*
X133515495Y-67665513D01*
X133515495Y-67665513D02*
X133515495Y-67741704D01*
X133515495Y-67741704D02*
X133477400Y-67855990D01*
X133477400Y-67855990D02*
X133401209Y-67932180D01*
X133401209Y-67932180D02*
X133325019Y-67970275D01*
X133325019Y-67970275D02*
X133172638Y-68008371D01*
X133172638Y-68008371D02*
X133058352Y-68008371D01*
X133058352Y-68008371D02*
X132905971Y-67970275D01*
X132905971Y-67970275D02*
X132829780Y-67932180D01*
X132829780Y-67932180D02*
X132753590Y-67855990D01*
X132753590Y-67855990D02*
X132715495Y-67741704D01*
X132715495Y-67741704D02*
X132715495Y-67665513D01*
X132715495Y-67665513D02*
X132753590Y-67551228D01*
X132753590Y-67551228D02*
X132791685Y-67513132D01*
X133515495Y-66751228D02*
X133515495Y-67208371D01*
X133515495Y-66979799D02*
X132715495Y-66979799D01*
X132715495Y-66979799D02*
X132829780Y-67055990D01*
X132829780Y-67055990D02*
X132905971Y-67132180D01*
X132905971Y-67132180D02*
X132944066Y-67208371D01*
X138508333Y-57189895D02*
X138508333Y-57761323D01*
X138508333Y-57761323D02*
X138470238Y-57875609D01*
X138470238Y-57875609D02*
X138394047Y-57951800D01*
X138394047Y-57951800D02*
X138279762Y-57989895D01*
X138279762Y-57989895D02*
X138203571Y-57989895D01*
X138927381Y-57989895D02*
X139079762Y-57989895D01*
X139079762Y-57989895D02*
X139155952Y-57951800D01*
X139155952Y-57951800D02*
X139194048Y-57913704D01*
X139194048Y-57913704D02*
X139270238Y-57799419D01*
X139270238Y-57799419D02*
X139308333Y-57647038D01*
X139308333Y-57647038D02*
X139308333Y-57342276D01*
X139308333Y-57342276D02*
X139270238Y-57266085D01*
X139270238Y-57266085D02*
X139232143Y-57227990D01*
X139232143Y-57227990D02*
X139155952Y-57189895D01*
X139155952Y-57189895D02*
X139003571Y-57189895D01*
X139003571Y-57189895D02*
X138927381Y-57227990D01*
X138927381Y-57227990D02*
X138889286Y-57266085D01*
X138889286Y-57266085D02*
X138851190Y-57342276D01*
X138851190Y-57342276D02*
X138851190Y-57532752D01*
X138851190Y-57532752D02*
X138889286Y-57608942D01*
X138889286Y-57608942D02*
X138927381Y-57647038D01*
X138927381Y-57647038D02*
X139003571Y-57685133D01*
X139003571Y-57685133D02*
X139155952Y-57685133D01*
X139155952Y-57685133D02*
X139232143Y-57647038D01*
X139232143Y-57647038D02*
X139270238Y-57608942D01*
X139270238Y-57608942D02*
X139308333Y-57532752D01*
X138715810Y-77123695D02*
X138449143Y-76742742D01*
X138258667Y-77123695D02*
X138258667Y-76323695D01*
X138258667Y-76323695D02*
X138563429Y-76323695D01*
X138563429Y-76323695D02*
X138639619Y-76361790D01*
X138639619Y-76361790D02*
X138677714Y-76399885D01*
X138677714Y-76399885D02*
X138715810Y-76476076D01*
X138715810Y-76476076D02*
X138715810Y-76590361D01*
X138715810Y-76590361D02*
X138677714Y-76666552D01*
X138677714Y-76666552D02*
X138639619Y-76704647D01*
X138639619Y-76704647D02*
X138563429Y-76742742D01*
X138563429Y-76742742D02*
X138258667Y-76742742D01*
X138944381Y-76323695D02*
X139211048Y-77123695D01*
X139211048Y-77123695D02*
X139477714Y-76323695D01*
X140163428Y-77123695D02*
X139706285Y-77123695D01*
X139934857Y-77123695D02*
X139934857Y-76323695D01*
X139934857Y-76323695D02*
X139858666Y-76437980D01*
X139858666Y-76437980D02*
X139782476Y-76514171D01*
X139782476Y-76514171D02*
X139706285Y-76552266D01*
X152514333Y-70202295D02*
X152514333Y-70773723D01*
X152514333Y-70773723D02*
X152476238Y-70888009D01*
X152476238Y-70888009D02*
X152400047Y-70964200D01*
X152400047Y-70964200D02*
X152285762Y-71002295D01*
X152285762Y-71002295D02*
X152209571Y-71002295D01*
X153276238Y-70202295D02*
X152895286Y-70202295D01*
X152895286Y-70202295D02*
X152857190Y-70583247D01*
X152857190Y-70583247D02*
X152895286Y-70545152D01*
X152895286Y-70545152D02*
X152971476Y-70507057D01*
X152971476Y-70507057D02*
X153161952Y-70507057D01*
X153161952Y-70507057D02*
X153238143Y-70545152D01*
X153238143Y-70545152D02*
X153276238Y-70583247D01*
X153276238Y-70583247D02*
X153314333Y-70659438D01*
X153314333Y-70659438D02*
X153314333Y-70849914D01*
X153314333Y-70849914D02*
X153276238Y-70926104D01*
X153276238Y-70926104D02*
X153238143Y-70964200D01*
X153238143Y-70964200D02*
X153161952Y-71002295D01*
X153161952Y-71002295D02*
X152971476Y-71002295D01*
X152971476Y-71002295D02*
X152895286Y-70964200D01*
X152895286Y-70964200D02*
X152857190Y-70926104D01*
X171789895Y-69651189D02*
X171408942Y-69917856D01*
X171789895Y-70108332D02*
X170989895Y-70108332D01*
X170989895Y-70108332D02*
X170989895Y-69803570D01*
X170989895Y-69803570D02*
X171027990Y-69727380D01*
X171027990Y-69727380D02*
X171066085Y-69689285D01*
X171066085Y-69689285D02*
X171142276Y-69651189D01*
X171142276Y-69651189D02*
X171256561Y-69651189D01*
X171256561Y-69651189D02*
X171332752Y-69689285D01*
X171332752Y-69689285D02*
X171370847Y-69727380D01*
X171370847Y-69727380D02*
X171408942Y-69803570D01*
X171408942Y-69803570D02*
X171408942Y-70108332D01*
X170989895Y-69422618D02*
X171789895Y-69155951D01*
X171789895Y-69155951D02*
X170989895Y-68889285D01*
X170989895Y-68698809D02*
X170989895Y-68203571D01*
X170989895Y-68203571D02*
X171294657Y-68470237D01*
X171294657Y-68470237D02*
X171294657Y-68355952D01*
X171294657Y-68355952D02*
X171332752Y-68279761D01*
X171332752Y-68279761D02*
X171370847Y-68241666D01*
X171370847Y-68241666D02*
X171447038Y-68203571D01*
X171447038Y-68203571D02*
X171637514Y-68203571D01*
X171637514Y-68203571D02*
X171713704Y-68241666D01*
X171713704Y-68241666D02*
X171751800Y-68279761D01*
X171751800Y-68279761D02*
X171789895Y-68355952D01*
X171789895Y-68355952D02*
X171789895Y-68584523D01*
X171789895Y-68584523D02*
X171751800Y-68660714D01*
X171751800Y-68660714D02*
X171713704Y-68698809D01*
X120108714Y-60666295D02*
X119842047Y-60285342D01*
X119651571Y-60666295D02*
X119651571Y-59866295D01*
X119651571Y-59866295D02*
X119956333Y-59866295D01*
X119956333Y-59866295D02*
X120032523Y-59904390D01*
X120032523Y-59904390D02*
X120070618Y-59942485D01*
X120070618Y-59942485D02*
X120108714Y-60018676D01*
X120108714Y-60018676D02*
X120108714Y-60132961D01*
X120108714Y-60132961D02*
X120070618Y-60209152D01*
X120070618Y-60209152D02*
X120032523Y-60247247D01*
X120032523Y-60247247D02*
X119956333Y-60285342D01*
X119956333Y-60285342D02*
X119651571Y-60285342D01*
X120413475Y-59942485D02*
X120451571Y-59904390D01*
X120451571Y-59904390D02*
X120527761Y-59866295D01*
X120527761Y-59866295D02*
X120718237Y-59866295D01*
X120718237Y-59866295D02*
X120794428Y-59904390D01*
X120794428Y-59904390D02*
X120832523Y-59942485D01*
X120832523Y-59942485D02*
X120870618Y-60018676D01*
X120870618Y-60018676D02*
X120870618Y-60094866D01*
X120870618Y-60094866D02*
X120832523Y-60209152D01*
X120832523Y-60209152D02*
X120375380Y-60666295D01*
X120375380Y-60666295D02*
X120870618Y-60666295D01*
X121327761Y-60209152D02*
X121251571Y-60171057D01*
X121251571Y-60171057D02*
X121213476Y-60132961D01*
X121213476Y-60132961D02*
X121175380Y-60056771D01*
X121175380Y-60056771D02*
X121175380Y-60018676D01*
X121175380Y-60018676D02*
X121213476Y-59942485D01*
X121213476Y-59942485D02*
X121251571Y-59904390D01*
X121251571Y-59904390D02*
X121327761Y-59866295D01*
X121327761Y-59866295D02*
X121480142Y-59866295D01*
X121480142Y-59866295D02*
X121556333Y-59904390D01*
X121556333Y-59904390D02*
X121594428Y-59942485D01*
X121594428Y-59942485D02*
X121632523Y-60018676D01*
X121632523Y-60018676D02*
X121632523Y-60056771D01*
X121632523Y-60056771D02*
X121594428Y-60132961D01*
X121594428Y-60132961D02*
X121556333Y-60171057D01*
X121556333Y-60171057D02*
X121480142Y-60209152D01*
X121480142Y-60209152D02*
X121327761Y-60209152D01*
X121327761Y-60209152D02*
X121251571Y-60247247D01*
X121251571Y-60247247D02*
X121213476Y-60285342D01*
X121213476Y-60285342D02*
X121175380Y-60361533D01*
X121175380Y-60361533D02*
X121175380Y-60513914D01*
X121175380Y-60513914D02*
X121213476Y-60590104D01*
X121213476Y-60590104D02*
X121251571Y-60628200D01*
X121251571Y-60628200D02*
X121327761Y-60666295D01*
X121327761Y-60666295D02*
X121480142Y-60666295D01*
X121480142Y-60666295D02*
X121556333Y-60628200D01*
X121556333Y-60628200D02*
X121594428Y-60590104D01*
X121594428Y-60590104D02*
X121632523Y-60513914D01*
X121632523Y-60513914D02*
X121632523Y-60361533D01*
X121632523Y-60361533D02*
X121594428Y-60285342D01*
X121594428Y-60285342D02*
X121556333Y-60247247D01*
X121556333Y-60247247D02*
X121480142Y-60209152D01*
X131997467Y-77428495D02*
X131730800Y-77047542D01*
X131540324Y-77428495D02*
X131540324Y-76628495D01*
X131540324Y-76628495D02*
X131845086Y-76628495D01*
X131845086Y-76628495D02*
X131921276Y-76666590D01*
X131921276Y-76666590D02*
X131959371Y-76704685D01*
X131959371Y-76704685D02*
X131997467Y-76780876D01*
X131997467Y-76780876D02*
X131997467Y-76895161D01*
X131997467Y-76895161D02*
X131959371Y-76971352D01*
X131959371Y-76971352D02*
X131921276Y-77009447D01*
X131921276Y-77009447D02*
X131845086Y-77047542D01*
X131845086Y-77047542D02*
X131540324Y-77047542D01*
X132683181Y-76895161D02*
X132683181Y-77428495D01*
X132492705Y-76590400D02*
X132302228Y-77161828D01*
X132302228Y-77161828D02*
X132797467Y-77161828D01*
X180536914Y-71891295D02*
X180270247Y-71510342D01*
X180079771Y-71891295D02*
X180079771Y-71091295D01*
X180079771Y-71091295D02*
X180384533Y-71091295D01*
X180384533Y-71091295D02*
X180460723Y-71129390D01*
X180460723Y-71129390D02*
X180498818Y-71167485D01*
X180498818Y-71167485D02*
X180536914Y-71243676D01*
X180536914Y-71243676D02*
X180536914Y-71357961D01*
X180536914Y-71357961D02*
X180498818Y-71434152D01*
X180498818Y-71434152D02*
X180460723Y-71472247D01*
X180460723Y-71472247D02*
X180384533Y-71510342D01*
X180384533Y-71510342D02*
X180079771Y-71510342D01*
X180841675Y-71167485D02*
X180879771Y-71129390D01*
X180879771Y-71129390D02*
X180955961Y-71091295D01*
X180955961Y-71091295D02*
X181146437Y-71091295D01*
X181146437Y-71091295D02*
X181222628Y-71129390D01*
X181222628Y-71129390D02*
X181260723Y-71167485D01*
X181260723Y-71167485D02*
X181298818Y-71243676D01*
X181298818Y-71243676D02*
X181298818Y-71319866D01*
X181298818Y-71319866D02*
X181260723Y-71434152D01*
X181260723Y-71434152D02*
X180803580Y-71891295D01*
X180803580Y-71891295D02*
X181298818Y-71891295D01*
X181984533Y-71091295D02*
X181832152Y-71091295D01*
X181832152Y-71091295D02*
X181755961Y-71129390D01*
X181755961Y-71129390D02*
X181717866Y-71167485D01*
X181717866Y-71167485D02*
X181641676Y-71281771D01*
X181641676Y-71281771D02*
X181603580Y-71434152D01*
X181603580Y-71434152D02*
X181603580Y-71738914D01*
X181603580Y-71738914D02*
X181641676Y-71815104D01*
X181641676Y-71815104D02*
X181679771Y-71853200D01*
X181679771Y-71853200D02*
X181755961Y-71891295D01*
X181755961Y-71891295D02*
X181908342Y-71891295D01*
X181908342Y-71891295D02*
X181984533Y-71853200D01*
X181984533Y-71853200D02*
X182022628Y-71815104D01*
X182022628Y-71815104D02*
X182060723Y-71738914D01*
X182060723Y-71738914D02*
X182060723Y-71548438D01*
X182060723Y-71548438D02*
X182022628Y-71472247D01*
X182022628Y-71472247D02*
X181984533Y-71434152D01*
X181984533Y-71434152D02*
X181908342Y-71396057D01*
X181908342Y-71396057D02*
X181755961Y-71396057D01*
X181755961Y-71396057D02*
X181679771Y-71434152D01*
X181679771Y-71434152D02*
X181641676Y-71472247D01*
X181641676Y-71472247D02*
X181603580Y-71548438D01*
X148583714Y-58378495D02*
X148317047Y-57997542D01*
X148126571Y-58378495D02*
X148126571Y-57578495D01*
X148126571Y-57578495D02*
X148431333Y-57578495D01*
X148431333Y-57578495D02*
X148507523Y-57616590D01*
X148507523Y-57616590D02*
X148545618Y-57654685D01*
X148545618Y-57654685D02*
X148583714Y-57730876D01*
X148583714Y-57730876D02*
X148583714Y-57845161D01*
X148583714Y-57845161D02*
X148545618Y-57921352D01*
X148545618Y-57921352D02*
X148507523Y-57959447D01*
X148507523Y-57959447D02*
X148431333Y-57997542D01*
X148431333Y-57997542D02*
X148126571Y-57997542D01*
X149345618Y-58378495D02*
X148888475Y-58378495D01*
X149117047Y-58378495D02*
X149117047Y-57578495D01*
X149117047Y-57578495D02*
X149040856Y-57692780D01*
X149040856Y-57692780D02*
X148964666Y-57768971D01*
X148964666Y-57768971D02*
X148888475Y-57807066D01*
X149840857Y-57578495D02*
X149917047Y-57578495D01*
X149917047Y-57578495D02*
X149993238Y-57616590D01*
X149993238Y-57616590D02*
X150031333Y-57654685D01*
X150031333Y-57654685D02*
X150069428Y-57730876D01*
X150069428Y-57730876D02*
X150107523Y-57883257D01*
X150107523Y-57883257D02*
X150107523Y-58073733D01*
X150107523Y-58073733D02*
X150069428Y-58226114D01*
X150069428Y-58226114D02*
X150031333Y-58302304D01*
X150031333Y-58302304D02*
X149993238Y-58340400D01*
X149993238Y-58340400D02*
X149917047Y-58378495D01*
X149917047Y-58378495D02*
X149840857Y-58378495D01*
X149840857Y-58378495D02*
X149764666Y-58340400D01*
X149764666Y-58340400D02*
X149726571Y-58302304D01*
X149726571Y-58302304D02*
X149688476Y-58226114D01*
X149688476Y-58226114D02*
X149650380Y-58073733D01*
X149650380Y-58073733D02*
X149650380Y-57883257D01*
X149650380Y-57883257D02*
X149688476Y-57730876D01*
X149688476Y-57730876D02*
X149726571Y-57654685D01*
X149726571Y-57654685D02*
X149764666Y-57616590D01*
X149764666Y-57616590D02*
X149840857Y-57578495D01*
X115055771Y-88299695D02*
X115055771Y-87499695D01*
X115055771Y-87499695D02*
X115360533Y-87499695D01*
X115360533Y-87499695D02*
X115436723Y-87537790D01*
X115436723Y-87537790D02*
X115474818Y-87575885D01*
X115474818Y-87575885D02*
X115512914Y-87652076D01*
X115512914Y-87652076D02*
X115512914Y-87766361D01*
X115512914Y-87766361D02*
X115474818Y-87842552D01*
X115474818Y-87842552D02*
X115436723Y-87880647D01*
X115436723Y-87880647D02*
X115360533Y-87918742D01*
X115360533Y-87918742D02*
X115055771Y-87918742D01*
X115817675Y-88261600D02*
X115931961Y-88299695D01*
X115931961Y-88299695D02*
X116122437Y-88299695D01*
X116122437Y-88299695D02*
X116198628Y-88261600D01*
X116198628Y-88261600D02*
X116236723Y-88223504D01*
X116236723Y-88223504D02*
X116274818Y-88147314D01*
X116274818Y-88147314D02*
X116274818Y-88071123D01*
X116274818Y-88071123D02*
X116236723Y-87994933D01*
X116236723Y-87994933D02*
X116198628Y-87956838D01*
X116198628Y-87956838D02*
X116122437Y-87918742D01*
X116122437Y-87918742D02*
X115970056Y-87880647D01*
X115970056Y-87880647D02*
X115893866Y-87842552D01*
X115893866Y-87842552D02*
X115855771Y-87804457D01*
X115855771Y-87804457D02*
X115817675Y-87728266D01*
X115817675Y-87728266D02*
X115817675Y-87652076D01*
X115817675Y-87652076D02*
X115855771Y-87575885D01*
X115855771Y-87575885D02*
X115893866Y-87537790D01*
X115893866Y-87537790D02*
X115970056Y-87499695D01*
X115970056Y-87499695D02*
X116160533Y-87499695D01*
X116160533Y-87499695D02*
X116274818Y-87537790D01*
X117036723Y-88299695D02*
X116579580Y-88299695D01*
X116808152Y-88299695D02*
X116808152Y-87499695D01*
X116808152Y-87499695D02*
X116731961Y-87613980D01*
X116731961Y-87613980D02*
X116655771Y-87690171D01*
X116655771Y-87690171D02*
X116579580Y-87728266D01*
X173535714Y-65914895D02*
X173269047Y-65533942D01*
X173078571Y-65914895D02*
X173078571Y-65114895D01*
X173078571Y-65114895D02*
X173383333Y-65114895D01*
X173383333Y-65114895D02*
X173459523Y-65152990D01*
X173459523Y-65152990D02*
X173497618Y-65191085D01*
X173497618Y-65191085D02*
X173535714Y-65267276D01*
X173535714Y-65267276D02*
X173535714Y-65381561D01*
X173535714Y-65381561D02*
X173497618Y-65457752D01*
X173497618Y-65457752D02*
X173459523Y-65495847D01*
X173459523Y-65495847D02*
X173383333Y-65533942D01*
X173383333Y-65533942D02*
X173078571Y-65533942D01*
X173840475Y-65191085D02*
X173878571Y-65152990D01*
X173878571Y-65152990D02*
X173954761Y-65114895D01*
X173954761Y-65114895D02*
X174145237Y-65114895D01*
X174145237Y-65114895D02*
X174221428Y-65152990D01*
X174221428Y-65152990D02*
X174259523Y-65191085D01*
X174259523Y-65191085D02*
X174297618Y-65267276D01*
X174297618Y-65267276D02*
X174297618Y-65343466D01*
X174297618Y-65343466D02*
X174259523Y-65457752D01*
X174259523Y-65457752D02*
X173802380Y-65914895D01*
X173802380Y-65914895D02*
X174297618Y-65914895D01*
X175059523Y-65914895D02*
X174602380Y-65914895D01*
X174830952Y-65914895D02*
X174830952Y-65114895D01*
X174830952Y-65114895D02*
X174754761Y-65229180D01*
X174754761Y-65229180D02*
X174678571Y-65305371D01*
X174678571Y-65305371D02*
X174602380Y-65343466D01*
X134622624Y-77196895D02*
X134622624Y-76396895D01*
X134622624Y-76396895D02*
X134813100Y-76396895D01*
X134813100Y-76396895D02*
X134927386Y-76434990D01*
X134927386Y-76434990D02*
X135003576Y-76511180D01*
X135003576Y-76511180D02*
X135041671Y-76587371D01*
X135041671Y-76587371D02*
X135079767Y-76739752D01*
X135079767Y-76739752D02*
X135079767Y-76854038D01*
X135079767Y-76854038D02*
X135041671Y-77006419D01*
X135041671Y-77006419D02*
X135003576Y-77082609D01*
X135003576Y-77082609D02*
X134927386Y-77158800D01*
X134927386Y-77158800D02*
X134813100Y-77196895D01*
X134813100Y-77196895D02*
X134622624Y-77196895D01*
X135841671Y-77196895D02*
X135384528Y-77196895D01*
X135613100Y-77196895D02*
X135613100Y-76396895D01*
X135613100Y-76396895D02*
X135536909Y-76511180D01*
X135536909Y-76511180D02*
X135460719Y-76587371D01*
X135460719Y-76587371D02*
X135384528Y-76625466D01*
X108069524Y-76715895D02*
X108069524Y-75915895D01*
X108069524Y-75915895D02*
X108260000Y-75915895D01*
X108260000Y-75915895D02*
X108374286Y-75953990D01*
X108374286Y-75953990D02*
X108450476Y-76030180D01*
X108450476Y-76030180D02*
X108488571Y-76106371D01*
X108488571Y-76106371D02*
X108526667Y-76258752D01*
X108526667Y-76258752D02*
X108526667Y-76373038D01*
X108526667Y-76373038D02*
X108488571Y-76525419D01*
X108488571Y-76525419D02*
X108450476Y-76601609D01*
X108450476Y-76601609D02*
X108374286Y-76677800D01*
X108374286Y-76677800D02*
X108260000Y-76715895D01*
X108260000Y-76715895D02*
X108069524Y-76715895D01*
X108831428Y-75992085D02*
X108869524Y-75953990D01*
X108869524Y-75953990D02*
X108945714Y-75915895D01*
X108945714Y-75915895D02*
X109136190Y-75915895D01*
X109136190Y-75915895D02*
X109212381Y-75953990D01*
X109212381Y-75953990D02*
X109250476Y-75992085D01*
X109250476Y-75992085D02*
X109288571Y-76068276D01*
X109288571Y-76068276D02*
X109288571Y-76144466D01*
X109288571Y-76144466D02*
X109250476Y-76258752D01*
X109250476Y-76258752D02*
X108793333Y-76715895D01*
X108793333Y-76715895D02*
X109288571Y-76715895D01*
X116884514Y-79206495D02*
X116617847Y-78825542D01*
X116427371Y-79206495D02*
X116427371Y-78406495D01*
X116427371Y-78406495D02*
X116732133Y-78406495D01*
X116732133Y-78406495D02*
X116808323Y-78444590D01*
X116808323Y-78444590D02*
X116846418Y-78482685D01*
X116846418Y-78482685D02*
X116884514Y-78558876D01*
X116884514Y-78558876D02*
X116884514Y-78673161D01*
X116884514Y-78673161D02*
X116846418Y-78749352D01*
X116846418Y-78749352D02*
X116808323Y-78787447D01*
X116808323Y-78787447D02*
X116732133Y-78825542D01*
X116732133Y-78825542D02*
X116427371Y-78825542D01*
X117189275Y-78482685D02*
X117227371Y-78444590D01*
X117227371Y-78444590D02*
X117303561Y-78406495D01*
X117303561Y-78406495D02*
X117494037Y-78406495D01*
X117494037Y-78406495D02*
X117570228Y-78444590D01*
X117570228Y-78444590D02*
X117608323Y-78482685D01*
X117608323Y-78482685D02*
X117646418Y-78558876D01*
X117646418Y-78558876D02*
X117646418Y-78635066D01*
X117646418Y-78635066D02*
X117608323Y-78749352D01*
X117608323Y-78749352D02*
X117151180Y-79206495D01*
X117151180Y-79206495D02*
X117646418Y-79206495D01*
X118027371Y-79206495D02*
X118179752Y-79206495D01*
X118179752Y-79206495D02*
X118255942Y-79168400D01*
X118255942Y-79168400D02*
X118294038Y-79130304D01*
X118294038Y-79130304D02*
X118370228Y-79016019D01*
X118370228Y-79016019D02*
X118408323Y-78863638D01*
X118408323Y-78863638D02*
X118408323Y-78558876D01*
X118408323Y-78558876D02*
X118370228Y-78482685D01*
X118370228Y-78482685D02*
X118332133Y-78444590D01*
X118332133Y-78444590D02*
X118255942Y-78406495D01*
X118255942Y-78406495D02*
X118103561Y-78406495D01*
X118103561Y-78406495D02*
X118027371Y-78444590D01*
X118027371Y-78444590D02*
X117989276Y-78482685D01*
X117989276Y-78482685D02*
X117951180Y-78558876D01*
X117951180Y-78558876D02*
X117951180Y-78749352D01*
X117951180Y-78749352D02*
X117989276Y-78825542D01*
X117989276Y-78825542D02*
X118027371Y-78863638D01*
X118027371Y-78863638D02*
X118103561Y-78901733D01*
X118103561Y-78901733D02*
X118255942Y-78901733D01*
X118255942Y-78901733D02*
X118332133Y-78863638D01*
X118332133Y-78863638D02*
X118370228Y-78825542D01*
X118370228Y-78825542D02*
X118408323Y-78749352D01*
X150825276Y-85112095D02*
X150825276Y-85759714D01*
X150825276Y-85759714D02*
X150863371Y-85835904D01*
X150863371Y-85835904D02*
X150901466Y-85874000D01*
X150901466Y-85874000D02*
X150977657Y-85912095D01*
X150977657Y-85912095D02*
X151130038Y-85912095D01*
X151130038Y-85912095D02*
X151206228Y-85874000D01*
X151206228Y-85874000D02*
X151244323Y-85835904D01*
X151244323Y-85835904D02*
X151282419Y-85759714D01*
X151282419Y-85759714D02*
X151282419Y-85112095D01*
X152082418Y-85912095D02*
X151625275Y-85912095D01*
X151853847Y-85912095D02*
X151853847Y-85112095D01*
X151853847Y-85112095D02*
X151777656Y-85226380D01*
X151777656Y-85226380D02*
X151701466Y-85302571D01*
X151701466Y-85302571D02*
X151625275Y-85340666D01*
X112236266Y-69656095D02*
X111855314Y-69656095D01*
X111855314Y-69656095D02*
X111855314Y-68856095D01*
X112921980Y-69656095D02*
X112464837Y-69656095D01*
X112693409Y-69656095D02*
X112693409Y-68856095D01*
X112693409Y-68856095D02*
X112617218Y-68970380D01*
X112617218Y-68970380D02*
X112541028Y-69046571D01*
X112541028Y-69046571D02*
X112464837Y-69084666D01*
X117985714Y-67313704D02*
X117947618Y-67351800D01*
X117947618Y-67351800D02*
X117833333Y-67389895D01*
X117833333Y-67389895D02*
X117757142Y-67389895D01*
X117757142Y-67389895D02*
X117642856Y-67351800D01*
X117642856Y-67351800D02*
X117566666Y-67275609D01*
X117566666Y-67275609D02*
X117528571Y-67199419D01*
X117528571Y-67199419D02*
X117490475Y-67047038D01*
X117490475Y-67047038D02*
X117490475Y-66932752D01*
X117490475Y-66932752D02*
X117528571Y-66780371D01*
X117528571Y-66780371D02*
X117566666Y-66704180D01*
X117566666Y-66704180D02*
X117642856Y-66627990D01*
X117642856Y-66627990D02*
X117757142Y-66589895D01*
X117757142Y-66589895D02*
X117833333Y-66589895D01*
X117833333Y-66589895D02*
X117947618Y-66627990D01*
X117947618Y-66627990D02*
X117985714Y-66666085D01*
X118290475Y-66666085D02*
X118328571Y-66627990D01*
X118328571Y-66627990D02*
X118404761Y-66589895D01*
X118404761Y-66589895D02*
X118595237Y-66589895D01*
X118595237Y-66589895D02*
X118671428Y-66627990D01*
X118671428Y-66627990D02*
X118709523Y-66666085D01*
X118709523Y-66666085D02*
X118747618Y-66742276D01*
X118747618Y-66742276D02*
X118747618Y-66818466D01*
X118747618Y-66818466D02*
X118709523Y-66932752D01*
X118709523Y-66932752D02*
X118252380Y-67389895D01*
X118252380Y-67389895D02*
X118747618Y-67389895D01*
X119242857Y-66589895D02*
X119319047Y-66589895D01*
X119319047Y-66589895D02*
X119395238Y-66627990D01*
X119395238Y-66627990D02*
X119433333Y-66666085D01*
X119433333Y-66666085D02*
X119471428Y-66742276D01*
X119471428Y-66742276D02*
X119509523Y-66894657D01*
X119509523Y-66894657D02*
X119509523Y-67085133D01*
X119509523Y-67085133D02*
X119471428Y-67237514D01*
X119471428Y-67237514D02*
X119433333Y-67313704D01*
X119433333Y-67313704D02*
X119395238Y-67351800D01*
X119395238Y-67351800D02*
X119319047Y-67389895D01*
X119319047Y-67389895D02*
X119242857Y-67389895D01*
X119242857Y-67389895D02*
X119166666Y-67351800D01*
X119166666Y-67351800D02*
X119128571Y-67313704D01*
X119128571Y-67313704D02*
X119090476Y-67237514D01*
X119090476Y-67237514D02*
X119052380Y-67085133D01*
X119052380Y-67085133D02*
X119052380Y-66894657D01*
X119052380Y-66894657D02*
X119090476Y-66742276D01*
X119090476Y-66742276D02*
X119128571Y-66666085D01*
X119128571Y-66666085D02*
X119166666Y-66627990D01*
X119166666Y-66627990D02*
X119242857Y-66589895D01*
X143173467Y-77326895D02*
X142906800Y-76945942D01*
X142716324Y-77326895D02*
X142716324Y-76526895D01*
X142716324Y-76526895D02*
X143021086Y-76526895D01*
X143021086Y-76526895D02*
X143097276Y-76564990D01*
X143097276Y-76564990D02*
X143135371Y-76603085D01*
X143135371Y-76603085D02*
X143173467Y-76679276D01*
X143173467Y-76679276D02*
X143173467Y-76793561D01*
X143173467Y-76793561D02*
X143135371Y-76869752D01*
X143135371Y-76869752D02*
X143097276Y-76907847D01*
X143097276Y-76907847D02*
X143021086Y-76945942D01*
X143021086Y-76945942D02*
X142716324Y-76945942D01*
X143859181Y-76526895D02*
X143706800Y-76526895D01*
X143706800Y-76526895D02*
X143630609Y-76564990D01*
X143630609Y-76564990D02*
X143592514Y-76603085D01*
X143592514Y-76603085D02*
X143516324Y-76717371D01*
X143516324Y-76717371D02*
X143478228Y-76869752D01*
X143478228Y-76869752D02*
X143478228Y-77174514D01*
X143478228Y-77174514D02*
X143516324Y-77250704D01*
X143516324Y-77250704D02*
X143554419Y-77288800D01*
X143554419Y-77288800D02*
X143630609Y-77326895D01*
X143630609Y-77326895D02*
X143782990Y-77326895D01*
X143782990Y-77326895D02*
X143859181Y-77288800D01*
X143859181Y-77288800D02*
X143897276Y-77250704D01*
X143897276Y-77250704D02*
X143935371Y-77174514D01*
X143935371Y-77174514D02*
X143935371Y-76984038D01*
X143935371Y-76984038D02*
X143897276Y-76907847D01*
X143897276Y-76907847D02*
X143859181Y-76869752D01*
X143859181Y-76869752D02*
X143782990Y-76831657D01*
X143782990Y-76831657D02*
X143630609Y-76831657D01*
X143630609Y-76831657D02*
X143554419Y-76869752D01*
X143554419Y-76869752D02*
X143516324Y-76907847D01*
X143516324Y-76907847D02*
X143478228Y-76984038D01*
X167986367Y-88263704D02*
X167948271Y-88301800D01*
X167948271Y-88301800D02*
X167833986Y-88339895D01*
X167833986Y-88339895D02*
X167757795Y-88339895D01*
X167757795Y-88339895D02*
X167643509Y-88301800D01*
X167643509Y-88301800D02*
X167567319Y-88225609D01*
X167567319Y-88225609D02*
X167529224Y-88149419D01*
X167529224Y-88149419D02*
X167491128Y-87997038D01*
X167491128Y-87997038D02*
X167491128Y-87882752D01*
X167491128Y-87882752D02*
X167529224Y-87730371D01*
X167529224Y-87730371D02*
X167567319Y-87654180D01*
X167567319Y-87654180D02*
X167643509Y-87577990D01*
X167643509Y-87577990D02*
X167757795Y-87539895D01*
X167757795Y-87539895D02*
X167833986Y-87539895D01*
X167833986Y-87539895D02*
X167948271Y-87577990D01*
X167948271Y-87577990D02*
X167986367Y-87616085D01*
X168786367Y-88339895D02*
X168519700Y-87958942D01*
X168329224Y-88339895D02*
X168329224Y-87539895D01*
X168329224Y-87539895D02*
X168633986Y-87539895D01*
X168633986Y-87539895D02*
X168710176Y-87577990D01*
X168710176Y-87577990D02*
X168748271Y-87616085D01*
X168748271Y-87616085D02*
X168786367Y-87692276D01*
X168786367Y-87692276D02*
X168786367Y-87806561D01*
X168786367Y-87806561D02*
X168748271Y-87882752D01*
X168748271Y-87882752D02*
X168710176Y-87920847D01*
X168710176Y-87920847D02*
X168633986Y-87958942D01*
X168633986Y-87958942D02*
X168329224Y-87958942D01*
X169548271Y-88339895D02*
X169091128Y-88339895D01*
X169319700Y-88339895D02*
X169319700Y-87539895D01*
X169319700Y-87539895D02*
X169243509Y-87654180D01*
X169243509Y-87654180D02*
X169167319Y-87730371D01*
X169167319Y-87730371D02*
X169091128Y-87768466D01*
X148583667Y-68386095D02*
X148317000Y-68005142D01*
X148126524Y-68386095D02*
X148126524Y-67586095D01*
X148126524Y-67586095D02*
X148431286Y-67586095D01*
X148431286Y-67586095D02*
X148507476Y-67624190D01*
X148507476Y-67624190D02*
X148545571Y-67662285D01*
X148545571Y-67662285D02*
X148583667Y-67738476D01*
X148583667Y-67738476D02*
X148583667Y-67852761D01*
X148583667Y-67852761D02*
X148545571Y-67928952D01*
X148545571Y-67928952D02*
X148507476Y-67967047D01*
X148507476Y-67967047D02*
X148431286Y-68005142D01*
X148431286Y-68005142D02*
X148126524Y-68005142D01*
X148964619Y-68386095D02*
X149117000Y-68386095D01*
X149117000Y-68386095D02*
X149193190Y-68348000D01*
X149193190Y-68348000D02*
X149231286Y-68309904D01*
X149231286Y-68309904D02*
X149307476Y-68195619D01*
X149307476Y-68195619D02*
X149345571Y-68043238D01*
X149345571Y-68043238D02*
X149345571Y-67738476D01*
X149345571Y-67738476D02*
X149307476Y-67662285D01*
X149307476Y-67662285D02*
X149269381Y-67624190D01*
X149269381Y-67624190D02*
X149193190Y-67586095D01*
X149193190Y-67586095D02*
X149040809Y-67586095D01*
X149040809Y-67586095D02*
X148964619Y-67624190D01*
X148964619Y-67624190D02*
X148926524Y-67662285D01*
X148926524Y-67662285D02*
X148888428Y-67738476D01*
X148888428Y-67738476D02*
X148888428Y-67928952D01*
X148888428Y-67928952D02*
X148926524Y-68005142D01*
X148926524Y-68005142D02*
X148964619Y-68043238D01*
X148964619Y-68043238D02*
X149040809Y-68081333D01*
X149040809Y-68081333D02*
X149193190Y-68081333D01*
X149193190Y-68081333D02*
X149269381Y-68043238D01*
X149269381Y-68043238D02*
X149307476Y-68005142D01*
X149307476Y-68005142D02*
X149345571Y-67928952D01*
X160738399Y-66866633D02*
X160505066Y-66533300D01*
X160338399Y-66866633D02*
X160338399Y-66166633D01*
X160338399Y-66166633D02*
X160605066Y-66166633D01*
X160605066Y-66166633D02*
X160671733Y-66199966D01*
X160671733Y-66199966D02*
X160705066Y-66233300D01*
X160705066Y-66233300D02*
X160738399Y-66299966D01*
X160738399Y-66299966D02*
X160738399Y-66399966D01*
X160738399Y-66399966D02*
X160705066Y-66466633D01*
X160705066Y-66466633D02*
X160671733Y-66499966D01*
X160671733Y-66499966D02*
X160605066Y-66533300D01*
X160605066Y-66533300D02*
X160338399Y-66533300D01*
X161405066Y-66866633D02*
X161005066Y-66866633D01*
X161205066Y-66866633D02*
X161205066Y-66166633D01*
X161205066Y-66166633D02*
X161138399Y-66266633D01*
X161138399Y-66266633D02*
X161071733Y-66333300D01*
X161071733Y-66333300D02*
X161005066Y-66366633D01*
X161671733Y-66233300D02*
X161705066Y-66199966D01*
X161705066Y-66199966D02*
X161771733Y-66166633D01*
X161771733Y-66166633D02*
X161938400Y-66166633D01*
X161938400Y-66166633D02*
X162005066Y-66199966D01*
X162005066Y-66199966D02*
X162038400Y-66233300D01*
X162038400Y-66233300D02*
X162071733Y-66299966D01*
X162071733Y-66299966D02*
X162071733Y-66366633D01*
X162071733Y-66366633D02*
X162038400Y-66466633D01*
X162038400Y-66466633D02*
X161638400Y-66866633D01*
X161638400Y-66866633D02*
X162071733Y-66866633D01*
X173475714Y-80273295D02*
X173209047Y-79892342D01*
X173018571Y-80273295D02*
X173018571Y-79473295D01*
X173018571Y-79473295D02*
X173323333Y-79473295D01*
X173323333Y-79473295D02*
X173399523Y-79511390D01*
X173399523Y-79511390D02*
X173437618Y-79549485D01*
X173437618Y-79549485D02*
X173475714Y-79625676D01*
X173475714Y-79625676D02*
X173475714Y-79739961D01*
X173475714Y-79739961D02*
X173437618Y-79816152D01*
X173437618Y-79816152D02*
X173399523Y-79854247D01*
X173399523Y-79854247D02*
X173323333Y-79892342D01*
X173323333Y-79892342D02*
X173018571Y-79892342D01*
X174237618Y-80273295D02*
X173780475Y-80273295D01*
X174009047Y-80273295D02*
X174009047Y-79473295D01*
X174009047Y-79473295D02*
X173932856Y-79587580D01*
X173932856Y-79587580D02*
X173856666Y-79663771D01*
X173856666Y-79663771D02*
X173780475Y-79701866D01*
X174694761Y-79816152D02*
X174618571Y-79778057D01*
X174618571Y-79778057D02*
X174580476Y-79739961D01*
X174580476Y-79739961D02*
X174542380Y-79663771D01*
X174542380Y-79663771D02*
X174542380Y-79625676D01*
X174542380Y-79625676D02*
X174580476Y-79549485D01*
X174580476Y-79549485D02*
X174618571Y-79511390D01*
X174618571Y-79511390D02*
X174694761Y-79473295D01*
X174694761Y-79473295D02*
X174847142Y-79473295D01*
X174847142Y-79473295D02*
X174923333Y-79511390D01*
X174923333Y-79511390D02*
X174961428Y-79549485D01*
X174961428Y-79549485D02*
X174999523Y-79625676D01*
X174999523Y-79625676D02*
X174999523Y-79663771D01*
X174999523Y-79663771D02*
X174961428Y-79739961D01*
X174961428Y-79739961D02*
X174923333Y-79778057D01*
X174923333Y-79778057D02*
X174847142Y-79816152D01*
X174847142Y-79816152D02*
X174694761Y-79816152D01*
X174694761Y-79816152D02*
X174618571Y-79854247D01*
X174618571Y-79854247D02*
X174580476Y-79892342D01*
X174580476Y-79892342D02*
X174542380Y-79968533D01*
X174542380Y-79968533D02*
X174542380Y-80120914D01*
X174542380Y-80120914D02*
X174580476Y-80197104D01*
X174580476Y-80197104D02*
X174618571Y-80235200D01*
X174618571Y-80235200D02*
X174694761Y-80273295D01*
X174694761Y-80273295D02*
X174847142Y-80273295D01*
X174847142Y-80273295D02*
X174923333Y-80235200D01*
X174923333Y-80235200D02*
X174961428Y-80197104D01*
X174961428Y-80197104D02*
X174999523Y-80120914D01*
X174999523Y-80120914D02*
X174999523Y-79968533D01*
X174999523Y-79968533D02*
X174961428Y-79892342D01*
X174961428Y-79892342D02*
X174923333Y-79854247D01*
X174923333Y-79854247D02*
X174847142Y-79816152D01*
X157524514Y-58251504D02*
X157486418Y-58289600D01*
X157486418Y-58289600D02*
X157372133Y-58327695D01*
X157372133Y-58327695D02*
X157295942Y-58327695D01*
X157295942Y-58327695D02*
X157181656Y-58289600D01*
X157181656Y-58289600D02*
X157105466Y-58213409D01*
X157105466Y-58213409D02*
X157067371Y-58137219D01*
X157067371Y-58137219D02*
X157029275Y-57984838D01*
X157029275Y-57984838D02*
X157029275Y-57870552D01*
X157029275Y-57870552D02*
X157067371Y-57718171D01*
X157067371Y-57718171D02*
X157105466Y-57641980D01*
X157105466Y-57641980D02*
X157181656Y-57565790D01*
X157181656Y-57565790D02*
X157295942Y-57527695D01*
X157295942Y-57527695D02*
X157372133Y-57527695D01*
X157372133Y-57527695D02*
X157486418Y-57565790D01*
X157486418Y-57565790D02*
X157524514Y-57603885D01*
X158286418Y-58327695D02*
X157829275Y-58327695D01*
X158057847Y-58327695D02*
X158057847Y-57527695D01*
X158057847Y-57527695D02*
X157981656Y-57641980D01*
X157981656Y-57641980D02*
X157905466Y-57718171D01*
X157905466Y-57718171D02*
X157829275Y-57756266D01*
X158591180Y-57603885D02*
X158629276Y-57565790D01*
X158629276Y-57565790D02*
X158705466Y-57527695D01*
X158705466Y-57527695D02*
X158895942Y-57527695D01*
X158895942Y-57527695D02*
X158972133Y-57565790D01*
X158972133Y-57565790D02*
X159010228Y-57603885D01*
X159010228Y-57603885D02*
X159048323Y-57680076D01*
X159048323Y-57680076D02*
X159048323Y-57756266D01*
X159048323Y-57756266D02*
X159010228Y-57870552D01*
X159010228Y-57870552D02*
X158553085Y-58327695D01*
X158553085Y-58327695D02*
X159048323Y-58327695D01*
X171839895Y-75276189D02*
X171458942Y-75542856D01*
X171839895Y-75733332D02*
X171039895Y-75733332D01*
X171039895Y-75733332D02*
X171039895Y-75428570D01*
X171039895Y-75428570D02*
X171077990Y-75352380D01*
X171077990Y-75352380D02*
X171116085Y-75314285D01*
X171116085Y-75314285D02*
X171192276Y-75276189D01*
X171192276Y-75276189D02*
X171306561Y-75276189D01*
X171306561Y-75276189D02*
X171382752Y-75314285D01*
X171382752Y-75314285D02*
X171420847Y-75352380D01*
X171420847Y-75352380D02*
X171458942Y-75428570D01*
X171458942Y-75428570D02*
X171458942Y-75733332D01*
X171039895Y-75047618D02*
X171839895Y-74780951D01*
X171839895Y-74780951D02*
X171039895Y-74514285D01*
X171306561Y-73904761D02*
X171839895Y-73904761D01*
X171001800Y-74095237D02*
X171573228Y-74285714D01*
X171573228Y-74285714D02*
X171573228Y-73790475D01*
X180511295Y-83166667D02*
X180473200Y-83128571D01*
X180473200Y-83128571D02*
X180435104Y-83014286D01*
X180435104Y-83014286D02*
X180435104Y-82938095D01*
X180435104Y-82938095D02*
X180473200Y-82823809D01*
X180473200Y-82823809D02*
X180549390Y-82747619D01*
X180549390Y-82747619D02*
X180625580Y-82709524D01*
X180625580Y-82709524D02*
X180777961Y-82671428D01*
X180777961Y-82671428D02*
X180892247Y-82671428D01*
X180892247Y-82671428D02*
X181044628Y-82709524D01*
X181044628Y-82709524D02*
X181120819Y-82747619D01*
X181120819Y-82747619D02*
X181197009Y-82823809D01*
X181197009Y-82823809D02*
X181235104Y-82938095D01*
X181235104Y-82938095D02*
X181235104Y-83014286D01*
X181235104Y-83014286D02*
X181197009Y-83128571D01*
X181197009Y-83128571D02*
X181158914Y-83166667D01*
X180435104Y-83966667D02*
X180816057Y-83700000D01*
X180435104Y-83509524D02*
X181235104Y-83509524D01*
X181235104Y-83509524D02*
X181235104Y-83814286D01*
X181235104Y-83814286D02*
X181197009Y-83890476D01*
X181197009Y-83890476D02*
X181158914Y-83928571D01*
X181158914Y-83928571D02*
X181082723Y-83966667D01*
X181082723Y-83966667D02*
X180968438Y-83966667D01*
X180968438Y-83966667D02*
X180892247Y-83928571D01*
X180892247Y-83928571D02*
X180854152Y-83890476D01*
X180854152Y-83890476D02*
X180816057Y-83814286D01*
X180816057Y-83814286D02*
X180816057Y-83509524D01*
X181235104Y-84690476D02*
X181235104Y-84309524D01*
X181235104Y-84309524D02*
X180854152Y-84271428D01*
X180854152Y-84271428D02*
X180892247Y-84309524D01*
X180892247Y-84309524D02*
X180930342Y-84385714D01*
X180930342Y-84385714D02*
X180930342Y-84576190D01*
X180930342Y-84576190D02*
X180892247Y-84652381D01*
X180892247Y-84652381D02*
X180854152Y-84690476D01*
X180854152Y-84690476D02*
X180777961Y-84728571D01*
X180777961Y-84728571D02*
X180587485Y-84728571D01*
X180587485Y-84728571D02*
X180511295Y-84690476D01*
X180511295Y-84690476D02*
X180473200Y-84652381D01*
X180473200Y-84652381D02*
X180435104Y-84576190D01*
X180435104Y-84576190D02*
X180435104Y-84385714D01*
X180435104Y-84385714D02*
X180473200Y-84309524D01*
X180473200Y-84309524D02*
X180511295Y-84271428D01*
X136283333Y-59364895D02*
X136283333Y-59936323D01*
X136283333Y-59936323D02*
X136245238Y-60050609D01*
X136245238Y-60050609D02*
X136169047Y-60126800D01*
X136169047Y-60126800D02*
X136054762Y-60164895D01*
X136054762Y-60164895D02*
X135978571Y-60164895D01*
X136626190Y-59441085D02*
X136664286Y-59402990D01*
X136664286Y-59402990D02*
X136740476Y-59364895D01*
X136740476Y-59364895D02*
X136930952Y-59364895D01*
X136930952Y-59364895D02*
X137007143Y-59402990D01*
X137007143Y-59402990D02*
X137045238Y-59441085D01*
X137045238Y-59441085D02*
X137083333Y-59517276D01*
X137083333Y-59517276D02*
X137083333Y-59593466D01*
X137083333Y-59593466D02*
X137045238Y-59707752D01*
X137045238Y-59707752D02*
X136588095Y-60164895D01*
X136588095Y-60164895D02*
X137083333Y-60164895D01*
X180835714Y-62714895D02*
X180569047Y-62333942D01*
X180378571Y-62714895D02*
X180378571Y-61914895D01*
X180378571Y-61914895D02*
X180683333Y-61914895D01*
X180683333Y-61914895D02*
X180759523Y-61952990D01*
X180759523Y-61952990D02*
X180797618Y-61991085D01*
X180797618Y-61991085D02*
X180835714Y-62067276D01*
X180835714Y-62067276D02*
X180835714Y-62181561D01*
X180835714Y-62181561D02*
X180797618Y-62257752D01*
X180797618Y-62257752D02*
X180759523Y-62295847D01*
X180759523Y-62295847D02*
X180683333Y-62333942D01*
X180683333Y-62333942D02*
X180378571Y-62333942D01*
X181140475Y-61991085D02*
X181178571Y-61952990D01*
X181178571Y-61952990D02*
X181254761Y-61914895D01*
X181254761Y-61914895D02*
X181445237Y-61914895D01*
X181445237Y-61914895D02*
X181521428Y-61952990D01*
X181521428Y-61952990D02*
X181559523Y-61991085D01*
X181559523Y-61991085D02*
X181597618Y-62067276D01*
X181597618Y-62067276D02*
X181597618Y-62143466D01*
X181597618Y-62143466D02*
X181559523Y-62257752D01*
X181559523Y-62257752D02*
X181102380Y-62714895D01*
X181102380Y-62714895D02*
X181597618Y-62714895D01*
X182283333Y-62181561D02*
X182283333Y-62714895D01*
X182092857Y-61876800D02*
X181902380Y-62448228D01*
X181902380Y-62448228D02*
X182397619Y-62448228D01*
X180765514Y-64423695D02*
X180498847Y-64042742D01*
X180308371Y-64423695D02*
X180308371Y-63623695D01*
X180308371Y-63623695D02*
X180613133Y-63623695D01*
X180613133Y-63623695D02*
X180689323Y-63661790D01*
X180689323Y-63661790D02*
X180727418Y-63699885D01*
X180727418Y-63699885D02*
X180765514Y-63776076D01*
X180765514Y-63776076D02*
X180765514Y-63890361D01*
X180765514Y-63890361D02*
X180727418Y-63966552D01*
X180727418Y-63966552D02*
X180689323Y-64004647D01*
X180689323Y-64004647D02*
X180613133Y-64042742D01*
X180613133Y-64042742D02*
X180308371Y-64042742D01*
X181070275Y-63699885D02*
X181108371Y-63661790D01*
X181108371Y-63661790D02*
X181184561Y-63623695D01*
X181184561Y-63623695D02*
X181375037Y-63623695D01*
X181375037Y-63623695D02*
X181451228Y-63661790D01*
X181451228Y-63661790D02*
X181489323Y-63699885D01*
X181489323Y-63699885D02*
X181527418Y-63776076D01*
X181527418Y-63776076D02*
X181527418Y-63852266D01*
X181527418Y-63852266D02*
X181489323Y-63966552D01*
X181489323Y-63966552D02*
X181032180Y-64423695D01*
X181032180Y-64423695D02*
X181527418Y-64423695D01*
X182251228Y-63623695D02*
X181870276Y-63623695D01*
X181870276Y-63623695D02*
X181832180Y-64004647D01*
X181832180Y-64004647D02*
X181870276Y-63966552D01*
X181870276Y-63966552D02*
X181946466Y-63928457D01*
X181946466Y-63928457D02*
X182136942Y-63928457D01*
X182136942Y-63928457D02*
X182213133Y-63966552D01*
X182213133Y-63966552D02*
X182251228Y-64004647D01*
X182251228Y-64004647D02*
X182289323Y-64080838D01*
X182289323Y-64080838D02*
X182289323Y-64271314D01*
X182289323Y-64271314D02*
X182251228Y-64347504D01*
X182251228Y-64347504D02*
X182213133Y-64385600D01*
X182213133Y-64385600D02*
X182136942Y-64423695D01*
X182136942Y-64423695D02*
X181946466Y-64423695D01*
X181946466Y-64423695D02*
X181870276Y-64385600D01*
X181870276Y-64385600D02*
X181832180Y-64347504D01*
X157009428Y-67060714D02*
X157038000Y-67089286D01*
X157038000Y-67089286D02*
X157066571Y-67175000D01*
X157066571Y-67175000D02*
X157066571Y-67232143D01*
X157066571Y-67232143D02*
X157038000Y-67317857D01*
X157038000Y-67317857D02*
X156980857Y-67375000D01*
X156980857Y-67375000D02*
X156923714Y-67403571D01*
X156923714Y-67403571D02*
X156809428Y-67432143D01*
X156809428Y-67432143D02*
X156723714Y-67432143D01*
X156723714Y-67432143D02*
X156609428Y-67403571D01*
X156609428Y-67403571D02*
X156552285Y-67375000D01*
X156552285Y-67375000D02*
X156495142Y-67317857D01*
X156495142Y-67317857D02*
X156466571Y-67232143D01*
X156466571Y-67232143D02*
X156466571Y-67175000D01*
X156466571Y-67175000D02*
X156495142Y-67089286D01*
X156495142Y-67089286D02*
X156523714Y-67060714D01*
X157066571Y-66489286D02*
X157066571Y-66832143D01*
X157066571Y-66660714D02*
X156466571Y-66660714D01*
X156466571Y-66660714D02*
X156552285Y-66717857D01*
X156552285Y-66717857D02*
X156609428Y-66775000D01*
X156609428Y-66775000D02*
X156638000Y-66832143D01*
X156466571Y-66289285D02*
X156466571Y-65889285D01*
X156466571Y-65889285D02*
X157066571Y-66146428D01*
X144875267Y-59623104D02*
X144837171Y-59661200D01*
X144837171Y-59661200D02*
X144722886Y-59699295D01*
X144722886Y-59699295D02*
X144646695Y-59699295D01*
X144646695Y-59699295D02*
X144532409Y-59661200D01*
X144532409Y-59661200D02*
X144456219Y-59585009D01*
X144456219Y-59585009D02*
X144418124Y-59508819D01*
X144418124Y-59508819D02*
X144380028Y-59356438D01*
X144380028Y-59356438D02*
X144380028Y-59242152D01*
X144380028Y-59242152D02*
X144418124Y-59089771D01*
X144418124Y-59089771D02*
X144456219Y-59013580D01*
X144456219Y-59013580D02*
X144532409Y-58937390D01*
X144532409Y-58937390D02*
X144646695Y-58899295D01*
X144646695Y-58899295D02*
X144722886Y-58899295D01*
X144722886Y-58899295D02*
X144837171Y-58937390D01*
X144837171Y-58937390D02*
X144875267Y-58975485D01*
X145141933Y-58899295D02*
X145675267Y-58899295D01*
X145675267Y-58899295D02*
X145332409Y-59699295D01*
X173760714Y-74664895D02*
X173494047Y-74283942D01*
X173303571Y-74664895D02*
X173303571Y-73864895D01*
X173303571Y-73864895D02*
X173608333Y-73864895D01*
X173608333Y-73864895D02*
X173684523Y-73902990D01*
X173684523Y-73902990D02*
X173722618Y-73941085D01*
X173722618Y-73941085D02*
X173760714Y-74017276D01*
X173760714Y-74017276D02*
X173760714Y-74131561D01*
X173760714Y-74131561D02*
X173722618Y-74207752D01*
X173722618Y-74207752D02*
X173684523Y-74245847D01*
X173684523Y-74245847D02*
X173608333Y-74283942D01*
X173608333Y-74283942D02*
X173303571Y-74283942D01*
X174522618Y-74664895D02*
X174065475Y-74664895D01*
X174294047Y-74664895D02*
X174294047Y-73864895D01*
X174294047Y-73864895D02*
X174217856Y-73979180D01*
X174217856Y-73979180D02*
X174141666Y-74055371D01*
X174141666Y-74055371D02*
X174065475Y-74093466D01*
X174789285Y-73864895D02*
X175322619Y-73864895D01*
X175322619Y-73864895D02*
X174979761Y-74664895D01*
X163048810Y-83239895D02*
X162782143Y-82858942D01*
X162591667Y-83239895D02*
X162591667Y-82439895D01*
X162591667Y-82439895D02*
X162896429Y-82439895D01*
X162896429Y-82439895D02*
X162972619Y-82477990D01*
X162972619Y-82477990D02*
X163010714Y-82516085D01*
X163010714Y-82516085D02*
X163048810Y-82592276D01*
X163048810Y-82592276D02*
X163048810Y-82706561D01*
X163048810Y-82706561D02*
X163010714Y-82782752D01*
X163010714Y-82782752D02*
X162972619Y-82820847D01*
X162972619Y-82820847D02*
X162896429Y-82858942D01*
X162896429Y-82858942D02*
X162591667Y-82858942D01*
X163277381Y-82439895D02*
X163544048Y-83239895D01*
X163544048Y-83239895D02*
X163810714Y-82439895D01*
X164458333Y-82439895D02*
X164077381Y-82439895D01*
X164077381Y-82439895D02*
X164039285Y-82820847D01*
X164039285Y-82820847D02*
X164077381Y-82782752D01*
X164077381Y-82782752D02*
X164153571Y-82744657D01*
X164153571Y-82744657D02*
X164344047Y-82744657D01*
X164344047Y-82744657D02*
X164420238Y-82782752D01*
X164420238Y-82782752D02*
X164458333Y-82820847D01*
X164458333Y-82820847D02*
X164496428Y-82897038D01*
X164496428Y-82897038D02*
X164496428Y-83087514D01*
X164496428Y-83087514D02*
X164458333Y-83163704D01*
X164458333Y-83163704D02*
X164420238Y-83201800D01*
X164420238Y-83201800D02*
X164344047Y-83239895D01*
X164344047Y-83239895D02*
X164153571Y-83239895D01*
X164153571Y-83239895D02*
X164077381Y-83201800D01*
X164077381Y-83201800D02*
X164039285Y-83163704D01*
X156016104Y-73170685D02*
X156054200Y-73208781D01*
X156054200Y-73208781D02*
X156092295Y-73323066D01*
X156092295Y-73323066D02*
X156092295Y-73399257D01*
X156092295Y-73399257D02*
X156054200Y-73513543D01*
X156054200Y-73513543D02*
X155978009Y-73589733D01*
X155978009Y-73589733D02*
X155901819Y-73627828D01*
X155901819Y-73627828D02*
X155749438Y-73665924D01*
X155749438Y-73665924D02*
X155635152Y-73665924D01*
X155635152Y-73665924D02*
X155482771Y-73627828D01*
X155482771Y-73627828D02*
X155406580Y-73589733D01*
X155406580Y-73589733D02*
X155330390Y-73513543D01*
X155330390Y-73513543D02*
X155292295Y-73399257D01*
X155292295Y-73399257D02*
X155292295Y-73323066D01*
X155292295Y-73323066D02*
X155330390Y-73208781D01*
X155330390Y-73208781D02*
X155368485Y-73170685D01*
X156092295Y-72408781D02*
X156092295Y-72865924D01*
X156092295Y-72637352D02*
X155292295Y-72637352D01*
X155292295Y-72637352D02*
X155406580Y-72713543D01*
X155406580Y-72713543D02*
X155482771Y-72789733D01*
X155482771Y-72789733D02*
X155520866Y-72865924D01*
X155635152Y-71951638D02*
X155597057Y-72027828D01*
X155597057Y-72027828D02*
X155558961Y-72065923D01*
X155558961Y-72065923D02*
X155482771Y-72104019D01*
X155482771Y-72104019D02*
X155444676Y-72104019D01*
X155444676Y-72104019D02*
X155368485Y-72065923D01*
X155368485Y-72065923D02*
X155330390Y-72027828D01*
X155330390Y-72027828D02*
X155292295Y-71951638D01*
X155292295Y-71951638D02*
X155292295Y-71799257D01*
X155292295Y-71799257D02*
X155330390Y-71723066D01*
X155330390Y-71723066D02*
X155368485Y-71684971D01*
X155368485Y-71684971D02*
X155444676Y-71646876D01*
X155444676Y-71646876D02*
X155482771Y-71646876D01*
X155482771Y-71646876D02*
X155558961Y-71684971D01*
X155558961Y-71684971D02*
X155597057Y-71723066D01*
X155597057Y-71723066D02*
X155635152Y-71799257D01*
X155635152Y-71799257D02*
X155635152Y-71951638D01*
X155635152Y-71951638D02*
X155673247Y-72027828D01*
X155673247Y-72027828D02*
X155711342Y-72065923D01*
X155711342Y-72065923D02*
X155787533Y-72104019D01*
X155787533Y-72104019D02*
X155939914Y-72104019D01*
X155939914Y-72104019D02*
X156016104Y-72065923D01*
X156016104Y-72065923D02*
X156054200Y-72027828D01*
X156054200Y-72027828D02*
X156092295Y-71951638D01*
X156092295Y-71951638D02*
X156092295Y-71799257D01*
X156092295Y-71799257D02*
X156054200Y-71723066D01*
X156054200Y-71723066D02*
X156016104Y-71684971D01*
X156016104Y-71684971D02*
X155939914Y-71646876D01*
X155939914Y-71646876D02*
X155787533Y-71646876D01*
X155787533Y-71646876D02*
X155711342Y-71684971D01*
X155711342Y-71684971D02*
X155673247Y-71723066D01*
X155673247Y-71723066D02*
X155635152Y-71799257D01*
X129990914Y-76387104D02*
X129952818Y-76425200D01*
X129952818Y-76425200D02*
X129838533Y-76463295D01*
X129838533Y-76463295D02*
X129762342Y-76463295D01*
X129762342Y-76463295D02*
X129648056Y-76425200D01*
X129648056Y-76425200D02*
X129571866Y-76349009D01*
X129571866Y-76349009D02*
X129533771Y-76272819D01*
X129533771Y-76272819D02*
X129495675Y-76120438D01*
X129495675Y-76120438D02*
X129495675Y-76006152D01*
X129495675Y-76006152D02*
X129533771Y-75853771D01*
X129533771Y-75853771D02*
X129571866Y-75777580D01*
X129571866Y-75777580D02*
X129648056Y-75701390D01*
X129648056Y-75701390D02*
X129762342Y-75663295D01*
X129762342Y-75663295D02*
X129838533Y-75663295D01*
X129838533Y-75663295D02*
X129952818Y-75701390D01*
X129952818Y-75701390D02*
X129990914Y-75739485D01*
X130752818Y-76463295D02*
X130295675Y-76463295D01*
X130524247Y-76463295D02*
X130524247Y-75663295D01*
X130524247Y-75663295D02*
X130448056Y-75777580D01*
X130448056Y-75777580D02*
X130371866Y-75853771D01*
X130371866Y-75853771D02*
X130295675Y-75891866D01*
X131248057Y-75663295D02*
X131324247Y-75663295D01*
X131324247Y-75663295D02*
X131400438Y-75701390D01*
X131400438Y-75701390D02*
X131438533Y-75739485D01*
X131438533Y-75739485D02*
X131476628Y-75815676D01*
X131476628Y-75815676D02*
X131514723Y-75968057D01*
X131514723Y-75968057D02*
X131514723Y-76158533D01*
X131514723Y-76158533D02*
X131476628Y-76310914D01*
X131476628Y-76310914D02*
X131438533Y-76387104D01*
X131438533Y-76387104D02*
X131400438Y-76425200D01*
X131400438Y-76425200D02*
X131324247Y-76463295D01*
X131324247Y-76463295D02*
X131248057Y-76463295D01*
X131248057Y-76463295D02*
X131171866Y-76425200D01*
X131171866Y-76425200D02*
X131133771Y-76387104D01*
X131133771Y-76387104D02*
X131095676Y-76310914D01*
X131095676Y-76310914D02*
X131057580Y-76158533D01*
X131057580Y-76158533D02*
X131057580Y-75968057D01*
X131057580Y-75968057D02*
X131095676Y-75815676D01*
X131095676Y-75815676D02*
X131133771Y-75739485D01*
X131133771Y-75739485D02*
X131171866Y-75701390D01*
X131171866Y-75701390D02*
X131248057Y-75663295D01*
X108735714Y-68938704D02*
X108697618Y-68976800D01*
X108697618Y-68976800D02*
X108583333Y-69014895D01*
X108583333Y-69014895D02*
X108507142Y-69014895D01*
X108507142Y-69014895D02*
X108392856Y-68976800D01*
X108392856Y-68976800D02*
X108316666Y-68900609D01*
X108316666Y-68900609D02*
X108278571Y-68824419D01*
X108278571Y-68824419D02*
X108240475Y-68672038D01*
X108240475Y-68672038D02*
X108240475Y-68557752D01*
X108240475Y-68557752D02*
X108278571Y-68405371D01*
X108278571Y-68405371D02*
X108316666Y-68329180D01*
X108316666Y-68329180D02*
X108392856Y-68252990D01*
X108392856Y-68252990D02*
X108507142Y-68214895D01*
X108507142Y-68214895D02*
X108583333Y-68214895D01*
X108583333Y-68214895D02*
X108697618Y-68252990D01*
X108697618Y-68252990D02*
X108735714Y-68291085D01*
X109497618Y-69014895D02*
X109040475Y-69014895D01*
X109269047Y-69014895D02*
X109269047Y-68214895D01*
X109269047Y-68214895D02*
X109192856Y-68329180D01*
X109192856Y-68329180D02*
X109116666Y-68405371D01*
X109116666Y-68405371D02*
X109040475Y-68443466D01*
X110183333Y-68481561D02*
X110183333Y-69014895D01*
X109992857Y-68176800D02*
X109802380Y-68748228D01*
X109802380Y-68748228D02*
X110297619Y-68748228D01*
X149091667Y-65134895D02*
X148825000Y-64753942D01*
X148634524Y-65134895D02*
X148634524Y-64334895D01*
X148634524Y-64334895D02*
X148939286Y-64334895D01*
X148939286Y-64334895D02*
X149015476Y-64372990D01*
X149015476Y-64372990D02*
X149053571Y-64411085D01*
X149053571Y-64411085D02*
X149091667Y-64487276D01*
X149091667Y-64487276D02*
X149091667Y-64601561D01*
X149091667Y-64601561D02*
X149053571Y-64677752D01*
X149053571Y-64677752D02*
X149015476Y-64715847D01*
X149015476Y-64715847D02*
X148939286Y-64753942D01*
X148939286Y-64753942D02*
X148634524Y-64753942D01*
X149548809Y-64677752D02*
X149472619Y-64639657D01*
X149472619Y-64639657D02*
X149434524Y-64601561D01*
X149434524Y-64601561D02*
X149396428Y-64525371D01*
X149396428Y-64525371D02*
X149396428Y-64487276D01*
X149396428Y-64487276D02*
X149434524Y-64411085D01*
X149434524Y-64411085D02*
X149472619Y-64372990D01*
X149472619Y-64372990D02*
X149548809Y-64334895D01*
X149548809Y-64334895D02*
X149701190Y-64334895D01*
X149701190Y-64334895D02*
X149777381Y-64372990D01*
X149777381Y-64372990D02*
X149815476Y-64411085D01*
X149815476Y-64411085D02*
X149853571Y-64487276D01*
X149853571Y-64487276D02*
X149853571Y-64525371D01*
X149853571Y-64525371D02*
X149815476Y-64601561D01*
X149815476Y-64601561D02*
X149777381Y-64639657D01*
X149777381Y-64639657D02*
X149701190Y-64677752D01*
X149701190Y-64677752D02*
X149548809Y-64677752D01*
X149548809Y-64677752D02*
X149472619Y-64715847D01*
X149472619Y-64715847D02*
X149434524Y-64753942D01*
X149434524Y-64753942D02*
X149396428Y-64830133D01*
X149396428Y-64830133D02*
X149396428Y-64982514D01*
X149396428Y-64982514D02*
X149434524Y-65058704D01*
X149434524Y-65058704D02*
X149472619Y-65096800D01*
X149472619Y-65096800D02*
X149548809Y-65134895D01*
X149548809Y-65134895D02*
X149701190Y-65134895D01*
X149701190Y-65134895D02*
X149777381Y-65096800D01*
X149777381Y-65096800D02*
X149815476Y-65058704D01*
X149815476Y-65058704D02*
X149853571Y-64982514D01*
X149853571Y-64982514D02*
X149853571Y-64830133D01*
X149853571Y-64830133D02*
X149815476Y-64753942D01*
X149815476Y-64753942D02*
X149777381Y-64715847D01*
X149777381Y-64715847D02*
X149701190Y-64677752D01*
X176183333Y-86514895D02*
X176183333Y-87086323D01*
X176183333Y-87086323D02*
X176145238Y-87200609D01*
X176145238Y-87200609D02*
X176069047Y-87276800D01*
X176069047Y-87276800D02*
X175954762Y-87314895D01*
X175954762Y-87314895D02*
X175878571Y-87314895D01*
X176907143Y-86781561D02*
X176907143Y-87314895D01*
X176716667Y-86476800D02*
X176526190Y-87048228D01*
X176526190Y-87048228D02*
X177021429Y-87048228D01*
X160699514Y-78825495D02*
X160432847Y-78444542D01*
X160242371Y-78825495D02*
X160242371Y-78025495D01*
X160242371Y-78025495D02*
X160547133Y-78025495D01*
X160547133Y-78025495D02*
X160623323Y-78063590D01*
X160623323Y-78063590D02*
X160661418Y-78101685D01*
X160661418Y-78101685D02*
X160699514Y-78177876D01*
X160699514Y-78177876D02*
X160699514Y-78292161D01*
X160699514Y-78292161D02*
X160661418Y-78368352D01*
X160661418Y-78368352D02*
X160623323Y-78406447D01*
X160623323Y-78406447D02*
X160547133Y-78444542D01*
X160547133Y-78444542D02*
X160242371Y-78444542D01*
X160966180Y-78025495D02*
X161461418Y-78025495D01*
X161461418Y-78025495D02*
X161194752Y-78330257D01*
X161194752Y-78330257D02*
X161309037Y-78330257D01*
X161309037Y-78330257D02*
X161385228Y-78368352D01*
X161385228Y-78368352D02*
X161423323Y-78406447D01*
X161423323Y-78406447D02*
X161461418Y-78482638D01*
X161461418Y-78482638D02*
X161461418Y-78673114D01*
X161461418Y-78673114D02*
X161423323Y-78749304D01*
X161423323Y-78749304D02*
X161385228Y-78787400D01*
X161385228Y-78787400D02*
X161309037Y-78825495D01*
X161309037Y-78825495D02*
X161080466Y-78825495D01*
X161080466Y-78825495D02*
X161004275Y-78787400D01*
X161004275Y-78787400D02*
X160966180Y-78749304D01*
X161956657Y-78025495D02*
X162032847Y-78025495D01*
X162032847Y-78025495D02*
X162109038Y-78063590D01*
X162109038Y-78063590D02*
X162147133Y-78101685D01*
X162147133Y-78101685D02*
X162185228Y-78177876D01*
X162185228Y-78177876D02*
X162223323Y-78330257D01*
X162223323Y-78330257D02*
X162223323Y-78520733D01*
X162223323Y-78520733D02*
X162185228Y-78673114D01*
X162185228Y-78673114D02*
X162147133Y-78749304D01*
X162147133Y-78749304D02*
X162109038Y-78787400D01*
X162109038Y-78787400D02*
X162032847Y-78825495D01*
X162032847Y-78825495D02*
X161956657Y-78825495D01*
X161956657Y-78825495D02*
X161880466Y-78787400D01*
X161880466Y-78787400D02*
X161842371Y-78749304D01*
X161842371Y-78749304D02*
X161804276Y-78673114D01*
X161804276Y-78673114D02*
X161766180Y-78520733D01*
X161766180Y-78520733D02*
X161766180Y-78330257D01*
X161766180Y-78330257D02*
X161804276Y-78177876D01*
X161804276Y-78177876D02*
X161842371Y-78101685D01*
X161842371Y-78101685D02*
X161880466Y-78063590D01*
X161880466Y-78063590D02*
X161956657Y-78025495D01*
X127762514Y-79080304D02*
X127724418Y-79118400D01*
X127724418Y-79118400D02*
X127610133Y-79156495D01*
X127610133Y-79156495D02*
X127533942Y-79156495D01*
X127533942Y-79156495D02*
X127419656Y-79118400D01*
X127419656Y-79118400D02*
X127343466Y-79042209D01*
X127343466Y-79042209D02*
X127305371Y-78966019D01*
X127305371Y-78966019D02*
X127267275Y-78813638D01*
X127267275Y-78813638D02*
X127267275Y-78699352D01*
X127267275Y-78699352D02*
X127305371Y-78546971D01*
X127305371Y-78546971D02*
X127343466Y-78470780D01*
X127343466Y-78470780D02*
X127419656Y-78394590D01*
X127419656Y-78394590D02*
X127533942Y-78356495D01*
X127533942Y-78356495D02*
X127610133Y-78356495D01*
X127610133Y-78356495D02*
X127724418Y-78394590D01*
X127724418Y-78394590D02*
X127762514Y-78432685D01*
X128524418Y-79156495D02*
X128067275Y-79156495D01*
X128295847Y-79156495D02*
X128295847Y-78356495D01*
X128295847Y-78356495D02*
X128219656Y-78470780D01*
X128219656Y-78470780D02*
X128143466Y-78546971D01*
X128143466Y-78546971D02*
X128067275Y-78585066D01*
X129286323Y-79156495D02*
X128829180Y-79156495D01*
X129057752Y-79156495D02*
X129057752Y-78356495D01*
X129057752Y-78356495D02*
X128981561Y-78470780D01*
X128981561Y-78470780D02*
X128905371Y-78546971D01*
X128905371Y-78546971D02*
X128829180Y-78585066D01*
X173551914Y-77809495D02*
X173285247Y-77428542D01*
X173094771Y-77809495D02*
X173094771Y-77009495D01*
X173094771Y-77009495D02*
X173399533Y-77009495D01*
X173399533Y-77009495D02*
X173475723Y-77047590D01*
X173475723Y-77047590D02*
X173513818Y-77085685D01*
X173513818Y-77085685D02*
X173551914Y-77161876D01*
X173551914Y-77161876D02*
X173551914Y-77276161D01*
X173551914Y-77276161D02*
X173513818Y-77352352D01*
X173513818Y-77352352D02*
X173475723Y-77390447D01*
X173475723Y-77390447D02*
X173399533Y-77428542D01*
X173399533Y-77428542D02*
X173094771Y-77428542D01*
X173856675Y-77085685D02*
X173894771Y-77047590D01*
X173894771Y-77047590D02*
X173970961Y-77009495D01*
X173970961Y-77009495D02*
X174161437Y-77009495D01*
X174161437Y-77009495D02*
X174237628Y-77047590D01*
X174237628Y-77047590D02*
X174275723Y-77085685D01*
X174275723Y-77085685D02*
X174313818Y-77161876D01*
X174313818Y-77161876D02*
X174313818Y-77238066D01*
X174313818Y-77238066D02*
X174275723Y-77352352D01*
X174275723Y-77352352D02*
X173818580Y-77809495D01*
X173818580Y-77809495D02*
X174313818Y-77809495D01*
X174580485Y-77009495D02*
X175075723Y-77009495D01*
X175075723Y-77009495D02*
X174809057Y-77314257D01*
X174809057Y-77314257D02*
X174923342Y-77314257D01*
X174923342Y-77314257D02*
X174999533Y-77352352D01*
X174999533Y-77352352D02*
X175037628Y-77390447D01*
X175037628Y-77390447D02*
X175075723Y-77466638D01*
X175075723Y-77466638D02*
X175075723Y-77657114D01*
X175075723Y-77657114D02*
X175037628Y-77733304D01*
X175037628Y-77733304D02*
X174999533Y-77771400D01*
X174999533Y-77771400D02*
X174923342Y-77809495D01*
X174923342Y-77809495D02*
X174694771Y-77809495D01*
X174694771Y-77809495D02*
X174618580Y-77771400D01*
X174618580Y-77771400D02*
X174580485Y-77733304D01*
X146932667Y-72450095D02*
X146666000Y-72069142D01*
X146475524Y-72450095D02*
X146475524Y-71650095D01*
X146475524Y-71650095D02*
X146780286Y-71650095D01*
X146780286Y-71650095D02*
X146856476Y-71688190D01*
X146856476Y-71688190D02*
X146894571Y-71726285D01*
X146894571Y-71726285D02*
X146932667Y-71802476D01*
X146932667Y-71802476D02*
X146932667Y-71916761D01*
X146932667Y-71916761D02*
X146894571Y-71992952D01*
X146894571Y-71992952D02*
X146856476Y-72031047D01*
X146856476Y-72031047D02*
X146780286Y-72069142D01*
X146780286Y-72069142D02*
X146475524Y-72069142D01*
X147237428Y-71726285D02*
X147275524Y-71688190D01*
X147275524Y-71688190D02*
X147351714Y-71650095D01*
X147351714Y-71650095D02*
X147542190Y-71650095D01*
X147542190Y-71650095D02*
X147618381Y-71688190D01*
X147618381Y-71688190D02*
X147656476Y-71726285D01*
X147656476Y-71726285D02*
X147694571Y-71802476D01*
X147694571Y-71802476D02*
X147694571Y-71878666D01*
X147694571Y-71878666D02*
X147656476Y-71992952D01*
X147656476Y-71992952D02*
X147199333Y-72450095D01*
X147199333Y-72450095D02*
X147694571Y-72450095D01*
X169501010Y-60611095D02*
X169234343Y-60230142D01*
X169043867Y-60611095D02*
X169043867Y-59811095D01*
X169043867Y-59811095D02*
X169348629Y-59811095D01*
X169348629Y-59811095D02*
X169424819Y-59849190D01*
X169424819Y-59849190D02*
X169462914Y-59887285D01*
X169462914Y-59887285D02*
X169501010Y-59963476D01*
X169501010Y-59963476D02*
X169501010Y-60077761D01*
X169501010Y-60077761D02*
X169462914Y-60153952D01*
X169462914Y-60153952D02*
X169424819Y-60192047D01*
X169424819Y-60192047D02*
X169348629Y-60230142D01*
X169348629Y-60230142D02*
X169043867Y-60230142D01*
X169729581Y-59811095D02*
X169996248Y-60611095D01*
X169996248Y-60611095D02*
X170262914Y-59811095D01*
X170491485Y-59887285D02*
X170529581Y-59849190D01*
X170529581Y-59849190D02*
X170605771Y-59811095D01*
X170605771Y-59811095D02*
X170796247Y-59811095D01*
X170796247Y-59811095D02*
X170872438Y-59849190D01*
X170872438Y-59849190D02*
X170910533Y-59887285D01*
X170910533Y-59887285D02*
X170948628Y-59963476D01*
X170948628Y-59963476D02*
X170948628Y-60039666D01*
X170948628Y-60039666D02*
X170910533Y-60153952D01*
X170910533Y-60153952D02*
X170453390Y-60611095D01*
X170453390Y-60611095D02*
X170948628Y-60611095D01*
D12*
%TO.C,R31*%
X153737542Y-75550500D02*
X154212058Y-75550500D01*
X153737542Y-76595500D02*
X154212058Y-76595500D01*
%TO.C,R20*%
X174278058Y-60361300D02*
X173803542Y-60361300D01*
X174278058Y-61406300D02*
X173803542Y-61406300D01*
D13*
%TO.C,IC1*%
X115498000Y-74298400D02*
X119198000Y-74298400D01*
X115498000Y-77898400D02*
X115498000Y-74298400D01*
X119198000Y-74298400D02*
X119198000Y-77898400D01*
X119198000Y-77898400D02*
X115498000Y-77898400D01*
X121298000Y-78043400D02*
X119548000Y-78043400D01*
D12*
%TO.C,JP1*%
X130216400Y-61490400D02*
X132216400Y-61490400D01*
X130216400Y-64290400D02*
X130216400Y-61490400D01*
X132216400Y-61490400D02*
X132216400Y-64290400D01*
X132216400Y-64290400D02*
X130216400Y-64290400D01*
%TO.C,C15*%
X155319000Y-60948180D02*
X155319000Y-60667020D01*
X156339000Y-60948180D02*
X156339000Y-60667020D01*
%TO.C,C3*%
X149719420Y-75994800D02*
X150000580Y-75994800D01*
X149719420Y-77014800D02*
X150000580Y-77014800D01*
%TO.C,C8*%
X143217020Y-79195200D02*
X143498180Y-79195200D01*
X143217020Y-80215200D02*
X143498180Y-80215200D01*
%TO.C,R22*%
X174291258Y-72223100D02*
X173816742Y-72223100D01*
X174291258Y-73268100D02*
X173816742Y-73268100D01*
%TO.C,R3*%
X141677500Y-70612742D02*
X141677500Y-71087258D01*
X142722500Y-70612742D02*
X142722500Y-71087258D01*
%TO.C,Q1*%
X152414800Y-78005400D02*
X152464800Y-78005400D01*
X152414800Y-79525400D02*
X152414800Y-78005400D01*
X153414800Y-79525400D02*
X152414800Y-79525400D01*
X153584800Y-78005400D02*
X154364800Y-78005400D01*
X155484800Y-78005400D02*
X155534800Y-78005400D01*
X155534800Y-78005400D02*
X155534800Y-79525400D01*
X155534800Y-79525400D02*
X154534800Y-79525400D01*
X154354800Y-77465400D02*
X154024800Y-77705400D01*
X154024800Y-77225400D01*
X154354800Y-77465400D01*
G36*
X154354800Y-77465400D02*
G01*
X154024800Y-77705400D01*
X154024800Y-77225400D01*
X154354800Y-77465400D01*
G37*
D14*
%TO.C,CR3*%
X175793400Y-65544700D02*
X175793400Y-70396100D01*
X175793400Y-70396100D02*
X176438560Y-70396100D01*
X176438560Y-65544700D02*
X175793400Y-65544700D01*
X178653100Y-67189400D02*
X179923100Y-67189400D01*
X179256350Y-67939400D02*
X178621350Y-68701400D01*
X179256350Y-67939400D02*
X178748350Y-68701400D01*
X179256350Y-67939400D02*
X178875350Y-68701400D01*
X179256350Y-67939400D02*
X179042850Y-68701400D01*
X179256350Y-67939400D02*
X179192850Y-68701400D01*
X179256350Y-67939400D02*
X179383350Y-68701400D01*
X179256350Y-67939400D02*
X179510350Y-68701400D01*
X179256350Y-67939400D02*
X179637350Y-68701400D01*
X179256350Y-67939400D02*
X179764350Y-68701400D01*
X179256350Y-67939400D02*
X179891350Y-68701400D01*
X179274600Y-66920400D02*
X179274600Y-68190400D01*
X179274600Y-68920400D02*
X179274600Y-67650400D01*
X179288100Y-67951400D02*
X178653100Y-67189400D01*
X179288100Y-67951400D02*
X178780100Y-67189400D01*
X179288100Y-67951400D02*
X178974600Y-67189400D01*
X179288100Y-67951400D02*
X179124600Y-67189400D01*
X179288100Y-67951400D02*
X179415100Y-67189400D01*
X179288100Y-67951400D02*
X179542100Y-67189400D01*
X179288100Y-67951400D02*
X179669100Y-67189400D01*
X179288100Y-67951400D02*
X179796100Y-67189400D01*
X179288100Y-67951400D02*
X179923100Y-67189400D01*
X179364640Y-70396100D02*
X180009800Y-70396100D01*
X179873100Y-67989400D02*
X178603100Y-67989400D01*
X179891350Y-68701400D02*
X178621350Y-68701400D01*
X180009800Y-65544700D02*
X179364640Y-65544700D01*
X180009800Y-70396100D02*
X180009800Y-65544700D01*
D12*
%TO.C,C21*%
X120890580Y-62915600D02*
X120609420Y-62915600D01*
X120890580Y-63935600D02*
X120609420Y-63935600D01*
D11*
%TO.C,U4*%
X151537000Y-64338800D02*
X151762000Y-64338800D01*
X151537000Y-67588800D02*
X151537000Y-64338800D01*
X151537000Y-67588800D02*
X151762000Y-67588800D01*
X154787000Y-64338800D02*
X154562000Y-64338800D01*
X154787000Y-67588800D02*
X154562000Y-67588800D01*
X154787000Y-67588800D02*
X154787000Y-64338800D01*
D12*
X151762000Y-68063800D02*
X151432000Y-68303800D01*
X151432000Y-67823800D01*
X151762000Y-68063800D01*
G36*
X151762000Y-68063800D02*
G01*
X151432000Y-68303800D01*
X151432000Y-67823800D01*
X151762000Y-68063800D01*
G37*
%TO.C,D3*%
X130740000Y-71964000D02*
X130740000Y-72120000D01*
X130740000Y-74280000D02*
X130740000Y-74436000D01*
X130740000Y-71964484D02*
G75*
G02*
X133971437Y-72120000I1560000J-1235516D01*
G01*
X131259039Y-72120000D02*
G75*
G02*
X133340961Y-72120000I1040961J-1080000D01*
G01*
X133340961Y-74280000D02*
G75*
G02*
X131259039Y-74280000I-1040961J1080000D01*
G01*
X133971437Y-74280000D02*
G75*
G02*
X130740000Y-74435516I-1671437J1080000D01*
G01*
%TO.C,R7*%
X148936942Y-60310500D02*
X149411458Y-60310500D01*
X148936942Y-61355500D02*
X149411458Y-61355500D01*
%TO.C,R5*%
X142936700Y-81804742D02*
X142936700Y-82279258D01*
X143981700Y-81804742D02*
X143981700Y-82279258D01*
%TO.C,J10*%
X118695000Y-56370000D02*
X120075000Y-56370000D01*
X118695000Y-57750000D02*
X118695000Y-56370000D01*
X118695000Y-59020000D02*
X118695000Y-59130000D01*
X118695000Y-59020000D02*
X121455000Y-59020000D01*
X118695000Y-59130000D02*
X121455000Y-59130000D01*
X121455000Y-59020000D02*
X121455000Y-59130000D01*
%TO.C,J1*%
X157191400Y-83947000D02*
X157191400Y-61027000D01*
X157191400Y-86547000D02*
X157191400Y-85217000D01*
X158521400Y-86547000D02*
X157191400Y-86547000D01*
X159851400Y-61027000D02*
X157191400Y-61027000D01*
X159851400Y-83947000D02*
X157191400Y-83947000D01*
X159851400Y-83947000D02*
X159851400Y-61027000D01*
D14*
%TO.C,CR4*%
X175793400Y-72580500D02*
X175793400Y-77431900D01*
X175793400Y-77431900D02*
X176438560Y-77431900D01*
X176438560Y-72580500D02*
X175793400Y-72580500D01*
X178653100Y-74225200D02*
X179923100Y-74225200D01*
X179256350Y-74975200D02*
X178621350Y-75737200D01*
X179256350Y-74975200D02*
X178748350Y-75737200D01*
X179256350Y-74975200D02*
X178875350Y-75737200D01*
X179256350Y-74975200D02*
X179042850Y-75737200D01*
X179256350Y-74975200D02*
X179192850Y-75737200D01*
X179256350Y-74975200D02*
X179383350Y-75737200D01*
X179256350Y-74975200D02*
X179510350Y-75737200D01*
X179256350Y-74975200D02*
X179637350Y-75737200D01*
X179256350Y-74975200D02*
X179764350Y-75737200D01*
X179256350Y-74975200D02*
X179891350Y-75737200D01*
X179274600Y-73956200D02*
X179274600Y-75226200D01*
X179274600Y-75956200D02*
X179274600Y-74686200D01*
X179288100Y-74987200D02*
X178653100Y-74225200D01*
X179288100Y-74987200D02*
X178780100Y-74225200D01*
X179288100Y-74987200D02*
X178974600Y-74225200D01*
X179288100Y-74987200D02*
X179124600Y-74225200D01*
X179288100Y-74987200D02*
X179415100Y-74225200D01*
X179288100Y-74987200D02*
X179542100Y-74225200D01*
X179288100Y-74987200D02*
X179669100Y-74225200D01*
X179288100Y-74987200D02*
X179796100Y-74225200D01*
X179288100Y-74987200D02*
X179923100Y-74225200D01*
X179364640Y-77431900D02*
X180009800Y-77431900D01*
X179873100Y-75025200D02*
X178603100Y-75025200D01*
X179891350Y-75737200D02*
X178621350Y-75737200D01*
X180009800Y-72580500D02*
X179364640Y-72580500D01*
X180009800Y-77431900D02*
X180009800Y-72580500D01*
D12*
%TO.C,C6*%
X142949200Y-85179780D02*
X142949200Y-84898620D01*
X143969200Y-85179780D02*
X143969200Y-84898620D01*
%TO.C,R11*%
X160716700Y-61705258D02*
X160716700Y-61230742D01*
X161761700Y-61705258D02*
X161761700Y-61230742D01*
%TO.C,R19*%
X110962742Y-74177500D02*
X111437258Y-74177500D01*
X110962742Y-75222500D02*
X111437258Y-75222500D01*
%TO.C,C13*%
X153300820Y-61516800D02*
X153581980Y-61516800D01*
X153300820Y-62536800D02*
X153581980Y-62536800D01*
%TO.C,C16*%
X155319000Y-63689620D02*
X155319000Y-63970780D01*
X156339000Y-63689620D02*
X156339000Y-63970780D01*
%TO.C,R13*%
X160716700Y-68563258D02*
X160716700Y-68088742D01*
X161761700Y-68563258D02*
X161761700Y-68088742D01*
D13*
%TO.C,J6*%
X182660000Y-57277000D02*
X182660000Y-72517000D01*
X182660000Y-72517000D02*
X192820000Y-72517000D01*
D10*
X187960000Y-56617000D02*
X187960000Y-56617000D01*
X187960000Y-56717000D02*
X187960000Y-56717000D01*
D13*
X192760000Y-57277000D02*
X182660000Y-57277000D01*
X192820000Y-72517000D02*
X192760000Y-57277000D01*
D10*
X187960000Y-56617000D02*
G75*
G02*
X187960000Y-56717000I0J-50000D01*
G01*
X187960000Y-56717000D02*
G75*
G02*
X187960000Y-56617000I0J50000D01*
G01*
D12*
%TO.C,R15*%
X173778142Y-62977500D02*
X174252658Y-62977500D01*
X173778142Y-64022500D02*
X174252658Y-64022500D01*
%TO.C,R27*%
X180503300Y-80585542D02*
X180503300Y-81060058D01*
X181548300Y-80585542D02*
X181548300Y-81060058D01*
%TO.C,C9*%
X163265000Y-84715580D02*
X163265000Y-84434420D01*
X164285000Y-84715580D02*
X164285000Y-84434420D01*
D14*
%TO.C,CR2*%
X175793400Y-58496200D02*
X175793400Y-63347600D01*
X175793400Y-63347600D02*
X176438560Y-63347600D01*
X176438560Y-58496200D02*
X175793400Y-58496200D01*
X178653100Y-60140900D02*
X179923100Y-60140900D01*
X179256350Y-60890900D02*
X178621350Y-61652900D01*
X179256350Y-60890900D02*
X178748350Y-61652900D01*
X179256350Y-60890900D02*
X178875350Y-61652900D01*
X179256350Y-60890900D02*
X179042850Y-61652900D01*
X179256350Y-60890900D02*
X179192850Y-61652900D01*
X179256350Y-60890900D02*
X179383350Y-61652900D01*
X179256350Y-60890900D02*
X179510350Y-61652900D01*
X179256350Y-60890900D02*
X179637350Y-61652900D01*
X179256350Y-60890900D02*
X179764350Y-61652900D01*
X179256350Y-60890900D02*
X179891350Y-61652900D01*
X179274600Y-59871900D02*
X179274600Y-61141900D01*
X179274600Y-61871900D02*
X179274600Y-60601900D01*
X179288100Y-60902900D02*
X178653100Y-60140900D01*
X179288100Y-60902900D02*
X178780100Y-60140900D01*
X179288100Y-60902900D02*
X178974600Y-60140900D01*
X179288100Y-60902900D02*
X179124600Y-60140900D01*
X179288100Y-60902900D02*
X179415100Y-60140900D01*
X179288100Y-60902900D02*
X179542100Y-60140900D01*
X179288100Y-60902900D02*
X179669100Y-60140900D01*
X179288100Y-60902900D02*
X179796100Y-60140900D01*
X179288100Y-60902900D02*
X179923100Y-60140900D01*
X179364640Y-63347600D02*
X180009800Y-63347600D01*
X179873100Y-60940900D02*
X178603100Y-60940900D01*
X179891350Y-61652900D02*
X178621350Y-61652900D01*
X180009800Y-58496200D02*
X179364640Y-58496200D01*
X180009800Y-63347600D02*
X180009800Y-58496200D01*
D12*
%TO.C,C5*%
X144609420Y-69940000D02*
X144890580Y-69940000D01*
X144609420Y-70960000D02*
X144890580Y-70960000D01*
%TO.C,D4*%
X129810000Y-61150000D02*
X124300000Y-61150000D01*
X129810000Y-64450000D02*
X124300000Y-64450000D01*
X129810000Y-64450000D02*
X129810000Y-61150000D01*
%TO.C,C2*%
X152414000Y-81562000D02*
X152414000Y-85782000D01*
X152414000Y-85782000D02*
X155434000Y-85782000D01*
X155434000Y-85782000D02*
X155434000Y-81562000D01*
D13*
%TO.C,J7*%
X182660000Y-72466200D02*
X182660000Y-87706200D01*
X182660000Y-87706200D02*
X192820000Y-87706200D01*
D10*
X187960000Y-71806200D02*
X187960000Y-71806200D01*
X187960000Y-71906200D02*
X187960000Y-71906200D01*
D13*
X192760000Y-72466200D02*
X182660000Y-72466200D01*
X192820000Y-87706200D02*
X192760000Y-72466200D01*
D10*
X187960000Y-71806200D02*
G75*
G02*
X187960000Y-71906200I0J-50000D01*
G01*
X187960000Y-71906200D02*
G75*
G02*
X187960000Y-71806200I0J50000D01*
G01*
D12*
%TO.C,U3*%
X129427500Y-81750000D02*
X129427500Y-85510000D01*
X129427500Y-85510000D02*
X130687500Y-85510000D01*
X136247500Y-81750000D02*
X136247500Y-85510000D01*
X136247500Y-85510000D02*
X134987500Y-85510000D01*
X136477500Y-80710000D02*
X136147500Y-80470000D01*
X136477500Y-80230000D01*
X136477500Y-80710000D01*
G36*
X136477500Y-80710000D02*
G01*
X136147500Y-80470000D01*
X136477500Y-80230000D01*
X136477500Y-80710000D01*
G37*
%TO.C,U2*%
X142234200Y-63116400D02*
X142329200Y-63116400D01*
X142234200Y-67236400D02*
X142234200Y-63116400D01*
X142329200Y-67236400D02*
X142234200Y-67236400D01*
X147259200Y-63116400D02*
X147354200Y-63116400D01*
X147354200Y-63116400D02*
X147354200Y-67236400D01*
X147354200Y-67236400D02*
X147259200Y-67236400D01*
X142324200Y-67776400D02*
X141994200Y-68016400D01*
X141994200Y-67536400D01*
X142324200Y-67776400D01*
G36*
X142324200Y-67776400D02*
G01*
X141994200Y-68016400D01*
X141994200Y-67536400D01*
X142324200Y-67776400D01*
G37*
%TO.C,R16*%
X173778142Y-68971900D02*
X174252658Y-68971900D01*
X173778142Y-70016900D02*
X174252658Y-70016900D01*
%TO.C,R14*%
X160716700Y-72068458D02*
X160716700Y-71593942D01*
X161761700Y-72068458D02*
X161761700Y-71593942D01*
%TO.C,J3*%
X135580000Y-72530000D02*
X135580000Y-67230000D01*
X138230000Y-69880000D02*
X138230000Y-72530000D01*
X138230000Y-72530000D02*
X135580000Y-72530000D01*
X140880000Y-67230000D02*
X135580000Y-67230000D01*
X140880000Y-69880000D02*
X138230000Y-69880000D01*
X140880000Y-69880000D02*
X140880000Y-67230000D01*
X140880000Y-71150000D02*
X140880000Y-72530000D01*
X140880000Y-72530000D02*
X139500000Y-72530000D01*
D13*
%TO.C,J8*%
X107128600Y-57150000D02*
X107128600Y-67370000D01*
X107128600Y-67310000D02*
X117288600Y-67310000D01*
D10*
X111988600Y-67870000D02*
X111988600Y-67870000D01*
X111988600Y-67970000D02*
X111988600Y-67970000D01*
D13*
X117288600Y-57150000D02*
X107128600Y-57150000D01*
X117288600Y-67310000D02*
X117288600Y-57150000D01*
D10*
X111988600Y-67870000D02*
G75*
G02*
X111988600Y-67970000I0J-50000D01*
G01*
X111988600Y-67970000D02*
G75*
G02*
X111988600Y-67870000I0J50000D01*
G01*
D12*
%TO.C,C19*%
X115715000Y-71711252D02*
X115715000Y-71188748D01*
X117185000Y-71711252D02*
X117185000Y-71188748D01*
%TO.C,R1*%
X133665700Y-68639458D02*
X133665700Y-68164942D01*
X134710700Y-68639458D02*
X134710700Y-68164942D01*
%TO.C,C1*%
X131290600Y-67120380D02*
X131290600Y-66839220D01*
X132310600Y-67120380D02*
X132310600Y-66839220D01*
%TO.C,J9*%
X139770000Y-56420000D02*
X141150000Y-56420000D01*
X139770000Y-57800000D02*
X139770000Y-56420000D01*
X139770000Y-59070000D02*
X139770000Y-59180000D01*
X139770000Y-59070000D02*
X142530000Y-59070000D01*
X139770000Y-59180000D02*
X142530000Y-59180000D01*
X142530000Y-59070000D02*
X142530000Y-59180000D01*
%TO.C,RV1*%
X136616200Y-77878200D02*
X141666200Y-77878200D01*
X136616200Y-87628200D02*
X136616200Y-77878200D01*
X141666200Y-77878200D02*
X141666200Y-87628200D01*
X141666200Y-87628200D02*
X136616200Y-87628200D01*
%TO.C,J5*%
X149369000Y-69989000D02*
X150749000Y-69989000D01*
X149369000Y-71369000D02*
X149369000Y-69989000D01*
X149369000Y-72639000D02*
X149369000Y-75289000D01*
X149369000Y-72639000D02*
X152129000Y-72639000D01*
X149369000Y-75289000D02*
X152129000Y-75289000D01*
X152129000Y-72639000D02*
X152129000Y-75289000D01*
%TO.C,RV3*%
X162485000Y-66570000D02*
X172235000Y-66570000D01*
X162485000Y-71620000D02*
X162485000Y-66570000D01*
X172235000Y-66570000D02*
X172235000Y-71620000D01*
X172235000Y-71620000D02*
X162485000Y-71620000D01*
%TO.C,R28*%
X120512742Y-61277500D02*
X120987258Y-61277500D01*
X120512742Y-62322500D02*
X120987258Y-62322500D01*
%TO.C,R4*%
X132164858Y-77709500D02*
X131690342Y-77709500D01*
X132164858Y-78754500D02*
X131690342Y-78754500D01*
%TO.C,R26*%
X180503300Y-73194142D02*
X180503300Y-73668658D01*
X181548300Y-73194142D02*
X181548300Y-73668658D01*
%TO.C,R10*%
X152027658Y-57465700D02*
X151553142Y-57465700D01*
X152027658Y-58510700D02*
X151553142Y-58510700D01*
%TO.C,PS1*%
X107900800Y-79625600D02*
X128420800Y-79625600D01*
X107900800Y-86935600D02*
X107900800Y-79625600D01*
X110244800Y-86935600D02*
X107900800Y-86935600D01*
X128420800Y-79625600D02*
X128420800Y-86935600D01*
X128420800Y-86935600D02*
X110836800Y-86935600D01*
X110880800Y-87405600D02*
X110200800Y-87405600D01*
X110540800Y-86935600D01*
X110880800Y-87405600D01*
G36*
X110880800Y-87405600D02*
G01*
X110200800Y-87405600D01*
X110540800Y-86935600D01*
X110880800Y-87405600D01*
G37*
%TO.C,R21*%
X174265858Y-66203300D02*
X173791342Y-66203300D01*
X174265858Y-67248300D02*
X173791342Y-67248300D01*
%TO.C,D1*%
X134175600Y-78967000D02*
X136460600Y-78967000D01*
X136460600Y-77497000D02*
X134175600Y-77497000D01*
X136460600Y-78967000D02*
X136460600Y-77497000D01*
%TO.C,D2*%
X110349200Y-77086000D02*
X112634200Y-77086000D01*
X112634200Y-75616000D02*
X110349200Y-75616000D01*
X112634200Y-77086000D02*
X112634200Y-75616000D01*
%TO.C,R29*%
X120057142Y-78369900D02*
X120531658Y-78369900D01*
X120057142Y-79414900D02*
X120531658Y-79414900D01*
%TO.C,U1*%
X145194000Y-79938400D02*
X145194000Y-83698400D01*
X145194000Y-83698400D02*
X146454000Y-83698400D01*
X152014000Y-79938400D02*
X152014000Y-83698400D01*
X152014000Y-83698400D02*
X150754000Y-83698400D01*
X152244000Y-78898400D02*
X151914000Y-78658400D01*
X152244000Y-78418400D01*
X152244000Y-78898400D01*
G36*
X152244000Y-78898400D02*
G01*
X151914000Y-78658400D01*
X152244000Y-78418400D01*
X152244000Y-78898400D01*
G37*
%TO.C,L1*%
X111165000Y-70440000D02*
X111165000Y-70090000D01*
X111165000Y-72710000D02*
X111165000Y-72360000D01*
X114185000Y-70090000D02*
X111165000Y-70090000D01*
X114185000Y-70440000D02*
X114185000Y-70090000D01*
X114185000Y-72710000D02*
X111165000Y-72710000D01*
X114185000Y-72710000D02*
X114185000Y-72360000D01*
%TO.C,C20*%
X120040000Y-65015000D02*
X120040000Y-67865000D01*
X120040000Y-73735000D02*
X120040000Y-70885000D01*
X127695563Y-65015000D02*
X120040000Y-65015000D01*
X127695563Y-73735000D02*
X120040000Y-73735000D01*
X128760000Y-66079437D02*
X127695563Y-65015000D01*
X128760000Y-66079437D02*
X128760000Y-67865000D01*
X128760000Y-72670563D02*
X127695563Y-73735000D01*
X128760000Y-72670563D02*
X128760000Y-70885000D01*
X129500000Y-72385000D02*
X129500000Y-71385000D01*
X130000000Y-71885000D02*
X129000000Y-71885000D01*
%TO.C,R6*%
X143120342Y-77658700D02*
X143594858Y-77658700D01*
X143120342Y-78703700D02*
X143594858Y-78703700D01*
D14*
%TO.C,CR1*%
X165899300Y-82766800D02*
X165899300Y-83411960D01*
X165899300Y-86338040D02*
X165899300Y-86983200D01*
X165899300Y-86983200D02*
X170750700Y-86983200D01*
X167375000Y-86248000D02*
X168645000Y-86248000D01*
X167594000Y-86864750D02*
X167594000Y-85594750D01*
X168306000Y-86846500D02*
X168306000Y-85576500D01*
X168344000Y-86261500D02*
X169106000Y-85626500D01*
X168344000Y-86261500D02*
X169106000Y-85753500D01*
X168344000Y-86261500D02*
X169106000Y-85948000D01*
X168344000Y-86261500D02*
X169106000Y-86098000D01*
X168344000Y-86261500D02*
X169106000Y-86388500D01*
X168344000Y-86261500D02*
X169106000Y-86515500D01*
X168344000Y-86261500D02*
X169106000Y-86642500D01*
X168344000Y-86261500D02*
X169106000Y-86769500D01*
X168344000Y-86261500D02*
X169106000Y-86896500D01*
X168356000Y-86229750D02*
X167594000Y-85594750D01*
X168356000Y-86229750D02*
X167594000Y-85721750D01*
X168356000Y-86229750D02*
X167594000Y-85848750D01*
X168356000Y-86229750D02*
X167594000Y-86016250D01*
X168356000Y-86229750D02*
X167594000Y-86166250D01*
X168356000Y-86229750D02*
X167594000Y-86356750D01*
X168356000Y-86229750D02*
X167594000Y-86483750D01*
X168356000Y-86229750D02*
X167594000Y-86610750D01*
X168356000Y-86229750D02*
X167594000Y-86737750D01*
X168356000Y-86229750D02*
X167594000Y-86864750D01*
X169106000Y-85626500D02*
X169106000Y-86896500D01*
X169375000Y-86248000D02*
X168105000Y-86248000D01*
X170750700Y-82766800D02*
X165899300Y-82766800D01*
X170750700Y-83411960D02*
X170750700Y-82766800D01*
X170750700Y-86983200D02*
X170750700Y-86338040D01*
D12*
%TO.C,C4*%
X146163420Y-76071000D02*
X146444580Y-76071000D01*
X146163420Y-77091000D02*
X146444580Y-77091000D01*
%TO.C,R9*%
X149794700Y-68233058D02*
X149794700Y-67758542D01*
X150839700Y-68233058D02*
X150839700Y-67758542D01*
%TO.C,R12*%
X160716700Y-64981858D02*
X160716700Y-64507342D01*
X161761700Y-64981858D02*
X161761700Y-64507342D01*
%TO.C,R18*%
X173803542Y-80579700D02*
X174278058Y-80579700D01*
X173803542Y-81624700D02*
X174278058Y-81624700D01*
%TO.C,C12*%
X154831148Y-57431000D02*
X155353652Y-57431000D01*
X154831148Y-58901000D02*
X155353652Y-58901000D01*
%TO.C,RV4*%
X162485000Y-71895000D02*
X172235000Y-71895000D01*
X162485000Y-76945000D02*
X162485000Y-71895000D01*
X172235000Y-71895000D02*
X172235000Y-76945000D01*
X172235000Y-76945000D02*
X162485000Y-76945000D01*
D14*
%TO.C,CR5*%
X175844200Y-79641700D02*
X175844200Y-84493100D01*
X175844200Y-84493100D02*
X176489360Y-84493100D01*
X176489360Y-79641700D02*
X175844200Y-79641700D01*
X178703900Y-81286400D02*
X179973900Y-81286400D01*
X179307150Y-82036400D02*
X178672150Y-82798400D01*
X179307150Y-82036400D02*
X178799150Y-82798400D01*
X179307150Y-82036400D02*
X178926150Y-82798400D01*
X179307150Y-82036400D02*
X179093650Y-82798400D01*
X179307150Y-82036400D02*
X179243650Y-82798400D01*
X179307150Y-82036400D02*
X179434150Y-82798400D01*
X179307150Y-82036400D02*
X179561150Y-82798400D01*
X179307150Y-82036400D02*
X179688150Y-82798400D01*
X179307150Y-82036400D02*
X179815150Y-82798400D01*
X179307150Y-82036400D02*
X179942150Y-82798400D01*
X179325400Y-81017400D02*
X179325400Y-82287400D01*
X179325400Y-83017400D02*
X179325400Y-81747400D01*
X179338900Y-82048400D02*
X178703900Y-81286400D01*
X179338900Y-82048400D02*
X178830900Y-81286400D01*
X179338900Y-82048400D02*
X179025400Y-81286400D01*
X179338900Y-82048400D02*
X179175400Y-81286400D01*
X179338900Y-82048400D02*
X179465900Y-81286400D01*
X179338900Y-82048400D02*
X179592900Y-81286400D01*
X179338900Y-82048400D02*
X179719900Y-81286400D01*
X179338900Y-82048400D02*
X179846900Y-81286400D01*
X179338900Y-82048400D02*
X179973900Y-81286400D01*
X179415440Y-84493100D02*
X180060600Y-84493100D01*
X179923900Y-82086400D02*
X178653900Y-82086400D01*
X179942150Y-82798400D02*
X178672150Y-82798400D01*
X180060600Y-79641700D02*
X179415440Y-79641700D01*
X180060600Y-84493100D02*
X180060600Y-79641700D01*
D12*
%TO.C,J2*%
X133087600Y-60926200D02*
X140927600Y-60926200D01*
X133087600Y-63576200D02*
X133087600Y-60926200D01*
X133087600Y-66226200D02*
X133087600Y-64846200D01*
X134467600Y-66226200D02*
X133087600Y-66226200D01*
X135737600Y-63576200D02*
X133087600Y-63576200D01*
X135737600Y-66226200D02*
X135737600Y-63576200D01*
X135737600Y-66226200D02*
X140927600Y-66226200D01*
X140927600Y-66226200D02*
X140927600Y-60926200D01*
%TO.C,R24*%
X180503300Y-59948542D02*
X180503300Y-60423058D01*
X181548300Y-59948542D02*
X181548300Y-60423058D01*
%TO.C,R25*%
X180401700Y-65802742D02*
X180401700Y-66277258D01*
X181446700Y-65802742D02*
X181446700Y-66277258D01*
%TO.C,C17*%
X155319000Y-67018780D02*
X155319000Y-66737620D01*
X156339000Y-67018780D02*
X156339000Y-66737620D01*
%TO.C,C7*%
X144829620Y-60018200D02*
X145110780Y-60018200D01*
X144829620Y-61038200D02*
X145110780Y-61038200D01*
%TO.C,R17*%
X173816742Y-74915500D02*
X174291258Y-74915500D01*
X173816742Y-75960500D02*
X174291258Y-75960500D01*
%TO.C,RV5*%
X162485000Y-77220000D02*
X172235000Y-77220000D01*
X162485000Y-82270000D02*
X162485000Y-77220000D01*
X172235000Y-77220000D02*
X172235000Y-82270000D01*
X172235000Y-82270000D02*
X162485000Y-82270000D01*
%TO.C,C18*%
X155293600Y-69848820D02*
X155293600Y-70129980D01*
X156313600Y-69848820D02*
X156313600Y-70129980D01*
%TO.C,C10*%
X121863400Y-74540800D02*
X121863400Y-77960800D01*
X121863400Y-77960800D02*
X128628400Y-77960800D01*
X128628400Y-74540800D02*
X121863400Y-74540800D01*
%TO.C,C14*%
X108204200Y-71450852D02*
X108204200Y-70928348D01*
X109674200Y-71450852D02*
X109674200Y-70928348D01*
%TO.C,R8*%
X148950142Y-62952100D02*
X149424658Y-62952100D01*
X148950142Y-63997100D02*
X149424658Y-63997100D01*
%TO.C,J4*%
X172559200Y-82719400D02*
X173939200Y-82719400D01*
X172559200Y-84099400D02*
X172559200Y-82719400D01*
X172559200Y-85369400D02*
X172559200Y-88019400D01*
X172559200Y-85369400D02*
X175319200Y-85369400D01*
X172559200Y-88019400D02*
X175319200Y-88019400D01*
X175319200Y-85369400D02*
X175319200Y-88019400D01*
%TO.C,R30*%
X160742100Y-76538858D02*
X160742100Y-76064342D01*
X161787100Y-76538858D02*
X161787100Y-76064342D01*
%TO.C,C11*%
X125386220Y-78331600D02*
X125667380Y-78331600D01*
X125386220Y-79351600D02*
X125667380Y-79351600D01*
%TO.C,R23*%
X174316658Y-78268300D02*
X173842142Y-78268300D01*
X174316658Y-79313300D02*
X173842142Y-79313300D01*
%TO.C,R2*%
X144987258Y-71477500D02*
X144512742Y-71477500D01*
X144987258Y-72522500D02*
X144512742Y-72522500D01*
%TO.C,RV2*%
X162475000Y-61220000D02*
X172225000Y-61220000D01*
X162475000Y-66270000D02*
X162475000Y-61220000D01*
X172225000Y-61220000D02*
X172225000Y-66270000D01*
X172225000Y-66270000D02*
X162475000Y-66270000D01*
%TD*%
M02*
