%TF.GenerationSoftware,KiCad,Pcbnew,9.0.6*%
%TF.CreationDate,2025-12-12T12:45:13+00:00*%
%TF.ProjectId,PIDI-BOX-01-ADC-4-MAIN-A2,50494449-2d42-44f5-982d-30312d414443,rev?*%
%TF.SameCoordinates,Original*%
%TF.FileFunction,Copper,L2,Bot*%
%TF.FilePolarity,Positive*%
%FSLAX46Y46*%
G04 Gerber Fmt 4.6, Leading zero omitted, Abs format (unit mm)*
G04 Created by KiCad (PCBNEW 9.0.6) date 2025-12-12 12:45:13*
%MOMM*%
%LPD*%
G01*
G04 APERTURE LIST*
G04 Aperture macros list*
%AMRoundRect*
0 Rectangle with rounded corners*
0 $1 Rounding radius*
0 $2 $3 $4 $5 $6 $7 $8 $9 X,Y pos of 4 corners*
0 Add a 4 corners polygon primitive as box body*
4,1,4,$2,$3,$4,$5,$6,$7,$8,$9,$2,$3,0*
0 Add four circle primitives for the rounded corners*
1,1,$1+$1,$2,$3*
1,1,$1+$1,$4,$5*
1,1,$1+$1,$6,$7*
1,1,$1+$1,$8,$9*
0 Add four rect primitives between the rounded corners*
20,1,$1+$1,$2,$3,$4,$5,0*
20,1,$1+$1,$4,$5,$6,$7,0*
20,1,$1+$1,$6,$7,$8,$9,0*
20,1,$1+$1,$8,$9,$2,$3,0*%
%AMFreePoly0*
4,1,23,0.550000,-0.750000,0.000000,-0.750000,0.000000,-0.745722,-0.065263,-0.745722,-0.191342,-0.711940,-0.304381,-0.646677,-0.396677,-0.554381,-0.461940,-0.441342,-0.495722,-0.315263,-0.495722,-0.250000,-0.500000,-0.250000,-0.500000,0.250000,-0.495722,0.250000,-0.495722,0.315263,-0.461940,0.441342,-0.396677,0.554381,-0.304381,0.646677,-0.191342,0.711940,-0.065263,0.745722,0.000000,0.745722,
0.000000,0.750000,0.550000,0.750000,0.550000,-0.750000,0.550000,-0.750000,$1*%
%AMFreePoly1*
4,1,23,0.000000,0.745722,0.065263,0.745722,0.191342,0.711940,0.304381,0.646677,0.396677,0.554381,0.461940,0.441342,0.495722,0.315263,0.495722,0.250000,0.500000,0.250000,0.500000,-0.250000,0.495722,-0.250000,0.495722,-0.315263,0.461940,-0.441342,0.396677,-0.554381,0.304381,-0.646677,0.191342,-0.711940,0.065263,-0.745722,0.000000,-0.745722,0.000000,-0.750000,-0.550000,-0.750000,
-0.550000,0.750000,0.000000,0.750000,0.000000,0.745722,0.000000,0.745722,$1*%
G04 Aperture macros list end*
%ADD10C,0.150000*%
%TA.AperFunction,NonConductor*%
%ADD11C,0.150000*%
%TD*%
%TA.AperFunction,ComponentPad*%
%ADD12R,1.800000X1.800000*%
%TD*%
%TA.AperFunction,ComponentPad*%
%ADD13C,1.800000*%
%TD*%
%TA.AperFunction,ComponentPad*%
%ADD14R,1.700000X1.700000*%
%TD*%
%TA.AperFunction,ComponentPad*%
%ADD15C,1.700000*%
%TD*%
%TA.AperFunction,ComponentPad*%
%ADD16R,2.400000X2.400000*%
%TD*%
%TA.AperFunction,ComponentPad*%
%ADD17C,2.400000*%
%TD*%
%TA.AperFunction,ComponentPad*%
%ADD18C,1.440000*%
%TD*%
%TA.AperFunction,ComponentPad*%
%ADD19RoundRect,0.250000X0.675000X-0.675000X0.675000X0.675000X-0.675000X0.675000X-0.675000X-0.675000X0*%
%TD*%
%TA.AperFunction,ComponentPad*%
%ADD20C,1.850000*%
%TD*%
%TA.AperFunction,SMDPad,CuDef*%
%ADD21FreePoly0,90.000000*%
%TD*%
%TA.AperFunction,SMDPad,CuDef*%
%ADD22R,1.500000X1.000000*%
%TD*%
%TA.AperFunction,SMDPad,CuDef*%
%ADD23FreePoly1,90.000000*%
%TD*%
%TA.AperFunction,SMDPad,CuDef*%
%ADD24FreePoly0,270.000000*%
%TD*%
%TA.AperFunction,SMDPad,CuDef*%
%ADD25FreePoly1,270.000000*%
%TD*%
%TA.AperFunction,ViaPad*%
%ADD26C,0.600000*%
%TD*%
%TA.AperFunction,ViaPad*%
%ADD27C,0.800000*%
%TD*%
%TA.AperFunction,Conductor*%
%ADD28C,0.200000*%
%TD*%
%TA.AperFunction,Conductor*%
%ADD29C,0.300000*%
%TD*%
%TA.AperFunction,Conductor*%
%ADD30C,0.600000*%
%TD*%
%TA.AperFunction,Conductor*%
%ADD31C,0.400000*%
%TD*%
%TA.AperFunction,Conductor*%
%ADD32C,2.000000*%
%TD*%
%TA.AperFunction,Conductor*%
%ADD33C,1.500000*%
%TD*%
%TA.AperFunction,Conductor*%
%ADD34C,1.000000*%
%TD*%
%TA.AperFunction,Conductor*%
%ADD35C,0.700000*%
%TD*%
%TA.AperFunction,Conductor*%
%ADD36C,3.000000*%
%TD*%
%TA.AperFunction,Conductor*%
%ADD37C,1.400000*%
%TD*%
%TA.AperFunction,Conductor*%
%ADD38C,0.500000*%
%TD*%
G04 APERTURE END LIST*
D10*
D11*
X123983979Y-58331324D02*
X123983979Y-59331324D01*
X123983979Y-59331324D02*
X124364931Y-59331324D01*
X124364931Y-59331324D02*
X124460169Y-59283705D01*
X124460169Y-59283705D02*
X124507788Y-59236086D01*
X124507788Y-59236086D02*
X124555407Y-59140848D01*
X124555407Y-59140848D02*
X124555407Y-58997991D01*
X124555407Y-58997991D02*
X124507788Y-58902753D01*
X124507788Y-58902753D02*
X124460169Y-58855134D01*
X124460169Y-58855134D02*
X124364931Y-58807515D01*
X124364931Y-58807515D02*
X123983979Y-58807515D01*
X124983979Y-58331324D02*
X124983979Y-59331324D01*
X125460169Y-58331324D02*
X125460169Y-59331324D01*
X125460169Y-59331324D02*
X125698264Y-59331324D01*
X125698264Y-59331324D02*
X125841121Y-59283705D01*
X125841121Y-59283705D02*
X125936359Y-59188467D01*
X125936359Y-59188467D02*
X125983978Y-59093229D01*
X125983978Y-59093229D02*
X126031597Y-58902753D01*
X126031597Y-58902753D02*
X126031597Y-58759896D01*
X126031597Y-58759896D02*
X125983978Y-58569420D01*
X125983978Y-58569420D02*
X125936359Y-58474182D01*
X125936359Y-58474182D02*
X125841121Y-58378944D01*
X125841121Y-58378944D02*
X125698264Y-58331324D01*
X125698264Y-58331324D02*
X125460169Y-58331324D01*
X126460169Y-58331324D02*
X126460169Y-59331324D01*
X126936359Y-58712277D02*
X127698264Y-58712277D01*
X128507787Y-58855134D02*
X128650644Y-58807515D01*
X128650644Y-58807515D02*
X128698263Y-58759896D01*
X128698263Y-58759896D02*
X128745882Y-58664658D01*
X128745882Y-58664658D02*
X128745882Y-58521801D01*
X128745882Y-58521801D02*
X128698263Y-58426563D01*
X128698263Y-58426563D02*
X128650644Y-58378944D01*
X128650644Y-58378944D02*
X128555406Y-58331324D01*
X128555406Y-58331324D02*
X128174454Y-58331324D01*
X128174454Y-58331324D02*
X128174454Y-59331324D01*
X128174454Y-59331324D02*
X128507787Y-59331324D01*
X128507787Y-59331324D02*
X128603025Y-59283705D01*
X128603025Y-59283705D02*
X128650644Y-59236086D01*
X128650644Y-59236086D02*
X128698263Y-59140848D01*
X128698263Y-59140848D02*
X128698263Y-59045610D01*
X128698263Y-59045610D02*
X128650644Y-58950372D01*
X128650644Y-58950372D02*
X128603025Y-58902753D01*
X128603025Y-58902753D02*
X128507787Y-58855134D01*
X128507787Y-58855134D02*
X128174454Y-58855134D01*
X129364930Y-59331324D02*
X129555406Y-59331324D01*
X129555406Y-59331324D02*
X129650644Y-59283705D01*
X129650644Y-59283705D02*
X129745882Y-59188467D01*
X129745882Y-59188467D02*
X129793501Y-58997991D01*
X129793501Y-58997991D02*
X129793501Y-58664658D01*
X129793501Y-58664658D02*
X129745882Y-58474182D01*
X129745882Y-58474182D02*
X129650644Y-58378944D01*
X129650644Y-58378944D02*
X129555406Y-58331324D01*
X129555406Y-58331324D02*
X129364930Y-58331324D01*
X129364930Y-58331324D02*
X129269692Y-58378944D01*
X129269692Y-58378944D02*
X129174454Y-58474182D01*
X129174454Y-58474182D02*
X129126835Y-58664658D01*
X129126835Y-58664658D02*
X129126835Y-58997991D01*
X129126835Y-58997991D02*
X129174454Y-59188467D01*
X129174454Y-59188467D02*
X129269692Y-59283705D01*
X129269692Y-59283705D02*
X129364930Y-59331324D01*
X130126835Y-59331324D02*
X130793501Y-58331324D01*
X130793501Y-59331324D02*
X130126835Y-58331324D01*
X131174454Y-58712277D02*
X131936359Y-58712277D01*
X132603025Y-59331324D02*
X132698263Y-59331324D01*
X132698263Y-59331324D02*
X132793501Y-59283705D01*
X132793501Y-59283705D02*
X132841120Y-59236086D01*
X132841120Y-59236086D02*
X132888739Y-59140848D01*
X132888739Y-59140848D02*
X132936358Y-58950372D01*
X132936358Y-58950372D02*
X132936358Y-58712277D01*
X132936358Y-58712277D02*
X132888739Y-58521801D01*
X132888739Y-58521801D02*
X132841120Y-58426563D01*
X132841120Y-58426563D02*
X132793501Y-58378944D01*
X132793501Y-58378944D02*
X132698263Y-58331324D01*
X132698263Y-58331324D02*
X132603025Y-58331324D01*
X132603025Y-58331324D02*
X132507787Y-58378944D01*
X132507787Y-58378944D02*
X132460168Y-58426563D01*
X132460168Y-58426563D02*
X132412549Y-58521801D01*
X132412549Y-58521801D02*
X132364930Y-58712277D01*
X132364930Y-58712277D02*
X132364930Y-58950372D01*
X132364930Y-58950372D02*
X132412549Y-59140848D01*
X132412549Y-59140848D02*
X132460168Y-59236086D01*
X132460168Y-59236086D02*
X132507787Y-59283705D01*
X132507787Y-59283705D02*
X132603025Y-59331324D01*
X133888739Y-58331324D02*
X133317311Y-58331324D01*
X133603025Y-58331324D02*
X133603025Y-59331324D01*
X133603025Y-59331324D02*
X133507787Y-59188467D01*
X133507787Y-59188467D02*
X133412549Y-59093229D01*
X133412549Y-59093229D02*
X133317311Y-59045610D01*
X123983979Y-57102333D02*
X124745884Y-57102333D01*
X125174455Y-57007095D02*
X125650645Y-57007095D01*
X125079217Y-56721380D02*
X125412550Y-57721380D01*
X125412550Y-57721380D02*
X125745883Y-56721380D01*
X126079217Y-56721380D02*
X126079217Y-57721380D01*
X126079217Y-57721380D02*
X126317312Y-57721380D01*
X126317312Y-57721380D02*
X126460169Y-57673761D01*
X126460169Y-57673761D02*
X126555407Y-57578523D01*
X126555407Y-57578523D02*
X126603026Y-57483285D01*
X126603026Y-57483285D02*
X126650645Y-57292809D01*
X126650645Y-57292809D02*
X126650645Y-57149952D01*
X126650645Y-57149952D02*
X126603026Y-56959476D01*
X126603026Y-56959476D02*
X126555407Y-56864238D01*
X126555407Y-56864238D02*
X126460169Y-56769000D01*
X126460169Y-56769000D02*
X126317312Y-56721380D01*
X126317312Y-56721380D02*
X126079217Y-56721380D01*
X127650645Y-56816619D02*
X127603026Y-56769000D01*
X127603026Y-56769000D02*
X127460169Y-56721380D01*
X127460169Y-56721380D02*
X127364931Y-56721380D01*
X127364931Y-56721380D02*
X127222074Y-56769000D01*
X127222074Y-56769000D02*
X127126836Y-56864238D01*
X127126836Y-56864238D02*
X127079217Y-56959476D01*
X127079217Y-56959476D02*
X127031598Y-57149952D01*
X127031598Y-57149952D02*
X127031598Y-57292809D01*
X127031598Y-57292809D02*
X127079217Y-57483285D01*
X127079217Y-57483285D02*
X127126836Y-57578523D01*
X127126836Y-57578523D02*
X127222074Y-57673761D01*
X127222074Y-57673761D02*
X127364931Y-57721380D01*
X127364931Y-57721380D02*
X127460169Y-57721380D01*
X127460169Y-57721380D02*
X127603026Y-57673761D01*
X127603026Y-57673761D02*
X127650645Y-57626142D01*
X128079217Y-57102333D02*
X128841122Y-57102333D01*
X129745883Y-57388047D02*
X129745883Y-56721380D01*
X129507788Y-57769000D02*
X129269693Y-57054714D01*
X129269693Y-57054714D02*
X129888740Y-57054714D01*
X130269693Y-57102333D02*
X131031598Y-57102333D01*
X131507788Y-56721380D02*
X131507788Y-57721380D01*
X131507788Y-57721380D02*
X131841121Y-57007095D01*
X131841121Y-57007095D02*
X132174454Y-57721380D01*
X132174454Y-57721380D02*
X132174454Y-56721380D01*
X132603026Y-57007095D02*
X133079216Y-57007095D01*
X132507788Y-56721380D02*
X132841121Y-57721380D01*
X132841121Y-57721380D02*
X133174454Y-56721380D01*
X133507788Y-56721380D02*
X133507788Y-57721380D01*
X133983978Y-56721380D02*
X133983978Y-57721380D01*
X133983978Y-57721380D02*
X134555406Y-56721380D01*
X134555406Y-56721380D02*
X134555406Y-57721380D01*
X135031597Y-57102333D02*
X135793502Y-57102333D01*
X136222073Y-57007095D02*
X136698263Y-57007095D01*
X136126835Y-56721380D02*
X136460168Y-57721380D01*
X136460168Y-57721380D02*
X136793501Y-56721380D01*
X137079216Y-57626142D02*
X137126835Y-57673761D01*
X137126835Y-57673761D02*
X137222073Y-57721380D01*
X137222073Y-57721380D02*
X137460168Y-57721380D01*
X137460168Y-57721380D02*
X137555406Y-57673761D01*
X137555406Y-57673761D02*
X137603025Y-57626142D01*
X137603025Y-57626142D02*
X137650644Y-57530904D01*
X137650644Y-57530904D02*
X137650644Y-57435666D01*
X137650644Y-57435666D02*
X137603025Y-57292809D01*
X137603025Y-57292809D02*
X137031597Y-56721380D01*
X137031597Y-56721380D02*
X137650644Y-56721380D01*
D12*
%TO.P,D3,1,K*%
%TO.N,Net-(D2-K)*%
X131030000Y-73200000D03*
D13*
%TO.P,D3,2,A*%
%TO.N,Net-(D3-A)*%
X133570000Y-73200000D03*
%TD*%
D14*
%TO.P,J10,1,Pin_1*%
%TO.N,Net-(D2-K)*%
X120075000Y-57750000D03*
%TD*%
%TO.P,J1,1,Pin_1*%
%TO.N,+3V3*%
X158521400Y-85217000D03*
D15*
%TO.P,J1,2,Pin_2*%
%TO.N,GND*%
X158521400Y-82677000D03*
%TO.P,J1,3,Pin_3*%
%TO.N,SCL2*%
X158521400Y-80137000D03*
%TO.P,J1,4,Pin_4*%
%TO.N,SDA2*%
X158521400Y-77597000D03*
%TO.P,J1,5,Pin_5*%
%TO.N,ADDR*%
X158521400Y-75057000D03*
%TO.P,J1,6,Pin_6*%
%TO.N,RDY*%
X158521400Y-72517000D03*
%TO.P,J1,7,Pin_7*%
%TO.N,AIN0*%
X158521400Y-69977000D03*
%TO.P,J1,8,Pin_8*%
%TO.N,AIN1*%
X158521400Y-67437000D03*
%TO.P,J1,9,Pin_9*%
%TO.N,AIN2*%
X158521400Y-64897000D03*
%TO.P,J1,10,Pin_10*%
%TO.N,AIN3*%
X158521400Y-62357000D03*
%TD*%
D16*
%TO.P,J6,1,1*%
%TO.N,Net-(J6-Pad1)*%
X188163200Y-59791600D03*
D17*
%TO.P,J6,2,2*%
%TO.N,Net-(J6-Pad2)*%
X188163200Y-64871600D03*
%TO.P,J6,3,3*%
%TO.N,Net-(J6-Pad3)*%
X188163200Y-69951600D03*
%TD*%
D16*
%TO.P,J7,1,1*%
%TO.N,Net-(J7-Pad1)*%
X188163200Y-74980800D03*
D17*
%TO.P,J7,2,2*%
%TO.N,GND*%
X188163200Y-80060800D03*
%TO.P,J7,3,3*%
%TO.N,+4-7Vext*%
X188163200Y-85140800D03*
%TD*%
D14*
%TO.P,J3,1,Pin_1*%
%TO.N,Net-(J3-Pin_1)*%
X139500000Y-71150000D03*
D15*
%TO.P,J3,2,Pin_2*%
%TO.N,Net-(J3-Pin_2)*%
X136960000Y-71150000D03*
%TO.P,J3,3,Pin_3*%
%TO.N,Net-(J3-Pin_3)*%
X139500000Y-68610000D03*
%TO.P,J3,4,Pin_4*%
%TO.N,Net-(J3-Pin_2)*%
X136960000Y-68610000D03*
%TD*%
D16*
%TO.P,J8,1,1*%
%TO.N,Net-(D2-K)*%
X111810800Y-64820800D03*
D17*
%TO.P,J8,2,2*%
%TO.N,Net-(D4-A)*%
X111810800Y-59740800D03*
%TD*%
D14*
%TO.P,J9,1,Pin_1*%
%TO.N,GND*%
X141150000Y-57800000D03*
%TD*%
D18*
%TO.P,RV1,1,1*%
%TO.N,Net-(R6-Pad1)*%
X139136200Y-80213200D03*
%TO.P,RV1,2,2*%
%TO.N,Net-(U3-ADJ)*%
X139136200Y-82753200D03*
%TO.P,RV1,3,3*%
%TO.N,Net-(R5-Pad2)*%
X139136200Y-85293200D03*
%TD*%
D14*
%TO.P,J5,1,Pin_1*%
%TO.N,Net-(J5-Pin_1)*%
X150749000Y-71369000D03*
D15*
%TO.P,J5,2,Pin_2*%
%TO.N,+3V3*%
X150749000Y-73909000D03*
%TD*%
D18*
%TO.P,RV3,1,1*%
%TO.N,Net-(R21-Pad2)*%
X164820000Y-69100000D03*
%TO.P,RV3,2,2*%
%TO.N,Net-(R12-Pad1)*%
X167360000Y-69100000D03*
%TO.P,RV3,3,3*%
%TO.N,Net-(R16-Pad1)*%
X169900000Y-69100000D03*
%TD*%
D19*
%TO.P,PS1,1,+Vin*%
%TO.N,Net-(PS1-+Vin)*%
X110550800Y-81385600D03*
D20*
%TO.P,PS1,2,-Vin*%
%TO.N,Net-(D2-K)*%
X113090800Y-81385600D03*
%TO.P,PS1,4,-Vout*%
%TO.N,GND*%
X118170800Y-81385600D03*
%TO.P,PS1,5,0V*%
%TO.N,unconnected-(PS1-0V-Pad5)*%
X120710800Y-81385600D03*
%TO.P,PS1,6,+Vout*%
%TO.N,+9V*%
X123250800Y-81385600D03*
%TD*%
D18*
%TO.P,RV4,1,1*%
%TO.N,Net-(R22-Pad2)*%
X164820000Y-74425000D03*
%TO.P,RV4,2,2*%
%TO.N,Net-(R13-Pad1)*%
X167360000Y-74425000D03*
%TO.P,RV4,3,3*%
%TO.N,Net-(R17-Pad1)*%
X169900000Y-74425000D03*
%TD*%
D14*
%TO.P,J2,1,Pin_1*%
%TO.N,/+5V I2C BUS*%
X134467600Y-64846200D03*
D15*
%TO.P,J2,2,Pin_2*%
%TO.N,Net-(J2-Pin_2)*%
X134467600Y-62306200D03*
%TO.P,J2,3,Pin_3*%
%TO.N,Net-(IC1-E)*%
X137007600Y-64846200D03*
%TO.P,J2,4,Pin_4*%
%TO.N,Net-(J2-Pin_4)*%
X137007600Y-62306200D03*
%TO.P,J2,5,Pin_5*%
%TO.N,Net-(IC1-E)*%
X139547600Y-64846200D03*
%TO.P,J2,6,Pin_6*%
%TO.N,Net-(J2-Pin_6)*%
X139547600Y-62306200D03*
%TD*%
D18*
%TO.P,RV5,1,1*%
%TO.N,Net-(R23-Pad2)*%
X164820000Y-79750000D03*
%TO.P,RV5,2,2*%
%TO.N,Net-(R14-Pad1)*%
X167360000Y-79750000D03*
%TO.P,RV5,3,3*%
%TO.N,Net-(R18-Pad1)*%
X169900000Y-79750000D03*
%TD*%
D14*
%TO.P,J4,1,Pin_1*%
%TO.N,GND*%
X173939200Y-84099400D03*
D15*
%TO.P,J4,2,Pin_2*%
%TO.N,+4-7Vext*%
X173939200Y-86639400D03*
%TD*%
D18*
%TO.P,RV2,1,1*%
%TO.N,Net-(R20-Pad2)*%
X164810000Y-63750000D03*
%TO.P,RV2,2,2*%
%TO.N,Net-(R11-Pad1)*%
X167350000Y-63750000D03*
%TO.P,RV2,3,3*%
%TO.N,Net-(R15-Pad1)*%
X169890000Y-63750000D03*
%TD*%
D21*
%TO.P,JP3,1,A*%
%TO.N,SCL2*%
X154117300Y-80294000D03*
D22*
%TO.P,JP3,2,C*%
%TO.N,Net-(JP3-C)*%
X154117300Y-78994000D03*
D23*
%TO.P,JP3,3,B*%
%TO.N,SDA2*%
X154117300Y-77694000D03*
%TD*%
D24*
%TO.P,JP4,1,A*%
%TO.N,Net-(J5-Pin_1)*%
X154127200Y-72025200D03*
D22*
%TO.P,JP4,2,C*%
%TO.N,ADDR*%
X154127200Y-73325200D03*
D25*
%TO.P,JP4,3,B*%
%TO.N,Net-(JP3-C)*%
X154127200Y-74625200D03*
%TD*%
D26*
%TO.N,GND*%
X155905200Y-71831200D03*
X151688800Y-80924400D03*
D27*
X162407600Y-84683600D03*
D26*
X174218600Y-82092800D03*
X175920400Y-69494400D03*
X154914600Y-59994800D03*
X128066800Y-80619600D03*
X137160000Y-78181200D03*
X175768000Y-63500000D03*
X128066800Y-79806800D03*
X153162000Y-66954400D03*
X146735800Y-61137800D03*
X147904200Y-76581000D03*
X128050000Y-79044800D03*
X150342600Y-65963800D03*
X156718000Y-65328800D03*
X157149800Y-58191400D03*
X151180800Y-80416400D03*
X144526000Y-84277200D03*
X150585200Y-77266800D03*
X175234600Y-76784200D03*
X145135600Y-80416400D03*
X154432000Y-61061600D03*
%TO.N,Net-(IC1-E)*%
X114225000Y-73750000D03*
X146650000Y-69250000D03*
X133172200Y-66550000D03*
%TO.N,Net-(D2-K)*%
X124155200Y-69265800D03*
%TO.N,Net-(J2-Pin_6)*%
X145450000Y-69250000D03*
X142184000Y-69189600D03*
%TO.N,SCL2*%
X148310600Y-58978800D03*
X151053800Y-58978800D03*
%TO.N,Net-(IC1-C)*%
X113385600Y-76301600D03*
X131267200Y-60909200D03*
%TO.N,SDA2*%
X148996400Y-59588400D03*
X151688800Y-59588400D03*
%TO.N,Net-(D3-A)*%
X118850000Y-66500000D03*
%TO.N,Net-(Q1-C)*%
X149885400Y-82067400D03*
X131673600Y-84074000D03*
X145237200Y-82092800D03*
X134721600Y-84023200D03*
%TO.N,Net-(JP3-C)*%
X155829000Y-78384400D03*
X155829000Y-75133200D03*
%TD*%
D28*
%TO.N,GND*%
X162255200Y-63398400D02*
X162407600Y-63246000D01*
X150342600Y-65963800D02*
X154222200Y-65963800D01*
D29*
X157505400Y-63627000D02*
X162026600Y-63627000D01*
X156438600Y-71247000D02*
X155905200Y-71780400D01*
D30*
X151688800Y-80924400D02*
X151688800Y-84023200D01*
D28*
X154838400Y-60071000D02*
X154432000Y-60071000D01*
D31*
X157149800Y-58191400D02*
X160959800Y-58191400D01*
D32*
X174294800Y-80111600D02*
X171551600Y-77368400D01*
D29*
X156438600Y-71247000D02*
X157302200Y-71247000D01*
X153238200Y-66878200D02*
X153238200Y-65963800D01*
D28*
X154857200Y-65328800D02*
X156718000Y-65328800D01*
D31*
X160959800Y-58191400D02*
X162407600Y-59639200D01*
D30*
X147523200Y-76657200D02*
X147523200Y-79095600D01*
X137083800Y-87122000D02*
X130244400Y-87122000D01*
D33*
X118200000Y-81414800D02*
X118170800Y-81385600D01*
X162433000Y-77038200D02*
X162433000Y-67577000D01*
D30*
X148844000Y-80416400D02*
X151180800Y-80416400D01*
D33*
X127450000Y-84850000D02*
X127210000Y-85090000D01*
X128066800Y-79806800D02*
X128066800Y-84233200D01*
D34*
X145633200Y-57800000D02*
X141150000Y-57800000D01*
D30*
X144119600Y-84277200D02*
X141274800Y-87122000D01*
D29*
X157302200Y-71247000D02*
X157327600Y-71221600D01*
X162153600Y-68707000D02*
X162433000Y-68427600D01*
D34*
X146735800Y-61137800D02*
X146735800Y-58902600D01*
D29*
X157022800Y-68707000D02*
X162153600Y-68707000D01*
D30*
X130244400Y-87122000D02*
X127711200Y-84588800D01*
D28*
X154222200Y-65963800D02*
X154400000Y-65786000D01*
D30*
X169316400Y-87376000D02*
X155041600Y-87376000D01*
D33*
X128066800Y-79779200D02*
X128066800Y-79806800D01*
D30*
X147904200Y-76581000D02*
X147599400Y-76581000D01*
D29*
X154432000Y-60071000D02*
X154432000Y-59169600D01*
X153162000Y-66954400D02*
X153238200Y-66878200D01*
D33*
X128066800Y-79806800D02*
X128066800Y-79061600D01*
D28*
X162356800Y-65887600D02*
X162407600Y-65836800D01*
D33*
X128066800Y-79061600D02*
X128050000Y-79044800D01*
D29*
X137160000Y-87045800D02*
X137083800Y-87122000D01*
D30*
X141274800Y-87122000D02*
X137083800Y-87122000D01*
D33*
X127210000Y-85090000D02*
X119540000Y-85090000D01*
D29*
X137160000Y-78181200D02*
X137160000Y-87045800D01*
D30*
X151180800Y-80416400D02*
X151688800Y-80924400D01*
D33*
X128050000Y-79762400D02*
X128066800Y-79779200D01*
D32*
X174218600Y-84074000D02*
X174218600Y-80111600D01*
D35*
X148869400Y-64947800D02*
X148869400Y-75615800D01*
X146735800Y-62814200D02*
X148869400Y-64947800D01*
D29*
X157454600Y-66167000D02*
X162077400Y-66167000D01*
X156718000Y-65328800D02*
X156718000Y-65430400D01*
D30*
X147904200Y-76581000D02*
X148082000Y-76403200D01*
D35*
X148869400Y-75615800D02*
X148082000Y-76403200D01*
D28*
X162407600Y-84683600D02*
X162407600Y-84326600D01*
D33*
X119540000Y-85090000D02*
X118200000Y-83750000D01*
D32*
X188112400Y-80111600D02*
X188163200Y-80060800D01*
D30*
X151688800Y-84023200D02*
X151434800Y-84277200D01*
D32*
X172593000Y-84099400D02*
X169316400Y-87376000D01*
D29*
X157327600Y-71221600D02*
X162102800Y-71221600D01*
D28*
X158275000Y-82435000D02*
X158085200Y-82245200D01*
D30*
X155041600Y-87376000D02*
X151688800Y-84023200D01*
D33*
X128066800Y-84233200D02*
X127711200Y-84588800D01*
X127711200Y-84588800D02*
X127450000Y-84850000D01*
D30*
X147599400Y-76581000D02*
X147523200Y-76657200D01*
D28*
X154400000Y-65786000D02*
X154857200Y-65328800D01*
D29*
X162026600Y-63627000D02*
X162255200Y-63398400D01*
X154400000Y-65786000D02*
X154432000Y-65754000D01*
X155905200Y-71780400D02*
X155905200Y-71831200D01*
D33*
X118200000Y-83750000D02*
X118200000Y-81414800D01*
D29*
X156718000Y-65430400D02*
X157454600Y-66167000D01*
D30*
X151434800Y-84277200D02*
X144119600Y-84277200D01*
D29*
X155257800Y-58242200D02*
X154400000Y-59100000D01*
X157099000Y-58242200D02*
X155257800Y-58242200D01*
D35*
X146735800Y-61137800D02*
X146735800Y-62814200D01*
D29*
X162433000Y-67577000D02*
X162407600Y-67551600D01*
D32*
X162763200Y-77368400D02*
X162661600Y-77266800D01*
D29*
X162890200Y-77495400D02*
X162763200Y-77368400D01*
X162077400Y-66167000D02*
X162356800Y-65887600D01*
D30*
X162407600Y-84683600D02*
X162250000Y-84841200D01*
D29*
X156489400Y-71297800D02*
X156438600Y-71247000D01*
X156794200Y-71297800D02*
X156489400Y-71297800D01*
D30*
X162250000Y-84841200D02*
X162250000Y-87325000D01*
D29*
X154432000Y-59169600D02*
X154381200Y-59118800D01*
D36*
X174294800Y-80111600D02*
X188112400Y-80111600D01*
D28*
X158490000Y-82435000D02*
X158425000Y-82500000D01*
D33*
X162407600Y-67551600D02*
X162407600Y-59639200D01*
D28*
X154914600Y-59994800D02*
X154838400Y-60071000D01*
D34*
X146735800Y-58902600D02*
X145633200Y-57800000D01*
D29*
X154432000Y-65754000D02*
X154432000Y-60071000D01*
D28*
X154400000Y-65818000D02*
X154400000Y-65786000D01*
D29*
X162102800Y-71221600D02*
X162306000Y-71018400D01*
D32*
X173939200Y-84099400D02*
X172593000Y-84099400D01*
D28*
X153162000Y-66954400D02*
X153194800Y-66921600D01*
D32*
X171551600Y-77368400D02*
X162763200Y-77368400D01*
D30*
X147523200Y-79095600D02*
X148844000Y-80416400D01*
D31*
%TO.N,Net-(J3-Pin_2)*%
X136960000Y-68610000D02*
X136960000Y-71150000D01*
%TO.N,Net-(IC1-E)*%
X114250000Y-67156800D02*
X114250000Y-73725000D01*
X133172200Y-66247200D02*
X131415600Y-64490600D01*
X133172200Y-66550000D02*
X133172200Y-66247200D01*
D35*
X133172200Y-66550000D02*
X137007600Y-66550000D01*
X137007600Y-66550000D02*
X137007600Y-64846200D01*
X145999200Y-67716400D02*
X146650000Y-68367200D01*
X141782800Y-67716400D02*
X145999200Y-67716400D01*
D31*
X131415600Y-64490600D02*
X116916200Y-64490600D01*
X114250000Y-73725000D02*
X114225000Y-73750000D01*
D35*
X146650000Y-68367200D02*
X146650000Y-69250000D01*
X139547600Y-64846200D02*
X139547600Y-65481200D01*
D31*
X116916200Y-64490600D02*
X114250000Y-67156800D01*
D35*
X146650000Y-69250000D02*
X146700000Y-69250000D01*
X139547600Y-65481200D02*
X141782800Y-67716400D01*
D30*
%TO.N,Net-(D2-K)*%
X130835000Y-73200000D02*
X131030000Y-73200000D01*
X126815800Y-69265800D02*
X130200000Y-72650000D01*
X130285000Y-72650000D02*
X130835000Y-73200000D01*
D37*
X110236000Y-66395600D02*
X110236000Y-76286000D01*
X110236000Y-76286000D02*
X113100000Y-79150000D01*
X113100000Y-81647500D02*
X113120000Y-81667500D01*
X111810800Y-64820800D02*
X110236000Y-66395600D01*
D30*
X130200000Y-72650000D02*
X130285000Y-72650000D01*
D37*
X113100000Y-79150000D02*
X113100000Y-81647500D01*
D30*
X124155200Y-69265800D02*
X126815800Y-69265800D01*
D29*
%TO.N,Net-(J2-Pin_6)*%
X145450000Y-69250000D02*
X145389600Y-69189600D01*
X138303000Y-65455800D02*
X138303000Y-63550800D01*
X142036800Y-69189600D02*
X138303000Y-65455800D01*
X145389600Y-69189600D02*
X142184000Y-69189600D01*
X138303000Y-63550800D02*
X139547600Y-62306200D01*
X142184000Y-69189600D02*
X142036800Y-69189600D01*
D28*
%TO.N,SCL2*%
X156108400Y-79146400D02*
X157530800Y-79146400D01*
X158517000Y-80137000D02*
X158275000Y-79895000D01*
X154117300Y-80294000D02*
X154960800Y-80294000D01*
X148310600Y-58978800D02*
X151053800Y-58978800D01*
X154960800Y-80294000D02*
X156108400Y-79146400D01*
X157530800Y-79146400D02*
X158521400Y-80137000D01*
X158521400Y-80137000D02*
X158517000Y-80137000D01*
D31*
%TO.N,Net-(IC1-C)*%
X116636800Y-63652400D02*
X113450000Y-66839200D01*
X113450000Y-76237200D02*
X113385600Y-76301600D01*
X130530600Y-63652400D02*
X116636800Y-63652400D01*
X131292600Y-62890400D02*
X130530600Y-63652400D01*
X131292600Y-60934600D02*
X131292600Y-62890400D01*
X131267200Y-60909200D02*
X131292600Y-60934600D01*
X113450000Y-66839200D02*
X113450000Y-76237200D01*
D28*
%TO.N,SDA2*%
X158154200Y-77597000D02*
X158149800Y-77601400D01*
X154214300Y-77597000D02*
X158521400Y-77597000D01*
X154117300Y-77694000D02*
X154214300Y-77597000D01*
X151688800Y-59588400D02*
X148996400Y-59588400D01*
%TO.N,ADDR*%
X157683200Y-74218800D02*
X158275000Y-74810600D01*
X154157200Y-73355200D02*
X155067000Y-73355200D01*
X155067000Y-73355200D02*
X155930600Y-74218800D01*
X155930600Y-74218800D02*
X157683200Y-74218800D01*
X154127200Y-73325200D02*
X154157200Y-73355200D01*
X158275000Y-74810600D02*
X158275000Y-74815000D01*
D38*
%TO.N,Net-(D3-A)*%
X130800000Y-71400000D02*
X132395000Y-71400000D01*
X132395000Y-71400000D02*
X133570000Y-72575000D01*
X133570000Y-72575000D02*
X133570000Y-73305000D01*
X133570000Y-73305000D02*
X133525000Y-73350000D01*
X127218000Y-67818000D02*
X130800000Y-71400000D01*
X118850000Y-66500000D02*
X120168000Y-67818000D01*
X120168000Y-67818000D02*
X127218000Y-67818000D01*
D28*
%TO.N,RDY*%
X158275000Y-73068200D02*
X158275000Y-72275000D01*
%TO.N,Net-(Q1-C)*%
X145288000Y-82042000D02*
X145237200Y-82092800D01*
X149885400Y-82067400D02*
X149860000Y-82042000D01*
X149860000Y-82042000D02*
X145288000Y-82042000D01*
X134670800Y-84074000D02*
X134721600Y-84023200D01*
X131673600Y-84074000D02*
X134670800Y-84074000D01*
%TO.N,Net-(J5-Pin_1)*%
X151668400Y-72288400D02*
X153864000Y-72288400D01*
X150749000Y-71369000D02*
X151668400Y-72288400D01*
X153864000Y-72288400D02*
X154127200Y-72025200D01*
%TO.N,Net-(JP3-C)*%
X155829000Y-78587600D02*
X155422600Y-78994000D01*
X155422600Y-78994000D02*
X154117300Y-78994000D01*
X155321000Y-74625200D02*
X154127200Y-74625200D01*
X155829000Y-75133200D02*
X155321000Y-74625200D01*
X155829000Y-78384400D02*
X155829000Y-78587600D01*
%TD*%
%TA.AperFunction,Conductor*%
%TO.N,GND*%
G36*
X152552400Y-75641200D02*
G01*
X152552400Y-88392000D01*
X151891524Y-88390504D01*
X150250866Y-88386792D01*
X130148277Y-88341311D01*
X130081283Y-88321474D01*
X130062989Y-88307054D01*
X127914400Y-86258400D01*
X116558423Y-86333771D01*
X116491254Y-86314532D01*
X116445150Y-86262033D01*
X116433600Y-86209774D01*
X116433600Y-83995153D01*
X130873100Y-83995153D01*
X130873100Y-84152846D01*
X130903861Y-84307489D01*
X130903864Y-84307501D01*
X130964202Y-84453172D01*
X130964209Y-84453185D01*
X131051810Y-84584288D01*
X131051813Y-84584292D01*
X131163307Y-84695786D01*
X131163311Y-84695789D01*
X131294414Y-84783390D01*
X131294427Y-84783397D01*
X131394126Y-84824693D01*
X131440103Y-84843737D01*
X131594753Y-84874499D01*
X131594756Y-84874500D01*
X131594758Y-84874500D01*
X131752444Y-84874500D01*
X131752445Y-84874499D01*
X131907097Y-84843737D01*
X132052779Y-84783394D01*
X132128805Y-84732595D01*
X132184475Y-84695398D01*
X132251153Y-84674520D01*
X132253366Y-84674500D01*
X134217862Y-84674500D01*
X134284901Y-84694185D01*
X134286753Y-84695398D01*
X134342421Y-84732594D01*
X134488103Y-84792937D01*
X134642753Y-84823699D01*
X134642756Y-84823700D01*
X134642758Y-84823700D01*
X134800444Y-84823700D01*
X134800445Y-84823699D01*
X134955097Y-84792937D01*
X135100779Y-84732594D01*
X135231889Y-84644989D01*
X135343389Y-84533489D01*
X135430994Y-84402379D01*
X135491337Y-84256697D01*
X135522100Y-84102042D01*
X135522100Y-83944358D01*
X135522100Y-83944355D01*
X135522099Y-83944353D01*
X135491338Y-83789710D01*
X135491337Y-83789703D01*
X135491335Y-83789698D01*
X135430997Y-83644027D01*
X135430990Y-83644014D01*
X135343389Y-83512911D01*
X135343386Y-83512907D01*
X135231892Y-83401413D01*
X135231888Y-83401410D01*
X135100785Y-83313809D01*
X135100772Y-83313802D01*
X134955101Y-83253464D01*
X134955089Y-83253461D01*
X134800445Y-83222700D01*
X134800442Y-83222700D01*
X134642758Y-83222700D01*
X134642755Y-83222700D01*
X134488110Y-83253461D01*
X134488098Y-83253464D01*
X134342427Y-83313802D01*
X134342414Y-83313809D01*
X134211311Y-83401410D01*
X134211307Y-83401413D01*
X134175542Y-83437180D01*
X134114220Y-83470666D01*
X134087860Y-83473500D01*
X132253366Y-83473500D01*
X132186327Y-83453815D01*
X132184475Y-83452602D01*
X132052785Y-83364609D01*
X132052772Y-83364602D01*
X131907101Y-83304264D01*
X131907089Y-83304261D01*
X131752445Y-83273500D01*
X131752442Y-83273500D01*
X131594758Y-83273500D01*
X131594755Y-83273500D01*
X131440110Y-83304261D01*
X131440098Y-83304264D01*
X131294427Y-83364602D01*
X131294414Y-83364609D01*
X131163311Y-83452210D01*
X131163307Y-83452213D01*
X131051813Y-83563707D01*
X131051810Y-83563711D01*
X130964209Y-83694814D01*
X130964202Y-83694827D01*
X130903864Y-83840498D01*
X130903861Y-83840510D01*
X130873100Y-83995153D01*
X116433600Y-83995153D01*
X116433600Y-81273450D01*
X116745800Y-81273450D01*
X116745800Y-81497749D01*
X116780889Y-81719289D01*
X116850199Y-81932607D01*
X116850200Y-81932610D01*
X116952033Y-82132466D01*
X117001832Y-82201010D01*
X117001834Y-82201011D01*
X117749074Y-81453771D01*
X117774763Y-81549644D01*
X117830716Y-81646556D01*
X117909844Y-81725684D01*
X118006756Y-81781637D01*
X118102628Y-81807325D01*
X117355387Y-82554564D01*
X117423936Y-82604368D01*
X117623789Y-82706199D01*
X117623792Y-82706200D01*
X117837110Y-82775510D01*
X118058651Y-82810600D01*
X118282949Y-82810600D01*
X118504489Y-82775510D01*
X118717807Y-82706200D01*
X118717810Y-82706199D01*
X118917662Y-82604369D01*
X118986210Y-82554564D01*
X118986211Y-82554564D01*
X118238971Y-81807325D01*
X118334844Y-81781637D01*
X118431756Y-81725684D01*
X118510884Y-81646556D01*
X118566837Y-81549644D01*
X118592525Y-81453772D01*
X119339764Y-82201011D01*
X119339765Y-82201010D01*
X119340172Y-82200451D01*
X119395502Y-82157785D01*
X119465115Y-82151806D01*
X119526910Y-82184412D01*
X119540808Y-82200451D01*
X119623483Y-82314244D01*
X119623487Y-82314249D01*
X119782150Y-82472912D01*
X119782155Y-82472916D01*
X119926364Y-82577689D01*
X119963675Y-82604797D01*
X120066414Y-82657145D01*
X120163593Y-82706661D01*
X120163595Y-82706661D01*
X120163598Y-82706663D01*
X120277984Y-82743829D01*
X120376994Y-82776000D01*
X120598606Y-82811100D01*
X120598611Y-82811100D01*
X120822994Y-82811100D01*
X121044605Y-82776000D01*
X121046113Y-82775510D01*
X121258002Y-82706663D01*
X121457925Y-82604797D01*
X121639451Y-82472911D01*
X121798111Y-82314251D01*
X121880482Y-82200875D01*
X121935811Y-82158211D01*
X122005424Y-82152232D01*
X122067220Y-82184837D01*
X122081113Y-82200871D01*
X122142014Y-82284693D01*
X122163489Y-82314251D01*
X122322150Y-82472912D01*
X122322155Y-82472916D01*
X122466364Y-82577689D01*
X122503675Y-82604797D01*
X122606414Y-82657145D01*
X122703593Y-82706661D01*
X122703595Y-82706661D01*
X122703598Y-82706663D01*
X122817984Y-82743829D01*
X122916994Y-82776000D01*
X123138606Y-82811100D01*
X123138611Y-82811100D01*
X123362994Y-82811100D01*
X123584605Y-82776000D01*
X123586113Y-82775510D01*
X123798002Y-82706663D01*
X123997925Y-82604797D01*
X124179451Y-82472911D01*
X124338111Y-82314251D01*
X124469997Y-82132725D01*
X124571863Y-81932802D01*
X124641200Y-81719405D01*
X124656609Y-81622115D01*
X124676300Y-81497794D01*
X124676300Y-81273405D01*
X124641200Y-81051794D01*
X124609029Y-80952784D01*
X124571863Y-80838398D01*
X124571861Y-80838395D01*
X124571861Y-80838393D01*
X124496283Y-80690065D01*
X124469997Y-80638475D01*
X124420383Y-80570187D01*
X124338116Y-80456955D01*
X124338112Y-80456950D01*
X124179449Y-80298287D01*
X124179444Y-80298283D01*
X124061499Y-80212591D01*
X123997928Y-80166405D01*
X123997927Y-80166404D01*
X123997925Y-80166403D01*
X123901251Y-80117145D01*
X137915700Y-80117145D01*
X137915700Y-80309254D01*
X137945753Y-80499002D01*
X138005116Y-80681706D01*
X138033892Y-80738181D01*
X138092335Y-80852881D01*
X138205255Y-81008302D01*
X138341098Y-81144145D01*
X138496519Y-81257065D01*
X138667691Y-81344282D01*
X138667693Y-81344283D01*
X138732281Y-81365269D01*
X138789956Y-81404706D01*
X138817155Y-81469065D01*
X138805241Y-81537911D01*
X138757997Y-81589387D01*
X138732281Y-81601131D01*
X138667693Y-81622116D01*
X138496518Y-81709335D01*
X138407845Y-81773760D01*
X138341098Y-81822255D01*
X138341096Y-81822257D01*
X138341095Y-81822257D01*
X138205257Y-81958095D01*
X138205257Y-81958096D01*
X138205255Y-81958098D01*
X138183128Y-81988553D01*
X138092335Y-82113518D01*
X138005116Y-82284693D01*
X137945753Y-82467397D01*
X137915700Y-82657145D01*
X137915700Y-82849254D01*
X137945753Y-83039002D01*
X138005116Y-83221706D01*
X138077926Y-83364602D01*
X138092335Y-83392881D01*
X138205255Y-83548302D01*
X138341098Y-83684145D01*
X138496519Y-83797065D01*
X138667691Y-83884282D01*
X138667693Y-83884283D01*
X138732281Y-83905269D01*
X138789956Y-83944706D01*
X138817155Y-84009065D01*
X138805241Y-84077911D01*
X138757997Y-84129387D01*
X138732281Y-84141131D01*
X138667693Y-84162116D01*
X138496518Y-84249335D01*
X138416477Y-84307489D01*
X138341098Y-84362255D01*
X138341096Y-84362257D01*
X138341095Y-84362257D01*
X138205257Y-84498095D01*
X138205257Y-84498096D01*
X138205255Y-84498098D01*
X138179543Y-84533488D01*
X138092335Y-84653518D01*
X138005116Y-84824693D01*
X137945753Y-85007397D01*
X137915700Y-85197145D01*
X137915700Y-85389254D01*
X137945753Y-85579002D01*
X138005116Y-85761706D01*
X138005118Y-85761709D01*
X138092335Y-85932881D01*
X138205255Y-86088302D01*
X138341098Y-86224145D01*
X138496519Y-86337065D01*
X138667691Y-86424282D01*
X138667693Y-86424283D01*
X138759045Y-86453964D01*
X138850399Y-86483647D01*
X139040145Y-86513700D01*
X139040146Y-86513700D01*
X139232254Y-86513700D01*
X139232255Y-86513700D01*
X139422001Y-86483647D01*
X139604709Y-86424282D01*
X139775881Y-86337065D01*
X139931302Y-86224145D01*
X140067145Y-86088302D01*
X140180065Y-85932881D01*
X140267282Y-85761709D01*
X140326647Y-85579001D01*
X140356700Y-85389255D01*
X140356700Y-85197145D01*
X140326647Y-85007399D01*
X140283466Y-84874500D01*
X140267283Y-84824693D01*
X140251101Y-84792935D01*
X140180065Y-84653519D01*
X140067145Y-84498098D01*
X139931302Y-84362255D01*
X139775881Y-84249335D01*
X139604704Y-84162115D01*
X139540119Y-84141131D01*
X139482443Y-84101694D01*
X139455244Y-84037336D01*
X139467158Y-83968489D01*
X139514402Y-83917013D01*
X139540119Y-83905269D01*
X139604704Y-83884284D01*
X139604706Y-83884282D01*
X139604709Y-83884282D01*
X139775881Y-83797065D01*
X139931302Y-83684145D01*
X140067145Y-83548302D01*
X140180065Y-83392881D01*
X140267282Y-83221709D01*
X140326647Y-83039001D01*
X140356700Y-82849255D01*
X140356700Y-82657145D01*
X140326647Y-82467399D01*
X140276886Y-82314249D01*
X140267283Y-82284693D01*
X140267282Y-82284691D01*
X140180065Y-82113519D01*
X140107726Y-82013953D01*
X144436700Y-82013953D01*
X144436700Y-82171646D01*
X144467461Y-82326289D01*
X144467464Y-82326301D01*
X144527802Y-82471972D01*
X144527809Y-82471985D01*
X144615410Y-82603088D01*
X144615413Y-82603092D01*
X144726907Y-82714586D01*
X144726911Y-82714589D01*
X144858014Y-82802190D01*
X144858027Y-82802197D01*
X144971637Y-82849255D01*
X145003703Y-82862537D01*
X145158353Y-82893299D01*
X145158356Y-82893300D01*
X145158358Y-82893300D01*
X145316044Y-82893300D01*
X145316045Y-82893299D01*
X145470697Y-82862537D01*
X145616379Y-82802194D01*
X145747489Y-82714589D01*
X145783258Y-82678820D01*
X145844580Y-82645334D01*
X145870940Y-82642500D01*
X149277059Y-82642500D01*
X149344098Y-82662185D01*
X149364740Y-82678819D01*
X149375107Y-82689186D01*
X149375111Y-82689189D01*
X149506214Y-82776790D01*
X149506227Y-82776797D01*
X149651898Y-82837135D01*
X149651903Y-82837137D01*
X149779587Y-82862535D01*
X149806553Y-82867899D01*
X149806556Y-82867900D01*
X149806558Y-82867900D01*
X149964244Y-82867900D01*
X149964245Y-82867899D01*
X150118897Y-82837137D01*
X150264579Y-82776794D01*
X150395689Y-82689189D01*
X150507189Y-82577689D01*
X150594794Y-82446579D01*
X150655137Y-82300897D01*
X150685900Y-82146242D01*
X150685900Y-81988558D01*
X150685900Y-81988555D01*
X150685899Y-81988553D01*
X150674771Y-81932610D01*
X150655137Y-81833903D01*
X150607663Y-81719289D01*
X150594797Y-81688227D01*
X150594790Y-81688214D01*
X150507189Y-81557111D01*
X150507186Y-81557107D01*
X150395692Y-81445613D01*
X150395688Y-81445610D01*
X150264585Y-81358009D01*
X150264572Y-81358002D01*
X150118901Y-81297664D01*
X150118889Y-81297661D01*
X149964245Y-81266900D01*
X149964242Y-81266900D01*
X149806558Y-81266900D01*
X149806555Y-81266900D01*
X149651910Y-81297661D01*
X149651898Y-81297664D01*
X149506227Y-81358002D01*
X149506215Y-81358009D01*
X149412540Y-81420602D01*
X149345863Y-81441480D01*
X149343649Y-81441500D01*
X145740938Y-81441500D01*
X145673899Y-81421815D01*
X145672047Y-81420602D01*
X145616376Y-81383404D01*
X145470701Y-81323064D01*
X145470689Y-81323061D01*
X145316045Y-81292300D01*
X145316042Y-81292300D01*
X145158358Y-81292300D01*
X145158355Y-81292300D01*
X145003710Y-81323061D01*
X145003698Y-81323064D01*
X144858027Y-81383402D01*
X144858014Y-81383409D01*
X144726911Y-81471010D01*
X144726907Y-81471013D01*
X144615413Y-81582507D01*
X144615410Y-81582511D01*
X144527809Y-81713614D01*
X144527802Y-81713627D01*
X144467464Y-81859298D01*
X144467461Y-81859310D01*
X144436700Y-82013953D01*
X140107726Y-82013953D01*
X140067145Y-81958098D01*
X139931302Y-81822255D01*
X139775881Y-81709335D01*
X139604704Y-81622115D01*
X139540119Y-81601131D01*
X139482443Y-81561694D01*
X139455244Y-81497336D01*
X139467158Y-81428489D01*
X139514402Y-81377013D01*
X139540119Y-81365269D01*
X139604704Y-81344284D01*
X139604706Y-81344282D01*
X139604709Y-81344282D01*
X139775881Y-81257065D01*
X139931302Y-81144145D01*
X140067145Y-81008302D01*
X140180065Y-80852881D01*
X140267282Y-80681709D01*
X140326647Y-80499001D01*
X140356700Y-80309255D01*
X140356700Y-80117145D01*
X140326647Y-79927399D01*
X140267282Y-79744691D01*
X140180065Y-79573519D01*
X140067145Y-79418098D01*
X139931302Y-79282255D01*
X139775881Y-79169335D01*
X139604706Y-79082116D01*
X139422002Y-79022753D01*
X139327128Y-79007726D01*
X139232255Y-78992700D01*
X139040145Y-78992700D01*
X138976896Y-79002717D01*
X138850397Y-79022753D01*
X138667693Y-79082116D01*
X138496518Y-79169335D01*
X138407845Y-79233760D01*
X138341098Y-79282255D01*
X138341096Y-79282257D01*
X138341095Y-79282257D01*
X138205257Y-79418095D01*
X138205257Y-79418096D01*
X138205255Y-79418098D01*
X138156760Y-79484845D01*
X138092335Y-79573518D01*
X138005116Y-79744693D01*
X137945753Y-79927397D01*
X137915700Y-80117145D01*
X123901251Y-80117145D01*
X123798006Y-80064538D01*
X123584605Y-79995199D01*
X123362994Y-79960100D01*
X123362989Y-79960100D01*
X123138611Y-79960100D01*
X123138606Y-79960100D01*
X122916994Y-79995199D01*
X122703593Y-80064538D01*
X122503671Y-80166405D01*
X122322155Y-80298283D01*
X122322150Y-80298287D01*
X122163487Y-80456950D01*
X122163483Y-80456955D01*
X122081118Y-80570322D01*
X122025788Y-80612988D01*
X121956175Y-80618967D01*
X121894380Y-80586362D01*
X121880482Y-80570322D01*
X121798116Y-80456955D01*
X121798112Y-80456950D01*
X121639449Y-80298287D01*
X121639444Y-80298283D01*
X121457928Y-80166405D01*
X121457927Y-80166404D01*
X121457925Y-80166403D01*
X121361251Y-80117145D01*
X121258006Y-80064538D01*
X121044605Y-79995199D01*
X120822994Y-79960100D01*
X120822989Y-79960100D01*
X120598611Y-79960100D01*
X120598606Y-79960100D01*
X120376994Y-79995199D01*
X120163593Y-80064538D01*
X119963671Y-80166405D01*
X119782155Y-80298283D01*
X119782150Y-80298287D01*
X119623487Y-80456950D01*
X119623483Y-80456955D01*
X119540808Y-80570748D01*
X119485478Y-80613414D01*
X119415865Y-80619393D01*
X119354070Y-80586787D01*
X119340172Y-80570748D01*
X119339765Y-80570188D01*
X119339764Y-80570187D01*
X118592525Y-81317427D01*
X118566837Y-81221556D01*
X118510884Y-81124644D01*
X118431756Y-81045516D01*
X118334844Y-80989563D01*
X118238972Y-80963874D01*
X118986211Y-80216634D01*
X118986210Y-80216632D01*
X118917666Y-80166833D01*
X118717810Y-80065000D01*
X118717807Y-80064999D01*
X118504489Y-79995689D01*
X118282949Y-79960600D01*
X118058651Y-79960600D01*
X117837110Y-79995689D01*
X117623792Y-80064999D01*
X117623789Y-80065000D01*
X117423940Y-80166829D01*
X117355388Y-80216634D01*
X118102628Y-80963874D01*
X118006756Y-80989563D01*
X117909844Y-81045516D01*
X117830716Y-81124644D01*
X117774763Y-81221556D01*
X117749074Y-81317428D01*
X117001834Y-80570188D01*
X116952029Y-80638740D01*
X116850200Y-80838589D01*
X116850199Y-80838592D01*
X116780889Y-81051910D01*
X116745800Y-81273450D01*
X116433600Y-81273450D01*
X116433600Y-80690065D01*
X116453285Y-80623026D01*
X116462536Y-80610449D01*
X116495786Y-80570748D01*
X119799975Y-76625446D01*
X119858109Y-76586691D01*
X119895174Y-76581064D01*
X142741983Y-76606400D01*
X143728765Y-75674475D01*
X143791018Y-75642758D01*
X143812455Y-75640636D01*
X148131424Y-75590416D01*
X148134192Y-75590416D01*
X152552400Y-75641200D01*
G37*
%TD.AperFunction*%
%TD*%
%TA.AperFunction,Conductor*%
%TO.N,GND*%
G36*
X175313636Y-56692928D02*
G01*
X176310274Y-56738230D01*
X176376350Y-56760938D01*
X176419660Y-56815765D01*
X176428643Y-56861847D01*
X176479200Y-81432400D01*
X176479200Y-88369600D01*
X176459515Y-88436639D01*
X176406711Y-88482394D01*
X176355200Y-88493600D01*
X175514306Y-88493600D01*
X175513632Y-88493598D01*
X166166831Y-88442800D01*
X166166800Y-88442800D01*
X160629970Y-88442800D01*
X160629254Y-88442798D01*
X151944293Y-88392658D01*
X151943325Y-88392649D01*
X151891528Y-88391945D01*
X151891523Y-88390504D01*
X152552400Y-88392000D01*
X152552400Y-75641200D01*
X148339380Y-75592774D01*
X148388391Y-70471135D01*
X149398500Y-70471135D01*
X149398500Y-72266870D01*
X149398501Y-72266876D01*
X149404908Y-72326483D01*
X149455202Y-72461328D01*
X149455206Y-72461335D01*
X149541452Y-72576544D01*
X149541455Y-72576547D01*
X149656664Y-72662793D01*
X149656671Y-72662797D01*
X149788082Y-72711810D01*
X149844016Y-72753681D01*
X149868433Y-72819145D01*
X149853582Y-72887418D01*
X149832431Y-72915673D01*
X149718889Y-73029215D01*
X149593951Y-73201179D01*
X149497444Y-73390585D01*
X149431753Y-73592760D01*
X149398500Y-73802713D01*
X149398500Y-74015286D01*
X149424146Y-74177213D01*
X149431754Y-74225243D01*
X149482157Y-74380368D01*
X149497444Y-74427414D01*
X149593951Y-74616820D01*
X149718890Y-74788786D01*
X149869213Y-74939109D01*
X150041179Y-75064048D01*
X150041181Y-75064049D01*
X150041184Y-75064051D01*
X150230588Y-75160557D01*
X150432757Y-75226246D01*
X150642713Y-75259500D01*
X150642714Y-75259500D01*
X150855286Y-75259500D01*
X150855287Y-75259500D01*
X151065243Y-75226246D01*
X151267412Y-75160557D01*
X151456816Y-75064051D01*
X151478789Y-75048086D01*
X151628786Y-74939109D01*
X151628788Y-74939106D01*
X151628792Y-74939104D01*
X151779104Y-74788792D01*
X151779106Y-74788788D01*
X151779109Y-74788786D01*
X151904048Y-74616820D01*
X151904047Y-74616820D01*
X151904051Y-74616816D01*
X152000557Y-74427412D01*
X152066246Y-74225243D01*
X152099500Y-74015287D01*
X152099500Y-73802713D01*
X152066246Y-73592757D01*
X152000557Y-73390588D01*
X151904051Y-73201184D01*
X151894037Y-73187401D01*
X151820210Y-73085785D01*
X151796730Y-73019979D01*
X151812556Y-72951925D01*
X151862662Y-72903230D01*
X151920528Y-72888900D01*
X152752700Y-72888900D01*
X152819739Y-72908585D01*
X152865494Y-72961389D01*
X152876700Y-73012900D01*
X152876700Y-73873070D01*
X152876701Y-73873074D01*
X152883109Y-73932690D01*
X152883347Y-73933694D01*
X152883438Y-73935750D01*
X152883938Y-73940394D01*
X152883647Y-73940425D01*
X152885408Y-73979852D01*
X152871700Y-74075199D01*
X152871700Y-74691033D01*
X152888611Y-74819478D01*
X152888925Y-74821862D01*
X152909783Y-74899703D01*
X152923000Y-74949029D01*
X152973502Y-75070950D01*
X152973503Y-75070951D01*
X153039320Y-75184949D01*
X153039332Y-75184967D01*
X153119655Y-75289644D01*
X153119659Y-75289649D01*
X153212751Y-75382741D01*
X153212755Y-75382744D01*
X153317432Y-75463067D01*
X153317436Y-75463069D01*
X153317443Y-75463075D01*
X153317450Y-75463079D01*
X153431448Y-75528896D01*
X153431449Y-75528897D01*
X153431452Y-75528898D01*
X153431457Y-75528901D01*
X153553371Y-75579400D01*
X153680538Y-75613475D01*
X153811374Y-75630700D01*
X153811381Y-75630700D01*
X154443019Y-75630700D01*
X154443026Y-75630700D01*
X154573862Y-75613475D01*
X154701029Y-75579400D01*
X154822943Y-75528901D01*
X154936957Y-75463075D01*
X154936980Y-75463056D01*
X154938370Y-75462129D01*
X154938862Y-75461974D01*
X154940473Y-75461045D01*
X154940680Y-75461405D01*
X155005045Y-75441241D01*
X155072428Y-75459716D01*
X155115510Y-75507663D01*
X155116736Y-75507009D01*
X155119609Y-75512385D01*
X155207210Y-75643488D01*
X155207213Y-75643492D01*
X155318707Y-75754986D01*
X155318711Y-75754989D01*
X155449814Y-75842590D01*
X155449827Y-75842597D01*
X155595498Y-75902935D01*
X155595503Y-75902937D01*
X155750153Y-75933699D01*
X155750156Y-75933700D01*
X155750158Y-75933700D01*
X155907844Y-75933700D01*
X155907845Y-75933699D01*
X156062497Y-75902937D01*
X156208179Y-75842594D01*
X156339289Y-75754989D01*
X156450789Y-75643489D01*
X156538394Y-75512379D01*
X156540348Y-75507663D01*
X156556418Y-75468864D01*
X156598737Y-75366697D01*
X156629500Y-75212042D01*
X156629500Y-75054358D01*
X156629500Y-75054355D01*
X156629499Y-75054353D01*
X156612222Y-74967491D01*
X156618449Y-74897899D01*
X156661312Y-74842722D01*
X156727202Y-74819478D01*
X156733839Y-74819300D01*
X157047100Y-74819300D01*
X157114139Y-74838985D01*
X157159894Y-74891789D01*
X157169447Y-74945841D01*
X157170900Y-74945841D01*
X157170900Y-75163286D01*
X157203117Y-75366701D01*
X157204154Y-75373243D01*
X157263562Y-75556082D01*
X157269844Y-75575414D01*
X157366351Y-75764820D01*
X157491290Y-75936786D01*
X157641613Y-76087109D01*
X157813582Y-76212050D01*
X157822346Y-76216516D01*
X157873142Y-76264491D01*
X157889936Y-76332312D01*
X157867398Y-76398447D01*
X157822346Y-76437484D01*
X157813582Y-76441949D01*
X157641613Y-76566890D01*
X157491290Y-76717213D01*
X157366348Y-76889184D01*
X157366347Y-76889185D01*
X157346165Y-76928795D01*
X157298191Y-76979591D01*
X157235681Y-76996500D01*
X155143152Y-76996500D01*
X155076113Y-76976815D01*
X155055471Y-76960181D01*
X155031754Y-76936464D01*
X155031749Y-76936459D01*
X155021761Y-76928795D01*
X154927067Y-76856132D01*
X154927049Y-76856120D01*
X154813051Y-76790303D01*
X154813050Y-76790302D01*
X154691129Y-76739800D01*
X154563958Y-76705724D01*
X154433133Y-76688500D01*
X154433126Y-76688500D01*
X153801474Y-76688500D01*
X153801466Y-76688500D01*
X153670641Y-76705724D01*
X153543470Y-76739800D01*
X153421549Y-76790302D01*
X153421548Y-76790303D01*
X153307550Y-76856120D01*
X153307532Y-76856132D01*
X153202855Y-76936455D01*
X153202845Y-76936464D01*
X153109764Y-77029545D01*
X153109755Y-77029555D01*
X153029432Y-77134232D01*
X153029420Y-77134250D01*
X152963603Y-77248248D01*
X152963602Y-77248249D01*
X152913100Y-77370170D01*
X152879024Y-77497341D01*
X152861800Y-77628166D01*
X152861800Y-78244002D01*
X152866945Y-78315941D01*
X152870407Y-78327732D01*
X152871770Y-78378561D01*
X152874038Y-78378805D01*
X152866801Y-78446116D01*
X152866800Y-78446135D01*
X152866800Y-79541870D01*
X152866801Y-79541874D01*
X152873209Y-79601490D01*
X152873447Y-79602494D01*
X152873538Y-79604550D01*
X152874038Y-79609194D01*
X152873747Y-79609225D01*
X152875508Y-79648652D01*
X152861800Y-79743999D01*
X152861800Y-80359833D01*
X152879024Y-80490658D01*
X152913100Y-80617829D01*
X152963602Y-80739750D01*
X152963603Y-80739751D01*
X153029420Y-80853749D01*
X153029432Y-80853767D01*
X153095945Y-80940447D01*
X153109759Y-80958449D01*
X153202851Y-81051541D01*
X153202855Y-81051544D01*
X153307532Y-81131867D01*
X153307536Y-81131869D01*
X153307543Y-81131875D01*
X153307550Y-81131879D01*
X153421548Y-81197696D01*
X153421549Y-81197697D01*
X153421552Y-81197698D01*
X153421557Y-81197701D01*
X153543471Y-81248200D01*
X153670638Y-81282275D01*
X153801474Y-81299500D01*
X153801481Y-81299500D01*
X154433119Y-81299500D01*
X154433126Y-81299500D01*
X154563962Y-81282275D01*
X154691129Y-81248200D01*
X154813043Y-81197701D01*
X154927057Y-81131875D01*
X155031749Y-81051541D01*
X155124841Y-80958449D01*
X155200427Y-80859944D01*
X155236808Y-80828042D01*
X155242704Y-80824639D01*
X155329516Y-80774520D01*
X155441320Y-80662716D01*
X155441320Y-80662714D01*
X155451528Y-80652507D01*
X155451529Y-80652504D01*
X156320816Y-79783219D01*
X156382139Y-79749734D01*
X156408497Y-79746900D01*
X157070667Y-79746900D01*
X157137706Y-79766585D01*
X157183461Y-79819389D01*
X157193405Y-79888547D01*
X157193140Y-79890298D01*
X157170900Y-80030713D01*
X157170900Y-80243286D01*
X157194086Y-80389681D01*
X157204154Y-80453243D01*
X157268897Y-80652501D01*
X157269844Y-80655414D01*
X157366351Y-80844820D01*
X157491290Y-81016786D01*
X157641613Y-81167109D01*
X157813579Y-81292048D01*
X157813581Y-81292049D01*
X157813584Y-81292051D01*
X157822893Y-81296794D01*
X157873690Y-81344766D01*
X157890487Y-81412587D01*
X157867952Y-81478722D01*
X157822905Y-81517760D01*
X157813846Y-81522376D01*
X157813840Y-81522380D01*
X157759682Y-81561727D01*
X157759682Y-81561728D01*
X158391991Y-82194037D01*
X158328407Y-82211075D01*
X158214393Y-82276901D01*
X158121301Y-82369993D01*
X158055475Y-82484007D01*
X158038437Y-82547591D01*
X157406128Y-81915282D01*
X157406127Y-81915282D01*
X157366780Y-81969439D01*
X157270304Y-82158782D01*
X157204642Y-82360869D01*
X157204642Y-82360872D01*
X157171400Y-82570753D01*
X157171400Y-82783246D01*
X157204642Y-82993127D01*
X157204642Y-82993130D01*
X157270304Y-83195217D01*
X157366775Y-83384550D01*
X157406128Y-83438716D01*
X158038437Y-82806408D01*
X158055475Y-82869993D01*
X158121301Y-82984007D01*
X158214393Y-83077099D01*
X158328407Y-83142925D01*
X158391990Y-83159962D01*
X157721770Y-83830181D01*
X157660447Y-83863666D01*
X157634098Y-83866500D01*
X157623534Y-83866500D01*
X157623523Y-83866501D01*
X157563916Y-83872908D01*
X157429071Y-83923202D01*
X157429064Y-83923206D01*
X157313855Y-84009452D01*
X157313852Y-84009455D01*
X157227606Y-84124664D01*
X157227602Y-84124671D01*
X157177308Y-84259517D01*
X157173774Y-84292393D01*
X157170901Y-84319123D01*
X157170900Y-84319135D01*
X157170900Y-86114870D01*
X157170901Y-86114876D01*
X157177308Y-86174483D01*
X157227602Y-86309328D01*
X157227606Y-86309335D01*
X157313852Y-86424544D01*
X157313855Y-86424547D01*
X157429064Y-86510793D01*
X157429071Y-86510797D01*
X157563917Y-86561091D01*
X157563916Y-86561091D01*
X157570844Y-86561835D01*
X157623527Y-86567500D01*
X159419272Y-86567499D01*
X159478883Y-86561091D01*
X159553896Y-86533113D01*
X172588700Y-86533113D01*
X172588700Y-86745686D01*
X172621953Y-86955639D01*
X172687644Y-87157814D01*
X172784151Y-87347220D01*
X172909090Y-87519186D01*
X173059413Y-87669509D01*
X173231379Y-87794448D01*
X173231381Y-87794449D01*
X173231384Y-87794451D01*
X173420788Y-87890957D01*
X173622957Y-87956646D01*
X173832913Y-87989900D01*
X173832914Y-87989900D01*
X174045486Y-87989900D01*
X174045487Y-87989900D01*
X174255443Y-87956646D01*
X174457612Y-87890957D01*
X174647016Y-87794451D01*
X174668989Y-87778486D01*
X174818986Y-87669509D01*
X174818988Y-87669506D01*
X174818992Y-87669504D01*
X174969304Y-87519192D01*
X174969306Y-87519188D01*
X174969309Y-87519186D01*
X175094248Y-87347220D01*
X175094247Y-87347220D01*
X175094251Y-87347216D01*
X175190757Y-87157812D01*
X175256446Y-86955643D01*
X175289700Y-86745687D01*
X175289700Y-86533113D01*
X175256446Y-86323157D01*
X175190757Y-86120988D01*
X175094251Y-85931584D01*
X175094249Y-85931581D01*
X175094248Y-85931579D01*
X174969309Y-85759613D01*
X174855381Y-85645685D01*
X174821896Y-85584362D01*
X174826880Y-85514670D01*
X174868752Y-85458737D01*
X174899729Y-85441822D01*
X175031286Y-85392754D01*
X175031293Y-85392750D01*
X175146387Y-85306590D01*
X175146390Y-85306587D01*
X175232550Y-85191493D01*
X175232554Y-85191486D01*
X175282796Y-85056779D01*
X175282798Y-85056772D01*
X175289199Y-84997244D01*
X175289200Y-84997227D01*
X175289200Y-84349400D01*
X174372212Y-84349400D01*
X174405125Y-84292393D01*
X174439200Y-84165226D01*
X174439200Y-84033574D01*
X174405125Y-83906407D01*
X174372212Y-83849400D01*
X175289200Y-83849400D01*
X175289200Y-83201572D01*
X175289199Y-83201555D01*
X175282798Y-83142027D01*
X175282796Y-83142020D01*
X175232554Y-83007313D01*
X175232550Y-83007306D01*
X175146390Y-82892212D01*
X175146387Y-82892209D01*
X175031293Y-82806049D01*
X175031286Y-82806045D01*
X174896579Y-82755803D01*
X174896572Y-82755801D01*
X174837044Y-82749400D01*
X174189200Y-82749400D01*
X174189200Y-83666388D01*
X174132193Y-83633475D01*
X174005026Y-83599400D01*
X173873374Y-83599400D01*
X173746207Y-83633475D01*
X173689200Y-83666388D01*
X173689200Y-82749400D01*
X173041355Y-82749400D01*
X172981827Y-82755801D01*
X172981820Y-82755803D01*
X172847113Y-82806045D01*
X172847106Y-82806049D01*
X172732012Y-82892209D01*
X172732009Y-82892212D01*
X172645849Y-83007306D01*
X172645845Y-83007313D01*
X172595603Y-83142020D01*
X172595601Y-83142027D01*
X172589200Y-83201555D01*
X172589200Y-83849400D01*
X173506188Y-83849400D01*
X173473275Y-83906407D01*
X173439200Y-84033574D01*
X173439200Y-84165226D01*
X173473275Y-84292393D01*
X173506188Y-84349400D01*
X172589200Y-84349400D01*
X172589200Y-84997244D01*
X172595601Y-85056772D01*
X172595603Y-85056779D01*
X172645845Y-85191486D01*
X172645849Y-85191493D01*
X172732009Y-85306587D01*
X172732012Y-85306590D01*
X172847106Y-85392750D01*
X172847113Y-85392754D01*
X172978670Y-85441822D01*
X173034604Y-85483693D01*
X173059021Y-85549158D01*
X173044169Y-85617431D01*
X173023019Y-85645685D01*
X172909089Y-85759615D01*
X172784151Y-85931579D01*
X172687644Y-86120985D01*
X172621953Y-86323160D01*
X172588700Y-86533113D01*
X159553896Y-86533113D01*
X159613731Y-86510796D01*
X159728946Y-86424546D01*
X159815196Y-86309331D01*
X159865491Y-86174483D01*
X159871900Y-86114873D01*
X159871899Y-84319128D01*
X159865491Y-84259517D01*
X159815196Y-84124669D01*
X159815195Y-84124668D01*
X159815193Y-84124664D01*
X159728947Y-84009455D01*
X159728944Y-84009452D01*
X159613735Y-83923206D01*
X159613728Y-83923202D01*
X159478882Y-83872908D01*
X159478883Y-83872908D01*
X159419283Y-83866501D01*
X159419281Y-83866500D01*
X159419273Y-83866500D01*
X159419265Y-83866500D01*
X159408709Y-83866500D01*
X159341670Y-83846815D01*
X159321028Y-83830181D01*
X158650808Y-83159962D01*
X158714393Y-83142925D01*
X158828407Y-83077099D01*
X158921499Y-82984007D01*
X158987325Y-82869993D01*
X159004362Y-82806408D01*
X159636670Y-83438717D01*
X159636670Y-83438716D01*
X159676022Y-83384554D01*
X159772495Y-83195217D01*
X159783960Y-83159933D01*
X159838157Y-82993130D01*
X159838157Y-82993127D01*
X159871400Y-82783246D01*
X159871400Y-82570753D01*
X159838157Y-82360872D01*
X159838157Y-82360869D01*
X159772495Y-82158782D01*
X159676024Y-81969449D01*
X159636670Y-81915282D01*
X159636669Y-81915282D01*
X159004362Y-82547590D01*
X158987325Y-82484007D01*
X158921499Y-82369993D01*
X158828407Y-82276901D01*
X158714393Y-82211075D01*
X158650809Y-82194037D01*
X159283116Y-81561728D01*
X159228947Y-81522373D01*
X159228947Y-81522372D01*
X159219900Y-81517763D01*
X159169106Y-81469788D01*
X159152312Y-81401966D01*
X159174851Y-81335832D01*
X159219908Y-81296793D01*
X159229216Y-81292051D01*
X159359079Y-81197701D01*
X159401186Y-81167109D01*
X159401188Y-81167106D01*
X159401192Y-81167104D01*
X159551504Y-81016792D01*
X159551506Y-81016788D01*
X159551509Y-81016786D01*
X159676448Y-80844820D01*
X159676447Y-80844820D01*
X159676451Y-80844816D01*
X159772957Y-80655412D01*
X159838646Y-80453243D01*
X159871900Y-80243287D01*
X159871900Y-80030713D01*
X159838646Y-79820757D01*
X159784445Y-79653945D01*
X163599500Y-79653945D01*
X163599500Y-79846055D01*
X163614526Y-79940928D01*
X163629553Y-80035802D01*
X163688916Y-80218506D01*
X163701543Y-80243287D01*
X163776135Y-80389681D01*
X163889055Y-80545102D01*
X164024898Y-80680945D01*
X164180319Y-80793865D01*
X164351491Y-80881082D01*
X164351493Y-80881083D01*
X164442845Y-80910764D01*
X164534199Y-80940447D01*
X164723945Y-80970500D01*
X164723946Y-80970500D01*
X164916054Y-80970500D01*
X164916055Y-80970500D01*
X165105801Y-80940447D01*
X165288509Y-80881082D01*
X165459681Y-80793865D01*
X165615102Y-80680945D01*
X165750945Y-80545102D01*
X165863865Y-80389681D01*
X165951082Y-80218509D01*
X165951084Y-80218504D01*
X165972069Y-80153919D01*
X166011506Y-80096243D01*
X166075864Y-80069044D01*
X166144711Y-80080958D01*
X166196187Y-80128202D01*
X166207931Y-80153919D01*
X166228915Y-80218504D01*
X166241543Y-80243287D01*
X166316135Y-80389681D01*
X166429055Y-80545102D01*
X166564898Y-80680945D01*
X166720319Y-80793865D01*
X166891491Y-80881082D01*
X166891493Y-80881083D01*
X166982845Y-80910764D01*
X167074199Y-80940447D01*
X167263945Y-80970500D01*
X167263946Y-80970500D01*
X167456054Y-80970500D01*
X167456055Y-80970500D01*
X167645801Y-80940447D01*
X167828509Y-80881082D01*
X167999681Y-80793865D01*
X168155102Y-80680945D01*
X168290945Y-80545102D01*
X168403865Y-80389681D01*
X168491082Y-80218509D01*
X168491084Y-80218504D01*
X168512069Y-80153919D01*
X168551506Y-80096243D01*
X168615864Y-80069044D01*
X168684711Y-80080958D01*
X168736187Y-80128202D01*
X168747931Y-80153919D01*
X168768915Y-80218504D01*
X168781543Y-80243287D01*
X168856135Y-80389681D01*
X168969055Y-80545102D01*
X169104898Y-80680945D01*
X169260319Y-80793865D01*
X169431491Y-80881082D01*
X169431493Y-80881083D01*
X169522845Y-80910764D01*
X169614199Y-80940447D01*
X169803945Y-80970500D01*
X169803946Y-80970500D01*
X169996054Y-80970500D01*
X169996055Y-80970500D01*
X170185801Y-80940447D01*
X170368509Y-80881082D01*
X170539681Y-80793865D01*
X170695102Y-80680945D01*
X170830945Y-80545102D01*
X170943865Y-80389681D01*
X171031082Y-80218509D01*
X171090447Y-80035801D01*
X171120500Y-79846055D01*
X171120500Y-79653945D01*
X171090447Y-79464199D01*
X171060424Y-79371797D01*
X171031083Y-79281493D01*
X170943864Y-79110318D01*
X170941378Y-79106896D01*
X170830945Y-78954898D01*
X170695102Y-78819055D01*
X170539681Y-78706135D01*
X170384585Y-78627109D01*
X170368506Y-78618916D01*
X170185802Y-78559553D01*
X170090928Y-78544526D01*
X169996055Y-78529500D01*
X169803945Y-78529500D01*
X169740696Y-78539517D01*
X169614197Y-78559553D01*
X169431493Y-78618916D01*
X169260318Y-78706135D01*
X169197125Y-78752048D01*
X169104898Y-78819055D01*
X169104896Y-78819057D01*
X169104895Y-78819057D01*
X168969057Y-78954895D01*
X168969057Y-78954896D01*
X168969055Y-78954898D01*
X168949400Y-78981951D01*
X168856135Y-79110318D01*
X168768916Y-79281493D01*
X168747931Y-79346081D01*
X168708494Y-79403756D01*
X168644135Y-79430955D01*
X168575289Y-79419041D01*
X168523813Y-79371797D01*
X168512069Y-79346081D01*
X168491083Y-79281493D01*
X168403864Y-79110318D01*
X168401378Y-79106896D01*
X168290945Y-78954898D01*
X168155102Y-78819055D01*
X167999681Y-78706135D01*
X167844585Y-78627109D01*
X167828506Y-78618916D01*
X167645802Y-78559553D01*
X167550928Y-78544526D01*
X167456055Y-78529500D01*
X167263945Y-78529500D01*
X167200696Y-78539517D01*
X167074197Y-78559553D01*
X166891493Y-78618916D01*
X166720318Y-78706135D01*
X166657125Y-78752048D01*
X166564898Y-78819055D01*
X166564896Y-78819057D01*
X166564895Y-78819057D01*
X166429057Y-78954895D01*
X166429057Y-78954896D01*
X166429055Y-78954898D01*
X166409400Y-78981951D01*
X166316135Y-79110318D01*
X166228916Y-79281493D01*
X166207931Y-79346081D01*
X166168494Y-79403756D01*
X166104135Y-79430955D01*
X166035289Y-79419041D01*
X165983813Y-79371797D01*
X165972069Y-79346081D01*
X165951083Y-79281493D01*
X165863864Y-79110318D01*
X165861378Y-79106896D01*
X165750945Y-78954898D01*
X165615102Y-78819055D01*
X165459681Y-78706135D01*
X165304585Y-78627109D01*
X165288506Y-78618916D01*
X165105802Y-78559553D01*
X165010928Y-78544526D01*
X164916055Y-78529500D01*
X164723945Y-78529500D01*
X164660696Y-78539517D01*
X164534197Y-78559553D01*
X164351493Y-78618916D01*
X164180318Y-78706135D01*
X164117125Y-78752048D01*
X164024898Y-78819055D01*
X164024896Y-78819057D01*
X164024895Y-78819057D01*
X163889057Y-78954895D01*
X163889057Y-78954896D01*
X163889055Y-78954898D01*
X163869400Y-78981951D01*
X163776135Y-79110318D01*
X163688916Y-79281493D01*
X163629553Y-79464197D01*
X163605100Y-79618588D01*
X163599500Y-79653945D01*
X159784445Y-79653945D01*
X159772957Y-79618588D01*
X159676451Y-79429184D01*
X159676449Y-79429181D01*
X159676448Y-79429179D01*
X159551509Y-79257213D01*
X159401186Y-79106890D01*
X159229220Y-78981951D01*
X159228515Y-78981591D01*
X159220454Y-78977485D01*
X159169659Y-78929512D01*
X159152863Y-78861692D01*
X159175399Y-78795556D01*
X159220454Y-78756515D01*
X159229216Y-78752051D01*
X159251189Y-78736086D01*
X159401186Y-78627109D01*
X159401188Y-78627106D01*
X159401192Y-78627104D01*
X159551504Y-78476792D01*
X159551506Y-78476788D01*
X159551509Y-78476786D01*
X159676448Y-78304820D01*
X159676447Y-78304820D01*
X159676451Y-78304816D01*
X159772957Y-78115412D01*
X159838646Y-77913243D01*
X159871900Y-77703287D01*
X159871900Y-77490713D01*
X159838646Y-77280757D01*
X159772957Y-77078588D01*
X159676451Y-76889184D01*
X159676449Y-76889181D01*
X159676448Y-76889179D01*
X159551509Y-76717213D01*
X159401186Y-76566890D01*
X159229220Y-76441951D01*
X159228515Y-76441591D01*
X159220454Y-76437485D01*
X159169659Y-76389512D01*
X159152863Y-76321692D01*
X159175399Y-76255556D01*
X159220454Y-76216515D01*
X159229216Y-76212051D01*
X159251189Y-76196086D01*
X159401186Y-76087109D01*
X159401188Y-76087106D01*
X159401192Y-76087104D01*
X159551504Y-75936792D01*
X159551506Y-75936788D01*
X159551509Y-75936786D01*
X159676448Y-75764820D01*
X159676447Y-75764820D01*
X159676451Y-75764816D01*
X159772957Y-75575412D01*
X159838646Y-75373243D01*
X159871900Y-75163287D01*
X159871900Y-74950713D01*
X159838646Y-74740757D01*
X159772957Y-74538588D01*
X159676451Y-74349184D01*
X159661747Y-74328945D01*
X163599500Y-74328945D01*
X163599500Y-74521055D01*
X163602277Y-74538588D01*
X163629553Y-74710802D01*
X163688916Y-74893506D01*
X163717207Y-74949029D01*
X163776135Y-75064681D01*
X163889055Y-75220102D01*
X164024898Y-75355945D01*
X164180319Y-75468865D01*
X164298136Y-75528896D01*
X164351493Y-75556083D01*
X164410983Y-75575412D01*
X164534199Y-75615447D01*
X164723945Y-75645500D01*
X164723946Y-75645500D01*
X164916054Y-75645500D01*
X164916055Y-75645500D01*
X165105801Y-75615447D01*
X165288509Y-75556082D01*
X165459681Y-75468865D01*
X165615102Y-75355945D01*
X165750945Y-75220102D01*
X165863865Y-75064681D01*
X165951082Y-74893509D01*
X165968798Y-74838985D01*
X165972069Y-74828919D01*
X166011506Y-74771243D01*
X166075864Y-74744044D01*
X166144711Y-74755958D01*
X166196187Y-74803202D01*
X166207931Y-74828919D01*
X166228915Y-74893504D01*
X166257207Y-74949029D01*
X166316135Y-75064681D01*
X166429055Y-75220102D01*
X166564898Y-75355945D01*
X166720319Y-75468865D01*
X166838136Y-75528896D01*
X166891493Y-75556083D01*
X166950983Y-75575412D01*
X167074199Y-75615447D01*
X167263945Y-75645500D01*
X167263946Y-75645500D01*
X167456054Y-75645500D01*
X167456055Y-75645500D01*
X167645801Y-75615447D01*
X167828509Y-75556082D01*
X167999681Y-75468865D01*
X168155102Y-75355945D01*
X168290945Y-75220102D01*
X168403865Y-75064681D01*
X168491082Y-74893509D01*
X168508798Y-74838985D01*
X168512069Y-74828919D01*
X168551506Y-74771243D01*
X168615864Y-74744044D01*
X168684711Y-74755958D01*
X168736187Y-74803202D01*
X168747931Y-74828919D01*
X168768915Y-74893504D01*
X168797207Y-74949029D01*
X168856135Y-75064681D01*
X168969055Y-75220102D01*
X169104898Y-75355945D01*
X169260319Y-75468865D01*
X169378136Y-75528896D01*
X169431493Y-75556083D01*
X169490983Y-75575412D01*
X169614199Y-75615447D01*
X169803945Y-75645500D01*
X169803946Y-75645500D01*
X169996054Y-75645500D01*
X169996055Y-75645500D01*
X170185801Y-75615447D01*
X170368509Y-75556082D01*
X170539681Y-75468865D01*
X170695102Y-75355945D01*
X170830945Y-75220102D01*
X170943865Y-75064681D01*
X171031082Y-74893509D01*
X171090447Y-74710801D01*
X171120500Y-74521055D01*
X171120500Y-74328945D01*
X171090447Y-74139199D01*
X171053956Y-74026890D01*
X171031083Y-73956493D01*
X171001017Y-73897486D01*
X170943865Y-73785319D01*
X170830945Y-73629898D01*
X170695102Y-73494055D01*
X170539681Y-73381135D01*
X170368506Y-73293916D01*
X170185802Y-73234553D01*
X170090928Y-73219526D01*
X169996055Y-73204500D01*
X169803945Y-73204500D01*
X169740696Y-73214517D01*
X169614197Y-73234553D01*
X169431493Y-73293916D01*
X169260318Y-73381135D01*
X169225243Y-73406619D01*
X169104898Y-73494055D01*
X169104896Y-73494057D01*
X169104895Y-73494057D01*
X168969057Y-73629895D01*
X168969057Y-73629896D01*
X168969055Y-73629898D01*
X168920560Y-73696645D01*
X168856135Y-73785318D01*
X168768916Y-73956493D01*
X168747931Y-74021081D01*
X168708494Y-74078756D01*
X168644135Y-74105955D01*
X168575289Y-74094041D01*
X168523813Y-74046797D01*
X168512069Y-74021081D01*
X168491083Y-73956493D01*
X168461017Y-73897486D01*
X168403865Y-73785319D01*
X168290945Y-73629898D01*
X168155102Y-73494055D01*
X167999681Y-73381135D01*
X167828506Y-73293916D01*
X167645802Y-73234553D01*
X167550928Y-73219526D01*
X167456055Y-73204500D01*
X167263945Y-73204500D01*
X167200696Y-73214517D01*
X167074197Y-73234553D01*
X166891493Y-73293916D01*
X166720318Y-73381135D01*
X166685243Y-73406619D01*
X166564898Y-73494055D01*
X166564896Y-73494057D01*
X166564895Y-73494057D01*
X166429057Y-73629895D01*
X166429057Y-73629896D01*
X166429055Y-73629898D01*
X166380560Y-73696645D01*
X166316135Y-73785318D01*
X166228916Y-73956493D01*
X166207931Y-74021081D01*
X166168494Y-74078756D01*
X166104135Y-74105955D01*
X166035289Y-74094041D01*
X165983813Y-74046797D01*
X165972069Y-74021081D01*
X165951083Y-73956493D01*
X165921017Y-73897486D01*
X165863865Y-73785319D01*
X165750945Y-73629898D01*
X165615102Y-73494055D01*
X165459681Y-73381135D01*
X165288506Y-73293916D01*
X165105802Y-73234553D01*
X165010928Y-73219526D01*
X164916055Y-73204500D01*
X164723945Y-73204500D01*
X164660696Y-73214517D01*
X164534197Y-73234553D01*
X164351493Y-73293916D01*
X164180318Y-73381135D01*
X164145243Y-73406619D01*
X164024898Y-73494055D01*
X164024896Y-73494057D01*
X164024895Y-73494057D01*
X163889057Y-73629895D01*
X163889057Y-73629896D01*
X163889055Y-73629898D01*
X163840560Y-73696645D01*
X163776135Y-73785318D01*
X163688916Y-73956493D01*
X163629553Y-74139197D01*
X163615925Y-74225243D01*
X163599500Y-74328945D01*
X159661747Y-74328945D01*
X159551509Y-74177213D01*
X159401186Y-74026890D01*
X159229220Y-73901951D01*
X159228515Y-73901591D01*
X159220454Y-73897485D01*
X159169659Y-73849512D01*
X159152863Y-73781692D01*
X159175399Y-73715556D01*
X159220454Y-73676515D01*
X159229216Y-73672051D01*
X159287239Y-73629895D01*
X159401186Y-73547109D01*
X159401188Y-73547106D01*
X159401192Y-73547104D01*
X159551504Y-73396792D01*
X159551506Y-73396788D01*
X159551509Y-73396786D01*
X159676448Y-73224820D01*
X159676447Y-73224820D01*
X159676451Y-73224816D01*
X159772957Y-73035412D01*
X159838646Y-72833243D01*
X159871900Y-72623287D01*
X159871900Y-72410713D01*
X159838646Y-72200757D01*
X159772957Y-71998588D01*
X159676451Y-71809184D01*
X159676449Y-71809181D01*
X159676448Y-71809179D01*
X159551509Y-71637213D01*
X159401186Y-71486890D01*
X159229220Y-71361951D01*
X159228515Y-71361591D01*
X159220454Y-71357485D01*
X159169659Y-71309512D01*
X159152863Y-71241692D01*
X159175399Y-71175556D01*
X159220454Y-71136515D01*
X159229216Y-71132051D01*
X159360147Y-71036925D01*
X159401186Y-71007109D01*
X159401188Y-71007106D01*
X159401192Y-71007104D01*
X159551504Y-70856792D01*
X159551506Y-70856788D01*
X159551509Y-70856786D01*
X159676448Y-70684820D01*
X159676447Y-70684820D01*
X159676451Y-70684816D01*
X159772957Y-70495412D01*
X159838646Y-70293243D01*
X159871900Y-70083287D01*
X159871900Y-69870713D01*
X159838646Y-69660757D01*
X159772957Y-69458588D01*
X159676451Y-69269184D01*
X159676449Y-69269181D01*
X159676448Y-69269179D01*
X159551509Y-69097213D01*
X159458241Y-69003945D01*
X163599500Y-69003945D01*
X163599500Y-69196054D01*
X163629553Y-69385802D01*
X163688916Y-69568506D01*
X163755860Y-69699889D01*
X163776135Y-69739681D01*
X163889055Y-69895102D01*
X164024898Y-70030945D01*
X164180319Y-70143865D01*
X164351491Y-70231082D01*
X164351493Y-70231083D01*
X164442845Y-70260764D01*
X164534199Y-70290447D01*
X164723945Y-70320500D01*
X164723946Y-70320500D01*
X164916054Y-70320500D01*
X164916055Y-70320500D01*
X165105801Y-70290447D01*
X165288509Y-70231082D01*
X165459681Y-70143865D01*
X165615102Y-70030945D01*
X165750945Y-69895102D01*
X165863865Y-69739681D01*
X165951082Y-69568509D01*
X165951084Y-69568504D01*
X165972069Y-69503919D01*
X166011506Y-69446243D01*
X166075864Y-69419044D01*
X166144711Y-69430958D01*
X166196187Y-69478202D01*
X166207931Y-69503919D01*
X166228915Y-69568504D01*
X166295860Y-69699889D01*
X166316135Y-69739681D01*
X166429055Y-69895102D01*
X166564898Y-70030945D01*
X166720319Y-70143865D01*
X166891491Y-70231082D01*
X166891493Y-70231083D01*
X166982845Y-70260764D01*
X167074199Y-70290447D01*
X167263945Y-70320500D01*
X167263946Y-70320500D01*
X167456054Y-70320500D01*
X167456055Y-70320500D01*
X167645801Y-70290447D01*
X167828509Y-70231082D01*
X167999681Y-70143865D01*
X168155102Y-70030945D01*
X168290945Y-69895102D01*
X168403865Y-69739681D01*
X168491082Y-69568509D01*
X168491084Y-69568504D01*
X168512069Y-69503919D01*
X168551506Y-69446243D01*
X168615864Y-69419044D01*
X168684711Y-69430958D01*
X168736187Y-69478202D01*
X168747931Y-69503919D01*
X168768915Y-69568504D01*
X168835860Y-69699889D01*
X168856135Y-69739681D01*
X168969055Y-69895102D01*
X169104898Y-70030945D01*
X169260319Y-70143865D01*
X169431491Y-70231082D01*
X169431493Y-70231083D01*
X169522845Y-70260764D01*
X169614199Y-70290447D01*
X169803945Y-70320500D01*
X169803946Y-70320500D01*
X169996054Y-70320500D01*
X169996055Y-70320500D01*
X170185801Y-70290447D01*
X170368509Y-70231082D01*
X170539681Y-70143865D01*
X170695102Y-70030945D01*
X170830945Y-69895102D01*
X170943865Y-69739681D01*
X171031082Y-69568509D01*
X171090447Y-69385801D01*
X171120500Y-69196055D01*
X171120500Y-69003945D01*
X171090447Y-68814199D01*
X171053892Y-68701692D01*
X171031083Y-68631493D01*
X171010985Y-68592048D01*
X170943865Y-68460319D01*
X170830945Y-68304898D01*
X170695102Y-68169055D01*
X170539681Y-68056135D01*
X170368506Y-67968916D01*
X170185802Y-67909553D01*
X170090928Y-67894526D01*
X169996055Y-67879500D01*
X169803945Y-67879500D01*
X169740696Y-67889517D01*
X169614197Y-67909553D01*
X169431493Y-67968916D01*
X169260318Y-68056135D01*
X169173630Y-68119118D01*
X169104898Y-68169055D01*
X169104896Y-68169057D01*
X169104895Y-68169057D01*
X168969057Y-68304895D01*
X168969057Y-68304896D01*
X168969055Y-68304898D01*
X168960418Y-68316786D01*
X168856135Y-68460318D01*
X168768916Y-68631493D01*
X168747931Y-68696081D01*
X168708494Y-68753756D01*
X168644135Y-68780955D01*
X168575289Y-68769041D01*
X168523813Y-68721797D01*
X168512069Y-68696081D01*
X168491083Y-68631493D01*
X168470985Y-68592048D01*
X168403865Y-68460319D01*
X168290945Y-68304898D01*
X168155102Y-68169055D01*
X167999681Y-68056135D01*
X167828506Y-67968916D01*
X167645802Y-67909553D01*
X167550928Y-67894526D01*
X167456055Y-67879500D01*
X167263945Y-67879500D01*
X167200696Y-67889517D01*
X167074197Y-67909553D01*
X166891493Y-67968916D01*
X166720318Y-68056135D01*
X166633630Y-68119118D01*
X166564898Y-68169055D01*
X166564896Y-68169057D01*
X166564895Y-68169057D01*
X166429057Y-68304895D01*
X166429057Y-68304896D01*
X166429055Y-68304898D01*
X166420418Y-68316786D01*
X166316135Y-68460318D01*
X166228916Y-68631493D01*
X166207931Y-68696081D01*
X166168494Y-68753756D01*
X166104135Y-68780955D01*
X166035289Y-68769041D01*
X165983813Y-68721797D01*
X165972069Y-68696081D01*
X165951083Y-68631493D01*
X165930985Y-68592048D01*
X165863865Y-68460319D01*
X165750945Y-68304898D01*
X165615102Y-68169055D01*
X165459681Y-68056135D01*
X165288506Y-67968916D01*
X165105802Y-67909553D01*
X165010928Y-67894526D01*
X164916055Y-67879500D01*
X164723945Y-67879500D01*
X164660696Y-67889517D01*
X164534197Y-67909553D01*
X164351493Y-67968916D01*
X164180318Y-68056135D01*
X164093630Y-68119118D01*
X164024898Y-68169055D01*
X164024896Y-68169057D01*
X164024895Y-68169057D01*
X163889057Y-68304895D01*
X163889057Y-68304896D01*
X163889055Y-68304898D01*
X163880418Y-68316786D01*
X163776135Y-68460318D01*
X163688916Y-68631493D01*
X163629553Y-68814197D01*
X163599500Y-69003945D01*
X159458241Y-69003945D01*
X159401186Y-68946890D01*
X159229220Y-68821951D01*
X159228515Y-68821591D01*
X159220454Y-68817485D01*
X159169659Y-68769512D01*
X159152863Y-68701692D01*
X159175399Y-68635556D01*
X159220454Y-68596515D01*
X159229216Y-68592051D01*
X159251189Y-68576086D01*
X159401186Y-68467109D01*
X159401188Y-68467106D01*
X159401192Y-68467104D01*
X159551504Y-68316792D01*
X159551506Y-68316788D01*
X159551509Y-68316786D01*
X159676448Y-68144820D01*
X159676447Y-68144820D01*
X159676451Y-68144816D01*
X159772957Y-67955412D01*
X159838646Y-67753243D01*
X159871900Y-67543287D01*
X159871900Y-67330713D01*
X159838646Y-67120757D01*
X159772957Y-66918588D01*
X159676451Y-66729184D01*
X159676449Y-66729181D01*
X159676448Y-66729179D01*
X159551509Y-66557213D01*
X159401186Y-66406890D01*
X159229220Y-66281951D01*
X159228515Y-66281591D01*
X159220454Y-66277485D01*
X159169659Y-66229512D01*
X159152863Y-66161692D01*
X159175399Y-66095556D01*
X159220454Y-66056515D01*
X159229216Y-66052051D01*
X159251189Y-66036086D01*
X159401186Y-65927109D01*
X159401188Y-65927106D01*
X159401192Y-65927104D01*
X159551504Y-65776792D01*
X159551506Y-65776788D01*
X159551509Y-65776786D01*
X159676448Y-65604820D01*
X159676447Y-65604820D01*
X159676451Y-65604816D01*
X159772957Y-65415412D01*
X159838646Y-65213243D01*
X159871900Y-65003287D01*
X159871900Y-64790713D01*
X159838646Y-64580757D01*
X159772957Y-64378588D01*
X159676451Y-64189184D01*
X159676449Y-64189181D01*
X159676448Y-64189179D01*
X159551509Y-64017213D01*
X159401186Y-63866890D01*
X159243136Y-63752062D01*
X159243132Y-63752059D01*
X159229216Y-63741949D01*
X159215821Y-63735124D01*
X159211401Y-63732383D01*
X159191430Y-63710073D01*
X159169659Y-63689512D01*
X159168371Y-63684314D01*
X159164800Y-63680324D01*
X159160572Y-63653945D01*
X163589500Y-63653945D01*
X163589500Y-63846054D01*
X163619553Y-64035802D01*
X163678916Y-64218506D01*
X163678918Y-64218509D01*
X163766135Y-64389681D01*
X163879055Y-64545102D01*
X164014898Y-64680945D01*
X164170319Y-64793865D01*
X164338062Y-64879335D01*
X164341493Y-64881083D01*
X164432845Y-64910764D01*
X164524199Y-64940447D01*
X164713945Y-64970500D01*
X164713946Y-64970500D01*
X164906054Y-64970500D01*
X164906055Y-64970500D01*
X165095801Y-64940447D01*
X165278509Y-64881082D01*
X165449681Y-64793865D01*
X165605102Y-64680945D01*
X165740945Y-64545102D01*
X165853865Y-64389681D01*
X165941082Y-64218509D01*
X165941084Y-64218504D01*
X165962069Y-64153919D01*
X166001506Y-64096243D01*
X166065864Y-64069044D01*
X166134711Y-64080958D01*
X166186187Y-64128202D01*
X166197931Y-64153919D01*
X166218915Y-64218504D01*
X166218918Y-64218509D01*
X166306135Y-64389681D01*
X166419055Y-64545102D01*
X166554898Y-64680945D01*
X166710319Y-64793865D01*
X166878062Y-64879335D01*
X166881493Y-64881083D01*
X166972845Y-64910764D01*
X167064199Y-64940447D01*
X167253945Y-64970500D01*
X167253946Y-64970500D01*
X167446054Y-64970500D01*
X167446055Y-64970500D01*
X167635801Y-64940447D01*
X167818509Y-64881082D01*
X167989681Y-64793865D01*
X168145102Y-64680945D01*
X168280945Y-64545102D01*
X168393865Y-64389681D01*
X168481082Y-64218509D01*
X168481084Y-64218504D01*
X168502069Y-64153919D01*
X168541506Y-64096243D01*
X168605864Y-64069044D01*
X168674711Y-64080958D01*
X168726187Y-64128202D01*
X168737931Y-64153919D01*
X168758915Y-64218504D01*
X168758918Y-64218509D01*
X168846135Y-64389681D01*
X168959055Y-64545102D01*
X169094898Y-64680945D01*
X169250319Y-64793865D01*
X169418062Y-64879335D01*
X169421493Y-64881083D01*
X169512845Y-64910764D01*
X169604199Y-64940447D01*
X169793945Y-64970500D01*
X169793946Y-64970500D01*
X169986054Y-64970500D01*
X169986055Y-64970500D01*
X170175801Y-64940447D01*
X170358509Y-64881082D01*
X170529681Y-64793865D01*
X170685102Y-64680945D01*
X170820945Y-64545102D01*
X170933865Y-64389681D01*
X171021082Y-64218509D01*
X171080447Y-64035801D01*
X171110500Y-63846055D01*
X171110500Y-63653945D01*
X171080447Y-63464199D01*
X171050424Y-63371797D01*
X171021083Y-63281493D01*
X171021082Y-63281491D01*
X170933865Y-63110319D01*
X170820945Y-62954898D01*
X170685102Y-62819055D01*
X170529681Y-62706135D01*
X170358506Y-62618916D01*
X170175802Y-62559553D01*
X170080928Y-62544526D01*
X169986055Y-62529500D01*
X169793945Y-62529500D01*
X169730696Y-62539517D01*
X169604197Y-62559553D01*
X169421493Y-62618916D01*
X169250318Y-62706135D01*
X169161645Y-62770560D01*
X169094898Y-62819055D01*
X169094896Y-62819057D01*
X169094895Y-62819057D01*
X168959057Y-62954895D01*
X168959057Y-62954896D01*
X168959055Y-62954898D01*
X168910560Y-63021645D01*
X168846135Y-63110318D01*
X168758916Y-63281493D01*
X168737931Y-63346081D01*
X168698494Y-63403756D01*
X168634135Y-63430955D01*
X168565289Y-63419041D01*
X168513813Y-63371797D01*
X168502069Y-63346081D01*
X168481083Y-63281493D01*
X168481082Y-63281491D01*
X168393865Y-63110319D01*
X168280945Y-62954898D01*
X168145102Y-62819055D01*
X167989681Y-62706135D01*
X167818506Y-62618916D01*
X167635802Y-62559553D01*
X167540928Y-62544526D01*
X167446055Y-62529500D01*
X167253945Y-62529500D01*
X167190696Y-62539517D01*
X167064197Y-62559553D01*
X166881493Y-62618916D01*
X166710318Y-62706135D01*
X166621645Y-62770560D01*
X166554898Y-62819055D01*
X166554896Y-62819057D01*
X166554895Y-62819057D01*
X166419057Y-62954895D01*
X166419057Y-62954896D01*
X166419055Y-62954898D01*
X166370560Y-63021645D01*
X166306135Y-63110318D01*
X166218916Y-63281493D01*
X166197931Y-63346081D01*
X166158494Y-63403756D01*
X166094135Y-63430955D01*
X166025289Y-63419041D01*
X165973813Y-63371797D01*
X165962069Y-63346081D01*
X165941083Y-63281493D01*
X165941082Y-63281491D01*
X165853865Y-63110319D01*
X165740945Y-62954898D01*
X165605102Y-62819055D01*
X165449681Y-62706135D01*
X165278506Y-62618916D01*
X165095802Y-62559553D01*
X165000928Y-62544526D01*
X164906055Y-62529500D01*
X164713945Y-62529500D01*
X164650696Y-62539517D01*
X164524197Y-62559553D01*
X164341493Y-62618916D01*
X164170318Y-62706135D01*
X164081645Y-62770560D01*
X164014898Y-62819055D01*
X164014896Y-62819057D01*
X164014895Y-62819057D01*
X163879057Y-62954895D01*
X163879057Y-62954896D01*
X163879055Y-62954898D01*
X163830560Y-63021645D01*
X163766135Y-63110318D01*
X163678916Y-63281493D01*
X163619553Y-63464197D01*
X163589500Y-63653945D01*
X159160572Y-63653945D01*
X159160060Y-63650753D01*
X159152863Y-63621692D01*
X159154589Y-63616624D01*
X159153742Y-63611335D01*
X159165742Y-63583895D01*
X159175399Y-63555556D01*
X159179806Y-63551737D01*
X159181738Y-63547320D01*
X159195399Y-63538225D01*
X159220454Y-63516515D01*
X159229216Y-63512051D01*
X159340836Y-63430955D01*
X159401186Y-63387109D01*
X159401188Y-63387106D01*
X159401192Y-63387104D01*
X159551504Y-63236792D01*
X159551506Y-63236788D01*
X159551509Y-63236786D01*
X159676448Y-63064820D01*
X159676447Y-63064820D01*
X159676451Y-63064816D01*
X159772957Y-62875412D01*
X159838646Y-62673243D01*
X159871900Y-62463287D01*
X159871900Y-62250713D01*
X159838646Y-62040757D01*
X159772957Y-61838588D01*
X159676451Y-61649184D01*
X159676449Y-61649181D01*
X159676448Y-61649179D01*
X159551509Y-61477213D01*
X159401186Y-61326890D01*
X159229220Y-61201951D01*
X159039814Y-61105444D01*
X159039813Y-61105443D01*
X159039812Y-61105443D01*
X158837643Y-61039754D01*
X158837641Y-61039753D01*
X158837640Y-61039753D01*
X158676357Y-61014208D01*
X158627687Y-61006500D01*
X158415113Y-61006500D01*
X158366442Y-61014208D01*
X158205160Y-61039753D01*
X158002985Y-61105444D01*
X157813579Y-61201951D01*
X157641613Y-61326890D01*
X157491290Y-61477213D01*
X157366351Y-61649179D01*
X157269844Y-61838585D01*
X157204153Y-62040760D01*
X157170900Y-62250713D01*
X157170900Y-62463286D01*
X157195549Y-62618918D01*
X157204154Y-62673243D01*
X157251531Y-62819055D01*
X157269844Y-62875414D01*
X157366351Y-63064820D01*
X157491290Y-63236786D01*
X157641613Y-63387109D01*
X157813582Y-63512050D01*
X157822346Y-63516516D01*
X157873142Y-63564491D01*
X157889936Y-63632312D01*
X157867398Y-63698447D01*
X157822346Y-63737484D01*
X157813582Y-63741949D01*
X157641613Y-63866890D01*
X157491290Y-64017213D01*
X157366351Y-64189179D01*
X157269844Y-64378585D01*
X157204153Y-64580760D01*
X157170900Y-64790713D01*
X157170900Y-65003286D01*
X157202944Y-65205608D01*
X157204154Y-65213243D01*
X157225541Y-65279066D01*
X157269844Y-65415414D01*
X157366351Y-65604820D01*
X157491290Y-65776786D01*
X157641613Y-65927109D01*
X157813582Y-66052050D01*
X157822346Y-66056516D01*
X157873142Y-66104491D01*
X157889936Y-66172312D01*
X157867398Y-66238447D01*
X157822346Y-66277484D01*
X157813582Y-66281949D01*
X157641613Y-66406890D01*
X157491290Y-66557213D01*
X157366351Y-66729179D01*
X157269844Y-66918585D01*
X157204153Y-67120760D01*
X157170900Y-67330713D01*
X157170900Y-67543287D01*
X157204154Y-67753243D01*
X157254942Y-67909553D01*
X157269844Y-67955414D01*
X157366351Y-68144820D01*
X157491290Y-68316786D01*
X157641613Y-68467109D01*
X157813582Y-68592050D01*
X157822346Y-68596516D01*
X157873142Y-68644491D01*
X157889936Y-68712312D01*
X157867398Y-68778447D01*
X157822346Y-68817484D01*
X157813582Y-68821949D01*
X157641613Y-68946890D01*
X157491290Y-69097213D01*
X157366351Y-69269179D01*
X157269844Y-69458585D01*
X157204153Y-69660760D01*
X157170900Y-69870713D01*
X157170900Y-70083286D01*
X157194308Y-70231082D01*
X157204154Y-70293243D01*
X157261952Y-70471127D01*
X157269844Y-70495414D01*
X157366351Y-70684820D01*
X157491290Y-70856786D01*
X157641613Y-71007109D01*
X157813582Y-71132050D01*
X157822346Y-71136516D01*
X157873142Y-71184491D01*
X157889936Y-71252312D01*
X157867398Y-71318447D01*
X157822346Y-71357484D01*
X157813582Y-71361949D01*
X157641613Y-71486890D01*
X157491290Y-71637213D01*
X157366351Y-71809179D01*
X157269844Y-71998585D01*
X157204153Y-72200760D01*
X157170900Y-72410713D01*
X157170900Y-72623286D01*
X157195820Y-72780629D01*
X157204154Y-72833243D01*
X157267829Y-73029215D01*
X157269844Y-73035414D01*
X157366351Y-73224820D01*
X157491290Y-73396786D01*
X157501123Y-73406619D01*
X157534608Y-73467942D01*
X157529624Y-73537634D01*
X157487752Y-73593567D01*
X157422288Y-73617984D01*
X157413442Y-73618300D01*
X156230697Y-73618300D01*
X156163658Y-73598615D01*
X156143016Y-73581981D01*
X155555284Y-72994249D01*
X155547521Y-72986486D01*
X155547520Y-72986484D01*
X155435716Y-72874680D01*
X155426184Y-72869177D01*
X155415174Y-72858510D01*
X155405198Y-72840909D01*
X155391235Y-72826263D01*
X155386046Y-72807118D01*
X155380722Y-72797725D01*
X155381194Y-72789220D01*
X155378843Y-72780544D01*
X155378054Y-72780629D01*
X155375157Y-72753681D01*
X155371291Y-72717717D01*
X155371289Y-72717713D01*
X155371053Y-72716711D01*
X155370960Y-72714642D01*
X155370462Y-72710004D01*
X155370752Y-72709972D01*
X155368991Y-72670546D01*
X155382700Y-72575200D01*
X155382700Y-71959374D01*
X155365475Y-71828538D01*
X155331400Y-71701371D01*
X155280901Y-71579457D01*
X155280898Y-71579452D01*
X155280897Y-71579449D01*
X155280896Y-71579448D01*
X155215079Y-71465450D01*
X155215075Y-71465443D01*
X155134741Y-71360751D01*
X155041649Y-71267659D01*
X154990691Y-71228557D01*
X154936967Y-71187332D01*
X154936949Y-71187320D01*
X154822951Y-71121503D01*
X154822950Y-71121502D01*
X154701029Y-71071000D01*
X154573858Y-71036924D01*
X154443033Y-71019700D01*
X154443026Y-71019700D01*
X153811374Y-71019700D01*
X153811366Y-71019700D01*
X153680541Y-71036924D01*
X153553370Y-71071000D01*
X153431449Y-71121502D01*
X153431448Y-71121503D01*
X153317450Y-71187320D01*
X153317432Y-71187332D01*
X153212755Y-71267655D01*
X153212745Y-71267664D01*
X153119664Y-71360745D01*
X153119655Y-71360755D01*
X153039332Y-71465432D01*
X153039320Y-71465450D01*
X152973503Y-71579448D01*
X152973502Y-71579449D01*
X152973499Y-71579457D01*
X152960286Y-71611355D01*
X152916447Y-71665756D01*
X152850153Y-71687821D01*
X152845727Y-71687900D01*
X152223500Y-71687900D01*
X152156461Y-71668215D01*
X152110706Y-71615411D01*
X152099500Y-71563900D01*
X152099499Y-70471129D01*
X152099498Y-70471123D01*
X152099497Y-70471116D01*
X152093091Y-70411517D01*
X152047934Y-70290446D01*
X152042797Y-70276671D01*
X152042793Y-70276664D01*
X151956547Y-70161455D01*
X151956544Y-70161452D01*
X151841335Y-70075206D01*
X151841328Y-70075202D01*
X151706482Y-70024908D01*
X151706483Y-70024908D01*
X151646883Y-70018501D01*
X151646881Y-70018500D01*
X151646873Y-70018500D01*
X151646864Y-70018500D01*
X149851129Y-70018500D01*
X149851123Y-70018501D01*
X149791516Y-70024908D01*
X149656671Y-70075202D01*
X149656664Y-70075206D01*
X149541455Y-70161452D01*
X149541452Y-70161455D01*
X149455206Y-70276664D01*
X149455202Y-70276671D01*
X149404908Y-70411517D01*
X149398501Y-70471116D01*
X149398501Y-70471123D01*
X149398500Y-70471135D01*
X148388391Y-70471135D01*
X148437600Y-65328800D01*
X148437599Y-65328799D01*
X142668460Y-65279066D01*
X142601593Y-65258805D01*
X142556295Y-65205608D01*
X142545531Y-65154340D01*
X142582540Y-58899953D01*
X147510100Y-58899953D01*
X147510100Y-59057646D01*
X147540861Y-59212289D01*
X147540864Y-59212301D01*
X147601202Y-59357972D01*
X147601209Y-59357985D01*
X147688810Y-59489088D01*
X147688813Y-59489092D01*
X147800307Y-59600586D01*
X147800311Y-59600589D01*
X147931414Y-59688190D01*
X147931427Y-59688197D01*
X148018830Y-59724399D01*
X148077103Y-59748537D01*
X148141971Y-59761439D01*
X148203880Y-59793822D01*
X148232340Y-59835604D01*
X148287002Y-59967572D01*
X148287009Y-59967585D01*
X148374610Y-60098688D01*
X148374613Y-60098692D01*
X148486107Y-60210186D01*
X148486111Y-60210189D01*
X148617214Y-60297790D01*
X148617227Y-60297797D01*
X148762898Y-60358135D01*
X148762903Y-60358137D01*
X148917553Y-60388899D01*
X148917556Y-60388900D01*
X148917558Y-60388900D01*
X149075244Y-60388900D01*
X149075245Y-60388899D01*
X149229897Y-60358137D01*
X149375579Y-60297794D01*
X149375585Y-60297790D01*
X149507275Y-60209798D01*
X149573953Y-60188920D01*
X149576166Y-60188900D01*
X151109034Y-60188900D01*
X151176073Y-60208585D01*
X151177925Y-60209798D01*
X151309614Y-60297790D01*
X151309627Y-60297797D01*
X151455298Y-60358135D01*
X151455303Y-60358137D01*
X151609953Y-60388899D01*
X151609956Y-60388900D01*
X151609958Y-60388900D01*
X151767644Y-60388900D01*
X151767645Y-60388899D01*
X151922297Y-60358137D01*
X152067979Y-60297794D01*
X152199089Y-60210189D01*
X152310589Y-60098689D01*
X152398194Y-59967579D01*
X152458537Y-59821897D01*
X152489300Y-59667242D01*
X152489300Y-59509558D01*
X152489300Y-59509555D01*
X152489299Y-59509553D01*
X152459150Y-59357985D01*
X152458537Y-59354903D01*
X152399470Y-59212301D01*
X152398197Y-59209227D01*
X152398190Y-59209214D01*
X152310589Y-59078111D01*
X152310586Y-59078107D01*
X152199092Y-58966613D01*
X152199088Y-58966610D01*
X152067985Y-58879009D01*
X152067972Y-58879002D01*
X151922301Y-58818664D01*
X151922295Y-58818662D01*
X151912786Y-58816771D01*
X151850876Y-58784384D01*
X151822420Y-58742606D01*
X151763197Y-58599627D01*
X151763190Y-58599614D01*
X151675589Y-58468511D01*
X151675586Y-58468507D01*
X151564092Y-58357013D01*
X151564088Y-58357010D01*
X151432985Y-58269409D01*
X151432972Y-58269402D01*
X151287301Y-58209064D01*
X151287289Y-58209061D01*
X151132645Y-58178300D01*
X151132642Y-58178300D01*
X150974958Y-58178300D01*
X150974955Y-58178300D01*
X150820310Y-58209061D01*
X150820298Y-58209064D01*
X150674627Y-58269402D01*
X150674614Y-58269409D01*
X150542925Y-58357402D01*
X150476247Y-58378280D01*
X150474034Y-58378300D01*
X148890366Y-58378300D01*
X148823327Y-58358615D01*
X148821475Y-58357402D01*
X148689785Y-58269409D01*
X148689772Y-58269402D01*
X148544101Y-58209064D01*
X148544089Y-58209061D01*
X148389445Y-58178300D01*
X148389442Y-58178300D01*
X148231758Y-58178300D01*
X148231755Y-58178300D01*
X148077110Y-58209061D01*
X148077098Y-58209064D01*
X147931427Y-58269402D01*
X147931414Y-58269409D01*
X147800311Y-58357010D01*
X147800307Y-58357013D01*
X147688813Y-58468507D01*
X147688810Y-58468511D01*
X147601209Y-58599614D01*
X147601202Y-58599627D01*
X147540864Y-58745298D01*
X147540861Y-58745310D01*
X147510100Y-58899953D01*
X142582540Y-58899953D01*
X142594870Y-56816124D01*
X142614951Y-56749203D01*
X142668025Y-56703762D01*
X142718924Y-56692859D01*
X157451159Y-56700000D01*
X175307966Y-56692801D01*
X175313636Y-56692928D01*
G37*
%TD.AperFunction*%
%TD*%
M02*
