M48
; DRILL file {KiCad 9.0.6} date 2025-12-12T12:45:16+0000
; FORMAT={-:-/ absolute / metric / decimal}
; #@! TF.CreationDate,2025-12-12T12:45:16+00:00
; #@! TF.GenerationSoftware,Kicad,Pcbnew,9.0.6
; #@! TF.FileFunction,Plated,1,2,PTH
FMAT,2
METRIC
; #@! TA.AperFunction,Plated,PTH,ViaDrill
T1C0.300
; #@! TA.AperFunction,Plated,PTH,ViaDrill
T2C0.400
; #@! TA.AperFunction,Plated,PTH,ComponentDrill
T3C0.800
; #@! TA.AperFunction,Plated,PTH,ComponentDrill
T4C0.850
; #@! TA.AperFunction,Plated,PTH,ComponentDrill
T5C0.900
; #@! TA.AperFunction,Plated,PTH,ComponentDrill
T6C1.000
; #@! TA.AperFunction,Plated,PTH,ComponentDrill
T7C1.300
%
G90
G05
T1
X113.386Y-76.302
X114.225Y-73.75
X118.85Y-66.5
X124.155Y-69.266
X128.05Y-79.045
X128.067Y-79.807
X128.067Y-80.62
X131.267Y-60.909
X131.674Y-84.074
X133.172Y-66.55
X134.722Y-84.023
X137.16Y-78.181
X142.184Y-69.19
X144.526Y-84.277
X145.136Y-80.416
X145.237Y-82.093
X145.45Y-69.25
X146.65Y-69.25
X146.736Y-61.138
X147.904Y-76.581
X148.311Y-58.979
X148.996Y-59.588
X149.885Y-82.067
X150.343Y-65.964
X150.585Y-77.267
X151.054Y-58.979
X151.181Y-80.416
X151.689Y-59.588
X151.689Y-80.924
X153.162Y-66.954
X154.432Y-61.062
X154.915Y-59.995
X155.829Y-75.133
X155.829Y-78.384
X155.905Y-71.831
X156.718Y-65.329
X157.15Y-58.191
X174.219Y-82.093
X175.235Y-76.784
X175.768Y-63.5
X175.92Y-69.494
T2
X162.408Y-84.684
T3
X139.136Y-80.213
X139.136Y-82.753
X139.136Y-85.293
X164.81Y-63.75
X164.82Y-69.1
X164.82Y-74.425
X164.82Y-79.75
X167.35Y-63.75
X167.36Y-69.1
X167.36Y-74.425
X167.36Y-79.75
X169.89Y-63.75
X169.9Y-69.1
X169.9Y-74.425
X169.9Y-79.75
T4
X110.551Y-81.386
X113.091Y-81.386
X118.171Y-81.386
X120.711Y-81.386
X123.251Y-81.386
T5
X131.03Y-73.2
X133.57Y-73.2
T6
X120.075Y-57.75
X134.468Y-62.306
X134.468Y-64.846
X136.96Y-68.61
X136.96Y-71.15
X137.008Y-62.306
X137.008Y-64.846
X139.5Y-68.61
X139.5Y-71.15
X139.548Y-62.306
X139.548Y-64.846
X141.15Y-57.8
X150.749Y-71.369
X150.749Y-73.909
X158.521Y-62.357
X158.521Y-64.897
X158.521Y-67.437
X158.521Y-69.977
X158.521Y-72.517
X158.521Y-75.057
X158.521Y-77.597
X158.521Y-80.137
X158.521Y-82.677
X158.521Y-85.217
X173.939Y-84.099
X173.939Y-86.639
T7
X111.811Y-59.741
X111.811Y-64.821
X188.163Y-59.792
X188.163Y-64.872
X188.163Y-69.952
X188.163Y-74.981
X188.163Y-80.061
X188.163Y-85.141
M30
