M48
; DRILL file {KiCad 9.0.6-rc1} date 2025-10-23T11:59:14+0100
; FORMAT={-:-/ absolute / metric / decimal}
; #@! TF.CreationDate,2025-10-23T11:59:14+01:00
; #@! TF.GenerationSoftware,Kicad,Pcbnew,9.0.6-rc1
; #@! TF.FileFunction,Plated,1,2,PTH
FMAT,2
METRIC
; #@! TA.AperFunction,Plated,PTH,ViaDrill
T1C0.300
; #@! TA.AperFunction,Plated,PTH,ViaDrill
T2C0.500
; #@! TA.AperFunction,Plated,PTH,ViaDrill
T3C0.700
; #@! TA.AperFunction,Plated,PTH,ComponentDrill
T4C0.800
; #@! TA.AperFunction,Plated,PTH,ComponentDrill
T5C0.850
; #@! TA.AperFunction,Plated,PTH,ComponentDrill
T6C0.900
; #@! TA.AperFunction,Plated,PTH,ComponentDrill
T7C1.000
; #@! TA.AperFunction,Plated,PTH,ComponentDrill
T8C1.300
%
G90
G05
T1
X113.45Y-76.7
X114.225Y-73.75
X118.85Y-61.927
X119.8Y-76.6
X121.0Y-76.55
X124.484Y-69.266
X131.2Y-59.876
X132.125Y-65.2
X140.683Y-77.775
X141.625Y-68.925
X142.525Y-83.35
X145.45Y-69.25
X145.925Y-61.037
X146.65Y-69.25
X147.725Y-75.975
X147.765Y-60.122
X148.2Y-64.743
X149.525Y-63.475
X150.75Y-63.25
X153.55Y-85.2
X154.381Y-66.45
X154.415Y-60.738
X154.8Y-72.85
X155.625Y-85.425
X155.875Y-70.775
X160.2Y-78.45
X161.569Y-58.801
X162.382Y-80.569
X162.433Y-67.577
X162.433Y-74.003
T2
X150.35Y-76.35
X151.8Y-81.575
X162.25Y-84.375
T3
X127.45Y-81.7
T4
X164.81Y-63.75
X164.82Y-69.1
X164.82Y-74.425
X164.82Y-79.75
X167.35Y-63.75
X167.36Y-69.1
X167.36Y-74.425
X167.36Y-79.75
X169.89Y-63.75
X169.9Y-69.1
X169.9Y-74.425
X169.9Y-79.75
T5
X110.58Y-81.667
X113.12Y-81.667
X118.2Y-81.667
X120.74Y-81.667
X123.28Y-81.667
T6
X131.03Y-73.2
X133.57Y-73.2
T7
X120.075Y-57.75
X134.468Y-62.306
X134.468Y-64.846
X136.96Y-68.61
X136.96Y-71.15
X137.008Y-62.306
X137.008Y-64.846
X139.5Y-68.61
X139.5Y-71.15
X139.548Y-62.306
X139.548Y-64.846
X141.15Y-57.8
X150.597Y-68.611
X150.597Y-71.151
X158.275Y-62.115
X158.275Y-64.655
X158.275Y-67.195
X158.275Y-69.735
X158.275Y-72.275
X158.275Y-74.815
X158.275Y-77.355
X158.275Y-79.895
X158.275Y-82.435
X158.275Y-84.975
X173.939Y-84.099
X173.939Y-86.639
T8
X111.811Y-59.741
X111.811Y-64.821
X188.163Y-59.792
X188.163Y-64.872
X188.163Y-69.952
X188.163Y-74.981
X188.163Y-80.061
X188.163Y-85.141
M30
