%TF.GenerationSoftware,KiCad,Pcbnew,9.0.6-rc1*%
%TF.CreationDate,2025-10-23T11:59:12+01:00*%
%TF.ProjectId,PIDI-BOX-01-ADC-4-MAIN-A1,50494449-2d42-44f5-982d-30312d414443,rev?*%
%TF.SameCoordinates,Original*%
%TF.FileFunction,Paste,Top*%
%TF.FilePolarity,Positive*%
%FSLAX46Y46*%
G04 Gerber Fmt 4.6, Leading zero omitted, Abs format (unit mm)*
G04 Created by KiCad (PCBNEW 9.0.6-rc1) date 2025-10-23 11:59:12*
%MOMM*%
%LPD*%
G01*
G04 APERTURE LIST*
G04 Aperture macros list*
%AMRoundRect*
0 Rectangle with rounded corners*
0 $1 Rounding radius*
0 $2 $3 $4 $5 $6 $7 $8 $9 X,Y pos of 4 corners*
0 Add a 4 corners polygon primitive as box body*
4,1,4,$2,$3,$4,$5,$6,$7,$8,$9,$2,$3,0*
0 Add four circle primitives for the rounded corners*
1,1,$1+$1,$2,$3*
1,1,$1+$1,$4,$5*
1,1,$1+$1,$6,$7*
1,1,$1+$1,$8,$9*
0 Add four rect primitives between the rounded corners*
20,1,$1+$1,$2,$3,$4,$5,0*
20,1,$1+$1,$4,$5,$6,$7,0*
20,1,$1+$1,$6,$7,$8,$9,0*
20,1,$1+$1,$8,$9,$2,$3,0*%
G04 Aperture macros list end*
%ADD10RoundRect,0.200000X0.200000X0.275000X-0.200000X0.275000X-0.200000X-0.275000X0.200000X-0.275000X0*%
%ADD11R,1.750000X0.650000*%
%ADD12RoundRect,0.225000X-0.250000X0.225000X-0.250000X-0.225000X0.250000X-0.225000X0.250000X0.225000X0*%
%ADD13RoundRect,0.225000X0.225000X0.250000X-0.225000X0.250000X-0.225000X-0.250000X0.225000X-0.250000X0*%
%ADD14RoundRect,0.225000X-0.225000X-0.250000X0.225000X-0.250000X0.225000X0.250000X-0.225000X0.250000X0*%
%ADD15RoundRect,0.200000X-0.275000X0.200000X-0.275000X-0.200000X0.275000X-0.200000X0.275000X0.200000X0*%
%ADD16R,2.260600X2.209800*%
%ADD17R,0.250000X1.100000*%
%ADD18RoundRect,0.200000X0.275000X-0.200000X0.275000X0.200000X-0.275000X0.200000X-0.275000X-0.200000X0*%
%ADD19RoundRect,0.225000X0.250000X-0.225000X0.250000X0.225000X-0.250000X0.225000X-0.250000X-0.225000X0*%
%ADD20RoundRect,0.200000X-0.200000X-0.275000X0.200000X-0.275000X0.200000X0.275000X-0.200000X0.275000X0*%
%ADD21RoundRect,0.250000X1.000000X0.650000X-1.000000X0.650000X-1.000000X-0.650000X1.000000X-0.650000X0*%
%ADD22RoundRect,0.250000X-0.945000X0.420000X-0.945000X-0.420000X0.945000X-0.420000X0.945000X0.420000X0*%
%ADD23RoundRect,0.375000X-0.375000X0.625000X-0.375000X-0.625000X0.375000X-0.625000X0.375000X0.625000X0*%
%ADD24RoundRect,0.500000X-1.400000X0.500000X-1.400000X-0.500000X1.400000X-0.500000X1.400000X0.500000X0*%
%ADD25RoundRect,0.150000X0.150000X-0.825000X0.150000X0.825000X-0.150000X0.825000X-0.150000X-0.825000X0*%
%ADD26RoundRect,0.250000X0.400000X0.400000X-0.400000X0.400000X-0.400000X-0.400000X0.400000X-0.400000X0*%
%ADD27RoundRect,0.250000X0.750000X0.400000X-0.750000X0.400000X-0.750000X-0.400000X0.750000X-0.400000X0*%
%ADD28RoundRect,0.250000X0.475000X-0.250000X0.475000X0.250000X-0.475000X0.250000X-0.475000X-0.250000X0*%
%ADD29RoundRect,0.150000X0.150000X-0.587500X0.150000X0.587500X-0.150000X0.587500X-0.150000X-0.587500X0*%
%ADD30RoundRect,0.218750X0.218750X0.256250X-0.218750X0.256250X-0.218750X-0.256250X0.218750X-0.256250X0*%
%ADD31R,1.000000X1.400000*%
%ADD32RoundRect,0.250000X1.950000X1.000000X-1.950000X1.000000X-1.950000X-1.000000X1.950000X-1.000000X0*%
%ADD33R,2.209800X2.260600*%
%ADD34RoundRect,0.250000X-0.250000X-0.475000X0.250000X-0.475000X0.250000X0.475000X-0.250000X0.475000X0*%
%ADD35RoundRect,0.250000X-0.785000X-0.945000X0.785000X-0.945000X0.785000X0.945000X-0.785000X0.945000X0*%
G04 APERTURE END LIST*
D10*
%TO.C,R20*%
X174865800Y-60883800D03*
X173215800Y-60883800D03*
%TD*%
D11*
%TO.C,IC1*%
X120325000Y-78020000D03*
X120325000Y-75480000D03*
X114175000Y-75480000D03*
X114175000Y-78020000D03*
%TD*%
D12*
%TO.C,C16*%
X161290000Y-66027000D03*
X161290000Y-67577000D03*
%TD*%
D13*
%TO.C,C15*%
X164503400Y-58597800D03*
X162953400Y-58597800D03*
%TD*%
D14*
%TO.C,C3*%
X148750000Y-75075000D03*
X150300000Y-75075000D03*
%TD*%
%TO.C,C8*%
X138125000Y-77775000D03*
X139675000Y-77775000D03*
%TD*%
D10*
%TO.C,R22*%
X174879000Y-72745600D03*
X173229000Y-72745600D03*
%TD*%
D15*
%TO.C,R3*%
X142200000Y-70025000D03*
X142200000Y-71675000D03*
%TD*%
D16*
%TO.C,CR3*%
X177901600Y-65925700D03*
X177901600Y-70015100D03*
%TD*%
D13*
%TO.C,C21*%
X121525000Y-63425600D03*
X119975000Y-63425600D03*
%TD*%
D17*
%TO.C,U4*%
X153400000Y-68150000D03*
X153900000Y-68150000D03*
X154400000Y-68150000D03*
X154900000Y-68150000D03*
X155400000Y-68150000D03*
X155400000Y-63850000D03*
X154900000Y-63850000D03*
X154400000Y-63850000D03*
X153900000Y-63850000D03*
X153400000Y-63850000D03*
%TD*%
D10*
%TO.C,R7*%
X149975000Y-58025000D03*
X148325000Y-58025000D03*
%TD*%
D18*
%TO.C,R5*%
X143050000Y-81800000D03*
X143050000Y-80150000D03*
%TD*%
D16*
%TO.C,CR4*%
X177901600Y-72961500D03*
X177901600Y-77050900D03*
%TD*%
D19*
%TO.C,C6*%
X143175000Y-85775000D03*
X143175000Y-84225000D03*
%TD*%
D10*
%TO.C,R11*%
X167677600Y-58597800D03*
X166027600Y-58597800D03*
%TD*%
D20*
%TO.C,R19*%
X110375000Y-74700000D03*
X112025000Y-74700000D03*
%TD*%
%TO.C,R31*%
X154075000Y-74550000D03*
X155725000Y-74550000D03*
%TD*%
D14*
%TO.C,C13*%
X153375000Y-61544200D03*
X154925000Y-61544200D03*
%TD*%
D15*
%TO.C,R13*%
X161315400Y-69329800D03*
X161315400Y-70979800D03*
%TD*%
D20*
%TO.C,R15*%
X173190400Y-63500000D03*
X174840400Y-63500000D03*
%TD*%
D15*
%TO.C,R27*%
X181025800Y-79997800D03*
X181025800Y-81647800D03*
%TD*%
D19*
%TO.C,C9*%
X163775000Y-85350000D03*
X163775000Y-83800000D03*
%TD*%
D16*
%TO.C,CR2*%
X177901600Y-58877200D03*
X177901600Y-62966600D03*
%TD*%
D14*
%TO.C,C5*%
X143975000Y-70450000D03*
X145525000Y-70450000D03*
%TD*%
D21*
%TO.C,D4*%
X128300000Y-62800000D03*
X124300000Y-62800000D03*
%TD*%
D22*
%TO.C,C2*%
X153873200Y-78635000D03*
X153873200Y-81715000D03*
%TD*%
D23*
%TO.C,U3*%
X135137500Y-80450000D03*
X132837500Y-80450000D03*
D24*
X132837500Y-86750000D03*
D23*
X130537500Y-80450000D03*
%TD*%
D25*
%TO.C,U2*%
X142889200Y-67651400D03*
X144159200Y-67651400D03*
X145429200Y-67651400D03*
X146699200Y-67651400D03*
X146699200Y-62701400D03*
X145429200Y-62701400D03*
X144159200Y-62701400D03*
X142889200Y-62701400D03*
%TD*%
D20*
%TO.C,R16*%
X173190400Y-69494400D03*
X174840400Y-69494400D03*
%TD*%
D15*
%TO.C,R14*%
X161315400Y-75959200D03*
X161315400Y-77609200D03*
%TD*%
D26*
%TO.C,RV1*%
X138206800Y-85122200D03*
D27*
X139356800Y-79622200D03*
D26*
X140506800Y-85122200D03*
%TD*%
D28*
%TO.C,C19*%
X116450000Y-72400000D03*
X116450000Y-70500000D03*
%TD*%
D10*
%TO.C,R1*%
X134175000Y-68100000D03*
X132525000Y-68100000D03*
%TD*%
D29*
%TO.C,Q1*%
X153775000Y-72812500D03*
X155675000Y-72812500D03*
X154725000Y-70937500D03*
%TD*%
D19*
%TO.C,C1*%
X131050000Y-66725000D03*
X131050000Y-65175000D03*
%TD*%
D20*
%TO.C,R28*%
X119925000Y-61800000D03*
X121575000Y-61800000D03*
%TD*%
D10*
%TO.C,R4*%
X133550000Y-78225000D03*
X131900000Y-78225000D03*
%TD*%
D15*
%TO.C,R26*%
X181025800Y-72606400D03*
X181025800Y-74256400D03*
%TD*%
%TO.C,R10*%
X150750000Y-60575000D03*
X150750000Y-62225000D03*
%TD*%
D10*
%TO.C,R29*%
X155175000Y-84000000D03*
X153525000Y-84000000D03*
%TD*%
%TO.C,R21*%
X174853600Y-66725800D03*
X173203600Y-66725800D03*
%TD*%
D30*
%TO.C,D1*%
X136500000Y-78225000D03*
X134925000Y-78225000D03*
%TD*%
%TO.C,D2*%
X111936700Y-76351000D03*
X110361700Y-76351000D03*
%TD*%
D23*
%TO.C,U1*%
X150450000Y-78025000D03*
X148150000Y-78025000D03*
D24*
X148150000Y-84325000D03*
D23*
X145850000Y-78025000D03*
%TD*%
D31*
%TO.C,L1*%
X114075000Y-71400000D03*
X111275000Y-71400000D03*
%TD*%
D32*
%TO.C,C20*%
X128100000Y-69375000D03*
X120700000Y-69375000D03*
%TD*%
D10*
%TO.C,R6*%
X143325000Y-77800000D03*
X141675000Y-77800000D03*
%TD*%
D33*
%TO.C,CR1*%
X170369700Y-84875000D03*
X166280300Y-84875000D03*
%TD*%
D14*
%TO.C,C4*%
X145275000Y-75925000D03*
X146825000Y-75925000D03*
%TD*%
D18*
%TO.C,R9*%
X150725000Y-65950000D03*
X150725000Y-64300000D03*
%TD*%
D15*
%TO.C,R12*%
X161264600Y-62890400D03*
X161264600Y-64540400D03*
%TD*%
D20*
%TO.C,R18*%
X173215800Y-81102200D03*
X174865800Y-81102200D03*
%TD*%
D34*
%TO.C,C12*%
X153116200Y-59664600D03*
X155016200Y-59664600D03*
%TD*%
D16*
%TO.C,CR5*%
X177952400Y-80022700D03*
X177952400Y-84112100D03*
%TD*%
D15*
%TO.C,R24*%
X181025800Y-59360800D03*
X181025800Y-61010800D03*
%TD*%
%TO.C,R25*%
X180924200Y-65215000D03*
X180924200Y-66865000D03*
%TD*%
D12*
%TO.C,C17*%
X161290000Y-72453200D03*
X161290000Y-74003200D03*
%TD*%
D14*
%TO.C,C7*%
X145175000Y-60075000D03*
X146725000Y-60075000D03*
%TD*%
D20*
%TO.C,R17*%
X173229000Y-75438000D03*
X174879000Y-75438000D03*
%TD*%
D12*
%TO.C,C18*%
X161315400Y-79057200D03*
X161315400Y-80607200D03*
%TD*%
D35*
%TO.C,C10*%
X123155000Y-76375000D03*
X128095000Y-76375000D03*
%TD*%
D28*
%TO.C,C14*%
X108939200Y-72139600D03*
X108939200Y-70239600D03*
%TD*%
D10*
%TO.C,R8*%
X147000000Y-57975000D03*
X145350000Y-57975000D03*
%TD*%
%TO.C,R30*%
X155725000Y-76050000D03*
X154075000Y-76050000D03*
%TD*%
D14*
%TO.C,C11*%
X124750000Y-79000000D03*
X126300000Y-79000000D03*
%TD*%
D10*
%TO.C,R23*%
X174904400Y-78790800D03*
X173254400Y-78790800D03*
%TD*%
%TO.C,R2*%
X145575000Y-72000000D03*
X143925000Y-72000000D03*
%TD*%
M02*
