%TF.GenerationSoftware,KiCad,Pcbnew,9.0.6-rc1*%
%TF.CreationDate,2025-10-23T11:59:12+01:00*%
%TF.ProjectId,PIDI-BOX-01-ADC-4-MAIN-A1,50494449-2d42-44f5-982d-30312d414443,rev?*%
%TF.SameCoordinates,Original*%
%TF.FileFunction,Copper,L1,Top*%
%TF.FilePolarity,Positive*%
%FSLAX46Y46*%
G04 Gerber Fmt 4.6, Leading zero omitted, Abs format (unit mm)*
G04 Created by KiCad (PCBNEW 9.0.6-rc1) date 2025-10-23 11:59:12*
%MOMM*%
%LPD*%
G01*
G04 APERTURE LIST*
G04 Aperture macros list*
%AMRoundRect*
0 Rectangle with rounded corners*
0 $1 Rounding radius*
0 $2 $3 $4 $5 $6 $7 $8 $9 X,Y pos of 4 corners*
0 Add a 4 corners polygon primitive as box body*
4,1,4,$2,$3,$4,$5,$6,$7,$8,$9,$2,$3,0*
0 Add four circle primitives for the rounded corners*
1,1,$1+$1,$2,$3*
1,1,$1+$1,$4,$5*
1,1,$1+$1,$6,$7*
1,1,$1+$1,$8,$9*
0 Add four rect primitives between the rounded corners*
20,1,$1+$1,$2,$3,$4,$5,0*
20,1,$1+$1,$4,$5,$6,$7,0*
20,1,$1+$1,$6,$7,$8,$9,0*
20,1,$1+$1,$8,$9,$2,$3,0*%
G04 Aperture macros list end*
%ADD10C,0.150000*%
%TA.AperFunction,NonConductor*%
%ADD11C,0.150000*%
%TD*%
%TA.AperFunction,SMDPad,CuDef*%
%ADD12RoundRect,0.200000X0.200000X0.275000X-0.200000X0.275000X-0.200000X-0.275000X0.200000X-0.275000X0*%
%TD*%
%TA.AperFunction,SMDPad,CuDef*%
%ADD13R,1.750000X0.650000*%
%TD*%
%TA.AperFunction,SMDPad,CuDef*%
%ADD14R,1.500000X1.000000*%
%TD*%
%TA.AperFunction,SMDPad,CuDef*%
%ADD15RoundRect,0.225000X-0.250000X0.225000X-0.250000X-0.225000X0.250000X-0.225000X0.250000X0.225000X0*%
%TD*%
%TA.AperFunction,SMDPad,CuDef*%
%ADD16RoundRect,0.225000X0.225000X0.250000X-0.225000X0.250000X-0.225000X-0.250000X0.225000X-0.250000X0*%
%TD*%
%TA.AperFunction,SMDPad,CuDef*%
%ADD17RoundRect,0.225000X-0.225000X-0.250000X0.225000X-0.250000X0.225000X0.250000X-0.225000X0.250000X0*%
%TD*%
%TA.AperFunction,SMDPad,CuDef*%
%ADD18RoundRect,0.200000X-0.275000X0.200000X-0.275000X-0.200000X0.275000X-0.200000X0.275000X0.200000X0*%
%TD*%
%TA.AperFunction,SMDPad,CuDef*%
%ADD19R,2.260600X2.209800*%
%TD*%
%TA.AperFunction,SMDPad,CuDef*%
%ADD20R,0.250000X1.100000*%
%TD*%
%TA.AperFunction,ComponentPad*%
%ADD21R,1.800000X1.800000*%
%TD*%
%TA.AperFunction,ComponentPad*%
%ADD22C,1.800000*%
%TD*%
%TA.AperFunction,SMDPad,CuDef*%
%ADD23RoundRect,0.200000X0.275000X-0.200000X0.275000X0.200000X-0.275000X0.200000X-0.275000X-0.200000X0*%
%TD*%
%TA.AperFunction,ComponentPad*%
%ADD24R,1.700000X1.700000*%
%TD*%
%TA.AperFunction,ComponentPad*%
%ADD25C,1.700000*%
%TD*%
%TA.AperFunction,SMDPad,CuDef*%
%ADD26RoundRect,0.225000X0.250000X-0.225000X0.250000X0.225000X-0.250000X0.225000X-0.250000X-0.225000X0*%
%TD*%
%TA.AperFunction,SMDPad,CuDef*%
%ADD27RoundRect,0.200000X-0.200000X-0.275000X0.200000X-0.275000X0.200000X0.275000X-0.200000X0.275000X0*%
%TD*%
%TA.AperFunction,ComponentPad*%
%ADD28R,2.400000X2.400000*%
%TD*%
%TA.AperFunction,ComponentPad*%
%ADD29C,2.400000*%
%TD*%
%TA.AperFunction,SMDPad,CuDef*%
%ADD30RoundRect,0.250000X1.000000X0.650000X-1.000000X0.650000X-1.000000X-0.650000X1.000000X-0.650000X0*%
%TD*%
%TA.AperFunction,SMDPad,CuDef*%
%ADD31RoundRect,0.250000X-0.945000X0.420000X-0.945000X-0.420000X0.945000X-0.420000X0.945000X0.420000X0*%
%TD*%
%TA.AperFunction,SMDPad,CuDef*%
%ADD32RoundRect,0.375000X-0.375000X0.625000X-0.375000X-0.625000X0.375000X-0.625000X0.375000X0.625000X0*%
%TD*%
%TA.AperFunction,SMDPad,CuDef*%
%ADD33RoundRect,0.500000X-1.400000X0.500000X-1.400000X-0.500000X1.400000X-0.500000X1.400000X0.500000X0*%
%TD*%
%TA.AperFunction,SMDPad,CuDef*%
%ADD34RoundRect,0.150000X0.150000X-0.825000X0.150000X0.825000X-0.150000X0.825000X-0.150000X-0.825000X0*%
%TD*%
%TA.AperFunction,SMDPad,CuDef*%
%ADD35RoundRect,0.250000X0.400000X0.400000X-0.400000X0.400000X-0.400000X-0.400000X0.400000X-0.400000X0*%
%TD*%
%TA.AperFunction,SMDPad,CuDef*%
%ADD36RoundRect,0.250000X0.750000X0.400000X-0.750000X0.400000X-0.750000X-0.400000X0.750000X-0.400000X0*%
%TD*%
%TA.AperFunction,SMDPad,CuDef*%
%ADD37RoundRect,0.250000X0.475000X-0.250000X0.475000X0.250000X-0.475000X0.250000X-0.475000X-0.250000X0*%
%TD*%
%TA.AperFunction,SMDPad,CuDef*%
%ADD38RoundRect,0.150000X0.150000X-0.587500X0.150000X0.587500X-0.150000X0.587500X-0.150000X-0.587500X0*%
%TD*%
%TA.AperFunction,ComponentPad*%
%ADD39C,1.440000*%
%TD*%
%TA.AperFunction,ComponentPad*%
%ADD40RoundRect,0.250000X0.675000X-0.675000X0.675000X0.675000X-0.675000X0.675000X-0.675000X-0.675000X0*%
%TD*%
%TA.AperFunction,ComponentPad*%
%ADD41C,1.850000*%
%TD*%
%TA.AperFunction,SMDPad,CuDef*%
%ADD42RoundRect,0.218750X0.218750X0.256250X-0.218750X0.256250X-0.218750X-0.256250X0.218750X-0.256250X0*%
%TD*%
%TA.AperFunction,SMDPad,CuDef*%
%ADD43R,1.000000X1.400000*%
%TD*%
%TA.AperFunction,SMDPad,CuDef*%
%ADD44RoundRect,0.250000X1.950000X1.000000X-1.950000X1.000000X-1.950000X-1.000000X1.950000X-1.000000X0*%
%TD*%
%TA.AperFunction,SMDPad,CuDef*%
%ADD45R,2.209800X2.260600*%
%TD*%
%TA.AperFunction,SMDPad,CuDef*%
%ADD46RoundRect,0.250000X-0.250000X-0.475000X0.250000X-0.475000X0.250000X0.475000X-0.250000X0.475000X0*%
%TD*%
%TA.AperFunction,SMDPad,CuDef*%
%ADD47RoundRect,0.250000X-0.785000X-0.945000X0.785000X-0.945000X0.785000X0.945000X-0.785000X0.945000X0*%
%TD*%
%TA.AperFunction,ViaPad*%
%ADD48C,1.000000*%
%TD*%
%TA.AperFunction,ViaPad*%
%ADD49C,2.000000*%
%TD*%
%TA.AperFunction,ViaPad*%
%ADD50C,0.600000*%
%TD*%
%TA.AperFunction,Conductor*%
%ADD51C,0.200000*%
%TD*%
%TA.AperFunction,Conductor*%
%ADD52C,1.000000*%
%TD*%
%TA.AperFunction,Conductor*%
%ADD53C,0.600000*%
%TD*%
%TA.AperFunction,Conductor*%
%ADD54C,1.200000*%
%TD*%
%TA.AperFunction,Conductor*%
%ADD55C,0.400000*%
%TD*%
%TA.AperFunction,Conductor*%
%ADD56C,0.300000*%
%TD*%
%TA.AperFunction,Conductor*%
%ADD57C,1.500000*%
%TD*%
%TA.AperFunction,Conductor*%
%ADD58C,0.500000*%
%TD*%
%TA.AperFunction,Conductor*%
%ADD59C,0.800000*%
%TD*%
%TA.AperFunction,Conductor*%
%ADD60C,0.250000*%
%TD*%
%TA.AperFunction,Conductor*%
%ADD61C,0.900000*%
%TD*%
%TA.AperFunction,Conductor*%
%ADD62C,0.700000*%
%TD*%
%TA.AperFunction,Conductor*%
%ADD63C,1.800000*%
%TD*%
G04 APERTURE END LIST*
D10*
D11*
X126336779Y-57684875D02*
X126336779Y-56684875D01*
X126336779Y-56684875D02*
X126717731Y-56684875D01*
X126717731Y-56684875D02*
X126812969Y-56732494D01*
X126812969Y-56732494D02*
X126860588Y-56780113D01*
X126860588Y-56780113D02*
X126908207Y-56875351D01*
X126908207Y-56875351D02*
X126908207Y-57018208D01*
X126908207Y-57018208D02*
X126860588Y-57113446D01*
X126860588Y-57113446D02*
X126812969Y-57161065D01*
X126812969Y-57161065D02*
X126717731Y-57208684D01*
X126717731Y-57208684D02*
X126336779Y-57208684D01*
X127336779Y-57684875D02*
X127336779Y-56684875D01*
X127812969Y-57684875D02*
X127812969Y-56684875D01*
X127812969Y-56684875D02*
X128051064Y-56684875D01*
X128051064Y-56684875D02*
X128193921Y-56732494D01*
X128193921Y-56732494D02*
X128289159Y-56827732D01*
X128289159Y-56827732D02*
X128336778Y-56922970D01*
X128336778Y-56922970D02*
X128384397Y-57113446D01*
X128384397Y-57113446D02*
X128384397Y-57256303D01*
X128384397Y-57256303D02*
X128336778Y-57446779D01*
X128336778Y-57446779D02*
X128289159Y-57542017D01*
X128289159Y-57542017D02*
X128193921Y-57637256D01*
X128193921Y-57637256D02*
X128051064Y-57684875D01*
X128051064Y-57684875D02*
X127812969Y-57684875D01*
X128812969Y-57684875D02*
X128812969Y-56684875D01*
X129289159Y-57303922D02*
X130051064Y-57303922D01*
X130860587Y-57161065D02*
X131003444Y-57208684D01*
X131003444Y-57208684D02*
X131051063Y-57256303D01*
X131051063Y-57256303D02*
X131098682Y-57351541D01*
X131098682Y-57351541D02*
X131098682Y-57494398D01*
X131098682Y-57494398D02*
X131051063Y-57589636D01*
X131051063Y-57589636D02*
X131003444Y-57637256D01*
X131003444Y-57637256D02*
X130908206Y-57684875D01*
X130908206Y-57684875D02*
X130527254Y-57684875D01*
X130527254Y-57684875D02*
X130527254Y-56684875D01*
X130527254Y-56684875D02*
X130860587Y-56684875D01*
X130860587Y-56684875D02*
X130955825Y-56732494D01*
X130955825Y-56732494D02*
X131003444Y-56780113D01*
X131003444Y-56780113D02*
X131051063Y-56875351D01*
X131051063Y-56875351D02*
X131051063Y-56970589D01*
X131051063Y-56970589D02*
X131003444Y-57065827D01*
X131003444Y-57065827D02*
X130955825Y-57113446D01*
X130955825Y-57113446D02*
X130860587Y-57161065D01*
X130860587Y-57161065D02*
X130527254Y-57161065D01*
X131717730Y-56684875D02*
X131908206Y-56684875D01*
X131908206Y-56684875D02*
X132003444Y-56732494D01*
X132003444Y-56732494D02*
X132098682Y-56827732D01*
X132098682Y-56827732D02*
X132146301Y-57018208D01*
X132146301Y-57018208D02*
X132146301Y-57351541D01*
X132146301Y-57351541D02*
X132098682Y-57542017D01*
X132098682Y-57542017D02*
X132003444Y-57637256D01*
X132003444Y-57637256D02*
X131908206Y-57684875D01*
X131908206Y-57684875D02*
X131717730Y-57684875D01*
X131717730Y-57684875D02*
X131622492Y-57637256D01*
X131622492Y-57637256D02*
X131527254Y-57542017D01*
X131527254Y-57542017D02*
X131479635Y-57351541D01*
X131479635Y-57351541D02*
X131479635Y-57018208D01*
X131479635Y-57018208D02*
X131527254Y-56827732D01*
X131527254Y-56827732D02*
X131622492Y-56732494D01*
X131622492Y-56732494D02*
X131717730Y-56684875D01*
X132479635Y-56684875D02*
X133146301Y-57684875D01*
X133146301Y-56684875D02*
X132479635Y-57684875D01*
X133527254Y-57303922D02*
X134289159Y-57303922D01*
X134955825Y-56684875D02*
X135051063Y-56684875D01*
X135051063Y-56684875D02*
X135146301Y-56732494D01*
X135146301Y-56732494D02*
X135193920Y-56780113D01*
X135193920Y-56780113D02*
X135241539Y-56875351D01*
X135241539Y-56875351D02*
X135289158Y-57065827D01*
X135289158Y-57065827D02*
X135289158Y-57303922D01*
X135289158Y-57303922D02*
X135241539Y-57494398D01*
X135241539Y-57494398D02*
X135193920Y-57589636D01*
X135193920Y-57589636D02*
X135146301Y-57637256D01*
X135146301Y-57637256D02*
X135051063Y-57684875D01*
X135051063Y-57684875D02*
X134955825Y-57684875D01*
X134955825Y-57684875D02*
X134860587Y-57637256D01*
X134860587Y-57637256D02*
X134812968Y-57589636D01*
X134812968Y-57589636D02*
X134765349Y-57494398D01*
X134765349Y-57494398D02*
X134717730Y-57303922D01*
X134717730Y-57303922D02*
X134717730Y-57065827D01*
X134717730Y-57065827D02*
X134765349Y-56875351D01*
X134765349Y-56875351D02*
X134812968Y-56780113D01*
X134812968Y-56780113D02*
X134860587Y-56732494D01*
X134860587Y-56732494D02*
X134955825Y-56684875D01*
X136241539Y-57684875D02*
X135670111Y-57684875D01*
X135955825Y-57684875D02*
X135955825Y-56684875D01*
X135955825Y-56684875D02*
X135860587Y-56827732D01*
X135860587Y-56827732D02*
X135765349Y-56922970D01*
X135765349Y-56922970D02*
X135670111Y-56970589D01*
X136670111Y-57303922D02*
X137432016Y-57303922D01*
X126289160Y-59009104D02*
X126765350Y-59009104D01*
X126193922Y-59294819D02*
X126527255Y-58294819D01*
X126527255Y-58294819D02*
X126860588Y-59294819D01*
X127193922Y-59294819D02*
X127193922Y-58294819D01*
X127193922Y-58294819D02*
X127432017Y-58294819D01*
X127432017Y-58294819D02*
X127574874Y-58342438D01*
X127574874Y-58342438D02*
X127670112Y-58437676D01*
X127670112Y-58437676D02*
X127717731Y-58532914D01*
X127717731Y-58532914D02*
X127765350Y-58723390D01*
X127765350Y-58723390D02*
X127765350Y-58866247D01*
X127765350Y-58866247D02*
X127717731Y-59056723D01*
X127717731Y-59056723D02*
X127670112Y-59151961D01*
X127670112Y-59151961D02*
X127574874Y-59247200D01*
X127574874Y-59247200D02*
X127432017Y-59294819D01*
X127432017Y-59294819D02*
X127193922Y-59294819D01*
X128765350Y-59199580D02*
X128717731Y-59247200D01*
X128717731Y-59247200D02*
X128574874Y-59294819D01*
X128574874Y-59294819D02*
X128479636Y-59294819D01*
X128479636Y-59294819D02*
X128336779Y-59247200D01*
X128336779Y-59247200D02*
X128241541Y-59151961D01*
X128241541Y-59151961D02*
X128193922Y-59056723D01*
X128193922Y-59056723D02*
X128146303Y-58866247D01*
X128146303Y-58866247D02*
X128146303Y-58723390D01*
X128146303Y-58723390D02*
X128193922Y-58532914D01*
X128193922Y-58532914D02*
X128241541Y-58437676D01*
X128241541Y-58437676D02*
X128336779Y-58342438D01*
X128336779Y-58342438D02*
X128479636Y-58294819D01*
X128479636Y-58294819D02*
X128574874Y-58294819D01*
X128574874Y-58294819D02*
X128717731Y-58342438D01*
X128717731Y-58342438D02*
X128765350Y-58390057D01*
X129193922Y-58913866D02*
X129955827Y-58913866D01*
X130860588Y-58628152D02*
X130860588Y-59294819D01*
X130622493Y-58247200D02*
X130384398Y-58961485D01*
X130384398Y-58961485D02*
X131003445Y-58961485D01*
X131384398Y-58913866D02*
X132146303Y-58913866D01*
X132955826Y-58771009D02*
X133098683Y-58818628D01*
X133098683Y-58818628D02*
X133146302Y-58866247D01*
X133146302Y-58866247D02*
X133193921Y-58961485D01*
X133193921Y-58961485D02*
X133193921Y-59104342D01*
X133193921Y-59104342D02*
X133146302Y-59199580D01*
X133146302Y-59199580D02*
X133098683Y-59247200D01*
X133098683Y-59247200D02*
X133003445Y-59294819D01*
X133003445Y-59294819D02*
X132622493Y-59294819D01*
X132622493Y-59294819D02*
X132622493Y-58294819D01*
X132622493Y-58294819D02*
X132955826Y-58294819D01*
X132955826Y-58294819D02*
X133051064Y-58342438D01*
X133051064Y-58342438D02*
X133098683Y-58390057D01*
X133098683Y-58390057D02*
X133146302Y-58485295D01*
X133146302Y-58485295D02*
X133146302Y-58580533D01*
X133146302Y-58580533D02*
X133098683Y-58675771D01*
X133098683Y-58675771D02*
X133051064Y-58723390D01*
X133051064Y-58723390D02*
X132955826Y-58771009D01*
X132955826Y-58771009D02*
X132622493Y-58771009D01*
X133574874Y-59009104D02*
X134051064Y-59009104D01*
X133479636Y-59294819D02*
X133812969Y-58294819D01*
X133812969Y-58294819D02*
X134146302Y-59294819D01*
X134432017Y-59247200D02*
X134574874Y-59294819D01*
X134574874Y-59294819D02*
X134812969Y-59294819D01*
X134812969Y-59294819D02*
X134908207Y-59247200D01*
X134908207Y-59247200D02*
X134955826Y-59199580D01*
X134955826Y-59199580D02*
X135003445Y-59104342D01*
X135003445Y-59104342D02*
X135003445Y-59009104D01*
X135003445Y-59009104D02*
X134955826Y-58913866D01*
X134955826Y-58913866D02*
X134908207Y-58866247D01*
X134908207Y-58866247D02*
X134812969Y-58818628D01*
X134812969Y-58818628D02*
X134622493Y-58771009D01*
X134622493Y-58771009D02*
X134527255Y-58723390D01*
X134527255Y-58723390D02*
X134479636Y-58675771D01*
X134479636Y-58675771D02*
X134432017Y-58580533D01*
X134432017Y-58580533D02*
X134432017Y-58485295D01*
X134432017Y-58485295D02*
X134479636Y-58390057D01*
X134479636Y-58390057D02*
X134527255Y-58342438D01*
X134527255Y-58342438D02*
X134622493Y-58294819D01*
X134622493Y-58294819D02*
X134860588Y-58294819D01*
X134860588Y-58294819D02*
X135003445Y-58342438D01*
X135432017Y-59294819D02*
X135432017Y-58294819D01*
X135860588Y-59247200D02*
X136003445Y-59294819D01*
X136003445Y-59294819D02*
X136241540Y-59294819D01*
X136241540Y-59294819D02*
X136336778Y-59247200D01*
X136336778Y-59247200D02*
X136384397Y-59199580D01*
X136384397Y-59199580D02*
X136432016Y-59104342D01*
X136432016Y-59104342D02*
X136432016Y-59009104D01*
X136432016Y-59009104D02*
X136384397Y-58913866D01*
X136384397Y-58913866D02*
X136336778Y-58866247D01*
X136336778Y-58866247D02*
X136241540Y-58818628D01*
X136241540Y-58818628D02*
X136051064Y-58771009D01*
X136051064Y-58771009D02*
X135955826Y-58723390D01*
X135955826Y-58723390D02*
X135908207Y-58675771D01*
X135908207Y-58675771D02*
X135860588Y-58580533D01*
X135860588Y-58580533D02*
X135860588Y-58485295D01*
X135860588Y-58485295D02*
X135908207Y-58390057D01*
X135908207Y-58390057D02*
X135955826Y-58342438D01*
X135955826Y-58342438D02*
X136051064Y-58294819D01*
X136051064Y-58294819D02*
X136289159Y-58294819D01*
X136289159Y-58294819D02*
X136432016Y-58342438D01*
X136860588Y-58913866D02*
X137622493Y-58913866D01*
X138051064Y-59009104D02*
X138527254Y-59009104D01*
X137955826Y-59294819D02*
X138289159Y-58294819D01*
X138289159Y-58294819D02*
X138622492Y-59294819D01*
X139479635Y-59294819D02*
X138908207Y-59294819D01*
X139193921Y-59294819D02*
X139193921Y-58294819D01*
X139193921Y-58294819D02*
X139098683Y-58437676D01*
X139098683Y-58437676D02*
X139003445Y-58532914D01*
X139003445Y-58532914D02*
X138908207Y-58580533D01*
D12*
%TO.P,R20,1*%
%TO.N,Net-(CR2-Pad1)*%
X174865800Y-60883800D03*
%TO.P,R20,2*%
%TO.N,Net-(R20-Pad2)*%
X173215800Y-60883800D03*
%TD*%
D13*
%TO.P,IC1,1*%
%TO.N,Net-(IC1-Pad1)*%
X120325000Y-78020000D03*
%TO.P,IC1,2*%
%TO.N,Net-(Q1-C)*%
X120325000Y-75480000D03*
%TO.P,IC1,3,E*%
%TO.N,Net-(IC1-E)*%
X114175000Y-75480000D03*
%TO.P,IC1,4,C*%
%TO.N,Net-(IC1-C)*%
X114175000Y-78020000D03*
%TD*%
D14*
%TO.P,JP1,1,A*%
%TO.N,Net-(IC1-C)*%
X131225000Y-62100000D03*
%TO.P,JP1,2,B*%
%TO.N,Net-(J2-Pin_2)*%
X131225000Y-63400000D03*
%TD*%
D15*
%TO.P,C16,1*%
%TO.N,AIN2*%
X161290000Y-66027000D03*
%TO.P,C16,2*%
%TO.N,GND*%
X161290000Y-67577000D03*
%TD*%
D16*
%TO.P,C15,1*%
%TO.N,AIN3*%
X164503400Y-58597800D03*
%TO.P,C15,2*%
%TO.N,GND*%
X162953400Y-58597800D03*
%TD*%
D17*
%TO.P,C3,1*%
%TO.N,+3V3*%
X148750000Y-75075000D03*
%TO.P,C3,2*%
%TO.N,GND*%
X150300000Y-75075000D03*
%TD*%
%TO.P,C8,1*%
%TO.N,Net-(U3-ADJ)*%
X138125000Y-77775000D03*
%TO.P,C8,2*%
%TO.N,GND*%
X139675000Y-77775000D03*
%TD*%
D12*
%TO.P,R22,1*%
%TO.N,Net-(CR4-Pad1)*%
X174879000Y-72745600D03*
%TO.P,R22,2*%
%TO.N,Net-(R22-Pad2)*%
X173229000Y-72745600D03*
%TD*%
D18*
%TO.P,R3,1*%
%TO.N,Net-(J2-Pin_6)*%
X142200000Y-70025000D03*
%TO.P,R3,2*%
%TO.N,Net-(J3-Pin_3)*%
X142200000Y-71675000D03*
%TD*%
D19*
%TO.P,CR3,1,1*%
%TO.N,Net-(CR3-Pad1)*%
X177901600Y-65925700D03*
%TO.P,CR3,2,2*%
%TO.N,GND*%
X177901600Y-70015100D03*
%TD*%
D16*
%TO.P,C21,1*%
%TO.N,+12V*%
X121525000Y-63425600D03*
%TO.P,C21,2*%
%TO.N,Net-(D2-K)*%
X119975000Y-63425600D03*
%TD*%
D20*
%TO.P,U4,1,ADDR*%
%TO.N,ADDR*%
X153400000Y-68150000D03*
%TO.P,U4,2,ALERT/RDY*%
%TO.N,RDY*%
X153900000Y-68150000D03*
%TO.P,U4,3,GND*%
%TO.N,GND*%
X154400000Y-68150000D03*
%TO.P,U4,4,AIN0*%
%TO.N,AIN0*%
X154900000Y-68150000D03*
%TO.P,U4,5,AIN1*%
%TO.N,AIN1*%
X155400000Y-68150000D03*
%TO.P,U4,6,AIN2*%
%TO.N,AIN2*%
X155400000Y-63850000D03*
%TO.P,U4,7,AIN3*%
%TO.N,AIN3*%
X154900000Y-63850000D03*
%TO.P,U4,8,VDD*%
%TO.N,Net-(U4-VDD)*%
X154400000Y-63850000D03*
%TO.P,U4,9,SDA*%
%TO.N,SDA2*%
X153900000Y-63850000D03*
%TO.P,U4,10,SCL*%
%TO.N,SCL2*%
X153400000Y-63850000D03*
%TD*%
D21*
%TO.P,D3,1,K*%
%TO.N,Net-(D2-K)*%
X131030000Y-73200000D03*
D22*
%TO.P,D3,2,A*%
%TO.N,Net-(D3-A)*%
X133570000Y-73200000D03*
%TD*%
D12*
%TO.P,R7,1*%
%TO.N,SCL2*%
X149975000Y-58025000D03*
%TO.P,R7,2*%
%TO.N,+3V3*%
X148325000Y-58025000D03*
%TD*%
D23*
%TO.P,R5,1*%
%TO.N,+4-7Vext*%
X143050000Y-81800000D03*
%TO.P,R5,2*%
%TO.N,Net-(R5-Pad2)*%
X143050000Y-80150000D03*
%TD*%
D24*
%TO.P,J10,1,Pin_1*%
%TO.N,Net-(D2-K)*%
X120075000Y-57750000D03*
%TD*%
%TO.P,J1,1,Pin_1*%
%TO.N,+3V3*%
X158275000Y-84975000D03*
D25*
%TO.P,J1,2,Pin_2*%
%TO.N,GND*%
X158275000Y-82435000D03*
%TO.P,J1,3,Pin_3*%
%TO.N,SCL2*%
X158275000Y-79895000D03*
%TO.P,J1,4,Pin_4*%
%TO.N,SDA2*%
X158275000Y-77355000D03*
%TO.P,J1,5,Pin_5*%
%TO.N,ADDR*%
X158275000Y-74815000D03*
%TO.P,J1,6,Pin_6*%
%TO.N,RDY*%
X158275000Y-72275000D03*
%TO.P,J1,7,Pin_7*%
%TO.N,AIN0*%
X158275000Y-69735000D03*
%TO.P,J1,8,Pin_8*%
%TO.N,AIN1*%
X158275000Y-67195000D03*
%TO.P,J1,9,Pin_9*%
%TO.N,AIN2*%
X158275000Y-64655000D03*
%TO.P,J1,10,Pin_10*%
%TO.N,AIN3*%
X158275000Y-62115000D03*
%TD*%
D19*
%TO.P,CR4,1,1*%
%TO.N,Net-(CR4-Pad1)*%
X177901600Y-72961500D03*
%TO.P,CR4,2,2*%
%TO.N,GND*%
X177901600Y-77050900D03*
%TD*%
D26*
%TO.P,C6,1*%
%TO.N,+4-7Vext*%
X143175000Y-85775000D03*
%TO.P,C6,2*%
%TO.N,GND*%
X143175000Y-84225000D03*
%TD*%
D12*
%TO.P,R11,1*%
%TO.N,Net-(R11-Pad1)*%
X167677600Y-58597800D03*
%TO.P,R11,2*%
%TO.N,AIN3*%
X166027600Y-58597800D03*
%TD*%
D27*
%TO.P,R19,1*%
%TO.N,Net-(D2-A)*%
X110375000Y-74700000D03*
%TO.P,R19,2*%
%TO.N,+12V*%
X112025000Y-74700000D03*
%TD*%
%TO.P,R31,1*%
%TO.N,Net-(Q1-B)*%
X154075000Y-74550000D03*
%TO.P,R31,2*%
%TO.N,GND*%
X155725000Y-74550000D03*
%TD*%
D17*
%TO.P,C13,1*%
%TO.N,Net-(U4-VDD)*%
X153375000Y-61544200D03*
%TO.P,C13,2*%
%TO.N,GND*%
X154925000Y-61544200D03*
%TD*%
D18*
%TO.P,R13,1*%
%TO.N,Net-(R13-Pad1)*%
X161315400Y-69329800D03*
%TO.P,R13,2*%
%TO.N,AIN1*%
X161315400Y-70979800D03*
%TD*%
D28*
%TO.P,J6,1,1*%
%TO.N,Net-(J6-Pad1)*%
X188163200Y-59791600D03*
D29*
%TO.P,J6,2,2*%
%TO.N,Net-(J6-Pad2)*%
X188163200Y-64871600D03*
%TO.P,J6,3,3*%
%TO.N,Net-(J6-Pad3)*%
X188163200Y-69951600D03*
%TD*%
D27*
%TO.P,R15,1*%
%TO.N,Net-(R15-Pad1)*%
X173190400Y-63500000D03*
%TO.P,R15,2*%
%TO.N,GND*%
X174840400Y-63500000D03*
%TD*%
D18*
%TO.P,R27,1*%
%TO.N,Net-(J7-Pad1)*%
X181025800Y-79997800D03*
%TO.P,R27,2*%
%TO.N,Net-(CR5-Pad1)*%
X181025800Y-81647800D03*
%TD*%
D26*
%TO.P,C9,1*%
%TO.N,+4-7Vext*%
X163775000Y-85350000D03*
%TO.P,C9,2*%
%TO.N,GND*%
X163775000Y-83800000D03*
%TD*%
D19*
%TO.P,CR2,1,1*%
%TO.N,Net-(CR2-Pad1)*%
X177901600Y-58877200D03*
%TO.P,CR2,2,2*%
%TO.N,GND*%
X177901600Y-62966600D03*
%TD*%
D17*
%TO.P,C5,1*%
%TO.N,Net-(J3-Pin_2)*%
X143975000Y-70450000D03*
%TO.P,C5,2*%
%TO.N,Net-(IC1-E)*%
X145525000Y-70450000D03*
%TD*%
D30*
%TO.P,D4,1,K*%
%TO.N,+12V*%
X128300000Y-62800000D03*
%TO.P,D4,2,A*%
%TO.N,Net-(D4-A)*%
X124300000Y-62800000D03*
%TD*%
D31*
%TO.P,C2,1*%
%TO.N,+3V3*%
X153873200Y-78635000D03*
%TO.P,C2,2*%
%TO.N,GND*%
X153873200Y-81715000D03*
%TD*%
D28*
%TO.P,J7,1,1*%
%TO.N,Net-(J7-Pad1)*%
X188163200Y-74980800D03*
D29*
%TO.P,J7,2,2*%
%TO.N,GND*%
X188163200Y-80060800D03*
%TO.P,J7,3,3*%
%TO.N,+4-7Vext*%
X188163200Y-85140800D03*
%TD*%
D32*
%TO.P,U3,1,ADJ*%
%TO.N,Net-(U3-ADJ)*%
X135137500Y-80450000D03*
%TO.P,U3,2,VO*%
%TO.N,+4-7Vext*%
X132837500Y-80450000D03*
D33*
X132837500Y-86750000D03*
D32*
%TO.P,U3,3,VI*%
%TO.N,+9V*%
X130537500Y-80450000D03*
%TD*%
D34*
%TO.P,U2,1,VDD1*%
%TO.N,Net-(J3-Pin_2)*%
X142889200Y-67651400D03*
%TO.P,U2,2,SDA1*%
%TO.N,Net-(J2-Pin_4)*%
X144159200Y-67651400D03*
%TO.P,U2,3,SCL1*%
%TO.N,Net-(J2-Pin_6)*%
X145429200Y-67651400D03*
%TO.P,U2,4,GND1*%
%TO.N,Net-(IC1-E)*%
X146699200Y-67651400D03*
%TO.P,U2,5,GND2*%
%TO.N,GND*%
X146699200Y-62701400D03*
%TO.P,U2,6,SCL2*%
%TO.N,SCL2*%
X145429200Y-62701400D03*
%TO.P,U2,7,SDA2*%
%TO.N,SDA2*%
X144159200Y-62701400D03*
%TO.P,U2,8,VDD2*%
%TO.N,+3V3*%
X142889200Y-62701400D03*
%TD*%
D27*
%TO.P,R16,1*%
%TO.N,Net-(R16-Pad1)*%
X173190400Y-69494400D03*
%TO.P,R16,2*%
%TO.N,GND*%
X174840400Y-69494400D03*
%TD*%
D18*
%TO.P,R14,1*%
%TO.N,Net-(R14-Pad1)*%
X161315400Y-75959200D03*
%TO.P,R14,2*%
%TO.N,AIN0*%
X161315400Y-77609200D03*
%TD*%
D35*
%TO.P,RV1,1,1*%
%TO.N,Net-(R6-Pad1)*%
X138206800Y-85122200D03*
D36*
%TO.P,RV1,2,2*%
%TO.N,Net-(U3-ADJ)*%
X139356800Y-79622200D03*
D35*
%TO.P,RV1,3,3*%
%TO.N,Net-(R5-Pad2)*%
X140506800Y-85122200D03*
%TD*%
D24*
%TO.P,J3,1,Pin_1*%
%TO.N,Net-(J3-Pin_1)*%
X139500000Y-71150000D03*
D25*
%TO.P,J3,2,Pin_2*%
%TO.N,Net-(J3-Pin_2)*%
X136960000Y-71150000D03*
%TO.P,J3,3,Pin_3*%
%TO.N,Net-(J3-Pin_3)*%
X139500000Y-68610000D03*
%TO.P,J3,4,Pin_4*%
%TO.N,Net-(J3-Pin_2)*%
X136960000Y-68610000D03*
%TD*%
D28*
%TO.P,J8,1,1*%
%TO.N,Net-(D2-K)*%
X111810800Y-64820800D03*
D29*
%TO.P,J8,2,2*%
%TO.N,Net-(D4-A)*%
X111810800Y-59740800D03*
%TD*%
D37*
%TO.P,C19,1*%
%TO.N,+12V*%
X116450000Y-72400000D03*
%TO.P,C19,2*%
%TO.N,Net-(D2-K)*%
X116450000Y-70500000D03*
%TD*%
D12*
%TO.P,R1,1*%
%TO.N,Net-(J3-Pin_2)*%
X134175000Y-68100000D03*
%TO.P,R1,2*%
%TO.N,/+5V I2C BUS*%
X132525000Y-68100000D03*
%TD*%
D38*
%TO.P,Q1,1,B*%
%TO.N,Net-(Q1-B)*%
X153775000Y-72812500D03*
%TO.P,Q1,2,E*%
%TO.N,GND*%
X155675000Y-72812500D03*
%TO.P,Q1,3,C*%
%TO.N,Net-(Q1-C)*%
X154725000Y-70937500D03*
%TD*%
D26*
%TO.P,C1,1*%
%TO.N,/+5V I2C BUS*%
X131050000Y-66725000D03*
%TO.P,C1,2*%
%TO.N,Net-(IC1-E)*%
X131050000Y-65175000D03*
%TD*%
D24*
%TO.P,J9,1,Pin_1*%
%TO.N,GND*%
X141150000Y-57800000D03*
%TD*%
%TO.P,J5,1,Pin_1*%
%TO.N,GND*%
X150597000Y-71150800D03*
D25*
%TO.P,J5,2,Pin_2*%
%TO.N,ADDR*%
X150597000Y-68610800D03*
%TD*%
D39*
%TO.P,RV3,1,1*%
%TO.N,Net-(R21-Pad2)*%
X164820000Y-69100000D03*
%TO.P,RV3,2,2*%
%TO.N,Net-(R12-Pad1)*%
X167360000Y-69100000D03*
%TO.P,RV3,3,3*%
%TO.N,Net-(R16-Pad1)*%
X169900000Y-69100000D03*
%TD*%
D27*
%TO.P,R28,1*%
%TO.N,Net-(D3-A)*%
X119925000Y-61800000D03*
%TO.P,R28,2*%
%TO.N,+12V*%
X121575000Y-61800000D03*
%TD*%
D12*
%TO.P,R4,1*%
%TO.N,Net-(D1-A)*%
X133550000Y-78225000D03*
%TO.P,R4,2*%
%TO.N,+4-7Vext*%
X131900000Y-78225000D03*
%TD*%
D18*
%TO.P,R26,1*%
%TO.N,Net-(J6-Pad3)*%
X181025800Y-72606400D03*
%TO.P,R26,2*%
%TO.N,Net-(CR4-Pad1)*%
X181025800Y-74256400D03*
%TD*%
%TO.P,R10,1*%
%TO.N,Net-(U4-VDD)*%
X150750000Y-60575000D03*
%TO.P,R10,2*%
%TO.N,+3V3*%
X150750000Y-62225000D03*
%TD*%
D12*
%TO.P,R29,1*%
%TO.N,+3V3*%
X155175000Y-84000000D03*
%TO.P,R29,2*%
%TO.N,Net-(IC1-Pad1)*%
X153525000Y-84000000D03*
%TD*%
D40*
%TO.P,PS1,1,+Vin*%
%TO.N,Net-(PS1-+Vin)*%
X110580000Y-81667500D03*
D41*
%TO.P,PS1,2,-Vin*%
%TO.N,Net-(D2-K)*%
X113120000Y-81667500D03*
%TO.P,PS1,4,-Vout*%
%TO.N,GND*%
X118200000Y-81667500D03*
%TO.P,PS1,5,0V*%
%TO.N,unconnected-(PS1-0V-Pad5)*%
X120740000Y-81667500D03*
%TO.P,PS1,6,+Vout*%
%TO.N,+9V*%
X123280000Y-81667500D03*
%TD*%
D12*
%TO.P,R21,1*%
%TO.N,Net-(CR3-Pad1)*%
X174853600Y-66725800D03*
%TO.P,R21,2*%
%TO.N,Net-(R21-Pad2)*%
X173203600Y-66725800D03*
%TD*%
D42*
%TO.P,D1,1,K*%
%TO.N,GND*%
X136500000Y-78225000D03*
%TO.P,D1,2,A*%
%TO.N,Net-(D1-A)*%
X134925000Y-78225000D03*
%TD*%
%TO.P,D2,1,K*%
%TO.N,Net-(D2-K)*%
X111936700Y-76351000D03*
%TO.P,D2,2,A*%
%TO.N,Net-(D2-A)*%
X110361700Y-76351000D03*
%TD*%
D32*
%TO.P,U1,1,GND*%
%TO.N,GND*%
X150450000Y-78025000D03*
%TO.P,U1,2,VO*%
%TO.N,+3V3*%
X148150000Y-78025000D03*
D33*
X148150000Y-84325000D03*
D32*
%TO.P,U1,3,VI*%
%TO.N,+9V*%
X145850000Y-78025000D03*
%TD*%
D43*
%TO.P,L1,1,1*%
%TO.N,+12V*%
X114075000Y-71400000D03*
%TO.P,L1,2,2*%
%TO.N,Net-(PS1-+Vin)*%
X111275000Y-71400000D03*
%TD*%
D44*
%TO.P,C20,1*%
%TO.N,+12V*%
X128100000Y-69375000D03*
%TO.P,C20,2*%
%TO.N,Net-(D2-K)*%
X120700000Y-69375000D03*
%TD*%
D12*
%TO.P,R6,1*%
%TO.N,Net-(R6-Pad1)*%
X143325000Y-77800000D03*
%TO.P,R6,2*%
%TO.N,GND*%
X141675000Y-77800000D03*
%TD*%
D45*
%TO.P,CR1,1,1*%
%TO.N,GND*%
X170369700Y-84875000D03*
%TO.P,CR1,2,2*%
%TO.N,+4-7Vext*%
X166280300Y-84875000D03*
%TD*%
D17*
%TO.P,C4,1*%
%TO.N,+9V*%
X145275000Y-75925000D03*
%TO.P,C4,2*%
%TO.N,GND*%
X146825000Y-75925000D03*
%TD*%
D23*
%TO.P,R9,1*%
%TO.N,ADDR*%
X150725000Y-65950000D03*
%TO.P,R9,2*%
%TO.N,+3V3*%
X150725000Y-64300000D03*
%TD*%
D18*
%TO.P,R12,1*%
%TO.N,Net-(R12-Pad1)*%
X161264600Y-62890400D03*
%TO.P,R12,2*%
%TO.N,AIN2*%
X161264600Y-64540400D03*
%TD*%
D27*
%TO.P,R18,1*%
%TO.N,Net-(R18-Pad1)*%
X173215800Y-81102200D03*
%TO.P,R18,2*%
%TO.N,GND*%
X174865800Y-81102200D03*
%TD*%
D46*
%TO.P,C12,1*%
%TO.N,Net-(U4-VDD)*%
X153116200Y-59664600D03*
%TO.P,C12,2*%
%TO.N,GND*%
X155016200Y-59664600D03*
%TD*%
D39*
%TO.P,RV4,1,1*%
%TO.N,Net-(R22-Pad2)*%
X164820000Y-74425000D03*
%TO.P,RV4,2,2*%
%TO.N,Net-(R13-Pad1)*%
X167360000Y-74425000D03*
%TO.P,RV4,3,3*%
%TO.N,Net-(R17-Pad1)*%
X169900000Y-74425000D03*
%TD*%
D19*
%TO.P,CR5,1,1*%
%TO.N,Net-(CR5-Pad1)*%
X177952400Y-80022700D03*
%TO.P,CR5,2,2*%
%TO.N,GND*%
X177952400Y-84112100D03*
%TD*%
D24*
%TO.P,J2,1,Pin_1*%
%TO.N,/+5V I2C BUS*%
X134467600Y-64846200D03*
D25*
%TO.P,J2,2,Pin_2*%
%TO.N,Net-(J2-Pin_2)*%
X134467600Y-62306200D03*
%TO.P,J2,3,Pin_3*%
%TO.N,Net-(IC1-E)*%
X137007600Y-64846200D03*
%TO.P,J2,4,Pin_4*%
%TO.N,Net-(J2-Pin_4)*%
X137007600Y-62306200D03*
%TO.P,J2,5,Pin_5*%
%TO.N,Net-(IC1-E)*%
X139547600Y-64846200D03*
%TO.P,J2,6,Pin_6*%
%TO.N,Net-(J2-Pin_6)*%
X139547600Y-62306200D03*
%TD*%
D18*
%TO.P,R24,1*%
%TO.N,Net-(J6-Pad1)*%
X181025800Y-59360800D03*
%TO.P,R24,2*%
%TO.N,Net-(CR2-Pad1)*%
X181025800Y-61010800D03*
%TD*%
%TO.P,R25,1*%
%TO.N,Net-(J6-Pad2)*%
X180924200Y-65215000D03*
%TO.P,R25,2*%
%TO.N,Net-(CR3-Pad1)*%
X180924200Y-66865000D03*
%TD*%
D15*
%TO.P,C17,1*%
%TO.N,AIN1*%
X161290000Y-72453200D03*
%TO.P,C17,2*%
%TO.N,GND*%
X161290000Y-74003200D03*
%TD*%
D17*
%TO.P,C7,1*%
%TO.N,+3V3*%
X145175000Y-60075000D03*
%TO.P,C7,2*%
%TO.N,GND*%
X146725000Y-60075000D03*
%TD*%
D27*
%TO.P,R17,1*%
%TO.N,Net-(R17-Pad1)*%
X173229000Y-75438000D03*
%TO.P,R17,2*%
%TO.N,GND*%
X174879000Y-75438000D03*
%TD*%
D39*
%TO.P,RV5,1,1*%
%TO.N,Net-(R23-Pad2)*%
X164820000Y-79750000D03*
%TO.P,RV5,2,2*%
%TO.N,Net-(R14-Pad1)*%
X167360000Y-79750000D03*
%TO.P,RV5,3,3*%
%TO.N,Net-(R18-Pad1)*%
X169900000Y-79750000D03*
%TD*%
D15*
%TO.P,C18,1*%
%TO.N,AIN0*%
X161315400Y-79057200D03*
%TO.P,C18,2*%
%TO.N,GND*%
X161315400Y-80607200D03*
%TD*%
D47*
%TO.P,C10,1*%
%TO.N,+9V*%
X123155000Y-76375000D03*
%TO.P,C10,2*%
%TO.N,GND*%
X128095000Y-76375000D03*
%TD*%
D37*
%TO.P,C14,1*%
%TO.N,Net-(PS1-+Vin)*%
X108939200Y-72139600D03*
%TO.P,C14,2*%
%TO.N,Net-(D2-K)*%
X108939200Y-70239600D03*
%TD*%
D12*
%TO.P,R8,1*%
%TO.N,SDA2*%
X147000000Y-57975000D03*
%TO.P,R8,2*%
%TO.N,+3V3*%
X145350000Y-57975000D03*
%TD*%
D24*
%TO.P,J4,1,Pin_1*%
%TO.N,GND*%
X173939200Y-84099400D03*
D25*
%TO.P,J4,2,Pin_2*%
%TO.N,+4-7Vext*%
X173939200Y-86639400D03*
%TD*%
D12*
%TO.P,R30,1*%
%TO.N,RDY*%
X155725000Y-76050000D03*
%TO.P,R30,2*%
%TO.N,Net-(Q1-B)*%
X154075000Y-76050000D03*
%TD*%
D17*
%TO.P,C11,1*%
%TO.N,+9V*%
X124750000Y-79000000D03*
%TO.P,C11,2*%
%TO.N,GND*%
X126300000Y-79000000D03*
%TD*%
D12*
%TO.P,R23,1*%
%TO.N,Net-(CR5-Pad1)*%
X174904400Y-78790800D03*
%TO.P,R23,2*%
%TO.N,Net-(R23-Pad2)*%
X173254400Y-78790800D03*
%TD*%
%TO.P,R2,1*%
%TO.N,Net-(J2-Pin_4)*%
X145575000Y-72000000D03*
%TO.P,R2,2*%
%TO.N,Net-(J3-Pin_1)*%
X143925000Y-72000000D03*
%TD*%
D39*
%TO.P,RV2,1,1*%
%TO.N,Net-(R20-Pad2)*%
X164810000Y-63750000D03*
%TO.P,RV2,2,2*%
%TO.N,Net-(R11-Pad1)*%
X167350000Y-63750000D03*
%TO.P,RV2,3,3*%
%TO.N,Net-(R15-Pad1)*%
X169890000Y-63750000D03*
%TD*%
D48*
%TO.N,GND*%
X162250000Y-84375000D03*
D49*
X127450000Y-81700000D03*
D50*
X154381200Y-66450000D03*
X147764800Y-60121800D03*
X147725000Y-75975000D03*
X162382200Y-80568800D03*
X154800000Y-72850000D03*
X161569400Y-58801000D03*
X162433000Y-74003200D03*
X142525000Y-83350000D03*
X162433000Y-67577000D03*
D48*
X151800000Y-81575000D03*
D50*
X140683000Y-77775000D03*
X154414789Y-60737714D03*
D48*
X150350000Y-76350000D03*
D50*
%TO.N,Net-(IC1-E)*%
X114225000Y-73750000D03*
X146650000Y-69250000D03*
X132125000Y-65200000D03*
%TO.N,Net-(D2-K)*%
X124484200Y-69265800D03*
%TO.N,Net-(J2-Pin_6)*%
X145450000Y-69250000D03*
X141625000Y-68925000D03*
%TO.N,Net-(IC1-C)*%
X113450000Y-76700000D03*
X131200000Y-59875675D03*
%TO.N,SDA2*%
X145925000Y-61037500D03*
X149525000Y-63475000D03*
%TO.N,+3V3*%
X150750000Y-63250000D03*
X148200000Y-64743000D03*
%TO.N,Net-(D3-A)*%
X118850000Y-61927000D03*
%TO.N,Net-(IC1-Pad1)*%
X153550000Y-85200000D03*
X119800000Y-76600000D03*
%TO.N,Net-(Q1-C)*%
X155875000Y-70775000D03*
X121000000Y-76550000D03*
X160200000Y-78450000D03*
X155625000Y-85425000D03*
%TD*%
D51*
%TO.N,Net-(D2-A)*%
X110361700Y-76351000D02*
X110361700Y-74713300D01*
X110361700Y-74713300D02*
X110375000Y-74700000D01*
%TO.N,+12V*%
X114200000Y-71850000D02*
X114250800Y-71900800D01*
X114075000Y-72300000D02*
X114075000Y-71400000D01*
X114200000Y-71525000D02*
X114200000Y-71850000D01*
X121575000Y-61800000D02*
X121575000Y-63375600D01*
D52*
X114250000Y-71400000D02*
X115250000Y-72400000D01*
X115250000Y-72400000D02*
X116450000Y-72400000D01*
D51*
X112725000Y-72775000D02*
X113600000Y-72775000D01*
D53*
X128950000Y-64800000D02*
X128929200Y-64820800D01*
D52*
X114075000Y-71400000D02*
X114250000Y-71400000D01*
D51*
X121575000Y-63375600D02*
X121525000Y-63425600D01*
D52*
X128871200Y-69265800D02*
X128950000Y-69187000D01*
X119500000Y-72400000D02*
X120400000Y-71500000D01*
D53*
X128929200Y-64820800D02*
X122370800Y-64820800D01*
D54*
X127812800Y-69265800D02*
X128871200Y-69265800D01*
D52*
X124350000Y-71500000D02*
X126584200Y-69265800D01*
D51*
X112025000Y-74700000D02*
X112025000Y-73475000D01*
D52*
X126584200Y-69265800D02*
X127812800Y-69265800D01*
X128950000Y-69187000D02*
X128950000Y-63450000D01*
D53*
X121525000Y-63975000D02*
X121525000Y-63425600D01*
X122370800Y-64820800D02*
X121525000Y-63975000D01*
D51*
X113600000Y-72775000D02*
X114075000Y-72300000D01*
D52*
X128950000Y-63450000D02*
X128300000Y-62800000D01*
X116450000Y-72400000D02*
X119500000Y-72400000D01*
D51*
X114075000Y-71400000D02*
X114200000Y-71525000D01*
X112025000Y-73475000D02*
X112725000Y-72775000D01*
X112050000Y-74675000D02*
X112025000Y-74700000D01*
D52*
X120400000Y-71500000D02*
X124350000Y-71500000D01*
D55*
%TO.N,GND*%
X153666800Y-81715000D02*
X153873200Y-81508600D01*
D56*
X154408475Y-60731400D02*
X155013800Y-60731400D01*
D53*
X126300000Y-79000000D02*
X126300000Y-79050000D01*
D51*
X141650000Y-77775000D02*
X141675000Y-77800000D01*
D56*
X177952400Y-70065900D02*
X177952400Y-70472300D01*
D52*
X170394700Y-84500000D02*
X170394700Y-84850000D01*
D57*
X181559200Y-77139800D02*
X186258200Y-72440800D01*
X190779400Y-67259200D02*
X183692800Y-67259200D01*
D51*
X140683000Y-77775000D02*
X141650000Y-77775000D01*
X146699200Y-61926400D02*
X146699200Y-62701400D01*
D52*
X170394700Y-84850000D02*
X170369700Y-84875000D01*
D57*
X181000400Y-69951600D02*
X177965100Y-69951600D01*
X177901600Y-77050900D02*
X177990500Y-77139800D01*
D56*
X162343800Y-80607200D02*
X161315400Y-80607200D01*
D53*
X127650000Y-79000000D02*
X126300000Y-79000000D01*
D51*
X162150000Y-84275000D02*
X162250000Y-84375000D01*
D56*
X175539400Y-81102200D02*
X174865800Y-81102200D01*
D57*
X184937400Y-62407800D02*
X190779400Y-62407800D01*
D51*
X155687500Y-72637500D02*
X155687500Y-74312500D01*
D57*
X190779400Y-72440800D02*
X190779400Y-79349600D01*
D56*
X174840400Y-63500000D02*
X177368200Y-63500000D01*
D51*
X139225000Y-76875000D02*
X137325000Y-76875000D01*
D53*
X163775000Y-83800000D02*
X162625000Y-83800000D01*
D56*
X162750200Y-58801000D02*
X162953400Y-58597800D01*
D58*
X143175000Y-84225000D02*
X143175000Y-84000000D01*
D56*
X155016200Y-61453000D02*
X154925000Y-61544200D01*
D51*
X137325000Y-76875000D02*
X136500000Y-77700000D01*
D57*
X177952400Y-84112100D02*
X178066700Y-84226400D01*
X187071000Y-80060800D02*
X188163200Y-80060800D01*
D51*
X140683000Y-77775000D02*
X140701200Y-77793200D01*
D55*
X152200000Y-81715000D02*
X153666800Y-81715000D01*
D52*
X171145300Y-84099400D02*
X173939200Y-84099400D01*
D57*
X190068200Y-80060800D02*
X188163200Y-80060800D01*
D59*
X127450000Y-81700000D02*
X127650000Y-81500000D01*
D55*
X150350000Y-76350000D02*
X150350000Y-75125000D01*
D52*
X170369700Y-84875000D02*
X171145300Y-84099400D01*
D56*
X139675000Y-77775000D02*
X140683000Y-77775000D01*
D52*
X127650000Y-81500000D02*
X127650000Y-79000000D01*
D57*
X190779400Y-67259200D02*
X190779400Y-72440800D01*
D55*
X146700000Y-75975000D02*
X146625000Y-75900000D01*
D51*
X155687500Y-72787500D02*
X154862500Y-72787500D01*
D57*
X177965100Y-69951600D02*
X177901600Y-70015100D01*
X182905400Y-84226400D02*
X187071000Y-80060800D01*
D56*
X161569400Y-58801000D02*
X162750200Y-58801000D01*
X174879000Y-76428600D02*
X174879000Y-75438000D01*
D52*
X128050000Y-78600000D02*
X128050000Y-76420000D01*
D56*
X177368200Y-63500000D02*
X177901600Y-62966600D01*
D55*
X147725000Y-75975000D02*
X146700000Y-75975000D01*
D56*
X177952400Y-83515200D02*
X175539400Y-81102200D01*
X155016200Y-60500000D02*
X155016200Y-61453000D01*
X155016200Y-60733800D02*
X155016200Y-59664600D01*
D55*
X147764800Y-60121800D02*
X146771800Y-60121800D01*
D53*
X162625000Y-83800000D02*
X162150000Y-84275000D01*
D57*
X177990500Y-77139800D02*
X181559200Y-77139800D01*
D55*
X146725000Y-60075000D02*
X146725000Y-60400000D01*
X151993600Y-81508600D02*
X152200000Y-81715000D01*
D52*
X128050000Y-78600000D02*
X127650000Y-79000000D01*
D57*
X177901600Y-62966600D02*
X184378600Y-62966600D01*
D55*
X146725000Y-60400000D02*
X146699200Y-60425800D01*
D57*
X183692800Y-67259200D02*
X181000400Y-69951600D01*
D55*
X150350000Y-75125000D02*
X150300000Y-75075000D01*
X146699200Y-60425800D02*
X146699200Y-61926400D01*
D60*
X154400000Y-66468800D02*
X154381200Y-66450000D01*
D58*
X143175000Y-84000000D02*
X142525000Y-83350000D01*
D56*
X154414789Y-60737714D02*
X154408475Y-60731400D01*
D51*
X139675000Y-77775000D02*
X139675000Y-77325000D01*
D55*
X150300000Y-76400000D02*
X150350000Y-76350000D01*
D51*
X139675000Y-77325000D02*
X139225000Y-76875000D01*
D56*
X177901600Y-77050900D02*
X175501300Y-77050900D01*
D59*
X150300000Y-78100000D02*
X150300000Y-76400000D01*
D60*
X154400000Y-68510400D02*
X154400000Y-66468800D01*
D57*
X190779400Y-62407800D02*
X190779400Y-67259200D01*
D51*
X136500000Y-77700000D02*
X136500000Y-78225000D01*
D57*
X184378600Y-62966600D02*
X184937400Y-62407800D01*
D56*
X177380900Y-69494400D02*
X177952400Y-70065900D01*
X161290000Y-74003200D02*
X162433000Y-74003200D01*
X174840400Y-69494400D02*
X177380900Y-69494400D01*
D51*
X155687500Y-74312500D02*
X155775000Y-74400000D01*
D52*
X170369700Y-84475000D02*
X170394700Y-84500000D01*
D57*
X190779400Y-79349600D02*
X190068200Y-80060800D01*
D55*
X146771800Y-60121800D02*
X146725000Y-60075000D01*
D56*
X177952400Y-84112100D02*
X177952400Y-83515200D01*
D57*
X186258200Y-72440800D02*
X190779400Y-72440800D01*
D51*
X154862500Y-72787500D02*
X154800000Y-72850000D01*
D56*
X162382200Y-80568800D02*
X162343800Y-80607200D01*
X175501300Y-77050900D02*
X174879000Y-76428600D01*
X162433000Y-67577000D02*
X161290000Y-67577000D01*
D57*
X178066700Y-84226400D02*
X182905400Y-84226400D01*
D51*
%TO.N,Net-(D1-A)*%
X134850000Y-78300000D02*
X134925000Y-78225000D01*
X133550000Y-78300000D02*
X134850000Y-78300000D01*
D52*
%TO.N,Net-(PS1-+Vin)*%
X108939200Y-72139600D02*
X110535400Y-72139600D01*
X108700000Y-72378800D02*
X108939200Y-72139600D01*
X108939200Y-72139600D02*
X108990000Y-72190400D01*
X110580000Y-81667500D02*
X110580000Y-80379400D01*
X108700000Y-78499400D02*
X108700000Y-72378800D01*
X110580000Y-80379400D02*
X108700000Y-78499400D01*
X110535400Y-72139600D02*
X111275000Y-71400000D01*
D59*
%TO.N,Net-(CR2-Pad1)*%
X180035200Y-61010800D02*
X181025800Y-61010800D01*
D56*
X175564800Y-58877200D02*
X177901600Y-58877200D01*
X174865800Y-60883800D02*
X174865800Y-59576200D01*
X174865800Y-59576200D02*
X175564800Y-58877200D01*
D59*
X177901600Y-58877200D02*
X180035200Y-61010800D01*
%TO.N,Net-(CR3-Pad1)*%
X177952400Y-66382900D02*
X179158900Y-66382900D01*
D56*
X174853600Y-66725800D02*
X177101500Y-66725800D01*
X177101500Y-66725800D02*
X177901600Y-65925700D01*
D59*
X179667400Y-66865000D02*
X180924200Y-66865000D01*
X179654200Y-66878200D02*
X179667400Y-66865000D01*
X179158900Y-66382900D02*
X179654200Y-66878200D01*
D56*
X177901600Y-65925700D02*
X177952400Y-65976500D01*
X177952400Y-65976500D02*
X177952400Y-66382900D01*
D59*
%TO.N,Net-(CR4-Pad1)*%
X179196500Y-74256400D02*
X181025800Y-74256400D01*
D56*
X177901600Y-72961500D02*
X177685700Y-72745600D01*
X177685700Y-72745600D02*
X174879000Y-72745600D01*
D59*
X177901600Y-72961500D02*
X179196500Y-74256400D01*
D55*
%TO.N,/+5V I2C BUS*%
X130825000Y-66750000D02*
X132525000Y-66750000D01*
X132525000Y-66750000D02*
X132525000Y-68100000D01*
X130800000Y-66725000D02*
X130825000Y-66750000D01*
X134467600Y-66282400D02*
X134467600Y-64846200D01*
D51*
X134467600Y-64846200D02*
X134467600Y-64882400D01*
D55*
X132525000Y-66750000D02*
X134000000Y-66750000D01*
X134000000Y-66750000D02*
X134467600Y-66282400D01*
D53*
%TO.N,Net-(J3-Pin_2)*%
X140975000Y-67300000D02*
X142537800Y-67300000D01*
X134175000Y-68100000D02*
X134675000Y-68600000D01*
X136960000Y-68610000D02*
X138470000Y-67100000D01*
X138470000Y-67100000D02*
X140775000Y-67100000D01*
X136950000Y-68600000D02*
X136960000Y-68610000D01*
X134675000Y-68600000D02*
X136950000Y-68600000D01*
X140775000Y-67100000D02*
X140975000Y-67300000D01*
D55*
X142889200Y-69364200D02*
X143975000Y-70450000D01*
X142889200Y-67651400D02*
X142889200Y-69364200D01*
D53*
X142537800Y-67300000D02*
X142889200Y-67651400D01*
D56*
%TO.N,Net-(U3-ADJ)*%
X138515400Y-80375000D02*
X139268200Y-79622200D01*
D51*
X138125000Y-77775000D02*
X138150000Y-77775000D01*
D56*
X139268200Y-79622200D02*
X139356800Y-79622200D01*
D51*
X138150000Y-77775000D02*
X139356800Y-78981800D01*
D56*
X135175000Y-80375000D02*
X138515400Y-80375000D01*
D51*
X139356800Y-78981800D02*
X139356800Y-79622200D01*
%TO.N,Net-(U4-VDD)*%
X150700000Y-60575000D02*
X150700000Y-59967600D01*
X150700000Y-59967600D02*
X151003000Y-59664600D01*
X153375000Y-62075000D02*
X154381200Y-63081200D01*
X153454800Y-61367400D02*
X153631600Y-61544200D01*
X151003000Y-59664600D02*
X153116200Y-59664600D01*
X153375000Y-61544200D02*
X153375000Y-62075000D01*
X154381200Y-63081200D02*
X154381200Y-64229200D01*
X153375000Y-61287600D02*
X153375000Y-59923400D01*
X153375000Y-59923400D02*
X153116200Y-59664600D01*
X150604300Y-60479300D02*
X150700000Y-60575000D01*
X150368000Y-60479300D02*
X150604300Y-60479300D01*
X153631600Y-61544200D02*
X153375000Y-61287600D01*
X153631600Y-61544200D02*
X153375000Y-61544200D01*
%TO.N,Net-(IC1-E)*%
X146675000Y-68653800D02*
X146675000Y-69850000D01*
X114225000Y-75430000D02*
X114175000Y-75480000D01*
X146075000Y-70450000D02*
X145525000Y-70450000D01*
X131075000Y-65200000D02*
X131050000Y-65175000D01*
D55*
X132125000Y-65200000D02*
X131075000Y-65200000D01*
D53*
X139547600Y-64846200D02*
X138176000Y-64846200D01*
D51*
X146699200Y-67651400D02*
X146699200Y-68629600D01*
D53*
X138176000Y-64846200D02*
X137007600Y-64846200D01*
D51*
X146675000Y-69850000D02*
X146075000Y-70450000D01*
D55*
X132125000Y-65200000D02*
X132100000Y-65175000D01*
D51*
X146699200Y-68629600D02*
X146675000Y-68653800D01*
X114225000Y-73750000D02*
X114225000Y-75430000D01*
D56*
%TO.N,Net-(D2-K)*%
X112826800Y-79926800D02*
X112826800Y-81374300D01*
D59*
X118575000Y-57750000D02*
X118200000Y-57375000D01*
D53*
X120038800Y-63337000D02*
X119975000Y-63273200D01*
D56*
X111987400Y-79087400D02*
X112826800Y-79926800D01*
D59*
X120075000Y-57750000D02*
X118575000Y-57750000D01*
D53*
X124500000Y-69250000D02*
X124484200Y-69265800D01*
D52*
X111912400Y-64719200D02*
X111912400Y-64668400D01*
D56*
X111987400Y-76401700D02*
X111987400Y-79087400D01*
D52*
X116300000Y-69265800D02*
X116300000Y-69850000D01*
D59*
X110325000Y-57375000D02*
X109300000Y-58400000D01*
D53*
X124484200Y-69265800D02*
X121471200Y-69265800D01*
D56*
X112826800Y-81374300D02*
X113120000Y-81667500D01*
D59*
X109300000Y-62310000D02*
X111810800Y-64820800D01*
D61*
X116300000Y-69265800D02*
X121184200Y-69265800D01*
D52*
X111810800Y-64820800D02*
X111912400Y-64719200D01*
D59*
X118618000Y-69265800D02*
X118668800Y-69316600D01*
D53*
X121500000Y-69237000D02*
X121500000Y-65650000D01*
D59*
X108939200Y-69183000D02*
X108939200Y-70239600D01*
D61*
X111810800Y-69183000D02*
X111810800Y-64820800D01*
D51*
X111936700Y-76351000D02*
X111987400Y-76401700D01*
D53*
X121500000Y-65650000D02*
X119975000Y-64125000D01*
D61*
X121133000Y-69183000D02*
X108939200Y-69183000D01*
X121200000Y-69250000D02*
X121133000Y-69183000D01*
D59*
X111810800Y-64820800D02*
X111887000Y-64820800D01*
D52*
X116300000Y-69850000D02*
X116450000Y-70000000D01*
X121184200Y-69265800D02*
X121200000Y-69250000D01*
D53*
X119988000Y-63438600D02*
X119975000Y-63425600D01*
X121471200Y-69265800D02*
X121500000Y-69237000D01*
D59*
X118200000Y-57375000D02*
X110325000Y-57375000D01*
D53*
X119975000Y-64125000D02*
X119975000Y-63425600D01*
D59*
X109300000Y-58400000D02*
X109300000Y-62310000D01*
%TO.N,Net-(CR5-Pad1)*%
X179577500Y-81647800D02*
X181025800Y-81647800D01*
X177952400Y-80022700D02*
X179577500Y-81647800D01*
D56*
X174904400Y-78790800D02*
X174904400Y-79476600D01*
X175450500Y-80022700D02*
X177622200Y-80022700D01*
X174904400Y-79476600D02*
X175450500Y-80022700D01*
D51*
%TO.N,Net-(J2-Pin_6)*%
X142050000Y-69350000D02*
X142050000Y-69925000D01*
X145429200Y-69020800D02*
X145429200Y-67651400D01*
X142150000Y-70025000D02*
X142200000Y-70025000D01*
X141625000Y-68925000D02*
X142050000Y-69350000D01*
X145450000Y-69041600D02*
X145429200Y-69020800D01*
X145450000Y-69250000D02*
X145450000Y-69041600D01*
X142050000Y-69925000D02*
X142150000Y-70025000D01*
%TO.N,Net-(J2-Pin_4)*%
X144750000Y-68242200D02*
X144750000Y-71175000D01*
X144159200Y-67651400D02*
X144750000Y-68242200D01*
X144159200Y-66968600D02*
X143459200Y-66268600D01*
D55*
X145575000Y-72225000D02*
X145575000Y-72000000D01*
D51*
X135737600Y-63576200D02*
X137007600Y-62306200D01*
X141351000Y-66268600D02*
X141350000Y-66269600D01*
X135737600Y-65811400D02*
X135737600Y-63576200D01*
X136194800Y-66268600D02*
X135737600Y-65811400D01*
X144750000Y-71175000D02*
X145575000Y-72000000D01*
X141351000Y-66268600D02*
X136194800Y-66268600D01*
X144159200Y-67651400D02*
X144159200Y-66968600D01*
X143459200Y-66268600D02*
X141351000Y-66268600D01*
D59*
%TO.N,+9V*%
X123280000Y-81667500D02*
X123280000Y-83005000D01*
X123280000Y-83005000D02*
X124575000Y-84300000D01*
D62*
X144100000Y-76225000D02*
X143702000Y-76225000D01*
X145474000Y-77649000D02*
X145850000Y-78025000D01*
D53*
X124675000Y-79075000D02*
X124750000Y-79000000D01*
D62*
X136717847Y-76224000D02*
X135841847Y-77100000D01*
D53*
X123325000Y-79050000D02*
X123350000Y-79075000D01*
D62*
X145275000Y-75925000D02*
X145474000Y-76124000D01*
X145275000Y-76053664D02*
X145275000Y-75925000D01*
X143702000Y-76225000D02*
X143701000Y-76224000D01*
X145150000Y-75900000D02*
X144425000Y-75900000D01*
X145474000Y-76124000D02*
X145474000Y-77649000D01*
X145850000Y-78025000D02*
X145700000Y-78025000D01*
D53*
X123350000Y-79075000D02*
X124675000Y-79075000D01*
D59*
X130575000Y-82750000D02*
X130575000Y-80375000D01*
D62*
X130537500Y-77562500D02*
X130537500Y-80450000D01*
D59*
X123325000Y-81622500D02*
X123280000Y-81667500D01*
X123325000Y-76555000D02*
X123325000Y-81622500D01*
D62*
X144425000Y-75900000D02*
X144100000Y-76225000D01*
D59*
X123137500Y-76367500D02*
X123325000Y-76555000D01*
X124575000Y-84300000D02*
X129025000Y-84300000D01*
D62*
X143701000Y-76224000D02*
X136717847Y-76224000D01*
D53*
X124750000Y-79000000D02*
X124750000Y-79050000D01*
D62*
X135841847Y-77100000D02*
X131000000Y-77100000D01*
D59*
X129025000Y-84300000D02*
X130575000Y-82750000D01*
D62*
X131000000Y-77100000D02*
X130537500Y-77562500D01*
D51*
%TO.N,AIN0*%
X158800000Y-69800000D02*
X158340000Y-69800000D01*
X161315400Y-77609200D02*
X160225000Y-76518800D01*
X157675000Y-69050000D02*
X155075000Y-69050000D01*
X154900000Y-68875000D02*
X154900000Y-68150000D01*
X155075000Y-69050000D02*
X154900000Y-68875000D01*
X161315400Y-77609200D02*
X161315400Y-79057200D01*
X158275000Y-69735000D02*
X158275000Y-69650000D01*
X158275000Y-69650000D02*
X157675000Y-69050000D01*
X160225000Y-76518800D02*
X160225000Y-71225000D01*
X158340000Y-69800000D02*
X158275000Y-69735000D01*
X160225000Y-71225000D02*
X158800000Y-69800000D01*
D56*
%TO.N,Net-(J3-Pin_3)*%
X141200000Y-71200000D02*
X141675000Y-71675000D01*
X141675000Y-71675000D02*
X142200000Y-71675000D01*
X139500000Y-68610000D02*
X141200000Y-70310000D01*
X141200000Y-70310000D02*
X141200000Y-71200000D01*
D51*
%TO.N,AIN1*%
X155381200Y-68529200D02*
X156720800Y-68529200D01*
X156720800Y-68529200D02*
X158055000Y-67195000D01*
X158360000Y-67195000D02*
X160500000Y-69335000D01*
X160500000Y-70711000D02*
X160768800Y-70979800D01*
X161290000Y-71005200D02*
X161315400Y-70979800D01*
X161290000Y-72453200D02*
X161290000Y-71005200D01*
X160768800Y-70979800D02*
X161315400Y-70979800D01*
X158275000Y-67195000D02*
X158360000Y-67195000D01*
X158055000Y-67195000D02*
X158275000Y-67195000D01*
X160500000Y-69335000D02*
X160500000Y-70711000D01*
%TO.N,AIN2*%
X158604600Y-64540400D02*
X158425000Y-64720000D01*
X161264600Y-64540400D02*
X161060400Y-64744600D01*
X161290000Y-64565800D02*
X161264600Y-64540400D01*
X158425000Y-64720000D02*
X157195000Y-64720000D01*
X161264600Y-64582800D02*
X161264600Y-64540400D01*
X156325000Y-63850000D02*
X155400000Y-63850000D01*
X157195000Y-64720000D02*
X156325000Y-63850000D01*
X161290000Y-66027000D02*
X161290000Y-64565800D01*
X161264600Y-64540400D02*
X158604600Y-64540400D01*
D56*
%TO.N,AIN3*%
X164503400Y-58597800D02*
X166027600Y-58597800D01*
X160020000Y-62180000D02*
X161621000Y-60579000D01*
D51*
X154900000Y-63150000D02*
X154900000Y-63850000D01*
X158425000Y-62180000D02*
X155870000Y-62180000D01*
D56*
X164503400Y-59721600D02*
X164503400Y-58597800D01*
X163646000Y-60579000D02*
X164503400Y-59721600D01*
D51*
X155870000Y-62180000D02*
X154900000Y-63150000D01*
D56*
X158425000Y-62180000D02*
X160020000Y-62180000D01*
D51*
X154881200Y-63454200D02*
X154881200Y-64229200D01*
D56*
X161621000Y-60579000D02*
X163646000Y-60579000D01*
D51*
%TO.N,SCL2*%
X149975000Y-58789000D02*
X149975000Y-58025000D01*
X145429200Y-63676399D02*
X145895801Y-64143000D01*
X148825000Y-64243000D02*
X148825000Y-72218600D01*
X149525000Y-61291400D02*
X149525000Y-59239000D01*
X155375000Y-77425000D02*
X155376000Y-77426000D01*
X149600000Y-61366400D02*
X149525000Y-61291400D01*
X151046400Y-72796400D02*
X152800000Y-74550000D01*
X149658600Y-61366400D02*
X151466400Y-61366400D01*
X145429200Y-62701400D02*
X145429200Y-63676399D01*
X156183900Y-77958900D02*
X156183900Y-78308900D01*
X149525000Y-59239000D02*
X149975000Y-58789000D01*
X155651000Y-77426000D02*
X156183900Y-77958900D01*
X151466400Y-61366400D02*
X153381200Y-63281200D01*
X155376000Y-77426000D02*
X155651000Y-77426000D01*
X148825000Y-72218600D02*
X149402800Y-72796400D01*
X148825000Y-64150000D02*
X148825000Y-64243000D01*
X148818000Y-64143000D02*
X148825000Y-64150000D01*
X153300000Y-77425000D02*
X155375000Y-77425000D01*
X148825000Y-62062500D02*
X149521100Y-61366400D01*
X149402800Y-72796400D02*
X151046400Y-72796400D01*
X156183900Y-78308900D02*
X157835000Y-79960000D01*
X157835000Y-79960000D02*
X158425000Y-79960000D01*
X149658600Y-61366400D02*
X149600000Y-61366400D01*
X152800000Y-76925000D02*
X153300000Y-77425000D01*
X152800000Y-74550000D02*
X152800000Y-76925000D01*
X149521100Y-61366400D02*
X149658600Y-61366400D01*
X145895801Y-64143000D02*
X148818000Y-64143000D01*
X153381200Y-63281200D02*
X153381200Y-64229200D01*
X148825000Y-64243000D02*
X148825000Y-62062500D01*
%TO.N,Net-(J3-Pin_1)*%
X143425000Y-72500000D02*
X143925000Y-72000000D01*
X141500000Y-72500000D02*
X143425000Y-72500000D01*
X139500000Y-71150000D02*
X140150000Y-71150000D01*
X140150000Y-71150000D02*
X141500000Y-72500000D01*
D59*
%TO.N,Net-(J6-Pad3)*%
X181025800Y-72606400D02*
X183655200Y-69977000D01*
X188137800Y-69977000D02*
X188163200Y-69951600D01*
X183655200Y-69977000D02*
X188137800Y-69977000D01*
%TO.N,Net-(J6-Pad2)*%
X187819800Y-65215000D02*
X188163200Y-64871600D01*
X180924200Y-65215000D02*
X187819800Y-65215000D01*
%TO.N,Net-(J6-Pad1)*%
X181025800Y-59360800D02*
X187732400Y-59360800D01*
X187732400Y-59360800D02*
X188163200Y-59791600D01*
%TO.N,Net-(J7-Pad1)*%
X181977800Y-79997800D02*
X186994800Y-74980800D01*
X186994800Y-74980800D02*
X188163200Y-74980800D01*
X181025800Y-79997800D02*
X181977800Y-79997800D01*
D51*
%TO.N,Net-(IC1-C)*%
X131150000Y-62050000D02*
X131200000Y-62100000D01*
X131150000Y-59925675D02*
X131150000Y-60050000D01*
X131150000Y-60050000D02*
X131225000Y-60125000D01*
X131200000Y-59875675D02*
X131150000Y-59925675D01*
X114225000Y-77970000D02*
X114175000Y-78020000D01*
X131225000Y-60125000D02*
X131225000Y-62100000D01*
X114225000Y-77125000D02*
X114225000Y-77970000D01*
X113800000Y-76700000D02*
X114225000Y-77125000D01*
X113450000Y-76700000D02*
X113800000Y-76700000D01*
%TO.N,SDA2*%
X149525000Y-65025000D02*
X149600000Y-65100000D01*
X149226000Y-69470000D02*
X149226000Y-65209400D01*
X144837500Y-61037500D02*
X144159200Y-61715800D01*
X155542100Y-77025000D02*
X155541100Y-77024000D01*
X152350000Y-70150000D02*
X152050000Y-69850000D01*
X145925000Y-61037500D02*
X145925000Y-59649890D01*
X156750000Y-77425000D02*
X156350000Y-77425000D01*
X155950000Y-77025000D02*
X155542100Y-77025000D01*
X147000000Y-58575000D02*
X147000000Y-57975000D01*
X149335400Y-65100000D02*
X153785400Y-65100000D01*
X156350000Y-77425000D02*
X155950000Y-77025000D01*
X149600000Y-65100000D02*
X149335400Y-65100000D01*
X146724890Y-58850000D02*
X146725000Y-58850000D01*
X153881200Y-65004200D02*
X153881200Y-63868800D01*
X153201000Y-74383900D02*
X153200000Y-74382900D01*
X149226000Y-65209400D02*
X149335400Y-65100000D01*
X149606000Y-69850000D02*
X149226000Y-69470000D01*
X155541100Y-77024000D02*
X153466100Y-77024000D01*
X152050000Y-69850000D02*
X149606000Y-69850000D01*
X152350000Y-73051200D02*
X152350000Y-70150000D01*
X149402400Y-63475000D02*
X149525000Y-63597600D01*
X144159200Y-61715800D02*
X144159200Y-62701400D01*
X156755000Y-77420000D02*
X156750000Y-77425000D01*
X153785400Y-65100000D02*
X153881200Y-65004200D01*
X153466100Y-77024000D02*
X153201000Y-76758900D01*
X145925000Y-59649890D02*
X146724890Y-58850000D01*
X149525000Y-63597600D02*
X149525000Y-65025000D01*
X153881200Y-63868800D02*
X153900000Y-63850000D01*
X158425000Y-77420000D02*
X156755000Y-77420000D01*
X153200000Y-73901200D02*
X152350000Y-73051200D01*
X149525000Y-63475000D02*
X149402400Y-63475000D01*
X146725000Y-58850000D02*
X147000000Y-58575000D01*
X153201000Y-76758900D02*
X153201000Y-74383900D01*
X153200000Y-74382900D02*
X153200000Y-73901200D01*
X145925000Y-61037500D02*
X144837500Y-61037500D01*
%TO.N,Net-(R5-Pad2)*%
X140506800Y-82693200D02*
X140506800Y-85122200D01*
X143050000Y-80150000D02*
X140506800Y-82693200D01*
D56*
%TO.N,Net-(R6-Pad1)*%
X140529200Y-81520800D02*
X139386000Y-81520800D01*
X139386000Y-81520800D02*
X138225000Y-82681800D01*
X142450000Y-78775000D02*
X141850000Y-78775000D01*
X141350000Y-80700000D02*
X140529200Y-81520800D01*
X141350000Y-79275000D02*
X141350000Y-80700000D01*
X143475000Y-77750000D02*
X142450000Y-78775000D01*
X138225000Y-82681800D02*
X138225000Y-85122200D01*
X141850000Y-78775000D02*
X141350000Y-79275000D01*
D63*
%TO.N,+4-7Vext*%
X143250000Y-87450000D02*
X144300000Y-87450000D01*
D59*
X166280300Y-87430300D02*
X166300000Y-87450000D01*
D51*
X143050000Y-82350000D02*
X144300000Y-83600000D01*
D63*
X132950000Y-86750000D02*
X135429100Y-86750000D01*
X166300000Y-87450000D02*
X173128600Y-87450000D01*
D51*
X132837500Y-86637500D02*
X132875000Y-86675000D01*
D63*
X186229000Y-87075000D02*
X188163200Y-85140800D01*
D51*
X131900000Y-79512500D02*
X132837500Y-80450000D01*
D56*
X144000000Y-87495600D02*
X142870600Y-87495600D01*
D51*
X131900000Y-78300000D02*
X131900000Y-79512500D01*
D63*
X174374800Y-87075000D02*
X186229000Y-87075000D01*
D56*
X143992600Y-87503000D02*
X144000000Y-87495600D01*
D59*
X132837500Y-80450000D02*
X132837500Y-86637500D01*
D63*
X173128600Y-87450000D02*
X173153600Y-87425000D01*
X144300000Y-87450000D02*
X166300000Y-87450000D01*
X132875000Y-86675000D02*
X132950000Y-86750000D01*
X173939200Y-86639400D02*
X174374800Y-87075000D01*
X136129100Y-87450000D02*
X143250000Y-87450000D01*
D51*
X143050000Y-81800000D02*
X143050000Y-82350000D01*
D58*
X143175000Y-85775000D02*
X143175000Y-87375000D01*
D51*
X143175000Y-87375000D02*
X143250000Y-87450000D01*
D52*
X132867400Y-86667400D02*
X132875000Y-86675000D01*
D59*
X166280300Y-84875000D02*
X166280300Y-87430300D01*
D51*
X144300000Y-83600000D02*
X144300000Y-87450000D01*
D63*
X173153600Y-87425000D02*
X173939200Y-86639400D01*
D53*
X163775000Y-85350000D02*
X163775000Y-87425000D01*
D63*
X135429100Y-86750000D02*
X136129100Y-87450000D01*
X132905700Y-86644300D02*
X132875000Y-86675000D01*
D56*
%TO.N,Net-(R18-Pad1)*%
X172933400Y-81150000D02*
X172981200Y-81102200D01*
X169800000Y-79400000D02*
X169800000Y-79650000D01*
X169900000Y-79750000D02*
X170750000Y-79750000D01*
X172150000Y-81150000D02*
X172933400Y-81150000D01*
X172981200Y-81102200D02*
X173215800Y-81102200D01*
X169800000Y-79650000D02*
X169900000Y-79750000D01*
X170750000Y-79750000D02*
X172150000Y-81150000D01*
D58*
%TO.N,+3V3*%
X148175000Y-79275000D02*
X148150000Y-79250000D01*
X144023400Y-64750000D02*
X142889200Y-63615800D01*
D51*
X155286800Y-84111800D02*
X155175000Y-84000000D01*
D58*
X148200000Y-64743000D02*
X148274000Y-64817000D01*
D51*
X156261800Y-84111800D02*
X155286800Y-84111800D01*
D58*
X148150000Y-79250000D02*
X148150000Y-78025000D01*
D51*
X145350000Y-57975000D02*
X145350000Y-59900000D01*
X150725000Y-64300000D02*
X150635800Y-64300000D01*
D58*
X148271200Y-72101632D02*
X148275000Y-72105432D01*
X148200000Y-80100000D02*
X148150000Y-80150000D01*
D55*
X142889200Y-63615800D02*
X142889200Y-62701400D01*
D58*
X153000000Y-80100000D02*
X153873200Y-79226800D01*
X148275000Y-74104400D02*
X148710300Y-74539700D01*
X148274000Y-64817000D02*
X148274000Y-72098832D01*
X148200000Y-80100000D02*
X153000000Y-80100000D01*
X148271200Y-72101632D02*
X148274000Y-72104432D01*
D51*
X145350000Y-59900000D02*
X145175000Y-60075000D01*
D58*
X148175000Y-80125000D02*
X148175000Y-79275000D01*
D53*
X155900000Y-79293600D02*
X155241400Y-78635000D01*
X155241400Y-78635000D02*
X153873200Y-78635000D01*
X156261800Y-84111800D02*
X156261800Y-79636800D01*
X157225000Y-85075000D02*
X158390000Y-85075000D01*
D51*
X150635800Y-64300000D02*
X150584400Y-64351400D01*
D53*
X155918600Y-79293600D02*
X155900000Y-79293600D01*
D55*
X142889200Y-61035800D02*
X143850000Y-60075000D01*
D51*
X150750000Y-63250000D02*
X150750000Y-62225000D01*
X150750000Y-63250000D02*
X150750000Y-64275000D01*
D58*
X148200000Y-64743000D02*
X147678800Y-64743000D01*
D51*
X150750000Y-64275000D02*
X150725000Y-64300000D01*
D58*
X148175000Y-80125000D02*
X148200000Y-80100000D01*
D53*
X156261800Y-79636800D02*
X155918600Y-79293600D01*
D58*
X148710300Y-76589700D02*
X148292200Y-77007800D01*
X148275000Y-72105432D02*
X148275000Y-74104400D01*
X148150000Y-80150000D02*
X148150000Y-84325000D01*
X147671800Y-64750000D02*
X144023400Y-64750000D01*
D55*
X148292200Y-77782800D02*
X147975000Y-78100000D01*
D58*
X148274000Y-72098832D02*
X148271200Y-72101632D01*
D53*
X158390000Y-85075000D02*
X158425000Y-85040000D01*
D51*
X146126000Y-57199000D02*
X147774000Y-57199000D01*
D55*
X143850000Y-60075000D02*
X145175000Y-60075000D01*
D58*
X148710300Y-74539700D02*
X148710300Y-76589700D01*
D51*
X147774000Y-57199000D02*
X148325000Y-57750000D01*
D58*
X148292200Y-77007800D02*
X148292200Y-77782800D01*
X153873200Y-79226800D02*
X153873200Y-78431100D01*
X147678800Y-64743000D02*
X147671800Y-64750000D01*
D53*
X156261800Y-84111800D02*
X157225000Y-85075000D01*
D51*
X148325000Y-57750000D02*
X148325000Y-58025000D01*
D55*
X142889200Y-62701400D02*
X142889200Y-61035800D01*
D51*
X145350000Y-57975000D02*
X146126000Y-57199000D01*
D56*
%TO.N,Net-(R22-Pad2)*%
X164720000Y-74325000D02*
X164820000Y-74425000D01*
X173149600Y-72825000D02*
X173229000Y-72745600D01*
X165475000Y-72825000D02*
X173149600Y-72825000D01*
X164820000Y-74425000D02*
X164820000Y-73480000D01*
X164820000Y-73480000D02*
X165475000Y-72825000D01*
X164720000Y-74100000D02*
X164720000Y-74325000D01*
%TO.N,Net-(R11-Pad1)*%
X165808400Y-59791600D02*
X163118800Y-62481200D01*
X164250000Y-65375000D02*
X166650000Y-65375000D01*
X167233600Y-59791600D02*
X165808400Y-59791600D01*
X166650000Y-65375000D02*
X167350000Y-64675000D01*
X167677600Y-58597800D02*
X167677600Y-59347600D01*
X163118800Y-62481200D02*
X163118800Y-64243800D01*
X167350000Y-64675000D02*
X167350000Y-63750000D01*
X163118800Y-64243800D02*
X164250000Y-65375000D01*
X167677600Y-59347600D02*
X167233600Y-59791600D01*
%TO.N,Net-(R12-Pad1)*%
X164084000Y-70434200D02*
X163144200Y-69494400D01*
X161890400Y-62890400D02*
X161264600Y-62890400D01*
X167172800Y-69987000D02*
X166725600Y-70434200D01*
X163144200Y-65344200D02*
X162450000Y-64650000D01*
X167360000Y-69100000D02*
X167172800Y-69287200D01*
X166725600Y-70434200D02*
X164084000Y-70434200D01*
X163144200Y-69494400D02*
X163144200Y-65344200D01*
X162450000Y-64650000D02*
X162450000Y-63450000D01*
X162450000Y-63450000D02*
X161890400Y-62890400D01*
X167172800Y-69287200D02*
X167172800Y-69987000D01*
%TO.N,Net-(R13-Pad1)*%
X167360000Y-74425000D02*
X167182800Y-74602200D01*
X167160000Y-74225000D02*
X167360000Y-74425000D01*
X163118800Y-71133200D02*
X161315400Y-69329800D01*
X166775000Y-75775000D02*
X163675000Y-75775000D01*
X167182800Y-75367200D02*
X166775000Y-75775000D01*
X163118800Y-75218800D02*
X163118800Y-71133200D01*
X163675000Y-75775000D02*
X163118800Y-75218800D01*
X167182800Y-74602200D02*
X167182800Y-75367200D01*
X167160000Y-74000000D02*
X167160000Y-74225000D01*
%TO.N,Net-(R14-Pad1)*%
X167260000Y-80915000D02*
X166950000Y-81225000D01*
X167360000Y-79750000D02*
X167260000Y-79850000D01*
X162334200Y-75959200D02*
X161315400Y-75959200D01*
X166950000Y-81225000D02*
X163775000Y-81225000D01*
X163325000Y-80775000D02*
X163325000Y-76950000D01*
X163775000Y-81225000D02*
X163325000Y-80775000D01*
X163325000Y-76950000D02*
X162334200Y-75959200D01*
X167260000Y-79850000D02*
X167260000Y-80915000D01*
%TO.N,Net-(R15-Pad1)*%
X171225000Y-63750000D02*
X171475000Y-63500000D01*
X169890000Y-63750000D02*
X171225000Y-63750000D01*
X171475000Y-63500000D02*
X173190400Y-63500000D01*
%TO.N,Net-(R16-Pad1)*%
X169900000Y-69100000D02*
X171650000Y-69100000D01*
X171650000Y-69100000D02*
X172044400Y-69494400D01*
X172044400Y-69494400D02*
X173190400Y-69494400D01*
%TO.N,Net-(R17-Pad1)*%
X169900000Y-75175000D02*
X170188400Y-75463400D01*
X173203600Y-75463400D02*
X173229000Y-75438000D01*
X170188400Y-75463400D02*
X173203600Y-75463400D01*
X169900000Y-74425000D02*
X169900000Y-75175000D01*
%TO.N,Net-(R23-Pad2)*%
X164820000Y-79300000D02*
X165745000Y-78375000D01*
X173245200Y-78800000D02*
X173254400Y-78790800D01*
X171525000Y-78375000D02*
X171950000Y-78800000D01*
X171950000Y-78800000D02*
X173245200Y-78800000D01*
X165745000Y-78375000D02*
X171525000Y-78375000D01*
X164820000Y-79750000D02*
X164820000Y-79300000D01*
%TO.N,Net-(R20-Pad2)*%
X164810000Y-61885000D02*
X166192200Y-60502800D01*
X164810000Y-63750000D02*
X164810000Y-61885000D01*
X166192200Y-60502800D02*
X172834800Y-60502800D01*
X172834800Y-60502800D02*
X173215800Y-60883800D01*
%TO.N,Net-(R21-Pad2)*%
X164850000Y-69070000D02*
X164850000Y-67770000D01*
X164850000Y-67770000D02*
X165894200Y-66725800D01*
X165894200Y-66725800D02*
X173203600Y-66725800D01*
X164820000Y-69100000D02*
X164850000Y-69070000D01*
D51*
%TO.N,ADDR*%
X150725000Y-65950000D02*
X150725000Y-68482800D01*
X158275000Y-74815000D02*
X158340000Y-74880000D01*
X153400000Y-69200000D02*
X154051000Y-69851000D01*
X154051000Y-69851000D02*
X156251000Y-69851000D01*
X158210000Y-74880000D02*
X158275000Y-74815000D01*
X156650000Y-74425000D02*
X157105000Y-74880000D01*
X150607800Y-68600000D02*
X153400000Y-68600000D01*
X156650000Y-70250000D02*
X156650000Y-74425000D01*
X157105000Y-74880000D02*
X158210000Y-74880000D01*
X157866840Y-74617200D02*
X157849640Y-74600000D01*
X153400000Y-68150000D02*
X153400000Y-69200000D01*
X150597000Y-68610800D02*
X150607800Y-68600000D01*
X150725000Y-68482800D02*
X150597000Y-68610800D01*
X153400000Y-68600000D02*
X153400000Y-68150000D01*
X156251000Y-69851000D02*
X156650000Y-70250000D01*
X158340000Y-74880000D02*
X158425000Y-74880000D01*
%TO.N,Net-(D3-A)*%
X119798000Y-61927000D02*
X119925000Y-61800000D01*
D55*
X118850000Y-61927000D02*
X119798000Y-61927000D01*
D57*
%TO.N,Net-(D4-A)*%
X124000000Y-60050000D02*
X124300000Y-60350000D01*
X124300000Y-60350000D02*
X124300000Y-62800000D01*
X111912400Y-59588400D02*
X111810800Y-59690000D01*
X111810800Y-59690000D02*
X111810800Y-59740800D01*
X112120000Y-60050000D02*
X124000000Y-60050000D01*
X111810800Y-59740800D02*
X112120000Y-60050000D01*
D51*
%TO.N,RDY*%
X153881200Y-69106200D02*
X154225000Y-69450000D01*
X157050000Y-71655200D02*
X157669800Y-72275000D01*
X159800000Y-75675000D02*
X159375000Y-76100000D01*
X156517100Y-69450000D02*
X157050000Y-69982900D01*
X154225000Y-69450000D02*
X156517100Y-69450000D01*
X157669800Y-72275000D02*
X158275000Y-72275000D01*
X157050000Y-69982900D02*
X157050000Y-71655200D01*
X158275000Y-72275000D02*
X159244600Y-72275000D01*
X159375000Y-76100000D02*
X155900000Y-76100000D01*
X159800000Y-72830400D02*
X159800000Y-75675000D01*
X153881200Y-68529200D02*
X153881200Y-69106200D01*
X155900000Y-76100000D02*
X155700000Y-75900000D01*
X159244600Y-72275000D02*
X159800000Y-72830400D01*
%TO.N,Net-(IC1-Pad1)*%
X120325000Y-78020000D02*
X120375000Y-77970000D01*
X153550000Y-85200000D02*
X153525000Y-85175000D01*
X120325000Y-77125000D02*
X120325000Y-78020000D01*
X119800000Y-76600000D02*
X120325000Y-77125000D01*
X153525000Y-85175000D02*
X153525000Y-84000000D01*
%TO.N,Net-(Q1-C)*%
X160200000Y-85567000D02*
X160200000Y-78450000D01*
X159567000Y-86200000D02*
X160200000Y-85567000D01*
X155625000Y-85425000D02*
X155625000Y-85825000D01*
X120375000Y-75530000D02*
X120325000Y-75480000D01*
X155625000Y-85825000D02*
X156000000Y-86200000D01*
X120375000Y-76025000D02*
X120375000Y-75530000D01*
X120900000Y-76550000D02*
X120375000Y-76025000D01*
X155875000Y-70775000D02*
X154875000Y-70775000D01*
X121000000Y-76550000D02*
X120900000Y-76550000D01*
X154875000Y-70775000D02*
X154737500Y-70912500D01*
X156000000Y-86200000D02*
X159567000Y-86200000D01*
%TO.N,Net-(Q1-B)*%
X153787500Y-74262500D02*
X154125000Y-74600000D01*
X153787500Y-72637500D02*
X153787500Y-74262500D01*
X154125000Y-74600000D02*
X154125000Y-75900000D01*
X154125000Y-75900000D02*
X154175000Y-75950000D01*
D55*
%TO.N,Net-(J2-Pin_2)*%
X131225000Y-63400000D02*
X133373800Y-63400000D01*
X133373800Y-63400000D02*
X134467600Y-62306200D01*
%TD*%
M02*
