%TF.GenerationSoftware,KiCad,Pcbnew,9.0.6*%
%TF.CreationDate,2025-12-26T20:19:53+00:00*%
%TF.ProjectId,PIDI-BOX-01-MAIN-1-PZ2_ESP-A1,50494449-2d42-44f5-982d-30312d4d4149,01*%
%TF.SameCoordinates,Original*%
%TF.FileFunction,Legend,Top*%
%TF.FilePolarity,Positive*%
%FSLAX46Y46*%
G04 Gerber Fmt 4.6, Leading zero omitted, Abs format (unit mm)*
G04 Created by KiCad (PCBNEW 9.0.6) date 2025-12-26 20:19:53*
%MOMM*%
%LPD*%
G01*
G04 APERTURE LIST*
%ADD10C,0.150000*%
%ADD11C,0.100000*%
%ADD12C,0.200000*%
%ADD13C,0.254000*%
%ADD14C,0.250000*%
%ADD15C,0.120000*%
%ADD16C,0.127000*%
%ADD17C,0.152400*%
%ADD18C,0.050000*%
G04 APERTURE END LIST*
D10*
X64128641Y-78191657D02*
X63614355Y-78191657D01*
X63871498Y-78191657D02*
X63983998Y-77291657D01*
X63983998Y-77291657D02*
X63882212Y-77420228D01*
X63882212Y-77420228D02*
X63785784Y-77505942D01*
X63785784Y-77505942D02*
X63694712Y-77548800D01*
D11*
X76000169Y-123917200D02*
X76114455Y-123955295D01*
X76114455Y-123955295D02*
X76304931Y-123955295D01*
X76304931Y-123955295D02*
X76381122Y-123917200D01*
X76381122Y-123917200D02*
X76419217Y-123879104D01*
X76419217Y-123879104D02*
X76457312Y-123802914D01*
X76457312Y-123802914D02*
X76457312Y-123726723D01*
X76457312Y-123726723D02*
X76419217Y-123650533D01*
X76419217Y-123650533D02*
X76381122Y-123612438D01*
X76381122Y-123612438D02*
X76304931Y-123574342D01*
X76304931Y-123574342D02*
X76152550Y-123536247D01*
X76152550Y-123536247D02*
X76076360Y-123498152D01*
X76076360Y-123498152D02*
X76038265Y-123460057D01*
X76038265Y-123460057D02*
X76000169Y-123383866D01*
X76000169Y-123383866D02*
X76000169Y-123307676D01*
X76000169Y-123307676D02*
X76038265Y-123231485D01*
X76038265Y-123231485D02*
X76076360Y-123193390D01*
X76076360Y-123193390D02*
X76152550Y-123155295D01*
X76152550Y-123155295D02*
X76343027Y-123155295D01*
X76343027Y-123155295D02*
X76457312Y-123193390D01*
X76800170Y-123955295D02*
X76800170Y-123155295D01*
X76800170Y-123155295D02*
X76990646Y-123155295D01*
X76990646Y-123155295D02*
X77104932Y-123193390D01*
X77104932Y-123193390D02*
X77181122Y-123269580D01*
X77181122Y-123269580D02*
X77219217Y-123345771D01*
X77219217Y-123345771D02*
X77257313Y-123498152D01*
X77257313Y-123498152D02*
X77257313Y-123612438D01*
X77257313Y-123612438D02*
X77219217Y-123764819D01*
X77219217Y-123764819D02*
X77181122Y-123841009D01*
X77181122Y-123841009D02*
X77104932Y-123917200D01*
X77104932Y-123917200D02*
X76990646Y-123955295D01*
X76990646Y-123955295D02*
X76800170Y-123955295D01*
X77562074Y-123726723D02*
X77943027Y-123726723D01*
X77485884Y-123955295D02*
X77752551Y-123155295D01*
X77752551Y-123155295D02*
X78019217Y-123955295D01*
D12*
X88941819Y-103714926D02*
X87941819Y-103714926D01*
X87941819Y-103714926D02*
X87941819Y-103333974D01*
X87941819Y-103333974D02*
X87989438Y-103238736D01*
X87989438Y-103238736D02*
X88037057Y-103191117D01*
X88037057Y-103191117D02*
X88132295Y-103143498D01*
X88132295Y-103143498D02*
X88275152Y-103143498D01*
X88275152Y-103143498D02*
X88370390Y-103191117D01*
X88370390Y-103191117D02*
X88418009Y-103238736D01*
X88418009Y-103238736D02*
X88465628Y-103333974D01*
X88465628Y-103333974D02*
X88465628Y-103714926D01*
X88941819Y-102714926D02*
X87941819Y-102714926D01*
X88941819Y-102238736D02*
X87941819Y-102238736D01*
X87941819Y-102238736D02*
X87941819Y-102000641D01*
X87941819Y-102000641D02*
X87989438Y-101857784D01*
X87989438Y-101857784D02*
X88084676Y-101762546D01*
X88084676Y-101762546D02*
X88179914Y-101714927D01*
X88179914Y-101714927D02*
X88370390Y-101667308D01*
X88370390Y-101667308D02*
X88513247Y-101667308D01*
X88513247Y-101667308D02*
X88703723Y-101714927D01*
X88703723Y-101714927D02*
X88798961Y-101762546D01*
X88798961Y-101762546D02*
X88894200Y-101857784D01*
X88894200Y-101857784D02*
X88941819Y-102000641D01*
X88941819Y-102000641D02*
X88941819Y-102238736D01*
X88941819Y-101238736D02*
X87941819Y-101238736D01*
X88560866Y-100762546D02*
X88560866Y-100000642D01*
X88418009Y-99191118D02*
X88465628Y-99048261D01*
X88465628Y-99048261D02*
X88513247Y-99000642D01*
X88513247Y-99000642D02*
X88608485Y-98953023D01*
X88608485Y-98953023D02*
X88751342Y-98953023D01*
X88751342Y-98953023D02*
X88846580Y-99000642D01*
X88846580Y-99000642D02*
X88894200Y-99048261D01*
X88894200Y-99048261D02*
X88941819Y-99143499D01*
X88941819Y-99143499D02*
X88941819Y-99524451D01*
X88941819Y-99524451D02*
X87941819Y-99524451D01*
X87941819Y-99524451D02*
X87941819Y-99191118D01*
X87941819Y-99191118D02*
X87989438Y-99095880D01*
X87989438Y-99095880D02*
X88037057Y-99048261D01*
X88037057Y-99048261D02*
X88132295Y-99000642D01*
X88132295Y-99000642D02*
X88227533Y-99000642D01*
X88227533Y-99000642D02*
X88322771Y-99048261D01*
X88322771Y-99048261D02*
X88370390Y-99095880D01*
X88370390Y-99095880D02*
X88418009Y-99191118D01*
X88418009Y-99191118D02*
X88418009Y-99524451D01*
X87941819Y-98333975D02*
X87941819Y-98143499D01*
X87941819Y-98143499D02*
X87989438Y-98048261D01*
X87989438Y-98048261D02*
X88084676Y-97953023D01*
X88084676Y-97953023D02*
X88275152Y-97905404D01*
X88275152Y-97905404D02*
X88608485Y-97905404D01*
X88608485Y-97905404D02*
X88798961Y-97953023D01*
X88798961Y-97953023D02*
X88894200Y-98048261D01*
X88894200Y-98048261D02*
X88941819Y-98143499D01*
X88941819Y-98143499D02*
X88941819Y-98333975D01*
X88941819Y-98333975D02*
X88894200Y-98429213D01*
X88894200Y-98429213D02*
X88798961Y-98524451D01*
X88798961Y-98524451D02*
X88608485Y-98572070D01*
X88608485Y-98572070D02*
X88275152Y-98572070D01*
X88275152Y-98572070D02*
X88084676Y-98524451D01*
X88084676Y-98524451D02*
X87989438Y-98429213D01*
X87989438Y-98429213D02*
X87941819Y-98333975D01*
X87941819Y-97572070D02*
X88941819Y-96905404D01*
X87941819Y-96905404D02*
X88941819Y-97572070D01*
X88560866Y-96524451D02*
X88560866Y-95762547D01*
X87941819Y-95095880D02*
X87941819Y-95000642D01*
X87941819Y-95000642D02*
X87989438Y-94905404D01*
X87989438Y-94905404D02*
X88037057Y-94857785D01*
X88037057Y-94857785D02*
X88132295Y-94810166D01*
X88132295Y-94810166D02*
X88322771Y-94762547D01*
X88322771Y-94762547D02*
X88560866Y-94762547D01*
X88560866Y-94762547D02*
X88751342Y-94810166D01*
X88751342Y-94810166D02*
X88846580Y-94857785D01*
X88846580Y-94857785D02*
X88894200Y-94905404D01*
X88894200Y-94905404D02*
X88941819Y-95000642D01*
X88941819Y-95000642D02*
X88941819Y-95095880D01*
X88941819Y-95095880D02*
X88894200Y-95191118D01*
X88894200Y-95191118D02*
X88846580Y-95238737D01*
X88846580Y-95238737D02*
X88751342Y-95286356D01*
X88751342Y-95286356D02*
X88560866Y-95333975D01*
X88560866Y-95333975D02*
X88322771Y-95333975D01*
X88322771Y-95333975D02*
X88132295Y-95286356D01*
X88132295Y-95286356D02*
X88037057Y-95238737D01*
X88037057Y-95238737D02*
X87989438Y-95191118D01*
X87989438Y-95191118D02*
X87941819Y-95095880D01*
X88941819Y-93810166D02*
X88941819Y-94381594D01*
X88941819Y-94095880D02*
X87941819Y-94095880D01*
X87941819Y-94095880D02*
X88084676Y-94191118D01*
X88084676Y-94191118D02*
X88179914Y-94286356D01*
X88179914Y-94286356D02*
X88227533Y-94381594D01*
X88560866Y-93381594D02*
X88560866Y-92619690D01*
X88941819Y-92143499D02*
X87941819Y-92143499D01*
X87941819Y-92143499D02*
X88656104Y-91810166D01*
X88656104Y-91810166D02*
X87941819Y-91476833D01*
X87941819Y-91476833D02*
X88941819Y-91476833D01*
X88656104Y-91048261D02*
X88656104Y-90572071D01*
X88941819Y-91143499D02*
X87941819Y-90810166D01*
X87941819Y-90810166D02*
X88941819Y-90476833D01*
X88941819Y-90143499D02*
X87941819Y-90143499D01*
X88941819Y-89667309D02*
X87941819Y-89667309D01*
X87941819Y-89667309D02*
X88941819Y-89095881D01*
X88941819Y-89095881D02*
X87941819Y-89095881D01*
X88560866Y-88619690D02*
X88560866Y-87857786D01*
X88941819Y-86857786D02*
X88941819Y-87429214D01*
X88941819Y-87143500D02*
X87941819Y-87143500D01*
X87941819Y-87143500D02*
X88084676Y-87238738D01*
X88084676Y-87238738D02*
X88179914Y-87333976D01*
X88179914Y-87333976D02*
X88227533Y-87429214D01*
X88560866Y-86429214D02*
X88560866Y-85667310D01*
X88941819Y-85191119D02*
X87941819Y-85191119D01*
X87941819Y-85191119D02*
X87941819Y-84810167D01*
X87941819Y-84810167D02*
X87989438Y-84714929D01*
X87989438Y-84714929D02*
X88037057Y-84667310D01*
X88037057Y-84667310D02*
X88132295Y-84619691D01*
X88132295Y-84619691D02*
X88275152Y-84619691D01*
X88275152Y-84619691D02*
X88370390Y-84667310D01*
X88370390Y-84667310D02*
X88418009Y-84714929D01*
X88418009Y-84714929D02*
X88465628Y-84810167D01*
X88465628Y-84810167D02*
X88465628Y-85191119D01*
X87941819Y-84286357D02*
X87941819Y-83619691D01*
X87941819Y-83619691D02*
X88941819Y-84286357D01*
X88941819Y-84286357D02*
X88941819Y-83619691D01*
X88037057Y-83286357D02*
X87989438Y-83238738D01*
X87989438Y-83238738D02*
X87941819Y-83143500D01*
X87941819Y-83143500D02*
X87941819Y-82905405D01*
X87941819Y-82905405D02*
X87989438Y-82810167D01*
X87989438Y-82810167D02*
X88037057Y-82762548D01*
X88037057Y-82762548D02*
X88132295Y-82714929D01*
X88132295Y-82714929D02*
X88227533Y-82714929D01*
X88227533Y-82714929D02*
X88370390Y-82762548D01*
X88370390Y-82762548D02*
X88941819Y-83333976D01*
X88941819Y-83333976D02*
X88941819Y-82714929D01*
X88560866Y-82286357D02*
X88560866Y-81524453D01*
X88418009Y-81048262D02*
X88418009Y-80714929D01*
X88941819Y-80572072D02*
X88941819Y-81048262D01*
X88941819Y-81048262D02*
X87941819Y-81048262D01*
X87941819Y-81048262D02*
X87941819Y-80572072D01*
X88894200Y-80191119D02*
X88941819Y-80048262D01*
X88941819Y-80048262D02*
X88941819Y-79810167D01*
X88941819Y-79810167D02*
X88894200Y-79714929D01*
X88894200Y-79714929D02*
X88846580Y-79667310D01*
X88846580Y-79667310D02*
X88751342Y-79619691D01*
X88751342Y-79619691D02*
X88656104Y-79619691D01*
X88656104Y-79619691D02*
X88560866Y-79667310D01*
X88560866Y-79667310D02*
X88513247Y-79714929D01*
X88513247Y-79714929D02*
X88465628Y-79810167D01*
X88465628Y-79810167D02*
X88418009Y-80000643D01*
X88418009Y-80000643D02*
X88370390Y-80095881D01*
X88370390Y-80095881D02*
X88322771Y-80143500D01*
X88322771Y-80143500D02*
X88227533Y-80191119D01*
X88227533Y-80191119D02*
X88132295Y-80191119D01*
X88132295Y-80191119D02*
X88037057Y-80143500D01*
X88037057Y-80143500D02*
X87989438Y-80095881D01*
X87989438Y-80095881D02*
X87941819Y-80000643D01*
X87941819Y-80000643D02*
X87941819Y-79762548D01*
X87941819Y-79762548D02*
X87989438Y-79619691D01*
X88941819Y-79191119D02*
X87941819Y-79191119D01*
X87941819Y-79191119D02*
X87941819Y-78810167D01*
X87941819Y-78810167D02*
X87989438Y-78714929D01*
X87989438Y-78714929D02*
X88037057Y-78667310D01*
X88037057Y-78667310D02*
X88132295Y-78619691D01*
X88132295Y-78619691D02*
X88275152Y-78619691D01*
X88275152Y-78619691D02*
X88370390Y-78667310D01*
X88370390Y-78667310D02*
X88418009Y-78714929D01*
X88418009Y-78714929D02*
X88465628Y-78810167D01*
X88465628Y-78810167D02*
X88465628Y-79191119D01*
X88560866Y-78191119D02*
X88560866Y-77429215D01*
X88656104Y-77000643D02*
X88656104Y-76524453D01*
X88941819Y-77095881D02*
X87941819Y-76762548D01*
X87941819Y-76762548D02*
X88941819Y-76429215D01*
X88941819Y-75572072D02*
X88941819Y-76143500D01*
X88941819Y-75857786D02*
X87941819Y-75857786D01*
X87941819Y-75857786D02*
X88084676Y-75953024D01*
X88084676Y-75953024D02*
X88179914Y-76048262D01*
X88179914Y-76048262D02*
X88227533Y-76143500D01*
D10*
X63942419Y-103223820D02*
X62942419Y-103223820D01*
X62942419Y-103223820D02*
X62942419Y-102842868D01*
X62942419Y-102842868D02*
X62990038Y-102747630D01*
X62990038Y-102747630D02*
X63037657Y-102700011D01*
X63037657Y-102700011D02*
X63132895Y-102652392D01*
X63132895Y-102652392D02*
X63275752Y-102652392D01*
X63275752Y-102652392D02*
X63370990Y-102700011D01*
X63370990Y-102700011D02*
X63418609Y-102747630D01*
X63418609Y-102747630D02*
X63466228Y-102842868D01*
X63466228Y-102842868D02*
X63466228Y-103223820D01*
X63942419Y-102223820D02*
X62942419Y-102223820D01*
X63561466Y-101747630D02*
X63561466Y-100985726D01*
X62942419Y-100604773D02*
X62942419Y-99938107D01*
X62942419Y-99938107D02*
X63942419Y-100604773D01*
X63942419Y-100604773D02*
X63942419Y-99938107D01*
X63418609Y-99557154D02*
X63418609Y-99223821D01*
X63942419Y-99080964D02*
X63942419Y-99557154D01*
X63942419Y-99557154D02*
X62942419Y-99557154D01*
X62942419Y-99557154D02*
X62942419Y-99080964D01*
X63942419Y-98080964D02*
X63466228Y-98414297D01*
X63942419Y-98652392D02*
X62942419Y-98652392D01*
X62942419Y-98652392D02*
X62942419Y-98271440D01*
X62942419Y-98271440D02*
X62990038Y-98176202D01*
X62990038Y-98176202D02*
X63037657Y-98128583D01*
X63037657Y-98128583D02*
X63132895Y-98080964D01*
X63132895Y-98080964D02*
X63275752Y-98080964D01*
X63275752Y-98080964D02*
X63370990Y-98128583D01*
X63370990Y-98128583D02*
X63418609Y-98176202D01*
X63418609Y-98176202D02*
X63466228Y-98271440D01*
X63466228Y-98271440D02*
X63466228Y-98652392D01*
X62942419Y-97461916D02*
X62942419Y-97271440D01*
X62942419Y-97271440D02*
X62990038Y-97176202D01*
X62990038Y-97176202D02*
X63085276Y-97080964D01*
X63085276Y-97080964D02*
X63275752Y-97033345D01*
X63275752Y-97033345D02*
X63609085Y-97033345D01*
X63609085Y-97033345D02*
X63799561Y-97080964D01*
X63799561Y-97080964D02*
X63894800Y-97176202D01*
X63894800Y-97176202D02*
X63942419Y-97271440D01*
X63942419Y-97271440D02*
X63942419Y-97461916D01*
X63942419Y-97461916D02*
X63894800Y-97557154D01*
X63894800Y-97557154D02*
X63799561Y-97652392D01*
X63799561Y-97652392D02*
X63609085Y-97700011D01*
X63609085Y-97700011D02*
X63275752Y-97700011D01*
X63275752Y-97700011D02*
X63085276Y-97652392D01*
X63085276Y-97652392D02*
X62990038Y-97557154D01*
X62990038Y-97557154D02*
X62942419Y-97461916D01*
X63037657Y-96652392D02*
X62990038Y-96604773D01*
X62990038Y-96604773D02*
X62942419Y-96509535D01*
X62942419Y-96509535D02*
X62942419Y-96271440D01*
X62942419Y-96271440D02*
X62990038Y-96176202D01*
X62990038Y-96176202D02*
X63037657Y-96128583D01*
X63037657Y-96128583D02*
X63132895Y-96080964D01*
X63132895Y-96080964D02*
X63228133Y-96080964D01*
X63228133Y-96080964D02*
X63370990Y-96128583D01*
X63370990Y-96128583D02*
X63942419Y-96700011D01*
X63942419Y-96700011D02*
X63942419Y-96080964D01*
X63275752Y-95747630D02*
X63942419Y-95557154D01*
X63942419Y-95557154D02*
X63466228Y-95366678D01*
X63466228Y-95366678D02*
X63942419Y-95176202D01*
X63942419Y-95176202D02*
X63275752Y-94985726D01*
X62894800Y-93128583D02*
X64180514Y-93985725D01*
X63418609Y-92033344D02*
X63418609Y-91700011D01*
X63942419Y-91557154D02*
X63942419Y-92033344D01*
X63942419Y-92033344D02*
X62942419Y-92033344D01*
X62942419Y-92033344D02*
X62942419Y-91557154D01*
X63894800Y-91176201D02*
X63942419Y-91033344D01*
X63942419Y-91033344D02*
X63942419Y-90795249D01*
X63942419Y-90795249D02*
X63894800Y-90700011D01*
X63894800Y-90700011D02*
X63847180Y-90652392D01*
X63847180Y-90652392D02*
X63751942Y-90604773D01*
X63751942Y-90604773D02*
X63656704Y-90604773D01*
X63656704Y-90604773D02*
X63561466Y-90652392D01*
X63561466Y-90652392D02*
X63513847Y-90700011D01*
X63513847Y-90700011D02*
X63466228Y-90795249D01*
X63466228Y-90795249D02*
X63418609Y-90985725D01*
X63418609Y-90985725D02*
X63370990Y-91080963D01*
X63370990Y-91080963D02*
X63323371Y-91128582D01*
X63323371Y-91128582D02*
X63228133Y-91176201D01*
X63228133Y-91176201D02*
X63132895Y-91176201D01*
X63132895Y-91176201D02*
X63037657Y-91128582D01*
X63037657Y-91128582D02*
X62990038Y-91080963D01*
X62990038Y-91080963D02*
X62942419Y-90985725D01*
X62942419Y-90985725D02*
X62942419Y-90747630D01*
X62942419Y-90747630D02*
X62990038Y-90604773D01*
X63942419Y-90176201D02*
X62942419Y-90176201D01*
X62942419Y-90176201D02*
X62942419Y-89795249D01*
X62942419Y-89795249D02*
X62990038Y-89700011D01*
X62990038Y-89700011D02*
X63037657Y-89652392D01*
X63037657Y-89652392D02*
X63132895Y-89604773D01*
X63132895Y-89604773D02*
X63275752Y-89604773D01*
X63275752Y-89604773D02*
X63370990Y-89652392D01*
X63370990Y-89652392D02*
X63418609Y-89700011D01*
X63418609Y-89700011D02*
X63466228Y-89795249D01*
X63466228Y-89795249D02*
X63466228Y-90176201D01*
X62942419Y-89271439D02*
X62942419Y-88652392D01*
X62942419Y-88652392D02*
X63323371Y-88985725D01*
X63323371Y-88985725D02*
X63323371Y-88842868D01*
X63323371Y-88842868D02*
X63370990Y-88747630D01*
X63370990Y-88747630D02*
X63418609Y-88700011D01*
X63418609Y-88700011D02*
X63513847Y-88652392D01*
X63513847Y-88652392D02*
X63751942Y-88652392D01*
X63751942Y-88652392D02*
X63847180Y-88700011D01*
X63847180Y-88700011D02*
X63894800Y-88747630D01*
X63894800Y-88747630D02*
X63942419Y-88842868D01*
X63942419Y-88842868D02*
X63942419Y-89128582D01*
X63942419Y-89128582D02*
X63894800Y-89223820D01*
X63894800Y-89223820D02*
X63847180Y-89271439D01*
X63037657Y-88271439D02*
X62990038Y-88223820D01*
X62990038Y-88223820D02*
X62942419Y-88128582D01*
X62942419Y-88128582D02*
X62942419Y-87890487D01*
X62942419Y-87890487D02*
X62990038Y-87795249D01*
X62990038Y-87795249D02*
X63037657Y-87747630D01*
X63037657Y-87747630D02*
X63132895Y-87700011D01*
X63132895Y-87700011D02*
X63228133Y-87700011D01*
X63228133Y-87700011D02*
X63370990Y-87747630D01*
X63370990Y-87747630D02*
X63942419Y-88319058D01*
X63942419Y-88319058D02*
X63942419Y-87700011D01*
X63894800Y-86557153D02*
X63942419Y-86461915D01*
X63942419Y-86461915D02*
X63942419Y-86271439D01*
X63942419Y-86271439D02*
X63894800Y-86176201D01*
X63894800Y-86176201D02*
X63799561Y-86128582D01*
X63799561Y-86128582D02*
X63751942Y-86128582D01*
X63751942Y-86128582D02*
X63656704Y-86176201D01*
X63656704Y-86176201D02*
X63609085Y-86271439D01*
X63609085Y-86271439D02*
X63609085Y-86414296D01*
X63609085Y-86414296D02*
X63561466Y-86509534D01*
X63561466Y-86509534D02*
X63466228Y-86557153D01*
X63466228Y-86557153D02*
X63418609Y-86557153D01*
X63418609Y-86557153D02*
X63323371Y-86509534D01*
X63323371Y-86509534D02*
X63275752Y-86414296D01*
X63275752Y-86414296D02*
X63275752Y-86271439D01*
X63275752Y-86271439D02*
X63323371Y-86176201D01*
X63942419Y-85557153D02*
X63894800Y-85652391D01*
X63894800Y-85652391D02*
X63847180Y-85700010D01*
X63847180Y-85700010D02*
X63751942Y-85747629D01*
X63751942Y-85747629D02*
X63466228Y-85747629D01*
X63466228Y-85747629D02*
X63370990Y-85700010D01*
X63370990Y-85700010D02*
X63323371Y-85652391D01*
X63323371Y-85652391D02*
X63275752Y-85557153D01*
X63275752Y-85557153D02*
X63275752Y-85414296D01*
X63275752Y-85414296D02*
X63323371Y-85319058D01*
X63323371Y-85319058D02*
X63370990Y-85271439D01*
X63370990Y-85271439D02*
X63466228Y-85223820D01*
X63466228Y-85223820D02*
X63751942Y-85223820D01*
X63751942Y-85223820D02*
X63847180Y-85271439D01*
X63847180Y-85271439D02*
X63894800Y-85319058D01*
X63894800Y-85319058D02*
X63942419Y-85414296D01*
X63942419Y-85414296D02*
X63942419Y-85557153D01*
X63894800Y-84366677D02*
X63942419Y-84461915D01*
X63942419Y-84461915D02*
X63942419Y-84652391D01*
X63942419Y-84652391D02*
X63894800Y-84747629D01*
X63894800Y-84747629D02*
X63847180Y-84795248D01*
X63847180Y-84795248D02*
X63751942Y-84842867D01*
X63751942Y-84842867D02*
X63466228Y-84842867D01*
X63466228Y-84842867D02*
X63370990Y-84795248D01*
X63370990Y-84795248D02*
X63323371Y-84747629D01*
X63323371Y-84747629D02*
X63275752Y-84652391D01*
X63275752Y-84652391D02*
X63275752Y-84461915D01*
X63275752Y-84461915D02*
X63323371Y-84366677D01*
X63942419Y-83938105D02*
X62942419Y-83938105D01*
X63561466Y-83842867D02*
X63942419Y-83557153D01*
X63275752Y-83557153D02*
X63656704Y-83938105D01*
X63894800Y-82747629D02*
X63942419Y-82842867D01*
X63942419Y-82842867D02*
X63942419Y-83033343D01*
X63942419Y-83033343D02*
X63894800Y-83128581D01*
X63894800Y-83128581D02*
X63799561Y-83176200D01*
X63799561Y-83176200D02*
X63418609Y-83176200D01*
X63418609Y-83176200D02*
X63323371Y-83128581D01*
X63323371Y-83128581D02*
X63275752Y-83033343D01*
X63275752Y-83033343D02*
X63275752Y-82842867D01*
X63275752Y-82842867D02*
X63323371Y-82747629D01*
X63323371Y-82747629D02*
X63418609Y-82700010D01*
X63418609Y-82700010D02*
X63513847Y-82700010D01*
X63513847Y-82700010D02*
X63609085Y-83176200D01*
X63275752Y-82414295D02*
X63275752Y-82033343D01*
X62942419Y-82271438D02*
X63799561Y-82271438D01*
X63799561Y-82271438D02*
X63894800Y-82223819D01*
X63894800Y-82223819D02*
X63942419Y-82128581D01*
X63942419Y-82128581D02*
X63942419Y-82033343D01*
D11*
X75932990Y-129834687D02*
X75894895Y-129910877D01*
X75894895Y-129910877D02*
X75894895Y-130025163D01*
X75894895Y-130025163D02*
X75932990Y-130139449D01*
X75932990Y-130139449D02*
X76009180Y-130215639D01*
X76009180Y-130215639D02*
X76085371Y-130253734D01*
X76085371Y-130253734D02*
X76237752Y-130291830D01*
X76237752Y-130291830D02*
X76352038Y-130291830D01*
X76352038Y-130291830D02*
X76504419Y-130253734D01*
X76504419Y-130253734D02*
X76580609Y-130215639D01*
X76580609Y-130215639D02*
X76656800Y-130139449D01*
X76656800Y-130139449D02*
X76694895Y-130025163D01*
X76694895Y-130025163D02*
X76694895Y-129948972D01*
X76694895Y-129948972D02*
X76656800Y-129834687D01*
X76656800Y-129834687D02*
X76618704Y-129796591D01*
X76618704Y-129796591D02*
X76352038Y-129796591D01*
X76352038Y-129796591D02*
X76352038Y-129948972D01*
X76694895Y-129453734D02*
X75894895Y-129453734D01*
X75894895Y-129453734D02*
X76694895Y-128996591D01*
X76694895Y-128996591D02*
X75894895Y-128996591D01*
X76694895Y-128615639D02*
X75894895Y-128615639D01*
X75894895Y-128615639D02*
X75894895Y-128425163D01*
X75894895Y-128425163D02*
X75932990Y-128310877D01*
X75932990Y-128310877D02*
X76009180Y-128234687D01*
X76009180Y-128234687D02*
X76085371Y-128196592D01*
X76085371Y-128196592D02*
X76237752Y-128158496D01*
X76237752Y-128158496D02*
X76352038Y-128158496D01*
X76352038Y-128158496D02*
X76504419Y-128196592D01*
X76504419Y-128196592D02*
X76580609Y-128234687D01*
X76580609Y-128234687D02*
X76656800Y-128310877D01*
X76656800Y-128310877D02*
X76694895Y-128425163D01*
X76694895Y-128425163D02*
X76694895Y-128615639D01*
X72609274Y-133366095D02*
X73104512Y-133366095D01*
X73104512Y-133366095D02*
X72837846Y-133670857D01*
X72837846Y-133670857D02*
X72952131Y-133670857D01*
X72952131Y-133670857D02*
X73028322Y-133708952D01*
X73028322Y-133708952D02*
X73066417Y-133747047D01*
X73066417Y-133747047D02*
X73104512Y-133823238D01*
X73104512Y-133823238D02*
X73104512Y-134013714D01*
X73104512Y-134013714D02*
X73066417Y-134089904D01*
X73066417Y-134089904D02*
X73028322Y-134128000D01*
X73028322Y-134128000D02*
X72952131Y-134166095D01*
X72952131Y-134166095D02*
X72723560Y-134166095D01*
X72723560Y-134166095D02*
X72647369Y-134128000D01*
X72647369Y-134128000D02*
X72609274Y-134089904D01*
X73333084Y-133366095D02*
X73599751Y-134166095D01*
X73599751Y-134166095D02*
X73866417Y-133366095D01*
D13*
X46850000Y-70430720D02*
X46850000Y-71502149D01*
X46850000Y-71502149D02*
X46778571Y-71716434D01*
X46778571Y-71716434D02*
X46635714Y-71859292D01*
X46635714Y-71859292D02*
X46421428Y-71930720D01*
X46421428Y-71930720D02*
X46278571Y-71930720D01*
X48350000Y-71930720D02*
X47492857Y-71930720D01*
X47921428Y-71930720D02*
X47921428Y-70430720D01*
X47921428Y-70430720D02*
X47778571Y-70645006D01*
X47778571Y-70645006D02*
X47635714Y-70787863D01*
X47635714Y-70787863D02*
X47492857Y-70859292D01*
D10*
X47080304Y-132865285D02*
X47118400Y-132903381D01*
X47118400Y-132903381D02*
X47156495Y-133017666D01*
X47156495Y-133017666D02*
X47156495Y-133093857D01*
X47156495Y-133093857D02*
X47118400Y-133208143D01*
X47118400Y-133208143D02*
X47042209Y-133284333D01*
X47042209Y-133284333D02*
X46966019Y-133322428D01*
X46966019Y-133322428D02*
X46813638Y-133360524D01*
X46813638Y-133360524D02*
X46699352Y-133360524D01*
X46699352Y-133360524D02*
X46546971Y-133322428D01*
X46546971Y-133322428D02*
X46470780Y-133284333D01*
X46470780Y-133284333D02*
X46394590Y-133208143D01*
X46394590Y-133208143D02*
X46356495Y-133093857D01*
X46356495Y-133093857D02*
X46356495Y-133017666D01*
X46356495Y-133017666D02*
X46394590Y-132903381D01*
X46394590Y-132903381D02*
X46432685Y-132865285D01*
X47156495Y-132103381D02*
X47156495Y-132560524D01*
X47156495Y-132331952D02*
X46356495Y-132331952D01*
X46356495Y-132331952D02*
X46470780Y-132408143D01*
X46470780Y-132408143D02*
X46546971Y-132484333D01*
X46546971Y-132484333D02*
X46585066Y-132560524D01*
X46356495Y-131608142D02*
X46356495Y-131531952D01*
X46356495Y-131531952D02*
X46394590Y-131455761D01*
X46394590Y-131455761D02*
X46432685Y-131417666D01*
X46432685Y-131417666D02*
X46508876Y-131379571D01*
X46508876Y-131379571D02*
X46661257Y-131341476D01*
X46661257Y-131341476D02*
X46851733Y-131341476D01*
X46851733Y-131341476D02*
X47004114Y-131379571D01*
X47004114Y-131379571D02*
X47080304Y-131417666D01*
X47080304Y-131417666D02*
X47118400Y-131455761D01*
X47118400Y-131455761D02*
X47156495Y-131531952D01*
X47156495Y-131531952D02*
X47156495Y-131608142D01*
X47156495Y-131608142D02*
X47118400Y-131684333D01*
X47118400Y-131684333D02*
X47080304Y-131722428D01*
X47080304Y-131722428D02*
X47004114Y-131760523D01*
X47004114Y-131760523D02*
X46851733Y-131798619D01*
X46851733Y-131798619D02*
X46661257Y-131798619D01*
X46661257Y-131798619D02*
X46508876Y-131760523D01*
X46508876Y-131760523D02*
X46432685Y-131722428D01*
X46432685Y-131722428D02*
X46394590Y-131684333D01*
X46394590Y-131684333D02*
X46356495Y-131608142D01*
X42580900Y-108094891D02*
X42628604Y-107951779D01*
X42628604Y-107951779D02*
X42676308Y-107904076D01*
X42676308Y-107904076D02*
X42771716Y-107856372D01*
X42771716Y-107856372D02*
X42914827Y-107856372D01*
X42914827Y-107856372D02*
X43010235Y-107904076D01*
X43010235Y-107904076D02*
X43057939Y-107951779D01*
X43057939Y-107951779D02*
X43105642Y-108047187D01*
X43105642Y-108047187D02*
X43105642Y-108428817D01*
X43105642Y-108428817D02*
X42103862Y-108428817D01*
X42103862Y-108428817D02*
X42103862Y-108094891D01*
X42103862Y-108094891D02*
X42151566Y-107999483D01*
X42151566Y-107999483D02*
X42199270Y-107951779D01*
X42199270Y-107951779D02*
X42294678Y-107904076D01*
X42294678Y-107904076D02*
X42390085Y-107904076D01*
X42390085Y-107904076D02*
X42485493Y-107951779D01*
X42485493Y-107951779D02*
X42533197Y-107999483D01*
X42533197Y-107999483D02*
X42580900Y-108094891D01*
X42580900Y-108094891D02*
X42580900Y-108428817D01*
X43105642Y-106997703D02*
X42580900Y-106997703D01*
X42580900Y-106997703D02*
X42485493Y-107045407D01*
X42485493Y-107045407D02*
X42437789Y-107140815D01*
X42437789Y-107140815D02*
X42437789Y-107331630D01*
X42437789Y-107331630D02*
X42485493Y-107427037D01*
X43057939Y-106997703D02*
X43105642Y-107093111D01*
X43105642Y-107093111D02*
X43105642Y-107331630D01*
X43105642Y-107331630D02*
X43057939Y-107427037D01*
X43057939Y-107427037D02*
X42962531Y-107474741D01*
X42962531Y-107474741D02*
X42867123Y-107474741D01*
X42867123Y-107474741D02*
X42771716Y-107427037D01*
X42771716Y-107427037D02*
X42724012Y-107331630D01*
X42724012Y-107331630D02*
X42724012Y-107093111D01*
X42724012Y-107093111D02*
X42676308Y-106997703D01*
X42437789Y-106663777D02*
X42437789Y-106282146D01*
X42103862Y-106520665D02*
X42962531Y-106520665D01*
X42962531Y-106520665D02*
X43057939Y-106472962D01*
X43057939Y-106472962D02*
X43105642Y-106377554D01*
X43105642Y-106377554D02*
X43105642Y-106282146D01*
X43105642Y-105423478D02*
X43105642Y-105995923D01*
X43105642Y-105709700D02*
X42103862Y-105709700D01*
X42103862Y-105709700D02*
X42246974Y-105805108D01*
X42246974Y-105805108D02*
X42342381Y-105900516D01*
X42342381Y-105900516D02*
X42390085Y-105995923D01*
X71612295Y-109723485D02*
X71231342Y-109990152D01*
X71612295Y-110180628D02*
X70812295Y-110180628D01*
X70812295Y-110180628D02*
X70812295Y-109875866D01*
X70812295Y-109875866D02*
X70850390Y-109799676D01*
X70850390Y-109799676D02*
X70888485Y-109761581D01*
X70888485Y-109761581D02*
X70964676Y-109723485D01*
X70964676Y-109723485D02*
X71078961Y-109723485D01*
X71078961Y-109723485D02*
X71155152Y-109761581D01*
X71155152Y-109761581D02*
X71193247Y-109799676D01*
X71193247Y-109799676D02*
X71231342Y-109875866D01*
X71231342Y-109875866D02*
X71231342Y-110180628D01*
X71612295Y-108961581D02*
X71612295Y-109418724D01*
X71612295Y-109190152D02*
X70812295Y-109190152D01*
X70812295Y-109190152D02*
X70926580Y-109266343D01*
X70926580Y-109266343D02*
X71002771Y-109342533D01*
X71002771Y-109342533D02*
X71040866Y-109418724D01*
X71612295Y-108580628D02*
X71612295Y-108428247D01*
X71612295Y-108428247D02*
X71574200Y-108352057D01*
X71574200Y-108352057D02*
X71536104Y-108313961D01*
X71536104Y-108313961D02*
X71421819Y-108237771D01*
X71421819Y-108237771D02*
X71269438Y-108199676D01*
X71269438Y-108199676D02*
X70964676Y-108199676D01*
X70964676Y-108199676D02*
X70888485Y-108237771D01*
X70888485Y-108237771D02*
X70850390Y-108275866D01*
X70850390Y-108275866D02*
X70812295Y-108352057D01*
X70812295Y-108352057D02*
X70812295Y-108504438D01*
X70812295Y-108504438D02*
X70850390Y-108580628D01*
X70850390Y-108580628D02*
X70888485Y-108618723D01*
X70888485Y-108618723D02*
X70964676Y-108656819D01*
X70964676Y-108656819D02*
X71155152Y-108656819D01*
X71155152Y-108656819D02*
X71231342Y-108618723D01*
X71231342Y-108618723D02*
X71269438Y-108580628D01*
X71269438Y-108580628D02*
X71307533Y-108504438D01*
X71307533Y-108504438D02*
X71307533Y-108352057D01*
X71307533Y-108352057D02*
X71269438Y-108275866D01*
X71269438Y-108275866D02*
X71231342Y-108237771D01*
X71231342Y-108237771D02*
X71155152Y-108199676D01*
X44635714Y-135969695D02*
X44369047Y-135588742D01*
X44178571Y-135969695D02*
X44178571Y-135169695D01*
X44178571Y-135169695D02*
X44483333Y-135169695D01*
X44483333Y-135169695D02*
X44559523Y-135207790D01*
X44559523Y-135207790D02*
X44597618Y-135245885D01*
X44597618Y-135245885D02*
X44635714Y-135322076D01*
X44635714Y-135322076D02*
X44635714Y-135436361D01*
X44635714Y-135436361D02*
X44597618Y-135512552D01*
X44597618Y-135512552D02*
X44559523Y-135550647D01*
X44559523Y-135550647D02*
X44483333Y-135588742D01*
X44483333Y-135588742D02*
X44178571Y-135588742D01*
X44940475Y-135245885D02*
X44978571Y-135207790D01*
X44978571Y-135207790D02*
X45054761Y-135169695D01*
X45054761Y-135169695D02*
X45245237Y-135169695D01*
X45245237Y-135169695D02*
X45321428Y-135207790D01*
X45321428Y-135207790D02*
X45359523Y-135245885D01*
X45359523Y-135245885D02*
X45397618Y-135322076D01*
X45397618Y-135322076D02*
X45397618Y-135398266D01*
X45397618Y-135398266D02*
X45359523Y-135512552D01*
X45359523Y-135512552D02*
X44902380Y-135969695D01*
X44902380Y-135969695D02*
X45397618Y-135969695D01*
X45702380Y-135245885D02*
X45740476Y-135207790D01*
X45740476Y-135207790D02*
X45816666Y-135169695D01*
X45816666Y-135169695D02*
X46007142Y-135169695D01*
X46007142Y-135169695D02*
X46083333Y-135207790D01*
X46083333Y-135207790D02*
X46121428Y-135245885D01*
X46121428Y-135245885D02*
X46159523Y-135322076D01*
X46159523Y-135322076D02*
X46159523Y-135398266D01*
X46159523Y-135398266D02*
X46121428Y-135512552D01*
X46121428Y-135512552D02*
X45664285Y-135969695D01*
X45664285Y-135969695D02*
X46159523Y-135969695D01*
X71940695Y-127500019D02*
X72512123Y-127500019D01*
X72512123Y-127500019D02*
X72626409Y-127538114D01*
X72626409Y-127538114D02*
X72702600Y-127614305D01*
X72702600Y-127614305D02*
X72740695Y-127728590D01*
X72740695Y-127728590D02*
X72740695Y-127804781D01*
X72740695Y-126700019D02*
X72740695Y-127157162D01*
X72740695Y-126928590D02*
X71940695Y-126928590D01*
X71940695Y-126928590D02*
X72054980Y-127004781D01*
X72054980Y-127004781D02*
X72131171Y-127080971D01*
X72131171Y-127080971D02*
X72169266Y-127157162D01*
X71940695Y-126433352D02*
X71940695Y-125938114D01*
X71940695Y-125938114D02*
X72245457Y-126204780D01*
X72245457Y-126204780D02*
X72245457Y-126090495D01*
X72245457Y-126090495D02*
X72283552Y-126014304D01*
X72283552Y-126014304D02*
X72321647Y-125976209D01*
X72321647Y-125976209D02*
X72397838Y-125938114D01*
X72397838Y-125938114D02*
X72588314Y-125938114D01*
X72588314Y-125938114D02*
X72664504Y-125976209D01*
X72664504Y-125976209D02*
X72702600Y-126014304D01*
X72702600Y-126014304D02*
X72740695Y-126090495D01*
X72740695Y-126090495D02*
X72740695Y-126319066D01*
X72740695Y-126319066D02*
X72702600Y-126395257D01*
X72702600Y-126395257D02*
X72664504Y-126433352D01*
X62383514Y-121410304D02*
X62345418Y-121448400D01*
X62345418Y-121448400D02*
X62231133Y-121486495D01*
X62231133Y-121486495D02*
X62154942Y-121486495D01*
X62154942Y-121486495D02*
X62040656Y-121448400D01*
X62040656Y-121448400D02*
X61964466Y-121372209D01*
X61964466Y-121372209D02*
X61926371Y-121296019D01*
X61926371Y-121296019D02*
X61888275Y-121143638D01*
X61888275Y-121143638D02*
X61888275Y-121029352D01*
X61888275Y-121029352D02*
X61926371Y-120876971D01*
X61926371Y-120876971D02*
X61964466Y-120800780D01*
X61964466Y-120800780D02*
X62040656Y-120724590D01*
X62040656Y-120724590D02*
X62154942Y-120686495D01*
X62154942Y-120686495D02*
X62231133Y-120686495D01*
X62231133Y-120686495D02*
X62345418Y-120724590D01*
X62345418Y-120724590D02*
X62383514Y-120762685D01*
X63145418Y-121486495D02*
X62688275Y-121486495D01*
X62916847Y-121486495D02*
X62916847Y-120686495D01*
X62916847Y-120686495D02*
X62840656Y-120800780D01*
X62840656Y-120800780D02*
X62764466Y-120876971D01*
X62764466Y-120876971D02*
X62688275Y-120915066D01*
X63869228Y-120686495D02*
X63488276Y-120686495D01*
X63488276Y-120686495D02*
X63450180Y-121067447D01*
X63450180Y-121067447D02*
X63488276Y-121029352D01*
X63488276Y-121029352D02*
X63564466Y-120991257D01*
X63564466Y-120991257D02*
X63754942Y-120991257D01*
X63754942Y-120991257D02*
X63831133Y-121029352D01*
X63831133Y-121029352D02*
X63869228Y-121067447D01*
X63869228Y-121067447D02*
X63907323Y-121143638D01*
X63907323Y-121143638D02*
X63907323Y-121334114D01*
X63907323Y-121334114D02*
X63869228Y-121410304D01*
X63869228Y-121410304D02*
X63831133Y-121448400D01*
X63831133Y-121448400D02*
X63754942Y-121486495D01*
X63754942Y-121486495D02*
X63564466Y-121486495D01*
X63564466Y-121486495D02*
X63488276Y-121448400D01*
X63488276Y-121448400D02*
X63450180Y-121410304D01*
D13*
X86908680Y-120282932D02*
X86908680Y-120706266D01*
X87573918Y-120706266D02*
X86303918Y-120706266D01*
X86303918Y-120706266D02*
X86303918Y-120101504D01*
X87573918Y-118952456D02*
X87573918Y-119678171D01*
X87573918Y-119315314D02*
X86303918Y-119315314D01*
X86303918Y-119315314D02*
X86485346Y-119436266D01*
X86485346Y-119436266D02*
X86606299Y-119557218D01*
X86606299Y-119557218D02*
X86666775Y-119678171D01*
D10*
X83735714Y-113236104D02*
X83697618Y-113274200D01*
X83697618Y-113274200D02*
X83583333Y-113312295D01*
X83583333Y-113312295D02*
X83507142Y-113312295D01*
X83507142Y-113312295D02*
X83392856Y-113274200D01*
X83392856Y-113274200D02*
X83316666Y-113198009D01*
X83316666Y-113198009D02*
X83278571Y-113121819D01*
X83278571Y-113121819D02*
X83240475Y-112969438D01*
X83240475Y-112969438D02*
X83240475Y-112855152D01*
X83240475Y-112855152D02*
X83278571Y-112702771D01*
X83278571Y-112702771D02*
X83316666Y-112626580D01*
X83316666Y-112626580D02*
X83392856Y-112550390D01*
X83392856Y-112550390D02*
X83507142Y-112512295D01*
X83507142Y-112512295D02*
X83583333Y-112512295D01*
X83583333Y-112512295D02*
X83697618Y-112550390D01*
X83697618Y-112550390D02*
X83735714Y-112588485D01*
X84497618Y-113312295D02*
X84040475Y-113312295D01*
X84269047Y-113312295D02*
X84269047Y-112512295D01*
X84269047Y-112512295D02*
X84192856Y-112626580D01*
X84192856Y-112626580D02*
X84116666Y-112702771D01*
X84116666Y-112702771D02*
X84040475Y-112740866D01*
X84954761Y-112855152D02*
X84878571Y-112817057D01*
X84878571Y-112817057D02*
X84840476Y-112778961D01*
X84840476Y-112778961D02*
X84802380Y-112702771D01*
X84802380Y-112702771D02*
X84802380Y-112664676D01*
X84802380Y-112664676D02*
X84840476Y-112588485D01*
X84840476Y-112588485D02*
X84878571Y-112550390D01*
X84878571Y-112550390D02*
X84954761Y-112512295D01*
X84954761Y-112512295D02*
X85107142Y-112512295D01*
X85107142Y-112512295D02*
X85183333Y-112550390D01*
X85183333Y-112550390D02*
X85221428Y-112588485D01*
X85221428Y-112588485D02*
X85259523Y-112664676D01*
X85259523Y-112664676D02*
X85259523Y-112702771D01*
X85259523Y-112702771D02*
X85221428Y-112778961D01*
X85221428Y-112778961D02*
X85183333Y-112817057D01*
X85183333Y-112817057D02*
X85107142Y-112855152D01*
X85107142Y-112855152D02*
X84954761Y-112855152D01*
X84954761Y-112855152D02*
X84878571Y-112893247D01*
X84878571Y-112893247D02*
X84840476Y-112931342D01*
X84840476Y-112931342D02*
X84802380Y-113007533D01*
X84802380Y-113007533D02*
X84802380Y-113159914D01*
X84802380Y-113159914D02*
X84840476Y-113236104D01*
X84840476Y-113236104D02*
X84878571Y-113274200D01*
X84878571Y-113274200D02*
X84954761Y-113312295D01*
X84954761Y-113312295D02*
X85107142Y-113312295D01*
X85107142Y-113312295D02*
X85183333Y-113274200D01*
X85183333Y-113274200D02*
X85221428Y-113236104D01*
X85221428Y-113236104D02*
X85259523Y-113159914D01*
X85259523Y-113159914D02*
X85259523Y-113007533D01*
X85259523Y-113007533D02*
X85221428Y-112931342D01*
X85221428Y-112931342D02*
X85183333Y-112893247D01*
X85183333Y-112893247D02*
X85107142Y-112855152D01*
X82437295Y-111164285D02*
X82056342Y-111430952D01*
X82437295Y-111621428D02*
X81637295Y-111621428D01*
X81637295Y-111621428D02*
X81637295Y-111316666D01*
X81637295Y-111316666D02*
X81675390Y-111240476D01*
X81675390Y-111240476D02*
X81713485Y-111202381D01*
X81713485Y-111202381D02*
X81789676Y-111164285D01*
X81789676Y-111164285D02*
X81903961Y-111164285D01*
X81903961Y-111164285D02*
X81980152Y-111202381D01*
X81980152Y-111202381D02*
X82018247Y-111240476D01*
X82018247Y-111240476D02*
X82056342Y-111316666D01*
X82056342Y-111316666D02*
X82056342Y-111621428D01*
X81713485Y-110859524D02*
X81675390Y-110821428D01*
X81675390Y-110821428D02*
X81637295Y-110745238D01*
X81637295Y-110745238D02*
X81637295Y-110554762D01*
X81637295Y-110554762D02*
X81675390Y-110478571D01*
X81675390Y-110478571D02*
X81713485Y-110440476D01*
X81713485Y-110440476D02*
X81789676Y-110402381D01*
X81789676Y-110402381D02*
X81865866Y-110402381D01*
X81865866Y-110402381D02*
X81980152Y-110440476D01*
X81980152Y-110440476D02*
X82437295Y-110897619D01*
X82437295Y-110897619D02*
X82437295Y-110402381D01*
X81637295Y-110135714D02*
X81637295Y-109602380D01*
X81637295Y-109602380D02*
X82437295Y-109945238D01*
X62205667Y-61093095D02*
X61939000Y-60712142D01*
X61748524Y-61093095D02*
X61748524Y-60293095D01*
X61748524Y-60293095D02*
X62053286Y-60293095D01*
X62053286Y-60293095D02*
X62129476Y-60331190D01*
X62129476Y-60331190D02*
X62167571Y-60369285D01*
X62167571Y-60369285D02*
X62205667Y-60445476D01*
X62205667Y-60445476D02*
X62205667Y-60559761D01*
X62205667Y-60559761D02*
X62167571Y-60635952D01*
X62167571Y-60635952D02*
X62129476Y-60674047D01*
X62129476Y-60674047D02*
X62053286Y-60712142D01*
X62053286Y-60712142D02*
X61748524Y-60712142D01*
X62472333Y-60293095D02*
X62967571Y-60293095D01*
X62967571Y-60293095D02*
X62700905Y-60597857D01*
X62700905Y-60597857D02*
X62815190Y-60597857D01*
X62815190Y-60597857D02*
X62891381Y-60635952D01*
X62891381Y-60635952D02*
X62929476Y-60674047D01*
X62929476Y-60674047D02*
X62967571Y-60750238D01*
X62967571Y-60750238D02*
X62967571Y-60940714D01*
X62967571Y-60940714D02*
X62929476Y-61016904D01*
X62929476Y-61016904D02*
X62891381Y-61055000D01*
X62891381Y-61055000D02*
X62815190Y-61093095D01*
X62815190Y-61093095D02*
X62586619Y-61093095D01*
X62586619Y-61093095D02*
X62510428Y-61055000D01*
X62510428Y-61055000D02*
X62472333Y-61016904D01*
X44120867Y-85748704D02*
X44082771Y-85786800D01*
X44082771Y-85786800D02*
X43968486Y-85824895D01*
X43968486Y-85824895D02*
X43892295Y-85824895D01*
X43892295Y-85824895D02*
X43778009Y-85786800D01*
X43778009Y-85786800D02*
X43701819Y-85710609D01*
X43701819Y-85710609D02*
X43663724Y-85634419D01*
X43663724Y-85634419D02*
X43625628Y-85482038D01*
X43625628Y-85482038D02*
X43625628Y-85367752D01*
X43625628Y-85367752D02*
X43663724Y-85215371D01*
X43663724Y-85215371D02*
X43701819Y-85139180D01*
X43701819Y-85139180D02*
X43778009Y-85062990D01*
X43778009Y-85062990D02*
X43892295Y-85024895D01*
X43892295Y-85024895D02*
X43968486Y-85024895D01*
X43968486Y-85024895D02*
X44082771Y-85062990D01*
X44082771Y-85062990D02*
X44120867Y-85101085D01*
X44387533Y-85024895D02*
X44920867Y-85024895D01*
X44920867Y-85024895D02*
X44578009Y-85824895D01*
X56066667Y-61012295D02*
X55800000Y-60631342D01*
X55609524Y-61012295D02*
X55609524Y-60212295D01*
X55609524Y-60212295D02*
X55914286Y-60212295D01*
X55914286Y-60212295D02*
X55990476Y-60250390D01*
X55990476Y-60250390D02*
X56028571Y-60288485D01*
X56028571Y-60288485D02*
X56066667Y-60364676D01*
X56066667Y-60364676D02*
X56066667Y-60478961D01*
X56066667Y-60478961D02*
X56028571Y-60555152D01*
X56028571Y-60555152D02*
X55990476Y-60593247D01*
X55990476Y-60593247D02*
X55914286Y-60631342D01*
X55914286Y-60631342D02*
X55609524Y-60631342D01*
X56828571Y-61012295D02*
X56371428Y-61012295D01*
X56600000Y-61012295D02*
X56600000Y-60212295D01*
X56600000Y-60212295D02*
X56523809Y-60326580D01*
X56523809Y-60326580D02*
X56447619Y-60402771D01*
X56447619Y-60402771D02*
X56371428Y-60440866D01*
X85002714Y-83640495D02*
X84736047Y-83259542D01*
X84545571Y-83640495D02*
X84545571Y-82840495D01*
X84545571Y-82840495D02*
X84850333Y-82840495D01*
X84850333Y-82840495D02*
X84926523Y-82878590D01*
X84926523Y-82878590D02*
X84964618Y-82916685D01*
X84964618Y-82916685D02*
X85002714Y-82992876D01*
X85002714Y-82992876D02*
X85002714Y-83107161D01*
X85002714Y-83107161D02*
X84964618Y-83183352D01*
X84964618Y-83183352D02*
X84926523Y-83221447D01*
X84926523Y-83221447D02*
X84850333Y-83259542D01*
X84850333Y-83259542D02*
X84545571Y-83259542D01*
X85269380Y-82840495D02*
X85764618Y-82840495D01*
X85764618Y-82840495D02*
X85497952Y-83145257D01*
X85497952Y-83145257D02*
X85612237Y-83145257D01*
X85612237Y-83145257D02*
X85688428Y-83183352D01*
X85688428Y-83183352D02*
X85726523Y-83221447D01*
X85726523Y-83221447D02*
X85764618Y-83297638D01*
X85764618Y-83297638D02*
X85764618Y-83488114D01*
X85764618Y-83488114D02*
X85726523Y-83564304D01*
X85726523Y-83564304D02*
X85688428Y-83602400D01*
X85688428Y-83602400D02*
X85612237Y-83640495D01*
X85612237Y-83640495D02*
X85383666Y-83640495D01*
X85383666Y-83640495D02*
X85307475Y-83602400D01*
X85307475Y-83602400D02*
X85269380Y-83564304D01*
X86526523Y-83640495D02*
X86069380Y-83640495D01*
X86297952Y-83640495D02*
X86297952Y-82840495D01*
X86297952Y-82840495D02*
X86221761Y-82954780D01*
X86221761Y-82954780D02*
X86145571Y-83030971D01*
X86145571Y-83030971D02*
X86069380Y-83069066D01*
X67025361Y-61186895D02*
X66644409Y-61186895D01*
X66644409Y-61186895D02*
X66644409Y-60386895D01*
X67292028Y-60767847D02*
X67558694Y-60767847D01*
X67672980Y-61186895D02*
X67292028Y-61186895D01*
X67292028Y-61186895D02*
X67292028Y-60386895D01*
X67292028Y-60386895D02*
X67672980Y-60386895D01*
X67939647Y-60386895D02*
X68434885Y-60386895D01*
X68434885Y-60386895D02*
X68168219Y-60691657D01*
X68168219Y-60691657D02*
X68282504Y-60691657D01*
X68282504Y-60691657D02*
X68358695Y-60729752D01*
X68358695Y-60729752D02*
X68396790Y-60767847D01*
X68396790Y-60767847D02*
X68434885Y-60844038D01*
X68434885Y-60844038D02*
X68434885Y-61034514D01*
X68434885Y-61034514D02*
X68396790Y-61110704D01*
X68396790Y-61110704D02*
X68358695Y-61148800D01*
X68358695Y-61148800D02*
X68282504Y-61186895D01*
X68282504Y-61186895D02*
X68053933Y-61186895D01*
X68053933Y-61186895D02*
X67977742Y-61148800D01*
X67977742Y-61148800D02*
X67939647Y-61110704D01*
X85811933Y-88580895D02*
X85811933Y-89152323D01*
X85811933Y-89152323D02*
X85773838Y-89266609D01*
X85773838Y-89266609D02*
X85697647Y-89342800D01*
X85697647Y-89342800D02*
X85583362Y-89380895D01*
X85583362Y-89380895D02*
X85507171Y-89380895D01*
X86230981Y-89380895D02*
X86383362Y-89380895D01*
X86383362Y-89380895D02*
X86459552Y-89342800D01*
X86459552Y-89342800D02*
X86497648Y-89304704D01*
X86497648Y-89304704D02*
X86573838Y-89190419D01*
X86573838Y-89190419D02*
X86611933Y-89038038D01*
X86611933Y-89038038D02*
X86611933Y-88733276D01*
X86611933Y-88733276D02*
X86573838Y-88657085D01*
X86573838Y-88657085D02*
X86535743Y-88618990D01*
X86535743Y-88618990D02*
X86459552Y-88580895D01*
X86459552Y-88580895D02*
X86307171Y-88580895D01*
X86307171Y-88580895D02*
X86230981Y-88618990D01*
X86230981Y-88618990D02*
X86192886Y-88657085D01*
X86192886Y-88657085D02*
X86154790Y-88733276D01*
X86154790Y-88733276D02*
X86154790Y-88923752D01*
X86154790Y-88923752D02*
X86192886Y-88999942D01*
X86192886Y-88999942D02*
X86230981Y-89038038D01*
X86230981Y-89038038D02*
X86307171Y-89076133D01*
X86307171Y-89076133D02*
X86459552Y-89076133D01*
X86459552Y-89076133D02*
X86535743Y-89038038D01*
X86535743Y-89038038D02*
X86573838Y-88999942D01*
X86573838Y-88999942D02*
X86611933Y-88923752D01*
X60961114Y-125093295D02*
X60694447Y-124712342D01*
X60503971Y-125093295D02*
X60503971Y-124293295D01*
X60503971Y-124293295D02*
X60808733Y-124293295D01*
X60808733Y-124293295D02*
X60884923Y-124331390D01*
X60884923Y-124331390D02*
X60923018Y-124369485D01*
X60923018Y-124369485D02*
X60961114Y-124445676D01*
X60961114Y-124445676D02*
X60961114Y-124559961D01*
X60961114Y-124559961D02*
X60923018Y-124636152D01*
X60923018Y-124636152D02*
X60884923Y-124674247D01*
X60884923Y-124674247D02*
X60808733Y-124712342D01*
X60808733Y-124712342D02*
X60503971Y-124712342D01*
X61265875Y-124369485D02*
X61303971Y-124331390D01*
X61303971Y-124331390D02*
X61380161Y-124293295D01*
X61380161Y-124293295D02*
X61570637Y-124293295D01*
X61570637Y-124293295D02*
X61646828Y-124331390D01*
X61646828Y-124331390D02*
X61684923Y-124369485D01*
X61684923Y-124369485D02*
X61723018Y-124445676D01*
X61723018Y-124445676D02*
X61723018Y-124521866D01*
X61723018Y-124521866D02*
X61684923Y-124636152D01*
X61684923Y-124636152D02*
X61227780Y-125093295D01*
X61227780Y-125093295D02*
X61723018Y-125093295D01*
X62408733Y-124559961D02*
X62408733Y-125093295D01*
X62218257Y-124255200D02*
X62027780Y-124826628D01*
X62027780Y-124826628D02*
X62523019Y-124826628D01*
X71286104Y-92808332D02*
X71324200Y-92846428D01*
X71324200Y-92846428D02*
X71362295Y-92960713D01*
X71362295Y-92960713D02*
X71362295Y-93036904D01*
X71362295Y-93036904D02*
X71324200Y-93151190D01*
X71324200Y-93151190D02*
X71248009Y-93227380D01*
X71248009Y-93227380D02*
X71171819Y-93265475D01*
X71171819Y-93265475D02*
X71019438Y-93303571D01*
X71019438Y-93303571D02*
X70905152Y-93303571D01*
X70905152Y-93303571D02*
X70752771Y-93265475D01*
X70752771Y-93265475D02*
X70676580Y-93227380D01*
X70676580Y-93227380D02*
X70600390Y-93151190D01*
X70600390Y-93151190D02*
X70562295Y-93036904D01*
X70562295Y-93036904D02*
X70562295Y-92960713D01*
X70562295Y-92960713D02*
X70600390Y-92846428D01*
X70600390Y-92846428D02*
X70638485Y-92808332D01*
X71362295Y-92046428D02*
X71362295Y-92503571D01*
X71362295Y-92274999D02*
X70562295Y-92274999D01*
X70562295Y-92274999D02*
X70676580Y-92351190D01*
X70676580Y-92351190D02*
X70752771Y-92427380D01*
X70752771Y-92427380D02*
X70790866Y-92503571D01*
X78435314Y-71271895D02*
X78168647Y-70890942D01*
X77978171Y-71271895D02*
X77978171Y-70471895D01*
X77978171Y-70471895D02*
X78282933Y-70471895D01*
X78282933Y-70471895D02*
X78359123Y-70509990D01*
X78359123Y-70509990D02*
X78397218Y-70548085D01*
X78397218Y-70548085D02*
X78435314Y-70624276D01*
X78435314Y-70624276D02*
X78435314Y-70738561D01*
X78435314Y-70738561D02*
X78397218Y-70814752D01*
X78397218Y-70814752D02*
X78359123Y-70852847D01*
X78359123Y-70852847D02*
X78282933Y-70890942D01*
X78282933Y-70890942D02*
X77978171Y-70890942D01*
X79197218Y-71271895D02*
X78740075Y-71271895D01*
X78968647Y-71271895D02*
X78968647Y-70471895D01*
X78968647Y-70471895D02*
X78892456Y-70586180D01*
X78892456Y-70586180D02*
X78816266Y-70662371D01*
X78816266Y-70662371D02*
X78740075Y-70700466D01*
X79921028Y-70471895D02*
X79540076Y-70471895D01*
X79540076Y-70471895D02*
X79501980Y-70852847D01*
X79501980Y-70852847D02*
X79540076Y-70814752D01*
X79540076Y-70814752D02*
X79616266Y-70776657D01*
X79616266Y-70776657D02*
X79806742Y-70776657D01*
X79806742Y-70776657D02*
X79882933Y-70814752D01*
X79882933Y-70814752D02*
X79921028Y-70852847D01*
X79921028Y-70852847D02*
X79959123Y-70929038D01*
X79959123Y-70929038D02*
X79959123Y-71119514D01*
X79959123Y-71119514D02*
X79921028Y-71195704D01*
X79921028Y-71195704D02*
X79882933Y-71233800D01*
X79882933Y-71233800D02*
X79806742Y-71271895D01*
X79806742Y-71271895D02*
X79616266Y-71271895D01*
X79616266Y-71271895D02*
X79540076Y-71233800D01*
X79540076Y-71233800D02*
X79501980Y-71195704D01*
X76333333Y-131638847D02*
X76066667Y-131638847D01*
X76066667Y-132057895D02*
X76066667Y-131257895D01*
X76066667Y-131257895D02*
X76447619Y-131257895D01*
X77019047Y-131638847D02*
X77133333Y-131676942D01*
X77133333Y-131676942D02*
X77171428Y-131715038D01*
X77171428Y-131715038D02*
X77209524Y-131791228D01*
X77209524Y-131791228D02*
X77209524Y-131905514D01*
X77209524Y-131905514D02*
X77171428Y-131981704D01*
X77171428Y-131981704D02*
X77133333Y-132019800D01*
X77133333Y-132019800D02*
X77057143Y-132057895D01*
X77057143Y-132057895D02*
X76752381Y-132057895D01*
X76752381Y-132057895D02*
X76752381Y-131257895D01*
X76752381Y-131257895D02*
X77019047Y-131257895D01*
X77019047Y-131257895D02*
X77095238Y-131295990D01*
X77095238Y-131295990D02*
X77133333Y-131334085D01*
X77133333Y-131334085D02*
X77171428Y-131410276D01*
X77171428Y-131410276D02*
X77171428Y-131486466D01*
X77171428Y-131486466D02*
X77133333Y-131562657D01*
X77133333Y-131562657D02*
X77095238Y-131600752D01*
X77095238Y-131600752D02*
X77019047Y-131638847D01*
X77019047Y-131638847D02*
X76752381Y-131638847D01*
X77971428Y-132057895D02*
X77514285Y-132057895D01*
X77742857Y-132057895D02*
X77742857Y-131257895D01*
X77742857Y-131257895D02*
X77666666Y-131372180D01*
X77666666Y-131372180D02*
X77590476Y-131448371D01*
X77590476Y-131448371D02*
X77514285Y-131486466D01*
X84291304Y-131493685D02*
X84329400Y-131531781D01*
X84329400Y-131531781D02*
X84367495Y-131646066D01*
X84367495Y-131646066D02*
X84367495Y-131722257D01*
X84367495Y-131722257D02*
X84329400Y-131836543D01*
X84329400Y-131836543D02*
X84253209Y-131912733D01*
X84253209Y-131912733D02*
X84177019Y-131950828D01*
X84177019Y-131950828D02*
X84024638Y-131988924D01*
X84024638Y-131988924D02*
X83910352Y-131988924D01*
X83910352Y-131988924D02*
X83757971Y-131950828D01*
X83757971Y-131950828D02*
X83681780Y-131912733D01*
X83681780Y-131912733D02*
X83605590Y-131836543D01*
X83605590Y-131836543D02*
X83567495Y-131722257D01*
X83567495Y-131722257D02*
X83567495Y-131646066D01*
X83567495Y-131646066D02*
X83605590Y-131531781D01*
X83605590Y-131531781D02*
X83643685Y-131493685D01*
X84367495Y-130731781D02*
X84367495Y-131188924D01*
X84367495Y-130960352D02*
X83567495Y-130960352D01*
X83567495Y-130960352D02*
X83681780Y-131036543D01*
X83681780Y-131036543D02*
X83757971Y-131112733D01*
X83757971Y-131112733D02*
X83796066Y-131188924D01*
X83834161Y-130046066D02*
X84367495Y-130046066D01*
X83529400Y-130236542D02*
X84100828Y-130427019D01*
X84100828Y-130427019D02*
X84100828Y-129931780D01*
X85713409Y-104507085D02*
X85637219Y-104468990D01*
X85637219Y-104468990D02*
X85561028Y-104392800D01*
X85561028Y-104392800D02*
X85446742Y-104278514D01*
X85446742Y-104278514D02*
X85370552Y-104240419D01*
X85370552Y-104240419D02*
X85294361Y-104240419D01*
X85332457Y-104430895D02*
X85256266Y-104392800D01*
X85256266Y-104392800D02*
X85180076Y-104316609D01*
X85180076Y-104316609D02*
X85141980Y-104164228D01*
X85141980Y-104164228D02*
X85141980Y-103897561D01*
X85141980Y-103897561D02*
X85180076Y-103745180D01*
X85180076Y-103745180D02*
X85256266Y-103668990D01*
X85256266Y-103668990D02*
X85332457Y-103630895D01*
X85332457Y-103630895D02*
X85484838Y-103630895D01*
X85484838Y-103630895D02*
X85561028Y-103668990D01*
X85561028Y-103668990D02*
X85637219Y-103745180D01*
X85637219Y-103745180D02*
X85675314Y-103897561D01*
X85675314Y-103897561D02*
X85675314Y-104164228D01*
X85675314Y-104164228D02*
X85637219Y-104316609D01*
X85637219Y-104316609D02*
X85561028Y-104392800D01*
X85561028Y-104392800D02*
X85484838Y-104430895D01*
X85484838Y-104430895D02*
X85332457Y-104430895D01*
X85941980Y-103630895D02*
X86437218Y-103630895D01*
X86437218Y-103630895D02*
X86170552Y-103935657D01*
X86170552Y-103935657D02*
X86284837Y-103935657D01*
X86284837Y-103935657D02*
X86361028Y-103973752D01*
X86361028Y-103973752D02*
X86399123Y-104011847D01*
X86399123Y-104011847D02*
X86437218Y-104088038D01*
X86437218Y-104088038D02*
X86437218Y-104278514D01*
X86437218Y-104278514D02*
X86399123Y-104354704D01*
X86399123Y-104354704D02*
X86361028Y-104392800D01*
X86361028Y-104392800D02*
X86284837Y-104430895D01*
X86284837Y-104430895D02*
X86056266Y-104430895D01*
X86056266Y-104430895D02*
X85980075Y-104392800D01*
X85980075Y-104392800D02*
X85941980Y-104354704D01*
X65054819Y-144957504D02*
X65864342Y-144957504D01*
X65864342Y-144957504D02*
X65959580Y-144909885D01*
X65959580Y-144909885D02*
X66007200Y-144862266D01*
X66007200Y-144862266D02*
X66054819Y-144767028D01*
X66054819Y-144767028D02*
X66054819Y-144576552D01*
X66054819Y-144576552D02*
X66007200Y-144481314D01*
X66007200Y-144481314D02*
X65959580Y-144433695D01*
X65959580Y-144433695D02*
X65864342Y-144386076D01*
X65864342Y-144386076D02*
X65054819Y-144386076D01*
X65054819Y-144005123D02*
X65054819Y-143386076D01*
X65054819Y-143386076D02*
X65435771Y-143719409D01*
X65435771Y-143719409D02*
X65435771Y-143576552D01*
X65435771Y-143576552D02*
X65483390Y-143481314D01*
X65483390Y-143481314D02*
X65531009Y-143433695D01*
X65531009Y-143433695D02*
X65626247Y-143386076D01*
X65626247Y-143386076D02*
X65864342Y-143386076D01*
X65864342Y-143386076D02*
X65959580Y-143433695D01*
X65959580Y-143433695D02*
X66007200Y-143481314D01*
X66007200Y-143481314D02*
X66054819Y-143576552D01*
X66054819Y-143576552D02*
X66054819Y-143862266D01*
X66054819Y-143862266D02*
X66007200Y-143957504D01*
X66007200Y-143957504D02*
X65959580Y-144005123D01*
X82271122Y-127821039D02*
X82378872Y-127767164D01*
X82378872Y-127767164D02*
X82432747Y-127767164D01*
X82432747Y-127767164D02*
X82513559Y-127794101D01*
X82513559Y-127794101D02*
X82594371Y-127874913D01*
X82594371Y-127874913D02*
X82621309Y-127955726D01*
X82621309Y-127955726D02*
X82621309Y-128009600D01*
X82621309Y-128009600D02*
X82594371Y-128090413D01*
X82594371Y-128090413D02*
X82378872Y-128305912D01*
X82378872Y-128305912D02*
X81813187Y-127740226D01*
X81813187Y-127740226D02*
X82001748Y-127551665D01*
X82001748Y-127551665D02*
X82082561Y-127524727D01*
X82082561Y-127524727D02*
X82136435Y-127524727D01*
X82136435Y-127524727D02*
X82217248Y-127551665D01*
X82217248Y-127551665D02*
X82271122Y-127605539D01*
X82271122Y-127605539D02*
X82298060Y-127686352D01*
X82298060Y-127686352D02*
X82298060Y-127740226D01*
X82298060Y-127740226D02*
X82271122Y-127821039D01*
X82271122Y-127821039D02*
X82082561Y-128009600D01*
X82324997Y-127228416D02*
X82702121Y-126851292D01*
X82702121Y-126851292D02*
X82890683Y-127794101D01*
X82890683Y-127794101D02*
X83267806Y-127416978D01*
X83779617Y-126905167D02*
X83456368Y-127228416D01*
X83617993Y-127066791D02*
X83052307Y-126501106D01*
X83052307Y-126501106D02*
X83079245Y-126635793D01*
X83079245Y-126635793D02*
X83079245Y-126743542D01*
X83079245Y-126743542D02*
X83052307Y-126824355D01*
X78281930Y-129049431D02*
X78820678Y-128510683D01*
X78820678Y-129049431D02*
X78281930Y-128510683D01*
X76016267Y-81395704D02*
X75978171Y-81433800D01*
X75978171Y-81433800D02*
X75863886Y-81471895D01*
X75863886Y-81471895D02*
X75787695Y-81471895D01*
X75787695Y-81471895D02*
X75673409Y-81433800D01*
X75673409Y-81433800D02*
X75597219Y-81357609D01*
X75597219Y-81357609D02*
X75559124Y-81281419D01*
X75559124Y-81281419D02*
X75521028Y-81129038D01*
X75521028Y-81129038D02*
X75521028Y-81014752D01*
X75521028Y-81014752D02*
X75559124Y-80862371D01*
X75559124Y-80862371D02*
X75597219Y-80786180D01*
X75597219Y-80786180D02*
X75673409Y-80709990D01*
X75673409Y-80709990D02*
X75787695Y-80671895D01*
X75787695Y-80671895D02*
X75863886Y-80671895D01*
X75863886Y-80671895D02*
X75978171Y-80709990D01*
X75978171Y-80709990D02*
X76016267Y-80748085D01*
X76816267Y-81471895D02*
X76549600Y-81090942D01*
X76359124Y-81471895D02*
X76359124Y-80671895D01*
X76359124Y-80671895D02*
X76663886Y-80671895D01*
X76663886Y-80671895D02*
X76740076Y-80709990D01*
X76740076Y-80709990D02*
X76778171Y-80748085D01*
X76778171Y-80748085D02*
X76816267Y-80824276D01*
X76816267Y-80824276D02*
X76816267Y-80938561D01*
X76816267Y-80938561D02*
X76778171Y-81014752D01*
X76778171Y-81014752D02*
X76740076Y-81052847D01*
X76740076Y-81052847D02*
X76663886Y-81090942D01*
X76663886Y-81090942D02*
X76359124Y-81090942D01*
X77121028Y-80748085D02*
X77159124Y-80709990D01*
X77159124Y-80709990D02*
X77235314Y-80671895D01*
X77235314Y-80671895D02*
X77425790Y-80671895D01*
X77425790Y-80671895D02*
X77501981Y-80709990D01*
X77501981Y-80709990D02*
X77540076Y-80748085D01*
X77540076Y-80748085D02*
X77578171Y-80824276D01*
X77578171Y-80824276D02*
X77578171Y-80900466D01*
X77578171Y-80900466D02*
X77540076Y-81014752D01*
X77540076Y-81014752D02*
X77082933Y-81471895D01*
X77082933Y-81471895D02*
X77578171Y-81471895D01*
X71738495Y-118128885D02*
X71357542Y-118395552D01*
X71738495Y-118586028D02*
X70938495Y-118586028D01*
X70938495Y-118586028D02*
X70938495Y-118281266D01*
X70938495Y-118281266D02*
X70976590Y-118205076D01*
X70976590Y-118205076D02*
X71014685Y-118166981D01*
X71014685Y-118166981D02*
X71090876Y-118128885D01*
X71090876Y-118128885D02*
X71205161Y-118128885D01*
X71205161Y-118128885D02*
X71281352Y-118166981D01*
X71281352Y-118166981D02*
X71319447Y-118205076D01*
X71319447Y-118205076D02*
X71357542Y-118281266D01*
X71357542Y-118281266D02*
X71357542Y-118586028D01*
X71738495Y-117366981D02*
X71738495Y-117824124D01*
X71738495Y-117595552D02*
X70938495Y-117595552D01*
X70938495Y-117595552D02*
X71052780Y-117671743D01*
X71052780Y-117671743D02*
X71128971Y-117747933D01*
X71128971Y-117747933D02*
X71167066Y-117824124D01*
X70938495Y-116681266D02*
X70938495Y-116833647D01*
X70938495Y-116833647D02*
X70976590Y-116909838D01*
X70976590Y-116909838D02*
X71014685Y-116947933D01*
X71014685Y-116947933D02*
X71128971Y-117024123D01*
X71128971Y-117024123D02*
X71281352Y-117062219D01*
X71281352Y-117062219D02*
X71586114Y-117062219D01*
X71586114Y-117062219D02*
X71662304Y-117024123D01*
X71662304Y-117024123D02*
X71700400Y-116986028D01*
X71700400Y-116986028D02*
X71738495Y-116909838D01*
X71738495Y-116909838D02*
X71738495Y-116757457D01*
X71738495Y-116757457D02*
X71700400Y-116681266D01*
X71700400Y-116681266D02*
X71662304Y-116643171D01*
X71662304Y-116643171D02*
X71586114Y-116605076D01*
X71586114Y-116605076D02*
X71395638Y-116605076D01*
X71395638Y-116605076D02*
X71319447Y-116643171D01*
X71319447Y-116643171D02*
X71281352Y-116681266D01*
X71281352Y-116681266D02*
X71243257Y-116757457D01*
X71243257Y-116757457D02*
X71243257Y-116909838D01*
X71243257Y-116909838D02*
X71281352Y-116986028D01*
X71281352Y-116986028D02*
X71319447Y-117024123D01*
X71319447Y-117024123D02*
X71395638Y-117062219D01*
X52636314Y-136968304D02*
X52598218Y-137006400D01*
X52598218Y-137006400D02*
X52483933Y-137044495D01*
X52483933Y-137044495D02*
X52407742Y-137044495D01*
X52407742Y-137044495D02*
X52293456Y-137006400D01*
X52293456Y-137006400D02*
X52217266Y-136930209D01*
X52217266Y-136930209D02*
X52179171Y-136854019D01*
X52179171Y-136854019D02*
X52141075Y-136701638D01*
X52141075Y-136701638D02*
X52141075Y-136587352D01*
X52141075Y-136587352D02*
X52179171Y-136434971D01*
X52179171Y-136434971D02*
X52217266Y-136358780D01*
X52217266Y-136358780D02*
X52293456Y-136282590D01*
X52293456Y-136282590D02*
X52407742Y-136244495D01*
X52407742Y-136244495D02*
X52483933Y-136244495D01*
X52483933Y-136244495D02*
X52598218Y-136282590D01*
X52598218Y-136282590D02*
X52636314Y-136320685D01*
X53398218Y-137044495D02*
X52941075Y-137044495D01*
X53169647Y-137044495D02*
X53169647Y-136244495D01*
X53169647Y-136244495D02*
X53093456Y-136358780D01*
X53093456Y-136358780D02*
X53017266Y-136434971D01*
X53017266Y-136434971D02*
X52941075Y-136473066D01*
X53702980Y-136320685D02*
X53741076Y-136282590D01*
X53741076Y-136282590D02*
X53817266Y-136244495D01*
X53817266Y-136244495D02*
X54007742Y-136244495D01*
X54007742Y-136244495D02*
X54083933Y-136282590D01*
X54083933Y-136282590D02*
X54122028Y-136320685D01*
X54122028Y-136320685D02*
X54160123Y-136396876D01*
X54160123Y-136396876D02*
X54160123Y-136473066D01*
X54160123Y-136473066D02*
X54122028Y-136587352D01*
X54122028Y-136587352D02*
X53664885Y-137044495D01*
X53664885Y-137044495D02*
X54160123Y-137044495D01*
X72285314Y-73571895D02*
X72018647Y-73190942D01*
X71828171Y-73571895D02*
X71828171Y-72771895D01*
X71828171Y-72771895D02*
X72132933Y-72771895D01*
X72132933Y-72771895D02*
X72209123Y-72809990D01*
X72209123Y-72809990D02*
X72247218Y-72848085D01*
X72247218Y-72848085D02*
X72285314Y-72924276D01*
X72285314Y-72924276D02*
X72285314Y-73038561D01*
X72285314Y-73038561D02*
X72247218Y-73114752D01*
X72247218Y-73114752D02*
X72209123Y-73152847D01*
X72209123Y-73152847D02*
X72132933Y-73190942D01*
X72132933Y-73190942D02*
X71828171Y-73190942D01*
X73047218Y-73571895D02*
X72590075Y-73571895D01*
X72818647Y-73571895D02*
X72818647Y-72771895D01*
X72818647Y-72771895D02*
X72742456Y-72886180D01*
X72742456Y-72886180D02*
X72666266Y-72962371D01*
X72666266Y-72962371D02*
X72590075Y-73000466D01*
X73809123Y-73571895D02*
X73351980Y-73571895D01*
X73580552Y-73571895D02*
X73580552Y-72771895D01*
X73580552Y-72771895D02*
X73504361Y-72886180D01*
X73504361Y-72886180D02*
X73428171Y-72962371D01*
X73428171Y-72962371D02*
X73351980Y-73000466D01*
X62237409Y-114653885D02*
X62161219Y-114615790D01*
X62161219Y-114615790D02*
X62085028Y-114539600D01*
X62085028Y-114539600D02*
X61970742Y-114425314D01*
X61970742Y-114425314D02*
X61894552Y-114387219D01*
X61894552Y-114387219D02*
X61818361Y-114387219D01*
X61856457Y-114577695D02*
X61780266Y-114539600D01*
X61780266Y-114539600D02*
X61704076Y-114463409D01*
X61704076Y-114463409D02*
X61665980Y-114311028D01*
X61665980Y-114311028D02*
X61665980Y-114044361D01*
X61665980Y-114044361D02*
X61704076Y-113891980D01*
X61704076Y-113891980D02*
X61780266Y-113815790D01*
X61780266Y-113815790D02*
X61856457Y-113777695D01*
X61856457Y-113777695D02*
X62008838Y-113777695D01*
X62008838Y-113777695D02*
X62085028Y-113815790D01*
X62085028Y-113815790D02*
X62161219Y-113891980D01*
X62161219Y-113891980D02*
X62199314Y-114044361D01*
X62199314Y-114044361D02*
X62199314Y-114311028D01*
X62199314Y-114311028D02*
X62161219Y-114463409D01*
X62161219Y-114463409D02*
X62085028Y-114539600D01*
X62085028Y-114539600D02*
X62008838Y-114577695D01*
X62008838Y-114577695D02*
X61856457Y-114577695D01*
X62504075Y-113853885D02*
X62542171Y-113815790D01*
X62542171Y-113815790D02*
X62618361Y-113777695D01*
X62618361Y-113777695D02*
X62808837Y-113777695D01*
X62808837Y-113777695D02*
X62885028Y-113815790D01*
X62885028Y-113815790D02*
X62923123Y-113853885D01*
X62923123Y-113853885D02*
X62961218Y-113930076D01*
X62961218Y-113930076D02*
X62961218Y-114006266D01*
X62961218Y-114006266D02*
X62923123Y-114120552D01*
X62923123Y-114120552D02*
X62465980Y-114577695D01*
X62465980Y-114577695D02*
X62961218Y-114577695D01*
X71761895Y-79423885D02*
X71380942Y-79690552D01*
X71761895Y-79881028D02*
X70961895Y-79881028D01*
X70961895Y-79881028D02*
X70961895Y-79576266D01*
X70961895Y-79576266D02*
X70999990Y-79500076D01*
X70999990Y-79500076D02*
X71038085Y-79461981D01*
X71038085Y-79461981D02*
X71114276Y-79423885D01*
X71114276Y-79423885D02*
X71228561Y-79423885D01*
X71228561Y-79423885D02*
X71304752Y-79461981D01*
X71304752Y-79461981D02*
X71342847Y-79500076D01*
X71342847Y-79500076D02*
X71380942Y-79576266D01*
X71380942Y-79576266D02*
X71380942Y-79881028D01*
X71761895Y-78661981D02*
X71761895Y-79119124D01*
X71761895Y-78890552D02*
X70961895Y-78890552D01*
X70961895Y-78890552D02*
X71076180Y-78966743D01*
X71076180Y-78966743D02*
X71152371Y-79042933D01*
X71152371Y-79042933D02*
X71190466Y-79119124D01*
X71038085Y-78357219D02*
X70999990Y-78319123D01*
X70999990Y-78319123D02*
X70961895Y-78242933D01*
X70961895Y-78242933D02*
X70961895Y-78052457D01*
X70961895Y-78052457D02*
X70999990Y-77976266D01*
X70999990Y-77976266D02*
X71038085Y-77938171D01*
X71038085Y-77938171D02*
X71114276Y-77900076D01*
X71114276Y-77900076D02*
X71190466Y-77900076D01*
X71190466Y-77900076D02*
X71304752Y-77938171D01*
X71304752Y-77938171D02*
X71761895Y-78395314D01*
X71761895Y-78395314D02*
X71761895Y-77900076D01*
X76691667Y-94536104D02*
X76653571Y-94574200D01*
X76653571Y-94574200D02*
X76539286Y-94612295D01*
X76539286Y-94612295D02*
X76463095Y-94612295D01*
X76463095Y-94612295D02*
X76348809Y-94574200D01*
X76348809Y-94574200D02*
X76272619Y-94498009D01*
X76272619Y-94498009D02*
X76234524Y-94421819D01*
X76234524Y-94421819D02*
X76196428Y-94269438D01*
X76196428Y-94269438D02*
X76196428Y-94155152D01*
X76196428Y-94155152D02*
X76234524Y-94002771D01*
X76234524Y-94002771D02*
X76272619Y-93926580D01*
X76272619Y-93926580D02*
X76348809Y-93850390D01*
X76348809Y-93850390D02*
X76463095Y-93812295D01*
X76463095Y-93812295D02*
X76539286Y-93812295D01*
X76539286Y-93812295D02*
X76653571Y-93850390D01*
X76653571Y-93850390D02*
X76691667Y-93888485D01*
X76996428Y-93888485D02*
X77034524Y-93850390D01*
X77034524Y-93850390D02*
X77110714Y-93812295D01*
X77110714Y-93812295D02*
X77301190Y-93812295D01*
X77301190Y-93812295D02*
X77377381Y-93850390D01*
X77377381Y-93850390D02*
X77415476Y-93888485D01*
X77415476Y-93888485D02*
X77453571Y-93964676D01*
X77453571Y-93964676D02*
X77453571Y-94040866D01*
X77453571Y-94040866D02*
X77415476Y-94155152D01*
X77415476Y-94155152D02*
X76958333Y-94612295D01*
X76958333Y-94612295D02*
X77453571Y-94612295D01*
X74315504Y-136078885D02*
X74353600Y-136116981D01*
X74353600Y-136116981D02*
X74391695Y-136231266D01*
X74391695Y-136231266D02*
X74391695Y-136307457D01*
X74391695Y-136307457D02*
X74353600Y-136421743D01*
X74353600Y-136421743D02*
X74277409Y-136497933D01*
X74277409Y-136497933D02*
X74201219Y-136536028D01*
X74201219Y-136536028D02*
X74048838Y-136574124D01*
X74048838Y-136574124D02*
X73934552Y-136574124D01*
X73934552Y-136574124D02*
X73782171Y-136536028D01*
X73782171Y-136536028D02*
X73705980Y-136497933D01*
X73705980Y-136497933D02*
X73629790Y-136421743D01*
X73629790Y-136421743D02*
X73591695Y-136307457D01*
X73591695Y-136307457D02*
X73591695Y-136231266D01*
X73591695Y-136231266D02*
X73629790Y-136116981D01*
X73629790Y-136116981D02*
X73667885Y-136078885D01*
X74391695Y-135316981D02*
X74391695Y-135774124D01*
X74391695Y-135545552D02*
X73591695Y-135545552D01*
X73591695Y-135545552D02*
X73705980Y-135621743D01*
X73705980Y-135621743D02*
X73782171Y-135697933D01*
X73782171Y-135697933D02*
X73820266Y-135774124D01*
X74391695Y-134936028D02*
X74391695Y-134783647D01*
X74391695Y-134783647D02*
X74353600Y-134707457D01*
X74353600Y-134707457D02*
X74315504Y-134669361D01*
X74315504Y-134669361D02*
X74201219Y-134593171D01*
X74201219Y-134593171D02*
X74048838Y-134555076D01*
X74048838Y-134555076D02*
X73744076Y-134555076D01*
X73744076Y-134555076D02*
X73667885Y-134593171D01*
X73667885Y-134593171D02*
X73629790Y-134631266D01*
X73629790Y-134631266D02*
X73591695Y-134707457D01*
X73591695Y-134707457D02*
X73591695Y-134859838D01*
X73591695Y-134859838D02*
X73629790Y-134936028D01*
X73629790Y-134936028D02*
X73667885Y-134974123D01*
X73667885Y-134974123D02*
X73744076Y-135012219D01*
X73744076Y-135012219D02*
X73934552Y-135012219D01*
X73934552Y-135012219D02*
X74010742Y-134974123D01*
X74010742Y-134974123D02*
X74048838Y-134936028D01*
X74048838Y-134936028D02*
X74086933Y-134859838D01*
X74086933Y-134859838D02*
X74086933Y-134707457D01*
X74086933Y-134707457D02*
X74048838Y-134631266D01*
X74048838Y-134631266D02*
X74010742Y-134593171D01*
X74010742Y-134593171D02*
X73934552Y-134555076D01*
X72693695Y-66906532D02*
X72312742Y-67173199D01*
X72693695Y-67363675D02*
X71893695Y-67363675D01*
X71893695Y-67363675D02*
X71893695Y-67058913D01*
X71893695Y-67058913D02*
X71931790Y-66982723D01*
X71931790Y-66982723D02*
X71969885Y-66944628D01*
X71969885Y-66944628D02*
X72046076Y-66906532D01*
X72046076Y-66906532D02*
X72160361Y-66906532D01*
X72160361Y-66906532D02*
X72236552Y-66944628D01*
X72236552Y-66944628D02*
X72274647Y-66982723D01*
X72274647Y-66982723D02*
X72312742Y-67058913D01*
X72312742Y-67058913D02*
X72312742Y-67363675D01*
X71893695Y-66220818D02*
X71893695Y-66373199D01*
X71893695Y-66373199D02*
X71931790Y-66449390D01*
X71931790Y-66449390D02*
X71969885Y-66487485D01*
X71969885Y-66487485D02*
X72084171Y-66563675D01*
X72084171Y-66563675D02*
X72236552Y-66601771D01*
X72236552Y-66601771D02*
X72541314Y-66601771D01*
X72541314Y-66601771D02*
X72617504Y-66563675D01*
X72617504Y-66563675D02*
X72655600Y-66525580D01*
X72655600Y-66525580D02*
X72693695Y-66449390D01*
X72693695Y-66449390D02*
X72693695Y-66297009D01*
X72693695Y-66297009D02*
X72655600Y-66220818D01*
X72655600Y-66220818D02*
X72617504Y-66182723D01*
X72617504Y-66182723D02*
X72541314Y-66144628D01*
X72541314Y-66144628D02*
X72350838Y-66144628D01*
X72350838Y-66144628D02*
X72274647Y-66182723D01*
X72274647Y-66182723D02*
X72236552Y-66220818D01*
X72236552Y-66220818D02*
X72198457Y-66297009D01*
X72198457Y-66297009D02*
X72198457Y-66449390D01*
X72198457Y-66449390D02*
X72236552Y-66525580D01*
X72236552Y-66525580D02*
X72274647Y-66563675D01*
X72274647Y-66563675D02*
X72350838Y-66601771D01*
X62350580Y-130828666D02*
X62398200Y-130876285D01*
X62398200Y-130876285D02*
X62445819Y-131019142D01*
X62445819Y-131019142D02*
X62445819Y-131114380D01*
X62445819Y-131114380D02*
X62398200Y-131257237D01*
X62398200Y-131257237D02*
X62302961Y-131352475D01*
X62302961Y-131352475D02*
X62207723Y-131400094D01*
X62207723Y-131400094D02*
X62017247Y-131447713D01*
X62017247Y-131447713D02*
X61874390Y-131447713D01*
X61874390Y-131447713D02*
X61683914Y-131400094D01*
X61683914Y-131400094D02*
X61588676Y-131352475D01*
X61588676Y-131352475D02*
X61493438Y-131257237D01*
X61493438Y-131257237D02*
X61445819Y-131114380D01*
X61445819Y-131114380D02*
X61445819Y-131019142D01*
X61445819Y-131019142D02*
X61493438Y-130876285D01*
X61493438Y-130876285D02*
X61541057Y-130828666D01*
X62445819Y-130352475D02*
X62445819Y-130161999D01*
X62445819Y-130161999D02*
X62398200Y-130066761D01*
X62398200Y-130066761D02*
X62350580Y-130019142D01*
X62350580Y-130019142D02*
X62207723Y-129923904D01*
X62207723Y-129923904D02*
X62017247Y-129876285D01*
X62017247Y-129876285D02*
X61636295Y-129876285D01*
X61636295Y-129876285D02*
X61541057Y-129923904D01*
X61541057Y-129923904D02*
X61493438Y-129971523D01*
X61493438Y-129971523D02*
X61445819Y-130066761D01*
X61445819Y-130066761D02*
X61445819Y-130257237D01*
X61445819Y-130257237D02*
X61493438Y-130352475D01*
X61493438Y-130352475D02*
X61541057Y-130400094D01*
X61541057Y-130400094D02*
X61636295Y-130447713D01*
X61636295Y-130447713D02*
X61874390Y-130447713D01*
X61874390Y-130447713D02*
X61969628Y-130400094D01*
X61969628Y-130400094D02*
X62017247Y-130352475D01*
X62017247Y-130352475D02*
X62064866Y-130257237D01*
X62064866Y-130257237D02*
X62064866Y-130066761D01*
X62064866Y-130066761D02*
X62017247Y-129971523D01*
X62017247Y-129971523D02*
X61969628Y-129923904D01*
X61969628Y-129923904D02*
X61874390Y-129876285D01*
X60333333Y-64562295D02*
X60333333Y-65133723D01*
X60333333Y-65133723D02*
X60295238Y-65248009D01*
X60295238Y-65248009D02*
X60219047Y-65324200D01*
X60219047Y-65324200D02*
X60104762Y-65362295D01*
X60104762Y-65362295D02*
X60028571Y-65362295D01*
X61095238Y-64562295D02*
X60714286Y-64562295D01*
X60714286Y-64562295D02*
X60676190Y-64943247D01*
X60676190Y-64943247D02*
X60714286Y-64905152D01*
X60714286Y-64905152D02*
X60790476Y-64867057D01*
X60790476Y-64867057D02*
X60980952Y-64867057D01*
X60980952Y-64867057D02*
X61057143Y-64905152D01*
X61057143Y-64905152D02*
X61095238Y-64943247D01*
X61095238Y-64943247D02*
X61133333Y-65019438D01*
X61133333Y-65019438D02*
X61133333Y-65209914D01*
X61133333Y-65209914D02*
X61095238Y-65286104D01*
X61095238Y-65286104D02*
X61057143Y-65324200D01*
X61057143Y-65324200D02*
X60980952Y-65362295D01*
X60980952Y-65362295D02*
X60790476Y-65362295D01*
X60790476Y-65362295D02*
X60714286Y-65324200D01*
X60714286Y-65324200D02*
X60676190Y-65286104D01*
X62459667Y-65258695D02*
X62193000Y-64877742D01*
X62002524Y-65258695D02*
X62002524Y-64458695D01*
X62002524Y-64458695D02*
X62307286Y-64458695D01*
X62307286Y-64458695D02*
X62383476Y-64496790D01*
X62383476Y-64496790D02*
X62421571Y-64534885D01*
X62421571Y-64534885D02*
X62459667Y-64611076D01*
X62459667Y-64611076D02*
X62459667Y-64725361D01*
X62459667Y-64725361D02*
X62421571Y-64801552D01*
X62421571Y-64801552D02*
X62383476Y-64839647D01*
X62383476Y-64839647D02*
X62307286Y-64877742D01*
X62307286Y-64877742D02*
X62002524Y-64877742D01*
X62726333Y-64458695D02*
X63259667Y-64458695D01*
X63259667Y-64458695D02*
X62916809Y-65258695D01*
X74346914Y-85062895D02*
X74080247Y-84681942D01*
X73889771Y-85062895D02*
X73889771Y-84262895D01*
X73889771Y-84262895D02*
X74194533Y-84262895D01*
X74194533Y-84262895D02*
X74270723Y-84300990D01*
X74270723Y-84300990D02*
X74308818Y-84339085D01*
X74308818Y-84339085D02*
X74346914Y-84415276D01*
X74346914Y-84415276D02*
X74346914Y-84529561D01*
X74346914Y-84529561D02*
X74308818Y-84605752D01*
X74308818Y-84605752D02*
X74270723Y-84643847D01*
X74270723Y-84643847D02*
X74194533Y-84681942D01*
X74194533Y-84681942D02*
X73889771Y-84681942D01*
X75108818Y-85062895D02*
X74651675Y-85062895D01*
X74880247Y-85062895D02*
X74880247Y-84262895D01*
X74880247Y-84262895D02*
X74804056Y-84377180D01*
X74804056Y-84377180D02*
X74727866Y-84453371D01*
X74727866Y-84453371D02*
X74651675Y-84491466D01*
X75794533Y-84529561D02*
X75794533Y-85062895D01*
X75604057Y-84224800D02*
X75413580Y-84796228D01*
X75413580Y-84796228D02*
X75908819Y-84796228D01*
X77577380Y-121737295D02*
X77577380Y-122308723D01*
X77577380Y-122308723D02*
X77539285Y-122423009D01*
X77539285Y-122423009D02*
X77463094Y-122499200D01*
X77463094Y-122499200D02*
X77348809Y-122537295D01*
X77348809Y-122537295D02*
X77272618Y-122537295D01*
X78377380Y-122537295D02*
X77920237Y-122537295D01*
X78148809Y-122537295D02*
X78148809Y-121737295D01*
X78148809Y-121737295D02*
X78072618Y-121851580D01*
X78072618Y-121851580D02*
X77996428Y-121927771D01*
X77996428Y-121927771D02*
X77920237Y-121965866D01*
X79139285Y-122537295D02*
X78682142Y-122537295D01*
X78910714Y-122537295D02*
X78910714Y-121737295D01*
X78910714Y-121737295D02*
X78834523Y-121851580D01*
X78834523Y-121851580D02*
X78758333Y-121927771D01*
X78758333Y-121927771D02*
X78682142Y-121965866D01*
D12*
X69641600Y-129041942D02*
X69641600Y-129899085D01*
X69641600Y-129899085D02*
X69584457Y-130070514D01*
X69584457Y-130070514D02*
X69470171Y-130184800D01*
X69470171Y-130184800D02*
X69298743Y-130241942D01*
X69298743Y-130241942D02*
X69184457Y-130241942D01*
X70098743Y-129041942D02*
X70841600Y-129041942D01*
X70841600Y-129041942D02*
X70441600Y-129499085D01*
X70441600Y-129499085D02*
X70613029Y-129499085D01*
X70613029Y-129499085D02*
X70727315Y-129556228D01*
X70727315Y-129556228D02*
X70784457Y-129613371D01*
X70784457Y-129613371D02*
X70841600Y-129727657D01*
X70841600Y-129727657D02*
X70841600Y-130013371D01*
X70841600Y-130013371D02*
X70784457Y-130127657D01*
X70784457Y-130127657D02*
X70727315Y-130184800D01*
X70727315Y-130184800D02*
X70613029Y-130241942D01*
X70613029Y-130241942D02*
X70270172Y-130241942D01*
X70270172Y-130241942D02*
X70155886Y-130184800D01*
X70155886Y-130184800D02*
X70098743Y-130127657D01*
D10*
X66102067Y-66856095D02*
X65835400Y-66475142D01*
X65644924Y-66856095D02*
X65644924Y-66056095D01*
X65644924Y-66056095D02*
X65949686Y-66056095D01*
X65949686Y-66056095D02*
X66025876Y-66094190D01*
X66025876Y-66094190D02*
X66063971Y-66132285D01*
X66063971Y-66132285D02*
X66102067Y-66208476D01*
X66102067Y-66208476D02*
X66102067Y-66322761D01*
X66102067Y-66322761D02*
X66063971Y-66398952D01*
X66063971Y-66398952D02*
X66025876Y-66437047D01*
X66025876Y-66437047D02*
X65949686Y-66475142D01*
X65949686Y-66475142D02*
X65644924Y-66475142D01*
X66559209Y-66398952D02*
X66483019Y-66360857D01*
X66483019Y-66360857D02*
X66444924Y-66322761D01*
X66444924Y-66322761D02*
X66406828Y-66246571D01*
X66406828Y-66246571D02*
X66406828Y-66208476D01*
X66406828Y-66208476D02*
X66444924Y-66132285D01*
X66444924Y-66132285D02*
X66483019Y-66094190D01*
X66483019Y-66094190D02*
X66559209Y-66056095D01*
X66559209Y-66056095D02*
X66711590Y-66056095D01*
X66711590Y-66056095D02*
X66787781Y-66094190D01*
X66787781Y-66094190D02*
X66825876Y-66132285D01*
X66825876Y-66132285D02*
X66863971Y-66208476D01*
X66863971Y-66208476D02*
X66863971Y-66246571D01*
X66863971Y-66246571D02*
X66825876Y-66322761D01*
X66825876Y-66322761D02*
X66787781Y-66360857D01*
X66787781Y-66360857D02*
X66711590Y-66398952D01*
X66711590Y-66398952D02*
X66559209Y-66398952D01*
X66559209Y-66398952D02*
X66483019Y-66437047D01*
X66483019Y-66437047D02*
X66444924Y-66475142D01*
X66444924Y-66475142D02*
X66406828Y-66551333D01*
X66406828Y-66551333D02*
X66406828Y-66703714D01*
X66406828Y-66703714D02*
X66444924Y-66779904D01*
X66444924Y-66779904D02*
X66483019Y-66818000D01*
X66483019Y-66818000D02*
X66559209Y-66856095D01*
X66559209Y-66856095D02*
X66711590Y-66856095D01*
X66711590Y-66856095D02*
X66787781Y-66818000D01*
X66787781Y-66818000D02*
X66825876Y-66779904D01*
X66825876Y-66779904D02*
X66863971Y-66703714D01*
X66863971Y-66703714D02*
X66863971Y-66551333D01*
X66863971Y-66551333D02*
X66825876Y-66475142D01*
X66825876Y-66475142D02*
X66787781Y-66437047D01*
X66787781Y-66437047D02*
X66711590Y-66398952D01*
X50135714Y-135186104D02*
X50097618Y-135224200D01*
X50097618Y-135224200D02*
X49983333Y-135262295D01*
X49983333Y-135262295D02*
X49907142Y-135262295D01*
X49907142Y-135262295D02*
X49792856Y-135224200D01*
X49792856Y-135224200D02*
X49716666Y-135148009D01*
X49716666Y-135148009D02*
X49678571Y-135071819D01*
X49678571Y-135071819D02*
X49640475Y-134919438D01*
X49640475Y-134919438D02*
X49640475Y-134805152D01*
X49640475Y-134805152D02*
X49678571Y-134652771D01*
X49678571Y-134652771D02*
X49716666Y-134576580D01*
X49716666Y-134576580D02*
X49792856Y-134500390D01*
X49792856Y-134500390D02*
X49907142Y-134462295D01*
X49907142Y-134462295D02*
X49983333Y-134462295D01*
X49983333Y-134462295D02*
X50097618Y-134500390D01*
X50097618Y-134500390D02*
X50135714Y-134538485D01*
X50897618Y-135262295D02*
X50440475Y-135262295D01*
X50669047Y-135262295D02*
X50669047Y-134462295D01*
X50669047Y-134462295D02*
X50592856Y-134576580D01*
X50592856Y-134576580D02*
X50516666Y-134652771D01*
X50516666Y-134652771D02*
X50440475Y-134690866D01*
X51659523Y-135262295D02*
X51202380Y-135262295D01*
X51430952Y-135262295D02*
X51430952Y-134462295D01*
X51430952Y-134462295D02*
X51354761Y-134576580D01*
X51354761Y-134576580D02*
X51278571Y-134652771D01*
X51278571Y-134652771D02*
X51202380Y-134690866D01*
X53666667Y-65712295D02*
X53400000Y-65331342D01*
X53209524Y-65712295D02*
X53209524Y-64912295D01*
X53209524Y-64912295D02*
X53514286Y-64912295D01*
X53514286Y-64912295D02*
X53590476Y-64950390D01*
X53590476Y-64950390D02*
X53628571Y-64988485D01*
X53628571Y-64988485D02*
X53666667Y-65064676D01*
X53666667Y-65064676D02*
X53666667Y-65178961D01*
X53666667Y-65178961D02*
X53628571Y-65255152D01*
X53628571Y-65255152D02*
X53590476Y-65293247D01*
X53590476Y-65293247D02*
X53514286Y-65331342D01*
X53514286Y-65331342D02*
X53209524Y-65331342D01*
X53971428Y-64988485D02*
X54009524Y-64950390D01*
X54009524Y-64950390D02*
X54085714Y-64912295D01*
X54085714Y-64912295D02*
X54276190Y-64912295D01*
X54276190Y-64912295D02*
X54352381Y-64950390D01*
X54352381Y-64950390D02*
X54390476Y-64988485D01*
X54390476Y-64988485D02*
X54428571Y-65064676D01*
X54428571Y-65064676D02*
X54428571Y-65140866D01*
X54428571Y-65140866D02*
X54390476Y-65255152D01*
X54390476Y-65255152D02*
X53933333Y-65712295D01*
X53933333Y-65712295D02*
X54428571Y-65712295D01*
X85482314Y-102949495D02*
X85215647Y-102568542D01*
X85025171Y-102949495D02*
X85025171Y-102149495D01*
X85025171Y-102149495D02*
X85329933Y-102149495D01*
X85329933Y-102149495D02*
X85406123Y-102187590D01*
X85406123Y-102187590D02*
X85444218Y-102225685D01*
X85444218Y-102225685D02*
X85482314Y-102301876D01*
X85482314Y-102301876D02*
X85482314Y-102416161D01*
X85482314Y-102416161D02*
X85444218Y-102492352D01*
X85444218Y-102492352D02*
X85406123Y-102530447D01*
X85406123Y-102530447D02*
X85329933Y-102568542D01*
X85329933Y-102568542D02*
X85025171Y-102568542D01*
X85787075Y-102225685D02*
X85825171Y-102187590D01*
X85825171Y-102187590D02*
X85901361Y-102149495D01*
X85901361Y-102149495D02*
X86091837Y-102149495D01*
X86091837Y-102149495D02*
X86168028Y-102187590D01*
X86168028Y-102187590D02*
X86206123Y-102225685D01*
X86206123Y-102225685D02*
X86244218Y-102301876D01*
X86244218Y-102301876D02*
X86244218Y-102378066D01*
X86244218Y-102378066D02*
X86206123Y-102492352D01*
X86206123Y-102492352D02*
X85748980Y-102949495D01*
X85748980Y-102949495D02*
X86244218Y-102949495D01*
X86929933Y-102149495D02*
X86777552Y-102149495D01*
X86777552Y-102149495D02*
X86701361Y-102187590D01*
X86701361Y-102187590D02*
X86663266Y-102225685D01*
X86663266Y-102225685D02*
X86587076Y-102339971D01*
X86587076Y-102339971D02*
X86548980Y-102492352D01*
X86548980Y-102492352D02*
X86548980Y-102797114D01*
X86548980Y-102797114D02*
X86587076Y-102873304D01*
X86587076Y-102873304D02*
X86625171Y-102911400D01*
X86625171Y-102911400D02*
X86701361Y-102949495D01*
X86701361Y-102949495D02*
X86853742Y-102949495D01*
X86853742Y-102949495D02*
X86929933Y-102911400D01*
X86929933Y-102911400D02*
X86968028Y-102873304D01*
X86968028Y-102873304D02*
X87006123Y-102797114D01*
X87006123Y-102797114D02*
X87006123Y-102606638D01*
X87006123Y-102606638D02*
X86968028Y-102530447D01*
X86968028Y-102530447D02*
X86929933Y-102492352D01*
X86929933Y-102492352D02*
X86853742Y-102454257D01*
X86853742Y-102454257D02*
X86701361Y-102454257D01*
X86701361Y-102454257D02*
X86625171Y-102492352D01*
X86625171Y-102492352D02*
X86587076Y-102530447D01*
X86587076Y-102530447D02*
X86548980Y-102606638D01*
X64586961Y-61186895D02*
X64206009Y-61186895D01*
X64206009Y-61186895D02*
X64206009Y-60386895D01*
X64853628Y-60767847D02*
X65120294Y-60767847D01*
X65234580Y-61186895D02*
X64853628Y-61186895D01*
X64853628Y-61186895D02*
X64853628Y-60386895D01*
X64853628Y-60386895D02*
X65234580Y-60386895D01*
X65920295Y-60653561D02*
X65920295Y-61186895D01*
X65729819Y-60348800D02*
X65539342Y-60920228D01*
X65539342Y-60920228D02*
X66034581Y-60920228D01*
X82011380Y-118903495D02*
X82011380Y-119474923D01*
X82011380Y-119474923D02*
X81973285Y-119589209D01*
X81973285Y-119589209D02*
X81897094Y-119665400D01*
X81897094Y-119665400D02*
X81782809Y-119703495D01*
X81782809Y-119703495D02*
X81706618Y-119703495D01*
X82811380Y-119703495D02*
X82354237Y-119703495D01*
X82582809Y-119703495D02*
X82582809Y-118903495D01*
X82582809Y-118903495D02*
X82506618Y-119017780D01*
X82506618Y-119017780D02*
X82430428Y-119093971D01*
X82430428Y-119093971D02*
X82354237Y-119132066D01*
X83116142Y-118979685D02*
X83154238Y-118941590D01*
X83154238Y-118941590D02*
X83230428Y-118903495D01*
X83230428Y-118903495D02*
X83420904Y-118903495D01*
X83420904Y-118903495D02*
X83497095Y-118941590D01*
X83497095Y-118941590D02*
X83535190Y-118979685D01*
X83535190Y-118979685D02*
X83573285Y-119055876D01*
X83573285Y-119055876D02*
X83573285Y-119132066D01*
X83573285Y-119132066D02*
X83535190Y-119246352D01*
X83535190Y-119246352D02*
X83078047Y-119703495D01*
X83078047Y-119703495D02*
X83573285Y-119703495D01*
X78823409Y-85648085D02*
X78747219Y-85609990D01*
X78747219Y-85609990D02*
X78671028Y-85533800D01*
X78671028Y-85533800D02*
X78556742Y-85419514D01*
X78556742Y-85419514D02*
X78480552Y-85381419D01*
X78480552Y-85381419D02*
X78404361Y-85381419D01*
X78442457Y-85571895D02*
X78366266Y-85533800D01*
X78366266Y-85533800D02*
X78290076Y-85457609D01*
X78290076Y-85457609D02*
X78251980Y-85305228D01*
X78251980Y-85305228D02*
X78251980Y-85038561D01*
X78251980Y-85038561D02*
X78290076Y-84886180D01*
X78290076Y-84886180D02*
X78366266Y-84809990D01*
X78366266Y-84809990D02*
X78442457Y-84771895D01*
X78442457Y-84771895D02*
X78594838Y-84771895D01*
X78594838Y-84771895D02*
X78671028Y-84809990D01*
X78671028Y-84809990D02*
X78747219Y-84886180D01*
X78747219Y-84886180D02*
X78785314Y-85038561D01*
X78785314Y-85038561D02*
X78785314Y-85305228D01*
X78785314Y-85305228D02*
X78747219Y-85457609D01*
X78747219Y-85457609D02*
X78671028Y-85533800D01*
X78671028Y-85533800D02*
X78594838Y-85571895D01*
X78594838Y-85571895D02*
X78442457Y-85571895D01*
X79547218Y-85571895D02*
X79090075Y-85571895D01*
X79318647Y-85571895D02*
X79318647Y-84771895D01*
X79318647Y-84771895D02*
X79242456Y-84886180D01*
X79242456Y-84886180D02*
X79166266Y-84962371D01*
X79166266Y-84962371D02*
X79090075Y-85000466D01*
X60008867Y-112029504D02*
X59970771Y-112067600D01*
X59970771Y-112067600D02*
X59856486Y-112105695D01*
X59856486Y-112105695D02*
X59780295Y-112105695D01*
X59780295Y-112105695D02*
X59666009Y-112067600D01*
X59666009Y-112067600D02*
X59589819Y-111991409D01*
X59589819Y-111991409D02*
X59551724Y-111915219D01*
X59551724Y-111915219D02*
X59513628Y-111762838D01*
X59513628Y-111762838D02*
X59513628Y-111648552D01*
X59513628Y-111648552D02*
X59551724Y-111496171D01*
X59551724Y-111496171D02*
X59589819Y-111419980D01*
X59589819Y-111419980D02*
X59666009Y-111343790D01*
X59666009Y-111343790D02*
X59780295Y-111305695D01*
X59780295Y-111305695D02*
X59856486Y-111305695D01*
X59856486Y-111305695D02*
X59970771Y-111343790D01*
X59970771Y-111343790D02*
X60008867Y-111381885D01*
X60466009Y-111648552D02*
X60389819Y-111610457D01*
X60389819Y-111610457D02*
X60351724Y-111572361D01*
X60351724Y-111572361D02*
X60313628Y-111496171D01*
X60313628Y-111496171D02*
X60313628Y-111458076D01*
X60313628Y-111458076D02*
X60351724Y-111381885D01*
X60351724Y-111381885D02*
X60389819Y-111343790D01*
X60389819Y-111343790D02*
X60466009Y-111305695D01*
X60466009Y-111305695D02*
X60618390Y-111305695D01*
X60618390Y-111305695D02*
X60694581Y-111343790D01*
X60694581Y-111343790D02*
X60732676Y-111381885D01*
X60732676Y-111381885D02*
X60770771Y-111458076D01*
X60770771Y-111458076D02*
X60770771Y-111496171D01*
X60770771Y-111496171D02*
X60732676Y-111572361D01*
X60732676Y-111572361D02*
X60694581Y-111610457D01*
X60694581Y-111610457D02*
X60618390Y-111648552D01*
X60618390Y-111648552D02*
X60466009Y-111648552D01*
X60466009Y-111648552D02*
X60389819Y-111686647D01*
X60389819Y-111686647D02*
X60351724Y-111724742D01*
X60351724Y-111724742D02*
X60313628Y-111800933D01*
X60313628Y-111800933D02*
X60313628Y-111953314D01*
X60313628Y-111953314D02*
X60351724Y-112029504D01*
X60351724Y-112029504D02*
X60389819Y-112067600D01*
X60389819Y-112067600D02*
X60466009Y-112105695D01*
X60466009Y-112105695D02*
X60618390Y-112105695D01*
X60618390Y-112105695D02*
X60694581Y-112067600D01*
X60694581Y-112067600D02*
X60732676Y-112029504D01*
X60732676Y-112029504D02*
X60770771Y-111953314D01*
X60770771Y-111953314D02*
X60770771Y-111800933D01*
X60770771Y-111800933D02*
X60732676Y-111724742D01*
X60732676Y-111724742D02*
X60694581Y-111686647D01*
X60694581Y-111686647D02*
X60618390Y-111648552D01*
X58789061Y-61071695D02*
X58408109Y-61071695D01*
X58408109Y-61071695D02*
X58408109Y-60271695D01*
X59055728Y-60652647D02*
X59322394Y-60652647D01*
X59436680Y-61071695D02*
X59055728Y-61071695D01*
X59055728Y-61071695D02*
X59055728Y-60271695D01*
X59055728Y-60271695D02*
X59436680Y-60271695D01*
X59741442Y-60347885D02*
X59779538Y-60309790D01*
X59779538Y-60309790D02*
X59855728Y-60271695D01*
X59855728Y-60271695D02*
X60046204Y-60271695D01*
X60046204Y-60271695D02*
X60122395Y-60309790D01*
X60122395Y-60309790D02*
X60160490Y-60347885D01*
X60160490Y-60347885D02*
X60198585Y-60424076D01*
X60198585Y-60424076D02*
X60198585Y-60500266D01*
X60198585Y-60500266D02*
X60160490Y-60614552D01*
X60160490Y-60614552D02*
X59703347Y-61071695D01*
X59703347Y-61071695D02*
X60198585Y-61071695D01*
X60683333Y-76962295D02*
X60683333Y-77533723D01*
X60683333Y-77533723D02*
X60645238Y-77648009D01*
X60645238Y-77648009D02*
X60569047Y-77724200D01*
X60569047Y-77724200D02*
X60454762Y-77762295D01*
X60454762Y-77762295D02*
X60378571Y-77762295D01*
X61064286Y-77762295D02*
X61064286Y-76962295D01*
X61064286Y-76962295D02*
X61369048Y-76962295D01*
X61369048Y-76962295D02*
X61445238Y-77000390D01*
X61445238Y-77000390D02*
X61483333Y-77038485D01*
X61483333Y-77038485D02*
X61521429Y-77114676D01*
X61521429Y-77114676D02*
X61521429Y-77228961D01*
X61521429Y-77228961D02*
X61483333Y-77305152D01*
X61483333Y-77305152D02*
X61445238Y-77343247D01*
X61445238Y-77343247D02*
X61369048Y-77381342D01*
X61369048Y-77381342D02*
X61064286Y-77381342D01*
X62283333Y-77762295D02*
X61826190Y-77762295D01*
X62054762Y-77762295D02*
X62054762Y-76962295D01*
X62054762Y-76962295D02*
X61978571Y-77076580D01*
X61978571Y-77076580D02*
X61902381Y-77152771D01*
X61902381Y-77152771D02*
X61826190Y-77190866D01*
X75337467Y-71171895D02*
X75070800Y-70790942D01*
X74880324Y-71171895D02*
X74880324Y-70371895D01*
X74880324Y-70371895D02*
X75185086Y-70371895D01*
X75185086Y-70371895D02*
X75261276Y-70409990D01*
X75261276Y-70409990D02*
X75299371Y-70448085D01*
X75299371Y-70448085D02*
X75337467Y-70524276D01*
X75337467Y-70524276D02*
X75337467Y-70638561D01*
X75337467Y-70638561D02*
X75299371Y-70714752D01*
X75299371Y-70714752D02*
X75261276Y-70752847D01*
X75261276Y-70752847D02*
X75185086Y-70790942D01*
X75185086Y-70790942D02*
X74880324Y-70790942D01*
X76061276Y-70371895D02*
X75680324Y-70371895D01*
X75680324Y-70371895D02*
X75642228Y-70752847D01*
X75642228Y-70752847D02*
X75680324Y-70714752D01*
X75680324Y-70714752D02*
X75756514Y-70676657D01*
X75756514Y-70676657D02*
X75946990Y-70676657D01*
X75946990Y-70676657D02*
X76023181Y-70714752D01*
X76023181Y-70714752D02*
X76061276Y-70752847D01*
X76061276Y-70752847D02*
X76099371Y-70829038D01*
X76099371Y-70829038D02*
X76099371Y-71019514D01*
X76099371Y-71019514D02*
X76061276Y-71095704D01*
X76061276Y-71095704D02*
X76023181Y-71133800D01*
X76023181Y-71133800D02*
X75946990Y-71171895D01*
X75946990Y-71171895D02*
X75756514Y-71171895D01*
X75756514Y-71171895D02*
X75680324Y-71133800D01*
X75680324Y-71133800D02*
X75642228Y-71095704D01*
X59858867Y-109479504D02*
X59820771Y-109517600D01*
X59820771Y-109517600D02*
X59706486Y-109555695D01*
X59706486Y-109555695D02*
X59630295Y-109555695D01*
X59630295Y-109555695D02*
X59516009Y-109517600D01*
X59516009Y-109517600D02*
X59439819Y-109441409D01*
X59439819Y-109441409D02*
X59401724Y-109365219D01*
X59401724Y-109365219D02*
X59363628Y-109212838D01*
X59363628Y-109212838D02*
X59363628Y-109098552D01*
X59363628Y-109098552D02*
X59401724Y-108946171D01*
X59401724Y-108946171D02*
X59439819Y-108869980D01*
X59439819Y-108869980D02*
X59516009Y-108793790D01*
X59516009Y-108793790D02*
X59630295Y-108755695D01*
X59630295Y-108755695D02*
X59706486Y-108755695D01*
X59706486Y-108755695D02*
X59820771Y-108793790D01*
X59820771Y-108793790D02*
X59858867Y-108831885D01*
X60544581Y-108755695D02*
X60392200Y-108755695D01*
X60392200Y-108755695D02*
X60316009Y-108793790D01*
X60316009Y-108793790D02*
X60277914Y-108831885D01*
X60277914Y-108831885D02*
X60201724Y-108946171D01*
X60201724Y-108946171D02*
X60163628Y-109098552D01*
X60163628Y-109098552D02*
X60163628Y-109403314D01*
X60163628Y-109403314D02*
X60201724Y-109479504D01*
X60201724Y-109479504D02*
X60239819Y-109517600D01*
X60239819Y-109517600D02*
X60316009Y-109555695D01*
X60316009Y-109555695D02*
X60468390Y-109555695D01*
X60468390Y-109555695D02*
X60544581Y-109517600D01*
X60544581Y-109517600D02*
X60582676Y-109479504D01*
X60582676Y-109479504D02*
X60620771Y-109403314D01*
X60620771Y-109403314D02*
X60620771Y-109212838D01*
X60620771Y-109212838D02*
X60582676Y-109136647D01*
X60582676Y-109136647D02*
X60544581Y-109098552D01*
X60544581Y-109098552D02*
X60468390Y-109060457D01*
X60468390Y-109060457D02*
X60316009Y-109060457D01*
X60316009Y-109060457D02*
X60239819Y-109098552D01*
X60239819Y-109098552D02*
X60201724Y-109136647D01*
X60201724Y-109136647D02*
X60163628Y-109212838D01*
X69616161Y-61186895D02*
X69235209Y-61186895D01*
X69235209Y-61186895D02*
X69235209Y-60386895D01*
X69882828Y-60767847D02*
X70149494Y-60767847D01*
X70263780Y-61186895D02*
X69882828Y-61186895D01*
X69882828Y-61186895D02*
X69882828Y-60386895D01*
X69882828Y-60386895D02*
X70263780Y-60386895D01*
X70987590Y-60386895D02*
X70606638Y-60386895D01*
X70606638Y-60386895D02*
X70568542Y-60767847D01*
X70568542Y-60767847D02*
X70606638Y-60729752D01*
X70606638Y-60729752D02*
X70682828Y-60691657D01*
X70682828Y-60691657D02*
X70873304Y-60691657D01*
X70873304Y-60691657D02*
X70949495Y-60729752D01*
X70949495Y-60729752D02*
X70987590Y-60767847D01*
X70987590Y-60767847D02*
X71025685Y-60844038D01*
X71025685Y-60844038D02*
X71025685Y-61034514D01*
X71025685Y-61034514D02*
X70987590Y-61110704D01*
X70987590Y-61110704D02*
X70949495Y-61148800D01*
X70949495Y-61148800D02*
X70873304Y-61186895D01*
X70873304Y-61186895D02*
X70682828Y-61186895D01*
X70682828Y-61186895D02*
X70606638Y-61148800D01*
X70606638Y-61148800D02*
X70568542Y-61110704D01*
X41185314Y-144245704D02*
X41147218Y-144283800D01*
X41147218Y-144283800D02*
X41032933Y-144321895D01*
X41032933Y-144321895D02*
X40956742Y-144321895D01*
X40956742Y-144321895D02*
X40842456Y-144283800D01*
X40842456Y-144283800D02*
X40766266Y-144207609D01*
X40766266Y-144207609D02*
X40728171Y-144131419D01*
X40728171Y-144131419D02*
X40690075Y-143979038D01*
X40690075Y-143979038D02*
X40690075Y-143864752D01*
X40690075Y-143864752D02*
X40728171Y-143712371D01*
X40728171Y-143712371D02*
X40766266Y-143636180D01*
X40766266Y-143636180D02*
X40842456Y-143559990D01*
X40842456Y-143559990D02*
X40956742Y-143521895D01*
X40956742Y-143521895D02*
X41032933Y-143521895D01*
X41032933Y-143521895D02*
X41147218Y-143559990D01*
X41147218Y-143559990D02*
X41185314Y-143598085D01*
X41947218Y-144321895D02*
X41490075Y-144321895D01*
X41718647Y-144321895D02*
X41718647Y-143521895D01*
X41718647Y-143521895D02*
X41642456Y-143636180D01*
X41642456Y-143636180D02*
X41566266Y-143712371D01*
X41566266Y-143712371D02*
X41490075Y-143750466D01*
X42213885Y-143521895D02*
X42709123Y-143521895D01*
X42709123Y-143521895D02*
X42442457Y-143826657D01*
X42442457Y-143826657D02*
X42556742Y-143826657D01*
X42556742Y-143826657D02*
X42632933Y-143864752D01*
X42632933Y-143864752D02*
X42671028Y-143902847D01*
X42671028Y-143902847D02*
X42709123Y-143979038D01*
X42709123Y-143979038D02*
X42709123Y-144169514D01*
X42709123Y-144169514D02*
X42671028Y-144245704D01*
X42671028Y-144245704D02*
X42632933Y-144283800D01*
X42632933Y-144283800D02*
X42556742Y-144321895D01*
X42556742Y-144321895D02*
X42328171Y-144321895D01*
X42328171Y-144321895D02*
X42251980Y-144283800D01*
X42251980Y-144283800D02*
X42213885Y-144245704D01*
X85401033Y-97727295D02*
X85401033Y-98298723D01*
X85401033Y-98298723D02*
X85362938Y-98413009D01*
X85362938Y-98413009D02*
X85286747Y-98489200D01*
X85286747Y-98489200D02*
X85172462Y-98527295D01*
X85172462Y-98527295D02*
X85096271Y-98527295D01*
X85781986Y-98527295D02*
X85781986Y-97727295D01*
X85781986Y-97727295D02*
X86086748Y-97727295D01*
X86086748Y-97727295D02*
X86162938Y-97765390D01*
X86162938Y-97765390D02*
X86201033Y-97803485D01*
X86201033Y-97803485D02*
X86239129Y-97879676D01*
X86239129Y-97879676D02*
X86239129Y-97993961D01*
X86239129Y-97993961D02*
X86201033Y-98070152D01*
X86201033Y-98070152D02*
X86162938Y-98108247D01*
X86162938Y-98108247D02*
X86086748Y-98146342D01*
X86086748Y-98146342D02*
X85781986Y-98146342D01*
X86505795Y-97727295D02*
X87001033Y-97727295D01*
X87001033Y-97727295D02*
X86734367Y-98032057D01*
X86734367Y-98032057D02*
X86848652Y-98032057D01*
X86848652Y-98032057D02*
X86924843Y-98070152D01*
X86924843Y-98070152D02*
X86962938Y-98108247D01*
X86962938Y-98108247D02*
X87001033Y-98184438D01*
X87001033Y-98184438D02*
X87001033Y-98374914D01*
X87001033Y-98374914D02*
X86962938Y-98451104D01*
X86962938Y-98451104D02*
X86924843Y-98489200D01*
X86924843Y-98489200D02*
X86848652Y-98527295D01*
X86848652Y-98527295D02*
X86620081Y-98527295D01*
X86620081Y-98527295D02*
X86543890Y-98489200D01*
X86543890Y-98489200D02*
X86505795Y-98451104D01*
X57185714Y-71512295D02*
X56919047Y-71131342D01*
X56728571Y-71512295D02*
X56728571Y-70712295D01*
X56728571Y-70712295D02*
X57033333Y-70712295D01*
X57033333Y-70712295D02*
X57109523Y-70750390D01*
X57109523Y-70750390D02*
X57147618Y-70788485D01*
X57147618Y-70788485D02*
X57185714Y-70864676D01*
X57185714Y-70864676D02*
X57185714Y-70978961D01*
X57185714Y-70978961D02*
X57147618Y-71055152D01*
X57147618Y-71055152D02*
X57109523Y-71093247D01*
X57109523Y-71093247D02*
X57033333Y-71131342D01*
X57033333Y-71131342D02*
X56728571Y-71131342D01*
X57490475Y-70788485D02*
X57528571Y-70750390D01*
X57528571Y-70750390D02*
X57604761Y-70712295D01*
X57604761Y-70712295D02*
X57795237Y-70712295D01*
X57795237Y-70712295D02*
X57871428Y-70750390D01*
X57871428Y-70750390D02*
X57909523Y-70788485D01*
X57909523Y-70788485D02*
X57947618Y-70864676D01*
X57947618Y-70864676D02*
X57947618Y-70940866D01*
X57947618Y-70940866D02*
X57909523Y-71055152D01*
X57909523Y-71055152D02*
X57452380Y-71512295D01*
X57452380Y-71512295D02*
X57947618Y-71512295D01*
X58328571Y-71512295D02*
X58480952Y-71512295D01*
X58480952Y-71512295D02*
X58557142Y-71474200D01*
X58557142Y-71474200D02*
X58595238Y-71436104D01*
X58595238Y-71436104D02*
X58671428Y-71321819D01*
X58671428Y-71321819D02*
X58709523Y-71169438D01*
X58709523Y-71169438D02*
X58709523Y-70864676D01*
X58709523Y-70864676D02*
X58671428Y-70788485D01*
X58671428Y-70788485D02*
X58633333Y-70750390D01*
X58633333Y-70750390D02*
X58557142Y-70712295D01*
X58557142Y-70712295D02*
X58404761Y-70712295D01*
X58404761Y-70712295D02*
X58328571Y-70750390D01*
X58328571Y-70750390D02*
X58290476Y-70788485D01*
X58290476Y-70788485D02*
X58252380Y-70864676D01*
X58252380Y-70864676D02*
X58252380Y-71055152D01*
X58252380Y-71055152D02*
X58290476Y-71131342D01*
X58290476Y-71131342D02*
X58328571Y-71169438D01*
X58328571Y-71169438D02*
X58404761Y-71207533D01*
X58404761Y-71207533D02*
X58557142Y-71207533D01*
X58557142Y-71207533D02*
X58633333Y-71169438D01*
X58633333Y-71169438D02*
X58671428Y-71131342D01*
X58671428Y-71131342D02*
X58709523Y-71055152D01*
X84885314Y-82021895D02*
X84618647Y-81640942D01*
X84428171Y-82021895D02*
X84428171Y-81221895D01*
X84428171Y-81221895D02*
X84732933Y-81221895D01*
X84732933Y-81221895D02*
X84809123Y-81259990D01*
X84809123Y-81259990D02*
X84847218Y-81298085D01*
X84847218Y-81298085D02*
X84885314Y-81374276D01*
X84885314Y-81374276D02*
X84885314Y-81488561D01*
X84885314Y-81488561D02*
X84847218Y-81564752D01*
X84847218Y-81564752D02*
X84809123Y-81602847D01*
X84809123Y-81602847D02*
X84732933Y-81640942D01*
X84732933Y-81640942D02*
X84428171Y-81640942D01*
X85647218Y-82021895D02*
X85190075Y-82021895D01*
X85418647Y-82021895D02*
X85418647Y-81221895D01*
X85418647Y-81221895D02*
X85342456Y-81336180D01*
X85342456Y-81336180D02*
X85266266Y-81412371D01*
X85266266Y-81412371D02*
X85190075Y-81450466D01*
X85913885Y-81221895D02*
X86409123Y-81221895D01*
X86409123Y-81221895D02*
X86142457Y-81526657D01*
X86142457Y-81526657D02*
X86256742Y-81526657D01*
X86256742Y-81526657D02*
X86332933Y-81564752D01*
X86332933Y-81564752D02*
X86371028Y-81602847D01*
X86371028Y-81602847D02*
X86409123Y-81679038D01*
X86409123Y-81679038D02*
X86409123Y-81869514D01*
X86409123Y-81869514D02*
X86371028Y-81945704D01*
X86371028Y-81945704D02*
X86332933Y-81983800D01*
X86332933Y-81983800D02*
X86256742Y-82021895D01*
X86256742Y-82021895D02*
X86028171Y-82021895D01*
X86028171Y-82021895D02*
X85951980Y-81983800D01*
X85951980Y-81983800D02*
X85913885Y-81945704D01*
X79807914Y-124458295D02*
X79541247Y-124077342D01*
X79350771Y-124458295D02*
X79350771Y-123658295D01*
X79350771Y-123658295D02*
X79655533Y-123658295D01*
X79655533Y-123658295D02*
X79731723Y-123696390D01*
X79731723Y-123696390D02*
X79769818Y-123734485D01*
X79769818Y-123734485D02*
X79807914Y-123810676D01*
X79807914Y-123810676D02*
X79807914Y-123924961D01*
X79807914Y-123924961D02*
X79769818Y-124001152D01*
X79769818Y-124001152D02*
X79731723Y-124039247D01*
X79731723Y-124039247D02*
X79655533Y-124077342D01*
X79655533Y-124077342D02*
X79350771Y-124077342D01*
X80112675Y-123734485D02*
X80150771Y-123696390D01*
X80150771Y-123696390D02*
X80226961Y-123658295D01*
X80226961Y-123658295D02*
X80417437Y-123658295D01*
X80417437Y-123658295D02*
X80493628Y-123696390D01*
X80493628Y-123696390D02*
X80531723Y-123734485D01*
X80531723Y-123734485D02*
X80569818Y-123810676D01*
X80569818Y-123810676D02*
X80569818Y-123886866D01*
X80569818Y-123886866D02*
X80531723Y-124001152D01*
X80531723Y-124001152D02*
X80074580Y-124458295D01*
X80074580Y-124458295D02*
X80569818Y-124458295D01*
X81065057Y-123658295D02*
X81141247Y-123658295D01*
X81141247Y-123658295D02*
X81217438Y-123696390D01*
X81217438Y-123696390D02*
X81255533Y-123734485D01*
X81255533Y-123734485D02*
X81293628Y-123810676D01*
X81293628Y-123810676D02*
X81331723Y-123963057D01*
X81331723Y-123963057D02*
X81331723Y-124153533D01*
X81331723Y-124153533D02*
X81293628Y-124305914D01*
X81293628Y-124305914D02*
X81255533Y-124382104D01*
X81255533Y-124382104D02*
X81217438Y-124420200D01*
X81217438Y-124420200D02*
X81141247Y-124458295D01*
X81141247Y-124458295D02*
X81065057Y-124458295D01*
X81065057Y-124458295D02*
X80988866Y-124420200D01*
X80988866Y-124420200D02*
X80950771Y-124382104D01*
X80950771Y-124382104D02*
X80912676Y-124305914D01*
X80912676Y-124305914D02*
X80874580Y-124153533D01*
X80874580Y-124153533D02*
X80874580Y-123963057D01*
X80874580Y-123963057D02*
X80912676Y-123810676D01*
X80912676Y-123810676D02*
X80950771Y-123734485D01*
X80950771Y-123734485D02*
X80988866Y-123696390D01*
X80988866Y-123696390D02*
X81065057Y-123658295D01*
X52382676Y-129705695D02*
X52382676Y-130353314D01*
X52382676Y-130353314D02*
X52420771Y-130429504D01*
X52420771Y-130429504D02*
X52458866Y-130467600D01*
X52458866Y-130467600D02*
X52535057Y-130505695D01*
X52535057Y-130505695D02*
X52687438Y-130505695D01*
X52687438Y-130505695D02*
X52763628Y-130467600D01*
X52763628Y-130467600D02*
X52801723Y-130429504D01*
X52801723Y-130429504D02*
X52839819Y-130353314D01*
X52839819Y-130353314D02*
X52839819Y-129705695D01*
X53601723Y-129705695D02*
X53220771Y-129705695D01*
X53220771Y-129705695D02*
X53182675Y-130086647D01*
X53182675Y-130086647D02*
X53220771Y-130048552D01*
X53220771Y-130048552D02*
X53296961Y-130010457D01*
X53296961Y-130010457D02*
X53487437Y-130010457D01*
X53487437Y-130010457D02*
X53563628Y-130048552D01*
X53563628Y-130048552D02*
X53601723Y-130086647D01*
X53601723Y-130086647D02*
X53639818Y-130162838D01*
X53639818Y-130162838D02*
X53639818Y-130353314D01*
X53639818Y-130353314D02*
X53601723Y-130429504D01*
X53601723Y-130429504D02*
X53563628Y-130467600D01*
X53563628Y-130467600D02*
X53487437Y-130505695D01*
X53487437Y-130505695D02*
X53296961Y-130505695D01*
X53296961Y-130505695D02*
X53220771Y-130467600D01*
X53220771Y-130467600D02*
X53182675Y-130429504D01*
X72566695Y-63807732D02*
X72185742Y-64074399D01*
X72566695Y-64264875D02*
X71766695Y-64264875D01*
X71766695Y-64264875D02*
X71766695Y-63960113D01*
X71766695Y-63960113D02*
X71804790Y-63883923D01*
X71804790Y-63883923D02*
X71842885Y-63845828D01*
X71842885Y-63845828D02*
X71919076Y-63807732D01*
X71919076Y-63807732D02*
X72033361Y-63807732D01*
X72033361Y-63807732D02*
X72109552Y-63845828D01*
X72109552Y-63845828D02*
X72147647Y-63883923D01*
X72147647Y-63883923D02*
X72185742Y-63960113D01*
X72185742Y-63960113D02*
X72185742Y-64264875D01*
X72033361Y-63122018D02*
X72566695Y-63122018D01*
X71728600Y-63312494D02*
X72300028Y-63502971D01*
X72300028Y-63502971D02*
X72300028Y-63007732D01*
X68032933Y-70552847D02*
X67766267Y-70552847D01*
X67766267Y-70971895D02*
X67766267Y-70171895D01*
X67766267Y-70171895D02*
X68147219Y-70171895D01*
X68413885Y-70248085D02*
X68451981Y-70209990D01*
X68451981Y-70209990D02*
X68528171Y-70171895D01*
X68528171Y-70171895D02*
X68718647Y-70171895D01*
X68718647Y-70171895D02*
X68794838Y-70209990D01*
X68794838Y-70209990D02*
X68832933Y-70248085D01*
X68832933Y-70248085D02*
X68871028Y-70324276D01*
X68871028Y-70324276D02*
X68871028Y-70400466D01*
X68871028Y-70400466D02*
X68832933Y-70514752D01*
X68832933Y-70514752D02*
X68375790Y-70971895D01*
X68375790Y-70971895D02*
X68871028Y-70971895D01*
X85576833Y-95552495D02*
X85576833Y-96123923D01*
X85576833Y-96123923D02*
X85538738Y-96238209D01*
X85538738Y-96238209D02*
X85462547Y-96314400D01*
X85462547Y-96314400D02*
X85348262Y-96352495D01*
X85348262Y-96352495D02*
X85272071Y-96352495D01*
X85957786Y-96352495D02*
X85957786Y-95552495D01*
X85957786Y-95552495D02*
X86262548Y-95552495D01*
X86262548Y-95552495D02*
X86338738Y-95590590D01*
X86338738Y-95590590D02*
X86376833Y-95628685D01*
X86376833Y-95628685D02*
X86414929Y-95704876D01*
X86414929Y-95704876D02*
X86414929Y-95819161D01*
X86414929Y-95819161D02*
X86376833Y-95895352D01*
X86376833Y-95895352D02*
X86338738Y-95933447D01*
X86338738Y-95933447D02*
X86262548Y-95971542D01*
X86262548Y-95971542D02*
X85957786Y-95971542D01*
X87100643Y-95819161D02*
X87100643Y-96352495D01*
X86910167Y-95514400D02*
X86719690Y-96085828D01*
X86719690Y-96085828D02*
X87214929Y-96085828D01*
X42927114Y-125880695D02*
X42660447Y-125499742D01*
X42469971Y-125880695D02*
X42469971Y-125080695D01*
X42469971Y-125080695D02*
X42774733Y-125080695D01*
X42774733Y-125080695D02*
X42850923Y-125118790D01*
X42850923Y-125118790D02*
X42889018Y-125156885D01*
X42889018Y-125156885D02*
X42927114Y-125233076D01*
X42927114Y-125233076D02*
X42927114Y-125347361D01*
X42927114Y-125347361D02*
X42889018Y-125423552D01*
X42889018Y-125423552D02*
X42850923Y-125461647D01*
X42850923Y-125461647D02*
X42774733Y-125499742D01*
X42774733Y-125499742D02*
X42469971Y-125499742D01*
X43231875Y-125156885D02*
X43269971Y-125118790D01*
X43269971Y-125118790D02*
X43346161Y-125080695D01*
X43346161Y-125080695D02*
X43536637Y-125080695D01*
X43536637Y-125080695D02*
X43612828Y-125118790D01*
X43612828Y-125118790D02*
X43650923Y-125156885D01*
X43650923Y-125156885D02*
X43689018Y-125233076D01*
X43689018Y-125233076D02*
X43689018Y-125309266D01*
X43689018Y-125309266D02*
X43650923Y-125423552D01*
X43650923Y-125423552D02*
X43193780Y-125880695D01*
X43193780Y-125880695D02*
X43689018Y-125880695D01*
X44450923Y-125880695D02*
X43993780Y-125880695D01*
X44222352Y-125880695D02*
X44222352Y-125080695D01*
X44222352Y-125080695D02*
X44146161Y-125194980D01*
X44146161Y-125194980D02*
X44069971Y-125271171D01*
X44069971Y-125271171D02*
X43993780Y-125309266D01*
X62915449Y-136509504D02*
X62877353Y-136547600D01*
X62877353Y-136547600D02*
X62763068Y-136585695D01*
X62763068Y-136585695D02*
X62686877Y-136585695D01*
X62686877Y-136585695D02*
X62572591Y-136547600D01*
X62572591Y-136547600D02*
X62496401Y-136471409D01*
X62496401Y-136471409D02*
X62458306Y-136395219D01*
X62458306Y-136395219D02*
X62420210Y-136242838D01*
X62420210Y-136242838D02*
X62420210Y-136128552D01*
X62420210Y-136128552D02*
X62458306Y-135976171D01*
X62458306Y-135976171D02*
X62496401Y-135899980D01*
X62496401Y-135899980D02*
X62572591Y-135823790D01*
X62572591Y-135823790D02*
X62686877Y-135785695D01*
X62686877Y-135785695D02*
X62763068Y-135785695D01*
X62763068Y-135785695D02*
X62877353Y-135823790D01*
X62877353Y-135823790D02*
X62915449Y-135861885D01*
X63677353Y-136585695D02*
X63220210Y-136585695D01*
X63448782Y-136585695D02*
X63448782Y-135785695D01*
X63448782Y-135785695D02*
X63372591Y-135899980D01*
X63372591Y-135899980D02*
X63296401Y-135976171D01*
X63296401Y-135976171D02*
X63220210Y-136014266D01*
X64363068Y-135785695D02*
X64210687Y-135785695D01*
X64210687Y-135785695D02*
X64134496Y-135823790D01*
X64134496Y-135823790D02*
X64096401Y-135861885D01*
X64096401Y-135861885D02*
X64020211Y-135976171D01*
X64020211Y-135976171D02*
X63982115Y-136128552D01*
X63982115Y-136128552D02*
X63982115Y-136433314D01*
X63982115Y-136433314D02*
X64020211Y-136509504D01*
X64020211Y-136509504D02*
X64058306Y-136547600D01*
X64058306Y-136547600D02*
X64134496Y-136585695D01*
X64134496Y-136585695D02*
X64286877Y-136585695D01*
X64286877Y-136585695D02*
X64363068Y-136547600D01*
X64363068Y-136547600D02*
X64401163Y-136509504D01*
X64401163Y-136509504D02*
X64439258Y-136433314D01*
X64439258Y-136433314D02*
X64439258Y-136242838D01*
X64439258Y-136242838D02*
X64401163Y-136166647D01*
X64401163Y-136166647D02*
X64363068Y-136128552D01*
X64363068Y-136128552D02*
X64286877Y-136090457D01*
X64286877Y-136090457D02*
X64134496Y-136090457D01*
X64134496Y-136090457D02*
X64058306Y-136128552D01*
X64058306Y-136128552D02*
X64020211Y-136166647D01*
X64020211Y-136166647D02*
X63982115Y-136242838D01*
X42088867Y-111275704D02*
X42050771Y-111313800D01*
X42050771Y-111313800D02*
X41936486Y-111351895D01*
X41936486Y-111351895D02*
X41860295Y-111351895D01*
X41860295Y-111351895D02*
X41746009Y-111313800D01*
X41746009Y-111313800D02*
X41669819Y-111237609D01*
X41669819Y-111237609D02*
X41631724Y-111161419D01*
X41631724Y-111161419D02*
X41593628Y-111009038D01*
X41593628Y-111009038D02*
X41593628Y-110894752D01*
X41593628Y-110894752D02*
X41631724Y-110742371D01*
X41631724Y-110742371D02*
X41669819Y-110666180D01*
X41669819Y-110666180D02*
X41746009Y-110589990D01*
X41746009Y-110589990D02*
X41860295Y-110551895D01*
X41860295Y-110551895D02*
X41936486Y-110551895D01*
X41936486Y-110551895D02*
X42050771Y-110589990D01*
X42050771Y-110589990D02*
X42088867Y-110628085D01*
X42774581Y-110818561D02*
X42774581Y-111351895D01*
X42584105Y-110513800D02*
X42393628Y-111085228D01*
X42393628Y-111085228D02*
X42888867Y-111085228D01*
X75704419Y-144469123D02*
X76418704Y-144469123D01*
X76418704Y-144469123D02*
X76561561Y-144516742D01*
X76561561Y-144516742D02*
X76656800Y-144611980D01*
X76656800Y-144611980D02*
X76704419Y-144754837D01*
X76704419Y-144754837D02*
X76704419Y-144850075D01*
X76704419Y-143469123D02*
X76704419Y-144040551D01*
X76704419Y-143754837D02*
X75704419Y-143754837D01*
X75704419Y-143754837D02*
X75847276Y-143850075D01*
X75847276Y-143850075D02*
X75942514Y-143945313D01*
X75942514Y-143945313D02*
X75990133Y-144040551D01*
X76037752Y-142611980D02*
X76704419Y-142611980D01*
X75656800Y-142850075D02*
X76371085Y-143088170D01*
X76371085Y-143088170D02*
X76371085Y-142469123D01*
X84352466Y-136746219D02*
X84352466Y-137460504D01*
X84352466Y-137460504D02*
X84304847Y-137603361D01*
X84304847Y-137603361D02*
X84209609Y-137698600D01*
X84209609Y-137698600D02*
X84066752Y-137746219D01*
X84066752Y-137746219D02*
X83971514Y-137746219D01*
X85257228Y-137079552D02*
X85257228Y-137746219D01*
X85019133Y-136698600D02*
X84781038Y-137412885D01*
X84781038Y-137412885D02*
X85400085Y-137412885D01*
X81685314Y-71221895D02*
X81418647Y-70840942D01*
X81228171Y-71221895D02*
X81228171Y-70421895D01*
X81228171Y-70421895D02*
X81532933Y-70421895D01*
X81532933Y-70421895D02*
X81609123Y-70459990D01*
X81609123Y-70459990D02*
X81647218Y-70498085D01*
X81647218Y-70498085D02*
X81685314Y-70574276D01*
X81685314Y-70574276D02*
X81685314Y-70688561D01*
X81685314Y-70688561D02*
X81647218Y-70764752D01*
X81647218Y-70764752D02*
X81609123Y-70802847D01*
X81609123Y-70802847D02*
X81532933Y-70840942D01*
X81532933Y-70840942D02*
X81228171Y-70840942D01*
X82447218Y-71221895D02*
X81990075Y-71221895D01*
X82218647Y-71221895D02*
X82218647Y-70421895D01*
X82218647Y-70421895D02*
X82142456Y-70536180D01*
X82142456Y-70536180D02*
X82066266Y-70612371D01*
X82066266Y-70612371D02*
X81990075Y-70650466D01*
X82942457Y-70421895D02*
X83018647Y-70421895D01*
X83018647Y-70421895D02*
X83094838Y-70459990D01*
X83094838Y-70459990D02*
X83132933Y-70498085D01*
X83132933Y-70498085D02*
X83171028Y-70574276D01*
X83171028Y-70574276D02*
X83209123Y-70726657D01*
X83209123Y-70726657D02*
X83209123Y-70917133D01*
X83209123Y-70917133D02*
X83171028Y-71069514D01*
X83171028Y-71069514D02*
X83132933Y-71145704D01*
X83132933Y-71145704D02*
X83094838Y-71183800D01*
X83094838Y-71183800D02*
X83018647Y-71221895D01*
X83018647Y-71221895D02*
X82942457Y-71221895D01*
X82942457Y-71221895D02*
X82866266Y-71183800D01*
X82866266Y-71183800D02*
X82828171Y-71145704D01*
X82828171Y-71145704D02*
X82790076Y-71069514D01*
X82790076Y-71069514D02*
X82751980Y-70917133D01*
X82751980Y-70917133D02*
X82751980Y-70726657D01*
X82751980Y-70726657D02*
X82790076Y-70574276D01*
X82790076Y-70574276D02*
X82828171Y-70498085D01*
X82828171Y-70498085D02*
X82866266Y-70459990D01*
X82866266Y-70459990D02*
X82942457Y-70421895D01*
X88736295Y-110386285D02*
X88355342Y-110652952D01*
X88736295Y-110843428D02*
X87936295Y-110843428D01*
X87936295Y-110843428D02*
X87936295Y-110538666D01*
X87936295Y-110538666D02*
X87974390Y-110462476D01*
X87974390Y-110462476D02*
X88012485Y-110424381D01*
X88012485Y-110424381D02*
X88088676Y-110386285D01*
X88088676Y-110386285D02*
X88202961Y-110386285D01*
X88202961Y-110386285D02*
X88279152Y-110424381D01*
X88279152Y-110424381D02*
X88317247Y-110462476D01*
X88317247Y-110462476D02*
X88355342Y-110538666D01*
X88355342Y-110538666D02*
X88355342Y-110843428D01*
X88012485Y-110081524D02*
X87974390Y-110043428D01*
X87974390Y-110043428D02*
X87936295Y-109967238D01*
X87936295Y-109967238D02*
X87936295Y-109776762D01*
X87936295Y-109776762D02*
X87974390Y-109700571D01*
X87974390Y-109700571D02*
X88012485Y-109662476D01*
X88012485Y-109662476D02*
X88088676Y-109624381D01*
X88088676Y-109624381D02*
X88164866Y-109624381D01*
X88164866Y-109624381D02*
X88279152Y-109662476D01*
X88279152Y-109662476D02*
X88736295Y-110119619D01*
X88736295Y-110119619D02*
X88736295Y-109624381D01*
X88279152Y-109167238D02*
X88241057Y-109243428D01*
X88241057Y-109243428D02*
X88202961Y-109281523D01*
X88202961Y-109281523D02*
X88126771Y-109319619D01*
X88126771Y-109319619D02*
X88088676Y-109319619D01*
X88088676Y-109319619D02*
X88012485Y-109281523D01*
X88012485Y-109281523D02*
X87974390Y-109243428D01*
X87974390Y-109243428D02*
X87936295Y-109167238D01*
X87936295Y-109167238D02*
X87936295Y-109014857D01*
X87936295Y-109014857D02*
X87974390Y-108938666D01*
X87974390Y-108938666D02*
X88012485Y-108900571D01*
X88012485Y-108900571D02*
X88088676Y-108862476D01*
X88088676Y-108862476D02*
X88126771Y-108862476D01*
X88126771Y-108862476D02*
X88202961Y-108900571D01*
X88202961Y-108900571D02*
X88241057Y-108938666D01*
X88241057Y-108938666D02*
X88279152Y-109014857D01*
X88279152Y-109014857D02*
X88279152Y-109167238D01*
X88279152Y-109167238D02*
X88317247Y-109243428D01*
X88317247Y-109243428D02*
X88355342Y-109281523D01*
X88355342Y-109281523D02*
X88431533Y-109319619D01*
X88431533Y-109319619D02*
X88583914Y-109319619D01*
X88583914Y-109319619D02*
X88660104Y-109281523D01*
X88660104Y-109281523D02*
X88698200Y-109243428D01*
X88698200Y-109243428D02*
X88736295Y-109167238D01*
X88736295Y-109167238D02*
X88736295Y-109014857D01*
X88736295Y-109014857D02*
X88698200Y-108938666D01*
X88698200Y-108938666D02*
X88660104Y-108900571D01*
X88660104Y-108900571D02*
X88583914Y-108862476D01*
X88583914Y-108862476D02*
X88431533Y-108862476D01*
X88431533Y-108862476D02*
X88355342Y-108900571D01*
X88355342Y-108900571D02*
X88317247Y-108938666D01*
X88317247Y-108938666D02*
X88279152Y-109014857D01*
X80666866Y-136772819D02*
X80666866Y-137487104D01*
X80666866Y-137487104D02*
X80619247Y-137629961D01*
X80619247Y-137629961D02*
X80524009Y-137725200D01*
X80524009Y-137725200D02*
X80381152Y-137772819D01*
X80381152Y-137772819D02*
X80285914Y-137772819D01*
X81285914Y-137201390D02*
X81190676Y-137153771D01*
X81190676Y-137153771D02*
X81143057Y-137106152D01*
X81143057Y-137106152D02*
X81095438Y-137010914D01*
X81095438Y-137010914D02*
X81095438Y-136963295D01*
X81095438Y-136963295D02*
X81143057Y-136868057D01*
X81143057Y-136868057D02*
X81190676Y-136820438D01*
X81190676Y-136820438D02*
X81285914Y-136772819D01*
X81285914Y-136772819D02*
X81476390Y-136772819D01*
X81476390Y-136772819D02*
X81571628Y-136820438D01*
X81571628Y-136820438D02*
X81619247Y-136868057D01*
X81619247Y-136868057D02*
X81666866Y-136963295D01*
X81666866Y-136963295D02*
X81666866Y-137010914D01*
X81666866Y-137010914D02*
X81619247Y-137106152D01*
X81619247Y-137106152D02*
X81571628Y-137153771D01*
X81571628Y-137153771D02*
X81476390Y-137201390D01*
X81476390Y-137201390D02*
X81285914Y-137201390D01*
X81285914Y-137201390D02*
X81190676Y-137249009D01*
X81190676Y-137249009D02*
X81143057Y-137296628D01*
X81143057Y-137296628D02*
X81095438Y-137391866D01*
X81095438Y-137391866D02*
X81095438Y-137582342D01*
X81095438Y-137582342D02*
X81143057Y-137677580D01*
X81143057Y-137677580D02*
X81190676Y-137725200D01*
X81190676Y-137725200D02*
X81285914Y-137772819D01*
X81285914Y-137772819D02*
X81476390Y-137772819D01*
X81476390Y-137772819D02*
X81571628Y-137725200D01*
X81571628Y-137725200D02*
X81619247Y-137677580D01*
X81619247Y-137677580D02*
X81666866Y-137582342D01*
X81666866Y-137582342D02*
X81666866Y-137391866D01*
X81666866Y-137391866D02*
X81619247Y-137296628D01*
X81619247Y-137296628D02*
X81571628Y-137249009D01*
X81571628Y-137249009D02*
X81476390Y-137201390D01*
X85475233Y-99768895D02*
X85475233Y-100340323D01*
X85475233Y-100340323D02*
X85437138Y-100454609D01*
X85437138Y-100454609D02*
X85360947Y-100530800D01*
X85360947Y-100530800D02*
X85246662Y-100568895D01*
X85246662Y-100568895D02*
X85170471Y-100568895D01*
X85856186Y-100568895D02*
X85856186Y-99768895D01*
X85856186Y-99768895D02*
X86160948Y-99768895D01*
X86160948Y-99768895D02*
X86237138Y-99806990D01*
X86237138Y-99806990D02*
X86275233Y-99845085D01*
X86275233Y-99845085D02*
X86313329Y-99921276D01*
X86313329Y-99921276D02*
X86313329Y-100035561D01*
X86313329Y-100035561D02*
X86275233Y-100111752D01*
X86275233Y-100111752D02*
X86237138Y-100149847D01*
X86237138Y-100149847D02*
X86160948Y-100187942D01*
X86160948Y-100187942D02*
X85856186Y-100187942D01*
X86618090Y-99845085D02*
X86656186Y-99806990D01*
X86656186Y-99806990D02*
X86732376Y-99768895D01*
X86732376Y-99768895D02*
X86922852Y-99768895D01*
X86922852Y-99768895D02*
X86999043Y-99806990D01*
X86999043Y-99806990D02*
X87037138Y-99845085D01*
X87037138Y-99845085D02*
X87075233Y-99921276D01*
X87075233Y-99921276D02*
X87075233Y-99997466D01*
X87075233Y-99997466D02*
X87037138Y-100111752D01*
X87037138Y-100111752D02*
X86579995Y-100568895D01*
X86579995Y-100568895D02*
X87075233Y-100568895D01*
X47062173Y-98011666D02*
X46681220Y-98278333D01*
X47062173Y-98468809D02*
X46262173Y-98468809D01*
X46262173Y-98468809D02*
X46262173Y-98164047D01*
X46262173Y-98164047D02*
X46300268Y-98087857D01*
X46300268Y-98087857D02*
X46338363Y-98049762D01*
X46338363Y-98049762D02*
X46414554Y-98011666D01*
X46414554Y-98011666D02*
X46528839Y-98011666D01*
X46528839Y-98011666D02*
X46605030Y-98049762D01*
X46605030Y-98049762D02*
X46643125Y-98087857D01*
X46643125Y-98087857D02*
X46681220Y-98164047D01*
X46681220Y-98164047D02*
X46681220Y-98468809D01*
X46643125Y-97668809D02*
X46643125Y-97402143D01*
X47062173Y-97287857D02*
X47062173Y-97668809D01*
X47062173Y-97668809D02*
X46262173Y-97668809D01*
X46262173Y-97668809D02*
X46262173Y-97287857D01*
X46643125Y-96678333D02*
X46643125Y-96944999D01*
X47062173Y-96944999D02*
X46262173Y-96944999D01*
X46262173Y-96944999D02*
X46262173Y-96564047D01*
X46262173Y-96145000D02*
X46452649Y-96145000D01*
X46376458Y-96335476D02*
X46452649Y-96145000D01*
X46452649Y-96145000D02*
X46376458Y-95954523D01*
X46605030Y-96259285D02*
X46452649Y-96145000D01*
X46452649Y-96145000D02*
X46605030Y-96030714D01*
X46262173Y-95535476D02*
X46452649Y-95535476D01*
X46376458Y-95725952D02*
X46452649Y-95535476D01*
X46452649Y-95535476D02*
X46376458Y-95344999D01*
X46605030Y-95649761D02*
X46452649Y-95535476D01*
X46452649Y-95535476D02*
X46605030Y-95421190D01*
X52180411Y-105867761D02*
X52180411Y-105258238D01*
X52485173Y-105562999D02*
X51875649Y-105562999D01*
X82362295Y-108564285D02*
X81981342Y-108830952D01*
X82362295Y-109021428D02*
X81562295Y-109021428D01*
X81562295Y-109021428D02*
X81562295Y-108716666D01*
X81562295Y-108716666D02*
X81600390Y-108640476D01*
X81600390Y-108640476D02*
X81638485Y-108602381D01*
X81638485Y-108602381D02*
X81714676Y-108564285D01*
X81714676Y-108564285D02*
X81828961Y-108564285D01*
X81828961Y-108564285D02*
X81905152Y-108602381D01*
X81905152Y-108602381D02*
X81943247Y-108640476D01*
X81943247Y-108640476D02*
X81981342Y-108716666D01*
X81981342Y-108716666D02*
X81981342Y-109021428D01*
X81638485Y-108259524D02*
X81600390Y-108221428D01*
X81600390Y-108221428D02*
X81562295Y-108145238D01*
X81562295Y-108145238D02*
X81562295Y-107954762D01*
X81562295Y-107954762D02*
X81600390Y-107878571D01*
X81600390Y-107878571D02*
X81638485Y-107840476D01*
X81638485Y-107840476D02*
X81714676Y-107802381D01*
X81714676Y-107802381D02*
X81790866Y-107802381D01*
X81790866Y-107802381D02*
X81905152Y-107840476D01*
X81905152Y-107840476D02*
X82362295Y-108297619D01*
X82362295Y-108297619D02*
X82362295Y-107802381D01*
X81562295Y-107078571D02*
X81562295Y-107459523D01*
X81562295Y-107459523D02*
X81943247Y-107497619D01*
X81943247Y-107497619D02*
X81905152Y-107459523D01*
X81905152Y-107459523D02*
X81867057Y-107383333D01*
X81867057Y-107383333D02*
X81867057Y-107192857D01*
X81867057Y-107192857D02*
X81905152Y-107116666D01*
X81905152Y-107116666D02*
X81943247Y-107078571D01*
X81943247Y-107078571D02*
X82019438Y-107040476D01*
X82019438Y-107040476D02*
X82209914Y-107040476D01*
X82209914Y-107040476D02*
X82286104Y-107078571D01*
X82286104Y-107078571D02*
X82324200Y-107116666D01*
X82324200Y-107116666D02*
X82362295Y-107192857D01*
X82362295Y-107192857D02*
X82362295Y-107383333D01*
X82362295Y-107383333D02*
X82324200Y-107459523D01*
X82324200Y-107459523D02*
X82286104Y-107497619D01*
X57704761Y-65321695D02*
X57323809Y-65321695D01*
X57323809Y-65321695D02*
X57323809Y-64521695D01*
X57971428Y-64902647D02*
X58238094Y-64902647D01*
X58352380Y-65321695D02*
X57971428Y-65321695D01*
X57971428Y-65321695D02*
X57971428Y-64521695D01*
X57971428Y-64521695D02*
X58352380Y-64521695D01*
X59114285Y-65321695D02*
X58657142Y-65321695D01*
X58885714Y-65321695D02*
X58885714Y-64521695D01*
X58885714Y-64521695D02*
X58809523Y-64635980D01*
X58809523Y-64635980D02*
X58733333Y-64712171D01*
X58733333Y-64712171D02*
X58657142Y-64750266D01*
X55303276Y-113447495D02*
X55303276Y-114095114D01*
X55303276Y-114095114D02*
X55341371Y-114171304D01*
X55341371Y-114171304D02*
X55379466Y-114209400D01*
X55379466Y-114209400D02*
X55455657Y-114247495D01*
X55455657Y-114247495D02*
X55608038Y-114247495D01*
X55608038Y-114247495D02*
X55684228Y-114209400D01*
X55684228Y-114209400D02*
X55722323Y-114171304D01*
X55722323Y-114171304D02*
X55760419Y-114095114D01*
X55760419Y-114095114D02*
X55760419Y-113447495D01*
X56103275Y-113523685D02*
X56141371Y-113485590D01*
X56141371Y-113485590D02*
X56217561Y-113447495D01*
X56217561Y-113447495D02*
X56408037Y-113447495D01*
X56408037Y-113447495D02*
X56484228Y-113485590D01*
X56484228Y-113485590D02*
X56522323Y-113523685D01*
X56522323Y-113523685D02*
X56560418Y-113599876D01*
X56560418Y-113599876D02*
X56560418Y-113676066D01*
X56560418Y-113676066D02*
X56522323Y-113790352D01*
X56522323Y-113790352D02*
X56065180Y-114247495D01*
X56065180Y-114247495D02*
X56560418Y-114247495D01*
X71312295Y-95789285D02*
X70931342Y-96055952D01*
X71312295Y-96246428D02*
X70512295Y-96246428D01*
X70512295Y-96246428D02*
X70512295Y-95941666D01*
X70512295Y-95941666D02*
X70550390Y-95865476D01*
X70550390Y-95865476D02*
X70588485Y-95827381D01*
X70588485Y-95827381D02*
X70664676Y-95789285D01*
X70664676Y-95789285D02*
X70778961Y-95789285D01*
X70778961Y-95789285D02*
X70855152Y-95827381D01*
X70855152Y-95827381D02*
X70893247Y-95865476D01*
X70893247Y-95865476D02*
X70931342Y-95941666D01*
X70931342Y-95941666D02*
X70931342Y-96246428D01*
X71312295Y-95027381D02*
X71312295Y-95484524D01*
X71312295Y-95255952D02*
X70512295Y-95255952D01*
X70512295Y-95255952D02*
X70626580Y-95332143D01*
X70626580Y-95332143D02*
X70702771Y-95408333D01*
X70702771Y-95408333D02*
X70740866Y-95484524D01*
X70855152Y-94570238D02*
X70817057Y-94646428D01*
X70817057Y-94646428D02*
X70778961Y-94684523D01*
X70778961Y-94684523D02*
X70702771Y-94722619D01*
X70702771Y-94722619D02*
X70664676Y-94722619D01*
X70664676Y-94722619D02*
X70588485Y-94684523D01*
X70588485Y-94684523D02*
X70550390Y-94646428D01*
X70550390Y-94646428D02*
X70512295Y-94570238D01*
X70512295Y-94570238D02*
X70512295Y-94417857D01*
X70512295Y-94417857D02*
X70550390Y-94341666D01*
X70550390Y-94341666D02*
X70588485Y-94303571D01*
X70588485Y-94303571D02*
X70664676Y-94265476D01*
X70664676Y-94265476D02*
X70702771Y-94265476D01*
X70702771Y-94265476D02*
X70778961Y-94303571D01*
X70778961Y-94303571D02*
X70817057Y-94341666D01*
X70817057Y-94341666D02*
X70855152Y-94417857D01*
X70855152Y-94417857D02*
X70855152Y-94570238D01*
X70855152Y-94570238D02*
X70893247Y-94646428D01*
X70893247Y-94646428D02*
X70931342Y-94684523D01*
X70931342Y-94684523D02*
X71007533Y-94722619D01*
X71007533Y-94722619D02*
X71159914Y-94722619D01*
X71159914Y-94722619D02*
X71236104Y-94684523D01*
X71236104Y-94684523D02*
X71274200Y-94646428D01*
X71274200Y-94646428D02*
X71312295Y-94570238D01*
X71312295Y-94570238D02*
X71312295Y-94417857D01*
X71312295Y-94417857D02*
X71274200Y-94341666D01*
X71274200Y-94341666D02*
X71236104Y-94303571D01*
X71236104Y-94303571D02*
X71159914Y-94265476D01*
X71159914Y-94265476D02*
X71007533Y-94265476D01*
X71007533Y-94265476D02*
X70931342Y-94303571D01*
X70931342Y-94303571D02*
X70893247Y-94341666D01*
X70893247Y-94341666D02*
X70855152Y-94417857D01*
X72441867Y-85062904D02*
X72403771Y-85101000D01*
X72403771Y-85101000D02*
X72289486Y-85139095D01*
X72289486Y-85139095D02*
X72213295Y-85139095D01*
X72213295Y-85139095D02*
X72099009Y-85101000D01*
X72099009Y-85101000D02*
X72022819Y-85024809D01*
X72022819Y-85024809D02*
X71984724Y-84948619D01*
X71984724Y-84948619D02*
X71946628Y-84796238D01*
X71946628Y-84796238D02*
X71946628Y-84681952D01*
X71946628Y-84681952D02*
X71984724Y-84529571D01*
X71984724Y-84529571D02*
X72022819Y-84453380D01*
X72022819Y-84453380D02*
X72099009Y-84377190D01*
X72099009Y-84377190D02*
X72213295Y-84339095D01*
X72213295Y-84339095D02*
X72289486Y-84339095D01*
X72289486Y-84339095D02*
X72403771Y-84377190D01*
X72403771Y-84377190D02*
X72441867Y-84415285D01*
X72708533Y-84339095D02*
X73203771Y-84339095D01*
X73203771Y-84339095D02*
X72937105Y-84643857D01*
X72937105Y-84643857D02*
X73051390Y-84643857D01*
X73051390Y-84643857D02*
X73127581Y-84681952D01*
X73127581Y-84681952D02*
X73165676Y-84720047D01*
X73165676Y-84720047D02*
X73203771Y-84796238D01*
X73203771Y-84796238D02*
X73203771Y-84986714D01*
X73203771Y-84986714D02*
X73165676Y-85062904D01*
X73165676Y-85062904D02*
X73127581Y-85101000D01*
X73127581Y-85101000D02*
X73051390Y-85139095D01*
X73051390Y-85139095D02*
X72822819Y-85139095D01*
X72822819Y-85139095D02*
X72746628Y-85101000D01*
X72746628Y-85101000D02*
X72708533Y-85062904D01*
X59808867Y-107079504D02*
X59770771Y-107117600D01*
X59770771Y-107117600D02*
X59656486Y-107155695D01*
X59656486Y-107155695D02*
X59580295Y-107155695D01*
X59580295Y-107155695D02*
X59466009Y-107117600D01*
X59466009Y-107117600D02*
X59389819Y-107041409D01*
X59389819Y-107041409D02*
X59351724Y-106965219D01*
X59351724Y-106965219D02*
X59313628Y-106812838D01*
X59313628Y-106812838D02*
X59313628Y-106698552D01*
X59313628Y-106698552D02*
X59351724Y-106546171D01*
X59351724Y-106546171D02*
X59389819Y-106469980D01*
X59389819Y-106469980D02*
X59466009Y-106393790D01*
X59466009Y-106393790D02*
X59580295Y-106355695D01*
X59580295Y-106355695D02*
X59656486Y-106355695D01*
X59656486Y-106355695D02*
X59770771Y-106393790D01*
X59770771Y-106393790D02*
X59808867Y-106431885D01*
X60532676Y-106355695D02*
X60151724Y-106355695D01*
X60151724Y-106355695D02*
X60113628Y-106736647D01*
X60113628Y-106736647D02*
X60151724Y-106698552D01*
X60151724Y-106698552D02*
X60227914Y-106660457D01*
X60227914Y-106660457D02*
X60418390Y-106660457D01*
X60418390Y-106660457D02*
X60494581Y-106698552D01*
X60494581Y-106698552D02*
X60532676Y-106736647D01*
X60532676Y-106736647D02*
X60570771Y-106812838D01*
X60570771Y-106812838D02*
X60570771Y-107003314D01*
X60570771Y-107003314D02*
X60532676Y-107079504D01*
X60532676Y-107079504D02*
X60494581Y-107117600D01*
X60494581Y-107117600D02*
X60418390Y-107155695D01*
X60418390Y-107155695D02*
X60227914Y-107155695D01*
X60227914Y-107155695D02*
X60151724Y-107117600D01*
X60151724Y-107117600D02*
X60113628Y-107079504D01*
X70985714Y-136286104D02*
X70947618Y-136324200D01*
X70947618Y-136324200D02*
X70833333Y-136362295D01*
X70833333Y-136362295D02*
X70757142Y-136362295D01*
X70757142Y-136362295D02*
X70642856Y-136324200D01*
X70642856Y-136324200D02*
X70566666Y-136248009D01*
X70566666Y-136248009D02*
X70528571Y-136171819D01*
X70528571Y-136171819D02*
X70490475Y-136019438D01*
X70490475Y-136019438D02*
X70490475Y-135905152D01*
X70490475Y-135905152D02*
X70528571Y-135752771D01*
X70528571Y-135752771D02*
X70566666Y-135676580D01*
X70566666Y-135676580D02*
X70642856Y-135600390D01*
X70642856Y-135600390D02*
X70757142Y-135562295D01*
X70757142Y-135562295D02*
X70833333Y-135562295D01*
X70833333Y-135562295D02*
X70947618Y-135600390D01*
X70947618Y-135600390D02*
X70985714Y-135638485D01*
X71747618Y-136362295D02*
X71290475Y-136362295D01*
X71519047Y-136362295D02*
X71519047Y-135562295D01*
X71519047Y-135562295D02*
X71442856Y-135676580D01*
X71442856Y-135676580D02*
X71366666Y-135752771D01*
X71366666Y-135752771D02*
X71290475Y-135790866D01*
X72014285Y-135562295D02*
X72547619Y-135562295D01*
X72547619Y-135562295D02*
X72204761Y-136362295D01*
X85078914Y-85164495D02*
X84812247Y-84783542D01*
X84621771Y-85164495D02*
X84621771Y-84364495D01*
X84621771Y-84364495D02*
X84926533Y-84364495D01*
X84926533Y-84364495D02*
X85002723Y-84402590D01*
X85002723Y-84402590D02*
X85040818Y-84440685D01*
X85040818Y-84440685D02*
X85078914Y-84516876D01*
X85078914Y-84516876D02*
X85078914Y-84631161D01*
X85078914Y-84631161D02*
X85040818Y-84707352D01*
X85040818Y-84707352D02*
X85002723Y-84745447D01*
X85002723Y-84745447D02*
X84926533Y-84783542D01*
X84926533Y-84783542D02*
X84621771Y-84783542D01*
X85345580Y-84364495D02*
X85840818Y-84364495D01*
X85840818Y-84364495D02*
X85574152Y-84669257D01*
X85574152Y-84669257D02*
X85688437Y-84669257D01*
X85688437Y-84669257D02*
X85764628Y-84707352D01*
X85764628Y-84707352D02*
X85802723Y-84745447D01*
X85802723Y-84745447D02*
X85840818Y-84821638D01*
X85840818Y-84821638D02*
X85840818Y-85012114D01*
X85840818Y-85012114D02*
X85802723Y-85088304D01*
X85802723Y-85088304D02*
X85764628Y-85126400D01*
X85764628Y-85126400D02*
X85688437Y-85164495D01*
X85688437Y-85164495D02*
X85459866Y-85164495D01*
X85459866Y-85164495D02*
X85383675Y-85126400D01*
X85383675Y-85126400D02*
X85345580Y-85088304D01*
X86336057Y-84364495D02*
X86412247Y-84364495D01*
X86412247Y-84364495D02*
X86488438Y-84402590D01*
X86488438Y-84402590D02*
X86526533Y-84440685D01*
X86526533Y-84440685D02*
X86564628Y-84516876D01*
X86564628Y-84516876D02*
X86602723Y-84669257D01*
X86602723Y-84669257D02*
X86602723Y-84859733D01*
X86602723Y-84859733D02*
X86564628Y-85012114D01*
X86564628Y-85012114D02*
X86526533Y-85088304D01*
X86526533Y-85088304D02*
X86488438Y-85126400D01*
X86488438Y-85126400D02*
X86412247Y-85164495D01*
X86412247Y-85164495D02*
X86336057Y-85164495D01*
X86336057Y-85164495D02*
X86259866Y-85126400D01*
X86259866Y-85126400D02*
X86221771Y-85088304D01*
X86221771Y-85088304D02*
X86183676Y-85012114D01*
X86183676Y-85012114D02*
X86145580Y-84859733D01*
X86145580Y-84859733D02*
X86145580Y-84669257D01*
X86145580Y-84669257D02*
X86183676Y-84516876D01*
X86183676Y-84516876D02*
X86221771Y-84440685D01*
X86221771Y-84440685D02*
X86259866Y-84402590D01*
X86259866Y-84402590D02*
X86336057Y-84364495D01*
X84685704Y-77192932D02*
X84723800Y-77231028D01*
X84723800Y-77231028D02*
X84761895Y-77345313D01*
X84761895Y-77345313D02*
X84761895Y-77421504D01*
X84761895Y-77421504D02*
X84723800Y-77535790D01*
X84723800Y-77535790D02*
X84647609Y-77611980D01*
X84647609Y-77611980D02*
X84571419Y-77650075D01*
X84571419Y-77650075D02*
X84419038Y-77688171D01*
X84419038Y-77688171D02*
X84304752Y-77688171D01*
X84304752Y-77688171D02*
X84152371Y-77650075D01*
X84152371Y-77650075D02*
X84076180Y-77611980D01*
X84076180Y-77611980D02*
X83999990Y-77535790D01*
X83999990Y-77535790D02*
X83961895Y-77421504D01*
X83961895Y-77421504D02*
X83961895Y-77345313D01*
X83961895Y-77345313D02*
X83999990Y-77231028D01*
X83999990Y-77231028D02*
X84038085Y-77192932D01*
X84761895Y-76392932D02*
X84380942Y-76659599D01*
X84761895Y-76850075D02*
X83961895Y-76850075D01*
X83961895Y-76850075D02*
X83961895Y-76545313D01*
X83961895Y-76545313D02*
X83999990Y-76469123D01*
X83999990Y-76469123D02*
X84038085Y-76431028D01*
X84038085Y-76431028D02*
X84114276Y-76392932D01*
X84114276Y-76392932D02*
X84228561Y-76392932D01*
X84228561Y-76392932D02*
X84304752Y-76431028D01*
X84304752Y-76431028D02*
X84342847Y-76469123D01*
X84342847Y-76469123D02*
X84380942Y-76545313D01*
X84380942Y-76545313D02*
X84380942Y-76850075D01*
X84761895Y-75631028D02*
X84761895Y-76088171D01*
X84761895Y-75859599D02*
X83961895Y-75859599D01*
X83961895Y-75859599D02*
X84076180Y-75935790D01*
X84076180Y-75935790D02*
X84152371Y-76011980D01*
X84152371Y-76011980D02*
X84190466Y-76088171D01*
X47302276Y-80808495D02*
X47302276Y-81456114D01*
X47302276Y-81456114D02*
X47340371Y-81532304D01*
X47340371Y-81532304D02*
X47378466Y-81570400D01*
X47378466Y-81570400D02*
X47454657Y-81608495D01*
X47454657Y-81608495D02*
X47607038Y-81608495D01*
X47607038Y-81608495D02*
X47683228Y-81570400D01*
X47683228Y-81570400D02*
X47721323Y-81532304D01*
X47721323Y-81532304D02*
X47759419Y-81456114D01*
X47759419Y-81456114D02*
X47759419Y-80808495D01*
X48483228Y-81075161D02*
X48483228Y-81608495D01*
X48292752Y-80770400D02*
X48102275Y-81341828D01*
X48102275Y-81341828D02*
X48597514Y-81341828D01*
X71713895Y-103782285D02*
X71332942Y-104048952D01*
X71713895Y-104239428D02*
X70913895Y-104239428D01*
X70913895Y-104239428D02*
X70913895Y-103934666D01*
X70913895Y-103934666D02*
X70951990Y-103858476D01*
X70951990Y-103858476D02*
X70990085Y-103820381D01*
X70990085Y-103820381D02*
X71066276Y-103782285D01*
X71066276Y-103782285D02*
X71180561Y-103782285D01*
X71180561Y-103782285D02*
X71256752Y-103820381D01*
X71256752Y-103820381D02*
X71294847Y-103858476D01*
X71294847Y-103858476D02*
X71332942Y-103934666D01*
X71332942Y-103934666D02*
X71332942Y-104239428D01*
X71713895Y-103020381D02*
X71713895Y-103477524D01*
X71713895Y-103248952D02*
X70913895Y-103248952D01*
X70913895Y-103248952D02*
X71028180Y-103325143D01*
X71028180Y-103325143D02*
X71104371Y-103401333D01*
X71104371Y-103401333D02*
X71142466Y-103477524D01*
X70913895Y-102753714D02*
X70913895Y-102220380D01*
X70913895Y-102220380D02*
X71713895Y-102563238D01*
X88914095Y-107014438D02*
X88914095Y-107395390D01*
X88914095Y-107395390D02*
X88114095Y-107395390D01*
X88495047Y-106747771D02*
X88495047Y-106481105D01*
X88914095Y-106366819D02*
X88914095Y-106747771D01*
X88914095Y-106747771D02*
X88114095Y-106747771D01*
X88114095Y-106747771D02*
X88114095Y-106366819D01*
X88114095Y-106100152D02*
X88114095Y-105566818D01*
X88114095Y-105566818D02*
X88914095Y-105909676D01*
X62954761Y-69812295D02*
X62573809Y-69812295D01*
X62573809Y-69812295D02*
X62573809Y-69012295D01*
X63221428Y-69393247D02*
X63488094Y-69393247D01*
X63602380Y-69812295D02*
X63221428Y-69812295D01*
X63221428Y-69812295D02*
X63221428Y-69012295D01*
X63221428Y-69012295D02*
X63602380Y-69012295D01*
X64059523Y-69355152D02*
X63983333Y-69317057D01*
X63983333Y-69317057D02*
X63945238Y-69278961D01*
X63945238Y-69278961D02*
X63907142Y-69202771D01*
X63907142Y-69202771D02*
X63907142Y-69164676D01*
X63907142Y-69164676D02*
X63945238Y-69088485D01*
X63945238Y-69088485D02*
X63983333Y-69050390D01*
X63983333Y-69050390D02*
X64059523Y-69012295D01*
X64059523Y-69012295D02*
X64211904Y-69012295D01*
X64211904Y-69012295D02*
X64288095Y-69050390D01*
X64288095Y-69050390D02*
X64326190Y-69088485D01*
X64326190Y-69088485D02*
X64364285Y-69164676D01*
X64364285Y-69164676D02*
X64364285Y-69202771D01*
X64364285Y-69202771D02*
X64326190Y-69278961D01*
X64326190Y-69278961D02*
X64288095Y-69317057D01*
X64288095Y-69317057D02*
X64211904Y-69355152D01*
X64211904Y-69355152D02*
X64059523Y-69355152D01*
X64059523Y-69355152D02*
X63983333Y-69393247D01*
X63983333Y-69393247D02*
X63945238Y-69431342D01*
X63945238Y-69431342D02*
X63907142Y-69507533D01*
X63907142Y-69507533D02*
X63907142Y-69659914D01*
X63907142Y-69659914D02*
X63945238Y-69736104D01*
X63945238Y-69736104D02*
X63983333Y-69774200D01*
X63983333Y-69774200D02*
X64059523Y-69812295D01*
X64059523Y-69812295D02*
X64211904Y-69812295D01*
X64211904Y-69812295D02*
X64288095Y-69774200D01*
X64288095Y-69774200D02*
X64326190Y-69736104D01*
X64326190Y-69736104D02*
X64364285Y-69659914D01*
X64364285Y-69659914D02*
X64364285Y-69507533D01*
X64364285Y-69507533D02*
X64326190Y-69431342D01*
X64326190Y-69431342D02*
X64288095Y-69393247D01*
X64288095Y-69393247D02*
X64211904Y-69355152D01*
X87123924Y-127368495D02*
X87123924Y-126568495D01*
X87123924Y-126568495D02*
X87314400Y-126568495D01*
X87314400Y-126568495D02*
X87428686Y-126606590D01*
X87428686Y-126606590D02*
X87504876Y-126682780D01*
X87504876Y-126682780D02*
X87542971Y-126758971D01*
X87542971Y-126758971D02*
X87581067Y-126911352D01*
X87581067Y-126911352D02*
X87581067Y-127025638D01*
X87581067Y-127025638D02*
X87542971Y-127178019D01*
X87542971Y-127178019D02*
X87504876Y-127254209D01*
X87504876Y-127254209D02*
X87428686Y-127330400D01*
X87428686Y-127330400D02*
X87314400Y-127368495D01*
X87314400Y-127368495D02*
X87123924Y-127368495D01*
X88342971Y-127368495D02*
X87885828Y-127368495D01*
X88114400Y-127368495D02*
X88114400Y-126568495D01*
X88114400Y-126568495D02*
X88038209Y-126682780D01*
X88038209Y-126682780D02*
X87962019Y-126758971D01*
X87962019Y-126758971D02*
X87885828Y-126797066D01*
X75540076Y-85471895D02*
X75540076Y-86119514D01*
X75540076Y-86119514D02*
X75578171Y-86195704D01*
X75578171Y-86195704D02*
X75616266Y-86233800D01*
X75616266Y-86233800D02*
X75692457Y-86271895D01*
X75692457Y-86271895D02*
X75844838Y-86271895D01*
X75844838Y-86271895D02*
X75921028Y-86233800D01*
X75921028Y-86233800D02*
X75959123Y-86195704D01*
X75959123Y-86195704D02*
X75997219Y-86119514D01*
X75997219Y-86119514D02*
X75997219Y-85471895D01*
X76797218Y-86271895D02*
X76340075Y-86271895D01*
X76568647Y-86271895D02*
X76568647Y-85471895D01*
X76568647Y-85471895D02*
X76492456Y-85586180D01*
X76492456Y-85586180D02*
X76416266Y-85662371D01*
X76416266Y-85662371D02*
X76340075Y-85700466D01*
X54738067Y-80135295D02*
X54471400Y-79754342D01*
X54280924Y-80135295D02*
X54280924Y-79335295D01*
X54280924Y-79335295D02*
X54585686Y-79335295D01*
X54585686Y-79335295D02*
X54661876Y-79373390D01*
X54661876Y-79373390D02*
X54699971Y-79411485D01*
X54699971Y-79411485D02*
X54738067Y-79487676D01*
X54738067Y-79487676D02*
X54738067Y-79601961D01*
X54738067Y-79601961D02*
X54699971Y-79678152D01*
X54699971Y-79678152D02*
X54661876Y-79716247D01*
X54661876Y-79716247D02*
X54585686Y-79754342D01*
X54585686Y-79754342D02*
X54280924Y-79754342D01*
X55119019Y-80135295D02*
X55271400Y-80135295D01*
X55271400Y-80135295D02*
X55347590Y-80097200D01*
X55347590Y-80097200D02*
X55385686Y-80059104D01*
X55385686Y-80059104D02*
X55461876Y-79944819D01*
X55461876Y-79944819D02*
X55499971Y-79792438D01*
X55499971Y-79792438D02*
X55499971Y-79487676D01*
X55499971Y-79487676D02*
X55461876Y-79411485D01*
X55461876Y-79411485D02*
X55423781Y-79373390D01*
X55423781Y-79373390D02*
X55347590Y-79335295D01*
X55347590Y-79335295D02*
X55195209Y-79335295D01*
X55195209Y-79335295D02*
X55119019Y-79373390D01*
X55119019Y-79373390D02*
X55080924Y-79411485D01*
X55080924Y-79411485D02*
X55042828Y-79487676D01*
X55042828Y-79487676D02*
X55042828Y-79678152D01*
X55042828Y-79678152D02*
X55080924Y-79754342D01*
X55080924Y-79754342D02*
X55119019Y-79792438D01*
X55119019Y-79792438D02*
X55195209Y-79830533D01*
X55195209Y-79830533D02*
X55347590Y-79830533D01*
X55347590Y-79830533D02*
X55423781Y-79792438D01*
X55423781Y-79792438D02*
X55461876Y-79754342D01*
X55461876Y-79754342D02*
X55499971Y-79678152D01*
D13*
X50966518Y-76483162D02*
X49696518Y-76483162D01*
X50845565Y-75152685D02*
X50906042Y-75213161D01*
X50906042Y-75213161D02*
X50966518Y-75394590D01*
X50966518Y-75394590D02*
X50966518Y-75515542D01*
X50966518Y-75515542D02*
X50906042Y-75696971D01*
X50906042Y-75696971D02*
X50785089Y-75817923D01*
X50785089Y-75817923D02*
X50664137Y-75878400D01*
X50664137Y-75878400D02*
X50422232Y-75938876D01*
X50422232Y-75938876D02*
X50240803Y-75938876D01*
X50240803Y-75938876D02*
X49998899Y-75878400D01*
X49998899Y-75878400D02*
X49877946Y-75817923D01*
X49877946Y-75817923D02*
X49756994Y-75696971D01*
X49756994Y-75696971D02*
X49696518Y-75515542D01*
X49696518Y-75515542D02*
X49696518Y-75394590D01*
X49696518Y-75394590D02*
X49756994Y-75213161D01*
X49756994Y-75213161D02*
X49817470Y-75152685D01*
X50966518Y-73943161D02*
X50966518Y-74668876D01*
X50966518Y-74306019D02*
X49696518Y-74306019D01*
X49696518Y-74306019D02*
X49877946Y-74426971D01*
X49877946Y-74426971D02*
X49998899Y-74547923D01*
X49998899Y-74547923D02*
X50059375Y-74668876D01*
D10*
X41154761Y-136228495D02*
X40773809Y-136228495D01*
X40773809Y-136228495D02*
X40773809Y-135428495D01*
X41421428Y-135809447D02*
X41688094Y-135809447D01*
X41802380Y-136228495D02*
X41421428Y-136228495D01*
X41421428Y-136228495D02*
X41421428Y-135428495D01*
X41421428Y-135428495D02*
X41802380Y-135428495D01*
X42488095Y-135428495D02*
X42335714Y-135428495D01*
X42335714Y-135428495D02*
X42259523Y-135466590D01*
X42259523Y-135466590D02*
X42221428Y-135504685D01*
X42221428Y-135504685D02*
X42145238Y-135618971D01*
X42145238Y-135618971D02*
X42107142Y-135771352D01*
X42107142Y-135771352D02*
X42107142Y-136076114D01*
X42107142Y-136076114D02*
X42145238Y-136152304D01*
X42145238Y-136152304D02*
X42183333Y-136190400D01*
X42183333Y-136190400D02*
X42259523Y-136228495D01*
X42259523Y-136228495D02*
X42411904Y-136228495D01*
X42411904Y-136228495D02*
X42488095Y-136190400D01*
X42488095Y-136190400D02*
X42526190Y-136152304D01*
X42526190Y-136152304D02*
X42564285Y-136076114D01*
X42564285Y-136076114D02*
X42564285Y-135885638D01*
X42564285Y-135885638D02*
X42526190Y-135809447D01*
X42526190Y-135809447D02*
X42488095Y-135771352D01*
X42488095Y-135771352D02*
X42411904Y-135733257D01*
X42411904Y-135733257D02*
X42259523Y-135733257D01*
X42259523Y-135733257D02*
X42183333Y-135771352D01*
X42183333Y-135771352D02*
X42145238Y-135809447D01*
X42145238Y-135809447D02*
X42107142Y-135885638D01*
X44501933Y-127392095D02*
X44501933Y-127963523D01*
X44501933Y-127963523D02*
X44463838Y-128077809D01*
X44463838Y-128077809D02*
X44387647Y-128154000D01*
X44387647Y-128154000D02*
X44273362Y-128192095D01*
X44273362Y-128192095D02*
X44197171Y-128192095D01*
X44882886Y-128192095D02*
X44882886Y-127392095D01*
X44882886Y-127392095D02*
X45187648Y-127392095D01*
X45187648Y-127392095D02*
X45263838Y-127430190D01*
X45263838Y-127430190D02*
X45301933Y-127468285D01*
X45301933Y-127468285D02*
X45340029Y-127544476D01*
X45340029Y-127544476D02*
X45340029Y-127658761D01*
X45340029Y-127658761D02*
X45301933Y-127734952D01*
X45301933Y-127734952D02*
X45263838Y-127773047D01*
X45263838Y-127773047D02*
X45187648Y-127811142D01*
X45187648Y-127811142D02*
X44882886Y-127811142D01*
X46063838Y-127392095D02*
X45682886Y-127392095D01*
X45682886Y-127392095D02*
X45644790Y-127773047D01*
X45644790Y-127773047D02*
X45682886Y-127734952D01*
X45682886Y-127734952D02*
X45759076Y-127696857D01*
X45759076Y-127696857D02*
X45949552Y-127696857D01*
X45949552Y-127696857D02*
X46025743Y-127734952D01*
X46025743Y-127734952D02*
X46063838Y-127773047D01*
X46063838Y-127773047D02*
X46101933Y-127849238D01*
X46101933Y-127849238D02*
X46101933Y-128039714D01*
X46101933Y-128039714D02*
X46063838Y-128115904D01*
X46063838Y-128115904D02*
X46025743Y-128154000D01*
X46025743Y-128154000D02*
X45949552Y-128192095D01*
X45949552Y-128192095D02*
X45759076Y-128192095D01*
X45759076Y-128192095D02*
X45682886Y-128154000D01*
X45682886Y-128154000D02*
X45644790Y-128115904D01*
X44527914Y-121705695D02*
X44261247Y-121324742D01*
X44070771Y-121705695D02*
X44070771Y-120905695D01*
X44070771Y-120905695D02*
X44375533Y-120905695D01*
X44375533Y-120905695D02*
X44451723Y-120943790D01*
X44451723Y-120943790D02*
X44489818Y-120981885D01*
X44489818Y-120981885D02*
X44527914Y-121058076D01*
X44527914Y-121058076D02*
X44527914Y-121172361D01*
X44527914Y-121172361D02*
X44489818Y-121248552D01*
X44489818Y-121248552D02*
X44451723Y-121286647D01*
X44451723Y-121286647D02*
X44375533Y-121324742D01*
X44375533Y-121324742D02*
X44070771Y-121324742D01*
X44832675Y-120981885D02*
X44870771Y-120943790D01*
X44870771Y-120943790D02*
X44946961Y-120905695D01*
X44946961Y-120905695D02*
X45137437Y-120905695D01*
X45137437Y-120905695D02*
X45213628Y-120943790D01*
X45213628Y-120943790D02*
X45251723Y-120981885D01*
X45251723Y-120981885D02*
X45289818Y-121058076D01*
X45289818Y-121058076D02*
X45289818Y-121134266D01*
X45289818Y-121134266D02*
X45251723Y-121248552D01*
X45251723Y-121248552D02*
X44794580Y-121705695D01*
X44794580Y-121705695D02*
X45289818Y-121705695D01*
X45556485Y-120905695D02*
X46051723Y-120905695D01*
X46051723Y-120905695D02*
X45785057Y-121210457D01*
X45785057Y-121210457D02*
X45899342Y-121210457D01*
X45899342Y-121210457D02*
X45975533Y-121248552D01*
X45975533Y-121248552D02*
X46013628Y-121286647D01*
X46013628Y-121286647D02*
X46051723Y-121362838D01*
X46051723Y-121362838D02*
X46051723Y-121553314D01*
X46051723Y-121553314D02*
X46013628Y-121629504D01*
X46013628Y-121629504D02*
X45975533Y-121667600D01*
X45975533Y-121667600D02*
X45899342Y-121705695D01*
X45899342Y-121705695D02*
X45670771Y-121705695D01*
X45670771Y-121705695D02*
X45594580Y-121667600D01*
X45594580Y-121667600D02*
X45556485Y-121629504D01*
D14*
X85499600Y-71240528D02*
X85499600Y-72311957D01*
X85499600Y-72311957D02*
X85428171Y-72526242D01*
X85428171Y-72526242D02*
X85285314Y-72669100D01*
X85285314Y-72669100D02*
X85071028Y-72740528D01*
X85071028Y-72740528D02*
X84928171Y-72740528D01*
X86142457Y-71383385D02*
X86213885Y-71311957D01*
X86213885Y-71311957D02*
X86356743Y-71240528D01*
X86356743Y-71240528D02*
X86713885Y-71240528D01*
X86713885Y-71240528D02*
X86856743Y-71311957D01*
X86856743Y-71311957D02*
X86928171Y-71383385D01*
X86928171Y-71383385D02*
X86999600Y-71526242D01*
X86999600Y-71526242D02*
X86999600Y-71669100D01*
X86999600Y-71669100D02*
X86928171Y-71883385D01*
X86928171Y-71883385D02*
X86071028Y-72740528D01*
X86071028Y-72740528D02*
X86999600Y-72740528D01*
D12*
%TO.C,J1*%
X42109600Y-59859600D02*
X42109600Y-70019600D01*
X42109600Y-70019600D02*
X52329600Y-70019600D01*
X52269600Y-59859600D02*
X42109600Y-59859600D01*
X52269600Y-70019600D02*
X52269600Y-59859600D01*
D11*
X52829600Y-65159600D02*
X52829600Y-65159600D01*
X52929600Y-65159600D02*
X52929600Y-65159600D01*
X52829600Y-65159600D02*
G75*
G02*
X52929600Y-65159600I50000J0D01*
G01*
X52929600Y-65159600D02*
G75*
G02*
X52829600Y-65159600I-50000J0D01*
G01*
D15*
%TO.C,C10*%
X47782200Y-132402820D02*
X47782200Y-132683980D01*
X48802200Y-132402820D02*
X48802200Y-132683980D01*
D16*
%TO.C,Bat1*%
X44292322Y-105133400D02*
X44292322Y-89463400D01*
X44471962Y-89276220D02*
X44292322Y-89460000D01*
X44471962Y-105320580D02*
X44292322Y-105136800D01*
X45014922Y-88782580D02*
X44471962Y-89276220D01*
X45014922Y-105814220D02*
X44471962Y-105320580D01*
X45483452Y-88401330D02*
X45014922Y-88782580D01*
X45483452Y-106195470D02*
X45014922Y-105814220D01*
X45742322Y-109098400D02*
X47742322Y-109098400D01*
X45856102Y-88130050D02*
X45483452Y-88401330D01*
X45856102Y-106466750D02*
X45483452Y-106195470D01*
X46400662Y-87774490D02*
X45856102Y-88130050D01*
X46400662Y-106822310D02*
X45856102Y-106466750D01*
X46698512Y-87597920D02*
X46400662Y-87774490D01*
X46698512Y-106998880D02*
X46400662Y-106822310D01*
X46742322Y-110098400D02*
X46742322Y-108098400D01*
X46792322Y-84298400D02*
X46792322Y-82798400D01*
X47010512Y-87418580D02*
X46698512Y-87597920D01*
X47010512Y-107178220D02*
X46698512Y-106998880D01*
X47355192Y-87240100D02*
X47010512Y-87418580D01*
X47355192Y-107356700D02*
X47010512Y-107178220D01*
X47754252Y-87056000D02*
X47355192Y-87240100D01*
X47754252Y-107540800D02*
X47355192Y-107356700D01*
X48005782Y-86948300D02*
X47754252Y-87056000D01*
X48005782Y-107648500D02*
X47754252Y-107540800D01*
X48267972Y-86840500D02*
X48005782Y-86948300D01*
X48267972Y-107756300D02*
X48005782Y-107648500D01*
X48611202Y-86717500D02*
X48267972Y-86840500D01*
X48611202Y-107879300D02*
X48267972Y-107756300D01*
X48792322Y-82998400D02*
X48792322Y-86653400D01*
X48792322Y-86653400D02*
X48611202Y-86717500D01*
X48792322Y-107943400D02*
X48611202Y-107879300D01*
X48792322Y-111598400D02*
X48792322Y-107943400D01*
X49872322Y-82998400D02*
X48792322Y-82998400D01*
X49872322Y-111598400D02*
X48792322Y-111598400D01*
X54712322Y-82998400D02*
X55792322Y-82998400D01*
X54712322Y-111598400D02*
X55792322Y-111598400D01*
X55792322Y-82998400D02*
X55792322Y-86653400D01*
X55792322Y-86653400D02*
X55973442Y-86717500D01*
X55792322Y-107943400D02*
X55973442Y-107879300D01*
X55792322Y-111598400D02*
X55792322Y-107943400D01*
X55973442Y-86717500D02*
X56316672Y-86840500D01*
X55973442Y-107879300D02*
X56316672Y-107756300D01*
X56316672Y-86840500D02*
X56578862Y-86948300D01*
X56316672Y-107756300D02*
X56578862Y-107648500D01*
X56578862Y-86948300D02*
X56830392Y-87056000D01*
X56578862Y-107648500D02*
X56830392Y-107540800D01*
X56830392Y-87056000D02*
X57229452Y-87240100D01*
X56830392Y-107540800D02*
X57229452Y-107356700D01*
X57229452Y-87240100D02*
X57574132Y-87418580D01*
X57229452Y-107356700D02*
X57574132Y-107178220D01*
X57574132Y-87418580D02*
X57886132Y-87597920D01*
X57574132Y-107178220D02*
X57886132Y-106998880D01*
X57886132Y-87597920D02*
X58183982Y-87774490D01*
X57886132Y-106998880D02*
X58183982Y-106822310D01*
X58183982Y-87774490D02*
X58728542Y-88130050D01*
X58183982Y-106822310D02*
X58728542Y-106466750D01*
X58728542Y-88130050D02*
X59101192Y-88401330D01*
X58728542Y-106466750D02*
X59101192Y-106195470D01*
X59101192Y-88401330D02*
X59569722Y-88782580D01*
X59101192Y-106195470D02*
X59569722Y-105814220D01*
X59569722Y-88782580D02*
X60112682Y-89276220D01*
X59569722Y-105814220D02*
X60112682Y-105320580D01*
X60112682Y-89276220D02*
X60292322Y-89460000D01*
X60112682Y-105320580D02*
X60292322Y-105136800D01*
X60292322Y-105133400D02*
X60292322Y-89463400D01*
D15*
%TO.C,R19*%
X70727500Y-112037258D02*
X70727500Y-111562742D01*
X71772500Y-112037258D02*
X71772500Y-111562742D01*
%TO.C,R22*%
X47612742Y-135077500D02*
X48087258Y-135077500D01*
X47612742Y-136122500D02*
X48087258Y-136122500D01*
%TO.C,J13*%
X73012200Y-130446000D02*
X73012200Y-122766000D01*
X73012200Y-133046000D02*
X73012200Y-131716000D01*
X74342200Y-133046000D02*
X73012200Y-133046000D01*
X75672200Y-122766000D02*
X73012200Y-122766000D01*
X75672200Y-130446000D02*
X73012200Y-130446000D01*
X75672200Y-130446000D02*
X75672200Y-122766000D01*
%TO.C,C15*%
X60582200Y-122483980D02*
X60582200Y-122202820D01*
X61602200Y-122483980D02*
X61602200Y-122202820D01*
D12*
%TO.C,F1*%
X86826200Y-113547600D02*
X86826200Y-113547600D01*
X87026200Y-113547600D02*
X87026200Y-113547600D01*
X87651200Y-116147600D02*
X86201200Y-116147600D01*
X86826200Y-113547600D02*
G75*
G02*
X87026200Y-113547600I100000J0D01*
G01*
X87026200Y-113547600D02*
G75*
G02*
X86826200Y-113547600I-100000J0D01*
G01*
D15*
%TO.C,C18*%
X83839220Y-111317800D02*
X84120380Y-111317800D01*
X83839220Y-112337800D02*
X84120380Y-112337800D01*
%TO.C,R27*%
X84217058Y-109425700D02*
X83742542Y-109425700D01*
X84217058Y-110470700D02*
X83742542Y-110470700D01*
%TO.C,R3*%
X62152542Y-61427500D02*
X62627058Y-61427500D01*
X62152542Y-62472500D02*
X62627058Y-62472500D01*
%TO.C,C7*%
X44394780Y-83479400D02*
X44113620Y-83479400D01*
X44394780Y-84499400D02*
X44113620Y-84499400D01*
%TO.C,R1*%
X54772936Y-61165000D02*
X55227064Y-61165000D01*
X54772936Y-62635000D02*
X55227064Y-62635000D01*
%TO.C,R31*%
X82706258Y-82730300D02*
X82231742Y-82730300D01*
X82706258Y-83775300D02*
X82231742Y-83775300D01*
%TO.C,LE3*%
X66430000Y-61381000D02*
X66430000Y-63666000D01*
X67900000Y-61381000D02*
X66430000Y-61381000D01*
X67900000Y-63666000D02*
X67900000Y-61381000D01*
%TO.C,J9*%
X79600200Y-86193400D02*
X80930200Y-86193400D01*
X79600200Y-87523400D02*
X79600200Y-86193400D01*
X79600200Y-88793400D02*
X79600200Y-93933400D01*
X79600200Y-88793400D02*
X82200200Y-88793400D01*
X79600200Y-93933400D02*
X84800200Y-93933400D01*
X82200200Y-86193400D02*
X84800200Y-86193400D01*
X82200200Y-88793400D02*
X82200200Y-86193400D01*
X84800200Y-86193400D02*
X84800200Y-93933400D01*
%TO.C,R24*%
X62819700Y-124580658D02*
X62819700Y-124106142D01*
X63864700Y-124580658D02*
X63864700Y-124106142D01*
%TO.C,C1*%
X72866420Y-92415000D02*
X73147580Y-92415000D01*
X72866420Y-93435000D02*
X73147580Y-93435000D01*
%TO.C,R15*%
X79111658Y-71909900D02*
X78637142Y-71909900D01*
X79111658Y-72954900D02*
X78637142Y-72954900D01*
%TO.C,FB1*%
X81216264Y-132438800D02*
X78412136Y-132438800D01*
X81216264Y-135158800D02*
X78412136Y-135158800D01*
%TO.C,C14*%
X83673000Y-133416620D02*
X83673000Y-133697780D01*
X84693000Y-133416620D02*
X84693000Y-133697780D01*
%TO.C,Q3*%
X82435000Y-104643900D02*
X83435000Y-104643900D01*
X82435000Y-106163900D02*
X82435000Y-104643900D01*
X82485000Y-106163900D02*
X82435000Y-106163900D01*
X84385000Y-106163900D02*
X83605000Y-106163900D01*
X84555000Y-104643900D02*
X85555000Y-104643900D01*
X85555000Y-104643900D02*
X85555000Y-106163900D01*
X85555000Y-106163900D02*
X85505000Y-106163900D01*
X83945000Y-106943900D02*
X83615000Y-106703900D01*
X83945000Y-106463900D01*
X83945000Y-106943900D01*
G36*
X83945000Y-106943900D02*
G01*
X83615000Y-106703900D01*
X83945000Y-106463900D01*
X83945000Y-106943900D01*
G37*
D16*
%TO.C,U3*%
X53185600Y-137250000D02*
X64785600Y-137250000D01*
X53185600Y-144750000D02*
X53185600Y-137250000D01*
X64785600Y-137250000D02*
X64785600Y-144750000D01*
D11*
X64785600Y-137875000D02*
X64210600Y-137300000D01*
X64785600Y-138500000D02*
X63635600Y-137250000D01*
X64785600Y-138500000D02*
X64785600Y-137875000D01*
D16*
X64785600Y-144750000D02*
X53185600Y-144750000D01*
D12*
X65285600Y-137450000D02*
G75*
G02*
X65085600Y-137450000I-100000J0D01*
G01*
X65085600Y-137450000D02*
G75*
G02*
X65285600Y-137450000I100000J0D01*
G01*
%TO.C,BZ1*%
X78690246Y-132057611D02*
G75*
G02*
X87815242Y-131595182I4357919J4268114D01*
G01*
D17*
%TO.C,CR2*%
X74175400Y-74527900D02*
X74175400Y-79379300D01*
X74175400Y-79379300D02*
X74820560Y-79379300D01*
X74293850Y-76222600D02*
X75563850Y-76222600D01*
X74312100Y-76934600D02*
X75582100Y-76934600D01*
X74820560Y-74527900D02*
X74175400Y-74527900D01*
X74897100Y-76972600D02*
X74262100Y-77734600D01*
X74897100Y-76972600D02*
X74389100Y-77734600D01*
X74897100Y-76972600D02*
X74516100Y-77734600D01*
X74897100Y-76972600D02*
X74643100Y-77734600D01*
X74897100Y-76972600D02*
X74770100Y-77734600D01*
X74897100Y-76972600D02*
X75060600Y-77734600D01*
X74897100Y-76972600D02*
X75210600Y-77734600D01*
X74897100Y-76972600D02*
X75405100Y-77734600D01*
X74897100Y-76972600D02*
X75532100Y-77734600D01*
X74910600Y-76003600D02*
X74910600Y-77273600D01*
X74910600Y-78003600D02*
X74910600Y-76733600D01*
X74928850Y-76984600D02*
X74293850Y-76222600D01*
X74928850Y-76984600D02*
X74420850Y-76222600D01*
X74928850Y-76984600D02*
X74547850Y-76222600D01*
X74928850Y-76984600D02*
X74674850Y-76222600D01*
X74928850Y-76984600D02*
X74801850Y-76222600D01*
X74928850Y-76984600D02*
X74992350Y-76222600D01*
X74928850Y-76984600D02*
X75142350Y-76222600D01*
X74928850Y-76984600D02*
X75309850Y-76222600D01*
X74928850Y-76984600D02*
X75436850Y-76222600D01*
X74928850Y-76984600D02*
X75563850Y-76222600D01*
X75532100Y-77734600D02*
X74262100Y-77734600D01*
X77746640Y-79379300D02*
X78391800Y-79379300D01*
X78391800Y-74527900D02*
X77746640Y-74527900D01*
X78391800Y-79379300D02*
X78391800Y-74527900D01*
D15*
%TO.C,R16*%
X70777500Y-115337258D02*
X70777500Y-114862742D01*
X71822500Y-115337258D02*
X71822500Y-114862742D01*
%TO.C,C12*%
X57124820Y-135588000D02*
X57405980Y-135588000D01*
X57124820Y-136608000D02*
X57405980Y-136608000D01*
%TO.C,R11*%
X72221200Y-75278736D02*
X72221200Y-75732864D01*
X73691200Y-75278736D02*
X73691200Y-75732864D01*
%TO.C,Q2*%
X60641800Y-116145500D02*
X60691800Y-116145500D01*
X60641800Y-117665500D02*
X60641800Y-116145500D01*
X61641800Y-117665500D02*
X60641800Y-117665500D01*
X61811800Y-116145500D02*
X62591800Y-116145500D01*
X63711800Y-116145500D02*
X63761800Y-116145500D01*
X63761800Y-116145500D02*
X63761800Y-117665500D01*
X63761800Y-117665500D02*
X62761800Y-117665500D01*
X62581800Y-115605500D02*
X62251800Y-115845500D01*
X62251800Y-115365500D01*
X62581800Y-115605500D01*
G36*
X62581800Y-115605500D02*
G01*
X62251800Y-115845500D01*
X62251800Y-115365500D01*
X62581800Y-115605500D01*
G37*
%TO.C,R12*%
X72170400Y-78733136D02*
X72170400Y-79187264D01*
X73640400Y-78733136D02*
X73640400Y-79187264D01*
%TO.C,C2*%
X77135380Y-92471000D02*
X76854220Y-92471000D01*
X77135380Y-93491000D02*
X76854220Y-93491000D01*
%TO.C,C19*%
X74738600Y-134929020D02*
X74738600Y-135210180D01*
X75758600Y-134929020D02*
X75758600Y-135210180D01*
%TO.C,R6*%
X69899542Y-66169500D02*
X70374058Y-66169500D01*
X69899542Y-67214500D02*
X70374058Y-67214500D01*
%TO.C,C9*%
X56631000Y-126077000D02*
X56631000Y-134312000D01*
X61151000Y-126077000D02*
X56631000Y-126077000D01*
X61151000Y-134312000D02*
X61151000Y-126077000D01*
%TO.C,J5*%
X54570000Y-65570000D02*
X54570000Y-68230000D01*
X62250000Y-65570000D02*
X54570000Y-65570000D01*
X62250000Y-65570000D02*
X62250000Y-68230000D01*
X62250000Y-68230000D02*
X54570000Y-68230000D01*
X64850000Y-66900000D02*
X64850000Y-68230000D01*
X64850000Y-68230000D02*
X63520000Y-68230000D01*
%TO.C,R7*%
X62152542Y-63077500D02*
X62627058Y-63077500D01*
X62152542Y-64122500D02*
X62627058Y-64122500D01*
%TO.C,R14*%
X74059300Y-82482142D02*
X74059300Y-82956658D01*
X75104300Y-82482142D02*
X75104300Y-82956658D01*
%TO.C,J11*%
X72104600Y-95772000D02*
X81224600Y-95772000D01*
X72104600Y-121432000D02*
X72104600Y-95772000D01*
X73414600Y-97072000D02*
X79914600Y-97072000D01*
X73414600Y-120132000D02*
X73414600Y-97072000D01*
X79914600Y-97072000D02*
X79914600Y-106552000D01*
X79914600Y-106552000D02*
X79914600Y-106552000D01*
X79914600Y-106552000D02*
X81224600Y-106552000D01*
X79914600Y-110652000D02*
X79914600Y-120132000D01*
X79914600Y-120132000D02*
X73414600Y-120132000D01*
X81224600Y-95772000D02*
X81224600Y-121432000D01*
X81224600Y-110652000D02*
X79914600Y-110652000D01*
X81224600Y-121432000D02*
X72104600Y-121432000D01*
%TO.C,R8*%
X67125100Y-65692742D02*
X67125100Y-66167258D01*
X68170100Y-65692742D02*
X68170100Y-66167258D01*
%TO.C,C11*%
X53390580Y-134990600D02*
X53109420Y-134990600D01*
X53390580Y-136010600D02*
X53109420Y-136010600D01*
%TO.C,R2*%
X54772936Y-63115000D02*
X55227064Y-63115000D01*
X54772936Y-64585000D02*
X55227064Y-64585000D01*
%TO.C,R26*%
X83429658Y-102059700D02*
X82955142Y-102059700D01*
X83429658Y-103104700D02*
X82955142Y-103104700D01*
%TO.C,LE4*%
X64780000Y-61381000D02*
X64780000Y-63666000D01*
X66250000Y-61381000D02*
X64780000Y-61381000D01*
X66250000Y-63666000D02*
X66250000Y-61381000D01*
%TO.C,J12*%
X81482200Y-113465400D02*
X82862200Y-113465400D01*
X81482200Y-114845400D02*
X81482200Y-113465400D01*
X81482200Y-116115400D02*
X81482200Y-118765400D01*
X81482200Y-116115400D02*
X84242200Y-116115400D01*
X81482200Y-118765400D02*
X84242200Y-118765400D01*
X84242200Y-116115400D02*
X84242200Y-118765400D01*
%TO.C,Q1*%
X77314400Y-81957100D02*
X78314400Y-81957100D01*
X77314400Y-83477100D02*
X77314400Y-81957100D01*
X77364400Y-83477100D02*
X77314400Y-83477100D01*
X79264400Y-83477100D02*
X78484400Y-83477100D01*
X79434400Y-81957100D02*
X80434400Y-81957100D01*
X80434400Y-81957100D02*
X80434400Y-83477100D01*
X80434400Y-83477100D02*
X80384400Y-83477100D01*
X78824400Y-84257100D02*
X78494400Y-84017100D01*
X78824400Y-83777100D01*
X78824400Y-84257100D01*
G36*
X78824400Y-84257100D02*
G01*
X78494400Y-84017100D01*
X78824400Y-83777100D01*
X78824400Y-84257100D01*
G37*
%TO.C,C8*%
X62582780Y-111183400D02*
X62301620Y-111183400D01*
X62582780Y-112203400D02*
X62301620Y-112203400D01*
%TO.C,LE2*%
X57777500Y-61215000D02*
X57777500Y-62685000D01*
X57777500Y-62685000D02*
X60062500Y-62685000D01*
X60062500Y-61215000D02*
X57777500Y-61215000D01*
%TO.C,JP1*%
X59950000Y-78200000D02*
X62750000Y-78200000D01*
X59950000Y-80200000D02*
X59950000Y-78200000D01*
X62750000Y-78200000D02*
X62750000Y-80200000D01*
X62750000Y-80200000D02*
X59950000Y-80200000D01*
%TO.C,R5*%
X75697864Y-71494200D02*
X75243736Y-71494200D01*
X75697864Y-72964200D02*
X75243736Y-72964200D01*
%TO.C,C6*%
X62632780Y-108683400D02*
X62351620Y-108683400D01*
X62632780Y-109703400D02*
X62351620Y-109703400D01*
%TO.C,LE5*%
X69192200Y-62828400D02*
X71477200Y-62828400D01*
X71477200Y-61358400D02*
X69192200Y-61358400D01*
X71477200Y-62828400D02*
X71477200Y-61358400D01*
%TO.C,C13*%
X42975900Y-136777800D02*
X42975900Y-139527800D01*
X42975900Y-145297800D02*
X42975900Y-142547800D01*
X50431463Y-136777800D02*
X42975900Y-136777800D01*
X50431463Y-145297800D02*
X42975900Y-145297800D01*
X51495900Y-137842237D02*
X50431463Y-136777800D01*
X51495900Y-137842237D02*
X51495900Y-139527800D01*
X51495900Y-144233363D02*
X50431463Y-145297800D01*
X51495900Y-144233363D02*
X51495900Y-142547800D01*
X52235900Y-144047800D02*
X52235900Y-143047800D01*
X52735900Y-143547800D02*
X51735900Y-143547800D01*
%TO.C,JP3*%
X82865636Y-97580000D02*
X83319764Y-97580000D01*
X82865636Y-99050000D02*
X83319764Y-99050000D01*
%TO.C,R29*%
X60262742Y-70477500D02*
X60737258Y-70477500D01*
X60262742Y-71522500D02*
X60737258Y-71522500D01*
%TO.C,R13*%
X82706258Y-81180900D02*
X82231742Y-81180900D01*
X82706258Y-82225900D02*
X82231742Y-82225900D01*
%TO.C,R20*%
X81603100Y-123897342D02*
X81603100Y-124371858D01*
X82648100Y-123897342D02*
X82648100Y-124371858D01*
%TO.C,U5*%
X49482200Y-128083400D02*
X50742200Y-128083400D01*
X49482200Y-131843400D02*
X49482200Y-128083400D01*
X56302200Y-128083400D02*
X55042200Y-128083400D01*
X56302200Y-131843400D02*
X56302200Y-128083400D01*
X49582200Y-133123400D02*
X49252200Y-133363400D01*
X49252200Y-132883400D01*
X49582200Y-133123400D01*
G36*
X49582200Y-133123400D02*
G01*
X49252200Y-133363400D01*
X49252200Y-132883400D01*
X49582200Y-133123400D01*
G37*
%TO.C,R4*%
X69804942Y-63220900D02*
X70279458Y-63220900D01*
X69804942Y-64265900D02*
X70279458Y-64265900D01*
D12*
%TO.C,F2*%
X65733400Y-68878000D02*
X65733400Y-68878000D01*
X65733400Y-69078000D02*
X65733400Y-69078000D01*
X68333400Y-68253000D02*
X68333400Y-69703000D01*
X65733400Y-68878000D02*
G75*
G02*
X65733400Y-69078000I0J-100000D01*
G01*
X65733400Y-69078000D02*
G75*
G02*
X65733400Y-68878000I0J100000D01*
G01*
D15*
%TO.C,JP4*%
X83295364Y-95172800D02*
X82841236Y-95172800D01*
X83295364Y-96642800D02*
X82841236Y-96642800D01*
%TO.C,R21*%
X45179458Y-123770900D02*
X44704942Y-123770900D01*
X45179458Y-124815900D02*
X44704942Y-124815900D01*
%TO.C,C16*%
X60936580Y-135613400D02*
X60655420Y-135613400D01*
X60936580Y-136633400D02*
X60655420Y-136633400D01*
%TO.C,C4*%
X42582200Y-111728400D02*
X42582200Y-119793400D01*
X47102200Y-111728400D02*
X42582200Y-111728400D01*
X47102200Y-119793400D02*
X47102200Y-111728400D01*
D11*
%TO.C,J14*%
X77132200Y-140823400D02*
X77132200Y-140823400D01*
X77232200Y-140823400D02*
X77232200Y-140823400D01*
D12*
X77782200Y-139523400D02*
X77792200Y-146123400D01*
X77792200Y-146123400D02*
X87952200Y-146123400D01*
X87952200Y-135963400D02*
X77732200Y-135963400D01*
X87952200Y-146123400D02*
X87952200Y-139573400D01*
D11*
X77132200Y-140823400D02*
G75*
G02*
X77232200Y-140823400I50000J0D01*
G01*
X77232200Y-140823400D02*
G75*
G02*
X77132200Y-140823400I-50000J0D01*
G01*
D15*
%TO.C,R10*%
X82581264Y-71545000D02*
X82127136Y-71545000D01*
X82581264Y-73015000D02*
X82127136Y-73015000D01*
%TO.C,R28*%
X86200500Y-109685442D02*
X86200500Y-110159958D01*
X87245500Y-109685442D02*
X87245500Y-110159958D01*
%TO.C,JP2*%
X82868736Y-99522400D02*
X83322864Y-99522400D01*
X82868736Y-100992400D02*
X83322864Y-100992400D01*
%TO.C,REF\u002A\u002A*%
X50099878Y-106595000D02*
X50599878Y-106595000D01*
X50099878Y-107745000D02*
X50099878Y-106595000D01*
X50099878Y-107745000D02*
X50599878Y-107745000D01*
X54399878Y-106595000D02*
X53899878Y-106595000D01*
X54399878Y-107745000D02*
X53899878Y-107745000D01*
X54399878Y-107745000D02*
X54399878Y-106595000D01*
X50099878Y-107005000D02*
G75*
G02*
X50899878Y-87045000I2152544J9909758D01*
G01*
X53599878Y-87045000D02*
G75*
G02*
X54399878Y-107005000I-1352544J-10050242D01*
G01*
%TO.C,R25*%
X83793342Y-107596900D02*
X84267858Y-107596900D01*
X83793342Y-108641900D02*
X84267858Y-108641900D01*
%TO.C,LE1*%
X57777500Y-62865000D02*
X57777500Y-64335000D01*
X57777500Y-64335000D02*
X60062500Y-64335000D01*
X60062500Y-62865000D02*
X57777500Y-62865000D01*
%TO.C,U2*%
X50332200Y-114658400D02*
X58052200Y-114658400D01*
X50332200Y-114913400D02*
X50332200Y-114658400D01*
X50332200Y-125178400D02*
X50332200Y-124923400D01*
X58052200Y-114658400D02*
X58052200Y-114913400D01*
X58052200Y-124923400D02*
X58052200Y-125178400D01*
X58052200Y-125178400D02*
X50332200Y-125178400D01*
X59182200Y-125398400D02*
X58502200Y-125398400D01*
X58842200Y-124928400D01*
X59182200Y-125398400D01*
G36*
X59182200Y-125398400D02*
G01*
X58502200Y-125398400D01*
X58842200Y-124928400D01*
X59182200Y-125398400D01*
G37*
%TO.C,R18*%
X73427064Y-93865000D02*
X72972936Y-93865000D01*
X73427064Y-95335000D02*
X72972936Y-95335000D01*
%TO.C,C3*%
X72243000Y-82859980D02*
X72243000Y-82578820D01*
X73263000Y-82859980D02*
X73263000Y-82578820D01*
%TO.C,C5*%
X62682780Y-106283400D02*
X62401620Y-106283400D01*
X62682780Y-107303400D02*
X62401620Y-107303400D01*
%TO.C,C17*%
X65150000Y-138490000D02*
X66150000Y-138490000D01*
X65650000Y-137990000D02*
X65650000Y-138990000D01*
X66390000Y-137804437D02*
X66390000Y-139490000D01*
X66390000Y-137804437D02*
X67454437Y-136740000D01*
X66390000Y-144195563D02*
X66390000Y-142510000D01*
X66390000Y-144195563D02*
X67454437Y-145260000D01*
X67454437Y-136740000D02*
X74910000Y-136740000D01*
X67454437Y-145260000D02*
X74910000Y-145260000D01*
X74910000Y-136740000D02*
X74910000Y-139490000D01*
X74910000Y-145260000D02*
X74910000Y-142510000D01*
%TO.C,R30*%
X82744858Y-84254300D02*
X82270342Y-84254300D01*
X82744858Y-85299300D02*
X82270342Y-85299300D01*
D17*
%TO.C,CR1*%
X79433200Y-74578700D02*
X79433200Y-79430100D01*
X79433200Y-79430100D02*
X80078360Y-79430100D01*
X79551650Y-76273400D02*
X80821650Y-76273400D01*
X79569900Y-76985400D02*
X80839900Y-76985400D01*
X80078360Y-74578700D02*
X79433200Y-74578700D01*
X80154900Y-77023400D02*
X79519900Y-77785400D01*
X80154900Y-77023400D02*
X79646900Y-77785400D01*
X80154900Y-77023400D02*
X79773900Y-77785400D01*
X80154900Y-77023400D02*
X79900900Y-77785400D01*
X80154900Y-77023400D02*
X80027900Y-77785400D01*
X80154900Y-77023400D02*
X80318400Y-77785400D01*
X80154900Y-77023400D02*
X80468400Y-77785400D01*
X80154900Y-77023400D02*
X80662900Y-77785400D01*
X80154900Y-77023400D02*
X80789900Y-77785400D01*
X80168400Y-76054400D02*
X80168400Y-77324400D01*
X80168400Y-78054400D02*
X80168400Y-76784400D01*
X80186650Y-77035400D02*
X79551650Y-76273400D01*
X80186650Y-77035400D02*
X79678650Y-76273400D01*
X80186650Y-77035400D02*
X79805650Y-76273400D01*
X80186650Y-77035400D02*
X79932650Y-76273400D01*
X80186650Y-77035400D02*
X80059650Y-76273400D01*
X80186650Y-77035400D02*
X80250150Y-76273400D01*
X80186650Y-77035400D02*
X80400150Y-76273400D01*
X80186650Y-77035400D02*
X80567650Y-76273400D01*
X80186650Y-77035400D02*
X80694650Y-76273400D01*
X80186650Y-77035400D02*
X80821650Y-76273400D01*
X80789900Y-77785400D02*
X79519900Y-77785400D01*
X83004440Y-79430100D02*
X83649600Y-79430100D01*
X83649600Y-74578700D02*
X83004440Y-74578700D01*
X83649600Y-79430100D02*
X83649600Y-74578700D01*
D15*
%TO.C,U4*%
X42555800Y-83096200D02*
X46155800Y-83096200D01*
X42517322Y-83084678D02*
G75*
G02*
X44355800Y-78646199I1838478J1838478D01*
G01*
X44355800Y-78646200D02*
G75*
G02*
X46194278Y-83084678I0J-2600000D01*
G01*
%TO.C,R17*%
X70727500Y-105596142D02*
X70727500Y-106070658D01*
X71772500Y-105596142D02*
X71772500Y-106070658D01*
%TO.C,LE7*%
X85988000Y-105313600D02*
X85988000Y-107598600D01*
X87458000Y-105313600D02*
X85988000Y-105313600D01*
X87458000Y-107598600D02*
X87458000Y-105313600D01*
%TO.C,LE8*%
X59015000Y-68765000D02*
X59015000Y-70235000D01*
X59015000Y-70235000D02*
X61300000Y-70235000D01*
X61300000Y-68765000D02*
X59015000Y-68765000D01*
%TO.C,D1*%
X85150000Y-127865000D02*
X85150000Y-133375000D01*
X88450000Y-127865000D02*
X85150000Y-127865000D01*
X88450000Y-127865000D02*
X88450000Y-133375000D01*
D12*
%TO.C,U1*%
X73438600Y-86924200D02*
X76588600Y-86924200D01*
X73438600Y-91824200D02*
X73438600Y-86924200D01*
X76588600Y-86924200D02*
X76588600Y-91824200D01*
X76588600Y-91824200D02*
X73438600Y-91824200D01*
D18*
X76137206Y-91274200D02*
G75*
G02*
X75689994Y-91274200I-223606J0D01*
G01*
X75689994Y-91274200D02*
G75*
G02*
X76137206Y-91274200I223606J0D01*
G01*
D15*
%TO.C,R9*%
X54504942Y-77770900D02*
X54979458Y-77770900D01*
X54504942Y-78815900D02*
X54979458Y-78815900D01*
D12*
%TO.C,IC1*%
X48592200Y-73393400D02*
X52192200Y-73393400D01*
X48592200Y-77093400D02*
X48592200Y-73393400D01*
X52192200Y-73393400D02*
X52192200Y-77093400D01*
X52192200Y-77093400D02*
X48592200Y-77093400D01*
X52337200Y-71293400D02*
X52337200Y-73043400D01*
D15*
%TO.C,LE6*%
X40915000Y-136515000D02*
X40915000Y-138800000D01*
X42385000Y-136515000D02*
X40915000Y-136515000D01*
X42385000Y-138800000D02*
X42385000Y-136515000D01*
%TO.C,JP5*%
X46992200Y-126393400D02*
X48992200Y-126393400D01*
X46992200Y-129193400D02*
X46992200Y-126393400D01*
X48992200Y-126393400D02*
X48992200Y-129193400D01*
X48992200Y-129193400D02*
X46992200Y-129193400D01*
%TO.C,R23*%
X45129458Y-122070900D02*
X44654942Y-122070900D01*
X45129458Y-123115900D02*
X44654942Y-123115900D01*
D12*
%TO.C,J2*%
X72875400Y-59884800D02*
X72875400Y-70044800D01*
X72875400Y-70044800D02*
X88115400Y-69984800D01*
X88115400Y-59884800D02*
X72875400Y-59884800D01*
X88115400Y-69984800D02*
X88115400Y-59884800D01*
D11*
X88675400Y-65184800D02*
X88675400Y-65184800D01*
X88775400Y-65184800D02*
X88775400Y-65184800D01*
X88675400Y-65184800D02*
G75*
G02*
X88775400Y-65184800I50000J0D01*
G01*
X88775400Y-65184800D02*
G75*
G02*
X88675400Y-65184800I-50000J0D01*
G01*
%TD*%
M02*
