%TF.GenerationSoftware,KiCad,Pcbnew,9.0.6*%
%TF.CreationDate,2025-12-26T20:19:53+00:00*%
%TF.ProjectId,PIDI-BOX-01-MAIN-1-PZ2_ESP-A1,50494449-2d42-44f5-982d-30312d4d4149,01*%
%TF.SameCoordinates,Original*%
%TF.FileFunction,Soldermask,Bot*%
%TF.FilePolarity,Negative*%
%FSLAX46Y46*%
G04 Gerber Fmt 4.6, Leading zero omitted, Abs format (unit mm)*
G04 Created by KiCad (PCBNEW 9.0.6) date 2025-12-26 20:19:53*
%MOMM*%
%LPD*%
G01*
G04 APERTURE LIST*
G04 Aperture macros list*
%AMRoundRect*
0 Rectangle with rounded corners*
0 $1 Rounding radius*
0 $2 $3 $4 $5 $6 $7 $8 $9 X,Y pos of 4 corners*
0 Add a 4 corners polygon primitive as box body*
4,1,4,$2,$3,$4,$5,$6,$7,$8,$9,$2,$3,0*
0 Add four circle primitives for the rounded corners*
1,1,$1+$1,$2,$3*
1,1,$1+$1,$4,$5*
1,1,$1+$1,$6,$7*
1,1,$1+$1,$8,$9*
0 Add four rect primitives between the rounded corners*
20,1,$1+$1,$2,$3,$4,$5,0*
20,1,$1+$1,$4,$5,$6,$7,0*
20,1,$1+$1,$6,$7,$8,$9,0*
20,1,$1+$1,$8,$9,$2,$3,0*%
%AMRotRect*
0 Rectangle, with rotation*
0 The origin of the aperture is its center*
0 $1 length*
0 $2 width*
0 $3 Rotation angle, in degrees counterclockwise*
0 Add horizontal line*
21,1,$1,$2,0,0,$3*%
G04 Aperture macros list end*
%ADD10R,2.400000X2.400000*%
%ADD11C,2.400000*%
%ADD12R,1.700000X1.700000*%
%ADD13C,1.700000*%
%ADD14O,1.700000X1.700000*%
%ADD15RoundRect,0.102000X0.825000X0.825000X-0.825000X0.825000X-0.825000X-0.825000X0.825000X-0.825000X0*%
%ADD16C,1.854000*%
%ADD17RotRect,2.000000X2.000000X45.000000*%
%ADD18C,2.000000*%
%ADD19RoundRect,0.250000X0.600000X0.600000X-0.600000X0.600000X-0.600000X-0.600000X0.600000X-0.600000X0*%
%ADD20C,2.750000*%
%ADD21R,2.000000X1.600000*%
%ADD22O,2.000000X1.600000*%
%ADD23R,1.050000X1.500000*%
%ADD24O,1.050000X1.500000*%
G04 APERTURE END LIST*
D10*
%TO.C,J1*%
X49729600Y-65159600D03*
D11*
X44649600Y-65159600D03*
%TD*%
D12*
%TO.C,J13*%
X74342200Y-131716000D03*
D13*
X74342200Y-129176000D03*
X74342200Y-126636000D03*
X74342200Y-124096000D03*
%TD*%
D12*
%TO.C,J9*%
X80930200Y-87523400D03*
D14*
X83470200Y-87523400D03*
X80930200Y-90063400D03*
X83470200Y-90063400D03*
X80930200Y-92603400D03*
X83470200Y-92603400D03*
%TD*%
D15*
%TO.C,U3*%
X61525600Y-139950000D03*
D16*
X58985600Y-139950000D03*
X56445600Y-139950000D03*
%TD*%
D17*
%TO.C,BZ1*%
X80302194Y-130516806D03*
D18*
X85676206Y-125142794D03*
%TD*%
D12*
%TO.C,J5*%
X63520000Y-66900000D03*
D13*
X60980000Y-66900000D03*
X58440000Y-66900000D03*
X55900000Y-66900000D03*
%TD*%
D19*
%TO.C,J11*%
X77934600Y-116222000D03*
D13*
X75394600Y-116222000D03*
X77934600Y-113682000D03*
X75394600Y-113682000D03*
X77934600Y-111142000D03*
X75394600Y-111142000D03*
X77934600Y-108602000D03*
X75394600Y-108602000D03*
X77934600Y-106062000D03*
X75394600Y-106062000D03*
X77934600Y-103522000D03*
X75394600Y-103522000D03*
X77934600Y-100982000D03*
X75394600Y-100982000D03*
%TD*%
D12*
%TO.C,J3*%
X66149600Y-79089600D03*
D13*
X68689600Y-79089600D03*
X66149600Y-81629600D03*
X68689600Y-81629600D03*
X66149600Y-84169600D03*
X68689600Y-84169600D03*
X66149600Y-86709600D03*
X68689600Y-86709600D03*
X66149600Y-89249600D03*
X68689600Y-89249600D03*
X66149600Y-91789600D03*
X68689600Y-91789600D03*
X66149600Y-94329600D03*
X68689600Y-94329600D03*
X66149600Y-96869600D03*
X68689600Y-96869600D03*
X66149600Y-99409600D03*
X68689600Y-99409600D03*
X66149600Y-101949600D03*
X68689600Y-101949600D03*
X66149600Y-104489600D03*
X68689600Y-104489600D03*
X66149600Y-107029600D03*
X68689600Y-107029600D03*
X66149600Y-109569600D03*
X68689600Y-109569600D03*
X66149600Y-112109600D03*
X68689600Y-112109600D03*
X66149600Y-114649600D03*
X68689600Y-114649600D03*
X66149600Y-117189600D03*
X68689600Y-117189600D03*
X66149600Y-119729600D03*
X68689600Y-119729600D03*
X66149600Y-122269600D03*
X68689600Y-122269600D03*
X66149600Y-124809600D03*
X68689600Y-124809600D03*
X66149600Y-127349600D03*
X68689600Y-127349600D03*
%TD*%
D12*
%TO.C,J12*%
X82862200Y-114845400D03*
D13*
X82862200Y-117385400D03*
%TD*%
D20*
%TO.C,*%
X44449600Y-74259600D03*
%TD*%
%TO.C,*%
X67449600Y-132259600D03*
%TD*%
%TO.C,*%
X44449600Y-132259600D03*
%TD*%
D10*
%TO.C,J14*%
X80332200Y-140823400D03*
D11*
X85412200Y-140823400D03*
%TD*%
D12*
%TO.C,J4*%
X87135800Y-137266400D03*
%TD*%
%TO.C,J8*%
X78525200Y-137368000D03*
%TD*%
D20*
%TO.C,*%
X67449600Y-74259600D03*
%TD*%
D21*
%TO.C,REF\u002A\u002A*%
X52249878Y-107595000D03*
D22*
X52249878Y-87095000D03*
%TD*%
D23*
%TO.C,U4*%
X43085800Y-81246200D03*
D24*
X44355800Y-81246200D03*
X45625800Y-81246200D03*
%TD*%
D10*
%TO.C,J2*%
X85575400Y-65184800D03*
D11*
X80495400Y-65184800D03*
X75415400Y-65184800D03*
%TD*%
M02*
