%TF.GenerationSoftware,KiCad,Pcbnew,9.0.6*%
%TF.CreationDate,2025-12-26T20:19:53+00:00*%
%TF.ProjectId,PIDI-BOX-01-MAIN-1-PZ2_ESP-A1,50494449-2d42-44f5-982d-30312d4d4149,01*%
%TF.SameCoordinates,Original*%
%TF.FileFunction,Copper,L2,Inr*%
%TF.FilePolarity,Positive*%
%FSLAX46Y46*%
G04 Gerber Fmt 4.6, Leading zero omitted, Abs format (unit mm)*
G04 Created by KiCad (PCBNEW 9.0.6) date 2025-12-26 20:19:53*
%MOMM*%
%LPD*%
G01*
G04 APERTURE LIST*
G04 Aperture macros list*
%AMRoundRect*
0 Rectangle with rounded corners*
0 $1 Rounding radius*
0 $2 $3 $4 $5 $6 $7 $8 $9 X,Y pos of 4 corners*
0 Add a 4 corners polygon primitive as box body*
4,1,4,$2,$3,$4,$5,$6,$7,$8,$9,$2,$3,0*
0 Add four circle primitives for the rounded corners*
1,1,$1+$1,$2,$3*
1,1,$1+$1,$4,$5*
1,1,$1+$1,$6,$7*
1,1,$1+$1,$8,$9*
0 Add four rect primitives between the rounded corners*
20,1,$1+$1,$2,$3,$4,$5,0*
20,1,$1+$1,$4,$5,$6,$7,0*
20,1,$1+$1,$6,$7,$8,$9,0*
20,1,$1+$1,$8,$9,$2,$3,0*%
%AMRotRect*
0 Rectangle, with rotation*
0 The origin of the aperture is its center*
0 $1 length*
0 $2 width*
0 $3 Rotation angle, in degrees counterclockwise*
0 Add horizontal line*
21,1,$1,$2,0,0,$3*%
G04 Aperture macros list end*
%TA.AperFunction,ComponentPad*%
%ADD10R,2.400000X2.400000*%
%TD*%
%TA.AperFunction,ComponentPad*%
%ADD11C,2.400000*%
%TD*%
%TA.AperFunction,ComponentPad*%
%ADD12R,1.700000X1.700000*%
%TD*%
%TA.AperFunction,ComponentPad*%
%ADD13C,1.700000*%
%TD*%
%TA.AperFunction,ComponentPad*%
%ADD14O,1.700000X1.700000*%
%TD*%
%TA.AperFunction,ComponentPad*%
%ADD15R,1.650000X1.650000*%
%TD*%
%TA.AperFunction,ComponentPad*%
%ADD16C,1.650000*%
%TD*%
%TA.AperFunction,ComponentPad*%
%ADD17RotRect,2.000000X2.000000X45.000000*%
%TD*%
%TA.AperFunction,ComponentPad*%
%ADD18C,2.000000*%
%TD*%
%TA.AperFunction,ComponentPad*%
%ADD19RoundRect,0.250000X0.600000X0.600000X-0.600000X0.600000X-0.600000X-0.600000X0.600000X-0.600000X0*%
%TD*%
%TA.AperFunction,ComponentPad*%
%ADD20R,2.000000X1.600000*%
%TD*%
%TA.AperFunction,ComponentPad*%
%ADD21O,2.000000X1.600000*%
%TD*%
%TA.AperFunction,ComponentPad*%
%ADD22R,1.050000X1.500000*%
%TD*%
%TA.AperFunction,ComponentPad*%
%ADD23O,1.050000X1.500000*%
%TD*%
%TA.AperFunction,ViaPad*%
%ADD24C,1.000000*%
%TD*%
%TA.AperFunction,ViaPad*%
%ADD25C,0.600000*%
%TD*%
%TA.AperFunction,ViaPad*%
%ADD26C,2.000000*%
%TD*%
%TA.AperFunction,ViaPad*%
%ADD27C,1.500000*%
%TD*%
G04 APERTURE END LIST*
D10*
%TO.N,Net-(J1-Pad1)*%
%TO.C,J1*%
X49729600Y-65159600D03*
D11*
%TO.N,Net-(J1-Pad2)*%
X44649600Y-65159600D03*
%TD*%
D12*
%TO.N,+3.3V*%
%TO.C,J13*%
X74342200Y-131716000D03*
D13*
%TO.N,GND*%
X74342200Y-129176000D03*
%TO.N,SCL*%
X74342200Y-126636000D03*
%TO.N,SDA*%
X74342200Y-124096000D03*
%TD*%
D12*
%TO.N,Net-(J9-Pin_1)*%
%TO.C,J9*%
X80930200Y-87523400D03*
D14*
%TO.N,Net-(J9-Pin_2)*%
X83470200Y-87523400D03*
%TO.N,GND*%
X80930200Y-90063400D03*
%TO.N,Net-(J9-Pin_4)*%
X83470200Y-90063400D03*
%TO.N,GND*%
X80930200Y-92603400D03*
%TO.N,Net-(J9-Pin_6)*%
X83470200Y-92603400D03*
%TD*%
D15*
%TO.N,Net-(U3-+VIN)*%
%TO.C,U3*%
X61525600Y-139950000D03*
D16*
%TO.N,GND*%
X58985600Y-139950000D03*
%TO.N,+5V*%
X56445600Y-139950000D03*
%TD*%
D17*
%TO.N,+5V*%
%TO.C,BZ1*%
X80302194Y-130516806D03*
D18*
%TO.N,Net-(BZ1--)*%
X85676206Y-125142794D03*
%TD*%
D12*
%TO.N,GND*%
%TO.C,J5*%
X63520000Y-66900000D03*
D13*
%TO.N,Net-(J3-TXD0_GPIO14)*%
X60980000Y-66900000D03*
%TO.N,Net-(J3-RXD0_GPIO15)*%
X58440000Y-66900000D03*
%TO.N,+3.3V*%
X55900000Y-66900000D03*
%TD*%
D19*
%TO.N,GND*%
%TO.C,J11*%
X77934600Y-116222000D03*
D13*
X75394600Y-116222000D03*
%TO.N,/G20LE3*%
X77934600Y-113682000D03*
%TO.N,Net-(J11-Pin_4)*%
X75394600Y-113682000D03*
%TO.N,/G21LE7*%
X77934600Y-111142000D03*
%TO.N,Net-(J11-Pin_6)*%
X75394600Y-111142000D03*
%TO.N,SDA*%
X77934600Y-108602000D03*
%TO.N,Net-(J11-Pin_8)*%
X75394600Y-108602000D03*
%TO.N,SCL*%
X77934600Y-106062000D03*
%TO.N,+3.3V*%
X75394600Y-106062000D03*
%TO.N,G9LE4*%
X77934600Y-103522000D03*
%TO.N,G17LE1*%
X75394600Y-103522000D03*
%TO.N,G10LE2*%
X77934600Y-100982000D03*
%TO.N,+5V*%
X75394600Y-100982000D03*
%TD*%
D12*
%TO.N,Net-(J3-3V3_1)*%
%TO.C,J3*%
X66149600Y-79089600D03*
D13*
%TO.N,+5V*%
X68689600Y-79089600D03*
%TO.N,SDA*%
X66149600Y-81629600D03*
%TO.N,+5V*%
X68689600Y-81629600D03*
%TO.N,SCL*%
X66149600Y-84169600D03*
%TO.N,unconnected-(J3-GND_8-Pad6)*%
X68689600Y-84169600D03*
%TO.N,1_WIRE_io4*%
X66149600Y-86709600D03*
%TO.N,Net-(J3-TXD0_GPIO14)*%
X68689600Y-86709600D03*
%TO.N,GND*%
X66149600Y-89249600D03*
%TO.N,Net-(J3-RXD0_GPIO15)*%
X68689600Y-89249600D03*
%TO.N,G17LE1*%
X66149600Y-91789600D03*
%TO.N,unconnected-(J3-GPIO18-Pad12)*%
X68689600Y-91789600D03*
%TO.N,unconnected-(J3-GPIO27_GEN2-Pad13)*%
X66149600Y-94329600D03*
%TO.N,GND*%
X68689600Y-94329600D03*
%TO.N,unconnected-(J3-GPIO22_GEN3-Pad15)*%
X66149600Y-96869600D03*
%TO.N,unconnected-(J3-GEN4_GPIO23-Pad16)*%
X68689600Y-96869600D03*
%TO.N,unconnected-(J3-3V3_2-Pad17)*%
X66149600Y-99409600D03*
%TO.N,I2C_SIG1*%
X68689600Y-99409600D03*
%TO.N,G10LE2*%
X66149600Y-101949600D03*
%TO.N,GND*%
X68689600Y-101949600D03*
%TO.N,G9LE4*%
X66149600Y-104489600D03*
%TO.N,/BUT2*%
X68689600Y-104489600D03*
%TO.N,unconnected-(J3-GPIO11_SCLK-Pad23)*%
X66149600Y-107029600D03*
%TO.N,/BUT1*%
X68689600Y-107029600D03*
%TO.N,GND*%
X66149600Y-109569600D03*
%TO.N,unconnected-(J3-~{CE1}_GPIO7-Pad26)*%
X68689600Y-109569600D03*
%TO.N,unconnected-(J3-ID_SD-Pad27)*%
X66149600Y-112109600D03*
%TO.N,unconnected-(J3-ID_SC-Pad28)*%
X68689600Y-112109600D03*
%TO.N,Net-(J3-GPIO5)*%
X66149600Y-114649600D03*
%TO.N,unconnected-(J3-GND_6-Pad30)*%
X68689600Y-114649600D03*
%TO.N,Net-(J3-GPIO6)*%
X66149600Y-117189600D03*
%TO.N,unconnected-(J3-GPIO12-Pad32)*%
X68689600Y-117189600D03*
%TO.N,PWM*%
X66149600Y-119729600D03*
%TO.N,GND*%
X68689600Y-119729600D03*
%TO.N,EN_I2C*%
X66149600Y-122269600D03*
%TO.N,/BUT3*%
X68689600Y-122269600D03*
%TO.N,OPTO_IN*%
X66149600Y-124809600D03*
%TO.N,/G20LE3*%
X68689600Y-124809600D03*
%TO.N,GND*%
X66149600Y-127349600D03*
%TO.N,/G21LE7*%
X68689600Y-127349600D03*
%TD*%
D12*
%TO.N,Net-(BZ1--)*%
%TO.C,J12*%
X82862200Y-114845400D03*
D13*
%TO.N,Net-(J12-Pin_2)*%
X82862200Y-117385400D03*
%TD*%
D10*
%TO.N,GND*%
%TO.C,J14*%
X80332200Y-140823400D03*
D11*
%TO.N,Net-(D1-A)*%
X85412200Y-140823400D03*
%TD*%
D12*
%TO.N,Net-(D1-K)*%
%TO.C,J4*%
X87135800Y-137266400D03*
%TD*%
%TO.N,GND*%
%TO.C,J8*%
X78525200Y-137368000D03*
%TD*%
D20*
%TO.N,Net-(Bat1-+)*%
%TO.C,REF\u002A\u002A*%
X52249878Y-107595000D03*
D21*
%TO.N,GND*%
X52249878Y-87095000D03*
%TD*%
D22*
%TO.N,GND*%
%TO.C,U4*%
X43085800Y-81246200D03*
D23*
%TO.N,1_WIRE_io4*%
X44355800Y-81246200D03*
%TO.N,+3.3V*%
X45625800Y-81246200D03*
%TD*%
D10*
%TO.N,GND*%
%TO.C,J2*%
X85575400Y-65184800D03*
D11*
%TO.N,/1-Wire DATA*%
X80495400Y-65184800D03*
%TO.N,/1-Wire +5V*%
X75415400Y-65184800D03*
%TD*%
D24*
%TO.N,GND*%
X50661400Y-134599400D03*
X56624000Y-119270000D03*
X83827400Y-79049100D03*
X51692200Y-120493400D03*
D25*
X64447200Y-62094600D03*
D24*
X75724800Y-88231200D03*
X83300400Y-136174200D03*
D26*
X46849600Y-143259600D03*
D25*
X85910200Y-111980200D03*
D24*
X50650000Y-135602200D03*
X75013600Y-93429000D03*
X74454800Y-79265000D03*
D27*
%TO.N,+5V*%
X64091600Y-71848200D03*
D24*
X72192200Y-99585000D03*
X72192200Y-120184400D03*
X86824600Y-120209800D03*
%TO.N,+3.3V*%
X58009800Y-79200000D03*
D25*
X76718200Y-83633800D03*
X57005000Y-123105400D03*
X81744600Y-106646200D03*
D27*
X58892200Y-129849600D03*
D25*
X84958200Y-81652600D03*
D24*
X42492200Y-123443400D03*
X74113600Y-91529000D03*
D27*
X45742200Y-127143400D03*
D25*
%TO.N,1_WIRE_io4*%
X72651400Y-85056200D03*
X57919400Y-85107000D03*
%TO.N,Net-(U1-EN)*%
X85381600Y-95933200D03*
X74222700Y-86199200D03*
%TO.N,SCL*%
X60256200Y-84141800D03*
X54541200Y-124363400D03*
%TO.N,Net-(BZ1--)*%
X70650000Y-135400000D03*
%TO.N,SDA*%
X58808400Y-82719400D03*
X53488070Y-123018977D03*
D24*
%TO.N,Net-(J9-Pin_1)*%
X87383400Y-113047000D03*
D25*
%TO.N,Net-(C18-Pad1)*%
X80677800Y-98391200D03*
X81795400Y-104309400D03*
%TO.N,Net-(U1-VCC(A))*%
X80652400Y-102633000D03*
D24*
X77738600Y-94784400D03*
D25*
%TO.N,Net-(J3-GPIO6)*%
X70426600Y-65574400D03*
%TO.N,Net-(J3-GPIO5)*%
X64447200Y-64863200D03*
%TD*%
%TA.AperFunction,Conductor*%
%TO.N,GND*%
G36*
X67491044Y-125463599D02*
G01*
X67530086Y-125508656D01*
X67534551Y-125517420D01*
X67659490Y-125689386D01*
X67809813Y-125839709D01*
X67981782Y-125964650D01*
X67990546Y-125969116D01*
X68041342Y-126017091D01*
X68058136Y-126084912D01*
X68035598Y-126151047D01*
X67990546Y-126190084D01*
X67981782Y-126194549D01*
X67809813Y-126319490D01*
X67659490Y-126469813D01*
X67534549Y-126641782D01*
X67529802Y-126651099D01*
X67481827Y-126701893D01*
X67414005Y-126718687D01*
X67347871Y-126696148D01*
X67308834Y-126651095D01*
X67304226Y-126642052D01*
X67264870Y-126587882D01*
X67264869Y-126587882D01*
X66632562Y-127220190D01*
X66615525Y-127156607D01*
X66549699Y-127042593D01*
X66456607Y-126949501D01*
X66342593Y-126883675D01*
X66279009Y-126866637D01*
X66911316Y-126234328D01*
X66857147Y-126194973D01*
X66857147Y-126194972D01*
X66848100Y-126190363D01*
X66797306Y-126142388D01*
X66780512Y-126074566D01*
X66803051Y-126008432D01*
X66848108Y-125969393D01*
X66857416Y-125964651D01*
X66936607Y-125907115D01*
X67029386Y-125839709D01*
X67029388Y-125839706D01*
X67029392Y-125839704D01*
X67179704Y-125689392D01*
X67179706Y-125689388D01*
X67179709Y-125689386D01*
X67304648Y-125517420D01*
X67304647Y-125517420D01*
X67304651Y-125517416D01*
X67309114Y-125508654D01*
X67357088Y-125457859D01*
X67424908Y-125441063D01*
X67491044Y-125463599D01*
G37*
%TD.AperFunction*%
%TA.AperFunction,Conductor*%
G36*
X68223675Y-119922593D02*
G01*
X68289501Y-120036607D01*
X68382593Y-120129699D01*
X68496607Y-120195525D01*
X68560190Y-120212562D01*
X67927882Y-120844869D01*
X67927882Y-120844870D01*
X67982052Y-120884226D01*
X67982051Y-120884226D01*
X67991095Y-120888834D01*
X68041892Y-120936808D01*
X68058687Y-121004629D01*
X68036150Y-121070764D01*
X67991099Y-121109802D01*
X67981782Y-121114549D01*
X67809813Y-121239490D01*
X67659490Y-121389813D01*
X67534549Y-121561782D01*
X67530084Y-121570546D01*
X67482109Y-121621342D01*
X67414288Y-121638136D01*
X67348153Y-121615598D01*
X67309116Y-121570546D01*
X67304650Y-121561782D01*
X67179709Y-121389813D01*
X67029386Y-121239490D01*
X66857420Y-121114551D01*
X66856715Y-121114191D01*
X66848654Y-121110085D01*
X66797859Y-121062112D01*
X66781063Y-120994292D01*
X66803599Y-120928156D01*
X66848654Y-120889115D01*
X66857416Y-120884651D01*
X66879389Y-120868686D01*
X67029386Y-120759709D01*
X67029388Y-120759706D01*
X67029392Y-120759704D01*
X67179704Y-120609392D01*
X67179706Y-120609388D01*
X67179709Y-120609386D01*
X67247115Y-120516607D01*
X67304651Y-120437416D01*
X67309393Y-120428108D01*
X67357363Y-120377311D01*
X67425183Y-120360511D01*
X67491319Y-120383045D01*
X67530363Y-120428100D01*
X67534973Y-120437147D01*
X67574328Y-120491316D01*
X68206637Y-119859008D01*
X68223675Y-119922593D01*
G37*
%TD.AperFunction*%
%TA.AperFunction,Conductor*%
G36*
X67491044Y-117843599D02*
G01*
X67530086Y-117888656D01*
X67534551Y-117897420D01*
X67659490Y-118069386D01*
X67809813Y-118219709D01*
X67981779Y-118344648D01*
X67981781Y-118344649D01*
X67981784Y-118344651D01*
X67991093Y-118349394D01*
X68041890Y-118397366D01*
X68058687Y-118465187D01*
X68036152Y-118531322D01*
X67991105Y-118570360D01*
X67982046Y-118574976D01*
X67982040Y-118574980D01*
X67927882Y-118614327D01*
X67927882Y-118614328D01*
X68560191Y-119246637D01*
X68496607Y-119263675D01*
X68382593Y-119329501D01*
X68289501Y-119422593D01*
X68223675Y-119536607D01*
X68206637Y-119600191D01*
X67574328Y-118967882D01*
X67574327Y-118967882D01*
X67534980Y-119022040D01*
X67534976Y-119022046D01*
X67530360Y-119031105D01*
X67482381Y-119081897D01*
X67414559Y-119098687D01*
X67348426Y-119076143D01*
X67309394Y-119031093D01*
X67304651Y-119021784D01*
X67304649Y-119021781D01*
X67304648Y-119021779D01*
X67179709Y-118849813D01*
X67029386Y-118699490D01*
X66857420Y-118574551D01*
X66849200Y-118570363D01*
X66848654Y-118570085D01*
X66797859Y-118522112D01*
X66781063Y-118454292D01*
X66803599Y-118388156D01*
X66848654Y-118349115D01*
X66857416Y-118344651D01*
X66966791Y-118265186D01*
X67029386Y-118219709D01*
X67029388Y-118219706D01*
X67029392Y-118219704D01*
X67179704Y-118069392D01*
X67179706Y-118069388D01*
X67179709Y-118069386D01*
X67304648Y-117897420D01*
X67304647Y-117897420D01*
X67304651Y-117897416D01*
X67309114Y-117888654D01*
X67357088Y-117837859D01*
X67424908Y-117821063D01*
X67491044Y-117843599D01*
G37*
%TD.AperFunction*%
%TA.AperFunction,Conductor*%
G36*
X67264870Y-110331317D02*
G01*
X67264870Y-110331316D01*
X67304222Y-110277155D01*
X67308832Y-110268107D01*
X67356805Y-110217309D01*
X67424625Y-110200512D01*
X67490761Y-110223047D01*
X67529804Y-110268104D01*
X67534549Y-110277417D01*
X67659490Y-110449386D01*
X67809813Y-110599709D01*
X67981782Y-110724650D01*
X67990546Y-110729116D01*
X68041342Y-110777091D01*
X68058136Y-110844912D01*
X68035598Y-110911047D01*
X67990546Y-110950084D01*
X67981782Y-110954549D01*
X67809813Y-111079490D01*
X67659490Y-111229813D01*
X67534549Y-111401782D01*
X67530084Y-111410546D01*
X67482109Y-111461342D01*
X67414288Y-111478136D01*
X67348153Y-111455598D01*
X67309116Y-111410546D01*
X67304650Y-111401782D01*
X67179709Y-111229813D01*
X67029386Y-111079490D01*
X66857417Y-110954549D01*
X66848104Y-110949804D01*
X66797307Y-110901830D01*
X66780512Y-110834009D01*
X66803049Y-110767874D01*
X66848107Y-110728832D01*
X66857155Y-110724222D01*
X66911316Y-110684870D01*
X66911317Y-110684870D01*
X66279008Y-110052562D01*
X66342593Y-110035525D01*
X66456607Y-109969699D01*
X66549699Y-109876607D01*
X66615525Y-109762593D01*
X66632562Y-109699008D01*
X67264870Y-110331317D01*
G37*
%TD.AperFunction*%
%TA.AperFunction,Conductor*%
G36*
X67491044Y-107683599D02*
G01*
X67530086Y-107728656D01*
X67534551Y-107737420D01*
X67659490Y-107909386D01*
X67809813Y-108059709D01*
X67981782Y-108184650D01*
X67990546Y-108189116D01*
X68041342Y-108237091D01*
X68058136Y-108304912D01*
X68035598Y-108371047D01*
X67990546Y-108410084D01*
X67981782Y-108414549D01*
X67809813Y-108539490D01*
X67659490Y-108689813D01*
X67534549Y-108861782D01*
X67529802Y-108871099D01*
X67481827Y-108921893D01*
X67414005Y-108938687D01*
X67347871Y-108916148D01*
X67308834Y-108871095D01*
X67304226Y-108862052D01*
X67264870Y-108807882D01*
X67264869Y-108807882D01*
X66632562Y-109440190D01*
X66615525Y-109376607D01*
X66549699Y-109262593D01*
X66456607Y-109169501D01*
X66342593Y-109103675D01*
X66279009Y-109086637D01*
X66911316Y-108454328D01*
X66857147Y-108414973D01*
X66857147Y-108414972D01*
X66848100Y-108410363D01*
X66797306Y-108362388D01*
X66780512Y-108294566D01*
X66803051Y-108228432D01*
X66848108Y-108189393D01*
X66857416Y-108184651D01*
X66936607Y-108127115D01*
X67029386Y-108059709D01*
X67029388Y-108059706D01*
X67029392Y-108059704D01*
X67179704Y-107909392D01*
X67179706Y-107909388D01*
X67179709Y-107909386D01*
X67304648Y-107737420D01*
X67304647Y-107737420D01*
X67304651Y-107737416D01*
X67309114Y-107728654D01*
X67357088Y-107677859D01*
X67424908Y-107661063D01*
X67491044Y-107683599D01*
G37*
%TD.AperFunction*%
%TA.AperFunction,Conductor*%
G36*
X68223675Y-102142593D02*
G01*
X68289501Y-102256607D01*
X68382593Y-102349699D01*
X68496607Y-102415525D01*
X68560190Y-102432562D01*
X67927882Y-103064869D01*
X67927882Y-103064870D01*
X67982052Y-103104226D01*
X67982051Y-103104226D01*
X67991095Y-103108834D01*
X68041892Y-103156808D01*
X68058687Y-103224629D01*
X68036150Y-103290764D01*
X67991099Y-103329802D01*
X67981782Y-103334549D01*
X67809813Y-103459490D01*
X67659490Y-103609813D01*
X67534549Y-103781782D01*
X67530084Y-103790546D01*
X67482109Y-103841342D01*
X67414288Y-103858136D01*
X67348153Y-103835598D01*
X67309116Y-103790546D01*
X67304650Y-103781782D01*
X67179709Y-103609813D01*
X67029386Y-103459490D01*
X66857420Y-103334551D01*
X66856715Y-103334191D01*
X66848654Y-103330085D01*
X66797859Y-103282112D01*
X66781063Y-103214292D01*
X66803599Y-103148156D01*
X66848654Y-103109115D01*
X66857416Y-103104651D01*
X66918393Y-103060349D01*
X67029386Y-102979709D01*
X67029388Y-102979706D01*
X67029392Y-102979704D01*
X67179704Y-102829392D01*
X67179706Y-102829388D01*
X67179709Y-102829386D01*
X67247115Y-102736607D01*
X67304651Y-102657416D01*
X67309393Y-102648108D01*
X67357363Y-102597311D01*
X67425183Y-102580511D01*
X67491319Y-102603045D01*
X67530363Y-102648100D01*
X67534973Y-102657147D01*
X67574328Y-102711316D01*
X68206637Y-102079008D01*
X68223675Y-102142593D01*
G37*
%TD.AperFunction*%
%TA.AperFunction,Conductor*%
G36*
X67491044Y-100063599D02*
G01*
X67530086Y-100108656D01*
X67534551Y-100117420D01*
X67659490Y-100289386D01*
X67809813Y-100439709D01*
X67981779Y-100564648D01*
X67981781Y-100564649D01*
X67981784Y-100564651D01*
X67991093Y-100569394D01*
X68041890Y-100617366D01*
X68058687Y-100685187D01*
X68036152Y-100751322D01*
X67991105Y-100790360D01*
X67982046Y-100794976D01*
X67982040Y-100794980D01*
X67927882Y-100834327D01*
X67927882Y-100834328D01*
X68560191Y-101466637D01*
X68496607Y-101483675D01*
X68382593Y-101549501D01*
X68289501Y-101642593D01*
X68223675Y-101756607D01*
X68206637Y-101820191D01*
X67574328Y-101187882D01*
X67574327Y-101187882D01*
X67534980Y-101242040D01*
X67534976Y-101242046D01*
X67530360Y-101251105D01*
X67482381Y-101301897D01*
X67414559Y-101318687D01*
X67348426Y-101296143D01*
X67309394Y-101251093D01*
X67304651Y-101241784D01*
X67304649Y-101241781D01*
X67304648Y-101241779D01*
X67179709Y-101069813D01*
X67029386Y-100919490D01*
X66857420Y-100794551D01*
X66856715Y-100794191D01*
X66848654Y-100790085D01*
X66797859Y-100742112D01*
X66781063Y-100674292D01*
X66803599Y-100608156D01*
X66848654Y-100569115D01*
X66857416Y-100564651D01*
X66881639Y-100547052D01*
X67029386Y-100439709D01*
X67029388Y-100439706D01*
X67029392Y-100439704D01*
X67179704Y-100289392D01*
X67179706Y-100289388D01*
X67179709Y-100289386D01*
X67304648Y-100117420D01*
X67304647Y-100117420D01*
X67304651Y-100117416D01*
X67309114Y-100108654D01*
X67357088Y-100057859D01*
X67424908Y-100041063D01*
X67491044Y-100063599D01*
G37*
%TD.AperFunction*%
%TA.AperFunction,Conductor*%
G36*
X68223675Y-94522593D02*
G01*
X68289501Y-94636607D01*
X68382593Y-94729699D01*
X68496607Y-94795525D01*
X68560190Y-94812562D01*
X67927882Y-95444869D01*
X67927882Y-95444870D01*
X67982052Y-95484226D01*
X67982051Y-95484226D01*
X67991095Y-95488834D01*
X68041892Y-95536808D01*
X68058687Y-95604629D01*
X68036150Y-95670764D01*
X67991099Y-95709802D01*
X67981782Y-95714549D01*
X67809813Y-95839490D01*
X67659490Y-95989813D01*
X67534549Y-96161782D01*
X67530084Y-96170546D01*
X67482109Y-96221342D01*
X67414288Y-96238136D01*
X67348153Y-96215598D01*
X67309116Y-96170546D01*
X67304650Y-96161782D01*
X67179709Y-95989813D01*
X67029386Y-95839490D01*
X66857420Y-95714551D01*
X66856715Y-95714191D01*
X66848654Y-95710085D01*
X66797859Y-95662112D01*
X66781063Y-95594292D01*
X66803599Y-95528156D01*
X66848654Y-95489115D01*
X66857416Y-95484651D01*
X66912172Y-95444869D01*
X67029386Y-95359709D01*
X67029388Y-95359706D01*
X67029392Y-95359704D01*
X67179704Y-95209392D01*
X67179706Y-95209388D01*
X67179709Y-95209386D01*
X67265490Y-95091317D01*
X67304651Y-95037416D01*
X67309393Y-95028108D01*
X67357363Y-94977311D01*
X67425183Y-94960511D01*
X67491319Y-94983045D01*
X67530363Y-95028100D01*
X67534973Y-95037147D01*
X67574328Y-95091316D01*
X68206637Y-94459008D01*
X68223675Y-94522593D01*
G37*
%TD.AperFunction*%
%TA.AperFunction,Conductor*%
G36*
X67491044Y-92443599D02*
G01*
X67530084Y-92488654D01*
X67534191Y-92496715D01*
X67534551Y-92497420D01*
X67659490Y-92669386D01*
X67809813Y-92819709D01*
X67981779Y-92944648D01*
X67981781Y-92944649D01*
X67981784Y-92944651D01*
X67991093Y-92949394D01*
X68041890Y-92997366D01*
X68058687Y-93065187D01*
X68036152Y-93131322D01*
X67991105Y-93170360D01*
X67982046Y-93174976D01*
X67982040Y-93174980D01*
X67927882Y-93214327D01*
X67927882Y-93214328D01*
X68560191Y-93846637D01*
X68496607Y-93863675D01*
X68382593Y-93929501D01*
X68289501Y-94022593D01*
X68223675Y-94136607D01*
X68206637Y-94200191D01*
X67574328Y-93567882D01*
X67574327Y-93567882D01*
X67534980Y-93622040D01*
X67534976Y-93622046D01*
X67530360Y-93631105D01*
X67482381Y-93681897D01*
X67414559Y-93698687D01*
X67348426Y-93676143D01*
X67309394Y-93631093D01*
X67304651Y-93621784D01*
X67304649Y-93621781D01*
X67304648Y-93621779D01*
X67179709Y-93449813D01*
X67029386Y-93299490D01*
X66857420Y-93174551D01*
X66849200Y-93170363D01*
X66848654Y-93170085D01*
X66797859Y-93122112D01*
X66781063Y-93054292D01*
X66803599Y-92988156D01*
X66848654Y-92949115D01*
X66857416Y-92944651D01*
X66904549Y-92910407D01*
X67029386Y-92819709D01*
X67029388Y-92819706D01*
X67029392Y-92819704D01*
X67179704Y-92669392D01*
X67179706Y-92669388D01*
X67179709Y-92669386D01*
X67304648Y-92497420D01*
X67304647Y-92497420D01*
X67304651Y-92497416D01*
X67309114Y-92488654D01*
X67357088Y-92437859D01*
X67424908Y-92421063D01*
X67491044Y-92443599D01*
G37*
%TD.AperFunction*%
%TA.AperFunction,Conductor*%
G36*
X67264870Y-90011317D02*
G01*
X67264870Y-90011316D01*
X67304222Y-89957155D01*
X67308832Y-89948107D01*
X67356805Y-89897309D01*
X67424625Y-89880512D01*
X67490761Y-89903047D01*
X67529804Y-89948104D01*
X67534549Y-89957417D01*
X67659490Y-90129386D01*
X67809813Y-90279709D01*
X67981782Y-90404650D01*
X67990546Y-90409116D01*
X68041342Y-90457091D01*
X68058136Y-90524912D01*
X68035598Y-90591047D01*
X67990546Y-90630084D01*
X67981782Y-90634549D01*
X67809813Y-90759490D01*
X67659490Y-90909813D01*
X67534549Y-91081782D01*
X67530084Y-91090546D01*
X67482109Y-91141342D01*
X67414288Y-91158136D01*
X67348153Y-91135598D01*
X67309116Y-91090546D01*
X67304650Y-91081782D01*
X67179709Y-90909813D01*
X67029386Y-90759490D01*
X66857417Y-90634549D01*
X66848104Y-90629804D01*
X66797307Y-90581830D01*
X66780512Y-90514009D01*
X66803049Y-90447874D01*
X66848107Y-90408832D01*
X66857155Y-90404222D01*
X66911316Y-90364870D01*
X66911317Y-90364870D01*
X66279008Y-89732562D01*
X66342593Y-89715525D01*
X66456607Y-89649699D01*
X66549699Y-89556607D01*
X66615525Y-89442593D01*
X66632562Y-89379008D01*
X67264870Y-90011317D01*
G37*
%TD.AperFunction*%
%TA.AperFunction,Conductor*%
G36*
X67491044Y-87363599D02*
G01*
X67530086Y-87408656D01*
X67534551Y-87417420D01*
X67659490Y-87589386D01*
X67809813Y-87739709D01*
X67981782Y-87864650D01*
X67990546Y-87869116D01*
X68041342Y-87917091D01*
X68058136Y-87984912D01*
X68035598Y-88051047D01*
X67990546Y-88090084D01*
X67981782Y-88094549D01*
X67809813Y-88219490D01*
X67659490Y-88369813D01*
X67534549Y-88541782D01*
X67529802Y-88551099D01*
X67481827Y-88601893D01*
X67414005Y-88618687D01*
X67347871Y-88596148D01*
X67308834Y-88551095D01*
X67304226Y-88542052D01*
X67264870Y-88487882D01*
X67264869Y-88487882D01*
X66632562Y-89120190D01*
X66615525Y-89056607D01*
X66549699Y-88942593D01*
X66456607Y-88849501D01*
X66342593Y-88783675D01*
X66279009Y-88766637D01*
X66911316Y-88134328D01*
X66857147Y-88094973D01*
X66857147Y-88094972D01*
X66848100Y-88090363D01*
X66797306Y-88042388D01*
X66780512Y-87974566D01*
X66803051Y-87908432D01*
X66848108Y-87869393D01*
X66857416Y-87864651D01*
X66936607Y-87807115D01*
X67029386Y-87739709D01*
X67029388Y-87739706D01*
X67029392Y-87739704D01*
X67179704Y-87589392D01*
X67179706Y-87589388D01*
X67179709Y-87589386D01*
X67304648Y-87417420D01*
X67304647Y-87417420D01*
X67304651Y-87417416D01*
X67309114Y-87408654D01*
X67357088Y-87357859D01*
X67424908Y-87341063D01*
X67491044Y-87363599D01*
G37*
%TD.AperFunction*%
%TA.AperFunction,Conductor*%
G36*
X76736044Y-114335999D02*
G01*
X76775086Y-114381056D01*
X76779551Y-114389820D01*
X76904490Y-114561786D01*
X76904496Y-114561792D01*
X77054808Y-114712104D01*
X77054809Y-114712105D01*
X77054808Y-114712105D01*
X77060198Y-114716020D01*
X77102867Y-114771348D01*
X77108849Y-114840961D01*
X77076247Y-114902758D01*
X77026329Y-114934046D01*
X77015481Y-114937641D01*
X77015475Y-114937643D01*
X76866254Y-115029684D01*
X76742284Y-115153654D01*
X76650243Y-115302875D01*
X76650242Y-115302878D01*
X76626406Y-115374811D01*
X76586633Y-115432255D01*
X76522117Y-115459078D01*
X76510906Y-115459245D01*
X75877562Y-116092590D01*
X75860525Y-116029007D01*
X75794699Y-115914993D01*
X75701607Y-115821901D01*
X75587593Y-115756075D01*
X75524009Y-115739037D01*
X76156316Y-115106728D01*
X76102147Y-115067373D01*
X76102147Y-115067372D01*
X76093100Y-115062763D01*
X76042306Y-115014788D01*
X76025512Y-114946966D01*
X76048051Y-114880832D01*
X76093108Y-114841793D01*
X76102416Y-114837051D01*
X76207121Y-114760979D01*
X76274386Y-114712109D01*
X76274388Y-114712106D01*
X76274392Y-114712104D01*
X76424704Y-114561792D01*
X76424706Y-114561788D01*
X76424709Y-114561786D01*
X76549648Y-114389820D01*
X76549647Y-114389820D01*
X76549651Y-114389816D01*
X76554114Y-114381054D01*
X76602088Y-114330259D01*
X76669908Y-114313463D01*
X76736044Y-114335999D01*
G37*
%TD.AperFunction*%
%TA.AperFunction,Conductor*%
G36*
X81180200Y-92170388D02*
G01*
X81123193Y-92137475D01*
X80996026Y-92103400D01*
X80864374Y-92103400D01*
X80737207Y-92137475D01*
X80680200Y-92170388D01*
X80680200Y-90496412D01*
X80737207Y-90529325D01*
X80864374Y-90563400D01*
X80996026Y-90563400D01*
X81123193Y-90529325D01*
X81180200Y-90496412D01*
X81180200Y-92170388D01*
G37*
%TD.AperFunction*%
%TA.AperFunction,Conductor*%
G36*
X89455139Y-60403985D02*
G01*
X89500894Y-60456789D01*
X89512100Y-60508300D01*
X89512100Y-145559300D01*
X89492415Y-145626339D01*
X89439611Y-145672094D01*
X89388100Y-145683300D01*
X40717100Y-145683300D01*
X40650061Y-145663615D01*
X40604306Y-145610811D01*
X40593100Y-145559300D01*
X40593100Y-139845675D01*
X55120100Y-139845675D01*
X55120100Y-140054324D01*
X55152737Y-140260389D01*
X55217212Y-140458820D01*
X55306370Y-140633802D01*
X55311930Y-140644714D01*
X55434565Y-140813505D01*
X55582095Y-140961035D01*
X55750886Y-141083670D01*
X55838716Y-141128421D01*
X55936779Y-141178387D01*
X55936781Y-141178387D01*
X55936784Y-141178389D01*
X56043145Y-141212948D01*
X56135210Y-141242862D01*
X56341276Y-141275500D01*
X56341281Y-141275500D01*
X56549924Y-141275500D01*
X56755989Y-141242862D01*
X56771719Y-141237751D01*
X56954416Y-141178389D01*
X57140314Y-141083670D01*
X57309105Y-140961035D01*
X57456635Y-140813505D01*
X57579270Y-140644714D01*
X57605396Y-140593437D01*
X57653369Y-140542642D01*
X57721190Y-140525846D01*
X57787325Y-140548383D01*
X57826366Y-140593437D01*
X57852359Y-140644451D01*
X57888227Y-140693818D01*
X57888227Y-140693819D01*
X58461812Y-140120234D01*
X58473082Y-140162292D01*
X58545490Y-140287708D01*
X58647892Y-140390110D01*
X58773308Y-140462518D01*
X58815365Y-140473787D01*
X58241779Y-141047371D01*
X58241780Y-141047372D01*
X58291143Y-141083236D01*
X58291156Y-141083244D01*
X58476972Y-141177924D01*
X58675327Y-141242373D01*
X58881321Y-141275000D01*
X59089879Y-141275000D01*
X59295872Y-141242373D01*
X59494227Y-141177924D01*
X59680051Y-141083240D01*
X59729418Y-141047372D01*
X59729418Y-141047371D01*
X59155834Y-140473787D01*
X59197892Y-140462518D01*
X59323308Y-140390110D01*
X59425710Y-140287708D01*
X59498118Y-140162292D01*
X59509387Y-140120234D01*
X60089039Y-140699886D01*
X60134747Y-140709488D01*
X60184505Y-140758539D01*
X60200100Y-140818725D01*
X60200100Y-140822861D01*
X60200101Y-140822876D01*
X60206508Y-140882483D01*
X60256802Y-141017328D01*
X60256806Y-141017335D01*
X60343052Y-141132544D01*
X60343055Y-141132547D01*
X60458264Y-141218793D01*
X60458271Y-141218797D01*
X60593117Y-141269091D01*
X60593116Y-141269091D01*
X60600044Y-141269835D01*
X60652727Y-141275500D01*
X62398472Y-141275499D01*
X62458083Y-141269091D01*
X62592931Y-141218796D01*
X62708146Y-141132546D01*
X62794396Y-141017331D01*
X62844691Y-140882483D01*
X62851100Y-140822873D01*
X62851099Y-139575555D01*
X78632200Y-139575555D01*
X78632200Y-140573400D01*
X79732199Y-140573400D01*
X79707179Y-140633802D01*
X79682200Y-140759381D01*
X79682200Y-140887419D01*
X79707179Y-141012998D01*
X79732199Y-141073400D01*
X78632200Y-141073400D01*
X78632200Y-142071244D01*
X78638601Y-142130772D01*
X78638603Y-142130779D01*
X78688845Y-142265486D01*
X78688849Y-142265493D01*
X78775009Y-142380587D01*
X78775012Y-142380590D01*
X78890106Y-142466750D01*
X78890113Y-142466754D01*
X79024820Y-142516996D01*
X79024827Y-142516998D01*
X79084355Y-142523399D01*
X79084372Y-142523400D01*
X80082200Y-142523400D01*
X80082200Y-141423401D01*
X80142602Y-141448421D01*
X80268181Y-141473400D01*
X80396219Y-141473400D01*
X80521798Y-141448421D01*
X80582200Y-141423401D01*
X80582200Y-142523400D01*
X81580028Y-142523400D01*
X81580044Y-142523399D01*
X81639572Y-142516998D01*
X81639579Y-142516996D01*
X81774286Y-142466754D01*
X81774293Y-142466750D01*
X81889387Y-142380590D01*
X81889390Y-142380587D01*
X81975550Y-142265493D01*
X81975554Y-142265486D01*
X82025796Y-142130779D01*
X82025798Y-142130772D01*
X82032199Y-142071244D01*
X82032200Y-142071227D01*
X82032200Y-141073400D01*
X80932201Y-141073400D01*
X80957221Y-141012998D01*
X80982200Y-140887419D01*
X80982200Y-140759381D01*
X80972765Y-140711949D01*
X83711700Y-140711949D01*
X83711700Y-140934850D01*
X83711701Y-140934866D01*
X83740794Y-141155852D01*
X83740795Y-141155857D01*
X83740796Y-141155863D01*
X83786997Y-141328288D01*
X83798490Y-141371180D01*
X83798493Y-141371190D01*
X83840830Y-141473400D01*
X83883795Y-141577126D01*
X83995252Y-141770174D01*
X83995257Y-141770180D01*
X83995258Y-141770182D01*
X84130951Y-141947022D01*
X84130957Y-141947029D01*
X84288570Y-142104642D01*
X84288576Y-142104647D01*
X84465426Y-142240348D01*
X84658474Y-142351805D01*
X84864419Y-142437110D01*
X85079737Y-142494804D01*
X85300743Y-142523900D01*
X85300750Y-142523900D01*
X85523650Y-142523900D01*
X85523657Y-142523900D01*
X85744663Y-142494804D01*
X85959981Y-142437110D01*
X86165926Y-142351805D01*
X86358974Y-142240348D01*
X86535824Y-142104647D01*
X86693447Y-141947024D01*
X86829148Y-141770174D01*
X86940605Y-141577126D01*
X87025910Y-141371181D01*
X87083604Y-141155863D01*
X87112700Y-140934857D01*
X87112700Y-140711943D01*
X87083604Y-140490937D01*
X87025910Y-140275619D01*
X86940605Y-140069674D01*
X86829148Y-139876626D01*
X86693447Y-139699776D01*
X86693442Y-139699770D01*
X86535829Y-139542157D01*
X86535822Y-139542151D01*
X86358982Y-139406458D01*
X86358980Y-139406457D01*
X86358974Y-139406452D01*
X86165926Y-139294995D01*
X86165922Y-139294993D01*
X85959990Y-139209693D01*
X85959983Y-139209691D01*
X85959981Y-139209690D01*
X85744663Y-139151996D01*
X85744657Y-139151995D01*
X85744652Y-139151994D01*
X85523666Y-139122901D01*
X85523663Y-139122900D01*
X85523657Y-139122900D01*
X85300743Y-139122900D01*
X85300737Y-139122900D01*
X85300733Y-139122901D01*
X85079747Y-139151994D01*
X85079740Y-139151995D01*
X85079737Y-139151996D01*
X84922792Y-139194049D01*
X84864419Y-139209690D01*
X84864409Y-139209693D01*
X84658477Y-139294993D01*
X84658473Y-139294995D01*
X84465426Y-139406452D01*
X84465417Y-139406458D01*
X84288577Y-139542151D01*
X84288570Y-139542157D01*
X84130957Y-139699770D01*
X84130951Y-139699777D01*
X83995258Y-139876617D01*
X83995252Y-139876626D01*
X83883795Y-140069673D01*
X83883793Y-140069677D01*
X83798493Y-140275609D01*
X83798490Y-140275619D01*
X83740797Y-140490934D01*
X83740794Y-140490947D01*
X83711701Y-140711933D01*
X83711700Y-140711949D01*
X80972765Y-140711949D01*
X80957221Y-140633802D01*
X80932201Y-140573400D01*
X82032200Y-140573400D01*
X82032200Y-139575572D01*
X82032199Y-139575555D01*
X82025798Y-139516027D01*
X82025796Y-139516020D01*
X81975554Y-139381313D01*
X81975550Y-139381306D01*
X81889390Y-139266212D01*
X81889387Y-139266209D01*
X81774293Y-139180049D01*
X81774286Y-139180045D01*
X81639579Y-139129803D01*
X81639572Y-139129801D01*
X81580044Y-139123400D01*
X80582200Y-139123400D01*
X80582200Y-140223398D01*
X80521798Y-140198379D01*
X80396219Y-140173400D01*
X80268181Y-140173400D01*
X80142602Y-140198379D01*
X80082200Y-140223398D01*
X80082200Y-139123400D01*
X79084355Y-139123400D01*
X79024827Y-139129801D01*
X79024820Y-139129803D01*
X78890113Y-139180045D01*
X78890106Y-139180049D01*
X78775012Y-139266209D01*
X78775009Y-139266212D01*
X78688849Y-139381306D01*
X78688845Y-139381313D01*
X78638603Y-139516020D01*
X78638601Y-139516027D01*
X78632200Y-139575555D01*
X62851099Y-139575555D01*
X62851099Y-139077128D01*
X62844691Y-139017517D01*
X62815393Y-138938966D01*
X62794397Y-138882671D01*
X62794393Y-138882664D01*
X62708147Y-138767455D01*
X62708144Y-138767452D01*
X62592935Y-138681206D01*
X62592928Y-138681202D01*
X62458082Y-138630908D01*
X62458083Y-138630908D01*
X62398483Y-138624501D01*
X62398481Y-138624500D01*
X62398473Y-138624500D01*
X62398464Y-138624500D01*
X60652729Y-138624500D01*
X60652723Y-138624501D01*
X60593116Y-138630908D01*
X60458271Y-138681202D01*
X60458264Y-138681206D01*
X60343055Y-138767452D01*
X60343052Y-138767455D01*
X60256806Y-138882664D01*
X60256802Y-138882671D01*
X60206508Y-139017517D01*
X60200101Y-139077116D01*
X60200101Y-139077123D01*
X60200100Y-139077135D01*
X60200100Y-139081255D01*
X60180415Y-139148294D01*
X60127611Y-139194049D01*
X60088122Y-139201028D01*
X59509387Y-139779764D01*
X59498118Y-139737708D01*
X59425710Y-139612292D01*
X59323308Y-139509890D01*
X59197892Y-139437482D01*
X59155833Y-139426212D01*
X59729419Y-138852627D01*
X59680051Y-138816759D01*
X59494227Y-138722075D01*
X59295872Y-138657626D01*
X59089879Y-138625000D01*
X58881321Y-138625000D01*
X58675327Y-138657626D01*
X58476972Y-138722075D01*
X58291152Y-138816757D01*
X58241780Y-138852627D01*
X58815366Y-139426212D01*
X58773308Y-139437482D01*
X58647892Y-139509890D01*
X58545490Y-139612292D01*
X58473082Y-139737708D01*
X58461812Y-139779765D01*
X57888227Y-139206180D01*
X57852355Y-139255555D01*
X57826365Y-139306563D01*
X57778390Y-139357358D01*
X57710569Y-139374153D01*
X57644434Y-139351615D01*
X57605396Y-139306561D01*
X57579271Y-139255287D01*
X57504225Y-139151997D01*
X57456635Y-139086495D01*
X57309105Y-138938965D01*
X57140314Y-138816330D01*
X56954420Y-138721612D01*
X56755989Y-138657137D01*
X56549924Y-138624500D01*
X56549919Y-138624500D01*
X56341281Y-138624500D01*
X56341276Y-138624500D01*
X56135210Y-138657137D01*
X55936779Y-138721612D01*
X55750885Y-138816330D01*
X55582093Y-138938966D01*
X55434566Y-139086493D01*
X55311930Y-139255285D01*
X55217212Y-139441179D01*
X55152737Y-139639610D01*
X55120100Y-139845675D01*
X40593100Y-139845675D01*
X40593100Y-136470155D01*
X77175200Y-136470155D01*
X77175200Y-137118000D01*
X78092188Y-137118000D01*
X78059275Y-137175007D01*
X78025200Y-137302174D01*
X78025200Y-137433826D01*
X78059275Y-137560993D01*
X78092188Y-137618000D01*
X77175200Y-137618000D01*
X77175200Y-138265844D01*
X77181601Y-138325372D01*
X77181603Y-138325379D01*
X77231845Y-138460086D01*
X77231849Y-138460093D01*
X77318009Y-138575187D01*
X77318012Y-138575190D01*
X77433106Y-138661350D01*
X77433113Y-138661354D01*
X77567820Y-138711596D01*
X77567827Y-138711598D01*
X77627355Y-138717999D01*
X77627372Y-138718000D01*
X78275200Y-138718000D01*
X78275200Y-137801012D01*
X78332207Y-137833925D01*
X78459374Y-137868000D01*
X78591026Y-137868000D01*
X78718193Y-137833925D01*
X78775200Y-137801012D01*
X78775200Y-138718000D01*
X79423028Y-138718000D01*
X79423044Y-138717999D01*
X79482572Y-138711598D01*
X79482579Y-138711596D01*
X79617286Y-138661354D01*
X79617293Y-138661350D01*
X79732387Y-138575190D01*
X79732390Y-138575187D01*
X79818550Y-138460093D01*
X79818554Y-138460086D01*
X79868796Y-138325379D01*
X79868798Y-138325372D01*
X79875199Y-138265844D01*
X79875200Y-138265827D01*
X79875200Y-137618000D01*
X78958212Y-137618000D01*
X78991125Y-137560993D01*
X79025200Y-137433826D01*
X79025200Y-137302174D01*
X78991125Y-137175007D01*
X78958212Y-137118000D01*
X79875200Y-137118000D01*
X79875200Y-136470172D01*
X79875199Y-136470155D01*
X79868798Y-136410627D01*
X79868796Y-136410618D01*
X79868019Y-136408534D01*
X79868018Y-136408533D01*
X79853100Y-136368535D01*
X85785300Y-136368535D01*
X85785300Y-138164270D01*
X85785301Y-138164276D01*
X85791708Y-138223883D01*
X85842002Y-138358728D01*
X85842006Y-138358735D01*
X85928252Y-138473944D01*
X85928255Y-138473947D01*
X86043464Y-138560193D01*
X86043471Y-138560197D01*
X86178317Y-138610491D01*
X86178316Y-138610491D01*
X86185244Y-138611235D01*
X86237927Y-138616900D01*
X88033672Y-138616899D01*
X88093283Y-138610491D01*
X88228131Y-138560196D01*
X88343346Y-138473946D01*
X88429596Y-138358731D01*
X88479891Y-138223883D01*
X88486300Y-138164273D01*
X88486299Y-136368528D01*
X88479891Y-136308917D01*
X88467581Y-136275913D01*
X88429597Y-136174071D01*
X88429593Y-136174064D01*
X88343347Y-136058855D01*
X88343344Y-136058852D01*
X88228135Y-135972606D01*
X88228128Y-135972602D01*
X88093282Y-135922308D01*
X88093283Y-135922308D01*
X88033683Y-135915901D01*
X88033681Y-135915900D01*
X88033673Y-135915900D01*
X88033664Y-135915900D01*
X86237929Y-135915900D01*
X86237923Y-135915901D01*
X86178316Y-135922308D01*
X86043471Y-135972602D01*
X86043464Y-135972606D01*
X85928255Y-136058852D01*
X85928252Y-136058855D01*
X85842006Y-136174064D01*
X85842002Y-136174071D01*
X85791708Y-136308917D01*
X85785301Y-136368516D01*
X85785301Y-136368523D01*
X85785300Y-136368535D01*
X79853100Y-136368535D01*
X79818554Y-136275913D01*
X79818550Y-136275906D01*
X79732390Y-136160812D01*
X79732387Y-136160809D01*
X79617293Y-136074649D01*
X79617286Y-136074645D01*
X79482579Y-136024403D01*
X79482572Y-136024401D01*
X79423044Y-136018000D01*
X78775200Y-136018000D01*
X78775200Y-136934988D01*
X78718193Y-136902075D01*
X78591026Y-136868000D01*
X78459374Y-136868000D01*
X78332207Y-136902075D01*
X78275200Y-136934988D01*
X78275200Y-136018000D01*
X77627355Y-136018000D01*
X77567827Y-136024401D01*
X77567820Y-136024403D01*
X77433113Y-136074645D01*
X77433106Y-136074649D01*
X77318012Y-136160809D01*
X77318009Y-136160812D01*
X77231849Y-136275906D01*
X77231845Y-136275913D01*
X77181603Y-136410620D01*
X77181601Y-136410627D01*
X77175200Y-136470155D01*
X40593100Y-136470155D01*
X40593100Y-135321153D01*
X69849500Y-135321153D01*
X69849500Y-135478846D01*
X69880261Y-135633489D01*
X69880264Y-135633501D01*
X69940602Y-135779172D01*
X69940609Y-135779185D01*
X70028210Y-135910288D01*
X70028213Y-135910292D01*
X70139707Y-136021786D01*
X70139711Y-136021789D01*
X70270814Y-136109390D01*
X70270827Y-136109397D01*
X70394956Y-136160812D01*
X70416503Y-136169737D01*
X70571153Y-136200499D01*
X70571156Y-136200500D01*
X70571158Y-136200500D01*
X70728844Y-136200500D01*
X70728845Y-136200499D01*
X70883497Y-136169737D01*
X71029179Y-136109394D01*
X71160289Y-136021789D01*
X71271789Y-135910289D01*
X71359394Y-135779179D01*
X71419737Y-135633497D01*
X71450500Y-135478842D01*
X71450500Y-135321158D01*
X71450500Y-135321155D01*
X71450499Y-135321153D01*
X71419738Y-135166510D01*
X71419737Y-135166503D01*
X71419735Y-135166498D01*
X71359397Y-135020827D01*
X71359390Y-135020814D01*
X71271789Y-134889711D01*
X71271786Y-134889707D01*
X71160292Y-134778213D01*
X71160288Y-134778210D01*
X71029185Y-134690609D01*
X71029172Y-134690602D01*
X70883501Y-134630264D01*
X70883489Y-134630261D01*
X70728845Y-134599500D01*
X70728842Y-134599500D01*
X70571158Y-134599500D01*
X70571155Y-134599500D01*
X70416510Y-134630261D01*
X70416498Y-134630264D01*
X70270827Y-134690602D01*
X70270814Y-134690609D01*
X70139711Y-134778210D01*
X70139707Y-134778213D01*
X70028213Y-134889707D01*
X70028210Y-134889711D01*
X69940609Y-135020814D01*
X69940602Y-135020827D01*
X69880264Y-135166498D01*
X69880261Y-135166510D01*
X69849500Y-135321153D01*
X40593100Y-135321153D01*
X40593100Y-132131670D01*
X42824100Y-132131670D01*
X42824100Y-132387530D01*
X42828639Y-132416185D01*
X42864126Y-132640240D01*
X42943188Y-132883572D01*
X42943189Y-132883575D01*
X43059350Y-133111550D01*
X43209732Y-133318535D01*
X43209736Y-133318540D01*
X43390659Y-133499463D01*
X43390664Y-133499467D01*
X43571207Y-133630638D01*
X43597653Y-133649852D01*
X43746680Y-133725785D01*
X43825624Y-133766010D01*
X43825627Y-133766011D01*
X43947293Y-133805542D01*
X44068961Y-133845074D01*
X44321670Y-133885100D01*
X44321671Y-133885100D01*
X44577529Y-133885100D01*
X44577530Y-133885100D01*
X44830239Y-133845074D01*
X45073575Y-133766010D01*
X45301547Y-133649852D01*
X45508542Y-133499462D01*
X45689462Y-133318542D01*
X45839852Y-133111547D01*
X45956010Y-132883575D01*
X46035074Y-132640239D01*
X46075100Y-132387530D01*
X46075100Y-132131670D01*
X65824100Y-132131670D01*
X65824100Y-132387530D01*
X65828639Y-132416185D01*
X65864126Y-132640240D01*
X65943188Y-132883572D01*
X65943189Y-132883575D01*
X66059350Y-133111550D01*
X66209732Y-133318535D01*
X66209736Y-133318540D01*
X66390659Y-133499463D01*
X66390664Y-133499467D01*
X66571207Y-133630638D01*
X66597653Y-133649852D01*
X66746680Y-133725785D01*
X66825624Y-133766010D01*
X66825627Y-133766011D01*
X66947293Y-133805542D01*
X67068961Y-133845074D01*
X67321670Y-133885100D01*
X67321671Y-133885100D01*
X67577529Y-133885100D01*
X67577530Y-133885100D01*
X67830239Y-133845074D01*
X68073575Y-133766010D01*
X68301547Y-133649852D01*
X68508542Y-133499462D01*
X68689462Y-133318542D01*
X68839852Y-133111547D01*
X68956010Y-132883575D01*
X69035074Y-132640239D01*
X69075100Y-132387530D01*
X69075100Y-132131670D01*
X69035074Y-131878961D01*
X68956010Y-131635625D01*
X68956010Y-131635624D01*
X68915785Y-131556680D01*
X68839852Y-131407653D01*
X68820638Y-131381207D01*
X68689467Y-131200664D01*
X68689463Y-131200659D01*
X68508540Y-131019736D01*
X68508535Y-131019732D01*
X68364577Y-130915140D01*
X68364554Y-130915125D01*
X68301546Y-130869347D01*
X68073575Y-130753189D01*
X68073572Y-130753188D01*
X67830240Y-130674126D01*
X67703884Y-130654113D01*
X67577530Y-130634100D01*
X67321670Y-130634100D01*
X67237433Y-130647442D01*
X67068959Y-130674126D01*
X66825627Y-130753188D01*
X66825624Y-130753189D01*
X66597649Y-130869350D01*
X66390664Y-131019732D01*
X66390659Y-131019736D01*
X66209736Y-131200659D01*
X66209732Y-131200664D01*
X66059350Y-131407649D01*
X65943189Y-131635624D01*
X65943188Y-131635627D01*
X65864126Y-131878959D01*
X65864126Y-131878961D01*
X65824100Y-132131670D01*
X46075100Y-132131670D01*
X46035074Y-131878961D01*
X45956010Y-131635625D01*
X45956010Y-131635624D01*
X45915785Y-131556680D01*
X45839852Y-131407653D01*
X45820638Y-131381207D01*
X45689467Y-131200664D01*
X45689463Y-131200659D01*
X45508540Y-131019736D01*
X45508535Y-131019732D01*
X45301550Y-130869350D01*
X45301549Y-130869349D01*
X45301547Y-130869348D01*
X45228510Y-130832133D01*
X45073575Y-130753189D01*
X45073572Y-130753188D01*
X44830240Y-130674126D01*
X44703884Y-130654113D01*
X44577530Y-130634100D01*
X44321670Y-130634100D01*
X44237433Y-130647442D01*
X44068959Y-130674126D01*
X43825627Y-130753188D01*
X43825624Y-130753189D01*
X43597649Y-130869350D01*
X43390664Y-131019732D01*
X43390659Y-131019736D01*
X43209736Y-131200659D01*
X43209732Y-131200664D01*
X43059350Y-131407649D01*
X42943189Y-131635624D01*
X42943188Y-131635627D01*
X42864126Y-131878959D01*
X42864126Y-131878961D01*
X42824100Y-132131670D01*
X40593100Y-132131670D01*
X40593100Y-129751177D01*
X57641700Y-129751177D01*
X57641700Y-129948022D01*
X57672490Y-130142426D01*
X57733317Y-130329629D01*
X57756104Y-130374350D01*
X57822676Y-130505005D01*
X57938372Y-130664246D01*
X58077554Y-130803428D01*
X58236795Y-130919124D01*
X58319655Y-130961343D01*
X58412170Y-131008482D01*
X58412172Y-131008482D01*
X58412175Y-131008484D01*
X58512517Y-131041087D01*
X58599373Y-131069309D01*
X58793778Y-131100100D01*
X58793783Y-131100100D01*
X58990622Y-131100100D01*
X59185026Y-131069309D01*
X59372225Y-131008484D01*
X59547605Y-130919124D01*
X59706846Y-130803428D01*
X59846028Y-130664246D01*
X59961724Y-130505005D01*
X60051084Y-130329625D01*
X60111909Y-130142426D01*
X60142700Y-129948022D01*
X60142700Y-129751177D01*
X60111909Y-129556773D01*
X60051082Y-129369570D01*
X59961723Y-129194194D01*
X59948504Y-129176000D01*
X59846028Y-129034954D01*
X59706846Y-128895772D01*
X59547605Y-128780076D01*
X59539411Y-128775901D01*
X59372229Y-128690717D01*
X59185026Y-128629890D01*
X58990622Y-128599100D01*
X58990617Y-128599100D01*
X58793783Y-128599100D01*
X58793778Y-128599100D01*
X58599373Y-128629890D01*
X58412170Y-128690717D01*
X58236794Y-128780076D01*
X58178478Y-128822446D01*
X58077554Y-128895772D01*
X58077552Y-128895774D01*
X58077551Y-128895774D01*
X57938374Y-129034951D01*
X57938374Y-129034952D01*
X57938372Y-129034954D01*
X57913089Y-129069753D01*
X57822676Y-129194194D01*
X57733317Y-129369570D01*
X57672490Y-129556773D01*
X57641700Y-129751177D01*
X40593100Y-129751177D01*
X40593100Y-127044977D01*
X44491700Y-127044977D01*
X44491700Y-127241822D01*
X44522490Y-127436226D01*
X44583317Y-127623429D01*
X44647655Y-127749699D01*
X44672676Y-127798805D01*
X44788372Y-127958046D01*
X44927554Y-128097228D01*
X45086795Y-128212924D01*
X45169655Y-128255143D01*
X45262170Y-128302282D01*
X45262172Y-128302282D01*
X45262175Y-128302284D01*
X45362517Y-128334887D01*
X45449373Y-128363109D01*
X45643778Y-128393900D01*
X45643783Y-128393900D01*
X45840622Y-128393900D01*
X46035026Y-128363109D01*
X46222225Y-128302284D01*
X46397605Y-128212924D01*
X46556846Y-128097228D01*
X46696028Y-127958046D01*
X46811724Y-127798805D01*
X46901084Y-127623425D01*
X46961909Y-127436226D01*
X46975629Y-127349600D01*
X46992700Y-127241822D01*
X46992700Y-127044977D01*
X46961909Y-126850573D01*
X46913599Y-126701893D01*
X46901084Y-126663375D01*
X46901082Y-126663372D01*
X46901082Y-126663370D01*
X46811723Y-126487994D01*
X46766781Y-126426137D01*
X46696028Y-126328754D01*
X46556846Y-126189572D01*
X46397605Y-126073876D01*
X46222229Y-125984517D01*
X46035026Y-125923690D01*
X45840622Y-125892900D01*
X45840617Y-125892900D01*
X45643783Y-125892900D01*
X45643778Y-125892900D01*
X45449373Y-125923690D01*
X45262170Y-125984517D01*
X45086794Y-126073876D01*
X45022891Y-126120305D01*
X44927554Y-126189572D01*
X44927552Y-126189574D01*
X44927551Y-126189574D01*
X44788374Y-126328751D01*
X44788374Y-126328752D01*
X44788372Y-126328754D01*
X44738685Y-126397141D01*
X44672676Y-126487994D01*
X44583317Y-126663370D01*
X44522490Y-126850573D01*
X44491700Y-127044977D01*
X40593100Y-127044977D01*
X40593100Y-123541943D01*
X41491699Y-123541943D01*
X41530147Y-123735229D01*
X41530150Y-123735239D01*
X41605564Y-123917307D01*
X41605571Y-123917320D01*
X41715060Y-124081181D01*
X41715063Y-124081185D01*
X41854414Y-124220536D01*
X41854418Y-124220539D01*
X42018279Y-124330028D01*
X42018292Y-124330035D01*
X42200360Y-124405449D01*
X42200365Y-124405451D01*
X42200369Y-124405451D01*
X42200370Y-124405452D01*
X42393656Y-124443900D01*
X42393659Y-124443900D01*
X42590743Y-124443900D01*
X42720782Y-124418032D01*
X42784035Y-124405451D01*
X42966114Y-124330032D01*
X43129982Y-124220539D01*
X43269339Y-124081182D01*
X43378832Y-123917314D01*
X43454251Y-123735235D01*
X43478030Y-123615692D01*
X43492700Y-123541943D01*
X43492700Y-123344856D01*
X43454252Y-123151570D01*
X43454251Y-123151569D01*
X43454251Y-123151565D01*
X43453351Y-123149392D01*
X43383807Y-122981495D01*
X43378833Y-122969489D01*
X43378832Y-122969486D01*
X43378830Y-122969483D01*
X43378828Y-122969479D01*
X43359218Y-122940130D01*
X52687570Y-122940130D01*
X52687570Y-123097823D01*
X52718331Y-123252466D01*
X52718334Y-123252478D01*
X52778672Y-123398149D01*
X52778679Y-123398162D01*
X52866280Y-123529265D01*
X52866283Y-123529269D01*
X52977777Y-123640763D01*
X52977781Y-123640766D01*
X53108884Y-123728367D01*
X53108897Y-123728374D01*
X53232956Y-123779760D01*
X53254573Y-123788714D01*
X53409223Y-123819476D01*
X53409226Y-123819477D01*
X53409228Y-123819477D01*
X53566913Y-123819477D01*
X53600801Y-123812735D01*
X53705750Y-123791860D01*
X53775339Y-123798087D01*
X53830517Y-123840949D01*
X53853762Y-123906839D01*
X53837695Y-123974836D01*
X53833052Y-123982353D01*
X53831813Y-123984206D01*
X53831802Y-123984227D01*
X53771464Y-124129898D01*
X53771461Y-124129910D01*
X53740700Y-124284553D01*
X53740700Y-124442246D01*
X53771461Y-124596889D01*
X53771464Y-124596901D01*
X53831802Y-124742572D01*
X53831809Y-124742585D01*
X53919410Y-124873688D01*
X53919413Y-124873692D01*
X54030907Y-124985186D01*
X54030911Y-124985189D01*
X54162014Y-125072790D01*
X54162027Y-125072797D01*
X54307698Y-125133135D01*
X54307703Y-125133137D01*
X54462353Y-125163899D01*
X54462356Y-125163900D01*
X54462358Y-125163900D01*
X54620044Y-125163900D01*
X54620045Y-125163899D01*
X54774697Y-125133137D01*
X54920379Y-125072794D01*
X55051489Y-124985189D01*
X55162989Y-124873689D01*
X55250594Y-124742579D01*
X55310937Y-124596897D01*
X55341700Y-124442242D01*
X55341700Y-124284558D01*
X55341700Y-124284555D01*
X55341699Y-124284553D01*
X55320531Y-124178136D01*
X55310937Y-124129903D01*
X55299288Y-124101779D01*
X55250597Y-123984227D01*
X55250590Y-123984214D01*
X55162989Y-123853111D01*
X55162986Y-123853107D01*
X55051492Y-123741613D01*
X55051488Y-123741610D01*
X54920385Y-123654009D01*
X54920372Y-123654002D01*
X54774701Y-123593664D01*
X54774689Y-123593661D01*
X54620045Y-123562900D01*
X54620042Y-123562900D01*
X54462358Y-123562900D01*
X54462355Y-123562900D01*
X54323520Y-123590516D01*
X54253929Y-123584289D01*
X54198751Y-123541426D01*
X54175507Y-123475536D01*
X54191575Y-123407539D01*
X54196228Y-123400006D01*
X54196432Y-123399699D01*
X54197464Y-123398156D01*
X54257807Y-123252474D01*
X54288570Y-123097819D01*
X54288570Y-123026553D01*
X56204500Y-123026553D01*
X56204500Y-123184246D01*
X56235261Y-123338889D01*
X56235264Y-123338901D01*
X56295602Y-123484572D01*
X56295609Y-123484585D01*
X56383210Y-123615688D01*
X56383213Y-123615692D01*
X56494707Y-123727186D01*
X56494711Y-123727189D01*
X56625814Y-123814790D01*
X56625827Y-123814797D01*
X56718317Y-123853107D01*
X56771503Y-123875137D01*
X56926153Y-123905899D01*
X56926156Y-123905900D01*
X56926158Y-123905900D01*
X57083844Y-123905900D01*
X57083845Y-123905899D01*
X57238497Y-123875137D01*
X57384179Y-123814794D01*
X57515289Y-123727189D01*
X57626789Y-123615689D01*
X57714394Y-123484579D01*
X57774737Y-123338897D01*
X57805500Y-123184242D01*
X57805500Y-123026558D01*
X57805500Y-123026555D01*
X57805499Y-123026553D01*
X57794148Y-122969489D01*
X57774737Y-122871903D01*
X57747281Y-122805618D01*
X57714397Y-122726227D01*
X57714390Y-122726214D01*
X57626789Y-122595111D01*
X57626786Y-122595107D01*
X57515292Y-122483613D01*
X57515288Y-122483610D01*
X57384185Y-122396009D01*
X57384172Y-122396002D01*
X57238501Y-122335664D01*
X57238489Y-122335661D01*
X57083845Y-122304900D01*
X57083842Y-122304900D01*
X56926158Y-122304900D01*
X56926155Y-122304900D01*
X56771510Y-122335661D01*
X56771498Y-122335664D01*
X56625827Y-122396002D01*
X56625814Y-122396009D01*
X56494711Y-122483610D01*
X56494707Y-122483613D01*
X56383213Y-122595107D01*
X56383210Y-122595111D01*
X56295609Y-122726214D01*
X56295602Y-122726227D01*
X56235264Y-122871898D01*
X56235261Y-122871910D01*
X56204500Y-123026553D01*
X54288570Y-123026553D01*
X54288570Y-122940135D01*
X54288570Y-122940132D01*
X54288569Y-122940130D01*
X54269536Y-122844444D01*
X54257807Y-122785480D01*
X54241247Y-122745500D01*
X54197467Y-122639804D01*
X54197460Y-122639791D01*
X54109859Y-122508688D01*
X54109856Y-122508684D01*
X53998362Y-122397190D01*
X53998358Y-122397187D01*
X53867255Y-122309586D01*
X53867242Y-122309579D01*
X53721571Y-122249241D01*
X53721559Y-122249238D01*
X53566915Y-122218477D01*
X53566912Y-122218477D01*
X53409228Y-122218477D01*
X53409225Y-122218477D01*
X53254580Y-122249238D01*
X53254568Y-122249241D01*
X53108897Y-122309579D01*
X53108884Y-122309586D01*
X52977781Y-122397187D01*
X52977777Y-122397190D01*
X52866283Y-122508684D01*
X52866280Y-122508688D01*
X52778679Y-122639791D01*
X52778672Y-122639804D01*
X52718334Y-122785475D01*
X52718331Y-122785487D01*
X52687570Y-122940130D01*
X43359218Y-122940130D01*
X43269339Y-122805618D01*
X43269336Y-122805614D01*
X43129985Y-122666263D01*
X43129981Y-122666260D01*
X42966120Y-122556771D01*
X42966107Y-122556764D01*
X42784039Y-122481350D01*
X42784029Y-122481347D01*
X42590743Y-122442900D01*
X42590741Y-122442900D01*
X42393659Y-122442900D01*
X42393657Y-122442900D01*
X42200370Y-122481347D01*
X42200360Y-122481350D01*
X42018292Y-122556764D01*
X42018279Y-122556771D01*
X41854418Y-122666260D01*
X41854414Y-122666263D01*
X41715063Y-122805614D01*
X41715060Y-122805618D01*
X41605571Y-122969479D01*
X41605564Y-122969492D01*
X41530150Y-123151560D01*
X41530147Y-123151570D01*
X41491700Y-123344856D01*
X41491700Y-123344859D01*
X41491700Y-123541941D01*
X41491700Y-123541943D01*
X41491699Y-123541943D01*
X40593100Y-123541943D01*
X40593100Y-106747135D01*
X50749378Y-106747135D01*
X50749378Y-108442870D01*
X50749379Y-108442876D01*
X50755786Y-108502483D01*
X50806080Y-108637328D01*
X50806084Y-108637335D01*
X50892330Y-108752544D01*
X50892333Y-108752547D01*
X51007542Y-108838793D01*
X51007549Y-108838797D01*
X51142395Y-108889091D01*
X51142394Y-108889091D01*
X51149322Y-108889835D01*
X51202005Y-108895500D01*
X53297750Y-108895499D01*
X53357361Y-108889091D01*
X53492209Y-108838796D01*
X53607424Y-108752546D01*
X53693674Y-108637331D01*
X53743969Y-108502483D01*
X53750378Y-108442873D01*
X53750377Y-106747128D01*
X53743969Y-106687517D01*
X53704021Y-106580412D01*
X53693675Y-106552671D01*
X53693671Y-106552664D01*
X53607425Y-106437455D01*
X53607422Y-106437452D01*
X53492213Y-106351206D01*
X53492206Y-106351202D01*
X53357360Y-106300908D01*
X53357361Y-106300908D01*
X53297761Y-106294501D01*
X53297759Y-106294500D01*
X53297751Y-106294500D01*
X53297742Y-106294500D01*
X51202007Y-106294500D01*
X51202001Y-106294501D01*
X51142394Y-106300908D01*
X51007549Y-106351202D01*
X51007542Y-106351206D01*
X50892333Y-106437452D01*
X50892330Y-106437455D01*
X50806084Y-106552664D01*
X50806080Y-106552671D01*
X50755786Y-106687517D01*
X50751752Y-106725042D01*
X50749379Y-106747123D01*
X50749378Y-106747135D01*
X40593100Y-106747135D01*
X40593100Y-86845000D01*
X50773269Y-86845000D01*
X51903468Y-86845000D01*
X51853841Y-86930956D01*
X51824878Y-87039048D01*
X51824878Y-87150952D01*
X51853841Y-87259044D01*
X51903468Y-87345000D01*
X50773269Y-87345000D01*
X50781887Y-87399413D01*
X50845122Y-87594029D01*
X50938018Y-87776349D01*
X51058295Y-87941894D01*
X51058295Y-87941895D01*
X51202982Y-88086582D01*
X51368528Y-88206859D01*
X51550846Y-88299755D01*
X51745460Y-88362990D01*
X51947561Y-88395000D01*
X51999878Y-88395000D01*
X51999878Y-87441409D01*
X52085834Y-87491037D01*
X52193926Y-87520000D01*
X52305830Y-87520000D01*
X52413922Y-87491037D01*
X52499878Y-87441409D01*
X52499878Y-88395000D01*
X52552195Y-88395000D01*
X52754295Y-88362990D01*
X52948909Y-88299755D01*
X53131227Y-88206859D01*
X53296772Y-88086582D01*
X53296773Y-88086582D01*
X53441460Y-87941895D01*
X53441460Y-87941894D01*
X53561737Y-87776349D01*
X53654633Y-87594029D01*
X53717868Y-87399413D01*
X53726487Y-87345000D01*
X52596288Y-87345000D01*
X52645915Y-87259044D01*
X52674878Y-87150952D01*
X52674878Y-87039048D01*
X52645915Y-86930956D01*
X52596288Y-86845000D01*
X53726487Y-86845000D01*
X53717868Y-86790586D01*
X53654633Y-86595970D01*
X53561737Y-86413650D01*
X53441460Y-86248105D01*
X53441460Y-86248104D01*
X53296773Y-86103417D01*
X53131227Y-85983140D01*
X52948909Y-85890244D01*
X52754295Y-85827009D01*
X52552195Y-85795000D01*
X52499878Y-85795000D01*
X52499878Y-86748590D01*
X52413922Y-86698963D01*
X52305830Y-86670000D01*
X52193926Y-86670000D01*
X52085834Y-86698963D01*
X51999878Y-86748590D01*
X51999878Y-85795000D01*
X51947561Y-85795000D01*
X51745460Y-85827009D01*
X51550846Y-85890244D01*
X51368528Y-85983140D01*
X51202983Y-86103417D01*
X51202982Y-86103417D01*
X51058295Y-86248104D01*
X51058295Y-86248105D01*
X50938018Y-86413650D01*
X50845122Y-86595970D01*
X50781887Y-86790586D01*
X50773269Y-86845000D01*
X40593100Y-86845000D01*
X40593100Y-85028153D01*
X57118900Y-85028153D01*
X57118900Y-85185846D01*
X57149661Y-85340489D01*
X57149664Y-85340501D01*
X57210002Y-85486172D01*
X57210009Y-85486185D01*
X57297610Y-85617288D01*
X57297613Y-85617292D01*
X57409107Y-85728786D01*
X57409111Y-85728789D01*
X57540214Y-85816390D01*
X57540227Y-85816397D01*
X57637529Y-85856700D01*
X57685903Y-85876737D01*
X57840553Y-85907499D01*
X57840556Y-85907500D01*
X57840558Y-85907500D01*
X57998244Y-85907500D01*
X57998245Y-85907499D01*
X58152897Y-85876737D01*
X58289823Y-85820021D01*
X58298572Y-85816397D01*
X58298572Y-85816396D01*
X58298579Y-85816394D01*
X58429689Y-85728789D01*
X58541189Y-85617289D01*
X58628794Y-85486179D01*
X58689137Y-85340497D01*
X58719900Y-85185842D01*
X58719900Y-85028158D01*
X58719900Y-85028155D01*
X58719899Y-85028153D01*
X58709795Y-84977358D01*
X58689137Y-84873503D01*
X58679898Y-84851197D01*
X58628797Y-84727827D01*
X58628790Y-84727814D01*
X58541189Y-84596711D01*
X58541186Y-84596707D01*
X58429692Y-84485213D01*
X58429688Y-84485210D01*
X58298585Y-84397609D01*
X58298572Y-84397602D01*
X58152901Y-84337264D01*
X58152889Y-84337261D01*
X57998245Y-84306500D01*
X57998242Y-84306500D01*
X57840558Y-84306500D01*
X57840555Y-84306500D01*
X57685910Y-84337261D01*
X57685898Y-84337264D01*
X57540227Y-84397602D01*
X57540214Y-84397609D01*
X57409111Y-84485210D01*
X57409107Y-84485213D01*
X57297613Y-84596707D01*
X57297610Y-84596711D01*
X57210009Y-84727814D01*
X57210002Y-84727827D01*
X57149664Y-84873498D01*
X57149661Y-84873510D01*
X57118900Y-85028153D01*
X40593100Y-85028153D01*
X40593100Y-84062953D01*
X59455700Y-84062953D01*
X59455700Y-84220646D01*
X59486461Y-84375289D01*
X59486464Y-84375301D01*
X59546802Y-84520972D01*
X59546809Y-84520985D01*
X59634410Y-84652088D01*
X59634413Y-84652092D01*
X59745907Y-84763586D01*
X59745911Y-84763589D01*
X59877014Y-84851190D01*
X59877027Y-84851197D01*
X60022698Y-84911535D01*
X60022703Y-84911537D01*
X60177353Y-84942299D01*
X60177356Y-84942300D01*
X60177358Y-84942300D01*
X60335044Y-84942300D01*
X60335045Y-84942299D01*
X60489697Y-84911537D01*
X60635379Y-84851194D01*
X60766489Y-84763589D01*
X60877989Y-84652089D01*
X60965594Y-84520979D01*
X61025937Y-84375297D01*
X61056700Y-84220642D01*
X61056700Y-84062958D01*
X61056700Y-84062955D01*
X61056699Y-84062953D01*
X61025938Y-83908310D01*
X61025937Y-83908303D01*
X61003178Y-83853357D01*
X60965597Y-83762627D01*
X60965590Y-83762614D01*
X60877989Y-83631511D01*
X60877986Y-83631507D01*
X60766492Y-83520013D01*
X60766488Y-83520010D01*
X60635385Y-83432409D01*
X60635372Y-83432402D01*
X60489701Y-83372064D01*
X60489689Y-83372061D01*
X60335045Y-83341300D01*
X60335042Y-83341300D01*
X60177358Y-83341300D01*
X60177355Y-83341300D01*
X60022710Y-83372061D01*
X60022698Y-83372064D01*
X59877027Y-83432402D01*
X59877014Y-83432409D01*
X59745911Y-83520010D01*
X59745907Y-83520013D01*
X59634413Y-83631507D01*
X59634410Y-83631511D01*
X59546809Y-83762614D01*
X59546802Y-83762627D01*
X59486464Y-83908298D01*
X59486461Y-83908310D01*
X59455700Y-84062953D01*
X40593100Y-84062953D01*
X40593100Y-82640553D01*
X58007900Y-82640553D01*
X58007900Y-82798246D01*
X58038661Y-82952889D01*
X58038664Y-82952901D01*
X58099002Y-83098572D01*
X58099009Y-83098585D01*
X58186610Y-83229688D01*
X58186613Y-83229692D01*
X58298107Y-83341186D01*
X58298111Y-83341189D01*
X58429214Y-83428790D01*
X58429227Y-83428797D01*
X58530020Y-83470546D01*
X58574903Y-83489137D01*
X58707931Y-83515598D01*
X58729553Y-83519899D01*
X58729556Y-83519900D01*
X58729558Y-83519900D01*
X58887244Y-83519900D01*
X58887245Y-83519899D01*
X59041897Y-83489137D01*
X59178859Y-83432406D01*
X59187572Y-83428797D01*
X59187572Y-83428796D01*
X59187579Y-83428794D01*
X59318689Y-83341189D01*
X59430189Y-83229689D01*
X59517794Y-83098579D01*
X59578137Y-82952897D01*
X59608900Y-82798242D01*
X59608900Y-82640558D01*
X59608900Y-82640555D01*
X59608899Y-82640553D01*
X59582808Y-82509386D01*
X59578137Y-82485903D01*
X59551808Y-82422338D01*
X59517797Y-82340227D01*
X59517790Y-82340214D01*
X59430189Y-82209111D01*
X59430186Y-82209107D01*
X59318692Y-82097613D01*
X59318688Y-82097610D01*
X59187585Y-82010009D01*
X59187572Y-82010002D01*
X59041901Y-81949664D01*
X59041889Y-81949661D01*
X58887245Y-81918900D01*
X58887242Y-81918900D01*
X58729558Y-81918900D01*
X58729555Y-81918900D01*
X58574910Y-81949661D01*
X58574898Y-81949664D01*
X58429227Y-82010002D01*
X58429214Y-82010009D01*
X58298111Y-82097610D01*
X58298107Y-82097613D01*
X58186613Y-82209107D01*
X58186610Y-82209111D01*
X58099009Y-82340214D01*
X58099002Y-82340227D01*
X58038664Y-82485898D01*
X58038661Y-82485910D01*
X58007900Y-82640553D01*
X40593100Y-82640553D01*
X40593100Y-80448355D01*
X42060800Y-80448355D01*
X42060800Y-80996200D01*
X42805470Y-80996200D01*
X42785725Y-81015945D01*
X42736356Y-81101455D01*
X42710800Y-81196830D01*
X42710800Y-81295570D01*
X42736356Y-81390945D01*
X42785725Y-81476455D01*
X42805470Y-81496200D01*
X42060800Y-81496200D01*
X42060800Y-82044044D01*
X42067201Y-82103572D01*
X42067203Y-82103579D01*
X42117445Y-82238286D01*
X42117449Y-82238293D01*
X42203609Y-82353387D01*
X42203612Y-82353390D01*
X42318706Y-82439550D01*
X42318713Y-82439554D01*
X42453420Y-82489796D01*
X42453427Y-82489798D01*
X42512955Y-82496199D01*
X42512972Y-82496200D01*
X42835800Y-82496200D01*
X42835800Y-81526530D01*
X42855545Y-81546275D01*
X42941055Y-81595644D01*
X43036430Y-81621200D01*
X43135170Y-81621200D01*
X43230545Y-81595644D01*
X43316055Y-81546275D01*
X43330300Y-81532030D01*
X43330300Y-81572203D01*
X43330609Y-81573758D01*
X43333417Y-81587871D01*
X43335800Y-81612065D01*
X43335800Y-82496200D01*
X43658628Y-82496200D01*
X43658644Y-82496199D01*
X43718172Y-82489798D01*
X43718176Y-82489797D01*
X43852889Y-82439552D01*
X43853696Y-82438948D01*
X43854645Y-82438593D01*
X43860676Y-82435301D01*
X43861149Y-82436167D01*
X43919160Y-82414529D01*
X43975461Y-82423651D01*
X44056673Y-82457291D01*
X44200552Y-82485910D01*
X44254792Y-82496699D01*
X44254796Y-82496700D01*
X44254797Y-82496700D01*
X44456804Y-82496700D01*
X44456805Y-82496699D01*
X44654927Y-82457291D01*
X44841556Y-82379986D01*
X44921910Y-82326294D01*
X44988586Y-82305417D01*
X45055966Y-82323901D01*
X45059665Y-82326278D01*
X45140044Y-82379986D01*
X45326673Y-82457291D01*
X45470552Y-82485910D01*
X45524792Y-82496699D01*
X45524796Y-82496700D01*
X45524797Y-82496700D01*
X45726804Y-82496700D01*
X45726805Y-82496699D01*
X45924927Y-82457291D01*
X46111556Y-82379986D01*
X46279518Y-82267758D01*
X46422358Y-82124918D01*
X46534586Y-81956956D01*
X46611891Y-81770327D01*
X46651300Y-81572203D01*
X46651300Y-80920197D01*
X46611891Y-80722073D01*
X46534586Y-80535444D01*
X46534584Y-80535441D01*
X46534582Y-80535437D01*
X46422358Y-80367481D01*
X46279518Y-80224641D01*
X46111562Y-80112417D01*
X46111552Y-80112412D01*
X45924927Y-80035109D01*
X45924919Y-80035107D01*
X45726807Y-79995700D01*
X45726803Y-79995700D01*
X45524797Y-79995700D01*
X45524792Y-79995700D01*
X45326680Y-80035107D01*
X45326672Y-80035109D01*
X45140044Y-80112413D01*
X45072706Y-80157407D01*
X45065757Y-80162051D01*
X45059691Y-80166104D01*
X44993013Y-80186982D01*
X44925633Y-80168497D01*
X44921909Y-80166104D01*
X44915843Y-80162051D01*
X44881363Y-80139012D01*
X44841555Y-80112413D01*
X44654927Y-80035109D01*
X44654919Y-80035107D01*
X44456807Y-79995700D01*
X44456803Y-79995700D01*
X44254797Y-79995700D01*
X44254792Y-79995700D01*
X44056680Y-80035107D01*
X44056668Y-80035110D01*
X43975461Y-80068747D01*
X43905991Y-80076216D01*
X43860940Y-80056605D01*
X43860672Y-80057097D01*
X43855174Y-80054094D01*
X43853695Y-80053451D01*
X43852886Y-80052845D01*
X43718179Y-80002603D01*
X43718172Y-80002601D01*
X43658644Y-79996200D01*
X43335800Y-79996200D01*
X43335800Y-80880334D01*
X43333417Y-80904526D01*
X43330300Y-80920197D01*
X43330300Y-80960370D01*
X43316055Y-80946125D01*
X43230545Y-80896756D01*
X43135170Y-80871200D01*
X43036430Y-80871200D01*
X42941055Y-80896756D01*
X42855545Y-80946125D01*
X42835800Y-80965870D01*
X42835800Y-79996200D01*
X42512955Y-79996200D01*
X42453427Y-80002601D01*
X42453420Y-80002603D01*
X42318713Y-80052845D01*
X42318706Y-80052849D01*
X42203612Y-80139009D01*
X42203609Y-80139012D01*
X42117449Y-80254106D01*
X42117445Y-80254113D01*
X42067203Y-80388820D01*
X42067201Y-80388827D01*
X42060800Y-80448355D01*
X40593100Y-80448355D01*
X40593100Y-79298543D01*
X57009299Y-79298543D01*
X57047747Y-79491829D01*
X57047750Y-79491839D01*
X57123164Y-79673907D01*
X57123171Y-79673920D01*
X57232660Y-79837781D01*
X57232663Y-79837785D01*
X57372014Y-79977136D01*
X57372018Y-79977139D01*
X57535879Y-80086628D01*
X57535892Y-80086635D01*
X57662336Y-80139009D01*
X57717965Y-80162051D01*
X57717969Y-80162051D01*
X57717970Y-80162052D01*
X57911256Y-80200500D01*
X57911259Y-80200500D01*
X58108343Y-80200500D01*
X58281259Y-80166104D01*
X58301635Y-80162051D01*
X58483714Y-80086632D01*
X58647582Y-79977139D01*
X58786939Y-79837782D01*
X58896432Y-79673914D01*
X58971851Y-79491835D01*
X59010300Y-79298541D01*
X59010300Y-79101459D01*
X59010300Y-79101456D01*
X58971852Y-78908170D01*
X58971851Y-78908169D01*
X58971851Y-78908165D01*
X58971849Y-78908160D01*
X58896435Y-78726092D01*
X58896428Y-78726079D01*
X58786939Y-78562218D01*
X58786936Y-78562214D01*
X58647585Y-78422863D01*
X58647581Y-78422860D01*
X58483720Y-78313371D01*
X58483707Y-78313364D01*
X58458605Y-78302967D01*
X58301639Y-78237950D01*
X58301629Y-78237947D01*
X58108343Y-78199500D01*
X58108341Y-78199500D01*
X57911259Y-78199500D01*
X57911257Y-78199500D01*
X57717970Y-78237947D01*
X57717960Y-78237950D01*
X57535892Y-78313364D01*
X57535879Y-78313371D01*
X57372018Y-78422860D01*
X57372014Y-78422863D01*
X57232663Y-78562214D01*
X57232660Y-78562218D01*
X57123171Y-78726079D01*
X57123164Y-78726092D01*
X57047750Y-78908160D01*
X57047747Y-78908170D01*
X57009300Y-79101456D01*
X57009300Y-79101459D01*
X57009300Y-79298541D01*
X57009300Y-79298543D01*
X57009299Y-79298543D01*
X40593100Y-79298543D01*
X40593100Y-78191735D01*
X64799100Y-78191735D01*
X64799100Y-79987470D01*
X64799101Y-79987476D01*
X64805508Y-80047083D01*
X64855802Y-80181928D01*
X64855806Y-80181935D01*
X64942052Y-80297144D01*
X64942055Y-80297147D01*
X65057264Y-80383393D01*
X65057271Y-80383397D01*
X65188682Y-80432410D01*
X65244616Y-80474281D01*
X65269033Y-80539745D01*
X65254182Y-80608018D01*
X65233031Y-80636273D01*
X65119489Y-80749815D01*
X64994551Y-80921779D01*
X64898044Y-81111185D01*
X64832353Y-81313360D01*
X64799100Y-81523313D01*
X64799100Y-81735886D01*
X64828086Y-81918900D01*
X64832354Y-81945843D01*
X64890539Y-82124918D01*
X64898044Y-82148014D01*
X64994551Y-82337420D01*
X65119490Y-82509386D01*
X65269813Y-82659709D01*
X65441782Y-82784650D01*
X65450546Y-82789116D01*
X65501342Y-82837091D01*
X65518136Y-82904912D01*
X65495598Y-82971047D01*
X65450546Y-83010084D01*
X65441782Y-83014549D01*
X65269813Y-83139490D01*
X65119490Y-83289813D01*
X64994551Y-83461779D01*
X64898044Y-83651185D01*
X64832353Y-83853360D01*
X64799100Y-84063313D01*
X64799100Y-84275886D01*
X64832253Y-84485210D01*
X64832354Y-84485843D01*
X64868377Y-84596711D01*
X64898044Y-84688014D01*
X64994551Y-84877420D01*
X65119490Y-85049386D01*
X65269813Y-85199709D01*
X65441782Y-85324650D01*
X65450546Y-85329116D01*
X65501342Y-85377091D01*
X65518136Y-85444912D01*
X65495598Y-85511047D01*
X65450546Y-85550084D01*
X65441782Y-85554549D01*
X65269813Y-85679490D01*
X65119490Y-85829813D01*
X64994551Y-86001779D01*
X64898044Y-86191185D01*
X64832353Y-86393360D01*
X64799100Y-86603313D01*
X64799100Y-86815886D01*
X64832353Y-87025839D01*
X64898044Y-87228014D01*
X64994551Y-87417420D01*
X65119490Y-87589386D01*
X65269813Y-87739709D01*
X65441779Y-87864648D01*
X65441781Y-87864649D01*
X65441784Y-87864651D01*
X65451093Y-87869394D01*
X65501890Y-87917366D01*
X65518687Y-87985187D01*
X65496152Y-88051322D01*
X65451105Y-88090360D01*
X65442046Y-88094976D01*
X65442040Y-88094980D01*
X65387882Y-88134327D01*
X65387882Y-88134328D01*
X66020191Y-88766637D01*
X65956607Y-88783675D01*
X65842593Y-88849501D01*
X65749501Y-88942593D01*
X65683675Y-89056607D01*
X65666637Y-89120191D01*
X65034328Y-88487882D01*
X65034327Y-88487882D01*
X64994980Y-88542039D01*
X64898504Y-88731382D01*
X64832842Y-88933469D01*
X64832842Y-88933472D01*
X64799600Y-89143353D01*
X64799600Y-89355846D01*
X64832842Y-89565727D01*
X64832842Y-89565730D01*
X64898504Y-89767817D01*
X64994975Y-89957150D01*
X65034328Y-90011316D01*
X65666637Y-89379008D01*
X65683675Y-89442593D01*
X65749501Y-89556607D01*
X65842593Y-89649699D01*
X65956607Y-89715525D01*
X66020190Y-89732562D01*
X65387882Y-90364869D01*
X65387882Y-90364870D01*
X65442052Y-90404226D01*
X65442051Y-90404226D01*
X65451095Y-90408834D01*
X65501892Y-90456808D01*
X65518687Y-90524629D01*
X65496150Y-90590764D01*
X65451099Y-90629802D01*
X65441782Y-90634549D01*
X65269813Y-90759490D01*
X65119490Y-90909813D01*
X64994551Y-91081779D01*
X64898044Y-91271185D01*
X64832353Y-91473360D01*
X64816465Y-91573676D01*
X64799100Y-91683313D01*
X64799100Y-91895887D01*
X64808572Y-91955693D01*
X64829081Y-92085182D01*
X64832354Y-92105843D01*
X64897434Y-92306139D01*
X64898044Y-92308014D01*
X64994551Y-92497420D01*
X65119490Y-92669386D01*
X65269813Y-92819709D01*
X65441782Y-92944650D01*
X65450546Y-92949116D01*
X65501342Y-92997091D01*
X65518136Y-93064912D01*
X65495598Y-93131047D01*
X65450546Y-93170084D01*
X65441782Y-93174549D01*
X65269813Y-93299490D01*
X65119490Y-93449813D01*
X64994551Y-93621779D01*
X64898044Y-93811185D01*
X64832353Y-94013360D01*
X64799100Y-94223313D01*
X64799100Y-94435886D01*
X64832353Y-94645839D01*
X64898044Y-94848014D01*
X64994551Y-95037420D01*
X65119490Y-95209386D01*
X65269813Y-95359709D01*
X65441782Y-95484650D01*
X65450546Y-95489116D01*
X65501342Y-95537091D01*
X65518136Y-95604912D01*
X65495598Y-95671047D01*
X65450546Y-95710084D01*
X65441782Y-95714549D01*
X65269813Y-95839490D01*
X65119490Y-95989813D01*
X64994551Y-96161779D01*
X64898044Y-96351185D01*
X64832353Y-96553360D01*
X64799100Y-96763313D01*
X64799100Y-96975886D01*
X64832353Y-97185839D01*
X64898044Y-97388014D01*
X64994551Y-97577420D01*
X65119490Y-97749386D01*
X65269813Y-97899709D01*
X65441782Y-98024650D01*
X65450546Y-98029116D01*
X65501342Y-98077091D01*
X65518136Y-98144912D01*
X65495598Y-98211047D01*
X65450546Y-98250084D01*
X65441782Y-98254549D01*
X65269813Y-98379490D01*
X65119490Y-98529813D01*
X64994551Y-98701779D01*
X64898044Y-98891185D01*
X64832353Y-99093360D01*
X64799100Y-99303313D01*
X64799100Y-99515887D01*
X64832354Y-99725843D01*
X64865205Y-99826949D01*
X64898044Y-99928014D01*
X64994551Y-100117420D01*
X65119490Y-100289386D01*
X65269813Y-100439709D01*
X65441782Y-100564650D01*
X65450546Y-100569116D01*
X65501342Y-100617091D01*
X65518136Y-100684912D01*
X65495598Y-100751047D01*
X65450546Y-100790084D01*
X65441782Y-100794549D01*
X65269813Y-100919490D01*
X65119490Y-101069813D01*
X64994551Y-101241779D01*
X64898044Y-101431185D01*
X64832353Y-101633360D01*
X64799100Y-101843313D01*
X64799100Y-102055886D01*
X64832335Y-102265727D01*
X64832354Y-102265843D01*
X64875785Y-102399510D01*
X64898044Y-102468014D01*
X64994551Y-102657420D01*
X65119490Y-102829386D01*
X65269813Y-102979709D01*
X65441782Y-103104650D01*
X65450546Y-103109116D01*
X65501342Y-103157091D01*
X65518136Y-103224912D01*
X65495598Y-103291047D01*
X65450546Y-103330084D01*
X65441782Y-103334549D01*
X65269813Y-103459490D01*
X65119490Y-103609813D01*
X64994551Y-103781779D01*
X64898044Y-103971185D01*
X64832353Y-104173360D01*
X64799100Y-104383313D01*
X64799100Y-104595886D01*
X64831002Y-104797312D01*
X64832354Y-104805843D01*
X64865205Y-104906949D01*
X64898044Y-105008014D01*
X64994551Y-105197420D01*
X65119490Y-105369386D01*
X65269813Y-105519709D01*
X65441782Y-105644650D01*
X65450546Y-105649116D01*
X65501342Y-105697091D01*
X65518136Y-105764912D01*
X65495598Y-105831047D01*
X65450546Y-105870084D01*
X65441782Y-105874549D01*
X65269813Y-105999490D01*
X65119490Y-106149813D01*
X64994551Y-106321779D01*
X64898044Y-106511185D01*
X64832353Y-106713360D01*
X64799100Y-106923313D01*
X64799100Y-107135886D01*
X64831002Y-107337312D01*
X64832354Y-107345843D01*
X64865205Y-107446949D01*
X64898044Y-107548014D01*
X64994551Y-107737420D01*
X65119490Y-107909386D01*
X65269813Y-108059709D01*
X65441779Y-108184648D01*
X65441781Y-108184649D01*
X65441784Y-108184651D01*
X65451093Y-108189394D01*
X65501890Y-108237366D01*
X65518687Y-108305187D01*
X65496152Y-108371322D01*
X65451105Y-108410360D01*
X65442046Y-108414976D01*
X65442040Y-108414980D01*
X65387882Y-108454327D01*
X65387882Y-108454328D01*
X66020191Y-109086637D01*
X65956607Y-109103675D01*
X65842593Y-109169501D01*
X65749501Y-109262593D01*
X65683675Y-109376607D01*
X65666637Y-109440191D01*
X65034328Y-108807882D01*
X65034327Y-108807882D01*
X64994980Y-108862039D01*
X64898504Y-109051382D01*
X64832842Y-109253469D01*
X64832842Y-109253472D01*
X64799600Y-109463353D01*
X64799600Y-109675846D01*
X64832842Y-109885727D01*
X64832842Y-109885730D01*
X64898504Y-110087817D01*
X64994975Y-110277150D01*
X65034328Y-110331316D01*
X65666637Y-109699008D01*
X65683675Y-109762593D01*
X65749501Y-109876607D01*
X65842593Y-109969699D01*
X65956607Y-110035525D01*
X66020190Y-110052562D01*
X65387882Y-110684869D01*
X65387882Y-110684870D01*
X65442052Y-110724226D01*
X65442051Y-110724226D01*
X65451095Y-110728834D01*
X65501892Y-110776808D01*
X65518687Y-110844629D01*
X65496150Y-110910764D01*
X65451099Y-110949802D01*
X65441782Y-110954549D01*
X65269813Y-111079490D01*
X65119490Y-111229813D01*
X64994551Y-111401779D01*
X64898044Y-111591185D01*
X64832353Y-111793360D01*
X64799100Y-112003313D01*
X64799100Y-112215886D01*
X64831002Y-112417312D01*
X64832354Y-112425843D01*
X64880198Y-112573092D01*
X64898044Y-112628014D01*
X64994551Y-112817420D01*
X65119490Y-112989386D01*
X65269813Y-113139709D01*
X65441782Y-113264650D01*
X65450546Y-113269116D01*
X65501342Y-113317091D01*
X65518136Y-113384912D01*
X65495598Y-113451047D01*
X65450546Y-113490084D01*
X65441782Y-113494549D01*
X65269813Y-113619490D01*
X65119490Y-113769813D01*
X64994551Y-113941779D01*
X64898044Y-114131185D01*
X64832353Y-114333360D01*
X64823411Y-114389820D01*
X64799100Y-114543313D01*
X64799100Y-114755887D01*
X64801549Y-114771348D01*
X64827887Y-114937643D01*
X64832354Y-114965843D01*
X64878130Y-115106727D01*
X64898044Y-115168014D01*
X64994551Y-115357420D01*
X65119490Y-115529386D01*
X65269813Y-115679709D01*
X65441782Y-115804650D01*
X65450546Y-115809116D01*
X65501342Y-115857091D01*
X65518136Y-115924912D01*
X65495598Y-115991047D01*
X65450546Y-116030084D01*
X65441782Y-116034549D01*
X65269813Y-116159490D01*
X65119490Y-116309813D01*
X64994551Y-116481779D01*
X64898044Y-116671185D01*
X64832353Y-116873360D01*
X64812464Y-116998937D01*
X64799100Y-117083313D01*
X64799100Y-117295887D01*
X64809134Y-117359244D01*
X64830111Y-117491686D01*
X64832354Y-117505843D01*
X64895972Y-117701639D01*
X64898044Y-117708014D01*
X64994551Y-117897420D01*
X65119490Y-118069386D01*
X65269813Y-118219709D01*
X65441782Y-118344650D01*
X65450546Y-118349116D01*
X65501342Y-118397091D01*
X65518136Y-118464912D01*
X65495598Y-118531047D01*
X65450546Y-118570084D01*
X65441782Y-118574549D01*
X65269813Y-118699490D01*
X65119490Y-118849813D01*
X64994551Y-119021779D01*
X64898044Y-119211185D01*
X64832353Y-119413360D01*
X64799100Y-119623313D01*
X64799100Y-119835886D01*
X64832353Y-120045839D01*
X64898044Y-120248014D01*
X64994551Y-120437420D01*
X65119490Y-120609386D01*
X65269813Y-120759709D01*
X65441782Y-120884650D01*
X65450546Y-120889116D01*
X65501342Y-120937091D01*
X65518136Y-121004912D01*
X65495598Y-121071047D01*
X65450546Y-121110084D01*
X65441782Y-121114549D01*
X65269813Y-121239490D01*
X65119490Y-121389813D01*
X64994551Y-121561779D01*
X64898044Y-121751185D01*
X64832353Y-121953360D01*
X64799100Y-122163313D01*
X64799100Y-122375887D01*
X64832354Y-122585843D01*
X64897220Y-122785480D01*
X64898044Y-122788014D01*
X64994551Y-122977420D01*
X65119490Y-123149386D01*
X65269813Y-123299709D01*
X65441782Y-123424650D01*
X65450546Y-123429116D01*
X65501342Y-123477091D01*
X65518136Y-123544912D01*
X65495598Y-123611047D01*
X65450546Y-123650084D01*
X65441782Y-123654549D01*
X65269813Y-123779490D01*
X65119490Y-123929813D01*
X64994551Y-124101779D01*
X64898044Y-124291185D01*
X64832353Y-124493360D01*
X64813180Y-124614414D01*
X64799100Y-124703313D01*
X64799100Y-124915887D01*
X64832354Y-125125843D01*
X64887172Y-125294556D01*
X64898044Y-125328014D01*
X64994551Y-125517420D01*
X65119490Y-125689386D01*
X65269813Y-125839709D01*
X65441779Y-125964648D01*
X65441781Y-125964649D01*
X65441784Y-125964651D01*
X65451093Y-125969394D01*
X65501890Y-126017366D01*
X65518687Y-126085187D01*
X65496152Y-126151322D01*
X65451105Y-126190360D01*
X65442046Y-126194976D01*
X65442040Y-126194980D01*
X65387882Y-126234327D01*
X65387882Y-126234328D01*
X66020191Y-126866637D01*
X65956607Y-126883675D01*
X65842593Y-126949501D01*
X65749501Y-127042593D01*
X65683675Y-127156607D01*
X65666637Y-127220191D01*
X65034328Y-126587882D01*
X65034327Y-126587882D01*
X64994980Y-126642039D01*
X64898504Y-126831382D01*
X64832842Y-127033469D01*
X64832842Y-127033472D01*
X64799600Y-127243353D01*
X64799600Y-127455846D01*
X64832842Y-127665727D01*
X64832842Y-127665730D01*
X64898504Y-127867817D01*
X64994975Y-128057150D01*
X65034328Y-128111316D01*
X65666637Y-127479008D01*
X65683675Y-127542593D01*
X65749501Y-127656607D01*
X65842593Y-127749699D01*
X65956607Y-127815525D01*
X66020190Y-127832562D01*
X65387882Y-128464869D01*
X65387882Y-128464870D01*
X65442049Y-128504224D01*
X65631382Y-128600695D01*
X65833470Y-128666357D01*
X66043354Y-128699600D01*
X66255846Y-128699600D01*
X66465727Y-128666357D01*
X66465730Y-128666357D01*
X66667817Y-128600695D01*
X66857154Y-128504222D01*
X66911316Y-128464870D01*
X66911317Y-128464870D01*
X66279008Y-127832562D01*
X66342593Y-127815525D01*
X66456607Y-127749699D01*
X66549699Y-127656607D01*
X66615525Y-127542593D01*
X66632562Y-127479008D01*
X67264870Y-128111317D01*
X67264870Y-128111316D01*
X67304222Y-128057155D01*
X67308832Y-128048107D01*
X67356805Y-127997309D01*
X67424625Y-127980512D01*
X67490761Y-128003047D01*
X67529804Y-128048104D01*
X67534549Y-128057417D01*
X67659490Y-128229386D01*
X67809813Y-128379709D01*
X67981779Y-128504648D01*
X67981781Y-128504649D01*
X67981784Y-128504651D01*
X68171188Y-128601157D01*
X68373357Y-128666846D01*
X68583313Y-128700100D01*
X68583314Y-128700100D01*
X68795886Y-128700100D01*
X68795887Y-128700100D01*
X69005843Y-128666846D01*
X69208012Y-128601157D01*
X69397416Y-128504651D01*
X69452172Y-128464869D01*
X69569386Y-128379709D01*
X69569388Y-128379706D01*
X69569392Y-128379704D01*
X69719704Y-128229392D01*
X69719706Y-128229388D01*
X69719709Y-128229386D01*
X69844648Y-128057420D01*
X69844650Y-128057417D01*
X69844651Y-128057416D01*
X69941157Y-127868012D01*
X70006846Y-127665843D01*
X70040100Y-127455887D01*
X70040100Y-127243313D01*
X70006846Y-127033357D01*
X69941157Y-126831188D01*
X69844651Y-126641784D01*
X69844649Y-126641781D01*
X69844648Y-126641779D01*
X69719709Y-126469813D01*
X69569386Y-126319490D01*
X69397420Y-126194551D01*
X69389200Y-126190363D01*
X69388654Y-126190085D01*
X69337859Y-126142112D01*
X69321063Y-126074292D01*
X69343599Y-126008156D01*
X69388654Y-125969115D01*
X69397416Y-125964651D01*
X69453793Y-125923691D01*
X69569386Y-125839709D01*
X69569388Y-125839706D01*
X69569392Y-125839704D01*
X69719704Y-125689392D01*
X69719706Y-125689388D01*
X69719709Y-125689386D01*
X69844648Y-125517420D01*
X69844647Y-125517420D01*
X69844651Y-125517416D01*
X69941157Y-125328012D01*
X70006846Y-125125843D01*
X70040100Y-124915887D01*
X70040100Y-124703313D01*
X70006846Y-124493357D01*
X69941157Y-124291188D01*
X69844651Y-124101784D01*
X69844649Y-124101781D01*
X69844648Y-124101779D01*
X69812642Y-124057726D01*
X69763228Y-123989713D01*
X72991700Y-123989713D01*
X72991700Y-124202286D01*
X73004730Y-124284558D01*
X73024954Y-124412243D01*
X73084953Y-124596901D01*
X73090644Y-124614414D01*
X73187151Y-124803820D01*
X73312090Y-124975786D01*
X73462413Y-125126109D01*
X73634382Y-125251050D01*
X73643146Y-125255516D01*
X73693942Y-125303491D01*
X73710736Y-125371312D01*
X73688198Y-125437447D01*
X73643146Y-125476484D01*
X73634382Y-125480949D01*
X73462413Y-125605890D01*
X73312090Y-125756213D01*
X73187151Y-125928179D01*
X73090644Y-126117585D01*
X73024953Y-126319760D01*
X72991700Y-126529713D01*
X72991700Y-126742286D01*
X73024519Y-126949501D01*
X73024954Y-126952243D01*
X73055087Y-127044983D01*
X73090644Y-127154414D01*
X73187151Y-127343820D01*
X73312090Y-127515786D01*
X73462413Y-127666109D01*
X73634379Y-127791048D01*
X73634381Y-127791049D01*
X73634384Y-127791051D01*
X73643693Y-127795794D01*
X73694490Y-127843766D01*
X73711287Y-127911587D01*
X73688752Y-127977722D01*
X73643705Y-128016760D01*
X73634646Y-128021376D01*
X73634640Y-128021380D01*
X73580482Y-128060727D01*
X73580482Y-128060728D01*
X74212791Y-128693037D01*
X74149207Y-128710075D01*
X74035193Y-128775901D01*
X73942101Y-128868993D01*
X73876275Y-128983007D01*
X73859237Y-129046591D01*
X73226928Y-128414282D01*
X73226927Y-128414282D01*
X73187580Y-128468439D01*
X73091104Y-128657782D01*
X73025442Y-128859869D01*
X73025442Y-128859872D01*
X72992200Y-129069753D01*
X72992200Y-129282246D01*
X73025442Y-129492127D01*
X73025442Y-129492130D01*
X73091104Y-129694217D01*
X73187575Y-129883550D01*
X73226928Y-129937716D01*
X73859237Y-129305408D01*
X73876275Y-129368993D01*
X73942101Y-129483007D01*
X74035193Y-129576099D01*
X74149207Y-129641925D01*
X74212790Y-129658962D01*
X73542570Y-130329181D01*
X73481247Y-130362666D01*
X73454898Y-130365500D01*
X73444334Y-130365500D01*
X73444323Y-130365501D01*
X73384716Y-130371908D01*
X73249871Y-130422202D01*
X73249864Y-130422206D01*
X73134655Y-130508452D01*
X73134652Y-130508455D01*
X73048406Y-130623664D01*
X73048402Y-130623671D01*
X72998108Y-130758517D01*
X72993280Y-130803428D01*
X72991701Y-130818123D01*
X72991700Y-130818135D01*
X72991700Y-132613870D01*
X72991701Y-132613876D01*
X72998108Y-132673483D01*
X73048402Y-132808328D01*
X73048406Y-132808335D01*
X73134652Y-132923544D01*
X73134655Y-132923547D01*
X73249864Y-133009793D01*
X73249871Y-133009797D01*
X73384717Y-133060091D01*
X73384716Y-133060091D01*
X73391644Y-133060835D01*
X73444327Y-133066500D01*
X75240072Y-133066499D01*
X75299683Y-133060091D01*
X75434531Y-133009796D01*
X75549746Y-132923546D01*
X75635996Y-132808331D01*
X75686291Y-132673483D01*
X75692700Y-132613873D01*
X75692699Y-130818128D01*
X75686291Y-130758517D01*
X75684304Y-130753190D01*
X75635997Y-130623671D01*
X75635996Y-130623670D01*
X75635996Y-130623669D01*
X75555998Y-130516806D01*
X78382334Y-130516806D01*
X78402814Y-130659261D01*
X78402815Y-130659265D01*
X78462601Y-130790176D01*
X78462602Y-130790177D01*
X78462603Y-130790179D01*
X78500222Y-130836862D01*
X78500225Y-130836865D01*
X78500230Y-130836871D01*
X79298985Y-131635624D01*
X79982138Y-132318776D01*
X79982142Y-132318779D01*
X79982144Y-132318781D01*
X80028820Y-132356397D01*
X80159734Y-132416184D01*
X80159735Y-132416184D01*
X80159737Y-132416185D01*
X80302194Y-132436666D01*
X80444651Y-132416185D01*
X80575567Y-132356397D01*
X80622250Y-132318778D01*
X82104164Y-130836862D01*
X82141785Y-130790179D01*
X82201573Y-130659263D01*
X82222054Y-130516806D01*
X82201573Y-130374349D01*
X82200458Y-130371908D01*
X82141786Y-130243435D01*
X82141785Y-130243434D01*
X82141785Y-130243433D01*
X82104166Y-130196750D01*
X82104161Y-130196745D01*
X82104157Y-130196740D01*
X80622253Y-128714839D01*
X80622247Y-128714834D01*
X80622243Y-128714830D01*
X80575567Y-128677214D01*
X80444653Y-128617427D01*
X80444649Y-128617426D01*
X80302194Y-128596946D01*
X80159738Y-128617426D01*
X80159734Y-128617427D01*
X80028823Y-128677213D01*
X79982128Y-128714842D01*
X78500227Y-130196746D01*
X78500218Y-130196756D01*
X78462602Y-130243432D01*
X78402815Y-130374346D01*
X78402814Y-130374350D01*
X78382334Y-130516806D01*
X75555998Y-130516806D01*
X75549746Y-130508454D01*
X75549744Y-130508453D01*
X75549744Y-130508452D01*
X75434535Y-130422206D01*
X75434528Y-130422202D01*
X75299682Y-130371908D01*
X75299683Y-130371908D01*
X75240083Y-130365501D01*
X75240081Y-130365500D01*
X75240073Y-130365500D01*
X75240065Y-130365500D01*
X75229509Y-130365500D01*
X75162470Y-130345815D01*
X75141828Y-130329181D01*
X74471608Y-129658962D01*
X74535193Y-129641925D01*
X74649207Y-129576099D01*
X74742299Y-129483007D01*
X74808125Y-129368993D01*
X74825162Y-129305408D01*
X75457470Y-129937717D01*
X75457470Y-129937716D01*
X75496822Y-129883554D01*
X75593295Y-129694217D01*
X75658957Y-129492130D01*
X75658957Y-129492127D01*
X75692200Y-129282246D01*
X75692200Y-129069753D01*
X75658957Y-128859872D01*
X75658957Y-128859869D01*
X75593295Y-128657782D01*
X75496824Y-128468449D01*
X75457470Y-128414282D01*
X75457469Y-128414282D01*
X74825162Y-129046590D01*
X74808125Y-128983007D01*
X74742299Y-128868993D01*
X74649207Y-128775901D01*
X74535193Y-128710075D01*
X74471609Y-128693037D01*
X75103916Y-128060728D01*
X75049747Y-128021373D01*
X75049747Y-128021372D01*
X75040700Y-128016763D01*
X74989906Y-127968788D01*
X74973112Y-127900966D01*
X74995651Y-127834832D01*
X75040708Y-127795793D01*
X75050016Y-127791051D01*
X75170997Y-127703154D01*
X75221986Y-127666109D01*
X75221988Y-127666106D01*
X75221992Y-127666104D01*
X75372304Y-127515792D01*
X75372306Y-127515788D01*
X75372309Y-127515786D01*
X75497248Y-127343820D01*
X75497247Y-127343820D01*
X75497251Y-127343816D01*
X75593757Y-127154412D01*
X75659446Y-126952243D01*
X75692700Y-126742287D01*
X75692700Y-126529713D01*
X75659446Y-126319757D01*
X75593757Y-126117588D01*
X75497251Y-125928184D01*
X75497249Y-125928181D01*
X75497248Y-125928179D01*
X75372309Y-125756213D01*
X75221986Y-125605890D01*
X75050020Y-125480951D01*
X75049315Y-125480591D01*
X75041254Y-125476485D01*
X74990459Y-125428512D01*
X74973663Y-125360692D01*
X74996199Y-125294556D01*
X75041254Y-125255515D01*
X75050016Y-125251051D01*
X75169970Y-125163900D01*
X75221986Y-125126109D01*
X75221988Y-125126106D01*
X75221992Y-125126104D01*
X75323400Y-125024696D01*
X84175706Y-125024696D01*
X84175706Y-125260891D01*
X84212652Y-125494162D01*
X84285639Y-125718790D01*
X84347251Y-125839709D01*
X84392863Y-125929227D01*
X84531689Y-126120304D01*
X84698696Y-126287311D01*
X84889773Y-126426137D01*
X84975482Y-126469808D01*
X85100209Y-126533360D01*
X85100211Y-126533360D01*
X85100214Y-126533362D01*
X85220618Y-126572483D01*
X85324837Y-126606347D01*
X85558109Y-126643294D01*
X85558114Y-126643294D01*
X85794303Y-126643294D01*
X86027574Y-126606347D01*
X86084403Y-126587882D01*
X86252198Y-126533362D01*
X86462639Y-126426137D01*
X86653716Y-126287311D01*
X86820723Y-126120304D01*
X86959549Y-125929227D01*
X87066774Y-125718786D01*
X87139759Y-125494162D01*
X87157137Y-125384443D01*
X87176706Y-125260891D01*
X87176706Y-125024696D01*
X87139759Y-124791425D01*
X87066772Y-124566797D01*
X87003310Y-124442246D01*
X86959549Y-124356361D01*
X86820723Y-124165284D01*
X86653716Y-123998277D01*
X86462639Y-123859451D01*
X86375001Y-123814797D01*
X86252202Y-123752227D01*
X86027574Y-123679240D01*
X85794303Y-123642294D01*
X85794298Y-123642294D01*
X85558114Y-123642294D01*
X85558109Y-123642294D01*
X85324837Y-123679240D01*
X85100209Y-123752227D01*
X84889772Y-123859451D01*
X84810123Y-123917320D01*
X84698696Y-123998277D01*
X84698694Y-123998279D01*
X84698693Y-123998279D01*
X84531691Y-124165281D01*
X84531691Y-124165282D01*
X84531689Y-124165284D01*
X84504805Y-124202287D01*
X84392863Y-124356360D01*
X84285639Y-124566797D01*
X84212652Y-124791425D01*
X84175706Y-125024696D01*
X75323400Y-125024696D01*
X75372304Y-124975792D01*
X75497251Y-124803816D01*
X75593757Y-124614412D01*
X75659446Y-124412243D01*
X75692700Y-124202287D01*
X75692700Y-123989713D01*
X75659446Y-123779757D01*
X75593757Y-123577588D01*
X75497251Y-123388184D01*
X75497249Y-123388181D01*
X75497248Y-123388179D01*
X75372309Y-123216213D01*
X75221986Y-123065890D01*
X75050020Y-122940951D01*
X74860614Y-122844444D01*
X74860613Y-122844443D01*
X74860612Y-122844443D01*
X74658443Y-122778754D01*
X74658441Y-122778753D01*
X74658440Y-122778753D01*
X74497157Y-122753208D01*
X74448487Y-122745500D01*
X74235913Y-122745500D01*
X74187242Y-122753208D01*
X74025960Y-122778753D01*
X73823785Y-122844444D01*
X73634379Y-122940951D01*
X73462413Y-123065890D01*
X73312090Y-123216213D01*
X73187151Y-123388179D01*
X73090644Y-123577585D01*
X73024953Y-123779760D01*
X72991700Y-123989713D01*
X69763228Y-123989713D01*
X69719709Y-123929813D01*
X69569386Y-123779490D01*
X69397420Y-123654551D01*
X69396342Y-123654002D01*
X69388654Y-123650085D01*
X69337859Y-123602112D01*
X69321063Y-123534292D01*
X69343599Y-123468156D01*
X69388654Y-123429115D01*
X69397416Y-123424651D01*
X69433881Y-123398158D01*
X69569386Y-123299709D01*
X69569388Y-123299706D01*
X69569392Y-123299704D01*
X69719704Y-123149392D01*
X69719706Y-123149388D01*
X69719709Y-123149386D01*
X69844648Y-122977420D01*
X69844647Y-122977420D01*
X69844651Y-122977416D01*
X69941157Y-122788012D01*
X70006846Y-122585843D01*
X70040100Y-122375887D01*
X70040100Y-122163313D01*
X70006846Y-121953357D01*
X69941157Y-121751188D01*
X69844651Y-121561784D01*
X69844649Y-121561781D01*
X69844648Y-121561779D01*
X69719709Y-121389813D01*
X69569386Y-121239490D01*
X69397417Y-121114549D01*
X69388104Y-121109804D01*
X69337307Y-121061830D01*
X69320512Y-120994009D01*
X69343049Y-120927874D01*
X69388107Y-120888832D01*
X69397155Y-120884222D01*
X69451316Y-120844870D01*
X69451317Y-120844870D01*
X68819008Y-120212562D01*
X68882593Y-120195525D01*
X68996607Y-120129699D01*
X69089699Y-120036607D01*
X69155525Y-119922593D01*
X69172562Y-119859008D01*
X69804870Y-120491317D01*
X69804870Y-120491316D01*
X69844222Y-120437154D01*
X69922797Y-120282943D01*
X71191699Y-120282943D01*
X71230147Y-120476229D01*
X71230150Y-120476239D01*
X71305564Y-120658307D01*
X71305571Y-120658320D01*
X71415060Y-120822181D01*
X71415063Y-120822185D01*
X71554414Y-120961536D01*
X71554418Y-120961539D01*
X71718279Y-121071028D01*
X71718292Y-121071035D01*
X71900360Y-121146449D01*
X71900365Y-121146451D01*
X71900369Y-121146451D01*
X71900370Y-121146452D01*
X72093656Y-121184900D01*
X72093659Y-121184900D01*
X72290743Y-121184900D01*
X72420782Y-121159032D01*
X72484035Y-121146451D01*
X72666114Y-121071032D01*
X72829982Y-120961539D01*
X72969339Y-120822182D01*
X73078832Y-120658314D01*
X73154251Y-120476235D01*
X73172788Y-120383045D01*
X73187648Y-120308343D01*
X85824099Y-120308343D01*
X85862547Y-120501629D01*
X85862550Y-120501639D01*
X85937964Y-120683707D01*
X85937971Y-120683720D01*
X86047460Y-120847581D01*
X86047463Y-120847585D01*
X86186814Y-120986936D01*
X86186818Y-120986939D01*
X86350679Y-121096428D01*
X86350692Y-121096435D01*
X86532760Y-121171849D01*
X86532765Y-121171851D01*
X86532769Y-121171851D01*
X86532770Y-121171852D01*
X86726056Y-121210300D01*
X86726059Y-121210300D01*
X86923143Y-121210300D01*
X87053182Y-121184432D01*
X87116435Y-121171851D01*
X87298514Y-121096432D01*
X87462382Y-120986939D01*
X87601739Y-120847582D01*
X87711232Y-120683714D01*
X87786651Y-120501635D01*
X87825100Y-120308341D01*
X87825100Y-120111259D01*
X87825100Y-120111256D01*
X87786652Y-119917970D01*
X87786651Y-119917969D01*
X87786651Y-119917965D01*
X87776128Y-119892560D01*
X87711235Y-119735892D01*
X87711228Y-119735879D01*
X87601739Y-119572018D01*
X87601736Y-119572014D01*
X87462385Y-119432663D01*
X87462381Y-119432660D01*
X87298520Y-119323171D01*
X87298507Y-119323164D01*
X87116439Y-119247750D01*
X87116429Y-119247747D01*
X86923143Y-119209300D01*
X86923141Y-119209300D01*
X86726059Y-119209300D01*
X86726057Y-119209300D01*
X86532770Y-119247747D01*
X86532760Y-119247750D01*
X86350692Y-119323164D01*
X86350679Y-119323171D01*
X86186818Y-119432660D01*
X86186814Y-119432663D01*
X86047463Y-119572014D01*
X86047460Y-119572018D01*
X85937971Y-119735879D01*
X85937964Y-119735892D01*
X85862550Y-119917960D01*
X85862547Y-119917970D01*
X85824100Y-120111256D01*
X85824100Y-120111259D01*
X85824100Y-120308341D01*
X85824100Y-120308343D01*
X85824099Y-120308343D01*
X73187648Y-120308343D01*
X73192700Y-120282943D01*
X73192700Y-120085856D01*
X73154252Y-119892570D01*
X73154251Y-119892569D01*
X73154251Y-119892565D01*
X73154249Y-119892560D01*
X73078835Y-119710492D01*
X73078828Y-119710479D01*
X72969339Y-119546618D01*
X72969336Y-119546614D01*
X72829985Y-119407263D01*
X72829981Y-119407260D01*
X72666120Y-119297771D01*
X72666107Y-119297764D01*
X72484039Y-119222350D01*
X72484029Y-119222347D01*
X72290743Y-119183900D01*
X72290741Y-119183900D01*
X72093659Y-119183900D01*
X72093657Y-119183900D01*
X71900370Y-119222347D01*
X71900360Y-119222350D01*
X71718292Y-119297764D01*
X71718279Y-119297771D01*
X71554418Y-119407260D01*
X71554414Y-119407263D01*
X71415063Y-119546614D01*
X71415060Y-119546618D01*
X71305571Y-119710479D01*
X71305564Y-119710492D01*
X71230150Y-119892560D01*
X71230147Y-119892570D01*
X71191700Y-120085856D01*
X71191700Y-120085859D01*
X71191700Y-120282941D01*
X71191700Y-120282943D01*
X71191699Y-120282943D01*
X69922797Y-120282943D01*
X69940695Y-120247817D01*
X70006357Y-120045727D01*
X70039600Y-119835846D01*
X70039600Y-119623353D01*
X70006357Y-119413472D01*
X70006357Y-119413469D01*
X69940695Y-119211382D01*
X69844224Y-119022049D01*
X69804870Y-118967882D01*
X69804869Y-118967882D01*
X69172562Y-119600190D01*
X69155525Y-119536607D01*
X69089699Y-119422593D01*
X68996607Y-119329501D01*
X68882593Y-119263675D01*
X68819009Y-119246637D01*
X69451316Y-118614328D01*
X69397147Y-118574973D01*
X69397147Y-118574972D01*
X69388100Y-118570363D01*
X69337306Y-118522388D01*
X69320512Y-118454566D01*
X69343051Y-118388432D01*
X69388108Y-118349393D01*
X69397416Y-118344651D01*
X69506791Y-118265186D01*
X69569386Y-118219709D01*
X69569388Y-118219706D01*
X69569392Y-118219704D01*
X69719704Y-118069392D01*
X69719706Y-118069388D01*
X69719709Y-118069386D01*
X69844648Y-117897420D01*
X69844647Y-117897420D01*
X69844651Y-117897416D01*
X69941157Y-117708012D01*
X70006846Y-117505843D01*
X70040100Y-117295887D01*
X70040100Y-117083313D01*
X70006846Y-116873357D01*
X69941157Y-116671188D01*
X69844651Y-116481784D01*
X69844649Y-116481781D01*
X69844648Y-116481779D01*
X69719709Y-116309813D01*
X69569386Y-116159490D01*
X69397420Y-116034551D01*
X69396715Y-116034191D01*
X69388654Y-116030085D01*
X69337859Y-115982112D01*
X69321063Y-115914292D01*
X69343599Y-115848156D01*
X69388654Y-115809115D01*
X69397416Y-115804651D01*
X69464276Y-115756075D01*
X69569386Y-115679709D01*
X69569388Y-115679706D01*
X69569392Y-115679704D01*
X69719704Y-115529392D01*
X69719706Y-115529388D01*
X69719709Y-115529386D01*
X69844648Y-115357420D01*
X69844647Y-115357420D01*
X69844651Y-115357416D01*
X69941157Y-115168012D01*
X70006846Y-114965843D01*
X70040100Y-114755887D01*
X70040100Y-114543313D01*
X70006846Y-114333357D01*
X69941157Y-114131188D01*
X69844651Y-113941784D01*
X69844649Y-113941781D01*
X69844648Y-113941779D01*
X69719709Y-113769813D01*
X69569386Y-113619490D01*
X69397420Y-113494551D01*
X69396715Y-113494191D01*
X69388654Y-113490085D01*
X69337859Y-113442112D01*
X69321063Y-113374292D01*
X69343599Y-113308156D01*
X69388654Y-113269115D01*
X69397416Y-113264651D01*
X69458393Y-113220349D01*
X69569386Y-113139709D01*
X69569388Y-113139706D01*
X69569392Y-113139704D01*
X69719704Y-112989392D01*
X69719706Y-112989388D01*
X69719709Y-112989386D01*
X69844648Y-112817420D01*
X69844647Y-112817420D01*
X69844651Y-112817416D01*
X69941157Y-112628012D01*
X70006846Y-112425843D01*
X70040100Y-112215887D01*
X70040100Y-112003313D01*
X70006846Y-111793357D01*
X69941157Y-111591188D01*
X69844651Y-111401784D01*
X69844649Y-111401781D01*
X69844648Y-111401779D01*
X69719709Y-111229813D01*
X69569386Y-111079490D01*
X69397420Y-110954551D01*
X69396715Y-110954191D01*
X69388654Y-110950085D01*
X69337859Y-110902112D01*
X69321063Y-110834292D01*
X69343599Y-110768156D01*
X69388654Y-110729115D01*
X69397416Y-110724651D01*
X69458393Y-110680349D01*
X69569386Y-110599709D01*
X69569388Y-110599706D01*
X69569392Y-110599704D01*
X69719704Y-110449392D01*
X69719706Y-110449388D01*
X69719709Y-110449386D01*
X69844648Y-110277420D01*
X69844650Y-110277417D01*
X69844651Y-110277416D01*
X69941157Y-110088012D01*
X70006846Y-109885843D01*
X70040100Y-109675887D01*
X70040100Y-109463313D01*
X70006846Y-109253357D01*
X69941157Y-109051188D01*
X69844651Y-108861784D01*
X69844649Y-108861781D01*
X69844648Y-108861779D01*
X69719709Y-108689813D01*
X69569386Y-108539490D01*
X69397420Y-108414551D01*
X69389200Y-108410363D01*
X69388654Y-108410085D01*
X69337859Y-108362112D01*
X69321063Y-108294292D01*
X69343599Y-108228156D01*
X69388654Y-108189115D01*
X69397416Y-108184651D01*
X69458393Y-108140349D01*
X69569386Y-108059709D01*
X69569388Y-108059706D01*
X69569392Y-108059704D01*
X69719704Y-107909392D01*
X69719706Y-107909388D01*
X69719709Y-107909386D01*
X69844648Y-107737420D01*
X69844647Y-107737420D01*
X69844651Y-107737416D01*
X69941157Y-107548012D01*
X70006846Y-107345843D01*
X70040100Y-107135887D01*
X70040100Y-106923313D01*
X70006846Y-106713357D01*
X69941157Y-106511188D01*
X69844651Y-106321784D01*
X69844649Y-106321781D01*
X69844648Y-106321779D01*
X69719709Y-106149813D01*
X69569386Y-105999490D01*
X69397420Y-105874551D01*
X69396715Y-105874191D01*
X69388654Y-105870085D01*
X69337859Y-105822112D01*
X69321063Y-105754292D01*
X69343599Y-105688156D01*
X69388654Y-105649115D01*
X69397416Y-105644651D01*
X69458393Y-105600349D01*
X69569386Y-105519709D01*
X69569388Y-105519706D01*
X69569392Y-105519704D01*
X69719704Y-105369392D01*
X69719706Y-105369388D01*
X69719709Y-105369386D01*
X69844648Y-105197420D01*
X69844647Y-105197420D01*
X69844651Y-105197416D01*
X69941157Y-105008012D01*
X70006846Y-104805843D01*
X70040100Y-104595887D01*
X70040100Y-104383313D01*
X70006846Y-104173357D01*
X69941157Y-103971188D01*
X69844651Y-103781784D01*
X69844649Y-103781781D01*
X69844648Y-103781779D01*
X69719709Y-103609813D01*
X69569386Y-103459490D01*
X69397417Y-103334549D01*
X69388104Y-103329804D01*
X69337307Y-103281830D01*
X69320512Y-103214009D01*
X69343049Y-103147874D01*
X69388107Y-103108832D01*
X69397155Y-103104222D01*
X69451316Y-103064870D01*
X69451317Y-103064870D01*
X68819008Y-102432562D01*
X68882593Y-102415525D01*
X68996607Y-102349699D01*
X69089699Y-102256607D01*
X69155525Y-102142593D01*
X69172562Y-102079008D01*
X69804870Y-102711317D01*
X69804870Y-102711316D01*
X69844222Y-102657154D01*
X69940695Y-102467817D01*
X70006357Y-102265730D01*
X70006357Y-102265727D01*
X70039600Y-102055846D01*
X70039600Y-101843353D01*
X70006357Y-101633472D01*
X70006357Y-101633469D01*
X69940695Y-101431382D01*
X69844224Y-101242049D01*
X69804870Y-101187882D01*
X69804869Y-101187882D01*
X69172562Y-101820190D01*
X69155525Y-101756607D01*
X69089699Y-101642593D01*
X68996607Y-101549501D01*
X68882593Y-101483675D01*
X68819009Y-101466637D01*
X69409931Y-100875713D01*
X74044100Y-100875713D01*
X74044100Y-101088286D01*
X74068453Y-101242049D01*
X74077354Y-101298243D01*
X74078541Y-101301897D01*
X74143044Y-101500414D01*
X74239551Y-101689820D01*
X74364490Y-101861786D01*
X74514813Y-102012109D01*
X74686782Y-102137050D01*
X74695546Y-102141516D01*
X74746342Y-102189491D01*
X74763136Y-102257312D01*
X74740598Y-102323447D01*
X74695546Y-102362484D01*
X74686782Y-102366949D01*
X74514813Y-102491890D01*
X74364490Y-102642213D01*
X74239551Y-102814179D01*
X74143044Y-103003585D01*
X74077353Y-103205760D01*
X74044100Y-103415713D01*
X74044100Y-103628286D01*
X74068411Y-103781784D01*
X74077354Y-103838243D01*
X74107237Y-103930214D01*
X74143044Y-104040414D01*
X74239551Y-104229820D01*
X74364490Y-104401786D01*
X74514813Y-104552109D01*
X74686782Y-104677050D01*
X74695546Y-104681516D01*
X74746342Y-104729491D01*
X74763136Y-104797312D01*
X74740598Y-104863447D01*
X74695546Y-104902484D01*
X74686782Y-104906949D01*
X74514813Y-105031890D01*
X74364490Y-105182213D01*
X74239551Y-105354179D01*
X74143044Y-105543585D01*
X74077353Y-105745760D01*
X74044100Y-105955713D01*
X74044100Y-106168286D01*
X74073071Y-106351206D01*
X74077354Y-106378243D01*
X74138801Y-106567358D01*
X74143044Y-106580414D01*
X74239551Y-106769820D01*
X74364490Y-106941786D01*
X74514813Y-107092109D01*
X74686782Y-107217050D01*
X74695546Y-107221516D01*
X74746342Y-107269491D01*
X74763136Y-107337312D01*
X74740598Y-107403447D01*
X74695546Y-107442484D01*
X74686782Y-107446949D01*
X74514813Y-107571890D01*
X74364490Y-107722213D01*
X74239551Y-107894179D01*
X74143044Y-108083585D01*
X74077353Y-108285760D01*
X74044100Y-108495713D01*
X74044100Y-108708286D01*
X74077353Y-108918239D01*
X74143044Y-109120414D01*
X74239551Y-109309820D01*
X74364490Y-109481786D01*
X74514813Y-109632109D01*
X74686782Y-109757050D01*
X74695546Y-109761516D01*
X74746342Y-109809491D01*
X74763136Y-109877312D01*
X74740598Y-109943447D01*
X74695546Y-109982484D01*
X74686782Y-109986949D01*
X74514813Y-110111890D01*
X74364490Y-110262213D01*
X74239551Y-110434179D01*
X74143044Y-110623585D01*
X74077353Y-110825760D01*
X74044100Y-111035713D01*
X74044100Y-111248286D01*
X74077353Y-111458239D01*
X74143044Y-111660414D01*
X74239551Y-111849820D01*
X74364490Y-112021786D01*
X74514813Y-112172109D01*
X74686782Y-112297050D01*
X74695546Y-112301516D01*
X74746342Y-112349491D01*
X74763136Y-112417312D01*
X74740598Y-112483447D01*
X74695546Y-112522484D01*
X74686782Y-112526949D01*
X74514813Y-112651890D01*
X74364490Y-112802213D01*
X74239551Y-112974179D01*
X74143044Y-113163585D01*
X74077353Y-113365760D01*
X74047918Y-113551606D01*
X74044100Y-113575713D01*
X74044100Y-113788287D01*
X74054134Y-113851644D01*
X74077353Y-113998239D01*
X74143044Y-114200414D01*
X74239551Y-114389820D01*
X74364490Y-114561786D01*
X74514813Y-114712109D01*
X74686779Y-114837048D01*
X74686781Y-114837049D01*
X74686784Y-114837051D01*
X74696093Y-114841794D01*
X74746890Y-114889766D01*
X74763687Y-114957587D01*
X74741152Y-115023722D01*
X74696105Y-115062760D01*
X74687046Y-115067376D01*
X74687040Y-115067380D01*
X74632882Y-115106727D01*
X74632882Y-115106728D01*
X75265191Y-115739037D01*
X75201607Y-115756075D01*
X75087593Y-115821901D01*
X74994501Y-115914993D01*
X74928675Y-116029007D01*
X74911637Y-116092591D01*
X74279328Y-115460282D01*
X74279327Y-115460282D01*
X74239980Y-115514439D01*
X74143504Y-115703782D01*
X74077842Y-115905869D01*
X74077842Y-115905872D01*
X74044600Y-116115753D01*
X74044600Y-116328246D01*
X74077842Y-116538127D01*
X74077842Y-116538130D01*
X74143504Y-116740217D01*
X74239975Y-116929550D01*
X74279328Y-116983716D01*
X74911637Y-116351408D01*
X74928675Y-116414993D01*
X74994501Y-116529007D01*
X75087593Y-116622099D01*
X75201607Y-116687925D01*
X75265190Y-116704962D01*
X74632882Y-117337269D01*
X74632882Y-117337270D01*
X74687049Y-117376624D01*
X74876382Y-117473095D01*
X75078470Y-117538757D01*
X75288354Y-117572000D01*
X75500846Y-117572000D01*
X75710727Y-117538757D01*
X75710730Y-117538757D01*
X75912817Y-117473095D01*
X76102154Y-117376622D01*
X76156316Y-117337270D01*
X76156317Y-117337270D01*
X75524008Y-116704962D01*
X75587593Y-116687925D01*
X75701607Y-116622099D01*
X75794699Y-116529007D01*
X75860525Y-116414993D01*
X75877562Y-116351408D01*
X76513853Y-116987700D01*
X76567345Y-116998937D01*
X76617103Y-117047988D01*
X76626405Y-117069187D01*
X76650242Y-117141121D01*
X76650243Y-117141124D01*
X76742284Y-117290345D01*
X76866254Y-117414315D01*
X77015475Y-117506356D01*
X77015480Y-117506358D01*
X77181902Y-117561505D01*
X77181909Y-117561506D01*
X77284619Y-117571999D01*
X77684599Y-117571999D01*
X77684600Y-117571998D01*
X77684600Y-116655012D01*
X77741607Y-116687925D01*
X77868774Y-116722000D01*
X78000426Y-116722000D01*
X78127593Y-116687925D01*
X78184600Y-116655012D01*
X78184600Y-117571999D01*
X78584572Y-117571999D01*
X78584586Y-117571998D01*
X78687297Y-117561505D01*
X78853719Y-117506358D01*
X78853724Y-117506356D01*
X79002945Y-117414315D01*
X79126915Y-117290345D01*
X79218956Y-117141124D01*
X79218958Y-117141119D01*
X79274105Y-116974697D01*
X79274106Y-116974690D01*
X79284599Y-116871986D01*
X79284600Y-116871973D01*
X79284600Y-116472000D01*
X78367612Y-116472000D01*
X78400525Y-116414993D01*
X78434600Y-116287826D01*
X78434600Y-116156174D01*
X78400525Y-116029007D01*
X78367612Y-115972000D01*
X79284599Y-115972000D01*
X79284599Y-115572028D01*
X79284598Y-115572013D01*
X79274105Y-115469302D01*
X79218958Y-115302880D01*
X79218956Y-115302875D01*
X79126915Y-115153654D01*
X79002945Y-115029684D01*
X78853724Y-114937643D01*
X78853714Y-114937639D01*
X78842872Y-114934046D01*
X78785429Y-114894272D01*
X78758609Y-114829755D01*
X78770926Y-114760979D01*
X78809003Y-114716018D01*
X78814392Y-114712104D01*
X78964704Y-114561792D01*
X78964706Y-114561788D01*
X78964709Y-114561786D01*
X79089648Y-114389820D01*
X79089647Y-114389820D01*
X79089651Y-114389816D01*
X79186157Y-114200412D01*
X79251846Y-113998243D01*
X79259877Y-113947535D01*
X81511700Y-113947535D01*
X81511700Y-115743270D01*
X81511701Y-115743276D01*
X81518108Y-115802883D01*
X81568402Y-115937728D01*
X81568406Y-115937735D01*
X81654652Y-116052944D01*
X81654655Y-116052947D01*
X81769864Y-116139193D01*
X81769871Y-116139197D01*
X81901282Y-116188210D01*
X81957216Y-116230081D01*
X81981633Y-116295545D01*
X81966782Y-116363818D01*
X81945631Y-116392073D01*
X81832089Y-116505615D01*
X81707151Y-116677579D01*
X81610644Y-116866985D01*
X81544953Y-117069160D01*
X81533556Y-117141119D01*
X81511700Y-117279113D01*
X81511700Y-117491687D01*
X81544954Y-117701643D01*
X81605718Y-117888656D01*
X81610644Y-117903814D01*
X81707151Y-118093220D01*
X81832090Y-118265186D01*
X81982413Y-118415509D01*
X82154379Y-118540448D01*
X82154381Y-118540449D01*
X82154384Y-118540451D01*
X82343788Y-118636957D01*
X82545957Y-118702646D01*
X82755913Y-118735900D01*
X82755914Y-118735900D01*
X82968486Y-118735900D01*
X82968487Y-118735900D01*
X83178443Y-118702646D01*
X83380612Y-118636957D01*
X83570016Y-118540451D01*
X83673609Y-118465187D01*
X83741986Y-118415509D01*
X83741988Y-118415506D01*
X83741992Y-118415504D01*
X83892304Y-118265192D01*
X83892306Y-118265188D01*
X83892309Y-118265186D01*
X84017248Y-118093220D01*
X84017247Y-118093220D01*
X84017251Y-118093216D01*
X84113757Y-117903812D01*
X84179446Y-117701643D01*
X84212700Y-117491687D01*
X84212700Y-117279113D01*
X84179446Y-117069157D01*
X84113757Y-116866988D01*
X84017251Y-116677584D01*
X84017249Y-116677581D01*
X84017248Y-116677579D01*
X83892309Y-116505613D01*
X83778769Y-116392073D01*
X83745284Y-116330750D01*
X83750268Y-116261058D01*
X83792140Y-116205125D01*
X83823115Y-116188210D01*
X83954531Y-116139196D01*
X84069746Y-116052946D01*
X84155996Y-115937731D01*
X84206291Y-115802883D01*
X84212700Y-115743273D01*
X84212699Y-113947528D01*
X84206291Y-113887917D01*
X84182503Y-113824139D01*
X84155997Y-113753071D01*
X84155993Y-113753064D01*
X84069747Y-113637855D01*
X84069744Y-113637852D01*
X83954535Y-113551606D01*
X83954528Y-113551602D01*
X83819682Y-113501308D01*
X83819683Y-113501308D01*
X83760083Y-113494901D01*
X83760081Y-113494900D01*
X83760073Y-113494900D01*
X83760064Y-113494900D01*
X81964329Y-113494900D01*
X81964323Y-113494901D01*
X81904716Y-113501308D01*
X81769871Y-113551602D01*
X81769864Y-113551606D01*
X81654655Y-113637852D01*
X81654652Y-113637855D01*
X81568406Y-113753064D01*
X81568402Y-113753071D01*
X81518108Y-113887917D01*
X81512317Y-113941784D01*
X81511701Y-113947523D01*
X81511700Y-113947535D01*
X79259877Y-113947535D01*
X79285100Y-113788287D01*
X79285100Y-113575713D01*
X79251846Y-113365757D01*
X79186157Y-113163588D01*
X79176963Y-113145543D01*
X86382899Y-113145543D01*
X86421347Y-113338829D01*
X86421350Y-113338839D01*
X86496764Y-113520907D01*
X86496771Y-113520920D01*
X86606260Y-113684781D01*
X86606263Y-113684785D01*
X86745614Y-113824136D01*
X86745618Y-113824139D01*
X86909479Y-113933628D01*
X86909492Y-113933635D01*
X87091560Y-114009049D01*
X87091565Y-114009051D01*
X87091569Y-114009051D01*
X87091570Y-114009052D01*
X87284856Y-114047500D01*
X87284859Y-114047500D01*
X87481943Y-114047500D01*
X87629562Y-114018136D01*
X87675235Y-114009051D01*
X87857314Y-113933632D01*
X88021182Y-113824139D01*
X88160539Y-113684782D01*
X88270032Y-113520914D01*
X88345451Y-113338835D01*
X88360207Y-113264651D01*
X88383900Y-113145543D01*
X88383900Y-112948456D01*
X88345452Y-112755170D01*
X88345451Y-112755169D01*
X88345451Y-112755165D01*
X88302676Y-112651896D01*
X88270035Y-112573092D01*
X88270028Y-112573079D01*
X88160539Y-112409218D01*
X88160536Y-112409214D01*
X88021185Y-112269863D01*
X88021181Y-112269860D01*
X87857320Y-112160371D01*
X87857307Y-112160364D01*
X87675239Y-112084950D01*
X87675229Y-112084947D01*
X87481943Y-112046500D01*
X87481941Y-112046500D01*
X87284859Y-112046500D01*
X87284857Y-112046500D01*
X87091570Y-112084947D01*
X87091560Y-112084950D01*
X86909492Y-112160364D01*
X86909479Y-112160371D01*
X86745618Y-112269860D01*
X86745614Y-112269863D01*
X86606263Y-112409214D01*
X86606260Y-112409218D01*
X86496771Y-112573079D01*
X86496764Y-112573092D01*
X86421350Y-112755160D01*
X86421347Y-112755170D01*
X86382900Y-112948456D01*
X86382900Y-112948459D01*
X86382900Y-113145541D01*
X86382900Y-113145543D01*
X86382899Y-113145543D01*
X79176963Y-113145543D01*
X79089651Y-112974184D01*
X79089649Y-112974181D01*
X79089648Y-112974179D01*
X78964709Y-112802213D01*
X78814386Y-112651890D01*
X78642420Y-112526951D01*
X78641715Y-112526591D01*
X78633654Y-112522485D01*
X78582859Y-112474512D01*
X78566063Y-112406692D01*
X78588599Y-112340556D01*
X78633654Y-112301515D01*
X78642416Y-112297051D01*
X78679840Y-112269861D01*
X78814386Y-112172109D01*
X78814388Y-112172106D01*
X78814392Y-112172104D01*
X78964704Y-112021792D01*
X78964706Y-112021788D01*
X78964709Y-112021786D01*
X79089648Y-111849820D01*
X79089647Y-111849820D01*
X79089651Y-111849816D01*
X79186157Y-111660412D01*
X79251846Y-111458243D01*
X79285100Y-111248287D01*
X79285100Y-111035713D01*
X79251846Y-110825757D01*
X79186157Y-110623588D01*
X79089651Y-110434184D01*
X79089649Y-110434181D01*
X79089648Y-110434179D01*
X78964709Y-110262213D01*
X78814386Y-110111890D01*
X78642420Y-109986951D01*
X78641715Y-109986591D01*
X78633654Y-109982485D01*
X78582859Y-109934512D01*
X78566063Y-109866692D01*
X78588599Y-109800556D01*
X78633654Y-109761515D01*
X78642416Y-109757051D01*
X78664389Y-109741086D01*
X78814386Y-109632109D01*
X78814388Y-109632106D01*
X78814392Y-109632104D01*
X78964704Y-109481792D01*
X78964706Y-109481788D01*
X78964709Y-109481786D01*
X79089648Y-109309820D01*
X79089647Y-109309820D01*
X79089651Y-109309816D01*
X79186157Y-109120412D01*
X79251846Y-108918243D01*
X79285100Y-108708287D01*
X79285100Y-108495713D01*
X79251846Y-108285757D01*
X79186157Y-108083588D01*
X79089651Y-107894184D01*
X79089649Y-107894181D01*
X79089648Y-107894179D01*
X78964709Y-107722213D01*
X78814386Y-107571890D01*
X78642420Y-107446951D01*
X78641715Y-107446591D01*
X78633654Y-107442485D01*
X78582859Y-107394512D01*
X78566063Y-107326692D01*
X78588599Y-107260556D01*
X78633654Y-107221515D01*
X78642416Y-107217051D01*
X78725773Y-107156489D01*
X78814386Y-107092109D01*
X78814388Y-107092106D01*
X78814392Y-107092104D01*
X78964704Y-106941792D01*
X78964706Y-106941788D01*
X78964709Y-106941786D01*
X79089648Y-106769820D01*
X79089647Y-106769820D01*
X79089651Y-106769816D01*
X79186157Y-106580412D01*
X79190400Y-106567353D01*
X80944100Y-106567353D01*
X80944100Y-106725046D01*
X80974861Y-106879689D01*
X80974864Y-106879701D01*
X81035202Y-107025372D01*
X81035209Y-107025385D01*
X81122810Y-107156488D01*
X81122813Y-107156492D01*
X81234307Y-107267986D01*
X81234311Y-107267989D01*
X81365414Y-107355590D01*
X81365427Y-107355597D01*
X81459378Y-107394512D01*
X81511103Y-107415937D01*
X81644563Y-107442484D01*
X81665753Y-107446699D01*
X81665756Y-107446700D01*
X81665758Y-107446700D01*
X81823444Y-107446700D01*
X81823445Y-107446699D01*
X81978097Y-107415937D01*
X82123779Y-107355594D01*
X82254889Y-107267989D01*
X82366389Y-107156489D01*
X82453994Y-107025379D01*
X82514337Y-106879697D01*
X82545100Y-106725042D01*
X82545100Y-106567358D01*
X82545100Y-106567355D01*
X82545099Y-106567353D01*
X82533926Y-106511185D01*
X82514337Y-106412703D01*
X82498968Y-106375598D01*
X82453997Y-106267027D01*
X82453990Y-106267014D01*
X82366389Y-106135911D01*
X82366386Y-106135907D01*
X82254892Y-106024413D01*
X82254888Y-106024410D01*
X82123785Y-105936809D01*
X82123772Y-105936802D01*
X81978101Y-105876464D01*
X81978089Y-105876461D01*
X81823445Y-105845700D01*
X81823442Y-105845700D01*
X81665758Y-105845700D01*
X81665755Y-105845700D01*
X81511110Y-105876461D01*
X81511098Y-105876464D01*
X81365427Y-105936802D01*
X81365414Y-105936809D01*
X81234311Y-106024410D01*
X81234307Y-106024413D01*
X81122813Y-106135907D01*
X81122810Y-106135911D01*
X81035209Y-106267014D01*
X81035202Y-106267027D01*
X80974864Y-106412698D01*
X80974861Y-106412710D01*
X80944100Y-106567353D01*
X79190400Y-106567353D01*
X79251846Y-106378243D01*
X79285100Y-106168287D01*
X79285100Y-105955713D01*
X79251846Y-105745757D01*
X79186157Y-105543588D01*
X79089651Y-105354184D01*
X79089649Y-105354181D01*
X79089648Y-105354179D01*
X78964709Y-105182213D01*
X78814386Y-105031890D01*
X78642420Y-104906951D01*
X78641715Y-104906591D01*
X78633654Y-104902485D01*
X78582859Y-104854512D01*
X78566063Y-104786692D01*
X78588599Y-104720556D01*
X78633654Y-104681515D01*
X78642416Y-104677051D01*
X78664389Y-104661086D01*
X78814386Y-104552109D01*
X78814388Y-104552106D01*
X78814392Y-104552104D01*
X78964704Y-104401792D01*
X78964706Y-104401788D01*
X78964709Y-104401786D01*
X79019499Y-104326371D01*
X79089116Y-104230553D01*
X80994900Y-104230553D01*
X80994900Y-104388246D01*
X81025661Y-104542889D01*
X81025664Y-104542901D01*
X81086002Y-104688572D01*
X81086009Y-104688585D01*
X81173610Y-104819688D01*
X81173613Y-104819692D01*
X81285107Y-104931186D01*
X81285111Y-104931189D01*
X81416214Y-105018790D01*
X81416227Y-105018797D01*
X81561898Y-105079135D01*
X81561903Y-105079137D01*
X81716553Y-105109899D01*
X81716556Y-105109900D01*
X81716558Y-105109900D01*
X81874244Y-105109900D01*
X81874245Y-105109899D01*
X82028897Y-105079137D01*
X82174579Y-105018794D01*
X82305689Y-104931189D01*
X82417189Y-104819689D01*
X82504794Y-104688579D01*
X82565137Y-104542897D01*
X82595900Y-104388242D01*
X82595900Y-104230558D01*
X82595900Y-104230555D01*
X82595899Y-104230553D01*
X82585047Y-104175999D01*
X82565137Y-104075903D01*
X82521762Y-103971185D01*
X82504797Y-103930227D01*
X82504790Y-103930214D01*
X82417189Y-103799111D01*
X82417186Y-103799107D01*
X82305692Y-103687613D01*
X82305688Y-103687610D01*
X82174585Y-103600009D01*
X82174572Y-103600002D01*
X82028901Y-103539664D01*
X82028889Y-103539661D01*
X81874245Y-103508900D01*
X81874242Y-103508900D01*
X81716558Y-103508900D01*
X81716555Y-103508900D01*
X81561910Y-103539661D01*
X81561898Y-103539664D01*
X81416227Y-103600002D01*
X81416214Y-103600009D01*
X81285111Y-103687610D01*
X81285107Y-103687613D01*
X81173613Y-103799107D01*
X81173610Y-103799111D01*
X81086009Y-103930214D01*
X81086002Y-103930227D01*
X81025664Y-104075898D01*
X81025661Y-104075910D01*
X80994900Y-104230553D01*
X79089116Y-104230553D01*
X79089651Y-104229816D01*
X79186157Y-104040412D01*
X79251846Y-103838243D01*
X79285100Y-103628287D01*
X79285100Y-103415713D01*
X79251846Y-103205757D01*
X79186157Y-103003588D01*
X79089651Y-102814184D01*
X79089649Y-102814181D01*
X79089648Y-102814179D01*
X78964709Y-102642213D01*
X78876649Y-102554153D01*
X79851900Y-102554153D01*
X79851900Y-102711846D01*
X79882661Y-102866489D01*
X79882664Y-102866501D01*
X79943002Y-103012172D01*
X79943009Y-103012185D01*
X80030610Y-103143288D01*
X80030613Y-103143292D01*
X80142107Y-103254786D01*
X80142111Y-103254789D01*
X80273214Y-103342390D01*
X80273227Y-103342397D01*
X80418898Y-103402735D01*
X80418903Y-103402737D01*
X80573553Y-103433499D01*
X80573556Y-103433500D01*
X80573558Y-103433500D01*
X80731244Y-103433500D01*
X80731245Y-103433499D01*
X80885897Y-103402737D01*
X81031579Y-103342394D01*
X81162689Y-103254789D01*
X81274189Y-103143289D01*
X81361794Y-103012179D01*
X81365353Y-103003588D01*
X81422135Y-102866501D01*
X81422137Y-102866497D01*
X81452900Y-102711842D01*
X81452900Y-102554158D01*
X81452900Y-102554155D01*
X81452899Y-102554153D01*
X81435764Y-102468012D01*
X81422137Y-102399503D01*
X81406804Y-102362486D01*
X81361797Y-102253827D01*
X81361790Y-102253814D01*
X81274189Y-102122711D01*
X81274186Y-102122707D01*
X81162692Y-102011213D01*
X81162688Y-102011210D01*
X81031585Y-101923609D01*
X81031572Y-101923602D01*
X80885901Y-101863264D01*
X80885889Y-101863261D01*
X80731245Y-101832500D01*
X80731242Y-101832500D01*
X80573558Y-101832500D01*
X80573555Y-101832500D01*
X80418910Y-101863261D01*
X80418898Y-101863264D01*
X80273227Y-101923602D01*
X80273214Y-101923609D01*
X80142111Y-102011210D01*
X80142107Y-102011213D01*
X80030613Y-102122707D01*
X80030610Y-102122711D01*
X79943009Y-102253814D01*
X79943002Y-102253827D01*
X79882664Y-102399498D01*
X79882661Y-102399510D01*
X79851900Y-102554153D01*
X78876649Y-102554153D01*
X78814386Y-102491890D01*
X78642420Y-102366951D01*
X78641715Y-102366591D01*
X78633654Y-102362485D01*
X78582859Y-102314512D01*
X78566063Y-102246692D01*
X78588599Y-102180556D01*
X78633654Y-102141515D01*
X78642416Y-102137051D01*
X78664389Y-102121086D01*
X78814386Y-102012109D01*
X78814388Y-102012106D01*
X78814392Y-102012104D01*
X78964704Y-101861792D01*
X78964706Y-101861788D01*
X78964709Y-101861786D01*
X79089648Y-101689820D01*
X79089647Y-101689820D01*
X79089651Y-101689816D01*
X79186157Y-101500412D01*
X79251846Y-101298243D01*
X79285100Y-101088287D01*
X79285100Y-100875713D01*
X79251846Y-100665757D01*
X79186157Y-100463588D01*
X79089651Y-100274184D01*
X79089649Y-100274181D01*
X79089648Y-100274179D01*
X78964709Y-100102213D01*
X78814386Y-99951890D01*
X78642420Y-99826951D01*
X78453014Y-99730444D01*
X78453013Y-99730443D01*
X78453012Y-99730443D01*
X78250843Y-99664754D01*
X78250841Y-99664753D01*
X78250840Y-99664753D01*
X78089557Y-99639208D01*
X78040887Y-99631500D01*
X77828313Y-99631500D01*
X77779642Y-99639208D01*
X77618360Y-99664753D01*
X77416185Y-99730444D01*
X77226779Y-99826951D01*
X77054813Y-99951890D01*
X76904490Y-100102213D01*
X76779549Y-100274182D01*
X76775084Y-100282946D01*
X76727109Y-100333742D01*
X76659288Y-100350536D01*
X76593153Y-100327998D01*
X76554116Y-100282946D01*
X76549650Y-100274182D01*
X76424709Y-100102213D01*
X76274386Y-99951890D01*
X76102420Y-99826951D01*
X75913014Y-99730444D01*
X75913013Y-99730443D01*
X75913012Y-99730443D01*
X75710843Y-99664754D01*
X75710841Y-99664753D01*
X75710840Y-99664753D01*
X75549557Y-99639208D01*
X75500887Y-99631500D01*
X75288313Y-99631500D01*
X75239642Y-99639208D01*
X75078360Y-99664753D01*
X74876185Y-99730444D01*
X74686779Y-99826951D01*
X74514813Y-99951890D01*
X74364490Y-100102213D01*
X74239551Y-100274179D01*
X74143044Y-100463585D01*
X74077353Y-100665760D01*
X74044100Y-100875713D01*
X69409931Y-100875713D01*
X69421981Y-100863663D01*
X69342939Y-100751169D01*
X69341212Y-100746078D01*
X69337306Y-100742388D01*
X69330113Y-100713341D01*
X69320504Y-100684999D01*
X69321804Y-100679783D01*
X69320512Y-100674566D01*
X69330166Y-100646238D01*
X69337404Y-100617204D01*
X69341317Y-100613519D01*
X69343051Y-100608432D01*
X69388108Y-100569393D01*
X69397416Y-100564651D01*
X69476607Y-100507115D01*
X69569386Y-100439709D01*
X69569388Y-100439706D01*
X69569392Y-100439704D01*
X69719704Y-100289392D01*
X69719706Y-100289388D01*
X69719709Y-100289386D01*
X69844648Y-100117420D01*
X69844647Y-100117420D01*
X69844651Y-100117416D01*
X69941157Y-99928012D01*
X70006846Y-99725843D01*
X70013546Y-99683543D01*
X71191699Y-99683543D01*
X71230147Y-99876829D01*
X71230150Y-99876839D01*
X71305564Y-100058907D01*
X71305571Y-100058920D01*
X71415060Y-100222781D01*
X71415063Y-100222785D01*
X71554414Y-100362136D01*
X71554418Y-100362139D01*
X71718279Y-100471628D01*
X71718292Y-100471635D01*
X71835900Y-100520349D01*
X71900365Y-100547051D01*
X71900369Y-100547051D01*
X71900370Y-100547052D01*
X72093656Y-100585500D01*
X72093659Y-100585500D01*
X72290743Y-100585500D01*
X72420782Y-100559632D01*
X72484035Y-100547051D01*
X72666114Y-100471632D01*
X72829982Y-100362139D01*
X72969339Y-100222782D01*
X73078832Y-100058914D01*
X73154251Y-99876835D01*
X73166832Y-99813582D01*
X73192700Y-99683543D01*
X73192700Y-99486456D01*
X73154252Y-99293170D01*
X73154251Y-99293169D01*
X73154251Y-99293165D01*
X73112223Y-99191699D01*
X73078835Y-99111092D01*
X73078828Y-99111079D01*
X72969339Y-98947218D01*
X72969336Y-98947214D01*
X72829985Y-98807863D01*
X72829981Y-98807860D01*
X72666120Y-98698371D01*
X72666107Y-98698364D01*
X72484039Y-98622950D01*
X72484029Y-98622947D01*
X72290743Y-98584500D01*
X72290741Y-98584500D01*
X72093659Y-98584500D01*
X72093657Y-98584500D01*
X71900370Y-98622947D01*
X71900360Y-98622950D01*
X71718292Y-98698364D01*
X71718279Y-98698371D01*
X71554418Y-98807860D01*
X71554414Y-98807863D01*
X71415063Y-98947214D01*
X71415060Y-98947218D01*
X71305571Y-99111079D01*
X71305564Y-99111092D01*
X71230150Y-99293160D01*
X71230147Y-99293170D01*
X71191700Y-99486456D01*
X71191700Y-99486459D01*
X71191700Y-99683541D01*
X71191700Y-99683543D01*
X71191699Y-99683543D01*
X70013546Y-99683543D01*
X70040100Y-99515887D01*
X70040100Y-99303313D01*
X70006846Y-99093357D01*
X69941157Y-98891188D01*
X69844651Y-98701784D01*
X69844649Y-98701781D01*
X69844648Y-98701779D01*
X69719709Y-98529813D01*
X69569386Y-98379490D01*
X69476979Y-98312353D01*
X79877300Y-98312353D01*
X79877300Y-98470046D01*
X79908061Y-98624689D01*
X79908064Y-98624701D01*
X79968402Y-98770372D01*
X79968409Y-98770385D01*
X80056010Y-98901488D01*
X80056013Y-98901492D01*
X80167507Y-99012986D01*
X80167511Y-99012989D01*
X80298614Y-99100590D01*
X80298627Y-99100597D01*
X80444298Y-99160935D01*
X80444303Y-99160937D01*
X80598953Y-99191699D01*
X80598956Y-99191700D01*
X80598958Y-99191700D01*
X80756644Y-99191700D01*
X80756645Y-99191699D01*
X80911297Y-99160937D01*
X81056979Y-99100594D01*
X81188089Y-99012989D01*
X81299589Y-98901489D01*
X81387194Y-98770379D01*
X81447537Y-98624697D01*
X81478300Y-98470042D01*
X81478300Y-98312358D01*
X81478300Y-98312355D01*
X81478299Y-98312353D01*
X81458148Y-98211047D01*
X81447537Y-98157703D01*
X81394275Y-98029116D01*
X81387197Y-98012027D01*
X81387190Y-98012014D01*
X81299589Y-97880911D01*
X81299586Y-97880907D01*
X81188092Y-97769413D01*
X81188088Y-97769410D01*
X81056985Y-97681809D01*
X81056972Y-97681802D01*
X80911301Y-97621464D01*
X80911289Y-97621461D01*
X80756645Y-97590700D01*
X80756642Y-97590700D01*
X80598958Y-97590700D01*
X80598955Y-97590700D01*
X80444310Y-97621461D01*
X80444298Y-97621464D01*
X80298627Y-97681802D01*
X80298614Y-97681809D01*
X80167511Y-97769410D01*
X80167507Y-97769413D01*
X80056013Y-97880907D01*
X80056010Y-97880911D01*
X79968409Y-98012014D01*
X79968402Y-98012027D01*
X79908064Y-98157698D01*
X79908061Y-98157710D01*
X79877300Y-98312353D01*
X69476979Y-98312353D01*
X69397420Y-98254551D01*
X69396715Y-98254191D01*
X69388654Y-98250085D01*
X69337859Y-98202112D01*
X69321063Y-98134292D01*
X69343599Y-98068156D01*
X69388654Y-98029115D01*
X69397416Y-98024651D01*
X69419389Y-98008686D01*
X69569386Y-97899709D01*
X69569388Y-97899706D01*
X69569392Y-97899704D01*
X69719704Y-97749392D01*
X69719706Y-97749388D01*
X69719709Y-97749386D01*
X69844648Y-97577420D01*
X69844647Y-97577420D01*
X69844651Y-97577416D01*
X69941157Y-97388012D01*
X70006846Y-97185843D01*
X70040100Y-96975887D01*
X70040100Y-96763313D01*
X70006846Y-96553357D01*
X69941157Y-96351188D01*
X69844651Y-96161784D01*
X69844649Y-96161781D01*
X69844648Y-96161779D01*
X69719709Y-95989813D01*
X69584249Y-95854353D01*
X84581100Y-95854353D01*
X84581100Y-96012046D01*
X84611861Y-96166689D01*
X84611864Y-96166701D01*
X84672202Y-96312372D01*
X84672209Y-96312385D01*
X84759810Y-96443488D01*
X84759813Y-96443492D01*
X84871307Y-96554986D01*
X84871311Y-96554989D01*
X85002414Y-96642590D01*
X85002427Y-96642597D01*
X85148098Y-96702935D01*
X85148103Y-96702937D01*
X85302753Y-96733699D01*
X85302756Y-96733700D01*
X85302758Y-96733700D01*
X85460444Y-96733700D01*
X85460445Y-96733699D01*
X85615097Y-96702937D01*
X85760779Y-96642594D01*
X85891889Y-96554989D01*
X86003389Y-96443489D01*
X86090994Y-96312379D01*
X86151337Y-96166697D01*
X86182100Y-96012042D01*
X86182100Y-95854358D01*
X86182100Y-95854355D01*
X86182099Y-95854353D01*
X86153346Y-95709804D01*
X86151337Y-95699703D01*
X86151335Y-95699698D01*
X86090997Y-95554027D01*
X86090990Y-95554014D01*
X86003389Y-95422911D01*
X86003386Y-95422907D01*
X85891892Y-95311413D01*
X85891888Y-95311410D01*
X85760785Y-95223809D01*
X85760772Y-95223802D01*
X85615101Y-95163464D01*
X85615089Y-95163461D01*
X85460445Y-95132700D01*
X85460442Y-95132700D01*
X85302758Y-95132700D01*
X85302755Y-95132700D01*
X85148110Y-95163461D01*
X85148098Y-95163464D01*
X85002427Y-95223802D01*
X85002414Y-95223809D01*
X84871311Y-95311410D01*
X84871307Y-95311413D01*
X84759813Y-95422907D01*
X84759810Y-95422911D01*
X84672209Y-95554014D01*
X84672202Y-95554027D01*
X84611864Y-95699698D01*
X84611861Y-95699710D01*
X84581100Y-95854353D01*
X69584249Y-95854353D01*
X69569386Y-95839490D01*
X69397417Y-95714549D01*
X69388104Y-95709804D01*
X69337307Y-95661830D01*
X69320512Y-95594009D01*
X69343049Y-95527874D01*
X69388107Y-95488832D01*
X69397155Y-95484222D01*
X69451316Y-95444870D01*
X69451317Y-95444870D01*
X68819008Y-94812562D01*
X68882593Y-94795525D01*
X68996607Y-94729699D01*
X69089699Y-94636607D01*
X69155525Y-94522593D01*
X69172562Y-94459008D01*
X69804870Y-95091317D01*
X69804870Y-95091316D01*
X69844222Y-95037154D01*
X69922797Y-94882943D01*
X76738099Y-94882943D01*
X76776547Y-95076229D01*
X76776550Y-95076239D01*
X76851964Y-95258307D01*
X76851971Y-95258320D01*
X76961460Y-95422181D01*
X76961463Y-95422185D01*
X77100814Y-95561536D01*
X77100818Y-95561539D01*
X77264679Y-95671028D01*
X77264692Y-95671035D01*
X77415993Y-95733705D01*
X77446765Y-95746451D01*
X77446769Y-95746451D01*
X77446770Y-95746452D01*
X77640056Y-95784900D01*
X77640059Y-95784900D01*
X77837143Y-95784900D01*
X77967182Y-95759032D01*
X78030435Y-95746451D01*
X78043050Y-95741225D01*
X78061208Y-95733705D01*
X78212507Y-95671035D01*
X78212507Y-95671034D01*
X78212514Y-95671032D01*
X78376382Y-95561539D01*
X78515739Y-95422182D01*
X78625232Y-95258314D01*
X78700651Y-95076235D01*
X78719188Y-94983045D01*
X78739100Y-94882943D01*
X78739100Y-94685856D01*
X78700652Y-94492570D01*
X78700651Y-94492569D01*
X78700651Y-94492565D01*
X78700649Y-94492560D01*
X78625235Y-94310492D01*
X78625228Y-94310479D01*
X78515739Y-94146618D01*
X78515736Y-94146614D01*
X78376385Y-94007263D01*
X78376381Y-94007260D01*
X78212520Y-93897771D01*
X78212507Y-93897764D01*
X78030439Y-93822350D01*
X78030429Y-93822347D01*
X77837143Y-93783900D01*
X77837141Y-93783900D01*
X77640059Y-93783900D01*
X77640057Y-93783900D01*
X77446770Y-93822347D01*
X77446760Y-93822350D01*
X77264692Y-93897764D01*
X77264679Y-93897771D01*
X77100818Y-94007260D01*
X77100814Y-94007263D01*
X76961463Y-94146614D01*
X76961460Y-94146618D01*
X76851971Y-94310479D01*
X76851964Y-94310492D01*
X76776550Y-94492560D01*
X76776547Y-94492570D01*
X76738100Y-94685856D01*
X76738100Y-94685859D01*
X76738100Y-94882941D01*
X76738100Y-94882943D01*
X76738099Y-94882943D01*
X69922797Y-94882943D01*
X69940695Y-94847817D01*
X70006357Y-94645727D01*
X70039600Y-94435846D01*
X70039600Y-94223353D01*
X70006357Y-94013472D01*
X70006357Y-94013469D01*
X69940695Y-93811382D01*
X69844224Y-93622049D01*
X69804870Y-93567882D01*
X69804869Y-93567882D01*
X69172562Y-94200190D01*
X69155525Y-94136607D01*
X69089699Y-94022593D01*
X68996607Y-93929501D01*
X68882593Y-93863675D01*
X68819009Y-93846637D01*
X69451316Y-93214328D01*
X69397147Y-93174973D01*
X69397147Y-93174972D01*
X69388100Y-93170363D01*
X69337306Y-93122388D01*
X69320512Y-93054566D01*
X69343051Y-92988432D01*
X69388108Y-92949393D01*
X69397416Y-92944651D01*
X69476607Y-92887115D01*
X69569386Y-92819709D01*
X69569388Y-92819706D01*
X69569392Y-92819704D01*
X69719704Y-92669392D01*
X69719706Y-92669388D01*
X69719709Y-92669386D01*
X69844648Y-92497420D01*
X69844647Y-92497420D01*
X69844651Y-92497416D01*
X69941157Y-92308012D01*
X70006846Y-92105843D01*
X70040100Y-91895887D01*
X70040100Y-91683313D01*
X70031267Y-91627543D01*
X73113099Y-91627543D01*
X73151547Y-91820829D01*
X73151550Y-91820839D01*
X73226964Y-92002907D01*
X73226971Y-92002920D01*
X73336460Y-92166781D01*
X73336463Y-92166785D01*
X73475814Y-92306136D01*
X73475818Y-92306139D01*
X73639679Y-92415628D01*
X73639692Y-92415635D01*
X73815983Y-92488656D01*
X73821765Y-92491051D01*
X73821769Y-92491051D01*
X73821770Y-92491052D01*
X74015056Y-92529500D01*
X74015059Y-92529500D01*
X74212143Y-92529500D01*
X74373436Y-92497416D01*
X74405435Y-92491051D01*
X74587514Y-92415632D01*
X74751382Y-92306139D01*
X74890739Y-92166782D01*
X75000232Y-92002914D01*
X75075651Y-91820835D01*
X75114100Y-91627541D01*
X75114100Y-91430459D01*
X75114100Y-91430456D01*
X75075652Y-91237170D01*
X75075651Y-91237169D01*
X75075651Y-91237165D01*
X75069748Y-91222914D01*
X75000235Y-91055092D01*
X75000228Y-91055079D01*
X74890739Y-90891218D01*
X74890736Y-90891214D01*
X74751385Y-90751863D01*
X74751381Y-90751860D01*
X74587520Y-90642371D01*
X74587507Y-90642364D01*
X74405439Y-90566950D01*
X74405429Y-90566947D01*
X74212143Y-90528500D01*
X74212141Y-90528500D01*
X74015059Y-90528500D01*
X74015057Y-90528500D01*
X73821770Y-90566947D01*
X73821760Y-90566950D01*
X73639692Y-90642364D01*
X73639679Y-90642371D01*
X73475818Y-90751860D01*
X73475814Y-90751863D01*
X73336463Y-90891214D01*
X73336460Y-90891218D01*
X73226971Y-91055079D01*
X73226964Y-91055092D01*
X73151550Y-91237160D01*
X73151547Y-91237170D01*
X73113100Y-91430456D01*
X73113100Y-91430459D01*
X73113100Y-91627541D01*
X73113100Y-91627543D01*
X73113099Y-91627543D01*
X70031267Y-91627543D01*
X70006846Y-91473357D01*
X69941157Y-91271188D01*
X69844651Y-91081784D01*
X69844649Y-91081781D01*
X69844648Y-91081779D01*
X69719709Y-90909813D01*
X69569386Y-90759490D01*
X69397420Y-90634551D01*
X69396715Y-90634191D01*
X69388654Y-90630085D01*
X69337859Y-90582112D01*
X69321063Y-90514292D01*
X69343599Y-90448156D01*
X69388654Y-90409115D01*
X69397416Y-90404651D01*
X69452172Y-90364869D01*
X69569386Y-90279709D01*
X69569388Y-90279706D01*
X69569392Y-90279704D01*
X69719704Y-90129392D01*
X69719706Y-90129388D01*
X69719709Y-90129386D01*
X69844648Y-89957420D01*
X69844650Y-89957417D01*
X69844651Y-89957416D01*
X69941157Y-89768012D01*
X70006846Y-89565843D01*
X70040100Y-89355887D01*
X70040100Y-89143313D01*
X70006846Y-88933357D01*
X69941157Y-88731188D01*
X69844651Y-88541784D01*
X69844649Y-88541781D01*
X69844648Y-88541779D01*
X69719709Y-88369813D01*
X69569386Y-88219490D01*
X69397420Y-88094551D01*
X69389200Y-88090363D01*
X69388654Y-88090085D01*
X69337859Y-88042112D01*
X69321063Y-87974292D01*
X69343599Y-87908156D01*
X69388654Y-87869115D01*
X69397416Y-87864651D01*
X69431842Y-87839639D01*
X69569386Y-87739709D01*
X69569388Y-87739706D01*
X69569392Y-87739704D01*
X69719704Y-87589392D01*
X69719706Y-87589388D01*
X69719709Y-87589386D01*
X69844648Y-87417420D01*
X69844647Y-87417420D01*
X69844651Y-87417416D01*
X69941157Y-87228012D01*
X70006846Y-87025843D01*
X70040100Y-86815887D01*
X70040100Y-86603313D01*
X70006846Y-86393357D01*
X69941157Y-86191188D01*
X69905065Y-86120353D01*
X73422200Y-86120353D01*
X73422200Y-86278046D01*
X73452961Y-86432689D01*
X73452964Y-86432701D01*
X73513302Y-86578372D01*
X73513309Y-86578385D01*
X73600910Y-86709488D01*
X73600913Y-86709492D01*
X73712407Y-86820986D01*
X73712411Y-86820989D01*
X73843514Y-86908590D01*
X73843527Y-86908597D01*
X73989198Y-86968935D01*
X73989203Y-86968937D01*
X74143853Y-86999699D01*
X74143856Y-86999700D01*
X74143858Y-86999700D01*
X74301544Y-86999700D01*
X74301545Y-86999699D01*
X74456197Y-86968937D01*
X74601879Y-86908594D01*
X74732989Y-86820989D01*
X74844489Y-86709489D01*
X74900585Y-86625535D01*
X79579700Y-86625535D01*
X79579700Y-88421270D01*
X79579701Y-88421276D01*
X79586108Y-88480883D01*
X79636402Y-88615728D01*
X79636406Y-88615735D01*
X79722652Y-88730944D01*
X79722655Y-88730947D01*
X79837864Y-88817193D01*
X79837871Y-88817197D01*
X79837874Y-88817198D01*
X79969798Y-88866402D01*
X80025731Y-88908273D01*
X80050149Y-88973737D01*
X80035298Y-89042010D01*
X80014147Y-89070265D01*
X79900471Y-89183941D01*
X79775579Y-89355842D01*
X79679104Y-89545182D01*
X79613442Y-89747270D01*
X79613442Y-89747273D01*
X79602969Y-89813400D01*
X80497188Y-89813400D01*
X80464275Y-89870407D01*
X80430200Y-89997574D01*
X80430200Y-90129226D01*
X80464275Y-90256393D01*
X80497188Y-90313400D01*
X79602969Y-90313400D01*
X79613442Y-90379526D01*
X79613442Y-90379529D01*
X79679104Y-90581617D01*
X79775579Y-90770957D01*
X79900472Y-90942859D01*
X79900476Y-90942864D01*
X80050735Y-91093123D01*
X80050740Y-91093127D01*
X80222644Y-91218022D01*
X80232248Y-91222916D01*
X80283044Y-91270891D01*
X80299838Y-91338712D01*
X80277300Y-91404847D01*
X80232248Y-91443884D01*
X80222644Y-91448777D01*
X80050740Y-91573672D01*
X80050735Y-91573676D01*
X79900476Y-91723935D01*
X79900472Y-91723940D01*
X79775579Y-91895842D01*
X79679104Y-92085182D01*
X79613442Y-92287270D01*
X79613442Y-92287273D01*
X79602969Y-92353400D01*
X80497188Y-92353400D01*
X80464275Y-92410407D01*
X80430200Y-92537574D01*
X80430200Y-92669226D01*
X80464275Y-92796393D01*
X80497188Y-92853400D01*
X79602969Y-92853400D01*
X79613442Y-92919526D01*
X79613442Y-92919529D01*
X79679104Y-93121617D01*
X79775579Y-93310957D01*
X79900472Y-93482859D01*
X79900476Y-93482864D01*
X80050735Y-93633123D01*
X80050740Y-93633127D01*
X80222642Y-93758020D01*
X80411982Y-93854495D01*
X80614071Y-93920157D01*
X80680200Y-93930631D01*
X80680200Y-93036412D01*
X80737207Y-93069325D01*
X80864374Y-93103400D01*
X80996026Y-93103400D01*
X81123193Y-93069325D01*
X81180200Y-93036412D01*
X81180200Y-93930630D01*
X81246326Y-93920157D01*
X81246329Y-93920157D01*
X81448417Y-93854495D01*
X81637757Y-93758020D01*
X81809659Y-93633127D01*
X81809664Y-93633123D01*
X81959923Y-93482864D01*
X81959927Y-93482859D01*
X82084820Y-93310958D01*
X82089432Y-93301907D01*
X82137405Y-93251109D01*
X82205225Y-93234312D01*
X82271361Y-93256847D01*
X82310404Y-93301904D01*
X82315149Y-93311217D01*
X82440090Y-93483186D01*
X82590413Y-93633509D01*
X82762379Y-93758448D01*
X82762381Y-93758449D01*
X82762384Y-93758451D01*
X82951788Y-93854957D01*
X83153957Y-93920646D01*
X83363913Y-93953900D01*
X83363914Y-93953900D01*
X83576486Y-93953900D01*
X83576487Y-93953900D01*
X83786443Y-93920646D01*
X83988612Y-93854957D01*
X84178016Y-93758451D01*
X84260275Y-93698687D01*
X84349986Y-93633509D01*
X84349988Y-93633506D01*
X84349992Y-93633504D01*
X84500304Y-93483192D01*
X84500306Y-93483188D01*
X84500309Y-93483186D01*
X84625248Y-93311220D01*
X84625250Y-93311217D01*
X84625251Y-93311216D01*
X84721757Y-93121812D01*
X84787446Y-92919643D01*
X84820700Y-92709687D01*
X84820700Y-92497113D01*
X84787446Y-92287157D01*
X84721757Y-92084988D01*
X84625251Y-91895584D01*
X84625249Y-91895581D01*
X84625248Y-91895579D01*
X84500309Y-91723613D01*
X84349986Y-91573290D01*
X84178020Y-91448351D01*
X84177315Y-91447991D01*
X84169254Y-91443885D01*
X84118459Y-91395912D01*
X84101663Y-91328092D01*
X84124199Y-91261956D01*
X84169254Y-91222915D01*
X84178016Y-91218451D01*
X84261033Y-91158136D01*
X84349986Y-91093509D01*
X84349988Y-91093506D01*
X84349992Y-91093504D01*
X84500304Y-90943192D01*
X84500306Y-90943188D01*
X84500309Y-90943186D01*
X84625248Y-90771220D01*
X84625250Y-90771217D01*
X84625251Y-90771216D01*
X84721757Y-90581812D01*
X84787446Y-90379643D01*
X84820700Y-90169687D01*
X84820700Y-89957113D01*
X84787446Y-89747157D01*
X84721757Y-89544988D01*
X84625251Y-89355584D01*
X84625249Y-89355581D01*
X84625248Y-89355579D01*
X84500309Y-89183613D01*
X84349986Y-89033290D01*
X84178020Y-88908351D01*
X84177315Y-88907991D01*
X84169254Y-88903885D01*
X84118459Y-88855912D01*
X84101663Y-88788092D01*
X84124199Y-88721956D01*
X84169254Y-88682915D01*
X84178016Y-88678451D01*
X84264338Y-88615735D01*
X84349986Y-88553509D01*
X84349988Y-88553506D01*
X84349992Y-88553504D01*
X84500304Y-88403192D01*
X84500306Y-88403188D01*
X84500309Y-88403186D01*
X84625248Y-88231220D01*
X84625247Y-88231220D01*
X84625251Y-88231216D01*
X84721757Y-88041812D01*
X84787446Y-87839643D01*
X84820700Y-87629687D01*
X84820700Y-87417113D01*
X84787446Y-87207157D01*
X84721757Y-87004988D01*
X84625251Y-86815584D01*
X84625249Y-86815581D01*
X84625248Y-86815579D01*
X84500309Y-86643613D01*
X84349986Y-86493290D01*
X84178020Y-86368351D01*
X83988614Y-86271844D01*
X83988613Y-86271843D01*
X83988612Y-86271843D01*
X83786443Y-86206154D01*
X83786441Y-86206153D01*
X83786440Y-86206153D01*
X83625157Y-86180608D01*
X83576487Y-86172900D01*
X83363913Y-86172900D01*
X83315242Y-86180608D01*
X83153960Y-86206153D01*
X82951785Y-86271844D01*
X82762379Y-86368351D01*
X82590415Y-86493289D01*
X82476873Y-86606831D01*
X82415550Y-86640315D01*
X82345858Y-86635331D01*
X82289925Y-86593459D01*
X82273010Y-86562482D01*
X82223997Y-86431071D01*
X82223993Y-86431064D01*
X82137747Y-86315855D01*
X82137744Y-86315852D01*
X82022535Y-86229606D01*
X82022528Y-86229602D01*
X81887682Y-86179308D01*
X81887683Y-86179308D01*
X81828083Y-86172901D01*
X81828081Y-86172900D01*
X81828073Y-86172900D01*
X81828064Y-86172900D01*
X80032329Y-86172900D01*
X80032323Y-86172901D01*
X79972716Y-86179308D01*
X79837871Y-86229602D01*
X79837864Y-86229606D01*
X79722655Y-86315852D01*
X79722652Y-86315855D01*
X79636406Y-86431064D01*
X79636402Y-86431071D01*
X79586108Y-86565917D01*
X79579701Y-86625516D01*
X79579700Y-86625535D01*
X74900585Y-86625535D01*
X74932094Y-86578379D01*
X74992437Y-86432697D01*
X75023200Y-86278042D01*
X75023200Y-86120358D01*
X75023200Y-86120355D01*
X75023199Y-86120353D01*
X74999614Y-86001784D01*
X74992437Y-85965703D01*
X74968329Y-85907500D01*
X74932097Y-85820027D01*
X74932090Y-85820014D01*
X74844489Y-85688911D01*
X74844486Y-85688907D01*
X74732992Y-85577413D01*
X74732988Y-85577410D01*
X74601885Y-85489809D01*
X74601872Y-85489802D01*
X74456201Y-85429464D01*
X74456189Y-85429461D01*
X74301545Y-85398700D01*
X74301542Y-85398700D01*
X74143858Y-85398700D01*
X74143855Y-85398700D01*
X73989210Y-85429461D01*
X73989198Y-85429464D01*
X73843527Y-85489802D01*
X73843514Y-85489809D01*
X73712411Y-85577410D01*
X73712407Y-85577413D01*
X73600913Y-85688907D01*
X73600910Y-85688911D01*
X73513309Y-85820014D01*
X73513302Y-85820027D01*
X73452964Y-85965698D01*
X73452961Y-85965710D01*
X73422200Y-86120353D01*
X69905065Y-86120353D01*
X69844651Y-86001784D01*
X69844649Y-86001781D01*
X69844648Y-86001779D01*
X69719709Y-85829813D01*
X69569386Y-85679490D01*
X69397420Y-85554551D01*
X69396715Y-85554191D01*
X69388654Y-85550085D01*
X69337859Y-85502112D01*
X69321063Y-85434292D01*
X69343599Y-85368156D01*
X69388654Y-85329115D01*
X69397416Y-85324651D01*
X69445521Y-85289701D01*
X69569386Y-85199709D01*
X69569388Y-85199706D01*
X69569392Y-85199704D01*
X69719704Y-85049392D01*
X69772043Y-84977353D01*
X71850900Y-84977353D01*
X71850900Y-85135046D01*
X71881661Y-85289689D01*
X71881664Y-85289701D01*
X71942002Y-85435372D01*
X71942009Y-85435385D01*
X72029610Y-85566488D01*
X72029613Y-85566492D01*
X72141107Y-85677986D01*
X72141111Y-85677989D01*
X72272214Y-85765590D01*
X72272227Y-85765597D01*
X72403620Y-85820021D01*
X72417903Y-85825937D01*
X72572553Y-85856699D01*
X72572556Y-85856700D01*
X72572558Y-85856700D01*
X72730244Y-85856700D01*
X72730245Y-85856699D01*
X72884897Y-85825937D01*
X73030579Y-85765594D01*
X73161689Y-85677989D01*
X73273189Y-85566489D01*
X73360794Y-85435379D01*
X73363245Y-85429463D01*
X73404810Y-85329114D01*
X73421137Y-85289697D01*
X73451900Y-85135042D01*
X73451900Y-84977358D01*
X73451900Y-84977355D01*
X73451899Y-84977353D01*
X73431241Y-84873498D01*
X73421137Y-84822703D01*
X73419131Y-84817859D01*
X73360797Y-84677027D01*
X73360790Y-84677014D01*
X73273189Y-84545911D01*
X73273186Y-84545907D01*
X73161692Y-84434413D01*
X73161688Y-84434410D01*
X73030585Y-84346809D01*
X73030572Y-84346802D01*
X72884901Y-84286464D01*
X72884889Y-84286461D01*
X72730245Y-84255700D01*
X72730242Y-84255700D01*
X72572558Y-84255700D01*
X72572555Y-84255700D01*
X72417910Y-84286461D01*
X72417898Y-84286464D01*
X72272227Y-84346802D01*
X72272214Y-84346809D01*
X72141111Y-84434410D01*
X72141107Y-84434413D01*
X72029613Y-84545907D01*
X72029610Y-84545911D01*
X71942009Y-84677014D01*
X71942002Y-84677027D01*
X71881664Y-84822698D01*
X71881661Y-84822710D01*
X71850900Y-84977353D01*
X69772043Y-84977353D01*
X69844651Y-84877416D01*
X69941157Y-84688012D01*
X70006846Y-84485843D01*
X70040100Y-84275887D01*
X70040100Y-84063313D01*
X70006846Y-83853357D01*
X69941157Y-83651188D01*
X69892123Y-83554953D01*
X75917700Y-83554953D01*
X75917700Y-83712646D01*
X75948461Y-83867289D01*
X75948464Y-83867301D01*
X76008802Y-84012972D01*
X76008809Y-84012985D01*
X76096410Y-84144088D01*
X76096413Y-84144092D01*
X76207907Y-84255586D01*
X76207911Y-84255589D01*
X76339014Y-84343190D01*
X76339027Y-84343197D01*
X76470384Y-84397606D01*
X76484703Y-84403537D01*
X76639353Y-84434299D01*
X76639356Y-84434300D01*
X76639358Y-84434300D01*
X76797044Y-84434300D01*
X76797045Y-84434299D01*
X76951697Y-84403537D01*
X77088659Y-84346806D01*
X77097372Y-84343197D01*
X77097372Y-84343196D01*
X77097379Y-84343194D01*
X77228489Y-84255589D01*
X77339989Y-84144089D01*
X77427594Y-84012979D01*
X77487937Y-83867297D01*
X77518700Y-83712642D01*
X77518700Y-83554958D01*
X77518700Y-83554955D01*
X77518699Y-83554953D01*
X77511749Y-83520013D01*
X77487937Y-83400303D01*
X77476239Y-83372061D01*
X77427597Y-83254627D01*
X77427590Y-83254614D01*
X77339989Y-83123511D01*
X77339986Y-83123507D01*
X77228492Y-83012013D01*
X77228488Y-83012010D01*
X77097385Y-82924409D01*
X77097372Y-82924402D01*
X76951701Y-82864064D01*
X76951689Y-82864061D01*
X76797045Y-82833300D01*
X76797042Y-82833300D01*
X76639358Y-82833300D01*
X76639355Y-82833300D01*
X76484710Y-82864061D01*
X76484698Y-82864064D01*
X76339027Y-82924402D01*
X76339014Y-82924409D01*
X76207911Y-83012010D01*
X76207907Y-83012013D01*
X76096413Y-83123507D01*
X76096410Y-83123511D01*
X76008809Y-83254614D01*
X76008802Y-83254627D01*
X75948464Y-83400298D01*
X75948461Y-83400310D01*
X75917700Y-83554953D01*
X69892123Y-83554953D01*
X69844651Y-83461784D01*
X69844649Y-83461781D01*
X69844648Y-83461779D01*
X69719709Y-83289813D01*
X69569386Y-83139490D01*
X69397420Y-83014551D01*
X69396715Y-83014191D01*
X69388654Y-83010085D01*
X69337859Y-82962112D01*
X69321063Y-82894292D01*
X69343599Y-82828156D01*
X69388654Y-82789115D01*
X69397416Y-82784651D01*
X69419389Y-82768686D01*
X69569386Y-82659709D01*
X69569388Y-82659706D01*
X69569392Y-82659704D01*
X69719704Y-82509392D01*
X69719706Y-82509388D01*
X69719709Y-82509386D01*
X69844648Y-82337420D01*
X69844647Y-82337420D01*
X69844651Y-82337416D01*
X69941157Y-82148012D01*
X70006846Y-81945843D01*
X70040100Y-81735887D01*
X70040100Y-81573753D01*
X84157700Y-81573753D01*
X84157700Y-81731446D01*
X84188461Y-81886089D01*
X84188464Y-81886101D01*
X84248802Y-82031772D01*
X84248809Y-82031785D01*
X84336410Y-82162888D01*
X84336413Y-82162892D01*
X84447907Y-82274386D01*
X84447911Y-82274389D01*
X84579014Y-82361990D01*
X84579027Y-82361997D01*
X84724698Y-82422335D01*
X84724703Y-82422337D01*
X84879353Y-82453099D01*
X84879356Y-82453100D01*
X84879358Y-82453100D01*
X85037044Y-82453100D01*
X85037045Y-82453099D01*
X85191697Y-82422337D01*
X85337379Y-82361994D01*
X85468489Y-82274389D01*
X85579989Y-82162889D01*
X85667594Y-82031779D01*
X85727937Y-81886097D01*
X85758700Y-81731442D01*
X85758700Y-81573758D01*
X85758700Y-81573755D01*
X85758699Y-81573753D01*
X85748666Y-81523313D01*
X85727937Y-81419103D01*
X85716274Y-81390945D01*
X85667597Y-81273427D01*
X85667590Y-81273414D01*
X85579989Y-81142311D01*
X85579986Y-81142307D01*
X85468492Y-81030813D01*
X85468488Y-81030810D01*
X85337385Y-80943209D01*
X85337372Y-80943202D01*
X85191701Y-80882864D01*
X85191689Y-80882861D01*
X85037045Y-80852100D01*
X85037042Y-80852100D01*
X84879358Y-80852100D01*
X84879355Y-80852100D01*
X84724710Y-80882861D01*
X84724698Y-80882864D01*
X84579027Y-80943202D01*
X84579014Y-80943209D01*
X84447911Y-81030810D01*
X84447907Y-81030813D01*
X84336413Y-81142307D01*
X84336410Y-81142311D01*
X84248809Y-81273414D01*
X84248802Y-81273427D01*
X84188464Y-81419098D01*
X84188461Y-81419110D01*
X84157700Y-81573753D01*
X70040100Y-81573753D01*
X70040100Y-81523313D01*
X70006846Y-81313357D01*
X69941157Y-81111188D01*
X69844651Y-80921784D01*
X69844649Y-80921781D01*
X69844648Y-80921779D01*
X69719709Y-80749813D01*
X69569386Y-80599490D01*
X69397420Y-80474551D01*
X69396715Y-80474191D01*
X69388654Y-80470085D01*
X69337859Y-80422112D01*
X69321063Y-80354292D01*
X69343599Y-80288156D01*
X69388654Y-80249115D01*
X69397416Y-80244651D01*
X69483738Y-80181935D01*
X69569386Y-80119709D01*
X69569388Y-80119706D01*
X69569392Y-80119704D01*
X69719704Y-79969392D01*
X69719706Y-79969388D01*
X69719709Y-79969386D01*
X69844648Y-79797420D01*
X69844647Y-79797420D01*
X69844651Y-79797416D01*
X69941157Y-79608012D01*
X70006846Y-79405843D01*
X70040100Y-79195887D01*
X70040100Y-78983313D01*
X70006846Y-78773357D01*
X69941157Y-78571188D01*
X69844651Y-78381784D01*
X69844649Y-78381781D01*
X69844648Y-78381779D01*
X69719709Y-78209813D01*
X69569386Y-78059490D01*
X69397420Y-77934551D01*
X69208014Y-77838044D01*
X69208013Y-77838043D01*
X69208012Y-77838043D01*
X69005843Y-77772354D01*
X69005841Y-77772353D01*
X69005840Y-77772353D01*
X68844557Y-77746808D01*
X68795887Y-77739100D01*
X68583313Y-77739100D01*
X68534642Y-77746808D01*
X68373360Y-77772353D01*
X68171185Y-77838044D01*
X67981779Y-77934551D01*
X67809815Y-78059489D01*
X67696273Y-78173031D01*
X67634950Y-78206515D01*
X67565258Y-78201531D01*
X67509325Y-78159659D01*
X67492410Y-78128682D01*
X67443397Y-77997271D01*
X67443393Y-77997264D01*
X67357147Y-77882055D01*
X67357144Y-77882052D01*
X67241935Y-77795806D01*
X67241928Y-77795802D01*
X67107082Y-77745508D01*
X67107083Y-77745508D01*
X67047483Y-77739101D01*
X67047481Y-77739100D01*
X67047473Y-77739100D01*
X67047464Y-77739100D01*
X65251729Y-77739100D01*
X65251723Y-77739101D01*
X65192116Y-77745508D01*
X65057271Y-77795802D01*
X65057264Y-77795806D01*
X64942055Y-77882052D01*
X64942052Y-77882055D01*
X64855806Y-77997264D01*
X64855802Y-77997271D01*
X64805508Y-78132117D01*
X64799101Y-78191716D01*
X64799100Y-78191735D01*
X40593100Y-78191735D01*
X40593100Y-74131670D01*
X42824100Y-74131670D01*
X42824100Y-74387529D01*
X42864126Y-74640240D01*
X42943188Y-74883572D01*
X42943189Y-74883575D01*
X43059350Y-75111550D01*
X43209732Y-75318535D01*
X43209736Y-75318540D01*
X43390659Y-75499463D01*
X43390664Y-75499467D01*
X43571207Y-75630638D01*
X43597653Y-75649852D01*
X43746680Y-75725785D01*
X43825624Y-75766010D01*
X43825627Y-75766011D01*
X43947293Y-75805542D01*
X44068961Y-75845074D01*
X44321670Y-75885100D01*
X44321671Y-75885100D01*
X44577529Y-75885100D01*
X44577530Y-75885100D01*
X44830239Y-75845074D01*
X45073575Y-75766010D01*
X45301547Y-75649852D01*
X45508542Y-75499462D01*
X45689462Y-75318542D01*
X45839852Y-75111547D01*
X45956010Y-74883575D01*
X46035074Y-74640239D01*
X46075100Y-74387530D01*
X46075100Y-74131670D01*
X65824100Y-74131670D01*
X65824100Y-74387529D01*
X65864126Y-74640240D01*
X65943188Y-74883572D01*
X65943189Y-74883575D01*
X66059350Y-75111550D01*
X66209732Y-75318535D01*
X66209736Y-75318540D01*
X66390659Y-75499463D01*
X66390664Y-75499467D01*
X66571207Y-75630638D01*
X66597653Y-75649852D01*
X66746680Y-75725785D01*
X66825624Y-75766010D01*
X66825627Y-75766011D01*
X66947293Y-75805542D01*
X67068961Y-75845074D01*
X67321670Y-75885100D01*
X67321671Y-75885100D01*
X67577529Y-75885100D01*
X67577530Y-75885100D01*
X67830239Y-75845074D01*
X68073575Y-75766010D01*
X68301547Y-75649852D01*
X68508542Y-75499462D01*
X68689462Y-75318542D01*
X68839852Y-75111547D01*
X68956010Y-74883575D01*
X69035074Y-74640239D01*
X69075100Y-74387530D01*
X69075100Y-74131670D01*
X69035074Y-73878961D01*
X68956010Y-73635625D01*
X68956010Y-73635624D01*
X68915785Y-73556680D01*
X68839852Y-73407653D01*
X68820638Y-73381207D01*
X68689467Y-73200664D01*
X68689463Y-73200659D01*
X68508540Y-73019736D01*
X68508535Y-73019732D01*
X68301550Y-72869350D01*
X68301549Y-72869349D01*
X68301547Y-72869348D01*
X68169419Y-72802025D01*
X68073575Y-72753189D01*
X68073572Y-72753188D01*
X67830240Y-72674126D01*
X67703884Y-72654113D01*
X67577530Y-72634100D01*
X67321670Y-72634100D01*
X67237433Y-72647442D01*
X67068959Y-72674126D01*
X66825627Y-72753188D01*
X66825624Y-72753189D01*
X66597649Y-72869350D01*
X66390664Y-73019732D01*
X66390659Y-73019736D01*
X66209736Y-73200659D01*
X66209732Y-73200664D01*
X66059350Y-73407649D01*
X65943189Y-73635624D01*
X65943188Y-73635627D01*
X65864126Y-73878959D01*
X65824100Y-74131670D01*
X46075100Y-74131670D01*
X46035074Y-73878961D01*
X45956010Y-73635625D01*
X45956010Y-73635624D01*
X45915785Y-73556680D01*
X45839852Y-73407653D01*
X45820638Y-73381207D01*
X45689467Y-73200664D01*
X45689463Y-73200659D01*
X45508540Y-73019736D01*
X45508535Y-73019732D01*
X45301550Y-72869350D01*
X45301549Y-72869349D01*
X45301547Y-72869348D01*
X45169419Y-72802025D01*
X45073575Y-72753189D01*
X45073572Y-72753188D01*
X44830240Y-72674126D01*
X44703884Y-72654113D01*
X44577530Y-72634100D01*
X44321670Y-72634100D01*
X44237433Y-72647442D01*
X44068959Y-72674126D01*
X43825627Y-72753188D01*
X43825624Y-72753189D01*
X43597649Y-72869350D01*
X43390664Y-73019732D01*
X43390659Y-73019736D01*
X43209736Y-73200659D01*
X43209732Y-73200664D01*
X43059350Y-73407649D01*
X42943189Y-73635624D01*
X42943188Y-73635627D01*
X42864126Y-73878959D01*
X42824100Y-74131670D01*
X40593100Y-74131670D01*
X40593100Y-71749777D01*
X62841100Y-71749777D01*
X62841100Y-71946622D01*
X62871890Y-72141026D01*
X62932717Y-72328229D01*
X63022076Y-72503605D01*
X63137772Y-72662846D01*
X63276954Y-72802028D01*
X63436195Y-72917724D01*
X63519055Y-72959943D01*
X63611570Y-73007082D01*
X63611572Y-73007082D01*
X63611575Y-73007084D01*
X63650514Y-73019736D01*
X63798773Y-73067909D01*
X63993178Y-73098700D01*
X63993183Y-73098700D01*
X64190022Y-73098700D01*
X64384426Y-73067909D01*
X64571625Y-73007084D01*
X64747005Y-72917724D01*
X64906246Y-72802028D01*
X65045428Y-72662846D01*
X65161124Y-72503605D01*
X65250484Y-72328225D01*
X65311309Y-72141026D01*
X65342100Y-71946622D01*
X65342100Y-71749777D01*
X65311309Y-71555373D01*
X65250482Y-71368170D01*
X65161123Y-71192794D01*
X65045428Y-71033554D01*
X64906246Y-70894372D01*
X64747005Y-70778676D01*
X64571629Y-70689317D01*
X64384426Y-70628490D01*
X64190022Y-70597700D01*
X64190017Y-70597700D01*
X63993183Y-70597700D01*
X63993178Y-70597700D01*
X63798773Y-70628490D01*
X63611570Y-70689317D01*
X63436194Y-70778676D01*
X63345341Y-70844685D01*
X63276954Y-70894372D01*
X63276952Y-70894374D01*
X63276951Y-70894374D01*
X63137774Y-71033551D01*
X63137774Y-71033552D01*
X63137772Y-71033554D01*
X63088085Y-71101941D01*
X63022076Y-71192794D01*
X62932717Y-71368170D01*
X62871890Y-71555373D01*
X62841100Y-71749777D01*
X40593100Y-71749777D01*
X40593100Y-65048149D01*
X42949100Y-65048149D01*
X42949100Y-65271050D01*
X42949101Y-65271066D01*
X42978194Y-65492052D01*
X42978195Y-65492057D01*
X42978196Y-65492063D01*
X43032501Y-65694732D01*
X43035890Y-65707380D01*
X43035893Y-65707390D01*
X43121193Y-65913322D01*
X43121195Y-65913326D01*
X43232652Y-66106374D01*
X43232657Y-66106380D01*
X43232658Y-66106382D01*
X43368351Y-66283222D01*
X43368357Y-66283229D01*
X43525970Y-66440842D01*
X43525977Y-66440848D01*
X43602937Y-66499901D01*
X43702826Y-66576548D01*
X43895874Y-66688005D01*
X44101819Y-66773310D01*
X44317137Y-66831004D01*
X44538143Y-66860100D01*
X44538150Y-66860100D01*
X44761050Y-66860100D01*
X44761057Y-66860100D01*
X44982063Y-66831004D01*
X45197381Y-66773310D01*
X45403326Y-66688005D01*
X45596374Y-66576548D01*
X45773224Y-66440847D01*
X45930847Y-66283224D01*
X46066548Y-66106374D01*
X46178005Y-65913326D01*
X46263310Y-65707381D01*
X46321004Y-65492063D01*
X46350100Y-65271057D01*
X46350100Y-65048143D01*
X46321004Y-64827137D01*
X46263310Y-64611819D01*
X46262050Y-64608778D01*
X46210374Y-64484021D01*
X46178005Y-64405874D01*
X46066548Y-64212826D01*
X45930847Y-64035976D01*
X45930842Y-64035970D01*
X45806607Y-63911735D01*
X48029100Y-63911735D01*
X48029100Y-66407470D01*
X48029101Y-66407476D01*
X48035508Y-66467083D01*
X48085802Y-66601928D01*
X48085806Y-66601935D01*
X48172052Y-66717144D01*
X48172055Y-66717147D01*
X48287264Y-66803393D01*
X48287271Y-66803397D01*
X48422117Y-66853691D01*
X48422116Y-66853691D01*
X48429044Y-66854435D01*
X48481727Y-66860100D01*
X50977472Y-66860099D01*
X51037083Y-66853691D01*
X51171931Y-66803396D01*
X51184866Y-66793713D01*
X54549500Y-66793713D01*
X54549500Y-67006286D01*
X54582753Y-67216239D01*
X54648444Y-67418414D01*
X54744951Y-67607820D01*
X54869890Y-67779786D01*
X55020213Y-67930109D01*
X55192179Y-68055048D01*
X55192181Y-68055049D01*
X55192184Y-68055051D01*
X55381588Y-68151557D01*
X55583757Y-68217246D01*
X55793713Y-68250500D01*
X55793714Y-68250500D01*
X56006286Y-68250500D01*
X56006287Y-68250500D01*
X56216243Y-68217246D01*
X56418412Y-68151557D01*
X56607816Y-68055051D01*
X56694478Y-67992088D01*
X56779786Y-67930109D01*
X56779788Y-67930106D01*
X56779792Y-67930104D01*
X56930104Y-67779792D01*
X56930106Y-67779788D01*
X56930109Y-67779786D01*
X57055048Y-67607820D01*
X57055047Y-67607820D01*
X57055051Y-67607816D01*
X57059514Y-67599054D01*
X57107488Y-67548259D01*
X57175308Y-67531463D01*
X57241444Y-67553999D01*
X57280486Y-67599056D01*
X57284951Y-67607820D01*
X57409890Y-67779786D01*
X57560213Y-67930109D01*
X57732179Y-68055048D01*
X57732181Y-68055049D01*
X57732184Y-68055051D01*
X57921588Y-68151557D01*
X58123757Y-68217246D01*
X58333713Y-68250500D01*
X58333714Y-68250500D01*
X58546286Y-68250500D01*
X58546287Y-68250500D01*
X58756243Y-68217246D01*
X58958412Y-68151557D01*
X59147816Y-68055051D01*
X59234478Y-67992088D01*
X59319786Y-67930109D01*
X59319788Y-67930106D01*
X59319792Y-67930104D01*
X59470104Y-67779792D01*
X59470106Y-67779788D01*
X59470109Y-67779786D01*
X59595048Y-67607820D01*
X59595047Y-67607820D01*
X59595051Y-67607816D01*
X59599514Y-67599054D01*
X59647488Y-67548259D01*
X59715308Y-67531463D01*
X59781444Y-67553999D01*
X59820486Y-67599056D01*
X59824951Y-67607820D01*
X59949890Y-67779786D01*
X60100213Y-67930109D01*
X60272179Y-68055048D01*
X60272181Y-68055049D01*
X60272184Y-68055051D01*
X60461588Y-68151557D01*
X60663757Y-68217246D01*
X60873713Y-68250500D01*
X60873714Y-68250500D01*
X61086286Y-68250500D01*
X61086287Y-68250500D01*
X61296243Y-68217246D01*
X61498412Y-68151557D01*
X61687816Y-68055051D01*
X61774478Y-67992088D01*
X61859784Y-67930110D01*
X61859784Y-67930109D01*
X61859792Y-67930104D01*
X61973717Y-67816178D01*
X62035036Y-67782696D01*
X62104728Y-67787680D01*
X62160662Y-67829551D01*
X62177577Y-67860528D01*
X62226646Y-67992088D01*
X62226649Y-67992093D01*
X62312809Y-68107187D01*
X62312812Y-68107190D01*
X62427906Y-68193350D01*
X62427913Y-68193354D01*
X62562620Y-68243596D01*
X62562627Y-68243598D01*
X62622155Y-68249999D01*
X62622172Y-68250000D01*
X63270000Y-68250000D01*
X63270000Y-67333012D01*
X63327007Y-67365925D01*
X63454174Y-67400000D01*
X63585826Y-67400000D01*
X63712993Y-67365925D01*
X63770000Y-67333012D01*
X63770000Y-68250000D01*
X64417828Y-68250000D01*
X64417844Y-68249999D01*
X64477372Y-68243598D01*
X64477379Y-68243596D01*
X64612086Y-68193354D01*
X64612093Y-68193350D01*
X64727187Y-68107190D01*
X64727190Y-68107187D01*
X64813350Y-67992093D01*
X64813354Y-67992086D01*
X64863596Y-67857379D01*
X64863598Y-67857372D01*
X64869999Y-67797844D01*
X64870000Y-67797827D01*
X64870000Y-67150000D01*
X63953012Y-67150000D01*
X63985925Y-67092993D01*
X64020000Y-66965826D01*
X64020000Y-66834174D01*
X63985925Y-66707007D01*
X63953012Y-66650000D01*
X64870000Y-66650000D01*
X64870000Y-66002172D01*
X64869999Y-66002155D01*
X64863598Y-65942627D01*
X64863596Y-65942620D01*
X64813354Y-65807913D01*
X64813352Y-65807910D01*
X64777633Y-65760196D01*
X64753215Y-65694732D01*
X64768066Y-65626459D01*
X64817471Y-65577053D01*
X64822850Y-65574479D01*
X64826372Y-65572596D01*
X64826379Y-65572594D01*
X64941679Y-65495553D01*
X69626100Y-65495553D01*
X69626100Y-65653246D01*
X69656861Y-65807889D01*
X69656864Y-65807901D01*
X69717202Y-65953572D01*
X69717209Y-65953585D01*
X69804810Y-66084688D01*
X69804813Y-66084692D01*
X69916307Y-66196186D01*
X69916311Y-66196189D01*
X70047414Y-66283790D01*
X70047427Y-66283797D01*
X70193098Y-66344135D01*
X70193103Y-66344137D01*
X70347753Y-66374899D01*
X70347756Y-66374900D01*
X70347758Y-66374900D01*
X70505444Y-66374900D01*
X70505445Y-66374899D01*
X70660097Y-66344137D01*
X70805779Y-66283794D01*
X70936889Y-66196189D01*
X71048389Y-66084689D01*
X71135994Y-65953579D01*
X71196337Y-65807897D01*
X71227100Y-65653242D01*
X71227100Y-65495558D01*
X71227100Y-65495555D01*
X71227099Y-65495553D01*
X71208447Y-65401785D01*
X71196337Y-65340903D01*
X71155530Y-65242385D01*
X71135997Y-65195227D01*
X71135987Y-65195209D01*
X71097879Y-65138176D01*
X71097878Y-65138175D01*
X71054562Y-65073349D01*
X73714900Y-65073349D01*
X73714900Y-65296250D01*
X73714901Y-65296266D01*
X73743994Y-65517252D01*
X73743995Y-65517257D01*
X73743996Y-65517263D01*
X73794938Y-65707381D01*
X73801690Y-65732580D01*
X73801693Y-65732590D01*
X73886993Y-65938522D01*
X73886995Y-65938526D01*
X73998452Y-66131574D01*
X73998457Y-66131580D01*
X73998458Y-66131582D01*
X74134151Y-66308422D01*
X74134157Y-66308429D01*
X74291770Y-66466042D01*
X74291777Y-66466048D01*
X74417694Y-66562667D01*
X74468626Y-66601748D01*
X74661674Y-66713205D01*
X74867619Y-66798510D01*
X75082937Y-66856204D01*
X75303943Y-66885300D01*
X75303950Y-66885300D01*
X75526850Y-66885300D01*
X75526857Y-66885300D01*
X75747863Y-66856204D01*
X75963181Y-66798510D01*
X76169126Y-66713205D01*
X76362174Y-66601748D01*
X76539024Y-66466047D01*
X76696647Y-66308424D01*
X76832348Y-66131574D01*
X76943805Y-65938526D01*
X77029110Y-65732581D01*
X77086804Y-65517263D01*
X77115900Y-65296257D01*
X77115900Y-65073349D01*
X78794900Y-65073349D01*
X78794900Y-65296250D01*
X78794901Y-65296266D01*
X78823994Y-65517252D01*
X78823995Y-65517257D01*
X78823996Y-65517263D01*
X78874938Y-65707381D01*
X78881690Y-65732580D01*
X78881693Y-65732590D01*
X78966993Y-65938522D01*
X78966995Y-65938526D01*
X79078452Y-66131574D01*
X79078457Y-66131580D01*
X79078458Y-66131582D01*
X79214151Y-66308422D01*
X79214157Y-66308429D01*
X79371770Y-66466042D01*
X79371777Y-66466048D01*
X79497694Y-66562667D01*
X79548626Y-66601748D01*
X79741674Y-66713205D01*
X79947619Y-66798510D01*
X80162937Y-66856204D01*
X80383943Y-66885300D01*
X80383950Y-66885300D01*
X80606850Y-66885300D01*
X80606857Y-66885300D01*
X80827863Y-66856204D01*
X81043181Y-66798510D01*
X81249126Y-66713205D01*
X81442174Y-66601748D01*
X81619024Y-66466047D01*
X81776647Y-66308424D01*
X81912348Y-66131574D01*
X82023805Y-65938526D01*
X82109110Y-65732581D01*
X82166804Y-65517263D01*
X82195900Y-65296257D01*
X82195900Y-65073343D01*
X82166804Y-64852337D01*
X82109110Y-64637019D01*
X82023805Y-64431074D01*
X81912348Y-64238026D01*
X81801420Y-64093461D01*
X81776648Y-64061177D01*
X81776642Y-64061170D01*
X81652427Y-63936955D01*
X83875400Y-63936955D01*
X83875400Y-64934800D01*
X84975399Y-64934800D01*
X84950379Y-64995202D01*
X84925400Y-65120781D01*
X84925400Y-65248819D01*
X84950379Y-65374398D01*
X84975399Y-65434800D01*
X83875400Y-65434800D01*
X83875400Y-66432644D01*
X83881801Y-66492172D01*
X83881803Y-66492179D01*
X83932045Y-66626886D01*
X83932049Y-66626893D01*
X84018209Y-66741987D01*
X84018212Y-66741990D01*
X84133306Y-66828150D01*
X84133313Y-66828154D01*
X84268020Y-66878396D01*
X84268027Y-66878398D01*
X84327555Y-66884799D01*
X84327572Y-66884800D01*
X85325400Y-66884800D01*
X85325400Y-65784801D01*
X85385802Y-65809821D01*
X85511381Y-65834800D01*
X85639419Y-65834800D01*
X85764998Y-65809821D01*
X85825400Y-65784801D01*
X85825400Y-66884800D01*
X86823228Y-66884800D01*
X86823244Y-66884799D01*
X86882772Y-66878398D01*
X86882779Y-66878396D01*
X87017486Y-66828154D01*
X87017493Y-66828150D01*
X87132587Y-66741990D01*
X87132590Y-66741987D01*
X87218750Y-66626893D01*
X87218754Y-66626886D01*
X87268996Y-66492179D01*
X87268998Y-66492172D01*
X87275399Y-66432644D01*
X87275400Y-66432627D01*
X87275400Y-65434800D01*
X86175401Y-65434800D01*
X86200421Y-65374398D01*
X86225400Y-65248819D01*
X86225400Y-65120781D01*
X86200421Y-64995202D01*
X86175401Y-64934800D01*
X87275400Y-64934800D01*
X87275400Y-63936972D01*
X87275399Y-63936955D01*
X87268998Y-63877427D01*
X87268996Y-63877420D01*
X87218754Y-63742713D01*
X87218750Y-63742706D01*
X87132590Y-63627612D01*
X87132587Y-63627609D01*
X87017493Y-63541449D01*
X87017486Y-63541445D01*
X86882779Y-63491203D01*
X86882772Y-63491201D01*
X86823244Y-63484800D01*
X85825400Y-63484800D01*
X85825400Y-64584798D01*
X85764998Y-64559779D01*
X85639419Y-64534800D01*
X85511381Y-64534800D01*
X85385802Y-64559779D01*
X85325400Y-64584798D01*
X85325400Y-63484800D01*
X84327555Y-63484800D01*
X84268027Y-63491201D01*
X84268020Y-63491203D01*
X84133313Y-63541445D01*
X84133306Y-63541449D01*
X84018212Y-63627609D01*
X84018209Y-63627612D01*
X83932049Y-63742706D01*
X83932045Y-63742713D01*
X83881803Y-63877420D01*
X83881801Y-63877427D01*
X83875400Y-63936955D01*
X81652427Y-63936955D01*
X81619029Y-63903557D01*
X81619022Y-63903551D01*
X81442182Y-63767858D01*
X81442180Y-63767857D01*
X81442174Y-63767852D01*
X81249126Y-63656395D01*
X81249122Y-63656393D01*
X81043190Y-63571093D01*
X81043183Y-63571091D01*
X81043181Y-63571090D01*
X80827863Y-63513396D01*
X80827857Y-63513395D01*
X80827852Y-63513394D01*
X80606866Y-63484301D01*
X80606863Y-63484300D01*
X80606857Y-63484300D01*
X80383943Y-63484300D01*
X80383937Y-63484300D01*
X80383933Y-63484301D01*
X80162947Y-63513394D01*
X80162940Y-63513395D01*
X80162937Y-63513396D01*
X80041667Y-63545890D01*
X79947619Y-63571090D01*
X79947609Y-63571093D01*
X79741677Y-63656393D01*
X79741673Y-63656395D01*
X79548626Y-63767852D01*
X79548617Y-63767858D01*
X79371777Y-63903551D01*
X79371770Y-63903557D01*
X79214157Y-64061170D01*
X79214151Y-64061177D01*
X79078458Y-64238017D01*
X79078452Y-64238026D01*
X78966995Y-64431073D01*
X78966993Y-64431077D01*
X78881693Y-64637009D01*
X78881690Y-64637019D01*
X78823997Y-64852334D01*
X78823994Y-64852347D01*
X78794901Y-65073333D01*
X78794900Y-65073349D01*
X77115900Y-65073349D01*
X77115900Y-65073343D01*
X77086804Y-64852337D01*
X77029110Y-64637019D01*
X76943805Y-64431074D01*
X76832348Y-64238026D01*
X76721420Y-64093461D01*
X76696648Y-64061177D01*
X76696642Y-64061170D01*
X76539029Y-63903557D01*
X76539022Y-63903551D01*
X76362182Y-63767858D01*
X76362180Y-63767857D01*
X76362174Y-63767852D01*
X76169126Y-63656395D01*
X76169122Y-63656393D01*
X75963190Y-63571093D01*
X75963183Y-63571091D01*
X75963181Y-63571090D01*
X75747863Y-63513396D01*
X75747857Y-63513395D01*
X75747852Y-63513394D01*
X75526866Y-63484301D01*
X75526863Y-63484300D01*
X75526857Y-63484300D01*
X75303943Y-63484300D01*
X75303937Y-63484300D01*
X75303933Y-63484301D01*
X75082947Y-63513394D01*
X75082940Y-63513395D01*
X75082937Y-63513396D01*
X74961667Y-63545890D01*
X74867619Y-63571090D01*
X74867609Y-63571093D01*
X74661677Y-63656393D01*
X74661673Y-63656395D01*
X74468626Y-63767852D01*
X74468617Y-63767858D01*
X74291777Y-63903551D01*
X74291770Y-63903557D01*
X74134157Y-64061170D01*
X74134151Y-64061177D01*
X73998458Y-64238017D01*
X73998452Y-64238026D01*
X73886995Y-64431073D01*
X73886993Y-64431077D01*
X73801693Y-64637009D01*
X73801690Y-64637019D01*
X73743997Y-64852334D01*
X73743994Y-64852347D01*
X73714901Y-65073333D01*
X73714900Y-65073349D01*
X71054562Y-65073349D01*
X71048389Y-65064111D01*
X71048386Y-65064107D01*
X70936892Y-64952613D01*
X70936888Y-64952610D01*
X70805785Y-64865009D01*
X70805772Y-64865002D01*
X70660101Y-64804664D01*
X70660089Y-64804661D01*
X70505445Y-64773900D01*
X70505442Y-64773900D01*
X70347758Y-64773900D01*
X70347755Y-64773900D01*
X70193110Y-64804661D01*
X70193098Y-64804664D01*
X70047427Y-64865002D01*
X70047414Y-64865009D01*
X69916311Y-64952610D01*
X69916307Y-64952613D01*
X69804813Y-65064107D01*
X69804810Y-65064111D01*
X69717209Y-65195214D01*
X69717202Y-65195227D01*
X69656864Y-65340898D01*
X69656861Y-65340910D01*
X69626100Y-65495553D01*
X64941679Y-65495553D01*
X64957489Y-65484989D01*
X64957492Y-65484986D01*
X65040694Y-65401785D01*
X65068986Y-65373492D01*
X65068989Y-65373489D01*
X65156594Y-65242379D01*
X65216937Y-65096697D01*
X65247700Y-64942042D01*
X65247700Y-64784358D01*
X65247700Y-64784355D01*
X65247699Y-64784353D01*
X65216938Y-64629710D01*
X65216937Y-64629703D01*
X65187974Y-64559779D01*
X65156597Y-64484027D01*
X65156590Y-64484014D01*
X65068989Y-64352911D01*
X65068986Y-64352907D01*
X64957492Y-64241413D01*
X64957488Y-64241410D01*
X64826385Y-64153809D01*
X64826372Y-64153802D01*
X64680701Y-64093464D01*
X64680689Y-64093461D01*
X64526045Y-64062700D01*
X64526042Y-64062700D01*
X64368358Y-64062700D01*
X64368355Y-64062700D01*
X64213710Y-64093461D01*
X64213698Y-64093464D01*
X64068027Y-64153802D01*
X64068014Y-64153809D01*
X63936911Y-64241410D01*
X63936907Y-64241413D01*
X63825413Y-64352907D01*
X63825410Y-64352911D01*
X63737809Y-64484014D01*
X63737802Y-64484027D01*
X63677464Y-64629698D01*
X63677461Y-64629710D01*
X63646700Y-64784353D01*
X63646700Y-64942046D01*
X63677461Y-65096689D01*
X63677464Y-65096701D01*
X63737802Y-65242372D01*
X63737809Y-65242385D01*
X63817379Y-65361469D01*
X63838257Y-65428147D01*
X63819773Y-65495527D01*
X63801959Y-65518041D01*
X63770000Y-65550000D01*
X63770000Y-66466988D01*
X63712993Y-66434075D01*
X63585826Y-66400000D01*
X63454174Y-66400000D01*
X63327007Y-66434075D01*
X63270000Y-66466988D01*
X63270000Y-65550000D01*
X62622155Y-65550000D01*
X62562627Y-65556401D01*
X62562620Y-65556403D01*
X62427913Y-65606645D01*
X62427906Y-65606649D01*
X62312812Y-65692809D01*
X62312809Y-65692812D01*
X62226649Y-65807906D01*
X62226646Y-65807912D01*
X62177577Y-65939471D01*
X62135705Y-65995404D01*
X62070241Y-66019821D01*
X62001968Y-66004969D01*
X61973714Y-65983818D01*
X61859786Y-65869890D01*
X61687820Y-65744951D01*
X61498414Y-65648444D01*
X61498413Y-65648443D01*
X61498412Y-65648443D01*
X61296243Y-65582754D01*
X61296241Y-65582753D01*
X61296240Y-65582753D01*
X61134957Y-65557208D01*
X61086287Y-65549500D01*
X60873713Y-65549500D01*
X60825042Y-65557208D01*
X60663760Y-65582753D01*
X60663757Y-65582754D01*
X60529248Y-65626459D01*
X60461585Y-65648444D01*
X60272179Y-65744951D01*
X60100213Y-65869890D01*
X59949890Y-66020213D01*
X59824949Y-66192182D01*
X59820484Y-66200946D01*
X59772509Y-66251742D01*
X59704688Y-66268536D01*
X59638553Y-66245998D01*
X59599516Y-66200946D01*
X59595050Y-66192182D01*
X59470109Y-66020213D01*
X59319786Y-65869890D01*
X59147820Y-65744951D01*
X58958414Y-65648444D01*
X58958413Y-65648443D01*
X58958412Y-65648443D01*
X58756243Y-65582754D01*
X58756241Y-65582753D01*
X58756240Y-65582753D01*
X58594957Y-65557208D01*
X58546287Y-65549500D01*
X58333713Y-65549500D01*
X58285042Y-65557208D01*
X58123760Y-65582753D01*
X58123757Y-65582754D01*
X57989248Y-65626459D01*
X57921585Y-65648444D01*
X57732179Y-65744951D01*
X57560213Y-65869890D01*
X57409890Y-66020213D01*
X57284949Y-66192182D01*
X57280484Y-66200946D01*
X57232509Y-66251742D01*
X57164688Y-66268536D01*
X57098553Y-66245998D01*
X57059516Y-66200946D01*
X57055050Y-66192182D01*
X56930109Y-66020213D01*
X56779786Y-65869890D01*
X56607820Y-65744951D01*
X56418414Y-65648444D01*
X56418413Y-65648443D01*
X56418412Y-65648443D01*
X56216243Y-65582754D01*
X56216241Y-65582753D01*
X56216240Y-65582753D01*
X56054957Y-65557208D01*
X56006287Y-65549500D01*
X55793713Y-65549500D01*
X55745042Y-65557208D01*
X55583760Y-65582753D01*
X55583757Y-65582754D01*
X55449248Y-65626459D01*
X55381585Y-65648444D01*
X55192179Y-65744951D01*
X55020213Y-65869890D01*
X54869890Y-66020213D01*
X54744951Y-66192179D01*
X54648444Y-66381585D01*
X54648443Y-66381587D01*
X54648443Y-66381588D01*
X54629188Y-66440848D01*
X54582753Y-66583760D01*
X54549500Y-66793713D01*
X51184866Y-66793713D01*
X51287146Y-66717146D01*
X51373396Y-66601931D01*
X51423691Y-66467083D01*
X51430100Y-66407473D01*
X51430099Y-63911728D01*
X51423691Y-63852117D01*
X51392264Y-63767858D01*
X51373397Y-63717271D01*
X51373393Y-63717264D01*
X51287147Y-63602055D01*
X51287144Y-63602052D01*
X51171935Y-63515806D01*
X51171928Y-63515802D01*
X51037082Y-63465508D01*
X51037083Y-63465508D01*
X50977483Y-63459101D01*
X50977481Y-63459100D01*
X50977473Y-63459100D01*
X50977464Y-63459100D01*
X48481729Y-63459100D01*
X48481723Y-63459101D01*
X48422116Y-63465508D01*
X48287271Y-63515802D01*
X48287264Y-63515806D01*
X48172055Y-63602052D01*
X48172052Y-63602055D01*
X48085806Y-63717264D01*
X48085802Y-63717271D01*
X48035508Y-63852117D01*
X48029979Y-63903551D01*
X48029101Y-63911723D01*
X48029100Y-63911735D01*
X45806607Y-63911735D01*
X45773229Y-63878357D01*
X45773222Y-63878351D01*
X45596382Y-63742658D01*
X45596380Y-63742657D01*
X45596374Y-63742652D01*
X45403326Y-63631195D01*
X45403322Y-63631193D01*
X45197390Y-63545893D01*
X45197383Y-63545891D01*
X45197381Y-63545890D01*
X44982063Y-63488196D01*
X44982057Y-63488195D01*
X44982052Y-63488194D01*
X44761066Y-63459101D01*
X44761063Y-63459100D01*
X44761057Y-63459100D01*
X44538143Y-63459100D01*
X44538137Y-63459100D01*
X44538133Y-63459101D01*
X44317147Y-63488194D01*
X44317140Y-63488195D01*
X44317137Y-63488196D01*
X44214102Y-63515804D01*
X44101819Y-63545890D01*
X44101809Y-63545893D01*
X43895877Y-63631193D01*
X43895873Y-63631195D01*
X43702826Y-63742652D01*
X43702817Y-63742658D01*
X43525977Y-63878351D01*
X43525970Y-63878357D01*
X43368357Y-64035970D01*
X43368351Y-64035977D01*
X43232658Y-64212817D01*
X43232652Y-64212826D01*
X43121195Y-64405873D01*
X43121193Y-64405877D01*
X43035893Y-64611809D01*
X43035890Y-64611819D01*
X42984219Y-64804661D01*
X42978197Y-64827134D01*
X42978194Y-64827147D01*
X42949101Y-65048133D01*
X42949100Y-65048149D01*
X40593100Y-65048149D01*
X40593100Y-60508300D01*
X40612785Y-60441261D01*
X40665589Y-60395506D01*
X40717100Y-60384300D01*
X89388100Y-60384300D01*
X89455139Y-60403985D01*
G37*
%TD.AperFunction*%
%TD*%
M02*
