%TF.GenerationSoftware,KiCad,Pcbnew,9.0.6*%
%TF.CreationDate,2025-12-26T20:19:53+00:00*%
%TF.ProjectId,PIDI-BOX-01-MAIN-1-PZ2_ESP-A1,50494449-2d42-44f5-982d-30312d4d4149,01*%
%TF.SameCoordinates,Original*%
%TF.FileFunction,Copper,L3,Inr*%
%TF.FilePolarity,Positive*%
%FSLAX46Y46*%
G04 Gerber Fmt 4.6, Leading zero omitted, Abs format (unit mm)*
G04 Created by KiCad (PCBNEW 9.0.6) date 2025-12-26 20:19:53*
%MOMM*%
%LPD*%
G01*
G04 APERTURE LIST*
G04 Aperture macros list*
%AMRoundRect*
0 Rectangle with rounded corners*
0 $1 Rounding radius*
0 $2 $3 $4 $5 $6 $7 $8 $9 X,Y pos of 4 corners*
0 Add a 4 corners polygon primitive as box body*
4,1,4,$2,$3,$4,$5,$6,$7,$8,$9,$2,$3,0*
0 Add four circle primitives for the rounded corners*
1,1,$1+$1,$2,$3*
1,1,$1+$1,$4,$5*
1,1,$1+$1,$6,$7*
1,1,$1+$1,$8,$9*
0 Add four rect primitives between the rounded corners*
20,1,$1+$1,$2,$3,$4,$5,0*
20,1,$1+$1,$4,$5,$6,$7,0*
20,1,$1+$1,$6,$7,$8,$9,0*
20,1,$1+$1,$8,$9,$2,$3,0*%
%AMRotRect*
0 Rectangle, with rotation*
0 The origin of the aperture is its center*
0 $1 length*
0 $2 width*
0 $3 Rotation angle, in degrees counterclockwise*
0 Add horizontal line*
21,1,$1,$2,0,0,$3*%
G04 Aperture macros list end*
%TA.AperFunction,ComponentPad*%
%ADD10R,2.400000X2.400000*%
%TD*%
%TA.AperFunction,ComponentPad*%
%ADD11C,2.400000*%
%TD*%
%TA.AperFunction,ComponentPad*%
%ADD12R,1.700000X1.700000*%
%TD*%
%TA.AperFunction,ComponentPad*%
%ADD13C,1.700000*%
%TD*%
%TA.AperFunction,ComponentPad*%
%ADD14O,1.700000X1.700000*%
%TD*%
%TA.AperFunction,ComponentPad*%
%ADD15R,1.650000X1.650000*%
%TD*%
%TA.AperFunction,ComponentPad*%
%ADD16C,1.650000*%
%TD*%
%TA.AperFunction,ComponentPad*%
%ADD17RotRect,2.000000X2.000000X45.000000*%
%TD*%
%TA.AperFunction,ComponentPad*%
%ADD18C,2.000000*%
%TD*%
%TA.AperFunction,ComponentPad*%
%ADD19RoundRect,0.250000X0.600000X0.600000X-0.600000X0.600000X-0.600000X-0.600000X0.600000X-0.600000X0*%
%TD*%
%TA.AperFunction,ComponentPad*%
%ADD20R,2.000000X1.600000*%
%TD*%
%TA.AperFunction,ComponentPad*%
%ADD21O,2.000000X1.600000*%
%TD*%
%TA.AperFunction,ComponentPad*%
%ADD22R,1.050000X1.500000*%
%TD*%
%TA.AperFunction,ComponentPad*%
%ADD23O,1.050000X1.500000*%
%TD*%
%TA.AperFunction,ViaPad*%
%ADD24C,1.000000*%
%TD*%
%TA.AperFunction,ViaPad*%
%ADD25C,0.600000*%
%TD*%
%TA.AperFunction,ViaPad*%
%ADD26C,2.000000*%
%TD*%
%TA.AperFunction,ViaPad*%
%ADD27C,1.500000*%
%TD*%
%TA.AperFunction,Conductor*%
%ADD28C,0.800000*%
%TD*%
%TA.AperFunction,Conductor*%
%ADD29C,1.800000*%
%TD*%
%TA.AperFunction,Conductor*%
%ADD30C,1.000000*%
%TD*%
%TA.AperFunction,Conductor*%
%ADD31C,0.700000*%
%TD*%
G04 APERTURE END LIST*
D10*
%TO.N,Net-(J1-Pad1)*%
%TO.C,J1*%
X49729600Y-65159600D03*
D11*
%TO.N,Net-(J1-Pad2)*%
X44649600Y-65159600D03*
%TD*%
D12*
%TO.N,+3.3V*%
%TO.C,J13*%
X74342200Y-131716000D03*
D13*
%TO.N,GND*%
X74342200Y-129176000D03*
%TO.N,SCL*%
X74342200Y-126636000D03*
%TO.N,SDA*%
X74342200Y-124096000D03*
%TD*%
D12*
%TO.N,Net-(J9-Pin_1)*%
%TO.C,J9*%
X80930200Y-87523400D03*
D14*
%TO.N,Net-(J9-Pin_2)*%
X83470200Y-87523400D03*
%TO.N,GND*%
X80930200Y-90063400D03*
%TO.N,Net-(J9-Pin_4)*%
X83470200Y-90063400D03*
%TO.N,GND*%
X80930200Y-92603400D03*
%TO.N,Net-(J9-Pin_6)*%
X83470200Y-92603400D03*
%TD*%
D15*
%TO.N,Net-(U3-+VIN)*%
%TO.C,U3*%
X61525600Y-139950000D03*
D16*
%TO.N,GND*%
X58985600Y-139950000D03*
%TO.N,+5V*%
X56445600Y-139950000D03*
%TD*%
D17*
%TO.N,+5V*%
%TO.C,BZ1*%
X80302194Y-130516806D03*
D18*
%TO.N,Net-(BZ1--)*%
X85676206Y-125142794D03*
%TD*%
D12*
%TO.N,GND*%
%TO.C,J5*%
X63520000Y-66900000D03*
D13*
%TO.N,Net-(J3-TXD0_GPIO14)*%
X60980000Y-66900000D03*
%TO.N,Net-(J3-RXD0_GPIO15)*%
X58440000Y-66900000D03*
%TO.N,+3.3V*%
X55900000Y-66900000D03*
%TD*%
D19*
%TO.N,GND*%
%TO.C,J11*%
X77934600Y-116222000D03*
D13*
X75394600Y-116222000D03*
%TO.N,/G20LE3*%
X77934600Y-113682000D03*
%TO.N,Net-(J11-Pin_4)*%
X75394600Y-113682000D03*
%TO.N,/G21LE7*%
X77934600Y-111142000D03*
%TO.N,Net-(J11-Pin_6)*%
X75394600Y-111142000D03*
%TO.N,SDA*%
X77934600Y-108602000D03*
%TO.N,Net-(J11-Pin_8)*%
X75394600Y-108602000D03*
%TO.N,SCL*%
X77934600Y-106062000D03*
%TO.N,+3.3V*%
X75394600Y-106062000D03*
%TO.N,G9LE4*%
X77934600Y-103522000D03*
%TO.N,G17LE1*%
X75394600Y-103522000D03*
%TO.N,G10LE2*%
X77934600Y-100982000D03*
%TO.N,+5V*%
X75394600Y-100982000D03*
%TD*%
D12*
%TO.N,Net-(J3-3V3_1)*%
%TO.C,J3*%
X66149600Y-79089600D03*
D13*
%TO.N,+5V*%
X68689600Y-79089600D03*
%TO.N,SDA*%
X66149600Y-81629600D03*
%TO.N,+5V*%
X68689600Y-81629600D03*
%TO.N,SCL*%
X66149600Y-84169600D03*
%TO.N,unconnected-(J3-GND_8-Pad6)*%
X68689600Y-84169600D03*
%TO.N,1_WIRE_io4*%
X66149600Y-86709600D03*
%TO.N,Net-(J3-TXD0_GPIO14)*%
X68689600Y-86709600D03*
%TO.N,GND*%
X66149600Y-89249600D03*
%TO.N,Net-(J3-RXD0_GPIO15)*%
X68689600Y-89249600D03*
%TO.N,G17LE1*%
X66149600Y-91789600D03*
%TO.N,unconnected-(J3-GPIO18-Pad12)*%
X68689600Y-91789600D03*
%TO.N,unconnected-(J3-GPIO27_GEN2-Pad13)*%
X66149600Y-94329600D03*
%TO.N,GND*%
X68689600Y-94329600D03*
%TO.N,unconnected-(J3-GPIO22_GEN3-Pad15)*%
X66149600Y-96869600D03*
%TO.N,unconnected-(J3-GEN4_GPIO23-Pad16)*%
X68689600Y-96869600D03*
%TO.N,unconnected-(J3-3V3_2-Pad17)*%
X66149600Y-99409600D03*
%TO.N,I2C_SIG1*%
X68689600Y-99409600D03*
%TO.N,G10LE2*%
X66149600Y-101949600D03*
%TO.N,GND*%
X68689600Y-101949600D03*
%TO.N,G9LE4*%
X66149600Y-104489600D03*
%TO.N,/BUT2*%
X68689600Y-104489600D03*
%TO.N,unconnected-(J3-GPIO11_SCLK-Pad23)*%
X66149600Y-107029600D03*
%TO.N,/BUT1*%
X68689600Y-107029600D03*
%TO.N,GND*%
X66149600Y-109569600D03*
%TO.N,unconnected-(J3-~{CE1}_GPIO7-Pad26)*%
X68689600Y-109569600D03*
%TO.N,unconnected-(J3-ID_SD-Pad27)*%
X66149600Y-112109600D03*
%TO.N,unconnected-(J3-ID_SC-Pad28)*%
X68689600Y-112109600D03*
%TO.N,Net-(J3-GPIO5)*%
X66149600Y-114649600D03*
%TO.N,unconnected-(J3-GND_6-Pad30)*%
X68689600Y-114649600D03*
%TO.N,Net-(J3-GPIO6)*%
X66149600Y-117189600D03*
%TO.N,unconnected-(J3-GPIO12-Pad32)*%
X68689600Y-117189600D03*
%TO.N,PWM*%
X66149600Y-119729600D03*
%TO.N,GND*%
X68689600Y-119729600D03*
%TO.N,EN_I2C*%
X66149600Y-122269600D03*
%TO.N,/BUT3*%
X68689600Y-122269600D03*
%TO.N,OPTO_IN*%
X66149600Y-124809600D03*
%TO.N,/G20LE3*%
X68689600Y-124809600D03*
%TO.N,GND*%
X66149600Y-127349600D03*
%TO.N,/G21LE7*%
X68689600Y-127349600D03*
%TD*%
D12*
%TO.N,Net-(BZ1--)*%
%TO.C,J12*%
X82862200Y-114845400D03*
D13*
%TO.N,Net-(J12-Pin_2)*%
X82862200Y-117385400D03*
%TD*%
D10*
%TO.N,GND*%
%TO.C,J14*%
X80332200Y-140823400D03*
D11*
%TO.N,Net-(D1-A)*%
X85412200Y-140823400D03*
%TD*%
D12*
%TO.N,Net-(D1-K)*%
%TO.C,J4*%
X87135800Y-137266400D03*
%TD*%
%TO.N,GND*%
%TO.C,J8*%
X78525200Y-137368000D03*
%TD*%
D20*
%TO.N,Net-(Bat1-+)*%
%TO.C,REF\u002A\u002A*%
X52249878Y-107595000D03*
D21*
%TO.N,GND*%
X52249878Y-87095000D03*
%TD*%
D22*
%TO.N,GND*%
%TO.C,U4*%
X43085800Y-81246200D03*
D23*
%TO.N,1_WIRE_io4*%
X44355800Y-81246200D03*
%TO.N,+3.3V*%
X45625800Y-81246200D03*
%TD*%
D10*
%TO.N,GND*%
%TO.C,J2*%
X85575400Y-65184800D03*
D11*
%TO.N,/1-Wire DATA*%
X80495400Y-65184800D03*
%TO.N,/1-Wire +5V*%
X75415400Y-65184800D03*
%TD*%
D24*
%TO.N,GND*%
X50661400Y-134599400D03*
X56624000Y-119270000D03*
X83827400Y-79049100D03*
X51692200Y-120493400D03*
D25*
X64447200Y-62094600D03*
D24*
X75724800Y-88231200D03*
X83300400Y-136174200D03*
D26*
X46849600Y-143259600D03*
D25*
X85910200Y-111980200D03*
D24*
X50650000Y-135602200D03*
X75013600Y-93429000D03*
X74454800Y-79265000D03*
D27*
%TO.N,+5V*%
X64091600Y-71848200D03*
D24*
X72192200Y-99585000D03*
X72192200Y-120184400D03*
X86824600Y-120209800D03*
%TO.N,+3.3V*%
X58009800Y-79200000D03*
D25*
X76718200Y-83633800D03*
X57005000Y-123105400D03*
X81744600Y-106646200D03*
D27*
X58892200Y-129849600D03*
D25*
X84958200Y-81652600D03*
D24*
X42492200Y-123443400D03*
X74113600Y-91529000D03*
D27*
X45742200Y-127143400D03*
D25*
%TO.N,1_WIRE_io4*%
X72651400Y-85056200D03*
X57919400Y-85107000D03*
%TO.N,Net-(U1-EN)*%
X85381600Y-95933200D03*
X74222700Y-86199200D03*
%TO.N,SCL*%
X60256200Y-84141800D03*
X54541200Y-124363400D03*
%TO.N,Net-(BZ1--)*%
X70650000Y-135400000D03*
%TO.N,SDA*%
X58808400Y-82719400D03*
X53488070Y-123018977D03*
D24*
%TO.N,Net-(J9-Pin_1)*%
X87383400Y-113047000D03*
D25*
%TO.N,Net-(C18-Pad1)*%
X80677800Y-98391200D03*
X81795400Y-104309400D03*
%TO.N,Net-(U1-VCC(A))*%
X80652400Y-102633000D03*
D24*
X77738600Y-94784400D03*
D25*
%TO.N,Net-(J3-GPIO6)*%
X70426600Y-65574400D03*
%TO.N,Net-(J3-GPIO5)*%
X64447200Y-64863200D03*
%TD*%
D28*
%TO.N,+5V*%
X72217600Y-120209800D02*
X86824600Y-120209800D01*
D29*
X69451000Y-70476600D02*
X65437800Y-70476600D01*
X64091600Y-71848200D02*
X63024800Y-72915000D01*
X57386000Y-137151600D02*
X56445600Y-138092000D01*
D30*
X70314600Y-137151600D02*
X62948600Y-137151600D01*
D29*
X68712200Y-79113400D02*
X69780400Y-79113400D01*
D30*
X64091600Y-71822800D02*
X64091600Y-71848200D01*
D29*
X71203600Y-77690200D02*
X71203600Y-72229200D01*
D30*
X68712200Y-81653400D02*
X68712200Y-79113400D01*
D29*
X71203600Y-72229200D02*
X69451000Y-70476600D01*
X56445600Y-138092000D02*
X56445600Y-140304400D01*
D30*
X72192200Y-135274000D02*
X70314600Y-137151600D01*
X72192200Y-120184400D02*
X72192200Y-135274000D01*
D29*
X62948600Y-137151600D02*
X57386000Y-137151600D01*
X69780400Y-79113400D02*
X71203600Y-77690200D01*
X65437800Y-70476600D02*
X64091600Y-71822800D01*
D31*
X72192200Y-99585000D02*
X73896000Y-99585000D01*
D29*
X63024800Y-72915000D02*
X63024800Y-137075400D01*
D31*
X73896000Y-99585000D02*
X75394600Y-101083600D01*
D30*
X72192200Y-120184400D02*
X72192200Y-99585000D01*
X63024800Y-137075400D02*
X62948600Y-137151600D01*
D28*
X72192200Y-120184400D02*
X72217600Y-120209800D01*
%TO.N,Net-(J9-Pin_1)*%
X82100200Y-84980000D02*
X82074800Y-84954600D01*
X88094600Y-112335800D02*
X88094600Y-87037400D01*
X86037200Y-84980000D02*
X82100200Y-84980000D01*
X87383400Y-113047000D02*
X88094600Y-112335800D01*
X82074800Y-84954600D02*
X80930200Y-86099200D01*
X88094600Y-87037400D02*
X86037200Y-84980000D01*
X80930200Y-86099200D02*
X80930200Y-87523400D01*
%TD*%
%TA.AperFunction,Conductor*%
%TO.N,+3.3V*%
G36*
X76509870Y-106823717D02*
G01*
X76509870Y-106823716D01*
X76549222Y-106769554D01*
X76645695Y-106580217D01*
X76655092Y-106551295D01*
X76694528Y-106493618D01*
X76758886Y-106466419D01*
X76827733Y-106478331D01*
X76879210Y-106525574D01*
X76883508Y-106533314D01*
X76950604Y-106664995D01*
X77057041Y-106811494D01*
X77057045Y-106811499D01*
X77185100Y-106939554D01*
X77185105Y-106939558D01*
X77245467Y-106983413D01*
X77331606Y-107045996D01*
X77395326Y-107078463D01*
X77492960Y-107128211D01*
X77492963Y-107128212D01*
X77579076Y-107156191D01*
X77665191Y-107184171D01*
X77738239Y-107195740D01*
X77825278Y-107209527D01*
X77888413Y-107239456D01*
X77925344Y-107298768D01*
X77924346Y-107368631D01*
X77885736Y-107426863D01*
X77825278Y-107454473D01*
X77665189Y-107479829D01*
X77492963Y-107535787D01*
X77492960Y-107535788D01*
X77331602Y-107618006D01*
X77185105Y-107724441D01*
X77185100Y-107724445D01*
X77057045Y-107852500D01*
X77057041Y-107852505D01*
X76950606Y-107999002D01*
X76868388Y-108160360D01*
X76868387Y-108160363D01*
X76812429Y-108332589D01*
X76787073Y-108492678D01*
X76757144Y-108555813D01*
X76697832Y-108592744D01*
X76627969Y-108591746D01*
X76569737Y-108553136D01*
X76542127Y-108492678D01*
X76528340Y-108405639D01*
X76516771Y-108332591D01*
X76475983Y-108207056D01*
X76460812Y-108160363D01*
X76460811Y-108160360D01*
X76427921Y-108095811D01*
X76378596Y-107999006D01*
X76311862Y-107907154D01*
X76272158Y-107852505D01*
X76272154Y-107852500D01*
X76144099Y-107724445D01*
X76144094Y-107724441D01*
X75997595Y-107618004D01*
X75865914Y-107550908D01*
X75815119Y-107502934D01*
X75798324Y-107435113D01*
X75820862Y-107368978D01*
X75875577Y-107325527D01*
X75883895Y-107322492D01*
X75912817Y-107313095D01*
X76102154Y-107216622D01*
X76156316Y-107177270D01*
X76156317Y-107177270D01*
X75524008Y-106544962D01*
X75587593Y-106527925D01*
X75701607Y-106462099D01*
X75794699Y-106369007D01*
X75860525Y-106254993D01*
X75877562Y-106191408D01*
X76509870Y-106823717D01*
G37*
%TD.AperFunction*%
%TA.AperFunction,Conductor*%
G36*
X76701230Y-103532253D02*
G01*
X76759463Y-103570863D01*
X76787073Y-103631321D01*
X76812429Y-103791410D01*
X76868387Y-103963636D01*
X76868388Y-103963639D01*
X76950606Y-104124997D01*
X77057041Y-104271494D01*
X77057045Y-104271499D01*
X77185100Y-104399554D01*
X77185105Y-104399558D01*
X77245467Y-104443413D01*
X77331606Y-104505996D01*
X77400678Y-104541190D01*
X77492960Y-104588211D01*
X77492963Y-104588212D01*
X77579076Y-104616191D01*
X77665191Y-104644171D01*
X77738239Y-104655740D01*
X77825278Y-104669527D01*
X77888413Y-104699456D01*
X77925344Y-104758768D01*
X77924346Y-104828631D01*
X77885736Y-104886863D01*
X77825278Y-104914473D01*
X77665189Y-104939829D01*
X77492963Y-104995787D01*
X77492960Y-104995788D01*
X77331602Y-105078006D01*
X77185105Y-105184441D01*
X77185100Y-105184445D01*
X77057045Y-105312500D01*
X77057041Y-105312505D01*
X76950604Y-105459004D01*
X76883508Y-105590685D01*
X76835533Y-105641480D01*
X76767712Y-105658275D01*
X76701577Y-105635737D01*
X76658127Y-105581021D01*
X76655092Y-105572705D01*
X76645694Y-105543780D01*
X76549224Y-105354449D01*
X76509870Y-105300282D01*
X76509869Y-105300282D01*
X75877562Y-105932590D01*
X75860525Y-105869007D01*
X75794699Y-105754993D01*
X75701607Y-105661901D01*
X75587593Y-105596075D01*
X75524009Y-105579037D01*
X76156316Y-104946728D01*
X76102150Y-104907375D01*
X75912817Y-104810904D01*
X75883892Y-104801506D01*
X75826216Y-104762068D01*
X75799018Y-104697710D01*
X75810933Y-104628863D01*
X75858177Y-104577388D01*
X75865915Y-104573090D01*
X75997594Y-104505996D01*
X76144101Y-104399553D01*
X76272153Y-104271501D01*
X76378596Y-104124994D01*
X76460811Y-103963639D01*
X76516771Y-103791409D01*
X76531022Y-103701425D01*
X76542127Y-103631321D01*
X76572056Y-103568186D01*
X76631368Y-103531255D01*
X76701230Y-103532253D01*
G37*
%TD.AperFunction*%
%TA.AperFunction,Conductor*%
G36*
X89455139Y-60403985D02*
G01*
X89500894Y-60456789D01*
X89512100Y-60508300D01*
X89512100Y-145559300D01*
X89492415Y-145626339D01*
X89439611Y-145672094D01*
X89388100Y-145683300D01*
X40717100Y-145683300D01*
X40650061Y-145663615D01*
X40604306Y-145610811D01*
X40593100Y-145559300D01*
X40593100Y-143157248D01*
X45549100Y-143157248D01*
X45549100Y-143361951D01*
X45581122Y-143564134D01*
X45644381Y-143758823D01*
X45737315Y-143941213D01*
X45857628Y-144106813D01*
X46002386Y-144251571D01*
X46157349Y-144364156D01*
X46167990Y-144371887D01*
X46284207Y-144431103D01*
X46350376Y-144464818D01*
X46350378Y-144464818D01*
X46350381Y-144464820D01*
X46454737Y-144498727D01*
X46545065Y-144528077D01*
X46646157Y-144544088D01*
X46747248Y-144560100D01*
X46747249Y-144560100D01*
X46951951Y-144560100D01*
X46951952Y-144560100D01*
X47154134Y-144528077D01*
X47348819Y-144464820D01*
X47531210Y-144371887D01*
X47624190Y-144304332D01*
X47696813Y-144251571D01*
X47696815Y-144251568D01*
X47696819Y-144251566D01*
X47841566Y-144106819D01*
X47841568Y-144106815D01*
X47841571Y-144106813D01*
X47894332Y-144034190D01*
X47961887Y-143941210D01*
X48054820Y-143758819D01*
X48118077Y-143564134D01*
X48150100Y-143361952D01*
X48150100Y-143157248D01*
X48118077Y-142955066D01*
X48054820Y-142760381D01*
X48054818Y-142760378D01*
X48054818Y-142760376D01*
X48021103Y-142694207D01*
X47961887Y-142577990D01*
X47954156Y-142567349D01*
X47841571Y-142412386D01*
X47696813Y-142267628D01*
X47531213Y-142147315D01*
X47531212Y-142147314D01*
X47531210Y-142147313D01*
X47451585Y-142106742D01*
X47348823Y-142054381D01*
X47154134Y-141991122D01*
X46979595Y-141963478D01*
X46951952Y-141959100D01*
X46747248Y-141959100D01*
X46722929Y-141962951D01*
X46545065Y-141991122D01*
X46350376Y-142054381D01*
X46167986Y-142147315D01*
X46002386Y-142267628D01*
X45857628Y-142412386D01*
X45737315Y-142577986D01*
X45644381Y-142760376D01*
X45581122Y-142955065D01*
X45549100Y-143157248D01*
X40593100Y-143157248D01*
X40593100Y-137997513D01*
X55245100Y-137997513D01*
X55245100Y-140398886D01*
X55274659Y-140585518D01*
X55333054Y-140765236D01*
X55360891Y-140819868D01*
X55418840Y-140933599D01*
X55529910Y-141086473D01*
X55663527Y-141220090D01*
X55816401Y-141331160D01*
X55895947Y-141371690D01*
X55984763Y-141416945D01*
X55984765Y-141416945D01*
X55984768Y-141416947D01*
X56081097Y-141448246D01*
X56164481Y-141475340D01*
X56351114Y-141504900D01*
X56351119Y-141504900D01*
X56540086Y-141504900D01*
X56726718Y-141475340D01*
X56906432Y-141416947D01*
X57074799Y-141331160D01*
X57227673Y-141220090D01*
X57361290Y-141086473D01*
X57472360Y-140933599D01*
X57558147Y-140765232D01*
X57616540Y-140585518D01*
X57623767Y-140539890D01*
X57646100Y-140398886D01*
X57646100Y-140252541D01*
X57665785Y-140185502D01*
X57718589Y-140139747D01*
X57787747Y-140129803D01*
X57851303Y-140158828D01*
X57888031Y-140214224D01*
X57942555Y-140382036D01*
X57942557Y-140382042D01*
X57988410Y-140472032D01*
X58022986Y-140539890D01*
X58127117Y-140683214D01*
X58252386Y-140808483D01*
X58395710Y-140912614D01*
X58452386Y-140941492D01*
X58553557Y-140993042D01*
X58553560Y-140993043D01*
X58637801Y-141020414D01*
X58722045Y-141047786D01*
X58897021Y-141075500D01*
X58897022Y-141075500D01*
X59074178Y-141075500D01*
X59074179Y-141075500D01*
X59249155Y-141047786D01*
X59417642Y-140993042D01*
X59575490Y-140912614D01*
X59718814Y-140808483D01*
X59844083Y-140683214D01*
X59948214Y-140539890D01*
X60028642Y-140382042D01*
X60083386Y-140213555D01*
X60111100Y-140038579D01*
X60111100Y-139861421D01*
X60083386Y-139686445D01*
X60040160Y-139553406D01*
X60028643Y-139517960D01*
X60028642Y-139517957D01*
X59985268Y-139432832D01*
X59948214Y-139360110D01*
X59844083Y-139216786D01*
X59718814Y-139091517D01*
X59703143Y-139080131D01*
X60400100Y-139080131D01*
X60400100Y-140819856D01*
X60400102Y-140819882D01*
X60403013Y-140844987D01*
X60403015Y-140844991D01*
X60448393Y-140947764D01*
X60448394Y-140947765D01*
X60527835Y-141027206D01*
X60630609Y-141072585D01*
X60655735Y-141075500D01*
X62395464Y-141075499D01*
X62395479Y-141075497D01*
X62395482Y-141075497D01*
X62420587Y-141072586D01*
X62420588Y-141072585D01*
X62420591Y-141072585D01*
X62523365Y-141027206D01*
X62602806Y-140947765D01*
X62648185Y-140844991D01*
X62651100Y-140819865D01*
X62651099Y-139578531D01*
X78831700Y-139578531D01*
X78831700Y-142068256D01*
X78831702Y-142068282D01*
X78834613Y-142093387D01*
X78834615Y-142093391D01*
X78879993Y-142196164D01*
X78879994Y-142196165D01*
X78959435Y-142275606D01*
X79062209Y-142320985D01*
X79087335Y-142323900D01*
X81577064Y-142323899D01*
X81577079Y-142323897D01*
X81577082Y-142323897D01*
X81602187Y-142320986D01*
X81602188Y-142320985D01*
X81602191Y-142320985D01*
X81704965Y-142275606D01*
X81784406Y-142196165D01*
X81829785Y-142093391D01*
X81832700Y-142068265D01*
X81832699Y-140705302D01*
X83911700Y-140705302D01*
X83911700Y-140941497D01*
X83948646Y-141174768D01*
X84021633Y-141399396D01*
X84128857Y-141609833D01*
X84267683Y-141800910D01*
X84434690Y-141967917D01*
X84625767Y-142106743D01*
X84705390Y-142147313D01*
X84836203Y-142213966D01*
X84836205Y-142213966D01*
X84836208Y-142213968D01*
X84956612Y-142253089D01*
X85060831Y-142286953D01*
X85294103Y-142323900D01*
X85294108Y-142323900D01*
X85530297Y-142323900D01*
X85763568Y-142286953D01*
X85798493Y-142275605D01*
X85988192Y-142213968D01*
X86198633Y-142106743D01*
X86389710Y-141967917D01*
X86556717Y-141800910D01*
X86695543Y-141609833D01*
X86802768Y-141399392D01*
X86875753Y-141174768D01*
X86889737Y-141086475D01*
X86912700Y-140941497D01*
X86912700Y-140705302D01*
X86875753Y-140472031D01*
X86841889Y-140367812D01*
X86802768Y-140247408D01*
X86802766Y-140247405D01*
X86802766Y-140247403D01*
X86696364Y-140038579D01*
X86695543Y-140036967D01*
X86556717Y-139845890D01*
X86389710Y-139678883D01*
X86198633Y-139540057D01*
X85988196Y-139432833D01*
X85763568Y-139359846D01*
X85530297Y-139322900D01*
X85530292Y-139322900D01*
X85294108Y-139322900D01*
X85294103Y-139322900D01*
X85060831Y-139359846D01*
X84836203Y-139432833D01*
X84625766Y-139540057D01*
X84516750Y-139619262D01*
X84434690Y-139678883D01*
X84434688Y-139678885D01*
X84434687Y-139678885D01*
X84267685Y-139845887D01*
X84267685Y-139845888D01*
X84267683Y-139845890D01*
X84256399Y-139861421D01*
X84128857Y-140036966D01*
X84021633Y-140247403D01*
X83948646Y-140472031D01*
X83911700Y-140705302D01*
X81832699Y-140705302D01*
X81832699Y-139578536D01*
X81832697Y-139578517D01*
X81829786Y-139553412D01*
X81829785Y-139553410D01*
X81829785Y-139553409D01*
X81784406Y-139450635D01*
X81704965Y-139371194D01*
X81679860Y-139360109D01*
X81602192Y-139325815D01*
X81577065Y-139322900D01*
X79087343Y-139322900D01*
X79087317Y-139322902D01*
X79062212Y-139325813D01*
X79062208Y-139325815D01*
X78959435Y-139371193D01*
X78879994Y-139450634D01*
X78834615Y-139553406D01*
X78834615Y-139553408D01*
X78831700Y-139578531D01*
X62651099Y-139578531D01*
X62651099Y-139080136D01*
X62651097Y-139080117D01*
X62648186Y-139055012D01*
X62648185Y-139055010D01*
X62648185Y-139055009D01*
X62602806Y-138952235D01*
X62523365Y-138872794D01*
X62476756Y-138852214D01*
X62420592Y-138827415D01*
X62395465Y-138824500D01*
X60655743Y-138824500D01*
X60655717Y-138824502D01*
X60630612Y-138827413D01*
X60630608Y-138827415D01*
X60527835Y-138872793D01*
X60448394Y-138952234D01*
X60403015Y-139055006D01*
X60403015Y-139055008D01*
X60400100Y-139080131D01*
X59703143Y-139080131D01*
X59575490Y-138987386D01*
X59417642Y-138906957D01*
X59417639Y-138906956D01*
X59249156Y-138852214D01*
X59161667Y-138838357D01*
X59074179Y-138824500D01*
X58897021Y-138824500D01*
X58878617Y-138827415D01*
X58722043Y-138852214D01*
X58553560Y-138906956D01*
X58553557Y-138906957D01*
X58395709Y-138987386D01*
X58313938Y-139046796D01*
X58252386Y-139091517D01*
X58252384Y-139091519D01*
X58252383Y-139091519D01*
X58127119Y-139216783D01*
X58127119Y-139216784D01*
X58127117Y-139216786D01*
X58082396Y-139278338D01*
X58022986Y-139360109D01*
X57942557Y-139517957D01*
X57942556Y-139517960D01*
X57888031Y-139685776D01*
X57848594Y-139743451D01*
X57784235Y-139770650D01*
X57715389Y-139758736D01*
X57663913Y-139711492D01*
X57646100Y-139647458D01*
X57646100Y-138640626D01*
X57654744Y-138611185D01*
X57661268Y-138581199D01*
X57665022Y-138576183D01*
X57665785Y-138573587D01*
X57682419Y-138552945D01*
X57846945Y-138388419D01*
X57908268Y-138354934D01*
X57934626Y-138352100D01*
X63043086Y-138352100D01*
X63229718Y-138322540D01*
X63409432Y-138264147D01*
X63577799Y-138178360D01*
X63730673Y-138067290D01*
X63809544Y-137988419D01*
X63870867Y-137954934D01*
X63897225Y-137952100D01*
X70393444Y-137952100D01*
X70393445Y-137952099D01*
X70548097Y-137921337D01*
X70693779Y-137860994D01*
X70824889Y-137773389D01*
X72125147Y-136473131D01*
X77374700Y-136473131D01*
X77374700Y-138262856D01*
X77374702Y-138262882D01*
X77377613Y-138287987D01*
X77377615Y-138287991D01*
X77422993Y-138390764D01*
X77422994Y-138390765D01*
X77502435Y-138470206D01*
X77605209Y-138515585D01*
X77630335Y-138518500D01*
X79420064Y-138518499D01*
X79420079Y-138518497D01*
X79420082Y-138518497D01*
X79445187Y-138515586D01*
X79445188Y-138515585D01*
X79445191Y-138515585D01*
X79547965Y-138470206D01*
X79627406Y-138390765D01*
X79672785Y-138287991D01*
X79675700Y-138262865D01*
X79675699Y-136473136D01*
X79675697Y-136473117D01*
X79672786Y-136448012D01*
X79672785Y-136448010D01*
X79672785Y-136448009D01*
X79627406Y-136345235D01*
X79547965Y-136265794D01*
X79547963Y-136265793D01*
X79445192Y-136220415D01*
X79420065Y-136217500D01*
X77630343Y-136217500D01*
X77630317Y-136217502D01*
X77605212Y-136220413D01*
X77605208Y-136220415D01*
X77502435Y-136265793D01*
X77422994Y-136345234D01*
X77377615Y-136448006D01*
X77377615Y-136448008D01*
X77374700Y-136473131D01*
X72125147Y-136473131D01*
X72502925Y-136095353D01*
X82499900Y-136095353D01*
X82499900Y-136253046D01*
X82530661Y-136407689D01*
X82530664Y-136407701D01*
X82591002Y-136553372D01*
X82591009Y-136553385D01*
X82678610Y-136684488D01*
X82678613Y-136684492D01*
X82790107Y-136795986D01*
X82790111Y-136795989D01*
X82921214Y-136883590D01*
X82921227Y-136883597D01*
X83066898Y-136943935D01*
X83066903Y-136943937D01*
X83221553Y-136974699D01*
X83221556Y-136974700D01*
X83221558Y-136974700D01*
X83379244Y-136974700D01*
X83379245Y-136974699D01*
X83533897Y-136943937D01*
X83679579Y-136883594D01*
X83810689Y-136795989D01*
X83922189Y-136684489D01*
X84009794Y-136553379D01*
X84070137Y-136407697D01*
X84077331Y-136371531D01*
X85985300Y-136371531D01*
X85985300Y-138161256D01*
X85985302Y-138161282D01*
X85988213Y-138186387D01*
X85988215Y-138186391D01*
X86033593Y-138289164D01*
X86033594Y-138289165D01*
X86113035Y-138368606D01*
X86215809Y-138413985D01*
X86240935Y-138416900D01*
X88030664Y-138416899D01*
X88030679Y-138416897D01*
X88030682Y-138416897D01*
X88055787Y-138413986D01*
X88055788Y-138413985D01*
X88055791Y-138413985D01*
X88158565Y-138368606D01*
X88238006Y-138289165D01*
X88283385Y-138186391D01*
X88286300Y-138161265D01*
X88286299Y-136371536D01*
X88286297Y-136371517D01*
X88283386Y-136346412D01*
X88283385Y-136346410D01*
X88283385Y-136346409D01*
X88238006Y-136243635D01*
X88158565Y-136164194D01*
X88158563Y-136164193D01*
X88055792Y-136118815D01*
X88030665Y-136115900D01*
X86240943Y-136115900D01*
X86240917Y-136115902D01*
X86215812Y-136118813D01*
X86215808Y-136118815D01*
X86113035Y-136164193D01*
X86033594Y-136243634D01*
X85988215Y-136346406D01*
X85988215Y-136346408D01*
X85985300Y-136371531D01*
X84077331Y-136371531D01*
X84081959Y-136348266D01*
X84082855Y-136343762D01*
X84082855Y-136343761D01*
X84100899Y-136253046D01*
X84100900Y-136253044D01*
X84100900Y-136095355D01*
X84100899Y-136095353D01*
X84089700Y-136039053D01*
X84070137Y-135940703D01*
X84026644Y-135835701D01*
X84009797Y-135795027D01*
X84009790Y-135795014D01*
X83922189Y-135663911D01*
X83922186Y-135663907D01*
X83810692Y-135552413D01*
X83810688Y-135552410D01*
X83679585Y-135464809D01*
X83679572Y-135464802D01*
X83533901Y-135404464D01*
X83533889Y-135404461D01*
X83379245Y-135373700D01*
X83379242Y-135373700D01*
X83221558Y-135373700D01*
X83221555Y-135373700D01*
X83066910Y-135404461D01*
X83066898Y-135404464D01*
X82921227Y-135464802D01*
X82921214Y-135464809D01*
X82790111Y-135552410D01*
X82790107Y-135552413D01*
X82678613Y-135663907D01*
X82678610Y-135663911D01*
X82591009Y-135795014D01*
X82591002Y-135795027D01*
X82530664Y-135940698D01*
X82530661Y-135940710D01*
X82499900Y-136095353D01*
X72502925Y-136095353D01*
X72813988Y-135784290D01*
X72813989Y-135784289D01*
X72901594Y-135653179D01*
X72961937Y-135507497D01*
X72985366Y-135389715D01*
X72992700Y-135352843D01*
X72992700Y-135195158D01*
X72992700Y-133064377D01*
X73012385Y-132997338D01*
X73065189Y-132951583D01*
X73134347Y-132941639D01*
X73191012Y-132965111D01*
X73250110Y-133009352D01*
X73250113Y-133009354D01*
X73384820Y-133059596D01*
X73384827Y-133059598D01*
X73444355Y-133065999D01*
X73444372Y-133066000D01*
X74092200Y-133066000D01*
X74092200Y-132149012D01*
X74149207Y-132181925D01*
X74276374Y-132216000D01*
X74408026Y-132216000D01*
X74535193Y-132181925D01*
X74592200Y-132149012D01*
X74592200Y-133066000D01*
X75240028Y-133066000D01*
X75240044Y-133065999D01*
X75299572Y-133059598D01*
X75299579Y-133059596D01*
X75434286Y-133009354D01*
X75434293Y-133009350D01*
X75549387Y-132923190D01*
X75549390Y-132923187D01*
X75635550Y-132808093D01*
X75635554Y-132808086D01*
X75685796Y-132673379D01*
X75685798Y-132673372D01*
X75692199Y-132613844D01*
X75692200Y-132613827D01*
X75692200Y-131966000D01*
X74775212Y-131966000D01*
X74808125Y-131908993D01*
X74842200Y-131781826D01*
X74842200Y-131650174D01*
X74808125Y-131523007D01*
X74775212Y-131466000D01*
X75692200Y-131466000D01*
X75692200Y-130818172D01*
X75692199Y-130818155D01*
X75685798Y-130758627D01*
X75685796Y-130758620D01*
X75635554Y-130623913D01*
X75635552Y-130623910D01*
X75560351Y-130523455D01*
X75560350Y-130523454D01*
X75549386Y-130508808D01*
X75485033Y-130460633D01*
X78587481Y-130460633D01*
X78587481Y-130572979D01*
X78628065Y-130677739D01*
X78628066Y-130677740D01*
X78643765Y-130697560D01*
X78643775Y-130697571D01*
X80121424Y-132175220D01*
X80121428Y-132175223D01*
X80121433Y-132175228D01*
X80141261Y-132190935D01*
X80246021Y-132231519D01*
X80246022Y-132231519D01*
X80358364Y-132231519D01*
X80358367Y-132231519D01*
X80463127Y-132190935D01*
X80482955Y-132175229D01*
X81960616Y-130697567D01*
X81976323Y-130677739D01*
X82016907Y-130572979D01*
X82016907Y-130460633D01*
X81976323Y-130355873D01*
X81960617Y-130336045D01*
X81242208Y-129617636D01*
X80482963Y-128858391D01*
X80482958Y-128858387D01*
X80482955Y-128858384D01*
X80463127Y-128842677D01*
X80358367Y-128802093D01*
X80246021Y-128802093D01*
X80141261Y-128842677D01*
X80141260Y-128842677D01*
X80141259Y-128842678D01*
X80121439Y-128858377D01*
X80121428Y-128858387D01*
X78643779Y-130336036D01*
X78643772Y-130336045D01*
X78628065Y-130355873D01*
X78587481Y-130460633D01*
X75485033Y-130460633D01*
X75434293Y-130422649D01*
X75434286Y-130422645D01*
X75299579Y-130372403D01*
X75299572Y-130372401D01*
X75240044Y-130366000D01*
X75043287Y-130366000D01*
X74976248Y-130346315D01*
X74930493Y-130293511D01*
X74920549Y-130224353D01*
X74949574Y-130160797D01*
X74970402Y-130141682D01*
X75091695Y-130053558D01*
X75091697Y-130053555D01*
X75091701Y-130053553D01*
X75219753Y-129925501D01*
X75326196Y-129778994D01*
X75408411Y-129617639D01*
X75464371Y-129445409D01*
X75478965Y-129353259D01*
X75492700Y-129266551D01*
X75492700Y-129085448D01*
X75468808Y-128934608D01*
X75464371Y-128906591D01*
X75408411Y-128734361D01*
X75408411Y-128734360D01*
X75379940Y-128678484D01*
X75326196Y-128573006D01*
X75252645Y-128471771D01*
X75219758Y-128426505D01*
X75219754Y-128426500D01*
X75091699Y-128298445D01*
X75091694Y-128298441D01*
X74945197Y-128192006D01*
X74945196Y-128192005D01*
X74945194Y-128192004D01*
X74893500Y-128165664D01*
X74783839Y-128109788D01*
X74783836Y-128109787D01*
X74611610Y-128053829D01*
X74451521Y-128028473D01*
X74388386Y-127998544D01*
X74351455Y-127939232D01*
X74352453Y-127869370D01*
X74391063Y-127811137D01*
X74451521Y-127783527D01*
X74521625Y-127772422D01*
X74611609Y-127758171D01*
X74783839Y-127702211D01*
X74945194Y-127619996D01*
X75091701Y-127513553D01*
X75219753Y-127385501D01*
X75326196Y-127238994D01*
X75408411Y-127077639D01*
X75464371Y-126905409D01*
X75489523Y-126746606D01*
X75492700Y-126726551D01*
X75492700Y-126545448D01*
X75476219Y-126441397D01*
X75464371Y-126366591D01*
X75408411Y-126194361D01*
X75408411Y-126194360D01*
X75378043Y-126134760D01*
X75326196Y-126033006D01*
X75252645Y-125931771D01*
X75219758Y-125886505D01*
X75219754Y-125886500D01*
X75091699Y-125758445D01*
X75091694Y-125758441D01*
X74945197Y-125652006D01*
X74945196Y-125652005D01*
X74945194Y-125652004D01*
X74893500Y-125625664D01*
X74783839Y-125569788D01*
X74783836Y-125569787D01*
X74611610Y-125513829D01*
X74451521Y-125488473D01*
X74388386Y-125458544D01*
X74351455Y-125399232D01*
X74352453Y-125329370D01*
X74391063Y-125271137D01*
X74451521Y-125243527D01*
X74521625Y-125232422D01*
X74611609Y-125218171D01*
X74783839Y-125162211D01*
X74945194Y-125079996D01*
X74999636Y-125040442D01*
X84375706Y-125040442D01*
X84375706Y-125245146D01*
X84376671Y-125251236D01*
X84407728Y-125447328D01*
X84470987Y-125642017D01*
X84563921Y-125824407D01*
X84684234Y-125990007D01*
X84828992Y-126134765D01*
X84956536Y-126227429D01*
X84994596Y-126255081D01*
X85110813Y-126314297D01*
X85176982Y-126348012D01*
X85176984Y-126348012D01*
X85176987Y-126348014D01*
X85273346Y-126379323D01*
X85371671Y-126411271D01*
X85472763Y-126427282D01*
X85573854Y-126443294D01*
X85573855Y-126443294D01*
X85778557Y-126443294D01*
X85778558Y-126443294D01*
X85980740Y-126411271D01*
X86175425Y-126348014D01*
X86357816Y-126255081D01*
X86471970Y-126172144D01*
X86523419Y-126134765D01*
X86523421Y-126134762D01*
X86523425Y-126134760D01*
X86668172Y-125990013D01*
X86668174Y-125990009D01*
X86668177Y-125990007D01*
X86743378Y-125886500D01*
X86788493Y-125824404D01*
X86881426Y-125642013D01*
X86944683Y-125447328D01*
X86976706Y-125245146D01*
X86976706Y-125040442D01*
X86958101Y-124922976D01*
X86944683Y-124838259D01*
X86881424Y-124643570D01*
X86828748Y-124540189D01*
X86788493Y-124461184D01*
X86744327Y-124400394D01*
X86668177Y-124295580D01*
X86523419Y-124150822D01*
X86357819Y-124030509D01*
X86357818Y-124030508D01*
X86357816Y-124030507D01*
X86300859Y-124001485D01*
X86175429Y-123937575D01*
X85980740Y-123874316D01*
X85806201Y-123846672D01*
X85778558Y-123842294D01*
X85573854Y-123842294D01*
X85549535Y-123846145D01*
X85371671Y-123874316D01*
X85176982Y-123937575D01*
X84994592Y-124030509D01*
X84828992Y-124150822D01*
X84684234Y-124295580D01*
X84563921Y-124461180D01*
X84470987Y-124643570D01*
X84407728Y-124838259D01*
X84375706Y-125040442D01*
X74999636Y-125040442D01*
X75091701Y-124973553D01*
X75219753Y-124845501D01*
X75326196Y-124698994D01*
X75408411Y-124537639D01*
X75464371Y-124365409D01*
X75489523Y-124206606D01*
X75492700Y-124186551D01*
X75492700Y-124005448D01*
X75466858Y-123842294D01*
X75464371Y-123826591D01*
X75408411Y-123654361D01*
X75408411Y-123654360D01*
X75369785Y-123578554D01*
X75326196Y-123493006D01*
X75252645Y-123391771D01*
X75219758Y-123346505D01*
X75219754Y-123346500D01*
X75091699Y-123218445D01*
X75091694Y-123218441D01*
X74945197Y-123112006D01*
X74945196Y-123112005D01*
X74945194Y-123112004D01*
X74893500Y-123085664D01*
X74783839Y-123029788D01*
X74783836Y-123029787D01*
X74611610Y-122973829D01*
X74432751Y-122945500D01*
X74432746Y-122945500D01*
X74251654Y-122945500D01*
X74251649Y-122945500D01*
X74072789Y-122973829D01*
X73900563Y-123029787D01*
X73900560Y-123029788D01*
X73739202Y-123112006D01*
X73592705Y-123218441D01*
X73592700Y-123218445D01*
X73464645Y-123346500D01*
X73464641Y-123346505D01*
X73358206Y-123493002D01*
X73275988Y-123654360D01*
X73275987Y-123654363D01*
X73234631Y-123781648D01*
X73195194Y-123839323D01*
X73130835Y-123866522D01*
X73061989Y-123854608D01*
X73010513Y-123807364D01*
X72992700Y-123743330D01*
X72992700Y-121034300D01*
X73012385Y-120967261D01*
X73065189Y-120921506D01*
X73116700Y-120910300D01*
X86399284Y-120910300D01*
X86446736Y-120919739D01*
X86551106Y-120962970D01*
X86591103Y-120979537D01*
X86712538Y-121003692D01*
X86745753Y-121010299D01*
X86745756Y-121010300D01*
X86745758Y-121010300D01*
X86903444Y-121010300D01*
X86903445Y-121010299D01*
X87058097Y-120979537D01*
X87203779Y-120919194D01*
X87334889Y-120831589D01*
X87446389Y-120720089D01*
X87533994Y-120588979D01*
X87594337Y-120443297D01*
X87625100Y-120288642D01*
X87625100Y-120130958D01*
X87625100Y-120130955D01*
X87625099Y-120130953D01*
X87606954Y-120039735D01*
X87594337Y-119976303D01*
X87594335Y-119976298D01*
X87533997Y-119830627D01*
X87533990Y-119830614D01*
X87446389Y-119699511D01*
X87446386Y-119699507D01*
X87334892Y-119588013D01*
X87334888Y-119588010D01*
X87203785Y-119500409D01*
X87203772Y-119500402D01*
X87058101Y-119440064D01*
X87058089Y-119440061D01*
X86903445Y-119409300D01*
X86903442Y-119409300D01*
X86745758Y-119409300D01*
X86745755Y-119409300D01*
X86591110Y-119440061D01*
X86591098Y-119440064D01*
X86446736Y-119499861D01*
X86399284Y-119509300D01*
X73116700Y-119509300D01*
X73049661Y-119489615D01*
X73003906Y-119436811D01*
X72992700Y-119385300D01*
X72992700Y-100359500D01*
X73012385Y-100292461D01*
X73065189Y-100246706D01*
X73116700Y-100235500D01*
X73575192Y-100235500D01*
X73642231Y-100255185D01*
X73662873Y-100271819D01*
X74207781Y-100816727D01*
X74241266Y-100878050D01*
X74244100Y-100904408D01*
X74244100Y-101072551D01*
X74272429Y-101251410D01*
X74328387Y-101423636D01*
X74328388Y-101423639D01*
X74410606Y-101584997D01*
X74517041Y-101731494D01*
X74517045Y-101731499D01*
X74645100Y-101859554D01*
X74645105Y-101859558D01*
X74705467Y-101903413D01*
X74791606Y-101965996D01*
X74855326Y-101998463D01*
X74952960Y-102048211D01*
X74952963Y-102048212D01*
X75030557Y-102073423D01*
X75125191Y-102104171D01*
X75198239Y-102115740D01*
X75285278Y-102129527D01*
X75348413Y-102159456D01*
X75385344Y-102218768D01*
X75384346Y-102288631D01*
X75345736Y-102346863D01*
X75285278Y-102374473D01*
X75125189Y-102399829D01*
X74952963Y-102455787D01*
X74952960Y-102455788D01*
X74791602Y-102538006D01*
X74645105Y-102644441D01*
X74645100Y-102644445D01*
X74517045Y-102772500D01*
X74517041Y-102772505D01*
X74410606Y-102919002D01*
X74328388Y-103080360D01*
X74328387Y-103080363D01*
X74272429Y-103252589D01*
X74244100Y-103431448D01*
X74244100Y-103612551D01*
X74272429Y-103791410D01*
X74328387Y-103963636D01*
X74328388Y-103963639D01*
X74410606Y-104124997D01*
X74517041Y-104271494D01*
X74517045Y-104271499D01*
X74645100Y-104399554D01*
X74645105Y-104399558D01*
X74705467Y-104443413D01*
X74791606Y-104505996D01*
X74860678Y-104541190D01*
X74923284Y-104573090D01*
X74974080Y-104621065D01*
X74990875Y-104688886D01*
X74968337Y-104755021D01*
X74913622Y-104798472D01*
X74905308Y-104801506D01*
X74876381Y-104810905D01*
X74687039Y-104907380D01*
X74632882Y-104946727D01*
X74632882Y-104946728D01*
X75265191Y-105579037D01*
X75201607Y-105596075D01*
X75087593Y-105661901D01*
X74994501Y-105754993D01*
X74928675Y-105869007D01*
X74911637Y-105932591D01*
X74279328Y-105300282D01*
X74279327Y-105300282D01*
X74239980Y-105354439D01*
X74143504Y-105543782D01*
X74077842Y-105745869D01*
X74077842Y-105745872D01*
X74044600Y-105955753D01*
X74044600Y-106168246D01*
X74077842Y-106378127D01*
X74077842Y-106378130D01*
X74143504Y-106580217D01*
X74239975Y-106769550D01*
X74279328Y-106823716D01*
X74911637Y-106191408D01*
X74928675Y-106254993D01*
X74994501Y-106369007D01*
X75087593Y-106462099D01*
X75201607Y-106527925D01*
X75265190Y-106544962D01*
X74632882Y-107177269D01*
X74632882Y-107177270D01*
X74687049Y-107216624D01*
X74876380Y-107313094D01*
X74905305Y-107322492D01*
X74962981Y-107361929D01*
X74990180Y-107426287D01*
X74978267Y-107495134D01*
X74931024Y-107546610D01*
X74923285Y-107550908D01*
X74791604Y-107618004D01*
X74645105Y-107724441D01*
X74645100Y-107724445D01*
X74517045Y-107852500D01*
X74517041Y-107852505D01*
X74410606Y-107999002D01*
X74328388Y-108160360D01*
X74328387Y-108160363D01*
X74272429Y-108332589D01*
X74244100Y-108511448D01*
X74244100Y-108692551D01*
X74272429Y-108871410D01*
X74328387Y-109043636D01*
X74328388Y-109043639D01*
X74410606Y-109204997D01*
X74517041Y-109351494D01*
X74517045Y-109351499D01*
X74645100Y-109479554D01*
X74645105Y-109479558D01*
X74705467Y-109523413D01*
X74791606Y-109585996D01*
X74855326Y-109618463D01*
X74952960Y-109668211D01*
X74952963Y-109668212D01*
X75039076Y-109696191D01*
X75125191Y-109724171D01*
X75198239Y-109735740D01*
X75285278Y-109749527D01*
X75348413Y-109779456D01*
X75385344Y-109838768D01*
X75384346Y-109908631D01*
X75345736Y-109966863D01*
X75285278Y-109994473D01*
X75125189Y-110019829D01*
X74952963Y-110075787D01*
X74952960Y-110075788D01*
X74791602Y-110158006D01*
X74645105Y-110264441D01*
X74645100Y-110264445D01*
X74517045Y-110392500D01*
X74517041Y-110392505D01*
X74410606Y-110539002D01*
X74328388Y-110700360D01*
X74328387Y-110700363D01*
X74272429Y-110872589D01*
X74244100Y-111051448D01*
X74244100Y-111232551D01*
X74272429Y-111411410D01*
X74328387Y-111583636D01*
X74328388Y-111583639D01*
X74410606Y-111744997D01*
X74517041Y-111891494D01*
X74517045Y-111891499D01*
X74645100Y-112019554D01*
X74645105Y-112019558D01*
X74754925Y-112099346D01*
X74791606Y-112125996D01*
X74855326Y-112158463D01*
X74952960Y-112208211D01*
X74952963Y-112208212D01*
X75039076Y-112236191D01*
X75125191Y-112264171D01*
X75198239Y-112275740D01*
X75285278Y-112289527D01*
X75348413Y-112319456D01*
X75385344Y-112378768D01*
X75384346Y-112448631D01*
X75345736Y-112506863D01*
X75285278Y-112534473D01*
X75125189Y-112559829D01*
X74952963Y-112615787D01*
X74952960Y-112615788D01*
X74791602Y-112698006D01*
X74645105Y-112804441D01*
X74645100Y-112804445D01*
X74517045Y-112932500D01*
X74517041Y-112932505D01*
X74410606Y-113079002D01*
X74328388Y-113240360D01*
X74328387Y-113240363D01*
X74272429Y-113412589D01*
X74244100Y-113591448D01*
X74244100Y-113772551D01*
X74272429Y-113951410D01*
X74328387Y-114123636D01*
X74328388Y-114123639D01*
X74410606Y-114284997D01*
X74517041Y-114431494D01*
X74517045Y-114431499D01*
X74645100Y-114559554D01*
X74645105Y-114559558D01*
X74705467Y-114603413D01*
X74791606Y-114665996D01*
X74855326Y-114698463D01*
X74952960Y-114748211D01*
X74952963Y-114748212D01*
X75039076Y-114776191D01*
X75125191Y-114804171D01*
X75198239Y-114815740D01*
X75285278Y-114829527D01*
X75348413Y-114859456D01*
X75385344Y-114918768D01*
X75384346Y-114988631D01*
X75345736Y-115046863D01*
X75285278Y-115074473D01*
X75125189Y-115099829D01*
X74952963Y-115155787D01*
X74952960Y-115155788D01*
X74791602Y-115238006D01*
X74645105Y-115344441D01*
X74645100Y-115344445D01*
X74517045Y-115472500D01*
X74517041Y-115472505D01*
X74410606Y-115619002D01*
X74328388Y-115780360D01*
X74328387Y-115780363D01*
X74272429Y-115952589D01*
X74244100Y-116131448D01*
X74244100Y-116312551D01*
X74272429Y-116491410D01*
X74328387Y-116663636D01*
X74328388Y-116663639D01*
X74410606Y-116824997D01*
X74517041Y-116971494D01*
X74517045Y-116971499D01*
X74645100Y-117099554D01*
X74645105Y-117099558D01*
X74705467Y-117143413D01*
X74791606Y-117205996D01*
X74855326Y-117238463D01*
X74952960Y-117288211D01*
X74952963Y-117288212D01*
X75039076Y-117316191D01*
X75125191Y-117344171D01*
X75208029Y-117357291D01*
X75304049Y-117372500D01*
X75304054Y-117372500D01*
X75485151Y-117372500D01*
X75571859Y-117358765D01*
X75664009Y-117344171D01*
X75836239Y-117288211D01*
X75997594Y-117205996D01*
X76144101Y-117099553D01*
X76272153Y-116971501D01*
X76378596Y-116824994D01*
X76460811Y-116663639D01*
X76516771Y-116491409D01*
X76531026Y-116401406D01*
X76537627Y-116359733D01*
X76567556Y-116296598D01*
X76626868Y-116259667D01*
X76696731Y-116260665D01*
X76754963Y-116299275D01*
X76783077Y-116363239D01*
X76784100Y-116379131D01*
X76784100Y-116865102D01*
X76789726Y-116911954D01*
X76794722Y-116953561D01*
X76794722Y-116953563D01*
X76794723Y-116953564D01*
X76812322Y-116998192D01*
X76850239Y-117094343D01*
X76941677Y-117214922D01*
X77062256Y-117306360D01*
X77062257Y-117306360D01*
X77062258Y-117306361D01*
X77203036Y-117361877D01*
X77291498Y-117372500D01*
X77291503Y-117372500D01*
X78577697Y-117372500D01*
X78577702Y-117372500D01*
X78666164Y-117361877D01*
X78806942Y-117306361D01*
X78927522Y-117214922D01*
X79018961Y-117094342D01*
X79074477Y-116953564D01*
X79085100Y-116865102D01*
X79085100Y-115578898D01*
X79074477Y-115490436D01*
X79018961Y-115349658D01*
X79018960Y-115349657D01*
X79018960Y-115349656D01*
X78927522Y-115229077D01*
X78806943Y-115137639D01*
X78666161Y-115082122D01*
X78620526Y-115076642D01*
X78577702Y-115071500D01*
X78091731Y-115071500D01*
X78024692Y-115051815D01*
X77978937Y-114999011D01*
X77968993Y-114929853D01*
X77998018Y-114866297D01*
X78056796Y-114828523D01*
X78072333Y-114825027D01*
X78130008Y-114815891D01*
X78204009Y-114804171D01*
X78376239Y-114748211D01*
X78537594Y-114665996D01*
X78684101Y-114559553D01*
X78812153Y-114431501D01*
X78918596Y-114284994D01*
X79000811Y-114123639D01*
X79056771Y-113951409D01*
X79056910Y-113950531D01*
X81711700Y-113950531D01*
X81711700Y-115740256D01*
X81711702Y-115740282D01*
X81714613Y-115765387D01*
X81714615Y-115765391D01*
X81759993Y-115868164D01*
X81759994Y-115868165D01*
X81839435Y-115947606D01*
X81942209Y-115992985D01*
X81967335Y-115995900D01*
X82705073Y-115995899D01*
X82772110Y-116015583D01*
X82817865Y-116068387D01*
X82827809Y-116137546D01*
X82798784Y-116201102D01*
X82740006Y-116238876D01*
X82724470Y-116242372D01*
X82592789Y-116263229D01*
X82420563Y-116319187D01*
X82420560Y-116319188D01*
X82259202Y-116401406D01*
X82112705Y-116507841D01*
X82112700Y-116507845D01*
X81984645Y-116635900D01*
X81984641Y-116635905D01*
X81878206Y-116782402D01*
X81795988Y-116943760D01*
X81795987Y-116943763D01*
X81740029Y-117115989D01*
X81711700Y-117294848D01*
X81711700Y-117475951D01*
X81740029Y-117654810D01*
X81795987Y-117827036D01*
X81795988Y-117827039D01*
X81878206Y-117988397D01*
X81984641Y-118134894D01*
X81984645Y-118134899D01*
X82112700Y-118262954D01*
X82112705Y-118262958D01*
X82214791Y-118337127D01*
X82259206Y-118369396D01*
X82364350Y-118422970D01*
X82420560Y-118451611D01*
X82420563Y-118451612D01*
X82506676Y-118479591D01*
X82592791Y-118507571D01*
X82675629Y-118520691D01*
X82771649Y-118535900D01*
X82771654Y-118535900D01*
X82952751Y-118535900D01*
X83039459Y-118522165D01*
X83131609Y-118507571D01*
X83303839Y-118451611D01*
X83465194Y-118369396D01*
X83611701Y-118262953D01*
X83739753Y-118134901D01*
X83846196Y-117988394D01*
X83928411Y-117827039D01*
X83984371Y-117654809D01*
X83998965Y-117562659D01*
X84012700Y-117475951D01*
X84012700Y-117294848D01*
X83988290Y-117140736D01*
X83984371Y-117115991D01*
X83937424Y-116971501D01*
X83928412Y-116943763D01*
X83928411Y-116943760D01*
X83867897Y-116824997D01*
X83846196Y-116782406D01*
X83821170Y-116747960D01*
X83739758Y-116635905D01*
X83739754Y-116635900D01*
X83611699Y-116507845D01*
X83611694Y-116507841D01*
X83465197Y-116401406D01*
X83465196Y-116401405D01*
X83465194Y-116401404D01*
X83413500Y-116375064D01*
X83303839Y-116319188D01*
X83303836Y-116319187D01*
X83131610Y-116263229D01*
X82999928Y-116242372D01*
X82936794Y-116212442D01*
X82899863Y-116153131D01*
X82900861Y-116083268D01*
X82939471Y-116025036D01*
X83003435Y-115996922D01*
X83019320Y-115995899D01*
X83757064Y-115995899D01*
X83757079Y-115995897D01*
X83757082Y-115995897D01*
X83782187Y-115992986D01*
X83782188Y-115992985D01*
X83782191Y-115992985D01*
X83884965Y-115947606D01*
X83964406Y-115868165D01*
X84009785Y-115765391D01*
X84012700Y-115740265D01*
X84012699Y-113950536D01*
X84012697Y-113950517D01*
X84009786Y-113925412D01*
X84009785Y-113925410D01*
X84009785Y-113925409D01*
X83964406Y-113822635D01*
X83884965Y-113743194D01*
X83850975Y-113728186D01*
X83782192Y-113697815D01*
X83757065Y-113694900D01*
X81967343Y-113694900D01*
X81967317Y-113694902D01*
X81942212Y-113697813D01*
X81942208Y-113697815D01*
X81839435Y-113743193D01*
X81759994Y-113822634D01*
X81714615Y-113925406D01*
X81714615Y-113925408D01*
X81711700Y-113950531D01*
X79056910Y-113950531D01*
X79060889Y-113925408D01*
X79085100Y-113772551D01*
X79085100Y-113591448D01*
X79068619Y-113487397D01*
X79056771Y-113412591D01*
X79015983Y-113287056D01*
X79000812Y-113240363D01*
X79000811Y-113240360D01*
X78942460Y-113125842D01*
X78918596Y-113079006D01*
X78851862Y-112987154D01*
X78812158Y-112932505D01*
X78812154Y-112932500D01*
X78684099Y-112804445D01*
X78684094Y-112804441D01*
X78537597Y-112698006D01*
X78537596Y-112698005D01*
X78537594Y-112698004D01*
X78477937Y-112667607D01*
X78376239Y-112615788D01*
X78376236Y-112615787D01*
X78204010Y-112559829D01*
X78043921Y-112534473D01*
X77980786Y-112504544D01*
X77943855Y-112445232D01*
X77944853Y-112375370D01*
X77983463Y-112317137D01*
X78043921Y-112289527D01*
X78114025Y-112278422D01*
X78204009Y-112264171D01*
X78376239Y-112208211D01*
X78537594Y-112125996D01*
X78684101Y-112019553D01*
X78802511Y-111901143D01*
X85309700Y-111901143D01*
X85309700Y-112059257D01*
X85349613Y-112208212D01*
X85350623Y-112211983D01*
X85350626Y-112211990D01*
X85429675Y-112348909D01*
X85429679Y-112348914D01*
X85429680Y-112348916D01*
X85541484Y-112460720D01*
X85541486Y-112460721D01*
X85541490Y-112460724D01*
X85673105Y-112536711D01*
X85678416Y-112539777D01*
X85831143Y-112580700D01*
X85831145Y-112580700D01*
X85989255Y-112580700D01*
X85989257Y-112580700D01*
X86141984Y-112539777D01*
X86278916Y-112460720D01*
X86390720Y-112348916D01*
X86469777Y-112211984D01*
X86510700Y-112059257D01*
X86510700Y-111901143D01*
X86469777Y-111748416D01*
X86423326Y-111667960D01*
X86390724Y-111611490D01*
X86390718Y-111611482D01*
X86278917Y-111499681D01*
X86278909Y-111499675D01*
X86141990Y-111420626D01*
X86141986Y-111420624D01*
X86141984Y-111420623D01*
X85989257Y-111379700D01*
X85831143Y-111379700D01*
X85678416Y-111420623D01*
X85678409Y-111420626D01*
X85541490Y-111499675D01*
X85541482Y-111499681D01*
X85429681Y-111611482D01*
X85429675Y-111611490D01*
X85350626Y-111748409D01*
X85350623Y-111748416D01*
X85309700Y-111901143D01*
X78802511Y-111901143D01*
X78812153Y-111891501D01*
X78849432Y-111840191D01*
X78864007Y-111820131D01*
X78893090Y-111780099D01*
X78918596Y-111744994D01*
X79000811Y-111583639D01*
X79056771Y-111411409D01*
X79071365Y-111319259D01*
X79085100Y-111232551D01*
X79085100Y-111051448D01*
X79068619Y-110947397D01*
X79056771Y-110872591D01*
X79015983Y-110747056D01*
X79000812Y-110700363D01*
X79000811Y-110700360D01*
X78967921Y-110635811D01*
X78918596Y-110539006D01*
X78851862Y-110447154D01*
X78812158Y-110392505D01*
X78812154Y-110392500D01*
X78684099Y-110264445D01*
X78684094Y-110264441D01*
X78537597Y-110158006D01*
X78537596Y-110158005D01*
X78537594Y-110158004D01*
X78485900Y-110131664D01*
X78376239Y-110075788D01*
X78376236Y-110075787D01*
X78204010Y-110019829D01*
X78043921Y-109994473D01*
X77980786Y-109964544D01*
X77943855Y-109905232D01*
X77944853Y-109835370D01*
X77983463Y-109777137D01*
X78043921Y-109749527D01*
X78114025Y-109738422D01*
X78204009Y-109724171D01*
X78376239Y-109668211D01*
X78537594Y-109585996D01*
X78684101Y-109479553D01*
X78812153Y-109351501D01*
X78918596Y-109204994D01*
X79000811Y-109043639D01*
X79056771Y-108871409D01*
X79071365Y-108779259D01*
X79085100Y-108692551D01*
X79085100Y-108511448D01*
X79068619Y-108407397D01*
X79056771Y-108332591D01*
X79015983Y-108207056D01*
X79000812Y-108160363D01*
X79000811Y-108160360D01*
X78967921Y-108095811D01*
X78918596Y-107999006D01*
X78851862Y-107907154D01*
X78812158Y-107852505D01*
X78812154Y-107852500D01*
X78684099Y-107724445D01*
X78684094Y-107724441D01*
X78537597Y-107618006D01*
X78537596Y-107618005D01*
X78537594Y-107618004D01*
X78485900Y-107591664D01*
X78376239Y-107535788D01*
X78376236Y-107535787D01*
X78204010Y-107479829D01*
X78043921Y-107454473D01*
X77980786Y-107424544D01*
X77943855Y-107365232D01*
X77944853Y-107295370D01*
X77983463Y-107237137D01*
X78043921Y-107209527D01*
X78114025Y-107198422D01*
X78204009Y-107184171D01*
X78376239Y-107128211D01*
X78537594Y-107045996D01*
X78684101Y-106939553D01*
X78812153Y-106811501D01*
X78918596Y-106664994D01*
X79000811Y-106503639D01*
X79056771Y-106331409D01*
X79071365Y-106239259D01*
X79085100Y-106152551D01*
X79085100Y-105971448D01*
X79068619Y-105867397D01*
X79056771Y-105792591D01*
X79015983Y-105667056D01*
X79000812Y-105620363D01*
X79000811Y-105620360D01*
X78961791Y-105543780D01*
X78918596Y-105459006D01*
X78851862Y-105367154D01*
X78812158Y-105312505D01*
X78812154Y-105312500D01*
X78684099Y-105184445D01*
X78684094Y-105184441D01*
X78537597Y-105078006D01*
X78537596Y-105078005D01*
X78537594Y-105078004D01*
X78485900Y-105051664D01*
X78376239Y-104995788D01*
X78376236Y-104995787D01*
X78204010Y-104939829D01*
X78043921Y-104914473D01*
X77980786Y-104884544D01*
X77943855Y-104825232D01*
X77944853Y-104755370D01*
X77983463Y-104697137D01*
X78043921Y-104669527D01*
X78114025Y-104658422D01*
X78204009Y-104644171D01*
X78376239Y-104588211D01*
X78537594Y-104505996D01*
X78684101Y-104399553D01*
X78812153Y-104271501D01*
X78821038Y-104259270D01*
X78842055Y-104230343D01*
X81194900Y-104230343D01*
X81194900Y-104388457D01*
X81228287Y-104513057D01*
X81235823Y-104541183D01*
X81235826Y-104541190D01*
X81314875Y-104678109D01*
X81314879Y-104678114D01*
X81314880Y-104678116D01*
X81426684Y-104789920D01*
X81426686Y-104789921D01*
X81426690Y-104789924D01*
X81493734Y-104828631D01*
X81563616Y-104868977D01*
X81716343Y-104909900D01*
X81716345Y-104909900D01*
X81874455Y-104909900D01*
X81874457Y-104909900D01*
X82027184Y-104868977D01*
X82164116Y-104789920D01*
X82275920Y-104678116D01*
X82354977Y-104541184D01*
X82395900Y-104388457D01*
X82395900Y-104230343D01*
X82354977Y-104077616D01*
X82289173Y-103963639D01*
X82275924Y-103940690D01*
X82275918Y-103940682D01*
X82164117Y-103828881D01*
X82164109Y-103828875D01*
X82027190Y-103749826D01*
X82027186Y-103749824D01*
X82027184Y-103749823D01*
X81874457Y-103708900D01*
X81716343Y-103708900D01*
X81563616Y-103749823D01*
X81563609Y-103749826D01*
X81426690Y-103828875D01*
X81426682Y-103828881D01*
X81314881Y-103940682D01*
X81314875Y-103940690D01*
X81235826Y-104077609D01*
X81235823Y-104077616D01*
X81194900Y-104230343D01*
X78842055Y-104230343D01*
X78900915Y-104149331D01*
X78909482Y-104137537D01*
X78918596Y-104124994D01*
X79000811Y-103963639D01*
X79056771Y-103791409D01*
X79071365Y-103699259D01*
X79085100Y-103612551D01*
X79085100Y-103431448D01*
X79068619Y-103327397D01*
X79056771Y-103252591D01*
X79015983Y-103127056D01*
X79000812Y-103080363D01*
X79000811Y-103080360D01*
X78967921Y-103015811D01*
X78918596Y-102919006D01*
X78851862Y-102827154D01*
X78812158Y-102772505D01*
X78812154Y-102772500D01*
X78684097Y-102644443D01*
X78559533Y-102553943D01*
X80051900Y-102553943D01*
X80051900Y-102712057D01*
X80068096Y-102772499D01*
X80092823Y-102864783D01*
X80092826Y-102864790D01*
X80171875Y-103001709D01*
X80171879Y-103001714D01*
X80171880Y-103001716D01*
X80283684Y-103113520D01*
X80283686Y-103113521D01*
X80283690Y-103113524D01*
X80420609Y-103192573D01*
X80420616Y-103192577D01*
X80573343Y-103233500D01*
X80573345Y-103233500D01*
X80731455Y-103233500D01*
X80731457Y-103233500D01*
X80884184Y-103192577D01*
X81021116Y-103113520D01*
X81132920Y-103001716D01*
X81211977Y-102864784D01*
X81252900Y-102712057D01*
X81252900Y-102553943D01*
X81211977Y-102401216D01*
X81146977Y-102288631D01*
X81132924Y-102264290D01*
X81132918Y-102264282D01*
X81021117Y-102152481D01*
X81021109Y-102152475D01*
X80884190Y-102073426D01*
X80884186Y-102073424D01*
X80884184Y-102073423D01*
X80731457Y-102032500D01*
X80573343Y-102032500D01*
X80420616Y-102073423D01*
X80420609Y-102073426D01*
X80283690Y-102152475D01*
X80283682Y-102152481D01*
X80171881Y-102264282D01*
X80171875Y-102264290D01*
X80092826Y-102401209D01*
X80092823Y-102401216D01*
X80051900Y-102553943D01*
X78559533Y-102553943D01*
X78537597Y-102538006D01*
X78537596Y-102538005D01*
X78537594Y-102538004D01*
X78485900Y-102511664D01*
X78376239Y-102455788D01*
X78376236Y-102455787D01*
X78204010Y-102399829D01*
X78043921Y-102374473D01*
X77980786Y-102344544D01*
X77943855Y-102285232D01*
X77944853Y-102215370D01*
X77983463Y-102157137D01*
X78043921Y-102129527D01*
X78114025Y-102118422D01*
X78204009Y-102104171D01*
X78376239Y-102048211D01*
X78537594Y-101965996D01*
X78684101Y-101859553D01*
X78812153Y-101731501D01*
X78918596Y-101584994D01*
X79000811Y-101423639D01*
X79056771Y-101251409D01*
X79071365Y-101159259D01*
X79085100Y-101072551D01*
X79085100Y-100891448D01*
X79068619Y-100787397D01*
X79056771Y-100712591D01*
X79015983Y-100587056D01*
X79000812Y-100540363D01*
X79000811Y-100540360D01*
X78967921Y-100475811D01*
X78918596Y-100379006D01*
X78851862Y-100287154D01*
X78812158Y-100232505D01*
X78812154Y-100232500D01*
X78684099Y-100104445D01*
X78684094Y-100104441D01*
X78537597Y-99998006D01*
X78537596Y-99998005D01*
X78537594Y-99998004D01*
X78485900Y-99971664D01*
X78376239Y-99915788D01*
X78376236Y-99915787D01*
X78204010Y-99859829D01*
X78025151Y-99831500D01*
X78025146Y-99831500D01*
X77844054Y-99831500D01*
X77844049Y-99831500D01*
X77665189Y-99859829D01*
X77492963Y-99915787D01*
X77492960Y-99915788D01*
X77331602Y-99998006D01*
X77185105Y-100104441D01*
X77185100Y-100104445D01*
X77057045Y-100232500D01*
X77057041Y-100232505D01*
X76950606Y-100379002D01*
X76868388Y-100540360D01*
X76868387Y-100540363D01*
X76812429Y-100712589D01*
X76787073Y-100872678D01*
X76757144Y-100935813D01*
X76697832Y-100972744D01*
X76627969Y-100971746D01*
X76569737Y-100933136D01*
X76542127Y-100872678D01*
X76528340Y-100785639D01*
X76516771Y-100712591D01*
X76475983Y-100587056D01*
X76460812Y-100540363D01*
X76460811Y-100540360D01*
X76427921Y-100475811D01*
X76378596Y-100379006D01*
X76311862Y-100287154D01*
X76272158Y-100232505D01*
X76272154Y-100232500D01*
X76144099Y-100104445D01*
X76144094Y-100104441D01*
X75997597Y-99998006D01*
X75997596Y-99998005D01*
X75997594Y-99998004D01*
X75945900Y-99971664D01*
X75836239Y-99915788D01*
X75836236Y-99915787D01*
X75664010Y-99859829D01*
X75485151Y-99831500D01*
X75485146Y-99831500D01*
X75304054Y-99831500D01*
X75304049Y-99831500D01*
X75157883Y-99854650D01*
X75088589Y-99845695D01*
X75050804Y-99819858D01*
X74310674Y-99079727D01*
X74310673Y-99079726D01*
X74310669Y-99079723D01*
X74204127Y-99008535D01*
X74163481Y-98991699D01*
X74085744Y-98959499D01*
X74085738Y-98959497D01*
X73960071Y-98934500D01*
X73960069Y-98934500D01*
X72697135Y-98934500D01*
X72630096Y-98914815D01*
X72628290Y-98913633D01*
X72571379Y-98875606D01*
X72571372Y-98875602D01*
X72425701Y-98815264D01*
X72425689Y-98815261D01*
X72271045Y-98784500D01*
X72271042Y-98784500D01*
X72113358Y-98784500D01*
X72113355Y-98784500D01*
X71958710Y-98815261D01*
X71958698Y-98815264D01*
X71813027Y-98875602D01*
X71813014Y-98875609D01*
X71681911Y-98963210D01*
X71681907Y-98963213D01*
X71570413Y-99074707D01*
X71570410Y-99074711D01*
X71482809Y-99205814D01*
X71482802Y-99205827D01*
X71422464Y-99351498D01*
X71422461Y-99351510D01*
X71391700Y-99506153D01*
X71391700Y-134891059D01*
X71383055Y-134920496D01*
X71376532Y-134950487D01*
X71372777Y-134955502D01*
X71372015Y-134958098D01*
X71355380Y-134978741D01*
X71304358Y-135029762D01*
X71243035Y-135063246D01*
X71173343Y-135058261D01*
X71128997Y-135029761D01*
X71018717Y-134919481D01*
X71018709Y-134919475D01*
X70881790Y-134840426D01*
X70881786Y-134840424D01*
X70881784Y-134840423D01*
X70729057Y-134799500D01*
X70570943Y-134799500D01*
X70418216Y-134840423D01*
X70418209Y-134840426D01*
X70281290Y-134919475D01*
X70281282Y-134919481D01*
X70169481Y-135031282D01*
X70169475Y-135031290D01*
X70090426Y-135168209D01*
X70090423Y-135168216D01*
X70049500Y-135320943D01*
X70049500Y-135479057D01*
X70061371Y-135523358D01*
X70090423Y-135631783D01*
X70090426Y-135631790D01*
X70169475Y-135768709D01*
X70169481Y-135768717D01*
X70279761Y-135878997D01*
X70313246Y-135940320D01*
X70308262Y-136010012D01*
X70279761Y-136054359D01*
X70019339Y-136314782D01*
X69958019Y-136348266D01*
X69931660Y-136351100D01*
X64349300Y-136351100D01*
X64282261Y-136331415D01*
X64236506Y-136278611D01*
X64225300Y-136227100D01*
X64225300Y-132131670D01*
X65824100Y-132131670D01*
X65824100Y-132387529D01*
X65864126Y-132640240D01*
X65943188Y-132883572D01*
X65943189Y-132883575D01*
X66059350Y-133111550D01*
X66209732Y-133318535D01*
X66209736Y-133318540D01*
X66390659Y-133499463D01*
X66390664Y-133499467D01*
X66571207Y-133630638D01*
X66597653Y-133649852D01*
X66746680Y-133725785D01*
X66825624Y-133766010D01*
X66825627Y-133766011D01*
X66926851Y-133798900D01*
X67068961Y-133845074D01*
X67321670Y-133885100D01*
X67321671Y-133885100D01*
X67577529Y-133885100D01*
X67577530Y-133885100D01*
X67830239Y-133845074D01*
X68073575Y-133766010D01*
X68301547Y-133649852D01*
X68508542Y-133499462D01*
X68689462Y-133318542D01*
X68839852Y-133111547D01*
X68956010Y-132883575D01*
X69035074Y-132640239D01*
X69075100Y-132387530D01*
X69075100Y-132131670D01*
X69035074Y-131878961D01*
X68982125Y-131716000D01*
X68956011Y-131635627D01*
X68956010Y-131635624D01*
X68898628Y-131523007D01*
X68839852Y-131407653D01*
X68773191Y-131315901D01*
X68689467Y-131200664D01*
X68689463Y-131200659D01*
X68508540Y-131019736D01*
X68508535Y-131019732D01*
X68301550Y-130869350D01*
X68301549Y-130869349D01*
X68301547Y-130869348D01*
X68201109Y-130818172D01*
X68073575Y-130753189D01*
X68073572Y-130753188D01*
X67830240Y-130674126D01*
X67703884Y-130654113D01*
X67577530Y-130634100D01*
X67321670Y-130634100D01*
X67237433Y-130647442D01*
X67068959Y-130674126D01*
X66825627Y-130753188D01*
X66825624Y-130753189D01*
X66597649Y-130869350D01*
X66390664Y-131019732D01*
X66390659Y-131019736D01*
X66209736Y-131200659D01*
X66209732Y-131200664D01*
X66059350Y-131407649D01*
X65943189Y-131635624D01*
X65943188Y-131635627D01*
X65864126Y-131878959D01*
X65824100Y-132131670D01*
X64225300Y-132131670D01*
X64225300Y-74131670D01*
X65824100Y-74131670D01*
X65824100Y-74387529D01*
X65864126Y-74640240D01*
X65943188Y-74883572D01*
X65943189Y-74883575D01*
X66059350Y-75111550D01*
X66209732Y-75318535D01*
X66209736Y-75318540D01*
X66390659Y-75499463D01*
X66390664Y-75499467D01*
X66571207Y-75630638D01*
X66597653Y-75649852D01*
X66746680Y-75725785D01*
X66825624Y-75766010D01*
X66825627Y-75766011D01*
X66947293Y-75805542D01*
X67068961Y-75845074D01*
X67321670Y-75885100D01*
X67321671Y-75885100D01*
X67577529Y-75885100D01*
X67577530Y-75885100D01*
X67830239Y-75845074D01*
X68073575Y-75766010D01*
X68301547Y-75649852D01*
X68508542Y-75499462D01*
X68689462Y-75318542D01*
X68839852Y-75111547D01*
X68956010Y-74883575D01*
X69035074Y-74640239D01*
X69075100Y-74387530D01*
X69075100Y-74131670D01*
X69035074Y-73878961D01*
X68956010Y-73635625D01*
X68956010Y-73635624D01*
X68915785Y-73556680D01*
X68839852Y-73407653D01*
X68816815Y-73375945D01*
X68689467Y-73200664D01*
X68689463Y-73200659D01*
X68508540Y-73019736D01*
X68508535Y-73019732D01*
X68301550Y-72869350D01*
X68301549Y-72869349D01*
X68301547Y-72869348D01*
X68205715Y-72820519D01*
X68073575Y-72753189D01*
X68073572Y-72753188D01*
X67830240Y-72674126D01*
X67703884Y-72654113D01*
X67577530Y-72634100D01*
X67321670Y-72634100D01*
X67237433Y-72647442D01*
X67068959Y-72674126D01*
X66825627Y-72753188D01*
X66825624Y-72753189D01*
X66597649Y-72869350D01*
X66390664Y-73019732D01*
X66390659Y-73019736D01*
X66209736Y-73200659D01*
X66209732Y-73200664D01*
X66059350Y-73407649D01*
X65943189Y-73635624D01*
X65943188Y-73635627D01*
X65864126Y-73878959D01*
X65824100Y-74131670D01*
X64225300Y-74131670D01*
X64225300Y-73463626D01*
X64244985Y-73396587D01*
X64261619Y-73375945D01*
X64617832Y-73019732D01*
X65007290Y-72630274D01*
X65069046Y-72545272D01*
X65081672Y-72530490D01*
X65898745Y-71713419D01*
X65960068Y-71679934D01*
X65986426Y-71677100D01*
X68902374Y-71677100D01*
X68969413Y-71696785D01*
X68990055Y-71713419D01*
X69966781Y-72690144D01*
X70000266Y-72751467D01*
X70003100Y-72777825D01*
X70003100Y-77141574D01*
X69983415Y-77208613D01*
X69966781Y-77229255D01*
X69319455Y-77876581D01*
X69258132Y-77910066D01*
X69231774Y-77912900D01*
X68617714Y-77912900D01*
X68431081Y-77942459D01*
X68251363Y-78000854D01*
X68083000Y-78086640D01*
X67995779Y-78150010D01*
X67930127Y-78197710D01*
X67930125Y-78197712D01*
X67930124Y-78197712D01*
X67796512Y-78331324D01*
X67796512Y-78331325D01*
X67796510Y-78331327D01*
X67748810Y-78396979D01*
X67685440Y-78484200D01*
X67599654Y-78652563D01*
X67542030Y-78829910D01*
X67502592Y-78887585D01*
X67438233Y-78914783D01*
X67369387Y-78902868D01*
X67317911Y-78855623D01*
X67300099Y-78791591D01*
X67300099Y-78194743D01*
X67300099Y-78194736D01*
X67300097Y-78194717D01*
X67297186Y-78169612D01*
X67297185Y-78169610D01*
X67297185Y-78169609D01*
X67251806Y-78066835D01*
X67172365Y-77987394D01*
X67172363Y-77987393D01*
X67069592Y-77942015D01*
X67044465Y-77939100D01*
X65254743Y-77939100D01*
X65254717Y-77939102D01*
X65229612Y-77942013D01*
X65229608Y-77942015D01*
X65126835Y-77987393D01*
X65047394Y-78066834D01*
X65002015Y-78169606D01*
X65002015Y-78169608D01*
X64999100Y-78194731D01*
X64999100Y-79984456D01*
X64999102Y-79984482D01*
X65002013Y-80009587D01*
X65002015Y-80009591D01*
X65047393Y-80112364D01*
X65047394Y-80112365D01*
X65126835Y-80191806D01*
X65229609Y-80237185D01*
X65254735Y-80240100D01*
X65992473Y-80240099D01*
X66059510Y-80259783D01*
X66105265Y-80312587D01*
X66115209Y-80381746D01*
X66086184Y-80445302D01*
X66027406Y-80483076D01*
X66011870Y-80486572D01*
X65880189Y-80507429D01*
X65707963Y-80563387D01*
X65707960Y-80563388D01*
X65546602Y-80645606D01*
X65400105Y-80752041D01*
X65400100Y-80752045D01*
X65272045Y-80880100D01*
X65272041Y-80880105D01*
X65165606Y-81026602D01*
X65083388Y-81187960D01*
X65083387Y-81187963D01*
X65027429Y-81360189D01*
X64999100Y-81539048D01*
X64999100Y-81720151D01*
X65027429Y-81899010D01*
X65083387Y-82071236D01*
X65083388Y-82071239D01*
X65133183Y-82168964D01*
X65159396Y-82220411D01*
X65165606Y-82232597D01*
X65272041Y-82379094D01*
X65272045Y-82379099D01*
X65400100Y-82507154D01*
X65400105Y-82507158D01*
X65527887Y-82599996D01*
X65546606Y-82613596D01*
X65599104Y-82640345D01*
X65707960Y-82695811D01*
X65707963Y-82695812D01*
X65794076Y-82723791D01*
X65880191Y-82751771D01*
X65953239Y-82763340D01*
X66040278Y-82777127D01*
X66103413Y-82807056D01*
X66140344Y-82866368D01*
X66139346Y-82936231D01*
X66100736Y-82994463D01*
X66040278Y-83022073D01*
X65880189Y-83047429D01*
X65707963Y-83103387D01*
X65707960Y-83103388D01*
X65546602Y-83185606D01*
X65400105Y-83292041D01*
X65400100Y-83292045D01*
X65272045Y-83420100D01*
X65272041Y-83420105D01*
X65165606Y-83566602D01*
X65083388Y-83727960D01*
X65083387Y-83727963D01*
X65027429Y-83900189D01*
X64999100Y-84079048D01*
X64999100Y-84260151D01*
X65027429Y-84439010D01*
X65083387Y-84611236D01*
X65083388Y-84611239D01*
X65122237Y-84687482D01*
X65165603Y-84772593D01*
X65165606Y-84772597D01*
X65272041Y-84919094D01*
X65272045Y-84919099D01*
X65400100Y-85047154D01*
X65400105Y-85047158D01*
X65521362Y-85135255D01*
X65546606Y-85153596D01*
X65652084Y-85207340D01*
X65707960Y-85235811D01*
X65707963Y-85235812D01*
X65794076Y-85263791D01*
X65880191Y-85291771D01*
X65953239Y-85303340D01*
X66040278Y-85317127D01*
X66103413Y-85347056D01*
X66140344Y-85406368D01*
X66139346Y-85476231D01*
X66100736Y-85534463D01*
X66040278Y-85562073D01*
X65880189Y-85587429D01*
X65707963Y-85643387D01*
X65707960Y-85643388D01*
X65546602Y-85725606D01*
X65400105Y-85832041D01*
X65400100Y-85832045D01*
X65272045Y-85960100D01*
X65272041Y-85960105D01*
X65165606Y-86106602D01*
X65083388Y-86267960D01*
X65083387Y-86267963D01*
X65027429Y-86440189D01*
X64999100Y-86619048D01*
X64999100Y-86800151D01*
X65027429Y-86979010D01*
X65083387Y-87151236D01*
X65083388Y-87151239D01*
X65165606Y-87312597D01*
X65272041Y-87459094D01*
X65272045Y-87459099D01*
X65400100Y-87587154D01*
X65400105Y-87587158D01*
X65455508Y-87627410D01*
X65546606Y-87693596D01*
X65652084Y-87747340D01*
X65707960Y-87775811D01*
X65707963Y-87775812D01*
X65760276Y-87792809D01*
X65880191Y-87831771D01*
X65953239Y-87843340D01*
X66040278Y-87857127D01*
X66103413Y-87887056D01*
X66140344Y-87946368D01*
X66139346Y-88016231D01*
X66100736Y-88074463D01*
X66040278Y-88102073D01*
X65880189Y-88127429D01*
X65707963Y-88183387D01*
X65707960Y-88183388D01*
X65546602Y-88265606D01*
X65400105Y-88372041D01*
X65400100Y-88372045D01*
X65272045Y-88500100D01*
X65272041Y-88500105D01*
X65165606Y-88646602D01*
X65083388Y-88807960D01*
X65083387Y-88807963D01*
X65027429Y-88980189D01*
X64999100Y-89159048D01*
X64999100Y-89340151D01*
X65027429Y-89519010D01*
X65083387Y-89691236D01*
X65083388Y-89691239D01*
X65165606Y-89852597D01*
X65272041Y-89999094D01*
X65272045Y-89999099D01*
X65400100Y-90127154D01*
X65400105Y-90127158D01*
X65436983Y-90153951D01*
X65546606Y-90233596D01*
X65652084Y-90287340D01*
X65707960Y-90315811D01*
X65707963Y-90315812D01*
X65760276Y-90332809D01*
X65880191Y-90371771D01*
X65953239Y-90383340D01*
X66040278Y-90397127D01*
X66103413Y-90427056D01*
X66140344Y-90486368D01*
X66139346Y-90556231D01*
X66100736Y-90614463D01*
X66040278Y-90642073D01*
X65880189Y-90667429D01*
X65707963Y-90723387D01*
X65707960Y-90723388D01*
X65546602Y-90805606D01*
X65400105Y-90912041D01*
X65400100Y-90912045D01*
X65272045Y-91040100D01*
X65272041Y-91040105D01*
X65165606Y-91186602D01*
X65083388Y-91347960D01*
X65083387Y-91347963D01*
X65027429Y-91520189D01*
X64999100Y-91699048D01*
X64999100Y-91880151D01*
X65027429Y-92059010D01*
X65083387Y-92231236D01*
X65083388Y-92231239D01*
X65165606Y-92392597D01*
X65272041Y-92539094D01*
X65272045Y-92539099D01*
X65400100Y-92667154D01*
X65400105Y-92667158D01*
X65527887Y-92759996D01*
X65546606Y-92773596D01*
X65612577Y-92807210D01*
X65707960Y-92855811D01*
X65707963Y-92855812D01*
X65760276Y-92872809D01*
X65880191Y-92911771D01*
X65953239Y-92923340D01*
X66040278Y-92937127D01*
X66103413Y-92967056D01*
X66140344Y-93026368D01*
X66139346Y-93096231D01*
X66100736Y-93154463D01*
X66040278Y-93182073D01*
X65880189Y-93207429D01*
X65707963Y-93263387D01*
X65707960Y-93263388D01*
X65546602Y-93345606D01*
X65400105Y-93452041D01*
X65400100Y-93452045D01*
X65272045Y-93580100D01*
X65272041Y-93580105D01*
X65165606Y-93726602D01*
X65083388Y-93887960D01*
X65083387Y-93887963D01*
X65027429Y-94060189D01*
X64999100Y-94239048D01*
X64999100Y-94420151D01*
X65027429Y-94599010D01*
X65083387Y-94771236D01*
X65083388Y-94771239D01*
X65165606Y-94932597D01*
X65272041Y-95079094D01*
X65272045Y-95079099D01*
X65400100Y-95207154D01*
X65400105Y-95207158D01*
X65520581Y-95294688D01*
X65546606Y-95313596D01*
X65652084Y-95367340D01*
X65707960Y-95395811D01*
X65707963Y-95395812D01*
X65794076Y-95423791D01*
X65880191Y-95451771D01*
X65953239Y-95463340D01*
X66040278Y-95477127D01*
X66103413Y-95507056D01*
X66140344Y-95566368D01*
X66139346Y-95636231D01*
X66100736Y-95694463D01*
X66040278Y-95722073D01*
X65880189Y-95747429D01*
X65707963Y-95803387D01*
X65707960Y-95803388D01*
X65546602Y-95885606D01*
X65400105Y-95992041D01*
X65400100Y-95992045D01*
X65272045Y-96120100D01*
X65272041Y-96120105D01*
X65165606Y-96266602D01*
X65083388Y-96427960D01*
X65083387Y-96427963D01*
X65027429Y-96600189D01*
X64999100Y-96779048D01*
X64999100Y-96960151D01*
X65027429Y-97139010D01*
X65083387Y-97311236D01*
X65083388Y-97311239D01*
X65165606Y-97472597D01*
X65272041Y-97619094D01*
X65272045Y-97619099D01*
X65400100Y-97747154D01*
X65400105Y-97747158D01*
X65516363Y-97831623D01*
X65546606Y-97853596D01*
X65652084Y-97907340D01*
X65707960Y-97935811D01*
X65707963Y-97935812D01*
X65794076Y-97963791D01*
X65880191Y-97991771D01*
X65953239Y-98003340D01*
X66040278Y-98017127D01*
X66103413Y-98047056D01*
X66140344Y-98106368D01*
X66139346Y-98176231D01*
X66100736Y-98234463D01*
X66040278Y-98262073D01*
X65880189Y-98287429D01*
X65707963Y-98343387D01*
X65707960Y-98343388D01*
X65546602Y-98425606D01*
X65400105Y-98532041D01*
X65400100Y-98532045D01*
X65272045Y-98660100D01*
X65272041Y-98660105D01*
X65165606Y-98806602D01*
X65083388Y-98967960D01*
X65083387Y-98967963D01*
X65027429Y-99140189D01*
X64999100Y-99319048D01*
X64999100Y-99500151D01*
X65027429Y-99679010D01*
X65083387Y-99851236D01*
X65083388Y-99851239D01*
X65165606Y-100012597D01*
X65272041Y-100159094D01*
X65272045Y-100159099D01*
X65400100Y-100287154D01*
X65400105Y-100287158D01*
X65526519Y-100379002D01*
X65546606Y-100393596D01*
X65652084Y-100447340D01*
X65707960Y-100475811D01*
X65707963Y-100475812D01*
X65794076Y-100503791D01*
X65880191Y-100531771D01*
X65953239Y-100543340D01*
X66040278Y-100557127D01*
X66103413Y-100587056D01*
X66140344Y-100646368D01*
X66139346Y-100716231D01*
X66100736Y-100774463D01*
X66040278Y-100802073D01*
X65880189Y-100827429D01*
X65707963Y-100883387D01*
X65707960Y-100883388D01*
X65546602Y-100965606D01*
X65400105Y-101072041D01*
X65400100Y-101072045D01*
X65272045Y-101200100D01*
X65272041Y-101200105D01*
X65165606Y-101346602D01*
X65083388Y-101507960D01*
X65083387Y-101507963D01*
X65027429Y-101680189D01*
X64999100Y-101859048D01*
X64999100Y-102040151D01*
X65027429Y-102219010D01*
X65083387Y-102391236D01*
X65083388Y-102391239D01*
X65165606Y-102552597D01*
X65272041Y-102699094D01*
X65272045Y-102699099D01*
X65400100Y-102827154D01*
X65400105Y-102827158D01*
X65451902Y-102864790D01*
X65546606Y-102933596D01*
X65652084Y-102987340D01*
X65707960Y-103015811D01*
X65707963Y-103015812D01*
X65794076Y-103043791D01*
X65880191Y-103071771D01*
X65953239Y-103083340D01*
X66040278Y-103097127D01*
X66103413Y-103127056D01*
X66140344Y-103186368D01*
X66139346Y-103256231D01*
X66100736Y-103314463D01*
X66040278Y-103342073D01*
X65880189Y-103367429D01*
X65707963Y-103423387D01*
X65707960Y-103423388D01*
X65546602Y-103505606D01*
X65400105Y-103612041D01*
X65400100Y-103612045D01*
X65272045Y-103740100D01*
X65272041Y-103740105D01*
X65165606Y-103886602D01*
X65083388Y-104047960D01*
X65083387Y-104047963D01*
X65027429Y-104220189D01*
X64999100Y-104399048D01*
X64999100Y-104580151D01*
X65027429Y-104759010D01*
X65083387Y-104931236D01*
X65083388Y-104931239D01*
X65165606Y-105092597D01*
X65272041Y-105239094D01*
X65272045Y-105239099D01*
X65400100Y-105367154D01*
X65400105Y-105367158D01*
X65526519Y-105459002D01*
X65546606Y-105473596D01*
X65652084Y-105527340D01*
X65707960Y-105555811D01*
X65707963Y-105555812D01*
X65759956Y-105572705D01*
X65880191Y-105611771D01*
X65953239Y-105623340D01*
X66040278Y-105637127D01*
X66103413Y-105667056D01*
X66140344Y-105726368D01*
X66139346Y-105796231D01*
X66100736Y-105854463D01*
X66040278Y-105882073D01*
X65880189Y-105907429D01*
X65707963Y-105963387D01*
X65707960Y-105963388D01*
X65546602Y-106045606D01*
X65400105Y-106152041D01*
X65400100Y-106152045D01*
X65272045Y-106280100D01*
X65272041Y-106280105D01*
X65165606Y-106426602D01*
X65083388Y-106587960D01*
X65083387Y-106587963D01*
X65027429Y-106760189D01*
X64999100Y-106939048D01*
X64999100Y-107120151D01*
X65027429Y-107299010D01*
X65083387Y-107471236D01*
X65083388Y-107471239D01*
X65165606Y-107632597D01*
X65272041Y-107779094D01*
X65272045Y-107779099D01*
X65400100Y-107907154D01*
X65400105Y-107907158D01*
X65526519Y-107999002D01*
X65546606Y-108013596D01*
X65652084Y-108067340D01*
X65707960Y-108095811D01*
X65707963Y-108095812D01*
X65794076Y-108123791D01*
X65880191Y-108151771D01*
X65953239Y-108163340D01*
X66040278Y-108177127D01*
X66103413Y-108207056D01*
X66140344Y-108266368D01*
X66139346Y-108336231D01*
X66100736Y-108394463D01*
X66040278Y-108422073D01*
X65880189Y-108447429D01*
X65707963Y-108503387D01*
X65707960Y-108503388D01*
X65546602Y-108585606D01*
X65400105Y-108692041D01*
X65400100Y-108692045D01*
X65272045Y-108820100D01*
X65272041Y-108820105D01*
X65165606Y-108966602D01*
X65083388Y-109127960D01*
X65083387Y-109127963D01*
X65027429Y-109300189D01*
X64999100Y-109479048D01*
X64999100Y-109660151D01*
X65027429Y-109839010D01*
X65083387Y-110011236D01*
X65083388Y-110011239D01*
X65165606Y-110172597D01*
X65272041Y-110319094D01*
X65272045Y-110319099D01*
X65400100Y-110447154D01*
X65400105Y-110447158D01*
X65526519Y-110539002D01*
X65546606Y-110553596D01*
X65652084Y-110607340D01*
X65707960Y-110635811D01*
X65707963Y-110635812D01*
X65794076Y-110663791D01*
X65880191Y-110691771D01*
X65953239Y-110703340D01*
X66040278Y-110717127D01*
X66103413Y-110747056D01*
X66140344Y-110806368D01*
X66139346Y-110876231D01*
X66100736Y-110934463D01*
X66040278Y-110962073D01*
X65880189Y-110987429D01*
X65707963Y-111043387D01*
X65707960Y-111043388D01*
X65546602Y-111125606D01*
X65400105Y-111232041D01*
X65400100Y-111232045D01*
X65272045Y-111360100D01*
X65272041Y-111360105D01*
X65165606Y-111506602D01*
X65083388Y-111667960D01*
X65083387Y-111667963D01*
X65027429Y-111840189D01*
X64999100Y-112019048D01*
X64999100Y-112200151D01*
X65027429Y-112379010D01*
X65083387Y-112551236D01*
X65083388Y-112551239D01*
X65165606Y-112712597D01*
X65272041Y-112859094D01*
X65272045Y-112859099D01*
X65400100Y-112987154D01*
X65400105Y-112987158D01*
X65526519Y-113079002D01*
X65546606Y-113093596D01*
X65652084Y-113147340D01*
X65707960Y-113175811D01*
X65707963Y-113175812D01*
X65794076Y-113203791D01*
X65880191Y-113231771D01*
X65953239Y-113243340D01*
X66040278Y-113257127D01*
X66103413Y-113287056D01*
X66140344Y-113346368D01*
X66139346Y-113416231D01*
X66100736Y-113474463D01*
X66040278Y-113502073D01*
X65880189Y-113527429D01*
X65707963Y-113583387D01*
X65707960Y-113583388D01*
X65546602Y-113665606D01*
X65400105Y-113772041D01*
X65400100Y-113772045D01*
X65272045Y-113900100D01*
X65272041Y-113900105D01*
X65165606Y-114046602D01*
X65083388Y-114207960D01*
X65083387Y-114207963D01*
X65027429Y-114380189D01*
X64999100Y-114559048D01*
X64999100Y-114740151D01*
X65027429Y-114919010D01*
X65083387Y-115091236D01*
X65083388Y-115091239D01*
X65116279Y-115155789D01*
X65153621Y-115229077D01*
X65165606Y-115252597D01*
X65272041Y-115399094D01*
X65272045Y-115399099D01*
X65400100Y-115527154D01*
X65400105Y-115527158D01*
X65471320Y-115578898D01*
X65546606Y-115633596D01*
X65652084Y-115687340D01*
X65707960Y-115715811D01*
X65707963Y-115715812D01*
X65783196Y-115740256D01*
X65880191Y-115771771D01*
X65953239Y-115783340D01*
X66040278Y-115797127D01*
X66103413Y-115827056D01*
X66140344Y-115886368D01*
X66139346Y-115956231D01*
X66100736Y-116014463D01*
X66040278Y-116042073D01*
X65880189Y-116067429D01*
X65707963Y-116123387D01*
X65707960Y-116123388D01*
X65546602Y-116205606D01*
X65400105Y-116312041D01*
X65400100Y-116312045D01*
X65272045Y-116440100D01*
X65272041Y-116440105D01*
X65165606Y-116586602D01*
X65083388Y-116747960D01*
X65083387Y-116747963D01*
X65027429Y-116920189D01*
X64999100Y-117099048D01*
X64999100Y-117280151D01*
X65027429Y-117459010D01*
X65083387Y-117631236D01*
X65083388Y-117631239D01*
X65165606Y-117792597D01*
X65272041Y-117939094D01*
X65272045Y-117939099D01*
X65400100Y-118067154D01*
X65400105Y-118067158D01*
X65527887Y-118159996D01*
X65546606Y-118173596D01*
X65652084Y-118227340D01*
X65707960Y-118255811D01*
X65707963Y-118255812D01*
X65794076Y-118283791D01*
X65880191Y-118311771D01*
X65953239Y-118323340D01*
X66040278Y-118337127D01*
X66103413Y-118367056D01*
X66140344Y-118426368D01*
X66139346Y-118496231D01*
X66100736Y-118554463D01*
X66040278Y-118582073D01*
X65880189Y-118607429D01*
X65707963Y-118663387D01*
X65707960Y-118663388D01*
X65546602Y-118745606D01*
X65400105Y-118852041D01*
X65400100Y-118852045D01*
X65272045Y-118980100D01*
X65272041Y-118980105D01*
X65165606Y-119126602D01*
X65083388Y-119287960D01*
X65083387Y-119287963D01*
X65027429Y-119460189D01*
X64999100Y-119639048D01*
X64999100Y-119820151D01*
X65027429Y-119999010D01*
X65083387Y-120171236D01*
X65083388Y-120171239D01*
X65165606Y-120332597D01*
X65272041Y-120479094D01*
X65272045Y-120479099D01*
X65400100Y-120607154D01*
X65400105Y-120607158D01*
X65527887Y-120699996D01*
X65546606Y-120713596D01*
X65652084Y-120767340D01*
X65707960Y-120795811D01*
X65707963Y-120795812D01*
X65794076Y-120823791D01*
X65880191Y-120851771D01*
X65953239Y-120863340D01*
X66040278Y-120877127D01*
X66103413Y-120907056D01*
X66140344Y-120966368D01*
X66139346Y-121036231D01*
X66100736Y-121094463D01*
X66040278Y-121122073D01*
X65880189Y-121147429D01*
X65707963Y-121203387D01*
X65707960Y-121203388D01*
X65546602Y-121285606D01*
X65400105Y-121392041D01*
X65400100Y-121392045D01*
X65272045Y-121520100D01*
X65272041Y-121520105D01*
X65165606Y-121666602D01*
X65083388Y-121827960D01*
X65083387Y-121827963D01*
X65027429Y-122000189D01*
X64999100Y-122179048D01*
X64999100Y-122360151D01*
X65027429Y-122539010D01*
X65083387Y-122711236D01*
X65083388Y-122711239D01*
X65165606Y-122872597D01*
X65272041Y-123019094D01*
X65272045Y-123019099D01*
X65400100Y-123147154D01*
X65400105Y-123147158D01*
X65498227Y-123218447D01*
X65546606Y-123253596D01*
X65652084Y-123307340D01*
X65707960Y-123335811D01*
X65707963Y-123335812D01*
X65740874Y-123346505D01*
X65880191Y-123391771D01*
X65953239Y-123403340D01*
X66040278Y-123417127D01*
X66103413Y-123447056D01*
X66140344Y-123506368D01*
X66139346Y-123576231D01*
X66100736Y-123634463D01*
X66040278Y-123662073D01*
X65880189Y-123687429D01*
X65707963Y-123743387D01*
X65707960Y-123743388D01*
X65546602Y-123825606D01*
X65400105Y-123932041D01*
X65400100Y-123932045D01*
X65272045Y-124060100D01*
X65272041Y-124060105D01*
X65165606Y-124206602D01*
X65083388Y-124367960D01*
X65083387Y-124367963D01*
X65027429Y-124540189D01*
X64999100Y-124719048D01*
X64999100Y-124900151D01*
X65027429Y-125079010D01*
X65083387Y-125251236D01*
X65083388Y-125251239D01*
X65165606Y-125412597D01*
X65272041Y-125559094D01*
X65272045Y-125559099D01*
X65400100Y-125687154D01*
X65400105Y-125687158D01*
X65498227Y-125758447D01*
X65546606Y-125793596D01*
X65607076Y-125824407D01*
X65707960Y-125875811D01*
X65707963Y-125875812D01*
X65740874Y-125886505D01*
X65880191Y-125931771D01*
X65953239Y-125943340D01*
X66040278Y-125957127D01*
X66103413Y-125987056D01*
X66140344Y-126046368D01*
X66139346Y-126116231D01*
X66100736Y-126174463D01*
X66040278Y-126202073D01*
X65880189Y-126227429D01*
X65707963Y-126283387D01*
X65707960Y-126283388D01*
X65546602Y-126365606D01*
X65400105Y-126472041D01*
X65400100Y-126472045D01*
X65272045Y-126600100D01*
X65272041Y-126600105D01*
X65165606Y-126746602D01*
X65083388Y-126907960D01*
X65083387Y-126907963D01*
X65027429Y-127080189D01*
X64999100Y-127259048D01*
X64999100Y-127440151D01*
X65027429Y-127619010D01*
X65083387Y-127791236D01*
X65083388Y-127791239D01*
X65165606Y-127952597D01*
X65272041Y-128099094D01*
X65272045Y-128099099D01*
X65400100Y-128227154D01*
X65400105Y-128227158D01*
X65498227Y-128298447D01*
X65546606Y-128333596D01*
X65652084Y-128387340D01*
X65707960Y-128415811D01*
X65707963Y-128415812D01*
X65740874Y-128426505D01*
X65880191Y-128471771D01*
X65963029Y-128484891D01*
X66059049Y-128500100D01*
X66059054Y-128500100D01*
X66240151Y-128500100D01*
X66326859Y-128486365D01*
X66419009Y-128471771D01*
X66591239Y-128415811D01*
X66752594Y-128333596D01*
X66899101Y-128227153D01*
X67027153Y-128099101D01*
X67133596Y-127952594D01*
X67215811Y-127791239D01*
X67271771Y-127619009D01*
X67288473Y-127513558D01*
X67297127Y-127458921D01*
X67327056Y-127395786D01*
X67386368Y-127358855D01*
X67456230Y-127359853D01*
X67514463Y-127398463D01*
X67542073Y-127458921D01*
X67567429Y-127619010D01*
X67623387Y-127791236D01*
X67623388Y-127791239D01*
X67705606Y-127952597D01*
X67812041Y-128099094D01*
X67812045Y-128099099D01*
X67940100Y-128227154D01*
X67940105Y-128227158D01*
X68038227Y-128298447D01*
X68086606Y-128333596D01*
X68192084Y-128387340D01*
X68247960Y-128415811D01*
X68247963Y-128415812D01*
X68280874Y-128426505D01*
X68420191Y-128471771D01*
X68503029Y-128484891D01*
X68599049Y-128500100D01*
X68599054Y-128500100D01*
X68780151Y-128500100D01*
X68866859Y-128486365D01*
X68959009Y-128471771D01*
X69131239Y-128415811D01*
X69292594Y-128333596D01*
X69439101Y-128227153D01*
X69567153Y-128099101D01*
X69673596Y-127952594D01*
X69755811Y-127791239D01*
X69811771Y-127619009D01*
X69828474Y-127513553D01*
X69840100Y-127440151D01*
X69840100Y-127259048D01*
X69823619Y-127154997D01*
X69811771Y-127080191D01*
X69766349Y-126940394D01*
X69755812Y-126907963D01*
X69755811Y-126907960D01*
X69727340Y-126852084D01*
X69673596Y-126746606D01*
X69659022Y-126726546D01*
X69567158Y-126600105D01*
X69567154Y-126600100D01*
X69439099Y-126472045D01*
X69439094Y-126472041D01*
X69292597Y-126365606D01*
X69292596Y-126365605D01*
X69292594Y-126365604D01*
X69240900Y-126339264D01*
X69131239Y-126283388D01*
X69131236Y-126283387D01*
X68959010Y-126227429D01*
X68798921Y-126202073D01*
X68735786Y-126172144D01*
X68698855Y-126112832D01*
X68699853Y-126042970D01*
X68738463Y-125984737D01*
X68798921Y-125957127D01*
X68869025Y-125946022D01*
X68959009Y-125931771D01*
X69131239Y-125875811D01*
X69292594Y-125793596D01*
X69439101Y-125687153D01*
X69567153Y-125559101D01*
X69673596Y-125412594D01*
X69755811Y-125251239D01*
X69811771Y-125079009D01*
X69828474Y-124973553D01*
X69840100Y-124900151D01*
X69840100Y-124719048D01*
X69820481Y-124595183D01*
X69811771Y-124540191D01*
X69780016Y-124442457D01*
X69755812Y-124367963D01*
X69755811Y-124367960D01*
X69713205Y-124284343D01*
X69673596Y-124206606D01*
X69619108Y-124131609D01*
X69567158Y-124060105D01*
X69567154Y-124060100D01*
X69439099Y-123932045D01*
X69439094Y-123932041D01*
X69292597Y-123825606D01*
X69292596Y-123825605D01*
X69292594Y-123825604D01*
X69240900Y-123799264D01*
X69131239Y-123743388D01*
X69131236Y-123743387D01*
X68959010Y-123687429D01*
X68798921Y-123662073D01*
X68735786Y-123632144D01*
X68698855Y-123572832D01*
X68699853Y-123502970D01*
X68738463Y-123444737D01*
X68798921Y-123417127D01*
X68869025Y-123406022D01*
X68959009Y-123391771D01*
X69131239Y-123335811D01*
X69292594Y-123253596D01*
X69439101Y-123147153D01*
X69567153Y-123019101D01*
X69673596Y-122872594D01*
X69755811Y-122711239D01*
X69811771Y-122539009D01*
X69826365Y-122446859D01*
X69840100Y-122360151D01*
X69840100Y-122179048D01*
X69823619Y-122074997D01*
X69811771Y-122000191D01*
X69755811Y-121827961D01*
X69755811Y-121827960D01*
X69727340Y-121772084D01*
X69673596Y-121666606D01*
X69659996Y-121647887D01*
X69567158Y-121520105D01*
X69567154Y-121520100D01*
X69439099Y-121392045D01*
X69439094Y-121392041D01*
X69292597Y-121285606D01*
X69292596Y-121285605D01*
X69292594Y-121285604D01*
X69240900Y-121259264D01*
X69131239Y-121203388D01*
X69131236Y-121203387D01*
X68959010Y-121147429D01*
X68798921Y-121122073D01*
X68735786Y-121092144D01*
X68698855Y-121032832D01*
X68699853Y-120962970D01*
X68738463Y-120904737D01*
X68798921Y-120877127D01*
X68869025Y-120866022D01*
X68959009Y-120851771D01*
X69131239Y-120795811D01*
X69292594Y-120713596D01*
X69439101Y-120607153D01*
X69567153Y-120479101D01*
X69673596Y-120332594D01*
X69755811Y-120171239D01*
X69811771Y-119999009D01*
X69828753Y-119891789D01*
X69840100Y-119820151D01*
X69840100Y-119639048D01*
X69819549Y-119509300D01*
X69811771Y-119460191D01*
X69783791Y-119374076D01*
X69755812Y-119287963D01*
X69755811Y-119287960D01*
X69706487Y-119191158D01*
X69673596Y-119126606D01*
X69608129Y-119036498D01*
X69567158Y-118980105D01*
X69567154Y-118980100D01*
X69439099Y-118852045D01*
X69439094Y-118852041D01*
X69292597Y-118745606D01*
X69292596Y-118745605D01*
X69292594Y-118745604D01*
X69240900Y-118719264D01*
X69131239Y-118663388D01*
X69131236Y-118663387D01*
X68959010Y-118607429D01*
X68798921Y-118582073D01*
X68735786Y-118552144D01*
X68698855Y-118492832D01*
X68699853Y-118422970D01*
X68738463Y-118364737D01*
X68798921Y-118337127D01*
X68869025Y-118326022D01*
X68959009Y-118311771D01*
X69131239Y-118255811D01*
X69292594Y-118173596D01*
X69439101Y-118067153D01*
X69567153Y-117939101D01*
X69673596Y-117792594D01*
X69755811Y-117631239D01*
X69811771Y-117459009D01*
X69827155Y-117361877D01*
X69840100Y-117280151D01*
X69840100Y-117099048D01*
X69823619Y-116994997D01*
X69811771Y-116920191D01*
X69767003Y-116782406D01*
X69755812Y-116747963D01*
X69755811Y-116747960D01*
X69727340Y-116692084D01*
X69673596Y-116586606D01*
X69616370Y-116507841D01*
X69567158Y-116440105D01*
X69567154Y-116440100D01*
X69439099Y-116312045D01*
X69439094Y-116312041D01*
X69292597Y-116205606D01*
X69292596Y-116205605D01*
X69292594Y-116205604D01*
X69200307Y-116158581D01*
X69131239Y-116123388D01*
X69131236Y-116123387D01*
X68959010Y-116067429D01*
X68798921Y-116042073D01*
X68735786Y-116012144D01*
X68698855Y-115952832D01*
X68699853Y-115882970D01*
X68738463Y-115824737D01*
X68798921Y-115797127D01*
X68869025Y-115786022D01*
X68959009Y-115771771D01*
X69131239Y-115715811D01*
X69292594Y-115633596D01*
X69439101Y-115527153D01*
X69567153Y-115399101D01*
X69673596Y-115252594D01*
X69755811Y-115091239D01*
X69811771Y-114919009D01*
X69826656Y-114825027D01*
X69840100Y-114740151D01*
X69840100Y-114559048D01*
X69823619Y-114454997D01*
X69811771Y-114380191D01*
X69755811Y-114207961D01*
X69755811Y-114207960D01*
X69727340Y-114152084D01*
X69673596Y-114046606D01*
X69659996Y-114027887D01*
X69567158Y-113900105D01*
X69567154Y-113900100D01*
X69439099Y-113772045D01*
X69439094Y-113772041D01*
X69292597Y-113665606D01*
X69292596Y-113665605D01*
X69292594Y-113665604D01*
X69234126Y-113635813D01*
X69131239Y-113583388D01*
X69131236Y-113583387D01*
X68959010Y-113527429D01*
X68798921Y-113502073D01*
X68735786Y-113472144D01*
X68698855Y-113412832D01*
X68699853Y-113342970D01*
X68738463Y-113284737D01*
X68798921Y-113257127D01*
X68869025Y-113246022D01*
X68959009Y-113231771D01*
X69131239Y-113175811D01*
X69292594Y-113093596D01*
X69439101Y-112987153D01*
X69567153Y-112859101D01*
X69673596Y-112712594D01*
X69755811Y-112551239D01*
X69811771Y-112379009D01*
X69826365Y-112286859D01*
X69840100Y-112200151D01*
X69840100Y-112019048D01*
X69821425Y-111901143D01*
X69811771Y-111840191D01*
X69755811Y-111667961D01*
X69755811Y-111667960D01*
X69727033Y-111611482D01*
X69673596Y-111506606D01*
X69659996Y-111487887D01*
X69567158Y-111360105D01*
X69567154Y-111360100D01*
X69439099Y-111232045D01*
X69439094Y-111232041D01*
X69292597Y-111125606D01*
X69292596Y-111125605D01*
X69292594Y-111125604D01*
X69234126Y-111095813D01*
X69131239Y-111043388D01*
X69131236Y-111043387D01*
X68959010Y-110987429D01*
X68798921Y-110962073D01*
X68735786Y-110932144D01*
X68698855Y-110872832D01*
X68699853Y-110802970D01*
X68738463Y-110744737D01*
X68798921Y-110717127D01*
X68869025Y-110706022D01*
X68959009Y-110691771D01*
X69131239Y-110635811D01*
X69292594Y-110553596D01*
X69439101Y-110447153D01*
X69567153Y-110319101D01*
X69673596Y-110172594D01*
X69755811Y-110011239D01*
X69811771Y-109839009D01*
X69826365Y-109746859D01*
X69840100Y-109660151D01*
X69840100Y-109479048D01*
X69823619Y-109374997D01*
X69811771Y-109300191D01*
X69755811Y-109127961D01*
X69755811Y-109127960D01*
X69727340Y-109072084D01*
X69673596Y-108966606D01*
X69659996Y-108947887D01*
X69567158Y-108820105D01*
X69567154Y-108820100D01*
X69439099Y-108692045D01*
X69439094Y-108692041D01*
X69292597Y-108585606D01*
X69292596Y-108585605D01*
X69292594Y-108585604D01*
X69234126Y-108555813D01*
X69131239Y-108503388D01*
X69131236Y-108503387D01*
X68959010Y-108447429D01*
X68798921Y-108422073D01*
X68735786Y-108392144D01*
X68698855Y-108332832D01*
X68699853Y-108262970D01*
X68738463Y-108204737D01*
X68798921Y-108177127D01*
X68869025Y-108166022D01*
X68959009Y-108151771D01*
X69131239Y-108095811D01*
X69292594Y-108013596D01*
X69439101Y-107907153D01*
X69567153Y-107779101D01*
X69673596Y-107632594D01*
X69755811Y-107471239D01*
X69811771Y-107299009D01*
X69826365Y-107206859D01*
X69840100Y-107120151D01*
X69840100Y-106939048D01*
X69821832Y-106823716D01*
X69811771Y-106760191D01*
X69755811Y-106587961D01*
X69755811Y-106587960D01*
X69724023Y-106525574D01*
X69673596Y-106426606D01*
X69631748Y-106369007D01*
X69567158Y-106280105D01*
X69567154Y-106280100D01*
X69439099Y-106152045D01*
X69439094Y-106152041D01*
X69292597Y-106045606D01*
X69292596Y-106045605D01*
X69292594Y-106045604D01*
X69240900Y-106019264D01*
X69131239Y-105963388D01*
X69131236Y-105963387D01*
X68959010Y-105907429D01*
X68798921Y-105882073D01*
X68735786Y-105852144D01*
X68698855Y-105792832D01*
X68699853Y-105722970D01*
X68738463Y-105664737D01*
X68798921Y-105637127D01*
X68869025Y-105626022D01*
X68959009Y-105611771D01*
X69131239Y-105555811D01*
X69292594Y-105473596D01*
X69439101Y-105367153D01*
X69567153Y-105239101D01*
X69673596Y-105092594D01*
X69755811Y-104931239D01*
X69811771Y-104759009D01*
X69826365Y-104666859D01*
X69840100Y-104580151D01*
X69840100Y-104399048D01*
X69823619Y-104294997D01*
X69811771Y-104220191D01*
X69780840Y-104124994D01*
X69755812Y-104047963D01*
X69755811Y-104047960D01*
X69727340Y-103992084D01*
X69673596Y-103886606D01*
X69631652Y-103828875D01*
X69567158Y-103740105D01*
X69567154Y-103740100D01*
X69439099Y-103612045D01*
X69439094Y-103612041D01*
X69292597Y-103505606D01*
X69292596Y-103505605D01*
X69292594Y-103505604D01*
X69234126Y-103475813D01*
X69131239Y-103423388D01*
X69131236Y-103423387D01*
X68959010Y-103367429D01*
X68798921Y-103342073D01*
X68735786Y-103312144D01*
X68698855Y-103252832D01*
X68699853Y-103182970D01*
X68738463Y-103124737D01*
X68798921Y-103097127D01*
X68869025Y-103086022D01*
X68959009Y-103071771D01*
X69131239Y-103015811D01*
X69292594Y-102933596D01*
X69439101Y-102827153D01*
X69567153Y-102699101D01*
X69673596Y-102552594D01*
X69755811Y-102391239D01*
X69811771Y-102219009D01*
X69826365Y-102126859D01*
X69840100Y-102040151D01*
X69840100Y-101859048D01*
X69823619Y-101754997D01*
X69811771Y-101680191D01*
X69755811Y-101507961D01*
X69755811Y-101507960D01*
X69727340Y-101452084D01*
X69673596Y-101346606D01*
X69659996Y-101327887D01*
X69567158Y-101200105D01*
X69567154Y-101200100D01*
X69439099Y-101072045D01*
X69439094Y-101072041D01*
X69292597Y-100965606D01*
X69292596Y-100965605D01*
X69292594Y-100965604D01*
X69234126Y-100935813D01*
X69131239Y-100883388D01*
X69131236Y-100883387D01*
X68959010Y-100827429D01*
X68798921Y-100802073D01*
X68735786Y-100772144D01*
X68698855Y-100712832D01*
X68699853Y-100642970D01*
X68738463Y-100584737D01*
X68798921Y-100557127D01*
X68869025Y-100546022D01*
X68959009Y-100531771D01*
X69131239Y-100475811D01*
X69292594Y-100393596D01*
X69439101Y-100287153D01*
X69567153Y-100159101D01*
X69673596Y-100012594D01*
X69755811Y-99851239D01*
X69811771Y-99679009D01*
X69826365Y-99586859D01*
X69840100Y-99500151D01*
X69840100Y-99319048D01*
X69822165Y-99205814D01*
X69811771Y-99140191D01*
X69755811Y-98967961D01*
X69755811Y-98967960D01*
X69678007Y-98815264D01*
X69673596Y-98806606D01*
X69639669Y-98759909D01*
X69567158Y-98660105D01*
X69567154Y-98660100D01*
X69439099Y-98532045D01*
X69439094Y-98532041D01*
X69292597Y-98425606D01*
X69292596Y-98425605D01*
X69292594Y-98425604D01*
X69253723Y-98405798D01*
X69131239Y-98343388D01*
X69131236Y-98343387D01*
X69035074Y-98312143D01*
X80077300Y-98312143D01*
X80077300Y-98470256D01*
X80118223Y-98622983D01*
X80118226Y-98622990D01*
X80197275Y-98759909D01*
X80197279Y-98759914D01*
X80197280Y-98759916D01*
X80309084Y-98871720D01*
X80309086Y-98871721D01*
X80309090Y-98871724D01*
X80381626Y-98913602D01*
X80446016Y-98950777D01*
X80598743Y-98991700D01*
X80598745Y-98991700D01*
X80756855Y-98991700D01*
X80756857Y-98991700D01*
X80909584Y-98950777D01*
X81046516Y-98871720D01*
X81158320Y-98759916D01*
X81237377Y-98622984D01*
X81278300Y-98470257D01*
X81278300Y-98312143D01*
X81237377Y-98159416D01*
X81171168Y-98044737D01*
X81158324Y-98022490D01*
X81158318Y-98022482D01*
X81046517Y-97910681D01*
X81046509Y-97910675D01*
X80909590Y-97831626D01*
X80909586Y-97831624D01*
X80909584Y-97831623D01*
X80756857Y-97790700D01*
X80598743Y-97790700D01*
X80446016Y-97831623D01*
X80446009Y-97831626D01*
X80309090Y-97910675D01*
X80309082Y-97910681D01*
X80197281Y-98022482D01*
X80197275Y-98022490D01*
X80118226Y-98159409D01*
X80118223Y-98159416D01*
X80077300Y-98312143D01*
X69035074Y-98312143D01*
X68959010Y-98287429D01*
X68798921Y-98262073D01*
X68735786Y-98232144D01*
X68698855Y-98172832D01*
X68699853Y-98102970D01*
X68738463Y-98044737D01*
X68798921Y-98017127D01*
X68869025Y-98006022D01*
X68959009Y-97991771D01*
X69131239Y-97935811D01*
X69292594Y-97853596D01*
X69439101Y-97747153D01*
X69567153Y-97619101D01*
X69673596Y-97472594D01*
X69755811Y-97311239D01*
X69811771Y-97139009D01*
X69826365Y-97046859D01*
X69840100Y-96960151D01*
X69840100Y-96779048D01*
X69823619Y-96674997D01*
X69811771Y-96600191D01*
X69755811Y-96427961D01*
X69755811Y-96427960D01*
X69727340Y-96372084D01*
X69673596Y-96266606D01*
X69599763Y-96164983D01*
X69567158Y-96120105D01*
X69567154Y-96120100D01*
X69439101Y-95992047D01*
X69376183Y-95946335D01*
X69376181Y-95946332D01*
X69292597Y-95885606D01*
X69292596Y-95885605D01*
X69292594Y-95885604D01*
X69230849Y-95854143D01*
X84781100Y-95854143D01*
X84781100Y-96012257D01*
X84809997Y-96120100D01*
X84822023Y-96164983D01*
X84822026Y-96164990D01*
X84901075Y-96301909D01*
X84901079Y-96301914D01*
X84901080Y-96301916D01*
X85012884Y-96413720D01*
X85012886Y-96413721D01*
X85012890Y-96413724D01*
X85149809Y-96492773D01*
X85149816Y-96492777D01*
X85302543Y-96533700D01*
X85302545Y-96533700D01*
X85460655Y-96533700D01*
X85460657Y-96533700D01*
X85613384Y-96492777D01*
X85750316Y-96413720D01*
X85862120Y-96301916D01*
X85941177Y-96164984D01*
X85982100Y-96012257D01*
X85982100Y-95854143D01*
X85941177Y-95701416D01*
X85903543Y-95636231D01*
X85862124Y-95564490D01*
X85862118Y-95564482D01*
X85750317Y-95452681D01*
X85750309Y-95452675D01*
X85613390Y-95373626D01*
X85613386Y-95373624D01*
X85613384Y-95373623D01*
X85460657Y-95332700D01*
X85302543Y-95332700D01*
X85149816Y-95373623D01*
X85149809Y-95373626D01*
X85012890Y-95452675D01*
X85012882Y-95452681D01*
X84901081Y-95564482D01*
X84901075Y-95564490D01*
X84822026Y-95701409D01*
X84822023Y-95701416D01*
X84781100Y-95854143D01*
X69230849Y-95854143D01*
X69131239Y-95803388D01*
X69131236Y-95803387D01*
X68959010Y-95747429D01*
X68798921Y-95722073D01*
X68735786Y-95692144D01*
X68698855Y-95632832D01*
X68699853Y-95562970D01*
X68738463Y-95504737D01*
X68798921Y-95477127D01*
X68869025Y-95466022D01*
X68959009Y-95451771D01*
X69131239Y-95395811D01*
X69292594Y-95313596D01*
X69439101Y-95207153D01*
X69567153Y-95079101D01*
X69673596Y-94932594D01*
X69755811Y-94771239D01*
X69777153Y-94705553D01*
X76938100Y-94705553D01*
X76938100Y-94863246D01*
X76968861Y-95017889D01*
X76968864Y-95017901D01*
X77029202Y-95163572D01*
X77029209Y-95163585D01*
X77116810Y-95294688D01*
X77116813Y-95294692D01*
X77228307Y-95406186D01*
X77228311Y-95406189D01*
X77359414Y-95493790D01*
X77359427Y-95493797D01*
X77505098Y-95554135D01*
X77505103Y-95554137D01*
X77659753Y-95584899D01*
X77659756Y-95584900D01*
X77659758Y-95584900D01*
X77817444Y-95584900D01*
X77817445Y-95584899D01*
X77972097Y-95554137D01*
X78117779Y-95493794D01*
X78248889Y-95406189D01*
X78360389Y-95294689D01*
X78447994Y-95163579D01*
X78508337Y-95017897D01*
X78539100Y-94863242D01*
X78539100Y-94705558D01*
X78539100Y-94705555D01*
X78539099Y-94705553D01*
X78508338Y-94550910D01*
X78508337Y-94550903D01*
X78461953Y-94438921D01*
X78447997Y-94405227D01*
X78447990Y-94405214D01*
X78360389Y-94274111D01*
X78360386Y-94274107D01*
X78248892Y-94162613D01*
X78248888Y-94162610D01*
X78117785Y-94075009D01*
X78117772Y-94075002D01*
X77972101Y-94014664D01*
X77972089Y-94014661D01*
X77817445Y-93983900D01*
X77817442Y-93983900D01*
X77659758Y-93983900D01*
X77659755Y-93983900D01*
X77505110Y-94014661D01*
X77505098Y-94014664D01*
X77359427Y-94075002D01*
X77359414Y-94075009D01*
X77228311Y-94162610D01*
X77228307Y-94162613D01*
X77116813Y-94274107D01*
X77116810Y-94274111D01*
X77029209Y-94405214D01*
X77029202Y-94405227D01*
X76968864Y-94550898D01*
X76968861Y-94550910D01*
X76938100Y-94705553D01*
X69777153Y-94705553D01*
X69811771Y-94599009D01*
X69819391Y-94550898D01*
X69840100Y-94420151D01*
X69840100Y-94239048D01*
X69823619Y-94134997D01*
X69811771Y-94060191D01*
X69755811Y-93887961D01*
X69755811Y-93887960D01*
X69715156Y-93808172D01*
X69673596Y-93726606D01*
X69627021Y-93662501D01*
X69567158Y-93580105D01*
X69567154Y-93580100D01*
X69439101Y-93452047D01*
X69428555Y-93444385D01*
X69428553Y-93444382D01*
X69298856Y-93350153D01*
X74213100Y-93350153D01*
X74213100Y-93507846D01*
X74243861Y-93662489D01*
X74243864Y-93662501D01*
X74304202Y-93808172D01*
X74304209Y-93808185D01*
X74391810Y-93939288D01*
X74391813Y-93939292D01*
X74503307Y-94050786D01*
X74503311Y-94050789D01*
X74634414Y-94138390D01*
X74634427Y-94138397D01*
X74780098Y-94198735D01*
X74780103Y-94198737D01*
X74934753Y-94229499D01*
X74934756Y-94229500D01*
X74934758Y-94229500D01*
X75092444Y-94229500D01*
X75092445Y-94229499D01*
X75247097Y-94198737D01*
X75392779Y-94138394D01*
X75523889Y-94050789D01*
X75635389Y-93939289D01*
X75722994Y-93808179D01*
X75783337Y-93662497D01*
X75814100Y-93507842D01*
X75814100Y-93350158D01*
X75814100Y-93350155D01*
X75814099Y-93350153D01*
X75783338Y-93195510D01*
X75783337Y-93195503D01*
X75740810Y-93092832D01*
X75722997Y-93049827D01*
X75722990Y-93049814D01*
X75635389Y-92918711D01*
X75635386Y-92918707D01*
X75523892Y-92807213D01*
X75523888Y-92807210D01*
X75392785Y-92719609D01*
X75392772Y-92719602D01*
X75247101Y-92659264D01*
X75247089Y-92659261D01*
X75092445Y-92628500D01*
X75092442Y-92628500D01*
X74934758Y-92628500D01*
X74934755Y-92628500D01*
X74780110Y-92659261D01*
X74780098Y-92659264D01*
X74634427Y-92719602D01*
X74634414Y-92719609D01*
X74503311Y-92807210D01*
X74503307Y-92807213D01*
X74391813Y-92918707D01*
X74391810Y-92918711D01*
X74304209Y-93049814D01*
X74304202Y-93049827D01*
X74243864Y-93195498D01*
X74243861Y-93195510D01*
X74213100Y-93350153D01*
X69298856Y-93350153D01*
X69292597Y-93345606D01*
X69292596Y-93345605D01*
X69292594Y-93345604D01*
X69240900Y-93319264D01*
X69131239Y-93263388D01*
X69131236Y-93263387D01*
X68959010Y-93207429D01*
X68798921Y-93182073D01*
X68735786Y-93152144D01*
X68698855Y-93092832D01*
X68699853Y-93022970D01*
X68738463Y-92964737D01*
X68798921Y-92937127D01*
X68869025Y-92926022D01*
X68959009Y-92911771D01*
X69131239Y-92855811D01*
X69292594Y-92773596D01*
X69439101Y-92667153D01*
X69567153Y-92539101D01*
X69673596Y-92392594D01*
X69755811Y-92231239D01*
X69811771Y-92059009D01*
X69826365Y-91966859D01*
X69840100Y-91880151D01*
X69840100Y-91699048D01*
X69814463Y-91537188D01*
X69811771Y-91520191D01*
X69762982Y-91370031D01*
X69755812Y-91347963D01*
X69755811Y-91347960D01*
X69727340Y-91292084D01*
X69673596Y-91186606D01*
X69572455Y-91047396D01*
X69567158Y-91040105D01*
X69567154Y-91040100D01*
X69439099Y-90912045D01*
X69439094Y-90912041D01*
X69292597Y-90805606D01*
X69292596Y-90805605D01*
X69292594Y-90805604D01*
X69240900Y-90779264D01*
X69131239Y-90723388D01*
X69131236Y-90723387D01*
X68959010Y-90667429D01*
X68798921Y-90642073D01*
X68735786Y-90612144D01*
X68698855Y-90552832D01*
X68699853Y-90482970D01*
X68738463Y-90424737D01*
X68798921Y-90397127D01*
X68869025Y-90386022D01*
X68959009Y-90371771D01*
X69131239Y-90315811D01*
X69292594Y-90233596D01*
X69439101Y-90127153D01*
X69567153Y-89999101D01*
X69673596Y-89852594D01*
X69755811Y-89691239D01*
X69811771Y-89519009D01*
X69826365Y-89426859D01*
X69840100Y-89340151D01*
X69840100Y-89159048D01*
X69819929Y-89031699D01*
X69811771Y-88980191D01*
X69770440Y-88852986D01*
X69755812Y-88807963D01*
X69755811Y-88807960D01*
X69721941Y-88741488D01*
X69673596Y-88646606D01*
X69572455Y-88507396D01*
X69567158Y-88500105D01*
X69567154Y-88500100D01*
X69439099Y-88372045D01*
X69439094Y-88372041D01*
X69292597Y-88265606D01*
X69292596Y-88265605D01*
X69292594Y-88265604D01*
X69266967Y-88252546D01*
X69131239Y-88183388D01*
X69131236Y-88183387D01*
X69035720Y-88152353D01*
X74924300Y-88152353D01*
X74924300Y-88310046D01*
X74955061Y-88464689D01*
X74955064Y-88464701D01*
X75015402Y-88610372D01*
X75015409Y-88610385D01*
X75103010Y-88741488D01*
X75103013Y-88741492D01*
X75214507Y-88852986D01*
X75214511Y-88852989D01*
X75345614Y-88940590D01*
X75345627Y-88940597D01*
X75482252Y-88997188D01*
X75491303Y-89000937D01*
X75645953Y-89031699D01*
X75645956Y-89031700D01*
X75645958Y-89031700D01*
X75803644Y-89031700D01*
X75803645Y-89031699D01*
X75958297Y-89000937D01*
X76103979Y-88940594D01*
X76235089Y-88852989D01*
X76346589Y-88741489D01*
X76434194Y-88610379D01*
X76494537Y-88464697D01*
X76525300Y-88310042D01*
X76525300Y-88152358D01*
X76525300Y-88152355D01*
X76525299Y-88152353D01*
X76517843Y-88114871D01*
X76494537Y-87997703D01*
X76448706Y-87887056D01*
X76434197Y-87852027D01*
X76434190Y-87852014D01*
X76346589Y-87720911D01*
X76346586Y-87720907D01*
X76235092Y-87609413D01*
X76235088Y-87609410D01*
X76103985Y-87521809D01*
X76103972Y-87521802D01*
X75958301Y-87461464D01*
X75958289Y-87461461D01*
X75803645Y-87430700D01*
X75803642Y-87430700D01*
X75645958Y-87430700D01*
X75645955Y-87430700D01*
X75491310Y-87461461D01*
X75491298Y-87461464D01*
X75345627Y-87521802D01*
X75345614Y-87521809D01*
X75214511Y-87609410D01*
X75214507Y-87609413D01*
X75103013Y-87720907D01*
X75103010Y-87720911D01*
X75015409Y-87852014D01*
X75015402Y-87852027D01*
X74955064Y-87997698D01*
X74955061Y-87997710D01*
X74924300Y-88152353D01*
X69035720Y-88152353D01*
X68959010Y-88127429D01*
X68798921Y-88102073D01*
X68735786Y-88072144D01*
X68698855Y-88012832D01*
X68699853Y-87942970D01*
X68738463Y-87884737D01*
X68798921Y-87857127D01*
X68869025Y-87846022D01*
X68959009Y-87831771D01*
X69131239Y-87775811D01*
X69292594Y-87693596D01*
X69439101Y-87587153D01*
X69567153Y-87459101D01*
X69673596Y-87312594D01*
X69755811Y-87151239D01*
X69811771Y-86979009D01*
X69826365Y-86886859D01*
X69840100Y-86800151D01*
X69840100Y-86619048D01*
X69814463Y-86457188D01*
X69811771Y-86440191D01*
X69771400Y-86315939D01*
X69755812Y-86267963D01*
X69755809Y-86267955D01*
X69705037Y-86168312D01*
X69705036Y-86168311D01*
X69680494Y-86120145D01*
X69680493Y-86120143D01*
X73622200Y-86120143D01*
X73622200Y-86278257D01*
X73648946Y-86378072D01*
X73663123Y-86430983D01*
X73663126Y-86430990D01*
X73742175Y-86567909D01*
X73742179Y-86567914D01*
X73742180Y-86567916D01*
X73853984Y-86679720D01*
X73853986Y-86679721D01*
X73853990Y-86679724D01*
X73939676Y-86729194D01*
X73990916Y-86758777D01*
X74143643Y-86799700D01*
X74143645Y-86799700D01*
X74301755Y-86799700D01*
X74301757Y-86799700D01*
X74454484Y-86758777D01*
X74591416Y-86679720D01*
X74642605Y-86628531D01*
X79779700Y-86628531D01*
X79779700Y-88418256D01*
X79779702Y-88418282D01*
X79782613Y-88443387D01*
X79782615Y-88443391D01*
X79827993Y-88546164D01*
X79827994Y-88546165D01*
X79907435Y-88625606D01*
X80010209Y-88670985D01*
X80035335Y-88673900D01*
X80773073Y-88673899D01*
X80840110Y-88693583D01*
X80885865Y-88746387D01*
X80895809Y-88815546D01*
X80866784Y-88879102D01*
X80808006Y-88916876D01*
X80792470Y-88920372D01*
X80660789Y-88941229D01*
X80488563Y-88997187D01*
X80488560Y-88997188D01*
X80327202Y-89079406D01*
X80180705Y-89185841D01*
X80180700Y-89185845D01*
X80052645Y-89313900D01*
X80052641Y-89313905D01*
X79946206Y-89460402D01*
X79863988Y-89621760D01*
X79863987Y-89621763D01*
X79808029Y-89793989D01*
X79779700Y-89972848D01*
X79779700Y-90153951D01*
X79808029Y-90332810D01*
X79863987Y-90505036D01*
X79863988Y-90505039D01*
X79946206Y-90666397D01*
X80052641Y-90812894D01*
X80052645Y-90812899D01*
X80180700Y-90940954D01*
X80180705Y-90940958D01*
X80308487Y-91033796D01*
X80327206Y-91047396D01*
X80432684Y-91101140D01*
X80488560Y-91129611D01*
X80488563Y-91129612D01*
X80574676Y-91157591D01*
X80660791Y-91185571D01*
X80733839Y-91197140D01*
X80820878Y-91210927D01*
X80884013Y-91240856D01*
X80920944Y-91300168D01*
X80919946Y-91370031D01*
X80881336Y-91428263D01*
X80820878Y-91455873D01*
X80660789Y-91481229D01*
X80488563Y-91537187D01*
X80488560Y-91537188D01*
X80327202Y-91619406D01*
X80180705Y-91725841D01*
X80180700Y-91725845D01*
X80052645Y-91853900D01*
X80052641Y-91853905D01*
X79946206Y-92000402D01*
X79863988Y-92161760D01*
X79863987Y-92161763D01*
X79808029Y-92333989D01*
X79779700Y-92512848D01*
X79779700Y-92693951D01*
X79808029Y-92872810D01*
X79863987Y-93045036D01*
X79863988Y-93045039D01*
X79918562Y-93152144D01*
X79940658Y-93195510D01*
X79946206Y-93206397D01*
X80052641Y-93352894D01*
X80052645Y-93352899D01*
X80180700Y-93480954D01*
X80180705Y-93480958D01*
X80217711Y-93507844D01*
X80327206Y-93587396D01*
X80432684Y-93641140D01*
X80488560Y-93669611D01*
X80488563Y-93669612D01*
X80574676Y-93697591D01*
X80660791Y-93725571D01*
X80743629Y-93738691D01*
X80839649Y-93753900D01*
X80839654Y-93753900D01*
X81020751Y-93753900D01*
X81107459Y-93740165D01*
X81199609Y-93725571D01*
X81371839Y-93669611D01*
X81533194Y-93587396D01*
X81679701Y-93480953D01*
X81807753Y-93352901D01*
X81914196Y-93206394D01*
X81996411Y-93045039D01*
X82052371Y-92872809D01*
X82068085Y-92773593D01*
X82077727Y-92712721D01*
X82107656Y-92649586D01*
X82166968Y-92612655D01*
X82236830Y-92613653D01*
X82295063Y-92652263D01*
X82322673Y-92712721D01*
X82348029Y-92872810D01*
X82403987Y-93045036D01*
X82403988Y-93045039D01*
X82458562Y-93152144D01*
X82480658Y-93195510D01*
X82486206Y-93206397D01*
X82592641Y-93352894D01*
X82592645Y-93352899D01*
X82720700Y-93480954D01*
X82720705Y-93480958D01*
X82757711Y-93507844D01*
X82867206Y-93587396D01*
X82972684Y-93641140D01*
X83028560Y-93669611D01*
X83028563Y-93669612D01*
X83114676Y-93697591D01*
X83200791Y-93725571D01*
X83283629Y-93738691D01*
X83379649Y-93753900D01*
X83379654Y-93753900D01*
X83560751Y-93753900D01*
X83647459Y-93740165D01*
X83739609Y-93725571D01*
X83911839Y-93669611D01*
X84073194Y-93587396D01*
X84219701Y-93480953D01*
X84347753Y-93352901D01*
X84454196Y-93206394D01*
X84536411Y-93045039D01*
X84592371Y-92872809D01*
X84608085Y-92773593D01*
X84620700Y-92693951D01*
X84620700Y-92512848D01*
X84601653Y-92392594D01*
X84592371Y-92333991D01*
X84536411Y-92161761D01*
X84536411Y-92161760D01*
X84484056Y-92059010D01*
X84454196Y-92000406D01*
X84440596Y-91981687D01*
X84347758Y-91853905D01*
X84347754Y-91853900D01*
X84219699Y-91725845D01*
X84219694Y-91725841D01*
X84073197Y-91619406D01*
X84073196Y-91619405D01*
X84073194Y-91619404D01*
X84021500Y-91593064D01*
X83911839Y-91537188D01*
X83911836Y-91537187D01*
X83739610Y-91481229D01*
X83579521Y-91455873D01*
X83516386Y-91425944D01*
X83479455Y-91366632D01*
X83480453Y-91296770D01*
X83519063Y-91238537D01*
X83579521Y-91210927D01*
X83649625Y-91199822D01*
X83739609Y-91185571D01*
X83911839Y-91129611D01*
X84073194Y-91047396D01*
X84219701Y-90940953D01*
X84347753Y-90812901D01*
X84454196Y-90666394D01*
X84536411Y-90505039D01*
X84592371Y-90332809D01*
X84608085Y-90233593D01*
X84620700Y-90153951D01*
X84620700Y-89972848D01*
X84601653Y-89852594D01*
X84592371Y-89793991D01*
X84536411Y-89621761D01*
X84536411Y-89621760D01*
X84484056Y-89519010D01*
X84454196Y-89460406D01*
X84440596Y-89441687D01*
X84347758Y-89313905D01*
X84347754Y-89313900D01*
X84219699Y-89185845D01*
X84219694Y-89185841D01*
X84073197Y-89079406D01*
X84073196Y-89079405D01*
X84073194Y-89079404D01*
X84021500Y-89053064D01*
X83911839Y-88997188D01*
X83911836Y-88997187D01*
X83739610Y-88941229D01*
X83579521Y-88915873D01*
X83516386Y-88885944D01*
X83479455Y-88826632D01*
X83480453Y-88756770D01*
X83519063Y-88698537D01*
X83579521Y-88670927D01*
X83649625Y-88659822D01*
X83739609Y-88645571D01*
X83911839Y-88589611D01*
X84073194Y-88507396D01*
X84219701Y-88400953D01*
X84347753Y-88272901D01*
X84454196Y-88126394D01*
X84536411Y-87965039D01*
X84592371Y-87792809D01*
X84608085Y-87693593D01*
X84620700Y-87613951D01*
X84620700Y-87432848D01*
X84598270Y-87291238D01*
X84592371Y-87253991D01*
X84536411Y-87081761D01*
X84536411Y-87081760D01*
X84484056Y-86979010D01*
X84454196Y-86920406D01*
X84393816Y-86837299D01*
X84347758Y-86773905D01*
X84347754Y-86773900D01*
X84219699Y-86645845D01*
X84219694Y-86645841D01*
X84073197Y-86539406D01*
X84073196Y-86539405D01*
X84073194Y-86539404D01*
X83997106Y-86500635D01*
X83911839Y-86457188D01*
X83911836Y-86457187D01*
X83739610Y-86401229D01*
X83560751Y-86372900D01*
X83560746Y-86372900D01*
X83379654Y-86372900D01*
X83379649Y-86372900D01*
X83200789Y-86401229D01*
X83028563Y-86457187D01*
X83028560Y-86457188D01*
X82867202Y-86539406D01*
X82720705Y-86645841D01*
X82720700Y-86645845D01*
X82592645Y-86773900D01*
X82592641Y-86773905D01*
X82486206Y-86920402D01*
X82403988Y-87081760D01*
X82403987Y-87081763D01*
X82348029Y-87253989D01*
X82327172Y-87385671D01*
X82297242Y-87448805D01*
X82237931Y-87485736D01*
X82168068Y-87484738D01*
X82109836Y-87446128D01*
X82081722Y-87382164D01*
X82080699Y-87366272D01*
X82080699Y-86628543D01*
X82080699Y-86628536D01*
X82080697Y-86628517D01*
X82077786Y-86603412D01*
X82077785Y-86603410D01*
X82077785Y-86603409D01*
X82032406Y-86500635D01*
X81952965Y-86421194D01*
X81872916Y-86385849D01*
X81819540Y-86340763D01*
X81799013Y-86273977D01*
X81817851Y-86206695D01*
X81835322Y-86184734D01*
X81998459Y-86021598D01*
X82303238Y-85716819D01*
X82364561Y-85683334D01*
X82390919Y-85680500D01*
X85695681Y-85680500D01*
X85762720Y-85700185D01*
X85783362Y-85716819D01*
X87357781Y-87291238D01*
X87391266Y-87352561D01*
X87394100Y-87378919D01*
X87394100Y-111994280D01*
X87385455Y-112023720D01*
X87378932Y-112053707D01*
X87375177Y-112058722D01*
X87374415Y-112061319D01*
X87357781Y-112081961D01*
X87188813Y-112250929D01*
X87148584Y-112277809D01*
X87004227Y-112337602D01*
X87004214Y-112337609D01*
X86873111Y-112425210D01*
X86873107Y-112425213D01*
X86761613Y-112536707D01*
X86761610Y-112536711D01*
X86674009Y-112667814D01*
X86674002Y-112667827D01*
X86613664Y-112813498D01*
X86613661Y-112813510D01*
X86582900Y-112968153D01*
X86582900Y-113125846D01*
X86613661Y-113280489D01*
X86613664Y-113280501D01*
X86674002Y-113426172D01*
X86674009Y-113426185D01*
X86761610Y-113557288D01*
X86761613Y-113557292D01*
X86873107Y-113668786D01*
X86873111Y-113668789D01*
X87004214Y-113756390D01*
X87004227Y-113756397D01*
X87149898Y-113816735D01*
X87149903Y-113816737D01*
X87304553Y-113847499D01*
X87304556Y-113847500D01*
X87304558Y-113847500D01*
X87462244Y-113847500D01*
X87462245Y-113847499D01*
X87616897Y-113816737D01*
X87762579Y-113756394D01*
X87893689Y-113668789D01*
X88005189Y-113557289D01*
X88092794Y-113426179D01*
X88092795Y-113426176D01*
X88092797Y-113426173D01*
X88150420Y-113287056D01*
X88152592Y-113281810D01*
X88179467Y-113241588D01*
X88638714Y-112782343D01*
X88715375Y-112667611D01*
X88768180Y-112540128D01*
X88783975Y-112460724D01*
X88795100Y-112404796D01*
X88795100Y-86968406D01*
X88790066Y-86943102D01*
X88790065Y-86943101D01*
X88790065Y-86943097D01*
X88768180Y-86833072D01*
X88768178Y-86833067D01*
X88715377Y-86705592D01*
X88638712Y-86590854D01*
X86483745Y-84435887D01*
X86369007Y-84359222D01*
X86241532Y-84306421D01*
X86241522Y-84306418D01*
X86106196Y-84279500D01*
X86106194Y-84279500D01*
X86106193Y-84279500D01*
X82283698Y-84279500D01*
X82259507Y-84277117D01*
X82221362Y-84269529D01*
X82143796Y-84254100D01*
X82143794Y-84254100D01*
X82005806Y-84254100D01*
X82005804Y-84254100D01*
X81870477Y-84281018D01*
X81870467Y-84281021D01*
X81742992Y-84333822D01*
X81628254Y-84410487D01*
X80386087Y-85652654D01*
X80309422Y-85767392D01*
X80256621Y-85894867D01*
X80256618Y-85894879D01*
X80235668Y-86000204D01*
X80235668Y-86000207D01*
X80229700Y-86030206D01*
X80229700Y-86248900D01*
X80210015Y-86315939D01*
X80157211Y-86361694D01*
X80105702Y-86372900D01*
X80035343Y-86372900D01*
X80035318Y-86372902D01*
X80010211Y-86375814D01*
X80010208Y-86375815D01*
X79907435Y-86421193D01*
X79827994Y-86500634D01*
X79782615Y-86603406D01*
X79782615Y-86603408D01*
X79779700Y-86628531D01*
X74642605Y-86628531D01*
X74703220Y-86567916D01*
X74719681Y-86539404D01*
X74782274Y-86430990D01*
X74782274Y-86430988D01*
X74782277Y-86430984D01*
X74823200Y-86278257D01*
X74823200Y-86120143D01*
X74782277Y-85967416D01*
X74740394Y-85894872D01*
X74703224Y-85830490D01*
X74703218Y-85830482D01*
X74591417Y-85718681D01*
X74591409Y-85718675D01*
X74454490Y-85639626D01*
X74454486Y-85639624D01*
X74454484Y-85639623D01*
X74301757Y-85598700D01*
X74143643Y-85598700D01*
X73990916Y-85639623D01*
X73990909Y-85639626D01*
X73853990Y-85718675D01*
X73853982Y-85718681D01*
X73742181Y-85830482D01*
X73742175Y-85830490D01*
X73663126Y-85967409D01*
X73663123Y-85967416D01*
X73622200Y-86120143D01*
X69680493Y-86120143D01*
X69673596Y-86106606D01*
X69673594Y-86106603D01*
X69673593Y-86106601D01*
X69567158Y-85960105D01*
X69567154Y-85960100D01*
X69439099Y-85832045D01*
X69439094Y-85832041D01*
X69292597Y-85725606D01*
X69292596Y-85725605D01*
X69292594Y-85725604D01*
X69240900Y-85699264D01*
X69131239Y-85643388D01*
X69131236Y-85643387D01*
X68959010Y-85587429D01*
X68798921Y-85562073D01*
X68735786Y-85532144D01*
X68698855Y-85472832D01*
X68699853Y-85402970D01*
X68738463Y-85344737D01*
X68798921Y-85317127D01*
X68869025Y-85306022D01*
X68959009Y-85291771D01*
X69131239Y-85235811D01*
X69292594Y-85153596D01*
X69439101Y-85047153D01*
X69509111Y-84977143D01*
X72050900Y-84977143D01*
X72050900Y-85135257D01*
X72077844Y-85235811D01*
X72091823Y-85287983D01*
X72091826Y-85287990D01*
X72170875Y-85424909D01*
X72170879Y-85424914D01*
X72170880Y-85424916D01*
X72282684Y-85536720D01*
X72282686Y-85536721D01*
X72282690Y-85536724D01*
X72370673Y-85587520D01*
X72419616Y-85615777D01*
X72572343Y-85656700D01*
X72572345Y-85656700D01*
X72730455Y-85656700D01*
X72730457Y-85656700D01*
X72883184Y-85615777D01*
X73020116Y-85536720D01*
X73131920Y-85424916D01*
X73210977Y-85287984D01*
X73251900Y-85135257D01*
X73251900Y-84977143D01*
X73210977Y-84824416D01*
X73163568Y-84742300D01*
X73131924Y-84687490D01*
X73131918Y-84687482D01*
X73020117Y-84575681D01*
X73020109Y-84575675D01*
X72883190Y-84496626D01*
X72883186Y-84496624D01*
X72883184Y-84496623D01*
X72730457Y-84455700D01*
X72572343Y-84455700D01*
X72419616Y-84496623D01*
X72419609Y-84496626D01*
X72282690Y-84575675D01*
X72282682Y-84575681D01*
X72170881Y-84687482D01*
X72170875Y-84687490D01*
X72091826Y-84824409D01*
X72091823Y-84824416D01*
X72050900Y-84977143D01*
X69509111Y-84977143D01*
X69567153Y-84919101D01*
X69573825Y-84909917D01*
X69583843Y-84896130D01*
X69635950Y-84824409D01*
X69673596Y-84772594D01*
X69755811Y-84611239D01*
X69811771Y-84439009D01*
X69826365Y-84346859D01*
X69840100Y-84260151D01*
X69840100Y-84079048D01*
X69813327Y-83910016D01*
X69811771Y-83900191D01*
X69770472Y-83773084D01*
X69755812Y-83727963D01*
X69755811Y-83727960D01*
X69721835Y-83661280D01*
X69673596Y-83566606D01*
X69655210Y-83541300D01*
X69567158Y-83420105D01*
X69567154Y-83420100D01*
X69439099Y-83292045D01*
X69439094Y-83292041D01*
X69292597Y-83185606D01*
X69292596Y-83185605D01*
X69292594Y-83185604D01*
X69240900Y-83159264D01*
X69131239Y-83103388D01*
X69131236Y-83103387D01*
X68959010Y-83047429D01*
X68798921Y-83022073D01*
X68735786Y-82992144D01*
X68698855Y-82932832D01*
X68699853Y-82862970D01*
X68738463Y-82804737D01*
X68798921Y-82777127D01*
X68869025Y-82766022D01*
X68959009Y-82751771D01*
X69131239Y-82695811D01*
X69292594Y-82613596D01*
X69439101Y-82507153D01*
X69567153Y-82379101D01*
X69673596Y-82232594D01*
X69755811Y-82071239D01*
X69811771Y-81899009D01*
X69832175Y-81770183D01*
X69840100Y-81720151D01*
X69840100Y-81539048D01*
X69816642Y-81390945D01*
X69811771Y-81360191D01*
X69755811Y-81187961D01*
X69755811Y-81187960D01*
X69727340Y-81132084D01*
X69673596Y-81026606D01*
X69651505Y-80996200D01*
X69567158Y-80880105D01*
X69567154Y-80880100D01*
X69549019Y-80861965D01*
X69515534Y-80800642D01*
X69512700Y-80774284D01*
X69512700Y-80437900D01*
X69532385Y-80370861D01*
X69585189Y-80325106D01*
X69636700Y-80313900D01*
X69874886Y-80313900D01*
X70061518Y-80284340D01*
X70099530Y-80271989D01*
X70241232Y-80225947D01*
X70409599Y-80140160D01*
X70562474Y-80029090D01*
X71405410Y-79186153D01*
X73654300Y-79186153D01*
X73654300Y-79343846D01*
X73685061Y-79498489D01*
X73685064Y-79498501D01*
X73745402Y-79644172D01*
X73745409Y-79644185D01*
X73833010Y-79775288D01*
X73833013Y-79775292D01*
X73944507Y-79886786D01*
X73944511Y-79886789D01*
X74075614Y-79974390D01*
X74075627Y-79974397D01*
X74207670Y-80029090D01*
X74221303Y-80034737D01*
X74358488Y-80062025D01*
X74375953Y-80065499D01*
X74375956Y-80065500D01*
X74375958Y-80065500D01*
X74533644Y-80065500D01*
X74533645Y-80065499D01*
X74688297Y-80034737D01*
X74833979Y-79974394D01*
X74965089Y-79886789D01*
X75076589Y-79775289D01*
X75164194Y-79644179D01*
X75224537Y-79498497D01*
X75255300Y-79343842D01*
X75255300Y-79186158D01*
X75255300Y-79186155D01*
X75255299Y-79186153D01*
X75224538Y-79031510D01*
X75224537Y-79031503D01*
X75199167Y-78970253D01*
X83026900Y-78970253D01*
X83026900Y-79127946D01*
X83057661Y-79282589D01*
X83057664Y-79282601D01*
X83118002Y-79428272D01*
X83118009Y-79428285D01*
X83205610Y-79559388D01*
X83205613Y-79559392D01*
X83317107Y-79670886D01*
X83317111Y-79670889D01*
X83448214Y-79758490D01*
X83448227Y-79758497D01*
X83593898Y-79818835D01*
X83593903Y-79818837D01*
X83748553Y-79849599D01*
X83748556Y-79849600D01*
X83748558Y-79849600D01*
X83906244Y-79849600D01*
X83906245Y-79849599D01*
X84060897Y-79818837D01*
X84206579Y-79758494D01*
X84337689Y-79670889D01*
X84449189Y-79559389D01*
X84536794Y-79428279D01*
X84597137Y-79282597D01*
X84627900Y-79127942D01*
X84627900Y-78970258D01*
X84627900Y-78970255D01*
X84627899Y-78970253D01*
X84611455Y-78887585D01*
X84597137Y-78815603D01*
X84571913Y-78754707D01*
X84536797Y-78669927D01*
X84536790Y-78669914D01*
X84449189Y-78538811D01*
X84449186Y-78538807D01*
X84337692Y-78427313D01*
X84337688Y-78427310D01*
X84206585Y-78339709D01*
X84206572Y-78339702D01*
X84060901Y-78279364D01*
X84060889Y-78279361D01*
X83906245Y-78248600D01*
X83906242Y-78248600D01*
X83748558Y-78248600D01*
X83748555Y-78248600D01*
X83593910Y-78279361D01*
X83593898Y-78279364D01*
X83448227Y-78339702D01*
X83448214Y-78339709D01*
X83317111Y-78427310D01*
X83317107Y-78427313D01*
X83205613Y-78538807D01*
X83205610Y-78538811D01*
X83118009Y-78669914D01*
X83118002Y-78669927D01*
X83057664Y-78815598D01*
X83057661Y-78815610D01*
X83026900Y-78970253D01*
X75199167Y-78970253D01*
X75164197Y-78885827D01*
X75164190Y-78885814D01*
X75076589Y-78754711D01*
X75076586Y-78754707D01*
X74965092Y-78643213D01*
X74965088Y-78643210D01*
X74833985Y-78555609D01*
X74833972Y-78555602D01*
X74688301Y-78495264D01*
X74688289Y-78495261D01*
X74533645Y-78464500D01*
X74533642Y-78464500D01*
X74375958Y-78464500D01*
X74375955Y-78464500D01*
X74221310Y-78495261D01*
X74221298Y-78495264D01*
X74075627Y-78555602D01*
X74075614Y-78555609D01*
X73944511Y-78643210D01*
X73944507Y-78643213D01*
X73833013Y-78754707D01*
X73833010Y-78754711D01*
X73745409Y-78885814D01*
X73745402Y-78885827D01*
X73685064Y-79031498D01*
X73685061Y-79031510D01*
X73654300Y-79186153D01*
X71405410Y-79186153D01*
X72119290Y-78472273D01*
X72230360Y-78319399D01*
X72316147Y-78151032D01*
X72374540Y-77971318D01*
X72379181Y-77942015D01*
X72404100Y-77784686D01*
X72404100Y-72134713D01*
X72374540Y-71948081D01*
X72316145Y-71768363D01*
X72230359Y-71600000D01*
X72119290Y-71447127D01*
X71985673Y-71313510D01*
X70233074Y-69560910D01*
X70080199Y-69449840D01*
X69911836Y-69364054D01*
X69732118Y-69305659D01*
X69545486Y-69276100D01*
X69545481Y-69276100D01*
X65532281Y-69276100D01*
X65343318Y-69276100D01*
X65343313Y-69276100D01*
X65156685Y-69305659D01*
X64976965Y-69364054D01*
X64808600Y-69449840D01*
X64655723Y-69560912D01*
X63175909Y-71040726D01*
X63114157Y-71125719D01*
X63101521Y-71140513D01*
X62109108Y-72132927D01*
X62109106Y-72132929D01*
X62079369Y-72173861D01*
X62074901Y-72180011D01*
X62036470Y-72232906D01*
X61998040Y-72285800D01*
X61912254Y-72454163D01*
X61853859Y-72633881D01*
X61824300Y-72820513D01*
X61824300Y-135827100D01*
X61804615Y-135894139D01*
X61751811Y-135939894D01*
X61700300Y-135951100D01*
X57291514Y-135951100D01*
X57104881Y-135980659D01*
X56925163Y-136039054D01*
X56756800Y-136124840D01*
X56603923Y-136235912D01*
X55529906Y-137309929D01*
X55461308Y-137404348D01*
X55440697Y-137432718D01*
X55418840Y-137462801D01*
X55418838Y-137462804D01*
X55333054Y-137631163D01*
X55274659Y-137810881D01*
X55245100Y-137997513D01*
X40593100Y-137997513D01*
X40593100Y-135523353D01*
X49849500Y-135523353D01*
X49849500Y-135681046D01*
X49880261Y-135835689D01*
X49880264Y-135835701D01*
X49940602Y-135981372D01*
X49940609Y-135981385D01*
X50028210Y-136112488D01*
X50028213Y-136112492D01*
X50139707Y-136223986D01*
X50139711Y-136223989D01*
X50270814Y-136311590D01*
X50270827Y-136311597D01*
X50415489Y-136371517D01*
X50416503Y-136371937D01*
X50571153Y-136402699D01*
X50571156Y-136402700D01*
X50571158Y-136402700D01*
X50728844Y-136402700D01*
X50728845Y-136402699D01*
X50883497Y-136371937D01*
X51029179Y-136311594D01*
X51160289Y-136223989D01*
X51271789Y-136112489D01*
X51359394Y-135981379D01*
X51419737Y-135835697D01*
X51450500Y-135681042D01*
X51450500Y-135523358D01*
X51450500Y-135523355D01*
X51450499Y-135523353D01*
X51426850Y-135404463D01*
X51419737Y-135368703D01*
X51413168Y-135352843D01*
X51359397Y-135223027D01*
X51359393Y-135223020D01*
X51359388Y-135223012D01*
X51329458Y-135178219D01*
X51308581Y-135111543D01*
X51327065Y-135044163D01*
X51329409Y-135040514D01*
X51370794Y-134978579D01*
X51431137Y-134832897D01*
X51461900Y-134678242D01*
X51461900Y-134520558D01*
X51461900Y-134520555D01*
X51461899Y-134520553D01*
X51431138Y-134365910D01*
X51431137Y-134365903D01*
X51431135Y-134365898D01*
X51370797Y-134220227D01*
X51370790Y-134220214D01*
X51283189Y-134089111D01*
X51283186Y-134089107D01*
X51171692Y-133977613D01*
X51171688Y-133977610D01*
X51040585Y-133890009D01*
X51040572Y-133890002D01*
X50894901Y-133829664D01*
X50894889Y-133829661D01*
X50740245Y-133798900D01*
X50740242Y-133798900D01*
X50582558Y-133798900D01*
X50582555Y-133798900D01*
X50427910Y-133829661D01*
X50427898Y-133829664D01*
X50282227Y-133890002D01*
X50282214Y-133890009D01*
X50151111Y-133977610D01*
X50151107Y-133977613D01*
X50039613Y-134089107D01*
X50039610Y-134089111D01*
X49952009Y-134220214D01*
X49952002Y-134220227D01*
X49891664Y-134365898D01*
X49891661Y-134365910D01*
X49860900Y-134520553D01*
X49860900Y-134678246D01*
X49891661Y-134832889D01*
X49891664Y-134832901D01*
X49952004Y-134978575D01*
X49952006Y-134978579D01*
X49972442Y-135009164D01*
X49981940Y-135023379D01*
X50002817Y-135090057D01*
X49984332Y-135157437D01*
X49981940Y-135161158D01*
X49940611Y-135223012D01*
X49940602Y-135223028D01*
X49880264Y-135368698D01*
X49880261Y-135368710D01*
X49849500Y-135523353D01*
X40593100Y-135523353D01*
X40593100Y-132131670D01*
X42824100Y-132131670D01*
X42824100Y-132387529D01*
X42864126Y-132640240D01*
X42943188Y-132883572D01*
X42943189Y-132883575D01*
X43059350Y-133111550D01*
X43209732Y-133318535D01*
X43209736Y-133318540D01*
X43390659Y-133499463D01*
X43390664Y-133499467D01*
X43571207Y-133630638D01*
X43597653Y-133649852D01*
X43746680Y-133725785D01*
X43825624Y-133766010D01*
X43825627Y-133766011D01*
X43926851Y-133798900D01*
X44068961Y-133845074D01*
X44321670Y-133885100D01*
X44321671Y-133885100D01*
X44577529Y-133885100D01*
X44577530Y-133885100D01*
X44830239Y-133845074D01*
X45073575Y-133766010D01*
X45301547Y-133649852D01*
X45508542Y-133499462D01*
X45689462Y-133318542D01*
X45839852Y-133111547D01*
X45956010Y-132883575D01*
X46035074Y-132640239D01*
X46075100Y-132387530D01*
X46075100Y-132131670D01*
X46035074Y-131878961D01*
X45982125Y-131716000D01*
X45956011Y-131635627D01*
X45956010Y-131635624D01*
X45898628Y-131523007D01*
X45839852Y-131407653D01*
X45773191Y-131315901D01*
X45689467Y-131200664D01*
X45689463Y-131200659D01*
X45508540Y-131019736D01*
X45508535Y-131019732D01*
X45301550Y-130869350D01*
X45301549Y-130869349D01*
X45301547Y-130869348D01*
X45201109Y-130818172D01*
X45073575Y-130753189D01*
X45073572Y-130753188D01*
X44830240Y-130674126D01*
X44703884Y-130654113D01*
X44577530Y-130634100D01*
X44321670Y-130634100D01*
X44237433Y-130647442D01*
X44068959Y-130674126D01*
X43825627Y-130753188D01*
X43825624Y-130753189D01*
X43597649Y-130869350D01*
X43390664Y-131019732D01*
X43390659Y-131019736D01*
X43209736Y-131200659D01*
X43209732Y-131200664D01*
X43059350Y-131407649D01*
X42943189Y-131635624D01*
X42943188Y-131635627D01*
X42864126Y-131878959D01*
X42824100Y-132131670D01*
X40593100Y-132131670D01*
X40593100Y-124284343D01*
X53940700Y-124284343D01*
X53940700Y-124442457D01*
X53942365Y-124448669D01*
X53981623Y-124595183D01*
X53981626Y-124595190D01*
X54060675Y-124732109D01*
X54060679Y-124732114D01*
X54060680Y-124732116D01*
X54172484Y-124843920D01*
X54172486Y-124843921D01*
X54172490Y-124843924D01*
X54197673Y-124858463D01*
X54309416Y-124922977D01*
X54462143Y-124963900D01*
X54462145Y-124963900D01*
X54620255Y-124963900D01*
X54620257Y-124963900D01*
X54772984Y-124922977D01*
X54909916Y-124843920D01*
X55021720Y-124732116D01*
X55100777Y-124595184D01*
X55141700Y-124442457D01*
X55141700Y-124284343D01*
X55100777Y-124131616D01*
X55100773Y-124131609D01*
X55021724Y-123994690D01*
X55021718Y-123994682D01*
X54909917Y-123882881D01*
X54909909Y-123882875D01*
X54772990Y-123803826D01*
X54772986Y-123803824D01*
X54772984Y-123803823D01*
X54620257Y-123762900D01*
X54462143Y-123762900D01*
X54309416Y-123803823D01*
X54309409Y-123803826D01*
X54172490Y-123882875D01*
X54172482Y-123882881D01*
X54060681Y-123994682D01*
X54060675Y-123994690D01*
X53981626Y-124131609D01*
X53981623Y-124131616D01*
X53940700Y-124284343D01*
X40593100Y-124284343D01*
X40593100Y-122939920D01*
X52887570Y-122939920D01*
X52887570Y-123098034D01*
X52900732Y-123147153D01*
X52928493Y-123250760D01*
X52928496Y-123250767D01*
X53007545Y-123387686D01*
X53007549Y-123387691D01*
X53007550Y-123387693D01*
X53119354Y-123499497D01*
X53119356Y-123499498D01*
X53119360Y-123499501D01*
X53246375Y-123572832D01*
X53256286Y-123578554D01*
X53409013Y-123619477D01*
X53409015Y-123619477D01*
X53567125Y-123619477D01*
X53567127Y-123619477D01*
X53719854Y-123578554D01*
X53856786Y-123499497D01*
X53968590Y-123387693D01*
X54047647Y-123250761D01*
X54088570Y-123098034D01*
X54088570Y-122939920D01*
X54047647Y-122787193D01*
X54047643Y-122787186D01*
X53968594Y-122650267D01*
X53968588Y-122650259D01*
X53856787Y-122538458D01*
X53856779Y-122538452D01*
X53719860Y-122459403D01*
X53719856Y-122459401D01*
X53719854Y-122459400D01*
X53567127Y-122418477D01*
X53409013Y-122418477D01*
X53256286Y-122459400D01*
X53256279Y-122459403D01*
X53119360Y-122538452D01*
X53119352Y-122538458D01*
X53007551Y-122650259D01*
X53007545Y-122650267D01*
X52928496Y-122787186D01*
X52928493Y-122787193D01*
X52887570Y-122939920D01*
X40593100Y-122939920D01*
X40593100Y-120414553D01*
X50891700Y-120414553D01*
X50891700Y-120572246D01*
X50922461Y-120726889D01*
X50922464Y-120726901D01*
X50982802Y-120872572D01*
X50982809Y-120872585D01*
X51070410Y-121003688D01*
X51070413Y-121003692D01*
X51181907Y-121115186D01*
X51181911Y-121115189D01*
X51313014Y-121202790D01*
X51313027Y-121202797D01*
X51458698Y-121263135D01*
X51458703Y-121263137D01*
X51571662Y-121285606D01*
X51613353Y-121293899D01*
X51613356Y-121293900D01*
X51613358Y-121293900D01*
X51771044Y-121293900D01*
X51771045Y-121293899D01*
X51925697Y-121263137D01*
X52069945Y-121203388D01*
X52071372Y-121202797D01*
X52071372Y-121202796D01*
X52071379Y-121202794D01*
X52202489Y-121115189D01*
X52313989Y-121003689D01*
X52401594Y-120872579D01*
X52461937Y-120726897D01*
X52492700Y-120572242D01*
X52492700Y-120414558D01*
X52492700Y-120414555D01*
X52492699Y-120414553D01*
X52467654Y-120288644D01*
X52461937Y-120259903D01*
X52461935Y-120259898D01*
X52401597Y-120114227D01*
X52401590Y-120114214D01*
X52313989Y-119983111D01*
X52313986Y-119983107D01*
X52202492Y-119871613D01*
X52202488Y-119871610D01*
X52071385Y-119784009D01*
X52071372Y-119784002D01*
X51925701Y-119723664D01*
X51925689Y-119723661D01*
X51771045Y-119692900D01*
X51771042Y-119692900D01*
X51613358Y-119692900D01*
X51613355Y-119692900D01*
X51458710Y-119723661D01*
X51458698Y-119723664D01*
X51313027Y-119784002D01*
X51313014Y-119784009D01*
X51181911Y-119871610D01*
X51181907Y-119871613D01*
X51070413Y-119983107D01*
X51070410Y-119983111D01*
X50982809Y-120114214D01*
X50982802Y-120114227D01*
X50922464Y-120259898D01*
X50922461Y-120259910D01*
X50891700Y-120414553D01*
X40593100Y-120414553D01*
X40593100Y-119191153D01*
X55823500Y-119191153D01*
X55823500Y-119348846D01*
X55854261Y-119503489D01*
X55854264Y-119503501D01*
X55914602Y-119649172D01*
X55914609Y-119649185D01*
X56002210Y-119780288D01*
X56002213Y-119780292D01*
X56113707Y-119891786D01*
X56113711Y-119891789D01*
X56244814Y-119979390D01*
X56244827Y-119979397D01*
X56390498Y-120039735D01*
X56390503Y-120039737D01*
X56545153Y-120070499D01*
X56545156Y-120070500D01*
X56545158Y-120070500D01*
X56702844Y-120070500D01*
X56702845Y-120070499D01*
X56857497Y-120039737D01*
X57003179Y-119979394D01*
X57134289Y-119891789D01*
X57245789Y-119780289D01*
X57333394Y-119649179D01*
X57393737Y-119503497D01*
X57424500Y-119348842D01*
X57424500Y-119191158D01*
X57424500Y-119191155D01*
X57424499Y-119191153D01*
X57393738Y-119036510D01*
X57393737Y-119036503D01*
X57393735Y-119036498D01*
X57333397Y-118890827D01*
X57333390Y-118890814D01*
X57245789Y-118759711D01*
X57245786Y-118759707D01*
X57134292Y-118648213D01*
X57134288Y-118648210D01*
X57003185Y-118560609D01*
X57003172Y-118560602D01*
X56857501Y-118500264D01*
X56857489Y-118500261D01*
X56702845Y-118469500D01*
X56702842Y-118469500D01*
X56545158Y-118469500D01*
X56545155Y-118469500D01*
X56390510Y-118500261D01*
X56390498Y-118500264D01*
X56244827Y-118560602D01*
X56244814Y-118560609D01*
X56113711Y-118648210D01*
X56113707Y-118648213D01*
X56002213Y-118759707D01*
X56002210Y-118759711D01*
X55914609Y-118890814D01*
X55914602Y-118890827D01*
X55854264Y-119036498D01*
X55854261Y-119036510D01*
X55823500Y-119191153D01*
X40593100Y-119191153D01*
X40593100Y-106750131D01*
X50949378Y-106750131D01*
X50949378Y-108439856D01*
X50949380Y-108439882D01*
X50952291Y-108464987D01*
X50952293Y-108464991D01*
X50997671Y-108567764D01*
X50997672Y-108567765D01*
X51077113Y-108647206D01*
X51179887Y-108692585D01*
X51205013Y-108695500D01*
X53294742Y-108695499D01*
X53294757Y-108695497D01*
X53294760Y-108695497D01*
X53319865Y-108692586D01*
X53319866Y-108692585D01*
X53319869Y-108692585D01*
X53422643Y-108647206D01*
X53502084Y-108567765D01*
X53547463Y-108464991D01*
X53550378Y-108439865D01*
X53550377Y-106750136D01*
X53550375Y-106750117D01*
X53547464Y-106725012D01*
X53547463Y-106725010D01*
X53547463Y-106725009D01*
X53502084Y-106622235D01*
X53422643Y-106542794D01*
X53388968Y-106527925D01*
X53319870Y-106497415D01*
X53294743Y-106494500D01*
X51205021Y-106494500D01*
X51204995Y-106494502D01*
X51179890Y-106497413D01*
X51179886Y-106497415D01*
X51077113Y-106542793D01*
X50997672Y-106622234D01*
X50952293Y-106725006D01*
X50952293Y-106725008D01*
X50949378Y-106750131D01*
X40593100Y-106750131D01*
X40593100Y-87008389D01*
X50949378Y-87008389D01*
X50949378Y-87181610D01*
X50976453Y-87352561D01*
X50976476Y-87352701D01*
X51011815Y-87461463D01*
X51030006Y-87517447D01*
X51060442Y-87577181D01*
X51108646Y-87671788D01*
X51210464Y-87811928D01*
X51332950Y-87934414D01*
X51473090Y-88036232D01*
X51627433Y-88114873D01*
X51792177Y-88168402D01*
X51963267Y-88195500D01*
X51963268Y-88195500D01*
X52536488Y-88195500D01*
X52536489Y-88195500D01*
X52707579Y-88168402D01*
X52872323Y-88114873D01*
X53026666Y-88036232D01*
X53166806Y-87934414D01*
X53289292Y-87811928D01*
X53391110Y-87671788D01*
X53469751Y-87517445D01*
X53523280Y-87352701D01*
X53550378Y-87181611D01*
X53550378Y-87008389D01*
X53523280Y-86837299D01*
X53469751Y-86672555D01*
X53391110Y-86518212D01*
X53289292Y-86378072D01*
X53166806Y-86255586D01*
X53026666Y-86153768D01*
X52872323Y-86075127D01*
X52707579Y-86021598D01*
X52707577Y-86021597D01*
X52707576Y-86021597D01*
X52576149Y-86000781D01*
X52536489Y-85994500D01*
X51963267Y-85994500D01*
X51923606Y-86000781D01*
X51792180Y-86021597D01*
X51627430Y-86075128D01*
X51473089Y-86153768D01*
X51430469Y-86184734D01*
X51332950Y-86255586D01*
X51332948Y-86255588D01*
X51332947Y-86255588D01*
X51210466Y-86378069D01*
X51210466Y-86378070D01*
X51210464Y-86378072D01*
X51179135Y-86421193D01*
X51108646Y-86518211D01*
X51030006Y-86672552D01*
X50976475Y-86837302D01*
X50949378Y-87008389D01*
X40593100Y-87008389D01*
X40593100Y-85027943D01*
X57318900Y-85027943D01*
X57318900Y-85186056D01*
X57359823Y-85338783D01*
X57359826Y-85338790D01*
X57438875Y-85475709D01*
X57438879Y-85475714D01*
X57438880Y-85475716D01*
X57550684Y-85587520D01*
X57550686Y-85587521D01*
X57550690Y-85587524D01*
X57670508Y-85656700D01*
X57687616Y-85666577D01*
X57840343Y-85707500D01*
X57840345Y-85707500D01*
X57998455Y-85707500D01*
X57998457Y-85707500D01*
X58151184Y-85666577D01*
X58288116Y-85587520D01*
X58399920Y-85475716D01*
X58478977Y-85338784D01*
X58519900Y-85186057D01*
X58519900Y-85027943D01*
X58478977Y-84875216D01*
X58449644Y-84824409D01*
X58399924Y-84738290D01*
X58399918Y-84738282D01*
X58288117Y-84626481D01*
X58288109Y-84626475D01*
X58151190Y-84547426D01*
X58151186Y-84547424D01*
X58151184Y-84547423D01*
X57998457Y-84506500D01*
X57840343Y-84506500D01*
X57687616Y-84547423D01*
X57687609Y-84547426D01*
X57550690Y-84626475D01*
X57550682Y-84626481D01*
X57438881Y-84738282D01*
X57438875Y-84738290D01*
X57359826Y-84875209D01*
X57359823Y-84875216D01*
X57318900Y-85027943D01*
X40593100Y-85027943D01*
X40593100Y-84062743D01*
X59655700Y-84062743D01*
X59655700Y-84220857D01*
X59678627Y-84306420D01*
X59696623Y-84373583D01*
X59696626Y-84373590D01*
X59775675Y-84510509D01*
X59775679Y-84510514D01*
X59775680Y-84510516D01*
X59887484Y-84622320D01*
X59887486Y-84622321D01*
X59887490Y-84622324D01*
X60000349Y-84687482D01*
X60024416Y-84701377D01*
X60177143Y-84742300D01*
X60177145Y-84742300D01*
X60335255Y-84742300D01*
X60335257Y-84742300D01*
X60487984Y-84701377D01*
X60624916Y-84622320D01*
X60736720Y-84510516D01*
X60815777Y-84373584D01*
X60856700Y-84220857D01*
X60856700Y-84062743D01*
X60815777Y-83910016D01*
X60810105Y-83900191D01*
X60736724Y-83773090D01*
X60736718Y-83773082D01*
X60624917Y-83661281D01*
X60624909Y-83661275D01*
X60487990Y-83582226D01*
X60487986Y-83582224D01*
X60487984Y-83582223D01*
X60335257Y-83541300D01*
X60177143Y-83541300D01*
X60024416Y-83582223D01*
X60024409Y-83582226D01*
X59887490Y-83661275D01*
X59887482Y-83661281D01*
X59775681Y-83773082D01*
X59775675Y-83773090D01*
X59696626Y-83910009D01*
X59696623Y-83910016D01*
X59655700Y-84062743D01*
X40593100Y-84062743D01*
X40593100Y-82640343D01*
X58207900Y-82640343D01*
X58207900Y-82798457D01*
X58244817Y-82936231D01*
X58248823Y-82951183D01*
X58248826Y-82951190D01*
X58327875Y-83088109D01*
X58327879Y-83088114D01*
X58327880Y-83088116D01*
X58439684Y-83199920D01*
X58439686Y-83199921D01*
X58439690Y-83199924D01*
X58576609Y-83278973D01*
X58576616Y-83278977D01*
X58729343Y-83319900D01*
X58729345Y-83319900D01*
X58887455Y-83319900D01*
X58887457Y-83319900D01*
X59040184Y-83278977D01*
X59177116Y-83199920D01*
X59288920Y-83088116D01*
X59367977Y-82951184D01*
X59408900Y-82798457D01*
X59408900Y-82640343D01*
X59367977Y-82487616D01*
X59367973Y-82487609D01*
X59288924Y-82350690D01*
X59288918Y-82350682D01*
X59177117Y-82238881D01*
X59177109Y-82238875D01*
X59040190Y-82159826D01*
X59040186Y-82159824D01*
X59040184Y-82159823D01*
X58887457Y-82118900D01*
X58729343Y-82118900D01*
X58576616Y-82159823D01*
X58576609Y-82159826D01*
X58439690Y-82238875D01*
X58439682Y-82238881D01*
X58327881Y-82350682D01*
X58327875Y-82350690D01*
X58248826Y-82487609D01*
X58248823Y-82487616D01*
X58207900Y-82640343D01*
X40593100Y-82640343D01*
X40593100Y-80451331D01*
X42260300Y-80451331D01*
X42260300Y-82041056D01*
X42260302Y-82041082D01*
X42263213Y-82066187D01*
X42263215Y-82066191D01*
X42308593Y-82168964D01*
X42308594Y-82168965D01*
X42388035Y-82248406D01*
X42490809Y-82293785D01*
X42515935Y-82296700D01*
X43655664Y-82296699D01*
X43655679Y-82296697D01*
X43655682Y-82296697D01*
X43680787Y-82293786D01*
X43680788Y-82293785D01*
X43680791Y-82293785D01*
X43783565Y-82248406D01*
X43811561Y-82220409D01*
X43872881Y-82186925D01*
X43942573Y-82191909D01*
X43959132Y-82200383D01*
X43959404Y-82199875D01*
X43964785Y-82202751D01*
X44075005Y-82248405D01*
X44115011Y-82264976D01*
X44115015Y-82264976D01*
X44115016Y-82264977D01*
X44274492Y-82296700D01*
X44274495Y-82296700D01*
X44437107Y-82296700D01*
X44544398Y-82275357D01*
X44596589Y-82264976D01*
X44746821Y-82202748D01*
X44758692Y-82194816D01*
X44825365Y-82173936D01*
X44892746Y-82192418D01*
X44915266Y-82210235D01*
X44972401Y-82267371D01*
X45140273Y-82379540D01*
X45140286Y-82379547D01*
X45326816Y-82456809D01*
X45326825Y-82456812D01*
X45375800Y-82466553D01*
X45375800Y-81526530D01*
X45395545Y-81546275D01*
X45481055Y-81595644D01*
X45576430Y-81621200D01*
X45675170Y-81621200D01*
X45770545Y-81595644D01*
X45856055Y-81546275D01*
X45875800Y-81526530D01*
X45875800Y-82466552D01*
X45924774Y-82456812D01*
X45924783Y-82456809D01*
X46111313Y-82379547D01*
X46111326Y-82379540D01*
X46279199Y-82267370D01*
X46279203Y-82267367D01*
X46421967Y-82124603D01*
X46421970Y-82124599D01*
X46534140Y-81956726D01*
X46534147Y-81956713D01*
X46611409Y-81770183D01*
X46611412Y-81770174D01*
X46650799Y-81572158D01*
X46650800Y-81572155D01*
X46650800Y-81496200D01*
X45906130Y-81496200D01*
X45925875Y-81476455D01*
X45975244Y-81390945D01*
X46000800Y-81295570D01*
X46000800Y-81196830D01*
X45975244Y-81101455D01*
X45925875Y-81015945D01*
X45906130Y-80996200D01*
X46650800Y-80996200D01*
X46650800Y-80920245D01*
X46650799Y-80920241D01*
X46611412Y-80722225D01*
X46611409Y-80722216D01*
X46534147Y-80535686D01*
X46534140Y-80535673D01*
X46421970Y-80367800D01*
X46421967Y-80367796D01*
X46279203Y-80225032D01*
X46279199Y-80225029D01*
X46111326Y-80112859D01*
X46111313Y-80112852D01*
X45924784Y-80035590D01*
X45924777Y-80035588D01*
X45875800Y-80025845D01*
X45875800Y-80965870D01*
X45856055Y-80946125D01*
X45770545Y-80896756D01*
X45675170Y-80871200D01*
X45576430Y-80871200D01*
X45481055Y-80896756D01*
X45395545Y-80946125D01*
X45375800Y-80965870D01*
X45375800Y-80025846D01*
X45375799Y-80025845D01*
X45326822Y-80035588D01*
X45326815Y-80035590D01*
X45140286Y-80112852D01*
X45140273Y-80112859D01*
X44972403Y-80225027D01*
X44915264Y-80282165D01*
X44853940Y-80315649D01*
X44784249Y-80310663D01*
X44758693Y-80297584D01*
X44746827Y-80289655D01*
X44746814Y-80289648D01*
X44596593Y-80227425D01*
X44596583Y-80227422D01*
X44437107Y-80195700D01*
X44437105Y-80195700D01*
X44274495Y-80195700D01*
X44274493Y-80195700D01*
X44115016Y-80227422D01*
X44115006Y-80227425D01*
X43964780Y-80289650D01*
X43959409Y-80292522D01*
X43958326Y-80290496D01*
X43901375Y-80308290D01*
X43834006Y-80289762D01*
X43811560Y-80271989D01*
X43783565Y-80243994D01*
X43680792Y-80198615D01*
X43655665Y-80195700D01*
X42515943Y-80195700D01*
X42515917Y-80195702D01*
X42490812Y-80198613D01*
X42490808Y-80198615D01*
X42388035Y-80243993D01*
X42308594Y-80323434D01*
X42263215Y-80426206D01*
X42263215Y-80426208D01*
X42260300Y-80451331D01*
X40593100Y-80451331D01*
X40593100Y-74131670D01*
X42824100Y-74131670D01*
X42824100Y-74387529D01*
X42864126Y-74640240D01*
X42943188Y-74883572D01*
X42943189Y-74883575D01*
X43059350Y-75111550D01*
X43209732Y-75318535D01*
X43209736Y-75318540D01*
X43390659Y-75499463D01*
X43390664Y-75499467D01*
X43571207Y-75630638D01*
X43597653Y-75649852D01*
X43746680Y-75725785D01*
X43825624Y-75766010D01*
X43825627Y-75766011D01*
X43947293Y-75805542D01*
X44068961Y-75845074D01*
X44321670Y-75885100D01*
X44321671Y-75885100D01*
X44577529Y-75885100D01*
X44577530Y-75885100D01*
X44830239Y-75845074D01*
X45073575Y-75766010D01*
X45301547Y-75649852D01*
X45508542Y-75499462D01*
X45689462Y-75318542D01*
X45839852Y-75111547D01*
X45956010Y-74883575D01*
X46035074Y-74640239D01*
X46075100Y-74387530D01*
X46075100Y-74131670D01*
X46035074Y-73878961D01*
X45956010Y-73635625D01*
X45956010Y-73635624D01*
X45915785Y-73556680D01*
X45839852Y-73407653D01*
X45816815Y-73375945D01*
X45689467Y-73200664D01*
X45689463Y-73200659D01*
X45508540Y-73019736D01*
X45508535Y-73019732D01*
X45301550Y-72869350D01*
X45301549Y-72869349D01*
X45301547Y-72869348D01*
X45205715Y-72820519D01*
X45073575Y-72753189D01*
X45073572Y-72753188D01*
X44830240Y-72674126D01*
X44703884Y-72654113D01*
X44577530Y-72634100D01*
X44321670Y-72634100D01*
X44237433Y-72647442D01*
X44068959Y-72674126D01*
X43825627Y-72753188D01*
X43825624Y-72753189D01*
X43597649Y-72869350D01*
X43390664Y-73019732D01*
X43390659Y-73019736D01*
X43209736Y-73200659D01*
X43209732Y-73200664D01*
X43059350Y-73407649D01*
X42943189Y-73635624D01*
X42943188Y-73635627D01*
X42864126Y-73878959D01*
X42824100Y-74131670D01*
X40593100Y-74131670D01*
X40593100Y-66793753D01*
X54550000Y-66793753D01*
X54550000Y-67006246D01*
X54583242Y-67216127D01*
X54583242Y-67216130D01*
X54648904Y-67418217D01*
X54745375Y-67607550D01*
X54784728Y-67661716D01*
X55417037Y-67029408D01*
X55434075Y-67092993D01*
X55499901Y-67207007D01*
X55592993Y-67300099D01*
X55707007Y-67365925D01*
X55770590Y-67382962D01*
X55138282Y-68015269D01*
X55138282Y-68015270D01*
X55192449Y-68054624D01*
X55381782Y-68151095D01*
X55583870Y-68216757D01*
X55793754Y-68250000D01*
X56006246Y-68250000D01*
X56216127Y-68216757D01*
X56216130Y-68216757D01*
X56418217Y-68151095D01*
X56607554Y-68054622D01*
X56661716Y-68015270D01*
X56661717Y-68015270D01*
X56029408Y-67382962D01*
X56092993Y-67365925D01*
X56207007Y-67300099D01*
X56300099Y-67207007D01*
X56365925Y-67092993D01*
X56382962Y-67029408D01*
X57015270Y-67661717D01*
X57015270Y-67661716D01*
X57054622Y-67607554D01*
X57151095Y-67418217D01*
X57160492Y-67389295D01*
X57199928Y-67331618D01*
X57264286Y-67304419D01*
X57333133Y-67316331D01*
X57384610Y-67363574D01*
X57388908Y-67371314D01*
X57456004Y-67502995D01*
X57562441Y-67649494D01*
X57562445Y-67649499D01*
X57690500Y-67777554D01*
X57690505Y-67777558D01*
X57818287Y-67870396D01*
X57837006Y-67883996D01*
X57913094Y-67922765D01*
X57998360Y-67966211D01*
X57998363Y-67966212D01*
X58084476Y-67994191D01*
X58170591Y-68022171D01*
X58253429Y-68035291D01*
X58349449Y-68050500D01*
X58349454Y-68050500D01*
X58530551Y-68050500D01*
X58617259Y-68036765D01*
X58709409Y-68022171D01*
X58881639Y-67966211D01*
X59042994Y-67883996D01*
X59189501Y-67777553D01*
X59317553Y-67649501D01*
X59423996Y-67502994D01*
X59506211Y-67341639D01*
X59562171Y-67169409D01*
X59583027Y-67037729D01*
X59587527Y-67009321D01*
X59617456Y-66946186D01*
X59676768Y-66909255D01*
X59746630Y-66910253D01*
X59804863Y-66948863D01*
X59832473Y-67009321D01*
X59857829Y-67169410D01*
X59913787Y-67341636D01*
X59913788Y-67341639D01*
X59996006Y-67502997D01*
X60102441Y-67649494D01*
X60102445Y-67649499D01*
X60230500Y-67777554D01*
X60230505Y-67777558D01*
X60358287Y-67870396D01*
X60377006Y-67883996D01*
X60453094Y-67922765D01*
X60538360Y-67966211D01*
X60538363Y-67966212D01*
X60624476Y-67994191D01*
X60710591Y-68022171D01*
X60793429Y-68035291D01*
X60889449Y-68050500D01*
X60889454Y-68050500D01*
X61070551Y-68050500D01*
X61157259Y-68036765D01*
X61249409Y-68022171D01*
X61421639Y-67966211D01*
X61582994Y-67883996D01*
X61729501Y-67777553D01*
X61857553Y-67649501D01*
X61963996Y-67502994D01*
X62046211Y-67341639D01*
X62102171Y-67169409D01*
X62123027Y-67037729D01*
X62152956Y-66974595D01*
X62212267Y-66937663D01*
X62282130Y-66938661D01*
X62340363Y-66977271D01*
X62368477Y-67041234D01*
X62369500Y-67057127D01*
X62369500Y-67794856D01*
X62369502Y-67794882D01*
X62372413Y-67819987D01*
X62372415Y-67819991D01*
X62417793Y-67922764D01*
X62417794Y-67922765D01*
X62497235Y-68002206D01*
X62600009Y-68047585D01*
X62625135Y-68050500D01*
X64414864Y-68050499D01*
X64414879Y-68050497D01*
X64414882Y-68050497D01*
X64439987Y-68047586D01*
X64439988Y-68047585D01*
X64439991Y-68047585D01*
X64542765Y-68002206D01*
X64622206Y-67922765D01*
X64667585Y-67819991D01*
X64670500Y-67794865D01*
X64670499Y-66005136D01*
X64670497Y-66005117D01*
X64667586Y-65980012D01*
X64667585Y-65980010D01*
X64667585Y-65980009D01*
X64622206Y-65877235D01*
X64542765Y-65797794D01*
X64542763Y-65797793D01*
X64439992Y-65752415D01*
X64414865Y-65749500D01*
X62625143Y-65749500D01*
X62625117Y-65749502D01*
X62600012Y-65752413D01*
X62600008Y-65752415D01*
X62497235Y-65797793D01*
X62417794Y-65877234D01*
X62372415Y-65980006D01*
X62372415Y-65980008D01*
X62369500Y-66005131D01*
X62369500Y-66742871D01*
X62349815Y-66809910D01*
X62297011Y-66855665D01*
X62227853Y-66865609D01*
X62164297Y-66836584D01*
X62126523Y-66777806D01*
X62123027Y-66762269D01*
X62110836Y-66685299D01*
X62102171Y-66630591D01*
X62051207Y-66473737D01*
X62046212Y-66458363D01*
X62046211Y-66458360D01*
X61980459Y-66329317D01*
X61963996Y-66297006D01*
X61950396Y-66278287D01*
X61857558Y-66150505D01*
X61857554Y-66150500D01*
X61729499Y-66022445D01*
X61729494Y-66022441D01*
X61582997Y-65916006D01*
X61582996Y-65916005D01*
X61582994Y-65916004D01*
X61506906Y-65877235D01*
X61421639Y-65833788D01*
X61421636Y-65833787D01*
X61249410Y-65777829D01*
X61070551Y-65749500D01*
X61070546Y-65749500D01*
X60889454Y-65749500D01*
X60889449Y-65749500D01*
X60710589Y-65777829D01*
X60538363Y-65833787D01*
X60538360Y-65833788D01*
X60377002Y-65916006D01*
X60230505Y-66022441D01*
X60230500Y-66022445D01*
X60102445Y-66150500D01*
X60102441Y-66150505D01*
X59996006Y-66297002D01*
X59913788Y-66458360D01*
X59913787Y-66458363D01*
X59857829Y-66630589D01*
X59832473Y-66790678D01*
X59802544Y-66853813D01*
X59743232Y-66890744D01*
X59673369Y-66889746D01*
X59615137Y-66851136D01*
X59587527Y-66790678D01*
X59570836Y-66685299D01*
X59562171Y-66630591D01*
X59511207Y-66473737D01*
X59506212Y-66458363D01*
X59506211Y-66458360D01*
X59440459Y-66329317D01*
X59423996Y-66297006D01*
X59410396Y-66278287D01*
X59317558Y-66150505D01*
X59317554Y-66150500D01*
X59189499Y-66022445D01*
X59189494Y-66022441D01*
X59042997Y-65916006D01*
X59042996Y-65916005D01*
X59042994Y-65916004D01*
X58966906Y-65877235D01*
X58881639Y-65833788D01*
X58881636Y-65833787D01*
X58709410Y-65777829D01*
X58530551Y-65749500D01*
X58530546Y-65749500D01*
X58349454Y-65749500D01*
X58349449Y-65749500D01*
X58170589Y-65777829D01*
X57998363Y-65833787D01*
X57998360Y-65833788D01*
X57837002Y-65916006D01*
X57690505Y-66022441D01*
X57690500Y-66022445D01*
X57562445Y-66150500D01*
X57562441Y-66150505D01*
X57456004Y-66297004D01*
X57388908Y-66428685D01*
X57340933Y-66479480D01*
X57273112Y-66496275D01*
X57206977Y-66473737D01*
X57163527Y-66419021D01*
X57160492Y-66410705D01*
X57151094Y-66381780D01*
X57054624Y-66192449D01*
X57015270Y-66138282D01*
X57015269Y-66138282D01*
X56382962Y-66770590D01*
X56365925Y-66707007D01*
X56300099Y-66592993D01*
X56207007Y-66499901D01*
X56092993Y-66434075D01*
X56029409Y-66417037D01*
X56661716Y-65784728D01*
X56607550Y-65745375D01*
X56418217Y-65648904D01*
X56216129Y-65583242D01*
X56006246Y-65550000D01*
X55793754Y-65550000D01*
X55583872Y-65583242D01*
X55583869Y-65583242D01*
X55381782Y-65648904D01*
X55192439Y-65745380D01*
X55138282Y-65784727D01*
X55138282Y-65784728D01*
X55770591Y-66417037D01*
X55707007Y-66434075D01*
X55592993Y-66499901D01*
X55499901Y-66592993D01*
X55434075Y-66707007D01*
X55417037Y-66770591D01*
X54784728Y-66138282D01*
X54784727Y-66138282D01*
X54745380Y-66192439D01*
X54648904Y-66381782D01*
X54583242Y-66583869D01*
X54583242Y-66583872D01*
X54550000Y-66793753D01*
X40593100Y-66793753D01*
X40593100Y-65041502D01*
X43149100Y-65041502D01*
X43149100Y-65277697D01*
X43186046Y-65510968D01*
X43259033Y-65735596D01*
X43350956Y-65916004D01*
X43366257Y-65946033D01*
X43505083Y-66137110D01*
X43672090Y-66304117D01*
X43863167Y-66442943D01*
X43912623Y-66468142D01*
X44073603Y-66550166D01*
X44073605Y-66550166D01*
X44073608Y-66550168D01*
X44177329Y-66583869D01*
X44298231Y-66623153D01*
X44531503Y-66660100D01*
X44531508Y-66660100D01*
X44767697Y-66660100D01*
X45000968Y-66623153D01*
X45035893Y-66611805D01*
X45225592Y-66550168D01*
X45436033Y-66442943D01*
X45627110Y-66304117D01*
X45794117Y-66137110D01*
X45932943Y-65946033D01*
X46040168Y-65735592D01*
X46113153Y-65510968D01*
X46115628Y-65495343D01*
X46150100Y-65277697D01*
X46150100Y-65041502D01*
X46113153Y-64808231D01*
X46055702Y-64631416D01*
X46040168Y-64583608D01*
X46040166Y-64583605D01*
X46040166Y-64583603D01*
X45945783Y-64398367D01*
X45932943Y-64373167D01*
X45794117Y-64182090D01*
X45627110Y-64015083D01*
X45488988Y-63914731D01*
X48229100Y-63914731D01*
X48229100Y-66404456D01*
X48229102Y-66404482D01*
X48232013Y-66429587D01*
X48232015Y-66429591D01*
X48277393Y-66532364D01*
X48277394Y-66532365D01*
X48356835Y-66611806D01*
X48459609Y-66657185D01*
X48484735Y-66660100D01*
X50974464Y-66660099D01*
X50974479Y-66660097D01*
X50974482Y-66660097D01*
X50999587Y-66657186D01*
X50999588Y-66657185D01*
X50999591Y-66657185D01*
X51102365Y-66611806D01*
X51181806Y-66532365D01*
X51227185Y-66429591D01*
X51230100Y-66404465D01*
X51230099Y-65495343D01*
X69826100Y-65495343D01*
X69826100Y-65653457D01*
X69859426Y-65777829D01*
X69867023Y-65806183D01*
X69867026Y-65806190D01*
X69946075Y-65943109D01*
X69946079Y-65943114D01*
X69946080Y-65943116D01*
X70057884Y-66054920D01*
X70057886Y-66054921D01*
X70057890Y-66054924D01*
X70194809Y-66133973D01*
X70194816Y-66133977D01*
X70347543Y-66174900D01*
X70347545Y-66174900D01*
X70505655Y-66174900D01*
X70505657Y-66174900D01*
X70658384Y-66133977D01*
X70795316Y-66054920D01*
X70907120Y-65943116D01*
X70986177Y-65806184D01*
X71027100Y-65653457D01*
X71027100Y-65495343D01*
X70986177Y-65342616D01*
X70986173Y-65342609D01*
X70907124Y-65205690D01*
X70907118Y-65205682D01*
X70795317Y-65093881D01*
X70795309Y-65093875D01*
X70748243Y-65066702D01*
X73914900Y-65066702D01*
X73914900Y-65302897D01*
X73951846Y-65536168D01*
X74024833Y-65760796D01*
X74103916Y-65916004D01*
X74132057Y-65971233D01*
X74270883Y-66162310D01*
X74437890Y-66329317D01*
X74628967Y-66468143D01*
X74691296Y-66499901D01*
X74839403Y-66575366D01*
X74839405Y-66575366D01*
X74839408Y-66575368D01*
X74951549Y-66611805D01*
X75064031Y-66648353D01*
X75297303Y-66685300D01*
X75297308Y-66685300D01*
X75533497Y-66685300D01*
X75766768Y-66648353D01*
X75801693Y-66637005D01*
X75991392Y-66575368D01*
X76201833Y-66468143D01*
X76392910Y-66329317D01*
X76559917Y-66162310D01*
X76698743Y-65971233D01*
X76805968Y-65760792D01*
X76878953Y-65536168D01*
X76890431Y-65463699D01*
X76915900Y-65302897D01*
X76915900Y-65066702D01*
X78994900Y-65066702D01*
X78994900Y-65302897D01*
X79031846Y-65536168D01*
X79104833Y-65760796D01*
X79183916Y-65916004D01*
X79212057Y-65971233D01*
X79350883Y-66162310D01*
X79517890Y-66329317D01*
X79708967Y-66468143D01*
X79771296Y-66499901D01*
X79919403Y-66575366D01*
X79919405Y-66575366D01*
X79919408Y-66575368D01*
X80031549Y-66611805D01*
X80144031Y-66648353D01*
X80377303Y-66685300D01*
X80377308Y-66685300D01*
X80613497Y-66685300D01*
X80846768Y-66648353D01*
X80881693Y-66637005D01*
X81071392Y-66575368D01*
X81281833Y-66468143D01*
X81472910Y-66329317D01*
X81639917Y-66162310D01*
X81778743Y-65971233D01*
X81885968Y-65760792D01*
X81958953Y-65536168D01*
X81970431Y-65463699D01*
X81995900Y-65302897D01*
X81995900Y-65066702D01*
X81958953Y-64833431D01*
X81893314Y-64631416D01*
X81885968Y-64608808D01*
X81885966Y-64608805D01*
X81885966Y-64608803D01*
X81778742Y-64398366D01*
X81767346Y-64382681D01*
X81639917Y-64207290D01*
X81472910Y-64040283D01*
X81334788Y-63939931D01*
X84074900Y-63939931D01*
X84074900Y-66429656D01*
X84074902Y-66429682D01*
X84077813Y-66454787D01*
X84077815Y-66454791D01*
X84123193Y-66557564D01*
X84123194Y-66557565D01*
X84202635Y-66637006D01*
X84305409Y-66682385D01*
X84330535Y-66685300D01*
X86820264Y-66685299D01*
X86820279Y-66685297D01*
X86820282Y-66685297D01*
X86845387Y-66682386D01*
X86845388Y-66682385D01*
X86845391Y-66682385D01*
X86948165Y-66637006D01*
X87027606Y-66557565D01*
X87072985Y-66454791D01*
X87075900Y-66429665D01*
X87075899Y-63939936D01*
X87075897Y-63939917D01*
X87072986Y-63914812D01*
X87072985Y-63914810D01*
X87072985Y-63914809D01*
X87027606Y-63812035D01*
X86948165Y-63732594D01*
X86948163Y-63732593D01*
X86845392Y-63687215D01*
X86820265Y-63684300D01*
X84330543Y-63684300D01*
X84330517Y-63684302D01*
X84305412Y-63687213D01*
X84305408Y-63687215D01*
X84202635Y-63732593D01*
X84123194Y-63812034D01*
X84077815Y-63914806D01*
X84077815Y-63914808D01*
X84074900Y-63939931D01*
X81334788Y-63939931D01*
X81281833Y-63901457D01*
X81258574Y-63889606D01*
X81071396Y-63794233D01*
X80846768Y-63721246D01*
X80613497Y-63684300D01*
X80613492Y-63684300D01*
X80377308Y-63684300D01*
X80377303Y-63684300D01*
X80144031Y-63721246D01*
X79919403Y-63794233D01*
X79708966Y-63901457D01*
X79599950Y-63980662D01*
X79517890Y-64040283D01*
X79517888Y-64040285D01*
X79517887Y-64040285D01*
X79350885Y-64207287D01*
X79350885Y-64207288D01*
X79350883Y-64207290D01*
X79310625Y-64262700D01*
X79212057Y-64398366D01*
X79104833Y-64608803D01*
X79031846Y-64833431D01*
X78994900Y-65066702D01*
X76915900Y-65066702D01*
X76878953Y-64833431D01*
X76813314Y-64631416D01*
X76805968Y-64608808D01*
X76805966Y-64608805D01*
X76805966Y-64608803D01*
X76698742Y-64398366D01*
X76687346Y-64382681D01*
X76559917Y-64207290D01*
X76392910Y-64040283D01*
X76201833Y-63901457D01*
X76178574Y-63889606D01*
X75991396Y-63794233D01*
X75766768Y-63721246D01*
X75533497Y-63684300D01*
X75533492Y-63684300D01*
X75297308Y-63684300D01*
X75297303Y-63684300D01*
X75064031Y-63721246D01*
X74839403Y-63794233D01*
X74628966Y-63901457D01*
X74519950Y-63980662D01*
X74437890Y-64040283D01*
X74437888Y-64040285D01*
X74437887Y-64040285D01*
X74270885Y-64207287D01*
X74270885Y-64207288D01*
X74270883Y-64207290D01*
X74230625Y-64262700D01*
X74132057Y-64398366D01*
X74024833Y-64608803D01*
X73951846Y-64833431D01*
X73914900Y-65066702D01*
X70748243Y-65066702D01*
X70658390Y-65014826D01*
X70658386Y-65014824D01*
X70658384Y-65014823D01*
X70505657Y-64973900D01*
X70347543Y-64973900D01*
X70194816Y-65014823D01*
X70194809Y-65014826D01*
X70057890Y-65093875D01*
X70057882Y-65093881D01*
X69946081Y-65205682D01*
X69946075Y-65205690D01*
X69867026Y-65342609D01*
X69867023Y-65342616D01*
X69826100Y-65495343D01*
X51230099Y-65495343D01*
X51230099Y-64784143D01*
X63846700Y-64784143D01*
X63846700Y-64942257D01*
X63887328Y-65093881D01*
X63887623Y-65094983D01*
X63887626Y-65094990D01*
X63966675Y-65231909D01*
X63966679Y-65231914D01*
X63966680Y-65231916D01*
X64078484Y-65343720D01*
X64078486Y-65343721D01*
X64078490Y-65343724D01*
X64141025Y-65379828D01*
X64215416Y-65422777D01*
X64368143Y-65463700D01*
X64368145Y-65463700D01*
X64526255Y-65463700D01*
X64526257Y-65463700D01*
X64678984Y-65422777D01*
X64815916Y-65343720D01*
X64927720Y-65231916D01*
X65006777Y-65094984D01*
X65047700Y-64942257D01*
X65047700Y-64784143D01*
X65006777Y-64631416D01*
X65006773Y-64631409D01*
X64927724Y-64494490D01*
X64927718Y-64494482D01*
X64815917Y-64382681D01*
X64815909Y-64382675D01*
X64678990Y-64303626D01*
X64678986Y-64303624D01*
X64678984Y-64303623D01*
X64526257Y-64262700D01*
X64368143Y-64262700D01*
X64215416Y-64303623D01*
X64215409Y-64303626D01*
X64078490Y-64382675D01*
X64078482Y-64382681D01*
X63966681Y-64494482D01*
X63966675Y-64494490D01*
X63887626Y-64631409D01*
X63887623Y-64631416D01*
X63846700Y-64784143D01*
X51230099Y-64784143D01*
X51230099Y-63914736D01*
X51228559Y-63901457D01*
X51227186Y-63889612D01*
X51227185Y-63889610D01*
X51227185Y-63889609D01*
X51181806Y-63786835D01*
X51102365Y-63707394D01*
X51102363Y-63707393D01*
X50999592Y-63662015D01*
X50974465Y-63659100D01*
X48484743Y-63659100D01*
X48484717Y-63659102D01*
X48459612Y-63662013D01*
X48459608Y-63662015D01*
X48356835Y-63707393D01*
X48277394Y-63786834D01*
X48232015Y-63889606D01*
X48232015Y-63889608D01*
X48229100Y-63914731D01*
X45488988Y-63914731D01*
X45436033Y-63876257D01*
X45225596Y-63769033D01*
X45000968Y-63696046D01*
X44767697Y-63659100D01*
X44767692Y-63659100D01*
X44531508Y-63659100D01*
X44531503Y-63659100D01*
X44298231Y-63696046D01*
X44073603Y-63769033D01*
X43863166Y-63876257D01*
X43775511Y-63939943D01*
X43672090Y-64015083D01*
X43672088Y-64015085D01*
X43672087Y-64015085D01*
X43505085Y-64182087D01*
X43505085Y-64182088D01*
X43505083Y-64182090D01*
X43486776Y-64207288D01*
X43366257Y-64373166D01*
X43259033Y-64583603D01*
X43186046Y-64808231D01*
X43149100Y-65041502D01*
X40593100Y-65041502D01*
X40593100Y-62015543D01*
X63846700Y-62015543D01*
X63846700Y-62173656D01*
X63887623Y-62326383D01*
X63887626Y-62326390D01*
X63966675Y-62463309D01*
X63966679Y-62463314D01*
X63966680Y-62463316D01*
X64078484Y-62575120D01*
X64078486Y-62575121D01*
X64078490Y-62575124D01*
X64215409Y-62654173D01*
X64215416Y-62654177D01*
X64368143Y-62695100D01*
X64368145Y-62695100D01*
X64526255Y-62695100D01*
X64526257Y-62695100D01*
X64678984Y-62654177D01*
X64815916Y-62575120D01*
X64927720Y-62463316D01*
X65006777Y-62326384D01*
X65047700Y-62173657D01*
X65047700Y-62015543D01*
X65006777Y-61862816D01*
X65006773Y-61862809D01*
X64927724Y-61725890D01*
X64927718Y-61725882D01*
X64815917Y-61614081D01*
X64815909Y-61614075D01*
X64678990Y-61535026D01*
X64678986Y-61535024D01*
X64678984Y-61535023D01*
X64526257Y-61494100D01*
X64368143Y-61494100D01*
X64215416Y-61535023D01*
X64215409Y-61535026D01*
X64078490Y-61614075D01*
X64078482Y-61614081D01*
X63966681Y-61725882D01*
X63966675Y-61725890D01*
X63887626Y-61862809D01*
X63887623Y-61862816D01*
X63846700Y-62015543D01*
X40593100Y-62015543D01*
X40593100Y-60508300D01*
X40612785Y-60441261D01*
X40665589Y-60395506D01*
X40717100Y-60384300D01*
X89388100Y-60384300D01*
X89455139Y-60403985D01*
G37*
%TD.AperFunction*%
%TD*%
M02*
