%TF.GenerationSoftware,KiCad,Pcbnew,9.0.6*%
%TF.CreationDate,2025-12-26T20:19:53+00:00*%
%TF.ProjectId,PIDI-BOX-01-MAIN-1-PZ2_ESP-A1,50494449-2d42-44f5-982d-30312d4d4149,01*%
%TF.SameCoordinates,Original*%
%TF.FileFunction,Copper,L4,Bot*%
%TF.FilePolarity,Positive*%
%FSLAX46Y46*%
G04 Gerber Fmt 4.6, Leading zero omitted, Abs format (unit mm)*
G04 Created by KiCad (PCBNEW 9.0.6) date 2025-12-26 20:19:53*
%MOMM*%
%LPD*%
G01*
G04 APERTURE LIST*
G04 Aperture macros list*
%AMRoundRect*
0 Rectangle with rounded corners*
0 $1 Rounding radius*
0 $2 $3 $4 $5 $6 $7 $8 $9 X,Y pos of 4 corners*
0 Add a 4 corners polygon primitive as box body*
4,1,4,$2,$3,$4,$5,$6,$7,$8,$9,$2,$3,0*
0 Add four circle primitives for the rounded corners*
1,1,$1+$1,$2,$3*
1,1,$1+$1,$4,$5*
1,1,$1+$1,$6,$7*
1,1,$1+$1,$8,$9*
0 Add four rect primitives between the rounded corners*
20,1,$1+$1,$2,$3,$4,$5,0*
20,1,$1+$1,$4,$5,$6,$7,0*
20,1,$1+$1,$6,$7,$8,$9,0*
20,1,$1+$1,$8,$9,$2,$3,0*%
%AMRotRect*
0 Rectangle, with rotation*
0 The origin of the aperture is its center*
0 $1 length*
0 $2 width*
0 $3 Rotation angle, in degrees counterclockwise*
0 Add horizontal line*
21,1,$1,$2,0,0,$3*%
G04 Aperture macros list end*
%ADD10C,0.200000*%
%TA.AperFunction,NonConductor*%
%ADD11C,0.200000*%
%TD*%
%TA.AperFunction,ComponentPad*%
%ADD12R,2.400000X2.400000*%
%TD*%
%TA.AperFunction,ComponentPad*%
%ADD13C,2.400000*%
%TD*%
%TA.AperFunction,ComponentPad*%
%ADD14R,1.700000X1.700000*%
%TD*%
%TA.AperFunction,ComponentPad*%
%ADD15C,1.700000*%
%TD*%
%TA.AperFunction,ComponentPad*%
%ADD16O,1.700000X1.700000*%
%TD*%
%TA.AperFunction,ComponentPad*%
%ADD17R,1.650000X1.650000*%
%TD*%
%TA.AperFunction,ComponentPad*%
%ADD18C,1.650000*%
%TD*%
%TA.AperFunction,ComponentPad*%
%ADD19RotRect,2.000000X2.000000X45.000000*%
%TD*%
%TA.AperFunction,ComponentPad*%
%ADD20C,2.000000*%
%TD*%
%TA.AperFunction,ComponentPad*%
%ADD21RoundRect,0.250000X0.600000X0.600000X-0.600000X0.600000X-0.600000X-0.600000X0.600000X-0.600000X0*%
%TD*%
%TA.AperFunction,ComponentPad*%
%ADD22R,2.000000X1.600000*%
%TD*%
%TA.AperFunction,ComponentPad*%
%ADD23O,2.000000X1.600000*%
%TD*%
%TA.AperFunction,ComponentPad*%
%ADD24R,1.050000X1.500000*%
%TD*%
%TA.AperFunction,ComponentPad*%
%ADD25O,1.050000X1.500000*%
%TD*%
%TA.AperFunction,ViaPad*%
%ADD26C,1.000000*%
%TD*%
%TA.AperFunction,ViaPad*%
%ADD27C,0.600000*%
%TD*%
%TA.AperFunction,ViaPad*%
%ADD28C,2.000000*%
%TD*%
%TA.AperFunction,ViaPad*%
%ADD29C,1.500000*%
%TD*%
%TA.AperFunction,Conductor*%
%ADD30C,0.300000*%
%TD*%
%TA.AperFunction,Conductor*%
%ADD31C,0.200000*%
%TD*%
%TA.AperFunction,Conductor*%
%ADD32C,0.800000*%
%TD*%
G04 APERTURE END LIST*
D10*
D11*
X42816819Y-86769691D02*
X41816819Y-86769691D01*
X41816819Y-86769691D02*
X41816819Y-87150643D01*
X41816819Y-87150643D02*
X41864438Y-87245881D01*
X41864438Y-87245881D02*
X41912057Y-87293500D01*
X41912057Y-87293500D02*
X42007295Y-87341119D01*
X42007295Y-87341119D02*
X42150152Y-87341119D01*
X42150152Y-87341119D02*
X42245390Y-87293500D01*
X42245390Y-87293500D02*
X42293009Y-87245881D01*
X42293009Y-87245881D02*
X42340628Y-87150643D01*
X42340628Y-87150643D02*
X42340628Y-86769691D01*
X42816819Y-87769691D02*
X41816819Y-87769691D01*
X42816819Y-88245881D02*
X41816819Y-88245881D01*
X41816819Y-88245881D02*
X41816819Y-88483976D01*
X41816819Y-88483976D02*
X41864438Y-88626833D01*
X41864438Y-88626833D02*
X41959676Y-88722071D01*
X41959676Y-88722071D02*
X42054914Y-88769690D01*
X42054914Y-88769690D02*
X42245390Y-88817309D01*
X42245390Y-88817309D02*
X42388247Y-88817309D01*
X42388247Y-88817309D02*
X42578723Y-88769690D01*
X42578723Y-88769690D02*
X42673961Y-88722071D01*
X42673961Y-88722071D02*
X42769200Y-88626833D01*
X42769200Y-88626833D02*
X42816819Y-88483976D01*
X42816819Y-88483976D02*
X42816819Y-88245881D01*
X42816819Y-89245881D02*
X41816819Y-89245881D01*
X42435866Y-89722071D02*
X42435866Y-90483976D01*
X42293009Y-91293499D02*
X42340628Y-91436356D01*
X42340628Y-91436356D02*
X42388247Y-91483975D01*
X42388247Y-91483975D02*
X42483485Y-91531594D01*
X42483485Y-91531594D02*
X42626342Y-91531594D01*
X42626342Y-91531594D02*
X42721580Y-91483975D01*
X42721580Y-91483975D02*
X42769200Y-91436356D01*
X42769200Y-91436356D02*
X42816819Y-91341118D01*
X42816819Y-91341118D02*
X42816819Y-90960166D01*
X42816819Y-90960166D02*
X41816819Y-90960166D01*
X41816819Y-90960166D02*
X41816819Y-91293499D01*
X41816819Y-91293499D02*
X41864438Y-91388737D01*
X41864438Y-91388737D02*
X41912057Y-91436356D01*
X41912057Y-91436356D02*
X42007295Y-91483975D01*
X42007295Y-91483975D02*
X42102533Y-91483975D01*
X42102533Y-91483975D02*
X42197771Y-91436356D01*
X42197771Y-91436356D02*
X42245390Y-91388737D01*
X42245390Y-91388737D02*
X42293009Y-91293499D01*
X42293009Y-91293499D02*
X42293009Y-90960166D01*
X41816819Y-92150642D02*
X41816819Y-92341118D01*
X41816819Y-92341118D02*
X41864438Y-92436356D01*
X41864438Y-92436356D02*
X41959676Y-92531594D01*
X41959676Y-92531594D02*
X42150152Y-92579213D01*
X42150152Y-92579213D02*
X42483485Y-92579213D01*
X42483485Y-92579213D02*
X42673961Y-92531594D01*
X42673961Y-92531594D02*
X42769200Y-92436356D01*
X42769200Y-92436356D02*
X42816819Y-92341118D01*
X42816819Y-92341118D02*
X42816819Y-92150642D01*
X42816819Y-92150642D02*
X42769200Y-92055404D01*
X42769200Y-92055404D02*
X42673961Y-91960166D01*
X42673961Y-91960166D02*
X42483485Y-91912547D01*
X42483485Y-91912547D02*
X42150152Y-91912547D01*
X42150152Y-91912547D02*
X41959676Y-91960166D01*
X41959676Y-91960166D02*
X41864438Y-92055404D01*
X41864438Y-92055404D02*
X41816819Y-92150642D01*
X41816819Y-92912547D02*
X42816819Y-93579213D01*
X41816819Y-93579213D02*
X42816819Y-92912547D01*
X42435866Y-93960166D02*
X42435866Y-94722071D01*
X41816819Y-95388737D02*
X41816819Y-95483975D01*
X41816819Y-95483975D02*
X41864438Y-95579213D01*
X41864438Y-95579213D02*
X41912057Y-95626832D01*
X41912057Y-95626832D02*
X42007295Y-95674451D01*
X42007295Y-95674451D02*
X42197771Y-95722070D01*
X42197771Y-95722070D02*
X42435866Y-95722070D01*
X42435866Y-95722070D02*
X42626342Y-95674451D01*
X42626342Y-95674451D02*
X42721580Y-95626832D01*
X42721580Y-95626832D02*
X42769200Y-95579213D01*
X42769200Y-95579213D02*
X42816819Y-95483975D01*
X42816819Y-95483975D02*
X42816819Y-95388737D01*
X42816819Y-95388737D02*
X42769200Y-95293499D01*
X42769200Y-95293499D02*
X42721580Y-95245880D01*
X42721580Y-95245880D02*
X42626342Y-95198261D01*
X42626342Y-95198261D02*
X42435866Y-95150642D01*
X42435866Y-95150642D02*
X42197771Y-95150642D01*
X42197771Y-95150642D02*
X42007295Y-95198261D01*
X42007295Y-95198261D02*
X41912057Y-95245880D01*
X41912057Y-95245880D02*
X41864438Y-95293499D01*
X41864438Y-95293499D02*
X41816819Y-95388737D01*
X42816819Y-96674451D02*
X42816819Y-96103023D01*
X42816819Y-96388737D02*
X41816819Y-96388737D01*
X41816819Y-96388737D02*
X41959676Y-96293499D01*
X41959676Y-96293499D02*
X42054914Y-96198261D01*
X42054914Y-96198261D02*
X42102533Y-96103023D01*
X42435866Y-97103023D02*
X42435866Y-97864928D01*
X42816819Y-98341118D02*
X41816819Y-98341118D01*
X41816819Y-98341118D02*
X42531104Y-98674451D01*
X42531104Y-98674451D02*
X41816819Y-99007784D01*
X41816819Y-99007784D02*
X42816819Y-99007784D01*
X42531104Y-99436356D02*
X42531104Y-99912546D01*
X42816819Y-99341118D02*
X41816819Y-99674451D01*
X41816819Y-99674451D02*
X42816819Y-100007784D01*
X42816819Y-100341118D02*
X41816819Y-100341118D01*
X42816819Y-100817308D02*
X41816819Y-100817308D01*
X41816819Y-100817308D02*
X42816819Y-101388736D01*
X42816819Y-101388736D02*
X41816819Y-101388736D01*
X42435866Y-101864927D02*
X42435866Y-102626832D01*
X42816819Y-103626831D02*
X42816819Y-103055403D01*
X42816819Y-103341117D02*
X41816819Y-103341117D01*
X41816819Y-103341117D02*
X41959676Y-103245879D01*
X41959676Y-103245879D02*
X42054914Y-103150641D01*
X42054914Y-103150641D02*
X42102533Y-103055403D01*
X42435866Y-104055403D02*
X42435866Y-104817308D01*
X42816819Y-105293498D02*
X41816819Y-105293498D01*
X41816819Y-105293498D02*
X41816819Y-105674450D01*
X41816819Y-105674450D02*
X41864438Y-105769688D01*
X41864438Y-105769688D02*
X41912057Y-105817307D01*
X41912057Y-105817307D02*
X42007295Y-105864926D01*
X42007295Y-105864926D02*
X42150152Y-105864926D01*
X42150152Y-105864926D02*
X42245390Y-105817307D01*
X42245390Y-105817307D02*
X42293009Y-105769688D01*
X42293009Y-105769688D02*
X42340628Y-105674450D01*
X42340628Y-105674450D02*
X42340628Y-105293498D01*
X41816819Y-106198260D02*
X41816819Y-106864926D01*
X41816819Y-106864926D02*
X42816819Y-106198260D01*
X42816819Y-106198260D02*
X42816819Y-106864926D01*
X41912057Y-107198260D02*
X41864438Y-107245879D01*
X41864438Y-107245879D02*
X41816819Y-107341117D01*
X41816819Y-107341117D02*
X41816819Y-107579212D01*
X41816819Y-107579212D02*
X41864438Y-107674450D01*
X41864438Y-107674450D02*
X41912057Y-107722069D01*
X41912057Y-107722069D02*
X42007295Y-107769688D01*
X42007295Y-107769688D02*
X42102533Y-107769688D01*
X42102533Y-107769688D02*
X42245390Y-107722069D01*
X42245390Y-107722069D02*
X42816819Y-107150641D01*
X42816819Y-107150641D02*
X42816819Y-107769688D01*
X42435866Y-108198260D02*
X42435866Y-108960165D01*
X42293009Y-109436355D02*
X42293009Y-109769688D01*
X42816819Y-109912545D02*
X42816819Y-109436355D01*
X42816819Y-109436355D02*
X41816819Y-109436355D01*
X41816819Y-109436355D02*
X41816819Y-109912545D01*
X42769200Y-110293498D02*
X42816819Y-110436355D01*
X42816819Y-110436355D02*
X42816819Y-110674450D01*
X42816819Y-110674450D02*
X42769200Y-110769688D01*
X42769200Y-110769688D02*
X42721580Y-110817307D01*
X42721580Y-110817307D02*
X42626342Y-110864926D01*
X42626342Y-110864926D02*
X42531104Y-110864926D01*
X42531104Y-110864926D02*
X42435866Y-110817307D01*
X42435866Y-110817307D02*
X42388247Y-110769688D01*
X42388247Y-110769688D02*
X42340628Y-110674450D01*
X42340628Y-110674450D02*
X42293009Y-110483974D01*
X42293009Y-110483974D02*
X42245390Y-110388736D01*
X42245390Y-110388736D02*
X42197771Y-110341117D01*
X42197771Y-110341117D02*
X42102533Y-110293498D01*
X42102533Y-110293498D02*
X42007295Y-110293498D01*
X42007295Y-110293498D02*
X41912057Y-110341117D01*
X41912057Y-110341117D02*
X41864438Y-110388736D01*
X41864438Y-110388736D02*
X41816819Y-110483974D01*
X41816819Y-110483974D02*
X41816819Y-110722069D01*
X41816819Y-110722069D02*
X41864438Y-110864926D01*
X42816819Y-111293498D02*
X41816819Y-111293498D01*
X41816819Y-111293498D02*
X41816819Y-111674450D01*
X41816819Y-111674450D02*
X41864438Y-111769688D01*
X41864438Y-111769688D02*
X41912057Y-111817307D01*
X41912057Y-111817307D02*
X42007295Y-111864926D01*
X42007295Y-111864926D02*
X42150152Y-111864926D01*
X42150152Y-111864926D02*
X42245390Y-111817307D01*
X42245390Y-111817307D02*
X42293009Y-111769688D01*
X42293009Y-111769688D02*
X42340628Y-111674450D01*
X42340628Y-111674450D02*
X42340628Y-111293498D01*
X42435866Y-112293498D02*
X42435866Y-113055403D01*
X42531104Y-113483974D02*
X42531104Y-113960164D01*
X42816819Y-113388736D02*
X41816819Y-113722069D01*
X41816819Y-113722069D02*
X42816819Y-114055402D01*
X42816819Y-114912545D02*
X42816819Y-114341117D01*
X42816819Y-114626831D02*
X41816819Y-114626831D01*
X41816819Y-114626831D02*
X41959676Y-114531593D01*
X41959676Y-114531593D02*
X42054914Y-114436355D01*
X42054914Y-114436355D02*
X42102533Y-114341117D01*
D12*
%TO.P,J1,1,1*%
%TO.N,Net-(J1-Pad1)*%
X49729600Y-65159600D03*
D13*
%TO.P,J1,2,2*%
%TO.N,Net-(J1-Pad2)*%
X44649600Y-65159600D03*
%TD*%
D14*
%TO.P,J13,1,Pin_1*%
%TO.N,+3.3V*%
X74342200Y-131716000D03*
D15*
%TO.P,J13,2,Pin_2*%
%TO.N,GND*%
X74342200Y-129176000D03*
%TO.P,J13,3,Pin_3*%
%TO.N,SCL*%
X74342200Y-126636000D03*
%TO.P,J13,4,Pin_4*%
%TO.N,SDA*%
X74342200Y-124096000D03*
%TD*%
D14*
%TO.P,J9,1,Pin_1*%
%TO.N,Net-(J9-Pin_1)*%
X80930200Y-87523400D03*
D16*
%TO.P,J9,2,Pin_2*%
%TO.N,Net-(J9-Pin_2)*%
X83470200Y-87523400D03*
%TO.P,J9,3,Pin_3*%
%TO.N,GND*%
X80930200Y-90063400D03*
%TO.P,J9,4,Pin_4*%
%TO.N,Net-(J9-Pin_4)*%
X83470200Y-90063400D03*
%TO.P,J9,5,Pin_5*%
%TO.N,GND*%
X80930200Y-92603400D03*
%TO.P,J9,6,Pin_6*%
%TO.N,Net-(J9-Pin_6)*%
X83470200Y-92603400D03*
%TD*%
D17*
%TO.P,U3,1,+VIN*%
%TO.N,Net-(U3-+VIN)*%
X61525600Y-139950000D03*
D18*
%TO.P,U3,2,GND*%
%TO.N,GND*%
X58985600Y-139950000D03*
%TO.P,U3,3,+VOUT*%
%TO.N,+5V*%
X56445600Y-139950000D03*
%TD*%
D19*
%TO.P,BZ1,1,+*%
%TO.N,+5V*%
X80302194Y-130516806D03*
D20*
%TO.P,BZ1,2,-*%
%TO.N,Net-(BZ1--)*%
X85676206Y-125142794D03*
%TD*%
D14*
%TO.P,J5,1,Pin_1*%
%TO.N,GND*%
X63520000Y-66900000D03*
D15*
%TO.P,J5,2,Pin_2*%
%TO.N,Net-(J3-TXD0_GPIO14)*%
X60980000Y-66900000D03*
%TO.P,J5,3,Pin_3*%
%TO.N,Net-(J3-RXD0_GPIO15)*%
X58440000Y-66900000D03*
%TO.P,J5,4,Pin_4*%
%TO.N,+3.3V*%
X55900000Y-66900000D03*
%TD*%
D21*
%TO.P,J11,1,Pin_1*%
%TO.N,GND*%
X77934600Y-116222000D03*
D15*
%TO.P,J11,2,Pin_2*%
X75394600Y-116222000D03*
%TO.P,J11,3,Pin_3*%
%TO.N,/G20LE3*%
X77934600Y-113682000D03*
%TO.P,J11,4,Pin_4*%
%TO.N,Net-(J11-Pin_4)*%
X75394600Y-113682000D03*
%TO.P,J11,5,Pin_5*%
%TO.N,/G21LE7*%
X77934600Y-111142000D03*
%TO.P,J11,6,Pin_6*%
%TO.N,Net-(J11-Pin_6)*%
X75394600Y-111142000D03*
%TO.P,J11,7,Pin_7*%
%TO.N,SDA*%
X77934600Y-108602000D03*
%TO.P,J11,8,Pin_8*%
%TO.N,Net-(J11-Pin_8)*%
X75394600Y-108602000D03*
%TO.P,J11,9,Pin_9*%
%TO.N,SCL*%
X77934600Y-106062000D03*
%TO.P,J11,10,Pin_10*%
%TO.N,+3.3V*%
X75394600Y-106062000D03*
%TO.P,J11,11,Pin_11*%
%TO.N,G9LE4*%
X77934600Y-103522000D03*
%TO.P,J11,12,Pin_12*%
%TO.N,G17LE1*%
X75394600Y-103522000D03*
%TO.P,J11,13,Pin_13*%
%TO.N,G10LE2*%
X77934600Y-100982000D03*
%TO.P,J11,14,Pin_14*%
%TO.N,+5V*%
X75394600Y-100982000D03*
%TD*%
D14*
%TO.P,J3,1,3V3_1*%
%TO.N,Net-(J3-3V3_1)*%
X66149600Y-79089600D03*
D15*
%TO.P,J3,2,5V_1*%
%TO.N,+5V*%
X68689600Y-79089600D03*
%TO.P,J3,3,GPIO2_SDA*%
%TO.N,SDA*%
X66149600Y-81629600D03*
%TO.P,J3,4,5V_2*%
%TO.N,+5V*%
X68689600Y-81629600D03*
%TO.P,J3,5,GPIO3_SCL*%
%TO.N,SCL*%
X66149600Y-84169600D03*
%TO.P,J3,6,GND_8*%
%TO.N,unconnected-(J3-GND_8-Pad6)*%
X68689600Y-84169600D03*
%TO.P,J3,7,GPIO4_GPCKL0*%
%TO.N,1_WIRE_io4*%
X66149600Y-86709600D03*
%TO.P,J3,8,TXD0_GPIO14*%
%TO.N,Net-(J3-TXD0_GPIO14)*%
X68689600Y-86709600D03*
%TO.P,J3,9,GND_1*%
%TO.N,GND*%
X66149600Y-89249600D03*
%TO.P,J3,10,RXD0_GPIO15*%
%TO.N,Net-(J3-RXD0_GPIO15)*%
X68689600Y-89249600D03*
%TO.P,J3,11,GPIO17_GEN0*%
%TO.N,G17LE1*%
X66149600Y-91789600D03*
%TO.P,J3,12,GPIO18*%
%TO.N,unconnected-(J3-GPIO18-Pad12)*%
X68689600Y-91789600D03*
%TO.P,J3,13,GPIO27_GEN2*%
%TO.N,unconnected-(J3-GPIO27_GEN2-Pad13)*%
X66149600Y-94329600D03*
%TO.P,J3,14,GND_4*%
%TO.N,GND*%
X68689600Y-94329600D03*
%TO.P,J3,15,GPIO22_GEN3*%
%TO.N,unconnected-(J3-GPIO22_GEN3-Pad15)*%
X66149600Y-96869600D03*
%TO.P,J3,16,GEN4_GPIO23*%
%TO.N,unconnected-(J3-GEN4_GPIO23-Pad16)*%
X68689600Y-96869600D03*
%TO.P,J3,17,3V3_2*%
%TO.N,unconnected-(J3-3V3_2-Pad17)*%
X66149600Y-99409600D03*
%TO.P,J3,18,GEN5_GPIO24*%
%TO.N,I2C_SIG1*%
X68689600Y-99409600D03*
%TO.P,J3,19,GPIO10_MOSI*%
%TO.N,G10LE2*%
X66149600Y-101949600D03*
%TO.P,J3,20,GND_5*%
%TO.N,GND*%
X68689600Y-101949600D03*
%TO.P,J3,21,GPIO9_MISO*%
%TO.N,G9LE4*%
X66149600Y-104489600D03*
%TO.P,J3,22,GEN_6GPIO25*%
%TO.N,/BUT2*%
X68689600Y-104489600D03*
%TO.P,J3,23,GPIO11_SCLK*%
%TO.N,unconnected-(J3-GPIO11_SCLK-Pad23)*%
X66149600Y-107029600D03*
%TO.P,J3,24,~{CE0}_GPIO8*%
%TO.N,/BUT1*%
X68689600Y-107029600D03*
%TO.P,J3,25,GND_2*%
%TO.N,GND*%
X66149600Y-109569600D03*
%TO.P,J3,26,~{CE1}_GPIO7*%
%TO.N,unconnected-(J3-~{CE1}_GPIO7-Pad26)*%
X68689600Y-109569600D03*
%TO.P,J3,27,ID_SD*%
%TO.N,unconnected-(J3-ID_SD-Pad27)*%
X66149600Y-112109600D03*
%TO.P,J3,28,ID_SC*%
%TO.N,unconnected-(J3-ID_SC-Pad28)*%
X68689600Y-112109600D03*
%TO.P,J3,29,GPIO5*%
%TO.N,Net-(J3-GPIO5)*%
X66149600Y-114649600D03*
%TO.P,J3,30,GND_6*%
%TO.N,unconnected-(J3-GND_6-Pad30)*%
X68689600Y-114649600D03*
%TO.P,J3,31,GPIO6*%
%TO.N,Net-(J3-GPIO6)*%
X66149600Y-117189600D03*
%TO.P,J3,32,GPIO12*%
%TO.N,unconnected-(J3-GPIO12-Pad32)*%
X68689600Y-117189600D03*
%TO.P,J3,33,GPIO13*%
%TO.N,PWM*%
X66149600Y-119729600D03*
%TO.P,J3,34,GND_7*%
%TO.N,GND*%
X68689600Y-119729600D03*
%TO.P,J3,35,GPIO19*%
%TO.N,EN_I2C*%
X66149600Y-122269600D03*
%TO.P,J3,36,GPIO16*%
%TO.N,/BUT3*%
X68689600Y-122269600D03*
%TO.P,J3,37,GPIO26*%
%TO.N,OPTO_IN*%
X66149600Y-124809600D03*
%TO.P,J3,38,GPIO20*%
%TO.N,/G20LE3*%
X68689600Y-124809600D03*
%TO.P,J3,39,GND_3*%
%TO.N,GND*%
X66149600Y-127349600D03*
%TO.P,J3,40,GPIO21*%
%TO.N,/G21LE7*%
X68689600Y-127349600D03*
%TD*%
D14*
%TO.P,J12,1,Pin_1*%
%TO.N,Net-(BZ1--)*%
X82862200Y-114845400D03*
D15*
%TO.P,J12,2,Pin_2*%
%TO.N,Net-(J12-Pin_2)*%
X82862200Y-117385400D03*
%TD*%
D12*
%TO.P,J14,1,1*%
%TO.N,GND*%
X80332200Y-140823400D03*
D13*
%TO.P,J14,2,2*%
%TO.N,Net-(D1-A)*%
X85412200Y-140823400D03*
%TD*%
D14*
%TO.P,J4,1,Pin_1*%
%TO.N,Net-(D1-K)*%
X87135800Y-137266400D03*
%TD*%
%TO.P,J8,1,Pin_1*%
%TO.N,GND*%
X78525200Y-137368000D03*
%TD*%
D22*
%TO.P,REF\u002A\u002A,1*%
%TO.N,Net-(Bat1-+)*%
X52249878Y-107595000D03*
D23*
%TO.P,REF\u002A\u002A,2*%
%TO.N,GND*%
X52249878Y-87095000D03*
%TD*%
D24*
%TO.P,U4,1,GND*%
%TO.N,GND*%
X43085800Y-81246200D03*
D25*
%TO.P,U4,2,DQ*%
%TO.N,1_WIRE_io4*%
X44355800Y-81246200D03*
%TO.P,U4,3,V_{DD}*%
%TO.N,+3.3V*%
X45625800Y-81246200D03*
%TD*%
D12*
%TO.P,J2,1,1*%
%TO.N,GND*%
X85575400Y-65184800D03*
D13*
%TO.P,J2,2,2*%
%TO.N,/1-Wire DATA*%
X80495400Y-65184800D03*
%TO.P,J2,3,3*%
%TO.N,/1-Wire +5V*%
X75415400Y-65184800D03*
%TD*%
D26*
%TO.N,GND*%
X50661400Y-134599400D03*
X56624000Y-119270000D03*
X83827400Y-79049100D03*
X51692200Y-120493400D03*
D27*
X64447200Y-62094600D03*
D26*
X75724800Y-88231200D03*
X83300400Y-136174200D03*
D28*
X46849600Y-143259600D03*
D27*
X85910200Y-111980200D03*
D26*
X50650000Y-135602200D03*
X75013600Y-93429000D03*
X74454800Y-79265000D03*
D29*
%TO.N,+5V*%
X64091600Y-71848200D03*
D26*
X72192200Y-99585000D03*
X72192200Y-120184400D03*
X86824600Y-120209800D03*
%TO.N,+3.3V*%
X58009800Y-79200000D03*
D27*
X76718200Y-83633800D03*
X57005000Y-123105400D03*
X81744600Y-106646200D03*
D29*
X58892200Y-129849600D03*
D27*
X84958200Y-81652600D03*
D26*
X42492200Y-123443400D03*
X74113600Y-91529000D03*
D29*
X45742200Y-127143400D03*
D27*
%TO.N,1_WIRE_io4*%
X72651400Y-85056200D03*
X57919400Y-85107000D03*
%TO.N,Net-(U1-EN)*%
X85381600Y-95933200D03*
X74222700Y-86199200D03*
%TO.N,SCL*%
X60256200Y-84141800D03*
X54541200Y-124363400D03*
%TO.N,Net-(BZ1--)*%
X70650000Y-135400000D03*
%TO.N,SDA*%
X58808400Y-82719400D03*
X53488070Y-123018977D03*
D26*
%TO.N,Net-(J9-Pin_1)*%
X87383400Y-113047000D03*
D27*
%TO.N,Net-(C18-Pad1)*%
X80677800Y-98391200D03*
X81795400Y-104309400D03*
%TO.N,Net-(U1-VCC(A))*%
X80652400Y-102633000D03*
D26*
X77738600Y-94784400D03*
D27*
%TO.N,Net-(J3-GPIO6)*%
X70426600Y-65574400D03*
%TO.N,Net-(J3-GPIO5)*%
X64447200Y-64863200D03*
%TD*%
D30*
%TO.N,+5V*%
X77857000Y-120108200D02*
X79997394Y-122248594D01*
X79997394Y-122248594D02*
X79997394Y-130440606D01*
X72192200Y-120184400D02*
X72268400Y-120108200D01*
X72268400Y-120108200D02*
X77857000Y-120108200D01*
%TO.N,1_WIRE_io4*%
X67493800Y-85411800D02*
X66172200Y-86733400D01*
X72651400Y-85056200D02*
X72295800Y-85411800D01*
D31*
X44355800Y-84091000D02*
X45371800Y-85107000D01*
X45371800Y-85107000D02*
X57919400Y-85107000D01*
X44355800Y-81246200D02*
X44355800Y-84091000D01*
D30*
X72295800Y-85411800D02*
X67493800Y-85411800D01*
D31*
%TO.N,Net-(U1-EN)*%
X77858400Y-85386400D02*
X77909200Y-85437200D01*
X77045600Y-86199200D02*
X77858400Y-85386400D01*
X77909200Y-85437200D02*
X85630800Y-85437200D01*
X86443600Y-94871200D02*
X85381600Y-95933200D01*
X85630800Y-85437200D02*
X86443600Y-86250000D01*
X86443600Y-86250000D02*
X86443600Y-94871200D01*
X74222700Y-86199200D02*
X77045600Y-86199200D01*
D30*
%TO.N,SCL*%
X54541200Y-124363400D02*
X54598819Y-124305781D01*
X54598819Y-124305781D02*
X54598819Y-119161581D01*
X59697400Y-84700600D02*
X60256200Y-84141800D01*
X59697400Y-114063000D02*
X59697400Y-84700600D01*
X54598819Y-119161581D02*
X59697400Y-114063000D01*
D31*
%TO.N,G17LE1*%
X76613800Y-99686600D02*
X76613800Y-102404400D01*
X70009800Y-93082600D02*
X76613800Y-99686600D01*
X75394600Y-103623600D02*
X75142400Y-103623600D01*
X67441400Y-93082600D02*
X70009800Y-93082600D01*
X66172200Y-91813400D02*
X67441400Y-93082600D01*
X75142400Y-103623600D02*
X75102200Y-103583400D01*
X76613800Y-102404400D02*
X75394600Y-103623600D01*
D30*
%TO.N,Net-(BZ1--)*%
X71667000Y-134383000D02*
X81211200Y-134383000D01*
X85371406Y-125066594D02*
X85371406Y-125396006D01*
X81211200Y-134383000D02*
X85453000Y-130141200D01*
X70650000Y-135400000D02*
X71667000Y-134383000D01*
X85453000Y-125148188D02*
X85371406Y-125066594D01*
X85453000Y-130141200D02*
X85453000Y-125148188D01*
%TO.N,SDA*%
X58808400Y-113428000D02*
X58808400Y-82719400D01*
X53488070Y-123018977D02*
X53474400Y-123005307D01*
X53474400Y-123005307D02*
X53474400Y-118762000D01*
X53474400Y-118762000D02*
X58808400Y-113428000D01*
X78672200Y-108693400D02*
X78642200Y-108663400D01*
D31*
%TO.N,Net-(C18-Pad1)*%
X82608200Y-103496600D02*
X81795400Y-104309400D01*
X80677800Y-98391200D02*
X80677800Y-98492800D01*
X82608200Y-100423200D02*
X82608200Y-103496600D01*
X80677800Y-98492800D02*
X82608200Y-100423200D01*
D32*
%TO.N,Net-(U1-VCC(A))*%
X77756800Y-97603800D02*
X80652400Y-100499400D01*
X80652400Y-100499400D02*
X80652400Y-102633000D01*
X77738600Y-94784400D02*
X77756800Y-94802600D01*
X77756800Y-94802600D02*
X77756800Y-97603800D01*
D30*
%TO.N,Net-(J3-GPIO6)*%
X70426600Y-65574400D02*
X68115200Y-63263000D01*
X61907200Y-115358400D02*
X63792200Y-117243400D01*
X52864800Y-66463400D02*
X52864800Y-71514800D01*
X63792200Y-117243400D02*
X66092200Y-117243400D01*
X52864800Y-71514800D02*
X61907200Y-80557200D01*
X61907200Y-80557200D02*
X61907200Y-115358400D01*
X56065200Y-63263000D02*
X52864800Y-66463400D01*
X68115200Y-63263000D02*
X56065200Y-63263000D01*
%TO.N,Net-(J3-TXD0_GPIO14)*%
X68712200Y-86733400D02*
X67402200Y-88043400D01*
X64142200Y-87093400D02*
X64142200Y-78942200D01*
X67402200Y-88043400D02*
X65092200Y-88043400D01*
X65092200Y-88043400D02*
X64142200Y-87093400D01*
X60980000Y-75780000D02*
X60980000Y-67050000D01*
X64142200Y-78942200D02*
X60980000Y-75780000D01*
%TO.N,Net-(J3-RXD0_GPIO15)*%
X58402000Y-74702000D02*
X58402000Y-67088000D01*
X58402000Y-67038000D02*
X58440000Y-67000000D01*
X65342200Y-90543400D02*
X63492200Y-88693400D01*
X63492200Y-88693400D02*
X63492200Y-79792200D01*
X63492200Y-79792200D02*
X58402000Y-74702000D01*
X67442200Y-90543400D02*
X65342200Y-90543400D01*
X68712200Y-89273400D02*
X67442200Y-90543400D01*
%TO.N,Net-(J3-GPIO5)*%
X53601400Y-66920600D02*
X53601400Y-71151400D01*
X62872400Y-111373600D02*
X66172200Y-114673400D01*
X55658800Y-64863200D02*
X53601400Y-66920600D01*
X53601400Y-71151400D02*
X62872400Y-80422400D01*
X64447200Y-64863200D02*
X55658800Y-64863200D01*
X62872400Y-80422400D02*
X62872400Y-111373600D01*
%TD*%
M02*
