M48
; DRILL file {KiCad 9.0.6} date 2025-12-26T20:19:57+0000
; FORMAT={-:-/ absolute / metric / decimal}
; #@! TF.CreationDate,2025-12-26T20:19:57+00:00
; #@! TF.GenerationSoftware,Kicad,Pcbnew,9.0.6
; #@! TF.FileFunction,Plated,1,4,PTH
FMAT,2
METRIC
; #@! TA.AperFunction,Plated,PTH,ViaDrill
T1C0.300
; #@! TA.AperFunction,Plated,PTH,ViaDrill
T2C0.500
; #@! TA.AperFunction,Plated,PTH,ViaDrill
T3C0.600
; #@! TA.AperFunction,Plated,PTH,ViaDrill
T4C0.700
; #@! TA.AperFunction,Plated,PTH,ComponentDrill
T5C0.750
; #@! TA.AperFunction,Plated,PTH,ViaDrill
T6C0.800
; #@! TA.AperFunction,Plated,PTH,ComponentDrill
T7C0.850
; #@! TA.AperFunction,Plated,PTH,ViaDrill
T8C1.000
; #@! TA.AperFunction,Plated,PTH,ComponentDrill
T9C1.000
; #@! TA.AperFunction,Plated,PTH,ComponentDrill
T10C1.100
; #@! TA.AperFunction,Plated,PTH,ComponentDrill
T11C1.300
%
G90
G05
T1
X53.488Y-123.019
X54.541Y-124.363
X57.005Y-123.105
X57.919Y-85.107
X58.808Y-82.719
X60.256Y-84.142
X64.447Y-62.095
X64.447Y-64.863
X70.427Y-65.574
X70.65Y-135.4
X72.651Y-85.056
X74.223Y-86.199
X76.718Y-83.634
X80.652Y-102.633
X80.678Y-98.391
X81.745Y-106.646
X81.795Y-104.309
X84.958Y-81.653
X85.382Y-95.933
X85.91Y-111.98
T2
X42.492Y-123.443
X50.65Y-135.602
X50.661Y-134.599
X51.692Y-120.493
X56.624Y-119.27
X58.01Y-79.2
X72.192Y-99.585
X72.192Y-120.184
X74.114Y-91.529
X74.455Y-79.265
X75.014Y-93.429
X75.725Y-88.231
X77.739Y-94.784
X83.827Y-79.049
X86.825Y-120.21
X87.383Y-113.047
T3
X83.3Y-136.174
T4
X45.742Y-127.143
X58.892Y-129.85
T5
X43.086Y-81.246
X44.356Y-81.246
X45.626Y-81.246
T6
X64.092Y-71.848
T7
X52.25Y-87.095
X52.25Y-107.595
T8
X46.85Y-143.26
T9
X55.9Y-66.9
X58.44Y-66.9
X60.98Y-66.9
X63.52Y-66.9
X66.15Y-79.09
X66.15Y-81.63
X66.15Y-84.17
X66.15Y-86.71
X66.15Y-89.25
X66.15Y-91.79
X66.15Y-94.33
X66.15Y-96.87
X66.15Y-99.41
X66.15Y-101.95
X66.15Y-104.49
X66.15Y-107.03
X66.15Y-109.57
X66.15Y-112.11
X66.15Y-114.65
X66.15Y-117.19
X66.15Y-119.73
X66.15Y-122.27
X66.15Y-124.81
X66.15Y-127.35
X68.69Y-79.09
X68.69Y-81.63
X68.69Y-84.17
X68.69Y-86.71
X68.69Y-89.25
X68.69Y-91.79
X68.69Y-94.33
X68.69Y-96.87
X68.69Y-99.41
X68.69Y-101.95
X68.69Y-104.49
X68.69Y-107.03
X68.69Y-109.57
X68.69Y-112.11
X68.69Y-114.65
X68.69Y-117.19
X68.69Y-119.73
X68.69Y-122.27
X68.69Y-124.81
X68.69Y-127.35
X74.342Y-124.096
X74.342Y-126.636
X74.342Y-129.176
X74.342Y-131.716
X75.395Y-100.982
X75.395Y-103.522
X75.395Y-106.062
X75.395Y-108.602
X75.395Y-111.142
X75.395Y-113.682
X75.395Y-116.222
X77.935Y-100.982
X77.935Y-103.522
X77.935Y-106.062
X77.935Y-108.602
X77.935Y-111.142
X77.935Y-113.682
X77.935Y-116.222
X78.525Y-137.368
X80.302Y-130.517
X80.93Y-87.523
X80.93Y-90.063
X80.93Y-92.603
X82.862Y-114.845
X82.862Y-117.385
X83.47Y-87.523
X83.47Y-90.063
X83.47Y-92.603
X85.676Y-125.143
X87.136Y-137.266
T10
X56.446Y-139.95
X58.986Y-139.95
X61.526Y-139.95
T11
X44.65Y-65.16
X49.73Y-65.16
X75.415Y-65.185
X80.332Y-140.823
X80.495Y-65.185
X85.412Y-140.823
X85.575Y-65.185
M30
