%TF.GenerationSoftware,KiCad,Pcbnew,9.0.6*%
%TF.CreationDate,2025-12-26T20:23:21+00:00*%
%TF.ProjectId,PIDI-BOX-01-USBC-PWR-A1,50494449-2d42-44f5-982d-30312d555342,rev?*%
%TF.SameCoordinates,Original*%
%TF.FileFunction,Copper,L1,Top*%
%TF.FilePolarity,Positive*%
%FSLAX46Y46*%
G04 Gerber Fmt 4.6, Leading zero omitted, Abs format (unit mm)*
G04 Created by KiCad (PCBNEW 9.0.6) date 2025-12-26 20:23:21*
%MOMM*%
%LPD*%
G01*
G04 APERTURE LIST*
G04 Aperture macros list*
%AMRoundRect*
0 Rectangle with rounded corners*
0 $1 Rounding radius*
0 $2 $3 $4 $5 $6 $7 $8 $9 X,Y pos of 4 corners*
0 Add a 4 corners polygon primitive as box body*
4,1,4,$2,$3,$4,$5,$6,$7,$8,$9,$2,$3,0*
0 Add four circle primitives for the rounded corners*
1,1,$1+$1,$2,$3*
1,1,$1+$1,$4,$5*
1,1,$1+$1,$6,$7*
1,1,$1+$1,$8,$9*
0 Add four rect primitives between the rounded corners*
20,1,$1+$1,$2,$3,$4,$5,0*
20,1,$1+$1,$4,$5,$6,$7,0*
20,1,$1+$1,$6,$7,$8,$9,0*
20,1,$1+$1,$8,$9,$2,$3,0*%
G04 Aperture macros list end*
%TA.AperFunction,ComponentPad*%
%ADD10R,1.700000X1.700000*%
%TD*%
%TA.AperFunction,SMDPad,CuDef*%
%ADD11RoundRect,0.175000X-0.175000X-0.575000X0.175000X-0.575000X0.175000X0.575000X-0.175000X0.575000X0*%
%TD*%
%TA.AperFunction,SMDPad,CuDef*%
%ADD12RoundRect,0.190000X0.190000X0.560000X-0.190000X0.560000X-0.190000X-0.560000X0.190000X-0.560000X0*%
%TD*%
%TA.AperFunction,SMDPad,CuDef*%
%ADD13RoundRect,0.200000X0.200000X0.550000X-0.200000X0.550000X-0.200000X-0.550000X0.200000X-0.550000X0*%
%TD*%
%TA.AperFunction,SMDPad,CuDef*%
%ADD14RoundRect,0.175000X0.175000X0.575000X-0.175000X0.575000X-0.175000X-0.575000X0.175000X-0.575000X0*%
%TD*%
%TA.AperFunction,SMDPad,CuDef*%
%ADD15RoundRect,0.190000X-0.190000X-0.560000X0.190000X-0.560000X0.190000X0.560000X-0.190000X0.560000X0*%
%TD*%
%TA.AperFunction,SMDPad,CuDef*%
%ADD16RoundRect,0.200000X-0.200000X-0.550000X0.200000X-0.550000X0.200000X0.550000X-0.200000X0.550000X0*%
%TD*%
%TA.AperFunction,SMDPad,CuDef*%
%ADD17RoundRect,0.250000X-0.650000X-0.425000X0.650000X-0.425000X0.650000X0.425000X-0.650000X0.425000X0*%
%TD*%
%TA.AperFunction,SMDPad,CuDef*%
%ADD18RoundRect,0.250000X-0.650000X-0.500000X0.650000X-0.500000X0.650000X0.500000X-0.650000X0.500000X0*%
%TD*%
%TA.AperFunction,ViaPad*%
%ADD19C,0.800000*%
%TD*%
%TA.AperFunction,Conductor*%
%ADD20C,0.600000*%
%TD*%
%TA.AperFunction,Conductor*%
%ADD21C,0.200000*%
%TD*%
%TA.AperFunction,Conductor*%
%ADD22C,0.500000*%
%TD*%
G04 APERTURE END LIST*
D10*
%TO.P,J2,1,Pin_1*%
%TO.N,Net-(J2-Pin_1)*%
X91884500Y-85674200D03*
%TD*%
%TO.P,J3,1,Pin_1*%
%TO.N,Net-(J3-Pin_1)*%
X100444300Y-85674200D03*
%TD*%
D11*
%TO.P,J1,A5,CC1*%
%TO.N,unconnected-(J1-CC1-PadA5)*%
X95707200Y-87665700D03*
D12*
%TO.P,J1,A9,VBUS*%
%TO.N,Net-(J3-Pin_1)*%
X97727200Y-87665700D03*
D13*
%TO.P,J1,A12,GND*%
%TO.N,Net-(J2-Pin_1)*%
X98957200Y-87665700D03*
D14*
%TO.P,J1,B5,CC2*%
%TO.N,unconnected-(J1-CC2-PadB5)*%
X96707200Y-87665700D03*
D15*
%TO.P,J1,B9,VBUS*%
%TO.N,Net-(J3-Pin_1)*%
X94687200Y-87665700D03*
D16*
%TO.P,J1,B12,GND*%
%TO.N,Net-(J2-Pin_1)*%
X93457200Y-87665700D03*
D17*
%TO.P,J1,S1,SHIELD*%
%TO.N,unconnected-(J1-SHIELD-PadS1)*%
X91082200Y-87888200D03*
D18*
X91082200Y-91468200D03*
D17*
X101332200Y-87888200D03*
D18*
X101332200Y-91468200D03*
%TD*%
D19*
%TO.N,Net-(J2-Pin_1)*%
X98679000Y-86182200D03*
X94386400Y-85293200D03*
%TD*%
D20*
%TO.N,Net-(J3-Pin_1)*%
X94665800Y-86639400D02*
X96113600Y-85191600D01*
X98298000Y-85178800D02*
X98006000Y-85178800D01*
X99948900Y-85178800D02*
X100444300Y-85674200D01*
X98285200Y-85191600D02*
X98298000Y-85178800D01*
X94665800Y-87644300D02*
X94665800Y-86639400D01*
D21*
X94687200Y-87665700D02*
X94665800Y-87644300D01*
D20*
X97739200Y-87653700D02*
X97739200Y-85191600D01*
X98006000Y-85178800D02*
X99948900Y-85178800D01*
X97727200Y-87665700D02*
X97739200Y-87653700D01*
X98006000Y-85178800D02*
X97967800Y-85217000D01*
X96113600Y-85191600D02*
X98285200Y-85191600D01*
D22*
%TO.N,Net-(J2-Pin_1)*%
X98957200Y-86943000D02*
X98679000Y-86664800D01*
X98957200Y-87665700D02*
X98957200Y-86943000D01*
D20*
X94386400Y-85293200D02*
X92265500Y-85293200D01*
X92265500Y-85293200D02*
X91884500Y-85674200D01*
X93457200Y-87665700D02*
X93457200Y-86501800D01*
D22*
X98679000Y-86664800D02*
X98679000Y-86182200D01*
D20*
X93457200Y-86501800D02*
X94386400Y-85572600D01*
X94386400Y-85572600D02*
X94386400Y-85293200D01*
%TD*%
M02*
