%TF.GenerationSoftware,KiCad,Pcbnew,9.0.6-rc1*%
%TF.CreationDate,2025-10-17T10:46:46+01:00*%
%TF.ProjectId,PIDI-BOX-01-DISPLAY-MOUNTINGFRAME-A1,50494449-2d42-44f5-982d-30312d444953,rev?*%
%TF.SameCoordinates,Original*%
%TF.FileFunction,Legend,Top*%
%TF.FilePolarity,Positive*%
%FSLAX46Y46*%
G04 Gerber Fmt 4.6, Leading zero omitted, Abs format (unit mm)*
G04 Created by KiCad (PCBNEW 9.0.6-rc1) date 2025-10-17 10:46:46*
%MOMM*%
%LPD*%
G01*
G04 APERTURE LIST*
%ADD10C,0.150000*%
G04 APERTURE END LIST*
D10*
X89185979Y-75993619D02*
X89185979Y-74993619D01*
X89185979Y-74993619D02*
X89566931Y-74993619D01*
X89566931Y-74993619D02*
X89662169Y-75041238D01*
X89662169Y-75041238D02*
X89709788Y-75088857D01*
X89709788Y-75088857D02*
X89757407Y-75184095D01*
X89757407Y-75184095D02*
X89757407Y-75326952D01*
X89757407Y-75326952D02*
X89709788Y-75422190D01*
X89709788Y-75422190D02*
X89662169Y-75469809D01*
X89662169Y-75469809D02*
X89566931Y-75517428D01*
X89566931Y-75517428D02*
X89185979Y-75517428D01*
X90185979Y-75993619D02*
X90185979Y-74993619D01*
X90662169Y-75993619D02*
X90662169Y-74993619D01*
X90662169Y-74993619D02*
X90900264Y-74993619D01*
X90900264Y-74993619D02*
X91043121Y-75041238D01*
X91043121Y-75041238D02*
X91138359Y-75136476D01*
X91138359Y-75136476D02*
X91185978Y-75231714D01*
X91185978Y-75231714D02*
X91233597Y-75422190D01*
X91233597Y-75422190D02*
X91233597Y-75565047D01*
X91233597Y-75565047D02*
X91185978Y-75755523D01*
X91185978Y-75755523D02*
X91138359Y-75850761D01*
X91138359Y-75850761D02*
X91043121Y-75946000D01*
X91043121Y-75946000D02*
X90900264Y-75993619D01*
X90900264Y-75993619D02*
X90662169Y-75993619D01*
X91662169Y-75993619D02*
X91662169Y-74993619D01*
X92138359Y-75612666D02*
X92900264Y-75612666D01*
X93709787Y-75469809D02*
X93852644Y-75517428D01*
X93852644Y-75517428D02*
X93900263Y-75565047D01*
X93900263Y-75565047D02*
X93947882Y-75660285D01*
X93947882Y-75660285D02*
X93947882Y-75803142D01*
X93947882Y-75803142D02*
X93900263Y-75898380D01*
X93900263Y-75898380D02*
X93852644Y-75946000D01*
X93852644Y-75946000D02*
X93757406Y-75993619D01*
X93757406Y-75993619D02*
X93376454Y-75993619D01*
X93376454Y-75993619D02*
X93376454Y-74993619D01*
X93376454Y-74993619D02*
X93709787Y-74993619D01*
X93709787Y-74993619D02*
X93805025Y-75041238D01*
X93805025Y-75041238D02*
X93852644Y-75088857D01*
X93852644Y-75088857D02*
X93900263Y-75184095D01*
X93900263Y-75184095D02*
X93900263Y-75279333D01*
X93900263Y-75279333D02*
X93852644Y-75374571D01*
X93852644Y-75374571D02*
X93805025Y-75422190D01*
X93805025Y-75422190D02*
X93709787Y-75469809D01*
X93709787Y-75469809D02*
X93376454Y-75469809D01*
X94566930Y-74993619D02*
X94757406Y-74993619D01*
X94757406Y-74993619D02*
X94852644Y-75041238D01*
X94852644Y-75041238D02*
X94947882Y-75136476D01*
X94947882Y-75136476D02*
X94995501Y-75326952D01*
X94995501Y-75326952D02*
X94995501Y-75660285D01*
X94995501Y-75660285D02*
X94947882Y-75850761D01*
X94947882Y-75850761D02*
X94852644Y-75946000D01*
X94852644Y-75946000D02*
X94757406Y-75993619D01*
X94757406Y-75993619D02*
X94566930Y-75993619D01*
X94566930Y-75993619D02*
X94471692Y-75946000D01*
X94471692Y-75946000D02*
X94376454Y-75850761D01*
X94376454Y-75850761D02*
X94328835Y-75660285D01*
X94328835Y-75660285D02*
X94328835Y-75326952D01*
X94328835Y-75326952D02*
X94376454Y-75136476D01*
X94376454Y-75136476D02*
X94471692Y-75041238D01*
X94471692Y-75041238D02*
X94566930Y-74993619D01*
X95328835Y-74993619D02*
X95995501Y-75993619D01*
X95995501Y-74993619D02*
X95328835Y-75993619D01*
X96376454Y-75612666D02*
X97138359Y-75612666D01*
X97805025Y-74993619D02*
X97900263Y-74993619D01*
X97900263Y-74993619D02*
X97995501Y-75041238D01*
X97995501Y-75041238D02*
X98043120Y-75088857D01*
X98043120Y-75088857D02*
X98090739Y-75184095D01*
X98090739Y-75184095D02*
X98138358Y-75374571D01*
X98138358Y-75374571D02*
X98138358Y-75612666D01*
X98138358Y-75612666D02*
X98090739Y-75803142D01*
X98090739Y-75803142D02*
X98043120Y-75898380D01*
X98043120Y-75898380D02*
X97995501Y-75946000D01*
X97995501Y-75946000D02*
X97900263Y-75993619D01*
X97900263Y-75993619D02*
X97805025Y-75993619D01*
X97805025Y-75993619D02*
X97709787Y-75946000D01*
X97709787Y-75946000D02*
X97662168Y-75898380D01*
X97662168Y-75898380D02*
X97614549Y-75803142D01*
X97614549Y-75803142D02*
X97566930Y-75612666D01*
X97566930Y-75612666D02*
X97566930Y-75374571D01*
X97566930Y-75374571D02*
X97614549Y-75184095D01*
X97614549Y-75184095D02*
X97662168Y-75088857D01*
X97662168Y-75088857D02*
X97709787Y-75041238D01*
X97709787Y-75041238D02*
X97805025Y-74993619D01*
X99090739Y-75993619D02*
X98519311Y-75993619D01*
X98805025Y-75993619D02*
X98805025Y-74993619D01*
X98805025Y-74993619D02*
X98709787Y-75136476D01*
X98709787Y-75136476D02*
X98614549Y-75231714D01*
X98614549Y-75231714D02*
X98519311Y-75279333D01*
X99519311Y-75612666D02*
X100281216Y-75612666D01*
X100757406Y-75993619D02*
X100757406Y-74993619D01*
X100757406Y-74993619D02*
X100995501Y-74993619D01*
X100995501Y-74993619D02*
X101138358Y-75041238D01*
X101138358Y-75041238D02*
X101233596Y-75136476D01*
X101233596Y-75136476D02*
X101281215Y-75231714D01*
X101281215Y-75231714D02*
X101328834Y-75422190D01*
X101328834Y-75422190D02*
X101328834Y-75565047D01*
X101328834Y-75565047D02*
X101281215Y-75755523D01*
X101281215Y-75755523D02*
X101233596Y-75850761D01*
X101233596Y-75850761D02*
X101138358Y-75946000D01*
X101138358Y-75946000D02*
X100995501Y-75993619D01*
X100995501Y-75993619D02*
X100757406Y-75993619D01*
X101757406Y-75993619D02*
X101757406Y-74993619D01*
X102185977Y-75946000D02*
X102328834Y-75993619D01*
X102328834Y-75993619D02*
X102566929Y-75993619D01*
X102566929Y-75993619D02*
X102662167Y-75946000D01*
X102662167Y-75946000D02*
X102709786Y-75898380D01*
X102709786Y-75898380D02*
X102757405Y-75803142D01*
X102757405Y-75803142D02*
X102757405Y-75707904D01*
X102757405Y-75707904D02*
X102709786Y-75612666D01*
X102709786Y-75612666D02*
X102662167Y-75565047D01*
X102662167Y-75565047D02*
X102566929Y-75517428D01*
X102566929Y-75517428D02*
X102376453Y-75469809D01*
X102376453Y-75469809D02*
X102281215Y-75422190D01*
X102281215Y-75422190D02*
X102233596Y-75374571D01*
X102233596Y-75374571D02*
X102185977Y-75279333D01*
X102185977Y-75279333D02*
X102185977Y-75184095D01*
X102185977Y-75184095D02*
X102233596Y-75088857D01*
X102233596Y-75088857D02*
X102281215Y-75041238D01*
X102281215Y-75041238D02*
X102376453Y-74993619D01*
X102376453Y-74993619D02*
X102614548Y-74993619D01*
X102614548Y-74993619D02*
X102757405Y-75041238D01*
X103185977Y-75993619D02*
X103185977Y-74993619D01*
X103185977Y-74993619D02*
X103566929Y-74993619D01*
X103566929Y-74993619D02*
X103662167Y-75041238D01*
X103662167Y-75041238D02*
X103709786Y-75088857D01*
X103709786Y-75088857D02*
X103757405Y-75184095D01*
X103757405Y-75184095D02*
X103757405Y-75326952D01*
X103757405Y-75326952D02*
X103709786Y-75422190D01*
X103709786Y-75422190D02*
X103662167Y-75469809D01*
X103662167Y-75469809D02*
X103566929Y-75517428D01*
X103566929Y-75517428D02*
X103185977Y-75517428D01*
X104662167Y-75993619D02*
X104185977Y-75993619D01*
X104185977Y-75993619D02*
X104185977Y-74993619D01*
X104947882Y-75707904D02*
X105424072Y-75707904D01*
X104852644Y-75993619D02*
X105185977Y-74993619D01*
X105185977Y-74993619D02*
X105519310Y-75993619D01*
X106043120Y-75517428D02*
X106043120Y-75993619D01*
X105709787Y-74993619D02*
X106043120Y-75517428D01*
X106043120Y-75517428D02*
X106376453Y-74993619D01*
X106709787Y-75612666D02*
X107471692Y-75612666D01*
X107947882Y-75993619D02*
X107947882Y-74993619D01*
X107947882Y-74993619D02*
X108281215Y-75707904D01*
X108281215Y-75707904D02*
X108614548Y-74993619D01*
X108614548Y-74993619D02*
X108614548Y-75993619D01*
X109281215Y-74993619D02*
X109471691Y-74993619D01*
X109471691Y-74993619D02*
X109566929Y-75041238D01*
X109566929Y-75041238D02*
X109662167Y-75136476D01*
X109662167Y-75136476D02*
X109709786Y-75326952D01*
X109709786Y-75326952D02*
X109709786Y-75660285D01*
X109709786Y-75660285D02*
X109662167Y-75850761D01*
X109662167Y-75850761D02*
X109566929Y-75946000D01*
X109566929Y-75946000D02*
X109471691Y-75993619D01*
X109471691Y-75993619D02*
X109281215Y-75993619D01*
X109281215Y-75993619D02*
X109185977Y-75946000D01*
X109185977Y-75946000D02*
X109090739Y-75850761D01*
X109090739Y-75850761D02*
X109043120Y-75660285D01*
X109043120Y-75660285D02*
X109043120Y-75326952D01*
X109043120Y-75326952D02*
X109090739Y-75136476D01*
X109090739Y-75136476D02*
X109185977Y-75041238D01*
X109185977Y-75041238D02*
X109281215Y-74993619D01*
X110138358Y-74993619D02*
X110138358Y-75803142D01*
X110138358Y-75803142D02*
X110185977Y-75898380D01*
X110185977Y-75898380D02*
X110233596Y-75946000D01*
X110233596Y-75946000D02*
X110328834Y-75993619D01*
X110328834Y-75993619D02*
X110519310Y-75993619D01*
X110519310Y-75993619D02*
X110614548Y-75946000D01*
X110614548Y-75946000D02*
X110662167Y-75898380D01*
X110662167Y-75898380D02*
X110709786Y-75803142D01*
X110709786Y-75803142D02*
X110709786Y-74993619D01*
X111185977Y-75993619D02*
X111185977Y-74993619D01*
X111185977Y-74993619D02*
X111757405Y-75993619D01*
X111757405Y-75993619D02*
X111757405Y-74993619D01*
X112090739Y-74993619D02*
X112662167Y-74993619D01*
X112376453Y-75993619D02*
X112376453Y-74993619D01*
X112995501Y-75993619D02*
X112995501Y-74993619D01*
X113471691Y-75993619D02*
X113471691Y-74993619D01*
X113471691Y-74993619D02*
X114043119Y-75993619D01*
X114043119Y-75993619D02*
X114043119Y-74993619D01*
X115043119Y-75041238D02*
X114947881Y-74993619D01*
X114947881Y-74993619D02*
X114805024Y-74993619D01*
X114805024Y-74993619D02*
X114662167Y-75041238D01*
X114662167Y-75041238D02*
X114566929Y-75136476D01*
X114566929Y-75136476D02*
X114519310Y-75231714D01*
X114519310Y-75231714D02*
X114471691Y-75422190D01*
X114471691Y-75422190D02*
X114471691Y-75565047D01*
X114471691Y-75565047D02*
X114519310Y-75755523D01*
X114519310Y-75755523D02*
X114566929Y-75850761D01*
X114566929Y-75850761D02*
X114662167Y-75946000D01*
X114662167Y-75946000D02*
X114805024Y-75993619D01*
X114805024Y-75993619D02*
X114900262Y-75993619D01*
X114900262Y-75993619D02*
X115043119Y-75946000D01*
X115043119Y-75946000D02*
X115090738Y-75898380D01*
X115090738Y-75898380D02*
X115090738Y-75565047D01*
X115090738Y-75565047D02*
X114900262Y-75565047D01*
X115852643Y-75469809D02*
X115519310Y-75469809D01*
X115519310Y-75993619D02*
X115519310Y-74993619D01*
X115519310Y-74993619D02*
X115995500Y-74993619D01*
X116947881Y-75993619D02*
X116614548Y-75517428D01*
X116376453Y-75993619D02*
X116376453Y-74993619D01*
X116376453Y-74993619D02*
X116757405Y-74993619D01*
X116757405Y-74993619D02*
X116852643Y-75041238D01*
X116852643Y-75041238D02*
X116900262Y-75088857D01*
X116900262Y-75088857D02*
X116947881Y-75184095D01*
X116947881Y-75184095D02*
X116947881Y-75326952D01*
X116947881Y-75326952D02*
X116900262Y-75422190D01*
X116900262Y-75422190D02*
X116852643Y-75469809D01*
X116852643Y-75469809D02*
X116757405Y-75517428D01*
X116757405Y-75517428D02*
X116376453Y-75517428D01*
X117328834Y-75707904D02*
X117805024Y-75707904D01*
X117233596Y-75993619D02*
X117566929Y-74993619D01*
X117566929Y-74993619D02*
X117900262Y-75993619D01*
X118233596Y-75993619D02*
X118233596Y-74993619D01*
X118233596Y-74993619D02*
X118566929Y-75707904D01*
X118566929Y-75707904D02*
X118900262Y-74993619D01*
X118900262Y-74993619D02*
X118900262Y-75993619D01*
X119376453Y-75469809D02*
X119709786Y-75469809D01*
X119852643Y-75993619D02*
X119376453Y-75993619D01*
X119376453Y-75993619D02*
X119376453Y-74993619D01*
X119376453Y-74993619D02*
X119852643Y-74993619D01*
X120281215Y-75612666D02*
X121043120Y-75612666D01*
X121471691Y-75707904D02*
X121947881Y-75707904D01*
X121376453Y-75993619D02*
X121709786Y-74993619D01*
X121709786Y-74993619D02*
X122043119Y-75993619D01*
X122281215Y-74993619D02*
X122900262Y-74993619D01*
X122900262Y-74993619D02*
X122566929Y-75374571D01*
X122566929Y-75374571D02*
X122709786Y-75374571D01*
X122709786Y-75374571D02*
X122805024Y-75422190D01*
X122805024Y-75422190D02*
X122852643Y-75469809D01*
X122852643Y-75469809D02*
X122900262Y-75565047D01*
X122900262Y-75565047D02*
X122900262Y-75803142D01*
X122900262Y-75803142D02*
X122852643Y-75898380D01*
X122852643Y-75898380D02*
X122805024Y-75946000D01*
X122805024Y-75946000D02*
X122709786Y-75993619D01*
X122709786Y-75993619D02*
X122424072Y-75993619D01*
X122424072Y-75993619D02*
X122328834Y-75946000D01*
X122328834Y-75946000D02*
X122281215Y-75898380D01*
M02*
