%TF.GenerationSoftware,KiCad,Pcbnew,9.0.6-rc1*%
%TF.CreationDate,2025-10-17T10:46:46+01:00*%
%TF.ProjectId,PIDI-BOX-01-DISPLAY-MOUNTINGFRAME-A1,50494449-2d42-44f5-982d-30312d444953,rev?*%
%TF.SameCoordinates,Original*%
%TF.FileFunction,Copper,L2,Bot*%
%TF.FilePolarity,Positive*%
%FSLAX46Y46*%
G04 Gerber Fmt 4.6, Leading zero omitted, Abs format (unit mm)*
G04 Created by KiCad (PCBNEW 9.0.6-rc1) date 2025-10-17 10:46:46*
%MOMM*%
%LPD*%
G01*
G04 APERTURE LIST*
%ADD10C,0.150000*%
%TA.AperFunction,NonConductor*%
%ADD11C,0.150000*%
%TD*%
G04 APERTURE END LIST*
D10*
D11*
X120057630Y-111056707D02*
X120057630Y-110156707D01*
X120057630Y-110156707D02*
X119714773Y-110156707D01*
X119714773Y-110156707D02*
X119629058Y-110199564D01*
X119629058Y-110199564D02*
X119586201Y-110242421D01*
X119586201Y-110242421D02*
X119543344Y-110328135D01*
X119543344Y-110328135D02*
X119543344Y-110456707D01*
X119543344Y-110456707D02*
X119586201Y-110542421D01*
X119586201Y-110542421D02*
X119629058Y-110585278D01*
X119629058Y-110585278D02*
X119714773Y-110628135D01*
X119714773Y-110628135D02*
X120057630Y-110628135D01*
X119157630Y-111056707D02*
X119157630Y-110156707D01*
X118729059Y-111056707D02*
X118729059Y-110156707D01*
X118729059Y-110156707D02*
X118514773Y-110156707D01*
X118514773Y-110156707D02*
X118386202Y-110199564D01*
X118386202Y-110199564D02*
X118300487Y-110285278D01*
X118300487Y-110285278D02*
X118257630Y-110370992D01*
X118257630Y-110370992D02*
X118214773Y-110542421D01*
X118214773Y-110542421D02*
X118214773Y-110670992D01*
X118214773Y-110670992D02*
X118257630Y-110842421D01*
X118257630Y-110842421D02*
X118300487Y-110928135D01*
X118300487Y-110928135D02*
X118386202Y-111013850D01*
X118386202Y-111013850D02*
X118514773Y-111056707D01*
X118514773Y-111056707D02*
X118729059Y-111056707D01*
X117829059Y-111056707D02*
X117829059Y-110156707D01*
X117400488Y-110713850D02*
X116714774Y-110713850D01*
X115986202Y-110585278D02*
X115857630Y-110628135D01*
X115857630Y-110628135D02*
X115814773Y-110670992D01*
X115814773Y-110670992D02*
X115771916Y-110756707D01*
X115771916Y-110756707D02*
X115771916Y-110885278D01*
X115771916Y-110885278D02*
X115814773Y-110970992D01*
X115814773Y-110970992D02*
X115857630Y-111013850D01*
X115857630Y-111013850D02*
X115943345Y-111056707D01*
X115943345Y-111056707D02*
X116286202Y-111056707D01*
X116286202Y-111056707D02*
X116286202Y-110156707D01*
X116286202Y-110156707D02*
X115986202Y-110156707D01*
X115986202Y-110156707D02*
X115900488Y-110199564D01*
X115900488Y-110199564D02*
X115857630Y-110242421D01*
X115857630Y-110242421D02*
X115814773Y-110328135D01*
X115814773Y-110328135D02*
X115814773Y-110413850D01*
X115814773Y-110413850D02*
X115857630Y-110499564D01*
X115857630Y-110499564D02*
X115900488Y-110542421D01*
X115900488Y-110542421D02*
X115986202Y-110585278D01*
X115986202Y-110585278D02*
X116286202Y-110585278D01*
X115214773Y-110156707D02*
X115043345Y-110156707D01*
X115043345Y-110156707D02*
X114957630Y-110199564D01*
X114957630Y-110199564D02*
X114871916Y-110285278D01*
X114871916Y-110285278D02*
X114829059Y-110456707D01*
X114829059Y-110456707D02*
X114829059Y-110756707D01*
X114829059Y-110756707D02*
X114871916Y-110928135D01*
X114871916Y-110928135D02*
X114957630Y-111013850D01*
X114957630Y-111013850D02*
X115043345Y-111056707D01*
X115043345Y-111056707D02*
X115214773Y-111056707D01*
X115214773Y-111056707D02*
X115300488Y-111013850D01*
X115300488Y-111013850D02*
X115386202Y-110928135D01*
X115386202Y-110928135D02*
X115429059Y-110756707D01*
X115429059Y-110756707D02*
X115429059Y-110456707D01*
X115429059Y-110456707D02*
X115386202Y-110285278D01*
X115386202Y-110285278D02*
X115300488Y-110199564D01*
X115300488Y-110199564D02*
X115214773Y-110156707D01*
X114529059Y-110156707D02*
X113929059Y-111056707D01*
X113929059Y-110156707D02*
X114529059Y-111056707D01*
X113586202Y-110713850D02*
X112900488Y-110713850D01*
X112300487Y-110156707D02*
X112214773Y-110156707D01*
X112214773Y-110156707D02*
X112129059Y-110199564D01*
X112129059Y-110199564D02*
X112086202Y-110242421D01*
X112086202Y-110242421D02*
X112043344Y-110328135D01*
X112043344Y-110328135D02*
X112000487Y-110499564D01*
X112000487Y-110499564D02*
X112000487Y-110713850D01*
X112000487Y-110713850D02*
X112043344Y-110885278D01*
X112043344Y-110885278D02*
X112086202Y-110970992D01*
X112086202Y-110970992D02*
X112129059Y-111013850D01*
X112129059Y-111013850D02*
X112214773Y-111056707D01*
X112214773Y-111056707D02*
X112300487Y-111056707D01*
X112300487Y-111056707D02*
X112386202Y-111013850D01*
X112386202Y-111013850D02*
X112429059Y-110970992D01*
X112429059Y-110970992D02*
X112471916Y-110885278D01*
X112471916Y-110885278D02*
X112514773Y-110713850D01*
X112514773Y-110713850D02*
X112514773Y-110499564D01*
X112514773Y-110499564D02*
X112471916Y-110328135D01*
X112471916Y-110328135D02*
X112429059Y-110242421D01*
X112429059Y-110242421D02*
X112386202Y-110199564D01*
X112386202Y-110199564D02*
X112300487Y-110156707D01*
X111143344Y-111056707D02*
X111657630Y-111056707D01*
X111400487Y-111056707D02*
X111400487Y-110156707D01*
X111400487Y-110156707D02*
X111486201Y-110285278D01*
X111486201Y-110285278D02*
X111571916Y-110370992D01*
X111571916Y-110370992D02*
X111657630Y-110413850D01*
X110757630Y-110713850D02*
X110071916Y-110713850D01*
X109643344Y-111056707D02*
X109643344Y-110156707D01*
X109643344Y-110156707D02*
X109429058Y-110156707D01*
X109429058Y-110156707D02*
X109300487Y-110199564D01*
X109300487Y-110199564D02*
X109214772Y-110285278D01*
X109214772Y-110285278D02*
X109171915Y-110370992D01*
X109171915Y-110370992D02*
X109129058Y-110542421D01*
X109129058Y-110542421D02*
X109129058Y-110670992D01*
X109129058Y-110670992D02*
X109171915Y-110842421D01*
X109171915Y-110842421D02*
X109214772Y-110928135D01*
X109214772Y-110928135D02*
X109300487Y-111013850D01*
X109300487Y-111013850D02*
X109429058Y-111056707D01*
X109429058Y-111056707D02*
X109643344Y-111056707D01*
X108743344Y-111056707D02*
X108743344Y-110156707D01*
X108357630Y-111013850D02*
X108229059Y-111056707D01*
X108229059Y-111056707D02*
X108014773Y-111056707D01*
X108014773Y-111056707D02*
X107929059Y-111013850D01*
X107929059Y-111013850D02*
X107886201Y-110970992D01*
X107886201Y-110970992D02*
X107843344Y-110885278D01*
X107843344Y-110885278D02*
X107843344Y-110799564D01*
X107843344Y-110799564D02*
X107886201Y-110713850D01*
X107886201Y-110713850D02*
X107929059Y-110670992D01*
X107929059Y-110670992D02*
X108014773Y-110628135D01*
X108014773Y-110628135D02*
X108186201Y-110585278D01*
X108186201Y-110585278D02*
X108271916Y-110542421D01*
X108271916Y-110542421D02*
X108314773Y-110499564D01*
X108314773Y-110499564D02*
X108357630Y-110413850D01*
X108357630Y-110413850D02*
X108357630Y-110328135D01*
X108357630Y-110328135D02*
X108314773Y-110242421D01*
X108314773Y-110242421D02*
X108271916Y-110199564D01*
X108271916Y-110199564D02*
X108186201Y-110156707D01*
X108186201Y-110156707D02*
X107971916Y-110156707D01*
X107971916Y-110156707D02*
X107843344Y-110199564D01*
X107457630Y-111056707D02*
X107457630Y-110156707D01*
X107457630Y-110156707D02*
X107114773Y-110156707D01*
X107114773Y-110156707D02*
X107029058Y-110199564D01*
X107029058Y-110199564D02*
X106986201Y-110242421D01*
X106986201Y-110242421D02*
X106943344Y-110328135D01*
X106943344Y-110328135D02*
X106943344Y-110456707D01*
X106943344Y-110456707D02*
X106986201Y-110542421D01*
X106986201Y-110542421D02*
X107029058Y-110585278D01*
X107029058Y-110585278D02*
X107114773Y-110628135D01*
X107114773Y-110628135D02*
X107457630Y-110628135D01*
X106129058Y-111056707D02*
X106557630Y-111056707D01*
X106557630Y-111056707D02*
X106557630Y-110156707D01*
X105871916Y-110799564D02*
X105443345Y-110799564D01*
X105957630Y-111056707D02*
X105657630Y-110156707D01*
X105657630Y-110156707D02*
X105357630Y-111056707D01*
X104886201Y-110628135D02*
X104886201Y-111056707D01*
X105186201Y-110156707D02*
X104886201Y-110628135D01*
X104886201Y-110628135D02*
X104586201Y-110156707D01*
X104286201Y-110713850D02*
X103600487Y-110713850D01*
X103171915Y-111056707D02*
X103171915Y-110156707D01*
X103171915Y-110156707D02*
X102871915Y-110799564D01*
X102871915Y-110799564D02*
X102571915Y-110156707D01*
X102571915Y-110156707D02*
X102571915Y-111056707D01*
X101971915Y-110156707D02*
X101800487Y-110156707D01*
X101800487Y-110156707D02*
X101714772Y-110199564D01*
X101714772Y-110199564D02*
X101629058Y-110285278D01*
X101629058Y-110285278D02*
X101586201Y-110456707D01*
X101586201Y-110456707D02*
X101586201Y-110756707D01*
X101586201Y-110756707D02*
X101629058Y-110928135D01*
X101629058Y-110928135D02*
X101714772Y-111013850D01*
X101714772Y-111013850D02*
X101800487Y-111056707D01*
X101800487Y-111056707D02*
X101971915Y-111056707D01*
X101971915Y-111056707D02*
X102057630Y-111013850D01*
X102057630Y-111013850D02*
X102143344Y-110928135D01*
X102143344Y-110928135D02*
X102186201Y-110756707D01*
X102186201Y-110756707D02*
X102186201Y-110456707D01*
X102186201Y-110456707D02*
X102143344Y-110285278D01*
X102143344Y-110285278D02*
X102057630Y-110199564D01*
X102057630Y-110199564D02*
X101971915Y-110156707D01*
X101200487Y-110156707D02*
X101200487Y-110885278D01*
X101200487Y-110885278D02*
X101157630Y-110970992D01*
X101157630Y-110970992D02*
X101114773Y-111013850D01*
X101114773Y-111013850D02*
X101029058Y-111056707D01*
X101029058Y-111056707D02*
X100857630Y-111056707D01*
X100857630Y-111056707D02*
X100771915Y-111013850D01*
X100771915Y-111013850D02*
X100729058Y-110970992D01*
X100729058Y-110970992D02*
X100686201Y-110885278D01*
X100686201Y-110885278D02*
X100686201Y-110156707D01*
X100257630Y-111056707D02*
X100257630Y-110156707D01*
X100257630Y-110156707D02*
X99743344Y-111056707D01*
X99743344Y-111056707D02*
X99743344Y-110156707D01*
X99443344Y-110156707D02*
X98929059Y-110156707D01*
X99186201Y-111056707D02*
X99186201Y-110156707D01*
X98629059Y-111056707D02*
X98629059Y-110156707D01*
X98200488Y-111056707D02*
X98200488Y-110156707D01*
X98200488Y-110156707D02*
X97686202Y-111056707D01*
X97686202Y-111056707D02*
X97686202Y-110156707D01*
X96786202Y-110199564D02*
X96871917Y-110156707D01*
X96871917Y-110156707D02*
X97000488Y-110156707D01*
X97000488Y-110156707D02*
X97129059Y-110199564D01*
X97129059Y-110199564D02*
X97214774Y-110285278D01*
X97214774Y-110285278D02*
X97257631Y-110370992D01*
X97257631Y-110370992D02*
X97300488Y-110542421D01*
X97300488Y-110542421D02*
X97300488Y-110670992D01*
X97300488Y-110670992D02*
X97257631Y-110842421D01*
X97257631Y-110842421D02*
X97214774Y-110928135D01*
X97214774Y-110928135D02*
X97129059Y-111013850D01*
X97129059Y-111013850D02*
X97000488Y-111056707D01*
X97000488Y-111056707D02*
X96914774Y-111056707D01*
X96914774Y-111056707D02*
X96786202Y-111013850D01*
X96786202Y-111013850D02*
X96743345Y-110970992D01*
X96743345Y-110970992D02*
X96743345Y-110670992D01*
X96743345Y-110670992D02*
X96914774Y-110670992D01*
X96057631Y-110585278D02*
X96357631Y-110585278D01*
X96357631Y-111056707D02*
X96357631Y-110156707D01*
X96357631Y-110156707D02*
X95929059Y-110156707D01*
X95071916Y-111056707D02*
X95371916Y-110628135D01*
X95586202Y-111056707D02*
X95586202Y-110156707D01*
X95586202Y-110156707D02*
X95243345Y-110156707D01*
X95243345Y-110156707D02*
X95157630Y-110199564D01*
X95157630Y-110199564D02*
X95114773Y-110242421D01*
X95114773Y-110242421D02*
X95071916Y-110328135D01*
X95071916Y-110328135D02*
X95071916Y-110456707D01*
X95071916Y-110456707D02*
X95114773Y-110542421D01*
X95114773Y-110542421D02*
X95157630Y-110585278D01*
X95157630Y-110585278D02*
X95243345Y-110628135D01*
X95243345Y-110628135D02*
X95586202Y-110628135D01*
X94729059Y-110799564D02*
X94300488Y-110799564D01*
X94814773Y-111056707D02*
X94514773Y-110156707D01*
X94514773Y-110156707D02*
X94214773Y-111056707D01*
X93914773Y-111056707D02*
X93914773Y-110156707D01*
X93914773Y-110156707D02*
X93614773Y-110799564D01*
X93614773Y-110799564D02*
X93314773Y-110156707D01*
X93314773Y-110156707D02*
X93314773Y-111056707D01*
X92886202Y-110585278D02*
X92586202Y-110585278D01*
X92457630Y-111056707D02*
X92886202Y-111056707D01*
X92886202Y-111056707D02*
X92886202Y-110156707D01*
X92886202Y-110156707D02*
X92457630Y-110156707D01*
X92071916Y-110713850D02*
X91386202Y-110713850D01*
X91000487Y-110799564D02*
X90571916Y-110799564D01*
X91086201Y-111056707D02*
X90786201Y-110156707D01*
X90786201Y-110156707D02*
X90486201Y-111056707D01*
X90271915Y-110156707D02*
X89714772Y-110156707D01*
X89714772Y-110156707D02*
X90014772Y-110499564D01*
X90014772Y-110499564D02*
X89886201Y-110499564D01*
X89886201Y-110499564D02*
X89800487Y-110542421D01*
X89800487Y-110542421D02*
X89757629Y-110585278D01*
X89757629Y-110585278D02*
X89714772Y-110670992D01*
X89714772Y-110670992D02*
X89714772Y-110885278D01*
X89714772Y-110885278D02*
X89757629Y-110970992D01*
X89757629Y-110970992D02*
X89800487Y-111013850D01*
X89800487Y-111013850D02*
X89886201Y-111056707D01*
X89886201Y-111056707D02*
X90143344Y-111056707D01*
X90143344Y-111056707D02*
X90229058Y-111013850D01*
X90229058Y-111013850D02*
X90271915Y-110970992D01*
M02*
