%TF.GenerationSoftware,KiCad,Pcbnew,9.0.6*%
%TF.CreationDate,2025-12-26T20:16:36+00:00*%
%TF.ProjectId,PIDI-BOX-01-DIGIN-6-OPTO-MAIN-A1,50494449-2d42-44f5-982d-30312d444947,rev?*%
%TF.SameCoordinates,Original*%
%TF.FileFunction,Copper,L2,Bot*%
%TF.FilePolarity,Positive*%
%FSLAX46Y46*%
G04 Gerber Fmt 4.6, Leading zero omitted, Abs format (unit mm)*
G04 Created by KiCad (PCBNEW 9.0.6) date 2025-12-26 20:16:36*
%MOMM*%
%LPD*%
G01*
G04 APERTURE LIST*
%ADD10C,0.150000*%
%TA.AperFunction,NonConductor*%
%ADD11C,0.150000*%
%TD*%
%TA.AperFunction,ComponentPad*%
%ADD12R,2.400000X2.400000*%
%TD*%
%TA.AperFunction,ComponentPad*%
%ADD13C,2.400000*%
%TD*%
%TA.AperFunction,ComponentPad*%
%ADD14R,1.700000X1.700000*%
%TD*%
%TA.AperFunction,ComponentPad*%
%ADD15C,1.700000*%
%TD*%
%TA.AperFunction,ViaPad*%
%ADD16C,0.600000*%
%TD*%
%TA.AperFunction,ViaPad*%
%ADD17C,1.500000*%
%TD*%
%TA.AperFunction,ViaPad*%
%ADD18C,1.200000*%
%TD*%
%TA.AperFunction,Conductor*%
%ADD19C,0.800000*%
%TD*%
%TA.AperFunction,Conductor*%
%ADD20C,0.400000*%
%TD*%
%TA.AperFunction,Conductor*%
%ADD21C,0.300000*%
%TD*%
G04 APERTURE END LIST*
D10*
D11*
X170856039Y-88032295D02*
X170856039Y-87232295D01*
X170856039Y-87232295D02*
X170551277Y-87232295D01*
X170551277Y-87232295D02*
X170475087Y-87270390D01*
X170475087Y-87270390D02*
X170436992Y-87308485D01*
X170436992Y-87308485D02*
X170398896Y-87384676D01*
X170398896Y-87384676D02*
X170398896Y-87498961D01*
X170398896Y-87498961D02*
X170436992Y-87575152D01*
X170436992Y-87575152D02*
X170475087Y-87613247D01*
X170475087Y-87613247D02*
X170551277Y-87651342D01*
X170551277Y-87651342D02*
X170856039Y-87651342D01*
X170056039Y-88032295D02*
X170056039Y-87232295D01*
X169675087Y-88032295D02*
X169675087Y-87232295D01*
X169675087Y-87232295D02*
X169484611Y-87232295D01*
X169484611Y-87232295D02*
X169370325Y-87270390D01*
X169370325Y-87270390D02*
X169294135Y-87346580D01*
X169294135Y-87346580D02*
X169256040Y-87422771D01*
X169256040Y-87422771D02*
X169217944Y-87575152D01*
X169217944Y-87575152D02*
X169217944Y-87689438D01*
X169217944Y-87689438D02*
X169256040Y-87841819D01*
X169256040Y-87841819D02*
X169294135Y-87918009D01*
X169294135Y-87918009D02*
X169370325Y-87994200D01*
X169370325Y-87994200D02*
X169484611Y-88032295D01*
X169484611Y-88032295D02*
X169675087Y-88032295D01*
X168875087Y-88032295D02*
X168875087Y-87232295D01*
X168494135Y-87727533D02*
X167884612Y-87727533D01*
X167236993Y-87613247D02*
X167122707Y-87651342D01*
X167122707Y-87651342D02*
X167084612Y-87689438D01*
X167084612Y-87689438D02*
X167046516Y-87765628D01*
X167046516Y-87765628D02*
X167046516Y-87879914D01*
X167046516Y-87879914D02*
X167084612Y-87956104D01*
X167084612Y-87956104D02*
X167122707Y-87994200D01*
X167122707Y-87994200D02*
X167198897Y-88032295D01*
X167198897Y-88032295D02*
X167503659Y-88032295D01*
X167503659Y-88032295D02*
X167503659Y-87232295D01*
X167503659Y-87232295D02*
X167236993Y-87232295D01*
X167236993Y-87232295D02*
X167160802Y-87270390D01*
X167160802Y-87270390D02*
X167122707Y-87308485D01*
X167122707Y-87308485D02*
X167084612Y-87384676D01*
X167084612Y-87384676D02*
X167084612Y-87460866D01*
X167084612Y-87460866D02*
X167122707Y-87537057D01*
X167122707Y-87537057D02*
X167160802Y-87575152D01*
X167160802Y-87575152D02*
X167236993Y-87613247D01*
X167236993Y-87613247D02*
X167503659Y-87613247D01*
X166551278Y-87232295D02*
X166398897Y-87232295D01*
X166398897Y-87232295D02*
X166322707Y-87270390D01*
X166322707Y-87270390D02*
X166246516Y-87346580D01*
X166246516Y-87346580D02*
X166208421Y-87498961D01*
X166208421Y-87498961D02*
X166208421Y-87765628D01*
X166208421Y-87765628D02*
X166246516Y-87918009D01*
X166246516Y-87918009D02*
X166322707Y-87994200D01*
X166322707Y-87994200D02*
X166398897Y-88032295D01*
X166398897Y-88032295D02*
X166551278Y-88032295D01*
X166551278Y-88032295D02*
X166627469Y-87994200D01*
X166627469Y-87994200D02*
X166703659Y-87918009D01*
X166703659Y-87918009D02*
X166741755Y-87765628D01*
X166741755Y-87765628D02*
X166741755Y-87498961D01*
X166741755Y-87498961D02*
X166703659Y-87346580D01*
X166703659Y-87346580D02*
X166627469Y-87270390D01*
X166627469Y-87270390D02*
X166551278Y-87232295D01*
X165941755Y-87232295D02*
X165408421Y-88032295D01*
X165408421Y-87232295D02*
X165941755Y-88032295D01*
X165103659Y-87727533D02*
X164494136Y-87727533D01*
X163960802Y-87232295D02*
X163884612Y-87232295D01*
X163884612Y-87232295D02*
X163808421Y-87270390D01*
X163808421Y-87270390D02*
X163770326Y-87308485D01*
X163770326Y-87308485D02*
X163732231Y-87384676D01*
X163732231Y-87384676D02*
X163694136Y-87537057D01*
X163694136Y-87537057D02*
X163694136Y-87727533D01*
X163694136Y-87727533D02*
X163732231Y-87879914D01*
X163732231Y-87879914D02*
X163770326Y-87956104D01*
X163770326Y-87956104D02*
X163808421Y-87994200D01*
X163808421Y-87994200D02*
X163884612Y-88032295D01*
X163884612Y-88032295D02*
X163960802Y-88032295D01*
X163960802Y-88032295D02*
X164036993Y-87994200D01*
X164036993Y-87994200D02*
X164075088Y-87956104D01*
X164075088Y-87956104D02*
X164113183Y-87879914D01*
X164113183Y-87879914D02*
X164151279Y-87727533D01*
X164151279Y-87727533D02*
X164151279Y-87537057D01*
X164151279Y-87537057D02*
X164113183Y-87384676D01*
X164113183Y-87384676D02*
X164075088Y-87308485D01*
X164075088Y-87308485D02*
X164036993Y-87270390D01*
X164036993Y-87270390D02*
X163960802Y-87232295D01*
X162932231Y-88032295D02*
X163389374Y-88032295D01*
X163160802Y-88032295D02*
X163160802Y-87232295D01*
X163160802Y-87232295D02*
X163236993Y-87346580D01*
X163236993Y-87346580D02*
X163313183Y-87422771D01*
X163313183Y-87422771D02*
X163389374Y-87460866D01*
X162589373Y-87727533D02*
X161979850Y-87727533D01*
X161598897Y-88032295D02*
X161598897Y-87232295D01*
X161598897Y-87232295D02*
X161408421Y-87232295D01*
X161408421Y-87232295D02*
X161294135Y-87270390D01*
X161294135Y-87270390D02*
X161217945Y-87346580D01*
X161217945Y-87346580D02*
X161179850Y-87422771D01*
X161179850Y-87422771D02*
X161141754Y-87575152D01*
X161141754Y-87575152D02*
X161141754Y-87689438D01*
X161141754Y-87689438D02*
X161179850Y-87841819D01*
X161179850Y-87841819D02*
X161217945Y-87918009D01*
X161217945Y-87918009D02*
X161294135Y-87994200D01*
X161294135Y-87994200D02*
X161408421Y-88032295D01*
X161408421Y-88032295D02*
X161598897Y-88032295D01*
X160798897Y-88032295D02*
X160798897Y-87232295D01*
X159998898Y-87270390D02*
X160075088Y-87232295D01*
X160075088Y-87232295D02*
X160189374Y-87232295D01*
X160189374Y-87232295D02*
X160303660Y-87270390D01*
X160303660Y-87270390D02*
X160379850Y-87346580D01*
X160379850Y-87346580D02*
X160417945Y-87422771D01*
X160417945Y-87422771D02*
X160456041Y-87575152D01*
X160456041Y-87575152D02*
X160456041Y-87689438D01*
X160456041Y-87689438D02*
X160417945Y-87841819D01*
X160417945Y-87841819D02*
X160379850Y-87918009D01*
X160379850Y-87918009D02*
X160303660Y-87994200D01*
X160303660Y-87994200D02*
X160189374Y-88032295D01*
X160189374Y-88032295D02*
X160113183Y-88032295D01*
X160113183Y-88032295D02*
X159998898Y-87994200D01*
X159998898Y-87994200D02*
X159960802Y-87956104D01*
X159960802Y-87956104D02*
X159960802Y-87689438D01*
X159960802Y-87689438D02*
X160113183Y-87689438D01*
X159617945Y-88032295D02*
X159617945Y-87232295D01*
X159236993Y-88032295D02*
X159236993Y-87232295D01*
X159236993Y-87232295D02*
X158779850Y-88032295D01*
X158779850Y-88032295D02*
X158779850Y-87232295D01*
X158398898Y-87727533D02*
X157789375Y-87727533D01*
X157065565Y-87232295D02*
X157217946Y-87232295D01*
X157217946Y-87232295D02*
X157294137Y-87270390D01*
X157294137Y-87270390D02*
X157332232Y-87308485D01*
X157332232Y-87308485D02*
X157408422Y-87422771D01*
X157408422Y-87422771D02*
X157446518Y-87575152D01*
X157446518Y-87575152D02*
X157446518Y-87879914D01*
X157446518Y-87879914D02*
X157408422Y-87956104D01*
X157408422Y-87956104D02*
X157370327Y-87994200D01*
X157370327Y-87994200D02*
X157294137Y-88032295D01*
X157294137Y-88032295D02*
X157141756Y-88032295D01*
X157141756Y-88032295D02*
X157065565Y-87994200D01*
X157065565Y-87994200D02*
X157027470Y-87956104D01*
X157027470Y-87956104D02*
X156989375Y-87879914D01*
X156989375Y-87879914D02*
X156989375Y-87689438D01*
X156989375Y-87689438D02*
X157027470Y-87613247D01*
X157027470Y-87613247D02*
X157065565Y-87575152D01*
X157065565Y-87575152D02*
X157141756Y-87537057D01*
X157141756Y-87537057D02*
X157294137Y-87537057D01*
X157294137Y-87537057D02*
X157370327Y-87575152D01*
X157370327Y-87575152D02*
X157408422Y-87613247D01*
X157408422Y-87613247D02*
X157446518Y-87689438D01*
X156646517Y-87727533D02*
X156036994Y-87727533D01*
X155503660Y-87232295D02*
X155351279Y-87232295D01*
X155351279Y-87232295D02*
X155275089Y-87270390D01*
X155275089Y-87270390D02*
X155198898Y-87346580D01*
X155198898Y-87346580D02*
X155160803Y-87498961D01*
X155160803Y-87498961D02*
X155160803Y-87765628D01*
X155160803Y-87765628D02*
X155198898Y-87918009D01*
X155198898Y-87918009D02*
X155275089Y-87994200D01*
X155275089Y-87994200D02*
X155351279Y-88032295D01*
X155351279Y-88032295D02*
X155503660Y-88032295D01*
X155503660Y-88032295D02*
X155579851Y-87994200D01*
X155579851Y-87994200D02*
X155656041Y-87918009D01*
X155656041Y-87918009D02*
X155694137Y-87765628D01*
X155694137Y-87765628D02*
X155694137Y-87498961D01*
X155694137Y-87498961D02*
X155656041Y-87346580D01*
X155656041Y-87346580D02*
X155579851Y-87270390D01*
X155579851Y-87270390D02*
X155503660Y-87232295D01*
X154817946Y-88032295D02*
X154817946Y-87232295D01*
X154817946Y-87232295D02*
X154513184Y-87232295D01*
X154513184Y-87232295D02*
X154436994Y-87270390D01*
X154436994Y-87270390D02*
X154398899Y-87308485D01*
X154398899Y-87308485D02*
X154360803Y-87384676D01*
X154360803Y-87384676D02*
X154360803Y-87498961D01*
X154360803Y-87498961D02*
X154398899Y-87575152D01*
X154398899Y-87575152D02*
X154436994Y-87613247D01*
X154436994Y-87613247D02*
X154513184Y-87651342D01*
X154513184Y-87651342D02*
X154817946Y-87651342D01*
X154132232Y-87232295D02*
X153675089Y-87232295D01*
X153903661Y-88032295D02*
X153903661Y-87232295D01*
X153256041Y-87232295D02*
X153103660Y-87232295D01*
X153103660Y-87232295D02*
X153027470Y-87270390D01*
X153027470Y-87270390D02*
X152951279Y-87346580D01*
X152951279Y-87346580D02*
X152913184Y-87498961D01*
X152913184Y-87498961D02*
X152913184Y-87765628D01*
X152913184Y-87765628D02*
X152951279Y-87918009D01*
X152951279Y-87918009D02*
X153027470Y-87994200D01*
X153027470Y-87994200D02*
X153103660Y-88032295D01*
X153103660Y-88032295D02*
X153256041Y-88032295D01*
X153256041Y-88032295D02*
X153332232Y-87994200D01*
X153332232Y-87994200D02*
X153408422Y-87918009D01*
X153408422Y-87918009D02*
X153446518Y-87765628D01*
X153446518Y-87765628D02*
X153446518Y-87498961D01*
X153446518Y-87498961D02*
X153408422Y-87346580D01*
X153408422Y-87346580D02*
X153332232Y-87270390D01*
X153332232Y-87270390D02*
X153256041Y-87232295D01*
X152570327Y-87727533D02*
X151960804Y-87727533D01*
X151579851Y-88032295D02*
X151579851Y-87232295D01*
X151579851Y-87232295D02*
X151313185Y-87803723D01*
X151313185Y-87803723D02*
X151046518Y-87232295D01*
X151046518Y-87232295D02*
X151046518Y-88032295D01*
X150703661Y-87803723D02*
X150322708Y-87803723D01*
X150779851Y-88032295D02*
X150513184Y-87232295D01*
X150513184Y-87232295D02*
X150246518Y-88032295D01*
X149979851Y-88032295D02*
X149979851Y-87232295D01*
X149598899Y-88032295D02*
X149598899Y-87232295D01*
X149598899Y-87232295D02*
X149141756Y-88032295D01*
X149141756Y-88032295D02*
X149141756Y-87232295D01*
X148760804Y-87727533D02*
X148151281Y-87727533D01*
X147808424Y-87803723D02*
X147427471Y-87803723D01*
X147884614Y-88032295D02*
X147617947Y-87232295D01*
X147617947Y-87232295D02*
X147351281Y-88032295D01*
X146665567Y-88032295D02*
X147122710Y-88032295D01*
X146894138Y-88032295D02*
X146894138Y-87232295D01*
X146894138Y-87232295D02*
X146970329Y-87346580D01*
X146970329Y-87346580D02*
X147046519Y-87422771D01*
X147046519Y-87422771D02*
X147122710Y-87460866D01*
D12*
%TO.P,J1,1,1*%
%TO.N,Net-(J1-Pad1)*%
X187883800Y-75031600D03*
D13*
%TO.P,J1,2,2*%
%TO.N,Net-(IC1-Pad2)*%
X187883800Y-80111600D03*
%TO.P,J1,3,3*%
%TO.N,Net-(J1-Pad3)*%
X187883800Y-85191600D03*
%TD*%
D12*
%TO.P,J4,1,1*%
%TO.N,Net-(J4-Pad1)*%
X111788600Y-85158000D03*
D13*
%TO.P,J4,2,2*%
%TO.N,Net-(J4-Pad2)*%
X111788600Y-80078000D03*
%TO.P,J4,3,3*%
%TO.N,Net-(J4-Pad3)*%
X111788600Y-74998000D03*
%TD*%
D12*
%TO.P,J3,1,1*%
%TO.N,Net-(IC4-Pad1)*%
X111810800Y-69875400D03*
D13*
%TO.P,J3,2,2*%
%TO.N,GND*%
X111810800Y-64795400D03*
%TO.P,J3,3,3*%
%TO.N,Net-(D2-A)*%
X111810800Y-59715400D03*
%TD*%
D14*
%TO.P,J5,1,Pin_1*%
%TO.N,+12V*%
X133985000Y-64998600D03*
D15*
%TO.P,J5,2,Pin_2*%
%TO.N,GND*%
X133985000Y-62458600D03*
%TO.P,J5,3,Pin_3*%
%TO.N,unconnected-(J5-Pin_3-Pad3)*%
X136525000Y-64998600D03*
%TO.P,J5,4,Pin_4*%
%TO.N,GND*%
X136525000Y-62458600D03*
%TO.P,J5,5,Pin_5*%
%TO.N,P1*%
X139065000Y-64998600D03*
%TO.P,J5,6,Pin_6*%
%TO.N,P0*%
X139065000Y-62458600D03*
%TO.P,J5,7,Pin_7*%
%TO.N,P5*%
X141605000Y-64998600D03*
%TO.P,J5,8,Pin_8*%
%TO.N,P2*%
X141605000Y-62458600D03*
%TO.P,J5,9,Pin_9*%
%TO.N,unconnected-(J5-Pin_9-Pad9)*%
X144145000Y-64998600D03*
%TO.P,J5,10,Pin_10*%
%TO.N,unconnected-(J5-Pin_10-Pad10)*%
X144145000Y-62458600D03*
%TO.P,J5,11,Pin_11*%
%TO.N,P4*%
X146685000Y-64998600D03*
%TO.P,J5,12,Pin_12*%
%TO.N,P3*%
X146685000Y-62458600D03*
%TD*%
D12*
%TO.P,J2,1,1*%
%TO.N,Net-(IC3-Pad2)*%
X187833800Y-59781600D03*
D13*
%TO.P,J2,2,2*%
%TO.N,Net-(J2-Pad2)*%
X187833800Y-64861600D03*
%TO.P,J2,3,3*%
%TO.N,Net-(IC2-Pad2)*%
X187833800Y-69941600D03*
%TD*%
D14*
%TO.P,J6,1,Pin_1*%
%TO.N,+12V*%
X166497000Y-79781400D03*
D15*
%TO.P,J6,2,Pin_2*%
%TO.N,S6*%
X166497000Y-82321400D03*
%TO.P,J6,3,Pin_3*%
%TO.N,unconnected-(J6-Pin_3-Pad3)*%
X163957000Y-79781400D03*
%TO.P,J6,4,Pin_4*%
%TO.N,S5*%
X163957000Y-82321400D03*
%TO.P,J6,5,Pin_5*%
%TO.N,unconnected-(J6-Pin_5-Pad5)*%
X161417000Y-79781400D03*
%TO.P,J6,6,Pin_6*%
%TO.N,S4*%
X161417000Y-82321400D03*
%TO.P,J6,7,Pin_7*%
%TO.N,unconnected-(J6-Pin_7-Pad7)*%
X158877000Y-79781400D03*
%TO.P,J6,8,Pin_8*%
%TO.N,S3*%
X158877000Y-82321400D03*
%TO.P,J6,9,Pin_9*%
%TO.N,S1*%
X156337000Y-79781400D03*
%TO.P,J6,10,Pin_10*%
%TO.N,S2*%
X156337000Y-82321400D03*
%TO.P,J6,11,Pin_11*%
%TO.N,GND*%
X153797000Y-79781400D03*
%TO.P,J6,12,Pin_12*%
X153797000Y-82321400D03*
%TD*%
D16*
%TO.N,+12V*%
X141991600Y-82169000D03*
X158496000Y-62941200D03*
X162179000Y-70205600D03*
X142042400Y-75595000D03*
X142448800Y-68808600D03*
X158496000Y-64973200D03*
X140614400Y-58547000D03*
D17*
X129660400Y-61823600D03*
D16*
X159156400Y-74980800D03*
X163855400Y-76428600D03*
%TO.N,GND*%
X139019800Y-71653400D03*
X132384800Y-77266800D03*
D18*
X117729000Y-66090800D03*
D16*
X141432800Y-86029800D03*
X132334000Y-87477600D03*
X163703000Y-72047600D03*
X132410200Y-82423000D03*
X171754800Y-67505600D03*
X137953000Y-80035400D03*
X170484800Y-59994800D03*
X131572000Y-69570600D03*
X171881800Y-77647800D03*
%TO.N,S6*%
X146405600Y-79207600D03*
X144475000Y-69875000D03*
%TO.N,S3*%
X170002200Y-62890400D03*
%TO.N,S2*%
X156083000Y-74803000D03*
X156108400Y-71297800D03*
%TO.N,P3*%
X148996400Y-76657200D03*
X148996400Y-85013800D03*
%TO.N,P1*%
X159575000Y-65938400D03*
X158425000Y-58750200D03*
%TO.N,P4*%
X147421600Y-75946000D03*
X147320000Y-80492600D03*
%TD*%
D19*
%TO.N,+12V*%
X163855400Y-76428600D02*
X165430200Y-76428600D01*
D20*
X141991600Y-75645800D02*
X141991600Y-82169000D01*
D19*
X158496000Y-60604400D02*
X158496000Y-62941200D01*
X129641600Y-59994800D02*
X131089400Y-58547000D01*
X129660400Y-61823600D02*
X129641600Y-61804800D01*
X165430200Y-76428600D02*
X166497000Y-77495400D01*
D21*
X162179000Y-70205600D02*
X158546800Y-70205600D01*
D19*
X159156400Y-74980800D02*
X160604200Y-76428600D01*
D20*
X142042400Y-75595000D02*
X141991600Y-75645800D01*
X142042400Y-75595000D02*
X142042400Y-69215000D01*
D19*
X129641600Y-61804800D02*
X129641600Y-59994800D01*
X158496000Y-74320400D02*
X158496000Y-70154800D01*
X156438600Y-58547000D02*
X158496000Y-60604400D01*
X158496000Y-62941200D02*
X158496000Y-67183000D01*
X140614400Y-58547000D02*
X156438600Y-58547000D01*
X159156400Y-74980800D02*
X158496000Y-74320400D01*
D21*
X158546800Y-70205600D02*
X158496000Y-70154800D01*
D19*
X131089400Y-58547000D02*
X140614400Y-58547000D01*
D20*
X142042400Y-69215000D02*
X142448800Y-68808600D01*
D19*
X158496000Y-67183000D02*
X158496000Y-70154800D01*
X160604200Y-76428600D02*
X164363400Y-76428600D01*
X166497000Y-77495400D02*
X166497000Y-79781400D01*
D21*
%TO.N,S6*%
X144475000Y-69875000D02*
X144475000Y-74447200D01*
X146405600Y-76377800D02*
X146405600Y-79207600D01*
X144475000Y-74447200D02*
X146405600Y-76377800D01*
%TO.N,S3*%
X169570400Y-84353400D02*
X168910000Y-85013800D01*
X158877000Y-83997800D02*
X158877000Y-82321400D01*
X159893000Y-85013800D02*
X158877000Y-83997800D01*
X168910000Y-85013800D02*
X159893000Y-85013800D01*
X169570400Y-63322200D02*
X169570400Y-84353400D01*
X170002200Y-62890400D02*
X169570400Y-63322200D01*
%TO.N,S2*%
X156108400Y-71551800D02*
X156083000Y-71577200D01*
X156108400Y-71297800D02*
X156108400Y-71551800D01*
X156083000Y-71577200D02*
X156083000Y-74803000D01*
%TO.N,P3*%
X148996400Y-76657200D02*
X148996400Y-85013800D01*
%TO.N,P1*%
X158425200Y-58750200D02*
X159575000Y-59900000D01*
X158425000Y-58750200D02*
X158425200Y-58750200D01*
X159575000Y-59900000D02*
X159575000Y-65938400D01*
%TO.N,P4*%
X147421600Y-75946000D02*
X147421600Y-80391000D01*
X147421600Y-80391000D02*
X147320000Y-80492600D01*
%TD*%
%TA.AperFunction,Conductor*%
%TO.N,GND*%
G36*
X154912270Y-80543117D02*
G01*
X154912270Y-80543116D01*
X154951622Y-80488955D01*
X154956232Y-80479907D01*
X155004205Y-80429109D01*
X155072025Y-80412312D01*
X155138161Y-80434847D01*
X155177204Y-80479904D01*
X155181949Y-80489217D01*
X155306890Y-80661186D01*
X155457213Y-80811509D01*
X155629182Y-80936450D01*
X155637946Y-80940916D01*
X155688742Y-80988891D01*
X155705536Y-81056712D01*
X155682998Y-81122847D01*
X155637946Y-81161884D01*
X155629182Y-81166349D01*
X155457213Y-81291290D01*
X155306890Y-81441613D01*
X155181949Y-81613582D01*
X155177202Y-81622899D01*
X155129227Y-81673693D01*
X155061405Y-81690487D01*
X154995271Y-81667948D01*
X154956234Y-81622895D01*
X154951626Y-81613852D01*
X154912270Y-81559682D01*
X154912269Y-81559682D01*
X154279962Y-82191990D01*
X154262925Y-82128407D01*
X154197099Y-82014393D01*
X154104007Y-81921301D01*
X153989993Y-81855475D01*
X153926409Y-81838437D01*
X154558716Y-81206128D01*
X154504550Y-81166775D01*
X154494954Y-81161886D01*
X154444157Y-81113912D01*
X154427361Y-81046092D01*
X154449897Y-80979956D01*
X154494954Y-80940914D01*
X154504554Y-80936022D01*
X154558716Y-80896670D01*
X154558717Y-80896670D01*
X153926408Y-80264362D01*
X153989993Y-80247325D01*
X154104007Y-80181499D01*
X154197099Y-80088407D01*
X154262925Y-79974393D01*
X154279962Y-79910809D01*
X154912270Y-80543117D01*
G37*
%TD.AperFunction*%
%TA.AperFunction,Conductor*%
G36*
X137640270Y-63220317D02*
G01*
X137640270Y-63220316D01*
X137679622Y-63166155D01*
X137684232Y-63157107D01*
X137732205Y-63106309D01*
X137800025Y-63089512D01*
X137866161Y-63112047D01*
X137905204Y-63157104D01*
X137909949Y-63166417D01*
X138034890Y-63338386D01*
X138185213Y-63488709D01*
X138357182Y-63613650D01*
X138365946Y-63618116D01*
X138416742Y-63666091D01*
X138433536Y-63733912D01*
X138410998Y-63800047D01*
X138365946Y-63839084D01*
X138357182Y-63843549D01*
X138185213Y-63968490D01*
X138034890Y-64118813D01*
X137909949Y-64290782D01*
X137905484Y-64299546D01*
X137857509Y-64350342D01*
X137789688Y-64367136D01*
X137723553Y-64344598D01*
X137684516Y-64299546D01*
X137680050Y-64290782D01*
X137555109Y-64118813D01*
X137404786Y-63968490D01*
X137232817Y-63843549D01*
X137223504Y-63838804D01*
X137172707Y-63790830D01*
X137155912Y-63723009D01*
X137178449Y-63656874D01*
X137223507Y-63617832D01*
X137232555Y-63613222D01*
X137286716Y-63573870D01*
X137286717Y-63573870D01*
X136654408Y-62941562D01*
X136717993Y-62924525D01*
X136832007Y-62858699D01*
X136925099Y-62765607D01*
X136990925Y-62651593D01*
X137007962Y-62588008D01*
X137640270Y-63220317D01*
G37*
%TD.AperFunction*%
%TA.AperFunction,Conductor*%
G36*
X136059075Y-62651593D02*
G01*
X136124901Y-62765607D01*
X136217993Y-62858699D01*
X136332007Y-62924525D01*
X136395590Y-62941562D01*
X135763282Y-63573869D01*
X135763282Y-63573870D01*
X135817452Y-63613226D01*
X135817451Y-63613226D01*
X135826495Y-63617834D01*
X135877292Y-63665808D01*
X135894087Y-63733629D01*
X135871550Y-63799764D01*
X135826499Y-63838802D01*
X135817182Y-63843549D01*
X135645215Y-63968489D01*
X135531673Y-64082031D01*
X135470350Y-64115515D01*
X135400658Y-64110531D01*
X135344725Y-64068659D01*
X135327810Y-64037682D01*
X135278797Y-63906271D01*
X135278793Y-63906264D01*
X135192547Y-63791055D01*
X135192544Y-63791052D01*
X135077335Y-63704806D01*
X135077328Y-63704802D01*
X134942482Y-63654508D01*
X134942483Y-63654508D01*
X134882883Y-63648101D01*
X134882881Y-63648100D01*
X134882873Y-63648100D01*
X134882865Y-63648100D01*
X134872309Y-63648100D01*
X134805270Y-63628415D01*
X134784628Y-63611781D01*
X134114408Y-62941562D01*
X134177993Y-62924525D01*
X134292007Y-62858699D01*
X134385099Y-62765607D01*
X134450925Y-62651593D01*
X134467962Y-62588009D01*
X135100270Y-63220317D01*
X135100270Y-63220316D01*
X135139622Y-63166154D01*
X135144514Y-63156554D01*
X135192488Y-63105757D01*
X135260308Y-63088961D01*
X135326444Y-63111497D01*
X135365486Y-63156554D01*
X135370375Y-63166150D01*
X135409728Y-63220316D01*
X136042037Y-62588008D01*
X136059075Y-62651593D01*
G37*
%TD.AperFunction*%
%TA.AperFunction,Conductor*%
G36*
X173373495Y-56476385D02*
G01*
X173419250Y-56529189D01*
X173430456Y-56581013D01*
X173355312Y-86337913D01*
X173335458Y-86404903D01*
X173282538Y-86450524D01*
X173231312Y-86461600D01*
X144729200Y-86461600D01*
X144729200Y-87937800D01*
X144709515Y-88004839D01*
X144656711Y-88050594D01*
X144605200Y-88061800D01*
X131239349Y-88061800D01*
X131172310Y-88042115D01*
X131126555Y-87989311D01*
X131115350Y-87937252D01*
X131121919Y-86450524D01*
X131141184Y-82090153D01*
X141191100Y-82090153D01*
X141191100Y-82247846D01*
X141221861Y-82402489D01*
X141221864Y-82402501D01*
X141282202Y-82548172D01*
X141282209Y-82548185D01*
X141369810Y-82679288D01*
X141369813Y-82679292D01*
X141481307Y-82790786D01*
X141481311Y-82790789D01*
X141612414Y-82878390D01*
X141612427Y-82878397D01*
X141758098Y-82938735D01*
X141758103Y-82938737D01*
X141910792Y-82969109D01*
X141912753Y-82969499D01*
X141912756Y-82969500D01*
X141912758Y-82969500D01*
X142070444Y-82969500D01*
X142070445Y-82969499D01*
X142225097Y-82938737D01*
X142370779Y-82878394D01*
X142501889Y-82790789D01*
X142613389Y-82679289D01*
X142700994Y-82548179D01*
X142761337Y-82402497D01*
X142792100Y-82247842D01*
X142792100Y-82090158D01*
X142792100Y-82090155D01*
X142792099Y-82090153D01*
X142761338Y-81935510D01*
X142761337Y-81935503D01*
X142728189Y-81855475D01*
X142701539Y-81791136D01*
X142692100Y-81743684D01*
X142692100Y-76101132D01*
X142711785Y-76034093D01*
X142712963Y-76032292D01*
X142751794Y-75974179D01*
X142812137Y-75828497D01*
X142836389Y-75706573D01*
X142842900Y-75673843D01*
X142842900Y-75516155D01*
X142842899Y-75516153D01*
X142812138Y-75361510D01*
X142812137Y-75361503D01*
X142760405Y-75236609D01*
X142752339Y-75217136D01*
X142742900Y-75169684D01*
X142742900Y-69796153D01*
X143674500Y-69796153D01*
X143674500Y-69953846D01*
X143705261Y-70108489D01*
X143705264Y-70108501D01*
X143765602Y-70254172D01*
X143765606Y-70254179D01*
X143803602Y-70311044D01*
X143824480Y-70377721D01*
X143824500Y-70379935D01*
X143824500Y-74511270D01*
X143836084Y-74569502D01*
X143836084Y-74569504D01*
X143849497Y-74636936D01*
X143849499Y-74636944D01*
X143898534Y-74755325D01*
X143969726Y-74861873D01*
X143969727Y-74861874D01*
X145718781Y-76610927D01*
X145752266Y-76672250D01*
X145755100Y-76698608D01*
X145755100Y-78702664D01*
X145735415Y-78769703D01*
X145734203Y-78771554D01*
X145696208Y-78828417D01*
X145696202Y-78828428D01*
X145635864Y-78974098D01*
X145635861Y-78974110D01*
X145605100Y-79128753D01*
X145605100Y-79286446D01*
X145635861Y-79441089D01*
X145635864Y-79441101D01*
X145696202Y-79586772D01*
X145696209Y-79586785D01*
X145783810Y-79717888D01*
X145783813Y-79717892D01*
X145895307Y-79829386D01*
X145895311Y-79829389D01*
X146026414Y-79916990D01*
X146026427Y-79916997D01*
X146172098Y-79977335D01*
X146172103Y-79977337D01*
X146326753Y-80008099D01*
X146326756Y-80008100D01*
X146468652Y-80008100D01*
X146535691Y-80027785D01*
X146581446Y-80080589D01*
X146591390Y-80149747D01*
X146583213Y-80179552D01*
X146550264Y-80259098D01*
X146550261Y-80259110D01*
X146519500Y-80413753D01*
X146519500Y-80571446D01*
X146550261Y-80726089D01*
X146550264Y-80726101D01*
X146610602Y-80871772D01*
X146610609Y-80871785D01*
X146698210Y-81002888D01*
X146698213Y-81002892D01*
X146809707Y-81114386D01*
X146809711Y-81114389D01*
X146940814Y-81201990D01*
X146940827Y-81201997D01*
X147086498Y-81262335D01*
X147086503Y-81262337D01*
X147232059Y-81291290D01*
X147241153Y-81293099D01*
X147241156Y-81293100D01*
X147241158Y-81293100D01*
X147398844Y-81293100D01*
X147398845Y-81293099D01*
X147553497Y-81262337D01*
X147699179Y-81201994D01*
X147830289Y-81114389D01*
X147941789Y-81002889D01*
X148029394Y-80871779D01*
X148089737Y-80726097D01*
X148100283Y-80673081D01*
X148132668Y-80611170D01*
X148193383Y-80576596D01*
X148263153Y-80580335D01*
X148319825Y-80621202D01*
X148345406Y-80686220D01*
X148345900Y-80697272D01*
X148345900Y-84508864D01*
X148326215Y-84575903D01*
X148325003Y-84577754D01*
X148287008Y-84634617D01*
X148287002Y-84634628D01*
X148226664Y-84780298D01*
X148226661Y-84780310D01*
X148195900Y-84934953D01*
X148195900Y-85092646D01*
X148226661Y-85247289D01*
X148226664Y-85247301D01*
X148287002Y-85392972D01*
X148287009Y-85392985D01*
X148374610Y-85524088D01*
X148374613Y-85524092D01*
X148486107Y-85635586D01*
X148486111Y-85635589D01*
X148617214Y-85723190D01*
X148617227Y-85723197D01*
X148762898Y-85783535D01*
X148762903Y-85783537D01*
X148917553Y-85814299D01*
X148917556Y-85814300D01*
X148917558Y-85814300D01*
X149075244Y-85814300D01*
X149075245Y-85814299D01*
X149229897Y-85783537D01*
X149375579Y-85723194D01*
X149506689Y-85635589D01*
X149618189Y-85524089D01*
X149705794Y-85392979D01*
X149766137Y-85247297D01*
X149796900Y-85092642D01*
X149796900Y-84934958D01*
X149796900Y-84934955D01*
X149796899Y-84934953D01*
X149766138Y-84780310D01*
X149766137Y-84780303D01*
X149761069Y-84768067D01*
X149705797Y-84634628D01*
X149705796Y-84634627D01*
X149705794Y-84634621D01*
X149667796Y-84577753D01*
X149646920Y-84511076D01*
X149646900Y-84508864D01*
X149646900Y-77162135D01*
X149666585Y-77095096D01*
X149667766Y-77093290D01*
X149705794Y-77036379D01*
X149716419Y-77010729D01*
X149766135Y-76890701D01*
X149766137Y-76890697D01*
X149796900Y-76736042D01*
X149796900Y-76578358D01*
X149796900Y-76578355D01*
X149796899Y-76578353D01*
X149766138Y-76423710D01*
X149766137Y-76423703D01*
X149761836Y-76413320D01*
X149705797Y-76278027D01*
X149705790Y-76278014D01*
X149618189Y-76146911D01*
X149618186Y-76146907D01*
X149506692Y-76035413D01*
X149506688Y-76035410D01*
X149375585Y-75947809D01*
X149375572Y-75947802D01*
X149229901Y-75887464D01*
X149229889Y-75887461D01*
X149075245Y-75856700D01*
X149075242Y-75856700D01*
X148917558Y-75856700D01*
X148917555Y-75856700D01*
X148762910Y-75887461D01*
X148762898Y-75887464D01*
X148617227Y-75947802D01*
X148617214Y-75947809D01*
X148486111Y-76035410D01*
X148486107Y-76035413D01*
X148433781Y-76087740D01*
X148372458Y-76121225D01*
X148302766Y-76116241D01*
X148246833Y-76074369D01*
X148222416Y-76008905D01*
X148222100Y-76000059D01*
X148222100Y-75867155D01*
X148222099Y-75867153D01*
X148218730Y-75850218D01*
X148191337Y-75712503D01*
X148146187Y-75603500D01*
X148130997Y-75566827D01*
X148130990Y-75566814D01*
X148043389Y-75435711D01*
X148043386Y-75435707D01*
X147931892Y-75324213D01*
X147931888Y-75324210D01*
X147800785Y-75236609D01*
X147800772Y-75236602D01*
X147655101Y-75176264D01*
X147655089Y-75176261D01*
X147500445Y-75145500D01*
X147500442Y-75145500D01*
X147342758Y-75145500D01*
X147342755Y-75145500D01*
X147188110Y-75176261D01*
X147188098Y-75176264D01*
X147042427Y-75236602D01*
X147042414Y-75236609D01*
X146911311Y-75324210D01*
X146911307Y-75324213D01*
X146799813Y-75435707D01*
X146716985Y-75559667D01*
X146663372Y-75604471D01*
X146594047Y-75613178D01*
X146531020Y-75583023D01*
X146526202Y-75578456D01*
X145671899Y-74724153D01*
X155282500Y-74724153D01*
X155282500Y-74881846D01*
X155313261Y-75036489D01*
X155313264Y-75036501D01*
X155373602Y-75182172D01*
X155373609Y-75182185D01*
X155461210Y-75313288D01*
X155461213Y-75313292D01*
X155572707Y-75424786D01*
X155572711Y-75424789D01*
X155703814Y-75512390D01*
X155703827Y-75512397D01*
X155835220Y-75566821D01*
X155849503Y-75572737D01*
X155958641Y-75594446D01*
X156004153Y-75603499D01*
X156004156Y-75603500D01*
X156004158Y-75603500D01*
X156161844Y-75603500D01*
X156161845Y-75603499D01*
X156316497Y-75572737D01*
X156462179Y-75512394D01*
X156593289Y-75424789D01*
X156704789Y-75313289D01*
X156792394Y-75182179D01*
X156794845Y-75176263D01*
X156852735Y-75036501D01*
X156852737Y-75036497D01*
X156883500Y-74881842D01*
X156883500Y-74724158D01*
X156883500Y-74724155D01*
X156883499Y-74724153D01*
X156852738Y-74569510D01*
X156852737Y-74569503D01*
X156792394Y-74423821D01*
X156754396Y-74366953D01*
X156733520Y-74300276D01*
X156733500Y-74298064D01*
X156733500Y-71840748D01*
X156753185Y-71773709D01*
X156754360Y-71771912D01*
X156817794Y-71676979D01*
X156878137Y-71531297D01*
X156908900Y-71376642D01*
X156908900Y-71218958D01*
X156908900Y-71218955D01*
X156908899Y-71218953D01*
X156878138Y-71064310D01*
X156878137Y-71064303D01*
X156854029Y-71006100D01*
X156817797Y-70918627D01*
X156817790Y-70918614D01*
X156730189Y-70787511D01*
X156730186Y-70787507D01*
X156618692Y-70676013D01*
X156618688Y-70676010D01*
X156487585Y-70588409D01*
X156487572Y-70588402D01*
X156341901Y-70528064D01*
X156341889Y-70528061D01*
X156187245Y-70497300D01*
X156187242Y-70497300D01*
X156029558Y-70497300D01*
X156029555Y-70497300D01*
X155874910Y-70528061D01*
X155874898Y-70528064D01*
X155729227Y-70588402D01*
X155729214Y-70588409D01*
X155598111Y-70676010D01*
X155598107Y-70676013D01*
X155486613Y-70787507D01*
X155486610Y-70787511D01*
X155399009Y-70918614D01*
X155399002Y-70918627D01*
X155338664Y-71064298D01*
X155338661Y-71064310D01*
X155307900Y-71218953D01*
X155307900Y-71376646D01*
X155338661Y-71531289D01*
X155338664Y-71531301D01*
X155399002Y-71676972D01*
X155399007Y-71676981D01*
X155411601Y-71695828D01*
X155432480Y-71762505D01*
X155432500Y-71764721D01*
X155432500Y-74298064D01*
X155412815Y-74365103D01*
X155411603Y-74366954D01*
X155373608Y-74423817D01*
X155373602Y-74423828D01*
X155313264Y-74569498D01*
X155313261Y-74569510D01*
X155282500Y-74724153D01*
X145671899Y-74724153D01*
X145161819Y-74214073D01*
X145128334Y-74152750D01*
X145125500Y-74126392D01*
X145125500Y-70379935D01*
X145145185Y-70312896D01*
X145146366Y-70311090D01*
X145184394Y-70254179D01*
X145244737Y-70108497D01*
X145275500Y-69953842D01*
X145275500Y-69796158D01*
X145275500Y-69796155D01*
X145275499Y-69796153D01*
X145244738Y-69641510D01*
X145244737Y-69641503D01*
X145220841Y-69583813D01*
X145184397Y-69495827D01*
X145184390Y-69495814D01*
X145096789Y-69364711D01*
X145096786Y-69364707D01*
X144985292Y-69253213D01*
X144985288Y-69253210D01*
X144854185Y-69165609D01*
X144854172Y-69165602D01*
X144708501Y-69105264D01*
X144708489Y-69105261D01*
X144553845Y-69074500D01*
X144553842Y-69074500D01*
X144396158Y-69074500D01*
X144396155Y-69074500D01*
X144241510Y-69105261D01*
X144241498Y-69105264D01*
X144095827Y-69165602D01*
X144095814Y-69165609D01*
X143964711Y-69253210D01*
X143964707Y-69253213D01*
X143853213Y-69364707D01*
X143853210Y-69364711D01*
X143765609Y-69495814D01*
X143765602Y-69495827D01*
X143705264Y-69641498D01*
X143705261Y-69641510D01*
X143674500Y-69796153D01*
X142742900Y-69796153D01*
X142742900Y-69636088D01*
X142762585Y-69569049D01*
X142815389Y-69523294D01*
X142819429Y-69521535D01*
X142827979Y-69517994D01*
X142959089Y-69430389D01*
X143070589Y-69318889D01*
X143158194Y-69187779D01*
X143218537Y-69042097D01*
X143249300Y-68887442D01*
X143249300Y-68729758D01*
X143249300Y-68729755D01*
X143249299Y-68729753D01*
X143218537Y-68575103D01*
X143217991Y-68573785D01*
X143158197Y-68429427D01*
X143158190Y-68429414D01*
X143070589Y-68298311D01*
X143070586Y-68298307D01*
X142959092Y-68186813D01*
X142959088Y-68186810D01*
X142827985Y-68099209D01*
X142827972Y-68099202D01*
X142682301Y-68038864D01*
X142682289Y-68038861D01*
X142527645Y-68008100D01*
X142527642Y-68008100D01*
X142369958Y-68008100D01*
X142369955Y-68008100D01*
X142215310Y-68038861D01*
X142215298Y-68038864D01*
X142069627Y-68099202D01*
X142069614Y-68099209D01*
X141938511Y-68186810D01*
X141938507Y-68186813D01*
X141827013Y-68298307D01*
X141827010Y-68298311D01*
X141739409Y-68429414D01*
X141739404Y-68429424D01*
X141679608Y-68573785D01*
X141652729Y-68614013D01*
X141498284Y-68768459D01*
X141421622Y-68883192D01*
X141368821Y-69010667D01*
X141368818Y-69010679D01*
X141350005Y-69105261D01*
X141350005Y-69105264D01*
X141341900Y-69146006D01*
X141341900Y-75169684D01*
X141332461Y-75217136D01*
X141272664Y-75361498D01*
X141272661Y-75361510D01*
X141241900Y-75516153D01*
X141241900Y-75673843D01*
X141252898Y-75729136D01*
X141272663Y-75828497D01*
X141281661Y-75850222D01*
X141291100Y-75897672D01*
X141291100Y-81743684D01*
X141281661Y-81791136D01*
X141221864Y-81935498D01*
X141221861Y-81935510D01*
X141191100Y-82090153D01*
X131141184Y-82090153D01*
X131191000Y-70815200D01*
X116176590Y-70840391D01*
X116109518Y-70820819D01*
X116063674Y-70768092D01*
X116052382Y-70716611D01*
X116040796Y-64100735D01*
X132634500Y-64100735D01*
X132634500Y-65896470D01*
X132634501Y-65896476D01*
X132640908Y-65956083D01*
X132691202Y-66090928D01*
X132691206Y-66090935D01*
X132777452Y-66206144D01*
X132777455Y-66206147D01*
X132892664Y-66292393D01*
X132892671Y-66292397D01*
X133027517Y-66342691D01*
X133027516Y-66342691D01*
X133034444Y-66343435D01*
X133087127Y-66349100D01*
X134882872Y-66349099D01*
X134942483Y-66342691D01*
X135077331Y-66292396D01*
X135192546Y-66206146D01*
X135278796Y-66090931D01*
X135327810Y-65959516D01*
X135369681Y-65903584D01*
X135435145Y-65879166D01*
X135503418Y-65894017D01*
X135531673Y-65915169D01*
X135645213Y-66028709D01*
X135817179Y-66153648D01*
X135817181Y-66153649D01*
X135817184Y-66153651D01*
X136006588Y-66250157D01*
X136208757Y-66315846D01*
X136418713Y-66349100D01*
X136418714Y-66349100D01*
X136631286Y-66349100D01*
X136631287Y-66349100D01*
X136841243Y-66315846D01*
X137043412Y-66250157D01*
X137232816Y-66153651D01*
X137319138Y-66090935D01*
X137404786Y-66028709D01*
X137404788Y-66028706D01*
X137404792Y-66028704D01*
X137555104Y-65878392D01*
X137555106Y-65878388D01*
X137555109Y-65878386D01*
X137680048Y-65706420D01*
X137680047Y-65706420D01*
X137680051Y-65706416D01*
X137684514Y-65697654D01*
X137732488Y-65646859D01*
X137800308Y-65630063D01*
X137866444Y-65652599D01*
X137905486Y-65697656D01*
X137909951Y-65706420D01*
X138034890Y-65878386D01*
X138185213Y-66028709D01*
X138357179Y-66153648D01*
X138357181Y-66153649D01*
X138357184Y-66153651D01*
X138546588Y-66250157D01*
X138748757Y-66315846D01*
X138958713Y-66349100D01*
X138958714Y-66349100D01*
X139171286Y-66349100D01*
X139171287Y-66349100D01*
X139381243Y-66315846D01*
X139583412Y-66250157D01*
X139772816Y-66153651D01*
X139859138Y-66090935D01*
X139944786Y-66028709D01*
X139944788Y-66028706D01*
X139944792Y-66028704D01*
X140095104Y-65878392D01*
X140095106Y-65878388D01*
X140095109Y-65878386D01*
X140220048Y-65706420D01*
X140220047Y-65706420D01*
X140220051Y-65706416D01*
X140224514Y-65697654D01*
X140272488Y-65646859D01*
X140340308Y-65630063D01*
X140406444Y-65652599D01*
X140445486Y-65697656D01*
X140449951Y-65706420D01*
X140574890Y-65878386D01*
X140725213Y-66028709D01*
X140897179Y-66153648D01*
X140897181Y-66153649D01*
X140897184Y-66153651D01*
X141086588Y-66250157D01*
X141288757Y-66315846D01*
X141498713Y-66349100D01*
X141498714Y-66349100D01*
X141711286Y-66349100D01*
X141711287Y-66349100D01*
X141921243Y-66315846D01*
X142123412Y-66250157D01*
X142312816Y-66153651D01*
X142399138Y-66090935D01*
X142484786Y-66028709D01*
X142484788Y-66028706D01*
X142484792Y-66028704D01*
X142635104Y-65878392D01*
X142635106Y-65878388D01*
X142635109Y-65878386D01*
X142760048Y-65706420D01*
X142760047Y-65706420D01*
X142760051Y-65706416D01*
X142764514Y-65697654D01*
X142812488Y-65646859D01*
X142880308Y-65630063D01*
X142946444Y-65652599D01*
X142985486Y-65697656D01*
X142989951Y-65706420D01*
X143114890Y-65878386D01*
X143265213Y-66028709D01*
X143437179Y-66153648D01*
X143437181Y-66153649D01*
X143437184Y-66153651D01*
X143626588Y-66250157D01*
X143828757Y-66315846D01*
X144038713Y-66349100D01*
X144038714Y-66349100D01*
X144251286Y-66349100D01*
X144251287Y-66349100D01*
X144461243Y-66315846D01*
X144663412Y-66250157D01*
X144852816Y-66153651D01*
X144939138Y-66090935D01*
X145024786Y-66028709D01*
X145024788Y-66028706D01*
X145024792Y-66028704D01*
X145175104Y-65878392D01*
X145175106Y-65878388D01*
X145175109Y-65878386D01*
X145300048Y-65706420D01*
X145300047Y-65706420D01*
X145300051Y-65706416D01*
X145304514Y-65697654D01*
X145352488Y-65646859D01*
X145420308Y-65630063D01*
X145486444Y-65652599D01*
X145525486Y-65697656D01*
X145529951Y-65706420D01*
X145654890Y-65878386D01*
X145805213Y-66028709D01*
X145977179Y-66153648D01*
X145977181Y-66153649D01*
X145977184Y-66153651D01*
X146166588Y-66250157D01*
X146368757Y-66315846D01*
X146578713Y-66349100D01*
X146578714Y-66349100D01*
X146791286Y-66349100D01*
X146791287Y-66349100D01*
X147001243Y-66315846D01*
X147203412Y-66250157D01*
X147392816Y-66153651D01*
X147479138Y-66090935D01*
X147564786Y-66028709D01*
X147564788Y-66028706D01*
X147564792Y-66028704D01*
X147715104Y-65878392D01*
X147715106Y-65878388D01*
X147715109Y-65878386D01*
X147840048Y-65706420D01*
X147840047Y-65706420D01*
X147840051Y-65706416D01*
X147936557Y-65517012D01*
X148002246Y-65314843D01*
X148035500Y-65104887D01*
X148035500Y-64892313D01*
X148002246Y-64682357D01*
X147936557Y-64480188D01*
X147840051Y-64290784D01*
X147840049Y-64290781D01*
X147840048Y-64290779D01*
X147715109Y-64118813D01*
X147564786Y-63968490D01*
X147392820Y-63843551D01*
X147392115Y-63843191D01*
X147384054Y-63839085D01*
X147333259Y-63791112D01*
X147316463Y-63723292D01*
X147338999Y-63657156D01*
X147384054Y-63618115D01*
X147392816Y-63613651D01*
X147447572Y-63573869D01*
X147564786Y-63488709D01*
X147564788Y-63488706D01*
X147564792Y-63488704D01*
X147715104Y-63338392D01*
X147715106Y-63338388D01*
X147715109Y-63338386D01*
X147840048Y-63166420D01*
X147840050Y-63166417D01*
X147840051Y-63166416D01*
X147936557Y-62977012D01*
X148002246Y-62774843D01*
X148035500Y-62564887D01*
X148035500Y-62352313D01*
X148002246Y-62142357D01*
X147936557Y-61940188D01*
X147840051Y-61750784D01*
X147840049Y-61750781D01*
X147840048Y-61750779D01*
X147715109Y-61578813D01*
X147564786Y-61428490D01*
X147392820Y-61303551D01*
X147203414Y-61207044D01*
X147203413Y-61207043D01*
X147203412Y-61207043D01*
X147001243Y-61141354D01*
X147001241Y-61141353D01*
X147001240Y-61141353D01*
X146839957Y-61115808D01*
X146791287Y-61108100D01*
X146578713Y-61108100D01*
X146530042Y-61115808D01*
X146368760Y-61141353D01*
X146166585Y-61207044D01*
X145977179Y-61303551D01*
X145805213Y-61428490D01*
X145654890Y-61578813D01*
X145529949Y-61750782D01*
X145525484Y-61759546D01*
X145477509Y-61810342D01*
X145409688Y-61827136D01*
X145343553Y-61804598D01*
X145304516Y-61759546D01*
X145300050Y-61750782D01*
X145175109Y-61578813D01*
X145024786Y-61428490D01*
X144852820Y-61303551D01*
X144663414Y-61207044D01*
X144663413Y-61207043D01*
X144663412Y-61207043D01*
X144461243Y-61141354D01*
X144461241Y-61141353D01*
X144461240Y-61141353D01*
X144299957Y-61115808D01*
X144251287Y-61108100D01*
X144038713Y-61108100D01*
X143990042Y-61115808D01*
X143828760Y-61141353D01*
X143626585Y-61207044D01*
X143437179Y-61303551D01*
X143265213Y-61428490D01*
X143114890Y-61578813D01*
X142989949Y-61750782D01*
X142985484Y-61759546D01*
X142937509Y-61810342D01*
X142869688Y-61827136D01*
X142803553Y-61804598D01*
X142764516Y-61759546D01*
X142760050Y-61750782D01*
X142635109Y-61578813D01*
X142484786Y-61428490D01*
X142312820Y-61303551D01*
X142123414Y-61207044D01*
X142123413Y-61207043D01*
X142123412Y-61207043D01*
X141921243Y-61141354D01*
X141921241Y-61141353D01*
X141921240Y-61141353D01*
X141759957Y-61115808D01*
X141711287Y-61108100D01*
X141498713Y-61108100D01*
X141450042Y-61115808D01*
X141288760Y-61141353D01*
X141086585Y-61207044D01*
X140897179Y-61303551D01*
X140725213Y-61428490D01*
X140574890Y-61578813D01*
X140449949Y-61750782D01*
X140445484Y-61759546D01*
X140397509Y-61810342D01*
X140329688Y-61827136D01*
X140263553Y-61804598D01*
X140224516Y-61759546D01*
X140220050Y-61750782D01*
X140095109Y-61578813D01*
X139944786Y-61428490D01*
X139772820Y-61303551D01*
X139583414Y-61207044D01*
X139583413Y-61207043D01*
X139583412Y-61207043D01*
X139381243Y-61141354D01*
X139381241Y-61141353D01*
X139381240Y-61141353D01*
X139219957Y-61115808D01*
X139171287Y-61108100D01*
X138958713Y-61108100D01*
X138910042Y-61115808D01*
X138748760Y-61141353D01*
X138546585Y-61207044D01*
X138357179Y-61303551D01*
X138185213Y-61428490D01*
X138034890Y-61578813D01*
X137909949Y-61750782D01*
X137905202Y-61760099D01*
X137857227Y-61810893D01*
X137789405Y-61827687D01*
X137723271Y-61805148D01*
X137684234Y-61760095D01*
X137679626Y-61751052D01*
X137640270Y-61696882D01*
X137640269Y-61696882D01*
X137007962Y-62329190D01*
X136990925Y-62265607D01*
X136925099Y-62151593D01*
X136832007Y-62058501D01*
X136717993Y-61992675D01*
X136654409Y-61975637D01*
X137286716Y-61343328D01*
X137232550Y-61303975D01*
X137043217Y-61207504D01*
X136841129Y-61141842D01*
X136631246Y-61108600D01*
X136418754Y-61108600D01*
X136208872Y-61141842D01*
X136208869Y-61141842D01*
X136006782Y-61207504D01*
X135817439Y-61303980D01*
X135763282Y-61343327D01*
X135763282Y-61343328D01*
X136395591Y-61975637D01*
X136332007Y-61992675D01*
X136217993Y-62058501D01*
X136124901Y-62151593D01*
X136059075Y-62265607D01*
X136042037Y-62329191D01*
X135409728Y-61696882D01*
X135409727Y-61696882D01*
X135370380Y-61751040D01*
X135365483Y-61760651D01*
X135317506Y-61811445D01*
X135249684Y-61828238D01*
X135183550Y-61805698D01*
X135144516Y-61760648D01*
X135139626Y-61751052D01*
X135100270Y-61696882D01*
X135100269Y-61696882D01*
X134467962Y-62329190D01*
X134450925Y-62265607D01*
X134385099Y-62151593D01*
X134292007Y-62058501D01*
X134177993Y-61992675D01*
X134114409Y-61975637D01*
X134746716Y-61343328D01*
X134692550Y-61303975D01*
X134503217Y-61207504D01*
X134301129Y-61141842D01*
X134091246Y-61108600D01*
X133878754Y-61108600D01*
X133668872Y-61141842D01*
X133668869Y-61141842D01*
X133466782Y-61207504D01*
X133277439Y-61303980D01*
X133223282Y-61343327D01*
X133223282Y-61343328D01*
X133855591Y-61975637D01*
X133792007Y-61992675D01*
X133677993Y-62058501D01*
X133584901Y-62151593D01*
X133519075Y-62265607D01*
X133502037Y-62329191D01*
X132869728Y-61696882D01*
X132869727Y-61696882D01*
X132830380Y-61751039D01*
X132733904Y-61940382D01*
X132668242Y-62142469D01*
X132668242Y-62142472D01*
X132635000Y-62352353D01*
X132635000Y-62564846D01*
X132668242Y-62774727D01*
X132668242Y-62774730D01*
X132733904Y-62976817D01*
X132830375Y-63166150D01*
X132869728Y-63220316D01*
X133502037Y-62588008D01*
X133519075Y-62651593D01*
X133584901Y-62765607D01*
X133677993Y-62858699D01*
X133792007Y-62924525D01*
X133855590Y-62941562D01*
X133185370Y-63611781D01*
X133124047Y-63645266D01*
X133097698Y-63648100D01*
X133087134Y-63648100D01*
X133087123Y-63648101D01*
X133027516Y-63654508D01*
X132892671Y-63704802D01*
X132892664Y-63704806D01*
X132777455Y-63791052D01*
X132777452Y-63791055D01*
X132691206Y-63906264D01*
X132691202Y-63906271D01*
X132640908Y-64041117D01*
X132634501Y-64100716D01*
X132634500Y-64100735D01*
X116040796Y-64100735D01*
X116040154Y-63733912D01*
X116036636Y-61725177D01*
X128409900Y-61725177D01*
X128409900Y-61922022D01*
X128440690Y-62116426D01*
X128501517Y-62303629D01*
X128540485Y-62380107D01*
X128590876Y-62479005D01*
X128706572Y-62638246D01*
X128845754Y-62777428D01*
X129004995Y-62893124D01*
X129087855Y-62935343D01*
X129180370Y-62982482D01*
X129180372Y-62982482D01*
X129180375Y-62982484D01*
X129277577Y-63014067D01*
X129367573Y-63043309D01*
X129561978Y-63074100D01*
X129561983Y-63074100D01*
X129758822Y-63074100D01*
X129953226Y-63043309D01*
X130140425Y-62982484D01*
X130315805Y-62893124D01*
X130475046Y-62777428D01*
X130614228Y-62638246D01*
X130729924Y-62479005D01*
X130819284Y-62303625D01*
X130880109Y-62116426D01*
X130884310Y-62089900D01*
X130910900Y-61922022D01*
X130910900Y-61725177D01*
X130880109Y-61530773D01*
X130847010Y-61428906D01*
X130819282Y-61343570D01*
X130729923Y-61168194D01*
X130710777Y-61141842D01*
X130614228Y-61008954D01*
X130578419Y-60973145D01*
X130544934Y-60911822D01*
X130542100Y-60885464D01*
X130542100Y-60419161D01*
X130561785Y-60352122D01*
X130578419Y-60331480D01*
X131426080Y-59483819D01*
X131487403Y-59450334D01*
X131513761Y-59447500D01*
X140525709Y-59447500D01*
X156014238Y-59447500D01*
X156081277Y-59467185D01*
X156101919Y-59483819D01*
X157559181Y-60941081D01*
X157592666Y-61002404D01*
X157595500Y-61028762D01*
X157595500Y-74409096D01*
X157630103Y-74583058D01*
X157630105Y-74583066D01*
X157664046Y-74665006D01*
X157664046Y-74665007D01*
X157697984Y-74746942D01*
X157697985Y-74746944D01*
X157757063Y-74835360D01*
X157796537Y-74894438D01*
X157796540Y-74894441D01*
X158452595Y-75550494D01*
X158452616Y-75550517D01*
X159904736Y-77002635D01*
X159970948Y-77068847D01*
X160030166Y-77128065D01*
X160177646Y-77226609D01*
X160177659Y-77226616D01*
X160300563Y-77277523D01*
X160341534Y-77294494D01*
X160341536Y-77294494D01*
X160341541Y-77294496D01*
X160515504Y-77329099D01*
X160515507Y-77329100D01*
X160515509Y-77329100D01*
X163766709Y-77329100D01*
X165005838Y-77329100D01*
X165072877Y-77348785D01*
X165093519Y-77365419D01*
X165560181Y-77832081D01*
X165593666Y-77893404D01*
X165596500Y-77919762D01*
X165596500Y-78329960D01*
X165576815Y-78396999D01*
X165524011Y-78442754D01*
X165515833Y-78446142D01*
X165404671Y-78487602D01*
X165404664Y-78487606D01*
X165289455Y-78573852D01*
X165289452Y-78573855D01*
X165203206Y-78689064D01*
X165203203Y-78689069D01*
X165154189Y-78820483D01*
X165112317Y-78876416D01*
X165046853Y-78900833D01*
X164978580Y-78885981D01*
X164950326Y-78864830D01*
X164836786Y-78751290D01*
X164664820Y-78626351D01*
X164475414Y-78529844D01*
X164475413Y-78529843D01*
X164475412Y-78529843D01*
X164273243Y-78464154D01*
X164273241Y-78464153D01*
X164273240Y-78464153D01*
X164111957Y-78438608D01*
X164063287Y-78430900D01*
X163850713Y-78430900D01*
X163802042Y-78438608D01*
X163640760Y-78464153D01*
X163438585Y-78529844D01*
X163249179Y-78626351D01*
X163077213Y-78751290D01*
X162926890Y-78901613D01*
X162801949Y-79073582D01*
X162797484Y-79082346D01*
X162749509Y-79133142D01*
X162681688Y-79149936D01*
X162615553Y-79127398D01*
X162576516Y-79082346D01*
X162572050Y-79073582D01*
X162447109Y-78901613D01*
X162296786Y-78751290D01*
X162124820Y-78626351D01*
X161935414Y-78529844D01*
X161935413Y-78529843D01*
X161935412Y-78529843D01*
X161733243Y-78464154D01*
X161733241Y-78464153D01*
X161733240Y-78464153D01*
X161571957Y-78438608D01*
X161523287Y-78430900D01*
X161310713Y-78430900D01*
X161262042Y-78438608D01*
X161100760Y-78464153D01*
X160898585Y-78529844D01*
X160709179Y-78626351D01*
X160537213Y-78751290D01*
X160386890Y-78901613D01*
X160261949Y-79073582D01*
X160257484Y-79082346D01*
X160209509Y-79133142D01*
X160141688Y-79149936D01*
X160075553Y-79127398D01*
X160036516Y-79082346D01*
X160032050Y-79073582D01*
X159907109Y-78901613D01*
X159756786Y-78751290D01*
X159584820Y-78626351D01*
X159395414Y-78529844D01*
X159395413Y-78529843D01*
X159395412Y-78529843D01*
X159193243Y-78464154D01*
X159193241Y-78464153D01*
X159193240Y-78464153D01*
X159031957Y-78438608D01*
X158983287Y-78430900D01*
X158770713Y-78430900D01*
X158722042Y-78438608D01*
X158560760Y-78464153D01*
X158358585Y-78529844D01*
X158169179Y-78626351D01*
X157997213Y-78751290D01*
X157846890Y-78901613D01*
X157721949Y-79073582D01*
X157717484Y-79082346D01*
X157669509Y-79133142D01*
X157601688Y-79149936D01*
X157535553Y-79127398D01*
X157496516Y-79082346D01*
X157492050Y-79073582D01*
X157367109Y-78901613D01*
X157216786Y-78751290D01*
X157044820Y-78626351D01*
X156855414Y-78529844D01*
X156855413Y-78529843D01*
X156855412Y-78529843D01*
X156653243Y-78464154D01*
X156653241Y-78464153D01*
X156653240Y-78464153D01*
X156491957Y-78438608D01*
X156443287Y-78430900D01*
X156230713Y-78430900D01*
X156182042Y-78438608D01*
X156020760Y-78464153D01*
X155818585Y-78529844D01*
X155629179Y-78626351D01*
X155457213Y-78751290D01*
X155306890Y-78901613D01*
X155181949Y-79073582D01*
X155177202Y-79082899D01*
X155129227Y-79133693D01*
X155061405Y-79150487D01*
X154995271Y-79127948D01*
X154956234Y-79082895D01*
X154951626Y-79073852D01*
X154912270Y-79019682D01*
X154912269Y-79019682D01*
X154279962Y-79651990D01*
X154262925Y-79588407D01*
X154197099Y-79474393D01*
X154104007Y-79381301D01*
X153989993Y-79315475D01*
X153926409Y-79298437D01*
X154558716Y-78666128D01*
X154504550Y-78626775D01*
X154315217Y-78530304D01*
X154113129Y-78464642D01*
X153903246Y-78431400D01*
X153690754Y-78431400D01*
X153480872Y-78464642D01*
X153480869Y-78464642D01*
X153278782Y-78530304D01*
X153089439Y-78626780D01*
X153035282Y-78666127D01*
X153035282Y-78666128D01*
X153667591Y-79298437D01*
X153604007Y-79315475D01*
X153489993Y-79381301D01*
X153396901Y-79474393D01*
X153331075Y-79588407D01*
X153314037Y-79651991D01*
X152681728Y-79019682D01*
X152681727Y-79019682D01*
X152642380Y-79073839D01*
X152545904Y-79263182D01*
X152480242Y-79465269D01*
X152480242Y-79465272D01*
X152447000Y-79675153D01*
X152447000Y-79887646D01*
X152480242Y-80097527D01*
X152480242Y-80097530D01*
X152545904Y-80299617D01*
X152642375Y-80488950D01*
X152681728Y-80543116D01*
X153314037Y-79910808D01*
X153331075Y-79974393D01*
X153396901Y-80088407D01*
X153489993Y-80181499D01*
X153604007Y-80247325D01*
X153667591Y-80264362D01*
X153066971Y-80864981D01*
X153145711Y-80982295D01*
X153146920Y-80986129D01*
X153149844Y-80988891D01*
X153157343Y-81019178D01*
X153166727Y-81048929D01*
X153165671Y-81052808D01*
X153166638Y-81056712D01*
X153156573Y-81086244D01*
X153148383Y-81116347D01*
X153145397Y-81119040D01*
X153144100Y-81122847D01*
X153099051Y-81161883D01*
X153089440Y-81166780D01*
X153035282Y-81206127D01*
X153035282Y-81206128D01*
X153667591Y-81838437D01*
X153604007Y-81855475D01*
X153489993Y-81921301D01*
X153396901Y-82014393D01*
X153331075Y-82128407D01*
X153314037Y-82191991D01*
X152681728Y-81559682D01*
X152681727Y-81559682D01*
X152642380Y-81613839D01*
X152545904Y-81803182D01*
X152480242Y-82005269D01*
X152480242Y-82005272D01*
X152447000Y-82215153D01*
X152447000Y-82427646D01*
X152480242Y-82637527D01*
X152480242Y-82637530D01*
X152545904Y-82839617D01*
X152642375Y-83028950D01*
X152681728Y-83083116D01*
X153314037Y-82450808D01*
X153331075Y-82514393D01*
X153396901Y-82628407D01*
X153489993Y-82721499D01*
X153604007Y-82787325D01*
X153667590Y-82804362D01*
X153035282Y-83436669D01*
X153035282Y-83436670D01*
X153089449Y-83476024D01*
X153278782Y-83572495D01*
X153480870Y-83638157D01*
X153690754Y-83671400D01*
X153903246Y-83671400D01*
X154113127Y-83638157D01*
X154113130Y-83638157D01*
X154315217Y-83572495D01*
X154504554Y-83476022D01*
X154558716Y-83436670D01*
X154558717Y-83436670D01*
X153926408Y-82804362D01*
X153989993Y-82787325D01*
X154104007Y-82721499D01*
X154197099Y-82628407D01*
X154262925Y-82514393D01*
X154279962Y-82450809D01*
X154912270Y-83083117D01*
X154912270Y-83083116D01*
X154951622Y-83028955D01*
X154956232Y-83019907D01*
X155004205Y-82969109D01*
X155072025Y-82952312D01*
X155138161Y-82974847D01*
X155177204Y-83019904D01*
X155181949Y-83029217D01*
X155306890Y-83201186D01*
X155457213Y-83351509D01*
X155629179Y-83476448D01*
X155629181Y-83476449D01*
X155629184Y-83476451D01*
X155818588Y-83572957D01*
X156020757Y-83638646D01*
X156230713Y-83671900D01*
X156230714Y-83671900D01*
X156443286Y-83671900D01*
X156443287Y-83671900D01*
X156653243Y-83638646D01*
X156855412Y-83572957D01*
X157044816Y-83476451D01*
X157099572Y-83436669D01*
X157216786Y-83351509D01*
X157216788Y-83351506D01*
X157216792Y-83351504D01*
X157367104Y-83201192D01*
X157367106Y-83201188D01*
X157367109Y-83201186D01*
X157492048Y-83029220D01*
X157492050Y-83029217D01*
X157492051Y-83029216D01*
X157496514Y-83020454D01*
X157544488Y-82969659D01*
X157612308Y-82952863D01*
X157678444Y-82975399D01*
X157717486Y-83020456D01*
X157721951Y-83029220D01*
X157846890Y-83201186D01*
X157846896Y-83201192D01*
X157997208Y-83351504D01*
X158169184Y-83476451D01*
X158169188Y-83476453D01*
X158173126Y-83479314D01*
X158172146Y-83480662D01*
X158214160Y-83527090D01*
X158226500Y-83581017D01*
X158226500Y-84061869D01*
X158226500Y-84061871D01*
X158226499Y-84061871D01*
X158246747Y-84163656D01*
X158246747Y-84163657D01*
X158251497Y-84187537D01*
X158251498Y-84187542D01*
X158251499Y-84187544D01*
X158300535Y-84305927D01*
X158338870Y-84363300D01*
X158371726Y-84412473D01*
X159478326Y-85519073D01*
X159478329Y-85519075D01*
X159478331Y-85519077D01*
X159584873Y-85590265D01*
X159703256Y-85639301D01*
X159703260Y-85639301D01*
X159703261Y-85639302D01*
X159828928Y-85664300D01*
X159828931Y-85664300D01*
X168974071Y-85664300D01*
X169058615Y-85647482D01*
X169099744Y-85639301D01*
X169218127Y-85590265D01*
X169324669Y-85519077D01*
X170075677Y-84768069D01*
X170146866Y-84661526D01*
X170195901Y-84543143D01*
X170202788Y-84508524D01*
X170220900Y-84417469D01*
X170220900Y-63749120D01*
X170240585Y-63682081D01*
X170293389Y-63636326D01*
X170297448Y-63634559D01*
X170337826Y-63617834D01*
X170381379Y-63599794D01*
X170512489Y-63512189D01*
X170623989Y-63400689D01*
X170711594Y-63269579D01*
X170771937Y-63123897D01*
X170802700Y-62969242D01*
X170802700Y-62811558D01*
X170802700Y-62811555D01*
X170802699Y-62811553D01*
X170771938Y-62656910D01*
X170771938Y-62656908D01*
X170771937Y-62656903D01*
X170764210Y-62638248D01*
X170711597Y-62511227D01*
X170711590Y-62511214D01*
X170623989Y-62380111D01*
X170623986Y-62380107D01*
X170512492Y-62268613D01*
X170512488Y-62268610D01*
X170381385Y-62181009D01*
X170381372Y-62181002D01*
X170235701Y-62120664D01*
X170235689Y-62120661D01*
X170081045Y-62089900D01*
X170081042Y-62089900D01*
X169923358Y-62089900D01*
X169923355Y-62089900D01*
X169768710Y-62120661D01*
X169768698Y-62120664D01*
X169623027Y-62181002D01*
X169623014Y-62181009D01*
X169491911Y-62268610D01*
X169491907Y-62268613D01*
X169380413Y-62380107D01*
X169380410Y-62380111D01*
X169292809Y-62511214D01*
X169292802Y-62511227D01*
X169232464Y-62656898D01*
X169232461Y-62656908D01*
X169219120Y-62723979D01*
X169211717Y-62738768D01*
X169209367Y-62753289D01*
X169192565Y-62777036D01*
X169189762Y-62782638D01*
X169187532Y-62785120D01*
X169065123Y-62907531D01*
X169033761Y-62954469D01*
X169028843Y-62961829D01*
X169028837Y-62961836D01*
X168993938Y-63014067D01*
X168993933Y-63014075D01*
X168944899Y-63132455D01*
X168944897Y-63132461D01*
X168919900Y-63258128D01*
X168919900Y-84032592D01*
X168900215Y-84099631D01*
X168883581Y-84120273D01*
X168676873Y-84326981D01*
X168615550Y-84360466D01*
X168589192Y-84363300D01*
X160213808Y-84363300D01*
X160146769Y-84343615D01*
X160126127Y-84326981D01*
X159563819Y-83764673D01*
X159549115Y-83737745D01*
X159532523Y-83711927D01*
X159531631Y-83705726D01*
X159530334Y-83703350D01*
X159527500Y-83676992D01*
X159527500Y-83581017D01*
X159547185Y-83513978D01*
X159581592Y-83480302D01*
X159580874Y-83479314D01*
X159584811Y-83476453D01*
X159584816Y-83476451D01*
X159756792Y-83351504D01*
X159907104Y-83201192D01*
X159907106Y-83201188D01*
X159907109Y-83201186D01*
X160032048Y-83029220D01*
X160032050Y-83029217D01*
X160032051Y-83029216D01*
X160036514Y-83020454D01*
X160084488Y-82969659D01*
X160152308Y-82952863D01*
X160218444Y-82975399D01*
X160257486Y-83020456D01*
X160261951Y-83029220D01*
X160386890Y-83201186D01*
X160537213Y-83351509D01*
X160709179Y-83476448D01*
X160709181Y-83476449D01*
X160709184Y-83476451D01*
X160898588Y-83572957D01*
X161100757Y-83638646D01*
X161310713Y-83671900D01*
X161310714Y-83671900D01*
X161523286Y-83671900D01*
X161523287Y-83671900D01*
X161733243Y-83638646D01*
X161935412Y-83572957D01*
X162124816Y-83476451D01*
X162179572Y-83436669D01*
X162296786Y-83351509D01*
X162296788Y-83351506D01*
X162296792Y-83351504D01*
X162447104Y-83201192D01*
X162447106Y-83201188D01*
X162447109Y-83201186D01*
X162572048Y-83029220D01*
X162572050Y-83029217D01*
X162572051Y-83029216D01*
X162576514Y-83020454D01*
X162624488Y-82969659D01*
X162692308Y-82952863D01*
X162758444Y-82975399D01*
X162797486Y-83020456D01*
X162801951Y-83029220D01*
X162926890Y-83201186D01*
X163077213Y-83351509D01*
X163249179Y-83476448D01*
X163249181Y-83476449D01*
X163249184Y-83476451D01*
X163438588Y-83572957D01*
X163640757Y-83638646D01*
X163850713Y-83671900D01*
X163850714Y-83671900D01*
X164063286Y-83671900D01*
X164063287Y-83671900D01*
X164273243Y-83638646D01*
X164475412Y-83572957D01*
X164664816Y-83476451D01*
X164719572Y-83436669D01*
X164836786Y-83351509D01*
X164836788Y-83351506D01*
X164836792Y-83351504D01*
X164987104Y-83201192D01*
X164987106Y-83201188D01*
X164987109Y-83201186D01*
X165112048Y-83029220D01*
X165112050Y-83029217D01*
X165112051Y-83029216D01*
X165116514Y-83020454D01*
X165164488Y-82969659D01*
X165232308Y-82952863D01*
X165298444Y-82975399D01*
X165337486Y-83020456D01*
X165341951Y-83029220D01*
X165466890Y-83201186D01*
X165617213Y-83351509D01*
X165789179Y-83476448D01*
X165789181Y-83476449D01*
X165789184Y-83476451D01*
X165978588Y-83572957D01*
X166180757Y-83638646D01*
X166390713Y-83671900D01*
X166390714Y-83671900D01*
X166603286Y-83671900D01*
X166603287Y-83671900D01*
X166813243Y-83638646D01*
X167015412Y-83572957D01*
X167204816Y-83476451D01*
X167259572Y-83436669D01*
X167376786Y-83351509D01*
X167376788Y-83351506D01*
X167376792Y-83351504D01*
X167527104Y-83201192D01*
X167527106Y-83201188D01*
X167527109Y-83201186D01*
X167652048Y-83029220D01*
X167652050Y-83029217D01*
X167652051Y-83029216D01*
X167748557Y-82839812D01*
X167814246Y-82637643D01*
X167847500Y-82427687D01*
X167847500Y-82215113D01*
X167814246Y-82005157D01*
X167748557Y-81802988D01*
X167652051Y-81613584D01*
X167652049Y-81613581D01*
X167652048Y-81613579D01*
X167527109Y-81441613D01*
X167413569Y-81328073D01*
X167380084Y-81266750D01*
X167385068Y-81197058D01*
X167426940Y-81141125D01*
X167457915Y-81124210D01*
X167589331Y-81075196D01*
X167704546Y-80988946D01*
X167790796Y-80873731D01*
X167841091Y-80738883D01*
X167847500Y-80679273D01*
X167847499Y-78883528D01*
X167841091Y-78823917D01*
X167839810Y-78820483D01*
X167790797Y-78689071D01*
X167790793Y-78689064D01*
X167704547Y-78573855D01*
X167704544Y-78573852D01*
X167589335Y-78487606D01*
X167589329Y-78487603D01*
X167478166Y-78446141D01*
X167422233Y-78404269D01*
X167397816Y-78338805D01*
X167397500Y-78329959D01*
X167397500Y-77406708D01*
X167397499Y-77406705D01*
X167383275Y-77335194D01*
X167382063Y-77329100D01*
X167362895Y-77232734D01*
X167323652Y-77137994D01*
X167305116Y-77093243D01*
X167295016Y-77068859D01*
X167295014Y-77068855D01*
X167295013Y-77068853D01*
X167225839Y-76965327D01*
X167196464Y-76921364D01*
X167196462Y-76921362D01*
X167196460Y-76921359D01*
X166004238Y-75729137D01*
X165926835Y-75677419D01*
X165921482Y-75673842D01*
X165856747Y-75630587D01*
X165774806Y-75596646D01*
X165769500Y-75594448D01*
X165769496Y-75594446D01*
X165692866Y-75562705D01*
X165692858Y-75562703D01*
X165518896Y-75528100D01*
X165518892Y-75528100D01*
X165518891Y-75528100D01*
X164452091Y-75528100D01*
X161028561Y-75528100D01*
X160961522Y-75508415D01*
X160940880Y-75491781D01*
X159726117Y-74277016D01*
X159726094Y-74276995D01*
X159432819Y-73983719D01*
X159399334Y-73922396D01*
X159396500Y-73896038D01*
X159396500Y-70980100D01*
X159416185Y-70913061D01*
X159468989Y-70867306D01*
X159520500Y-70856100D01*
X161674065Y-70856100D01*
X161741104Y-70875785D01*
X161742909Y-70876966D01*
X161799821Y-70914994D01*
X161799823Y-70914995D01*
X161799827Y-70914997D01*
X161945498Y-70975335D01*
X161945503Y-70975337D01*
X162100153Y-71006099D01*
X162100156Y-71006100D01*
X162100158Y-71006100D01*
X162257844Y-71006100D01*
X162257845Y-71006099D01*
X162412497Y-70975337D01*
X162549423Y-70918621D01*
X162558172Y-70914997D01*
X162558172Y-70914996D01*
X162558179Y-70914994D01*
X162689289Y-70827389D01*
X162800789Y-70715889D01*
X162888394Y-70584779D01*
X162948737Y-70439097D01*
X162979500Y-70284442D01*
X162979500Y-70126758D01*
X162979500Y-70126755D01*
X162979499Y-70126753D01*
X162948738Y-69972110D01*
X162948737Y-69972103D01*
X162941173Y-69953842D01*
X162888397Y-69826427D01*
X162888390Y-69826414D01*
X162800789Y-69695311D01*
X162800786Y-69695307D01*
X162689292Y-69583813D01*
X162689288Y-69583810D01*
X162558185Y-69496209D01*
X162558172Y-69496202D01*
X162412501Y-69435864D01*
X162412489Y-69435861D01*
X162257845Y-69405100D01*
X162257842Y-69405100D01*
X162100158Y-69405100D01*
X162100155Y-69405100D01*
X161945510Y-69435861D01*
X161945498Y-69435864D01*
X161799827Y-69496202D01*
X161799820Y-69496206D01*
X161770928Y-69515511D01*
X161742955Y-69534202D01*
X161676279Y-69555080D01*
X161674065Y-69555100D01*
X159520500Y-69555100D01*
X159453461Y-69535415D01*
X159407706Y-69482611D01*
X159396500Y-69431100D01*
X159396500Y-66862900D01*
X159416185Y-66795861D01*
X159468989Y-66750106D01*
X159520500Y-66738900D01*
X159653844Y-66738900D01*
X159653845Y-66738899D01*
X159808497Y-66708137D01*
X159954179Y-66647794D01*
X160085289Y-66560189D01*
X160196789Y-66448689D01*
X160284394Y-66317579D01*
X160344737Y-66171897D01*
X160375500Y-66017242D01*
X160375500Y-65859558D01*
X160375500Y-65859555D01*
X160375499Y-65859553D01*
X160344737Y-65704903D01*
X160317359Y-65638805D01*
X160284397Y-65559228D01*
X160284396Y-65559227D01*
X160284394Y-65559221D01*
X160246396Y-65502353D01*
X160225520Y-65435676D01*
X160225500Y-65433464D01*
X160225500Y-59835928D01*
X160200502Y-59710261D01*
X160200501Y-59710260D01*
X160200501Y-59710256D01*
X160151465Y-59591873D01*
X160135684Y-59568255D01*
X160135684Y-59568254D01*
X160080275Y-59485328D01*
X160080272Y-59485325D01*
X159241965Y-58647019D01*
X159208480Y-58585696D01*
X159208056Y-58583666D01*
X159194737Y-58516703D01*
X159134706Y-58371774D01*
X159134397Y-58371027D01*
X159134390Y-58371014D01*
X159046789Y-58239911D01*
X159046786Y-58239907D01*
X158935292Y-58128413D01*
X158935288Y-58128410D01*
X158804185Y-58040809D01*
X158804172Y-58040802D01*
X158658501Y-57980464D01*
X158658489Y-57980461D01*
X158503845Y-57949700D01*
X158503842Y-57949700D01*
X158346158Y-57949700D01*
X158346155Y-57949700D01*
X158191510Y-57980461D01*
X158191498Y-57980464D01*
X158045827Y-58040802D01*
X158045814Y-58040809D01*
X157914711Y-58128410D01*
X157914707Y-58128413D01*
X157803213Y-58239907D01*
X157803210Y-58239911D01*
X157727657Y-58352984D01*
X157674045Y-58397789D01*
X157604720Y-58406496D01*
X157541692Y-58376341D01*
X157536874Y-58371774D01*
X157012635Y-57847535D01*
X157012630Y-57847531D01*
X156958222Y-57811178D01*
X156958216Y-57811175D01*
X156953559Y-57808063D01*
X156865147Y-57748987D01*
X156783206Y-57715046D01*
X156701266Y-57681105D01*
X156701258Y-57681103D01*
X156527296Y-57646500D01*
X156527292Y-57646500D01*
X156527291Y-57646500D01*
X140703091Y-57646500D01*
X131000709Y-57646500D01*
X131000706Y-57646500D01*
X130826741Y-57681103D01*
X130826732Y-57681106D01*
X130662859Y-57748983D01*
X130662846Y-57748990D01*
X130515366Y-57847534D01*
X130515364Y-57847537D01*
X128942140Y-59420758D01*
X128942137Y-59420761D01*
X128924272Y-59447500D01*
X128843585Y-59568255D01*
X128809646Y-59650193D01*
X128775707Y-59732127D01*
X128775705Y-59732133D01*
X128775705Y-59732134D01*
X128755059Y-59835931D01*
X128755059Y-59835932D01*
X128741100Y-59906107D01*
X128741100Y-60923064D01*
X128721415Y-60990103D01*
X128709423Y-61004983D01*
X128709736Y-61005250D01*
X128706575Y-61008951D01*
X128706572Y-61008954D01*
X128692181Y-61028762D01*
X128590876Y-61168194D01*
X128501517Y-61343570D01*
X128440690Y-61530773D01*
X128409900Y-61725177D01*
X116036636Y-61725177D01*
X116036628Y-61720528D01*
X116027627Y-56580917D01*
X116047194Y-56513843D01*
X116099918Y-56467996D01*
X116151627Y-56456700D01*
X173306456Y-56456700D01*
X173373495Y-56476385D01*
G37*
%TD.AperFunction*%
%TD*%
M02*
