M48
; DRILL file {KiCad 9.0.6} date 2025-12-26T20:16:41+0000
; FORMAT={-:-/ absolute / metric / decimal}
; #@! TF.CreationDate,2025-12-26T20:16:41+00:00
; #@! TF.GenerationSoftware,Kicad,Pcbnew,9.0.6
; #@! TF.FileFunction,Plated,1,2,PTH
FMAT,2
METRIC
; #@! TA.AperFunction,Plated,PTH,ViaDrill
T1C0.300
; #@! TA.AperFunction,Plated,PTH,ViaDrill
T2C0.600
; #@! TA.AperFunction,Plated,PTH,ComponentDrill
T3C1.000
; #@! TA.AperFunction,Plated,PTH,ComponentDrill
T4C1.300
%
G90
G05
T1
X131.572Y-69.571
X132.334Y-87.478
X132.385Y-77.267
X132.41Y-82.423
X137.953Y-80.035
X139.02Y-71.653
X140.614Y-58.547
X141.433Y-86.03
X141.992Y-82.169
X142.042Y-75.595
X142.449Y-68.809
X144.475Y-69.875
X146.406Y-79.208
X147.32Y-80.493
X147.422Y-75.946
X148.996Y-76.657
X148.996Y-85.014
X156.083Y-74.803
X156.108Y-71.298
X158.425Y-58.75
X158.496Y-62.941
X158.496Y-64.973
X159.156Y-74.981
X159.575Y-65.938
X162.179Y-70.206
X163.703Y-72.048
X163.855Y-76.429
X170.002Y-62.89
X170.485Y-59.995
X171.755Y-67.506
X171.882Y-77.648
T2
X117.729Y-66.091
X129.66Y-61.824
T3
X133.985Y-62.459
X133.985Y-64.999
X136.525Y-62.459
X136.525Y-64.999
X139.065Y-62.459
X139.065Y-64.999
X141.605Y-62.459
X141.605Y-64.999
X144.145Y-62.459
X144.145Y-64.999
X146.685Y-62.459
X146.685Y-64.999
X153.797Y-79.781
X153.797Y-82.321
X156.337Y-79.781
X156.337Y-82.321
X158.877Y-79.781
X158.877Y-82.321
X161.417Y-79.781
X161.417Y-82.321
X163.957Y-79.781
X163.957Y-82.321
X166.497Y-79.781
X166.497Y-82.321
T4
X111.789Y-74.998
X111.789Y-80.078
X111.789Y-85.158
X111.811Y-59.715
X111.811Y-64.795
X111.811Y-69.875
X187.834Y-59.782
X187.834Y-64.862
X187.834Y-69.942
X187.884Y-75.032
X187.884Y-80.112
X187.884Y-85.192
M30
