%TF.GenerationSoftware,KiCad,Pcbnew,9.0.6*%
%TF.CreationDate,2025-12-26T20:16:36+00:00*%
%TF.ProjectId,PIDI-BOX-01-DIGIN-6-OPTO-MAIN-A1,50494449-2d42-44f5-982d-30312d444947,rev?*%
%TF.SameCoordinates,Original*%
%TF.FileFunction,Copper,L1,Top*%
%TF.FilePolarity,Positive*%
%FSLAX46Y46*%
G04 Gerber Fmt 4.6, Leading zero omitted, Abs format (unit mm)*
G04 Created by KiCad (PCBNEW 9.0.6) date 2025-12-26 20:16:36*
%MOMM*%
%LPD*%
G01*
G04 APERTURE LIST*
G04 Aperture macros list*
%AMRoundRect*
0 Rectangle with rounded corners*
0 $1 Rounding radius*
0 $2 $3 $4 $5 $6 $7 $8 $9 X,Y pos of 4 corners*
0 Add a 4 corners polygon primitive as box body*
4,1,4,$2,$3,$4,$5,$6,$7,$8,$9,$2,$3,0*
0 Add four circle primitives for the rounded corners*
1,1,$1+$1,$2,$3*
1,1,$1+$1,$4,$5*
1,1,$1+$1,$6,$7*
1,1,$1+$1,$8,$9*
0 Add four rect primitives between the rounded corners*
20,1,$1+$1,$2,$3,$4,$5,0*
20,1,$1+$1,$4,$5,$6,$7,0*
20,1,$1+$1,$6,$7,$8,$9,0*
20,1,$1+$1,$8,$9,$2,$3,0*%
G04 Aperture macros list end*
%ADD10C,0.150000*%
%TA.AperFunction,NonConductor*%
%ADD11C,0.150000*%
%TD*%
%TA.AperFunction,ComponentPad*%
%ADD12R,2.400000X2.400000*%
%TD*%
%TA.AperFunction,ComponentPad*%
%ADD13C,2.400000*%
%TD*%
%TA.AperFunction,SMDPad,CuDef*%
%ADD14RoundRect,0.150000X0.587500X0.150000X-0.587500X0.150000X-0.587500X-0.150000X0.587500X-0.150000X0*%
%TD*%
%TA.AperFunction,SMDPad,CuDef*%
%ADD15RoundRect,0.200000X-0.275000X0.200000X-0.275000X-0.200000X0.275000X-0.200000X0.275000X0.200000X0*%
%TD*%
%TA.AperFunction,SMDPad,CuDef*%
%ADD16RoundRect,0.200000X0.200000X0.275000X-0.200000X0.275000X-0.200000X-0.275000X0.200000X-0.275000X0*%
%TD*%
%TA.AperFunction,SMDPad,CuDef*%
%ADD17RoundRect,0.250000X-0.262500X-0.450000X0.262500X-0.450000X0.262500X0.450000X-0.262500X0.450000X0*%
%TD*%
%TA.AperFunction,SMDPad,CuDef*%
%ADD18RoundRect,0.225000X0.250000X-0.225000X0.250000X0.225000X-0.250000X0.225000X-0.250000X-0.225000X0*%
%TD*%
%TA.AperFunction,SMDPad,CuDef*%
%ADD19RoundRect,0.150000X-0.587500X-0.150000X0.587500X-0.150000X0.587500X0.150000X-0.587500X0.150000X0*%
%TD*%
%TA.AperFunction,SMDPad,CuDef*%
%ADD20RoundRect,0.200000X-0.200000X-0.275000X0.200000X-0.275000X0.200000X0.275000X-0.200000X0.275000X0*%
%TD*%
%TA.AperFunction,SMDPad,CuDef*%
%ADD21RoundRect,0.225000X-0.250000X0.225000X-0.250000X-0.225000X0.250000X-0.225000X0.250000X0.225000X0*%
%TD*%
%TA.AperFunction,SMDPad,CuDef*%
%ADD22RoundRect,0.218750X-0.218750X-0.256250X0.218750X-0.256250X0.218750X0.256250X-0.218750X0.256250X0*%
%TD*%
%TA.AperFunction,SMDPad,CuDef*%
%ADD23RoundRect,0.225000X0.375000X-0.225000X0.375000X0.225000X-0.375000X0.225000X-0.375000X-0.225000X0*%
%TD*%
%TA.AperFunction,SMDPad,CuDef*%
%ADD24RoundRect,0.200000X0.275000X-0.200000X0.275000X0.200000X-0.275000X0.200000X-0.275000X-0.200000X0*%
%TD*%
%TA.AperFunction,SMDPad,CuDef*%
%ADD25R,1.750000X0.650000*%
%TD*%
%TA.AperFunction,SMDPad,CuDef*%
%ADD26RoundRect,0.250000X-0.450000X0.262500X-0.450000X-0.262500X0.450000X-0.262500X0.450000X0.262500X0*%
%TD*%
%TA.AperFunction,SMDPad,CuDef*%
%ADD27RoundRect,0.250000X0.450000X-0.262500X0.450000X0.262500X-0.450000X0.262500X-0.450000X-0.262500X0*%
%TD*%
%TA.AperFunction,SMDPad,CuDef*%
%ADD28RoundRect,0.218750X0.218750X0.256250X-0.218750X0.256250X-0.218750X-0.256250X0.218750X-0.256250X0*%
%TD*%
%TA.AperFunction,SMDPad,CuDef*%
%ADD29RoundRect,0.250000X1.000000X0.650000X-1.000000X0.650000X-1.000000X-0.650000X1.000000X-0.650000X0*%
%TD*%
%TA.AperFunction,SMDPad,CuDef*%
%ADD30RoundRect,0.237500X-0.237500X0.300000X-0.237500X-0.300000X0.237500X-0.300000X0.237500X0.300000X0*%
%TD*%
%TA.AperFunction,ComponentPad*%
%ADD31R,1.700000X1.700000*%
%TD*%
%TA.AperFunction,ComponentPad*%
%ADD32C,1.700000*%
%TD*%
%TA.AperFunction,SMDPad,CuDef*%
%ADD33RoundRect,0.225000X-0.375000X0.225000X-0.375000X-0.225000X0.375000X-0.225000X0.375000X0.225000X0*%
%TD*%
%TA.AperFunction,SMDPad,CuDef*%
%ADD34RoundRect,0.250000X1.950000X1.000000X-1.950000X1.000000X-1.950000X-1.000000X1.950000X-1.000000X0*%
%TD*%
%TA.AperFunction,ViaPad*%
%ADD35C,0.600000*%
%TD*%
%TA.AperFunction,ViaPad*%
%ADD36C,1.500000*%
%TD*%
%TA.AperFunction,ViaPad*%
%ADD37C,1.200000*%
%TD*%
%TA.AperFunction,Conductor*%
%ADD38C,1.000000*%
%TD*%
%TA.AperFunction,Conductor*%
%ADD39C,0.200000*%
%TD*%
%TA.AperFunction,Conductor*%
%ADD40C,0.300000*%
%TD*%
%TA.AperFunction,Conductor*%
%ADD41C,0.800000*%
%TD*%
%TA.AperFunction,Conductor*%
%ADD42C,0.400000*%
%TD*%
%TA.AperFunction,Conductor*%
%ADD43C,1.500000*%
%TD*%
%TA.AperFunction,Conductor*%
%ADD44C,0.600000*%
%TD*%
G04 APERTURE END LIST*
D10*
D11*
X140624160Y-57526895D02*
X140624160Y-56726895D01*
X140624160Y-56726895D02*
X140928922Y-56726895D01*
X140928922Y-56726895D02*
X141005112Y-56764990D01*
X141005112Y-56764990D02*
X141043207Y-56803085D01*
X141043207Y-56803085D02*
X141081303Y-56879276D01*
X141081303Y-56879276D02*
X141081303Y-56993561D01*
X141081303Y-56993561D02*
X141043207Y-57069752D01*
X141043207Y-57069752D02*
X141005112Y-57107847D01*
X141005112Y-57107847D02*
X140928922Y-57145942D01*
X140928922Y-57145942D02*
X140624160Y-57145942D01*
X141424160Y-57526895D02*
X141424160Y-56726895D01*
X141805112Y-57526895D02*
X141805112Y-56726895D01*
X141805112Y-56726895D02*
X141995588Y-56726895D01*
X141995588Y-56726895D02*
X142109874Y-56764990D01*
X142109874Y-56764990D02*
X142186064Y-56841180D01*
X142186064Y-56841180D02*
X142224159Y-56917371D01*
X142224159Y-56917371D02*
X142262255Y-57069752D01*
X142262255Y-57069752D02*
X142262255Y-57184038D01*
X142262255Y-57184038D02*
X142224159Y-57336419D01*
X142224159Y-57336419D02*
X142186064Y-57412609D01*
X142186064Y-57412609D02*
X142109874Y-57488800D01*
X142109874Y-57488800D02*
X141995588Y-57526895D01*
X141995588Y-57526895D02*
X141805112Y-57526895D01*
X142605112Y-57526895D02*
X142605112Y-56726895D01*
X142986064Y-57222133D02*
X143595588Y-57222133D01*
X144243206Y-57107847D02*
X144357492Y-57145942D01*
X144357492Y-57145942D02*
X144395587Y-57184038D01*
X144395587Y-57184038D02*
X144433683Y-57260228D01*
X144433683Y-57260228D02*
X144433683Y-57374514D01*
X144433683Y-57374514D02*
X144395587Y-57450704D01*
X144395587Y-57450704D02*
X144357492Y-57488800D01*
X144357492Y-57488800D02*
X144281302Y-57526895D01*
X144281302Y-57526895D02*
X143976540Y-57526895D01*
X143976540Y-57526895D02*
X143976540Y-56726895D01*
X143976540Y-56726895D02*
X144243206Y-56726895D01*
X144243206Y-56726895D02*
X144319397Y-56764990D01*
X144319397Y-56764990D02*
X144357492Y-56803085D01*
X144357492Y-56803085D02*
X144395587Y-56879276D01*
X144395587Y-56879276D02*
X144395587Y-56955466D01*
X144395587Y-56955466D02*
X144357492Y-57031657D01*
X144357492Y-57031657D02*
X144319397Y-57069752D01*
X144319397Y-57069752D02*
X144243206Y-57107847D01*
X144243206Y-57107847D02*
X143976540Y-57107847D01*
X144928921Y-56726895D02*
X145081302Y-56726895D01*
X145081302Y-56726895D02*
X145157492Y-56764990D01*
X145157492Y-56764990D02*
X145233683Y-56841180D01*
X145233683Y-56841180D02*
X145271778Y-56993561D01*
X145271778Y-56993561D02*
X145271778Y-57260228D01*
X145271778Y-57260228D02*
X145233683Y-57412609D01*
X145233683Y-57412609D02*
X145157492Y-57488800D01*
X145157492Y-57488800D02*
X145081302Y-57526895D01*
X145081302Y-57526895D02*
X144928921Y-57526895D01*
X144928921Y-57526895D02*
X144852730Y-57488800D01*
X144852730Y-57488800D02*
X144776540Y-57412609D01*
X144776540Y-57412609D02*
X144738444Y-57260228D01*
X144738444Y-57260228D02*
X144738444Y-56993561D01*
X144738444Y-56993561D02*
X144776540Y-56841180D01*
X144776540Y-56841180D02*
X144852730Y-56764990D01*
X144852730Y-56764990D02*
X144928921Y-56726895D01*
X145538444Y-56726895D02*
X146071778Y-57526895D01*
X146071778Y-56726895D02*
X145538444Y-57526895D01*
X146376540Y-57222133D02*
X146986064Y-57222133D01*
X147519397Y-56726895D02*
X147595587Y-56726895D01*
X147595587Y-56726895D02*
X147671778Y-56764990D01*
X147671778Y-56764990D02*
X147709873Y-56803085D01*
X147709873Y-56803085D02*
X147747968Y-56879276D01*
X147747968Y-56879276D02*
X147786063Y-57031657D01*
X147786063Y-57031657D02*
X147786063Y-57222133D01*
X147786063Y-57222133D02*
X147747968Y-57374514D01*
X147747968Y-57374514D02*
X147709873Y-57450704D01*
X147709873Y-57450704D02*
X147671778Y-57488800D01*
X147671778Y-57488800D02*
X147595587Y-57526895D01*
X147595587Y-57526895D02*
X147519397Y-57526895D01*
X147519397Y-57526895D02*
X147443206Y-57488800D01*
X147443206Y-57488800D02*
X147405111Y-57450704D01*
X147405111Y-57450704D02*
X147367016Y-57374514D01*
X147367016Y-57374514D02*
X147328920Y-57222133D01*
X147328920Y-57222133D02*
X147328920Y-57031657D01*
X147328920Y-57031657D02*
X147367016Y-56879276D01*
X147367016Y-56879276D02*
X147405111Y-56803085D01*
X147405111Y-56803085D02*
X147443206Y-56764990D01*
X147443206Y-56764990D02*
X147519397Y-56726895D01*
X148547968Y-57526895D02*
X148090825Y-57526895D01*
X148319397Y-57526895D02*
X148319397Y-56726895D01*
X148319397Y-56726895D02*
X148243206Y-56841180D01*
X148243206Y-56841180D02*
X148167016Y-56917371D01*
X148167016Y-56917371D02*
X148090825Y-56955466D01*
X148890826Y-57222133D02*
X149500350Y-57222133D01*
X149881302Y-57526895D02*
X149881302Y-56726895D01*
X149881302Y-56726895D02*
X150071778Y-56726895D01*
X150071778Y-56726895D02*
X150186064Y-56764990D01*
X150186064Y-56764990D02*
X150262254Y-56841180D01*
X150262254Y-56841180D02*
X150300349Y-56917371D01*
X150300349Y-56917371D02*
X150338445Y-57069752D01*
X150338445Y-57069752D02*
X150338445Y-57184038D01*
X150338445Y-57184038D02*
X150300349Y-57336419D01*
X150300349Y-57336419D02*
X150262254Y-57412609D01*
X150262254Y-57412609D02*
X150186064Y-57488800D01*
X150186064Y-57488800D02*
X150071778Y-57526895D01*
X150071778Y-57526895D02*
X149881302Y-57526895D01*
X150681302Y-57526895D02*
X150681302Y-56726895D01*
X151481301Y-56764990D02*
X151405111Y-56726895D01*
X151405111Y-56726895D02*
X151290825Y-56726895D01*
X151290825Y-56726895D02*
X151176539Y-56764990D01*
X151176539Y-56764990D02*
X151100349Y-56841180D01*
X151100349Y-56841180D02*
X151062254Y-56917371D01*
X151062254Y-56917371D02*
X151024158Y-57069752D01*
X151024158Y-57069752D02*
X151024158Y-57184038D01*
X151024158Y-57184038D02*
X151062254Y-57336419D01*
X151062254Y-57336419D02*
X151100349Y-57412609D01*
X151100349Y-57412609D02*
X151176539Y-57488800D01*
X151176539Y-57488800D02*
X151290825Y-57526895D01*
X151290825Y-57526895D02*
X151367016Y-57526895D01*
X151367016Y-57526895D02*
X151481301Y-57488800D01*
X151481301Y-57488800D02*
X151519397Y-57450704D01*
X151519397Y-57450704D02*
X151519397Y-57184038D01*
X151519397Y-57184038D02*
X151367016Y-57184038D01*
X151862254Y-57526895D02*
X151862254Y-56726895D01*
X152243206Y-57526895D02*
X152243206Y-56726895D01*
X152243206Y-56726895D02*
X152700349Y-57526895D01*
X152700349Y-57526895D02*
X152700349Y-56726895D01*
X153081301Y-57222133D02*
X153690825Y-57222133D01*
X154414634Y-56726895D02*
X154262253Y-56726895D01*
X154262253Y-56726895D02*
X154186062Y-56764990D01*
X154186062Y-56764990D02*
X154147967Y-56803085D01*
X154147967Y-56803085D02*
X154071777Y-56917371D01*
X154071777Y-56917371D02*
X154033681Y-57069752D01*
X154033681Y-57069752D02*
X154033681Y-57374514D01*
X154033681Y-57374514D02*
X154071777Y-57450704D01*
X154071777Y-57450704D02*
X154109872Y-57488800D01*
X154109872Y-57488800D02*
X154186062Y-57526895D01*
X154186062Y-57526895D02*
X154338443Y-57526895D01*
X154338443Y-57526895D02*
X154414634Y-57488800D01*
X154414634Y-57488800D02*
X154452729Y-57450704D01*
X154452729Y-57450704D02*
X154490824Y-57374514D01*
X154490824Y-57374514D02*
X154490824Y-57184038D01*
X154490824Y-57184038D02*
X154452729Y-57107847D01*
X154452729Y-57107847D02*
X154414634Y-57069752D01*
X154414634Y-57069752D02*
X154338443Y-57031657D01*
X154338443Y-57031657D02*
X154186062Y-57031657D01*
X154186062Y-57031657D02*
X154109872Y-57069752D01*
X154109872Y-57069752D02*
X154071777Y-57107847D01*
X154071777Y-57107847D02*
X154033681Y-57184038D01*
X154833682Y-57222133D02*
X155443206Y-57222133D01*
X155976539Y-56726895D02*
X156128920Y-56726895D01*
X156128920Y-56726895D02*
X156205110Y-56764990D01*
X156205110Y-56764990D02*
X156281301Y-56841180D01*
X156281301Y-56841180D02*
X156319396Y-56993561D01*
X156319396Y-56993561D02*
X156319396Y-57260228D01*
X156319396Y-57260228D02*
X156281301Y-57412609D01*
X156281301Y-57412609D02*
X156205110Y-57488800D01*
X156205110Y-57488800D02*
X156128920Y-57526895D01*
X156128920Y-57526895D02*
X155976539Y-57526895D01*
X155976539Y-57526895D02*
X155900348Y-57488800D01*
X155900348Y-57488800D02*
X155824158Y-57412609D01*
X155824158Y-57412609D02*
X155786062Y-57260228D01*
X155786062Y-57260228D02*
X155786062Y-56993561D01*
X155786062Y-56993561D02*
X155824158Y-56841180D01*
X155824158Y-56841180D02*
X155900348Y-56764990D01*
X155900348Y-56764990D02*
X155976539Y-56726895D01*
X156662253Y-57526895D02*
X156662253Y-56726895D01*
X156662253Y-56726895D02*
X156967015Y-56726895D01*
X156967015Y-56726895D02*
X157043205Y-56764990D01*
X157043205Y-56764990D02*
X157081300Y-56803085D01*
X157081300Y-56803085D02*
X157119396Y-56879276D01*
X157119396Y-56879276D02*
X157119396Y-56993561D01*
X157119396Y-56993561D02*
X157081300Y-57069752D01*
X157081300Y-57069752D02*
X157043205Y-57107847D01*
X157043205Y-57107847D02*
X156967015Y-57145942D01*
X156967015Y-57145942D02*
X156662253Y-57145942D01*
X157347967Y-56726895D02*
X157805110Y-56726895D01*
X157576538Y-57526895D02*
X157576538Y-56726895D01*
X158224158Y-56726895D02*
X158376539Y-56726895D01*
X158376539Y-56726895D02*
X158452729Y-56764990D01*
X158452729Y-56764990D02*
X158528920Y-56841180D01*
X158528920Y-56841180D02*
X158567015Y-56993561D01*
X158567015Y-56993561D02*
X158567015Y-57260228D01*
X158567015Y-57260228D02*
X158528920Y-57412609D01*
X158528920Y-57412609D02*
X158452729Y-57488800D01*
X158452729Y-57488800D02*
X158376539Y-57526895D01*
X158376539Y-57526895D02*
X158224158Y-57526895D01*
X158224158Y-57526895D02*
X158147967Y-57488800D01*
X158147967Y-57488800D02*
X158071777Y-57412609D01*
X158071777Y-57412609D02*
X158033681Y-57260228D01*
X158033681Y-57260228D02*
X158033681Y-56993561D01*
X158033681Y-56993561D02*
X158071777Y-56841180D01*
X158071777Y-56841180D02*
X158147967Y-56764990D01*
X158147967Y-56764990D02*
X158224158Y-56726895D01*
X158909872Y-57222133D02*
X159519396Y-57222133D01*
X159900348Y-57526895D02*
X159900348Y-56726895D01*
X159900348Y-56726895D02*
X160167014Y-57298323D01*
X160167014Y-57298323D02*
X160433681Y-56726895D01*
X160433681Y-56726895D02*
X160433681Y-57526895D01*
X160776538Y-57298323D02*
X161157491Y-57298323D01*
X160700348Y-57526895D02*
X160967015Y-56726895D01*
X160967015Y-56726895D02*
X161233681Y-57526895D01*
X161500348Y-57526895D02*
X161500348Y-56726895D01*
X161881300Y-57526895D02*
X161881300Y-56726895D01*
X161881300Y-56726895D02*
X162338443Y-57526895D01*
X162338443Y-57526895D02*
X162338443Y-56726895D01*
X162719395Y-57222133D02*
X163328919Y-57222133D01*
X163671775Y-57298323D02*
X164052728Y-57298323D01*
X163595585Y-57526895D02*
X163862252Y-56726895D01*
X163862252Y-56726895D02*
X164128918Y-57526895D01*
X164814632Y-57526895D02*
X164357489Y-57526895D01*
X164586061Y-57526895D02*
X164586061Y-56726895D01*
X164586061Y-56726895D02*
X164509870Y-56841180D01*
X164509870Y-56841180D02*
X164433680Y-56917371D01*
X164433680Y-56917371D02*
X164357489Y-56955466D01*
D12*
%TO.P,J1,1,1*%
%TO.N,Net-(J1-Pad1)*%
X187883800Y-75031600D03*
D13*
%TO.P,J1,2,2*%
%TO.N,Net-(IC1-Pad2)*%
X187883800Y-80111600D03*
%TO.P,J1,3,3*%
%TO.N,Net-(J1-Pad3)*%
X187883800Y-85191600D03*
%TD*%
D14*
%TO.P,Q1,1,G*%
%TO.N,Net-(D9-A)*%
X162557700Y-74738900D03*
%TO.P,Q1,2,S*%
%TO.N,GND*%
X162557700Y-72838900D03*
%TO.P,Q1,3,D*%
%TO.N,P0*%
X160682700Y-73788900D03*
%TD*%
D15*
%TO.P,R18,1*%
%TO.N,Net-(D14-A)*%
X137749800Y-83934800D03*
%TO.P,R18,2*%
%TO.N,GND*%
X137749800Y-85584800D03*
%TD*%
D16*
%TO.P,R22,1*%
%TO.N,+12V*%
X145376400Y-78232000D03*
%TO.P,R22,2*%
%TO.N,Net-(D13-A)*%
X143726400Y-78232000D03*
%TD*%
D17*
%TO.P,R13,1*%
%TO.N,Net-(R13-Pad1)*%
X178868700Y-64414400D03*
%TO.P,R13,2*%
%TO.N,Net-(IC3-Pad1)*%
X180693700Y-64414400D03*
%TD*%
D18*
%TO.P,C3,1*%
%TO.N,S3*%
X171907200Y-61506400D03*
%TO.P,C3,2*%
%TO.N,GND*%
X171907200Y-59956400D03*
%TD*%
D19*
%TO.P,Q6,1,G*%
%TO.N,Net-(D12-A)*%
X139872500Y-70678000D03*
%TO.P,Q6,2,S*%
%TO.N,GND*%
X139872500Y-72578000D03*
%TO.P,Q6,3,D*%
%TO.N,P5*%
X141747500Y-71628000D03*
%TD*%
D20*
%TO.P,R7,1*%
%TO.N,+12V*%
X163563800Y-68554600D03*
%TO.P,R7,2*%
%TO.N,Net-(D10-A)*%
X165213800Y-68554600D03*
%TD*%
%TO.P,R1,1*%
%TO.N,+12V*%
X168910100Y-74574400D03*
%TO.P,R1,2*%
%TO.N,Net-(D3-A)*%
X170560100Y-74574400D03*
%TD*%
D18*
%TO.P,C1,1*%
%TO.N,S1*%
X171881800Y-80454800D03*
%TO.P,C1,2*%
%TO.N,GND*%
X171881800Y-78904800D03*
%TD*%
D21*
%TO.P,C7,1*%
%TO.N,+12V*%
X133070600Y-67982800D03*
%TO.P,C7,2*%
%TO.N,GND*%
X133070600Y-69532800D03*
%TD*%
D20*
%TO.P,R12,1*%
%TO.N,+12V*%
X158598600Y-61595000D03*
%TO.P,R12,2*%
%TO.N,Net-(D11-A)*%
X160248600Y-61595000D03*
%TD*%
D17*
%TO.P,R8,1*%
%TO.N,Net-(R8-Pad1)*%
X178870600Y-73710800D03*
%TO.P,R8,2*%
%TO.N,Net-(IC2-Pad1)*%
X180695600Y-73710800D03*
%TD*%
D22*
%TO.P,D6,1,K*%
%TO.N,S4*%
X135707450Y-82118200D03*
%TO.P,D6,2,A*%
%TO.N,Net-(D6-A)*%
X137282450Y-82118200D03*
%TD*%
D23*
%TO.P,D9,1,K*%
%TO.N,S1*%
X167075000Y-75650000D03*
%TO.P,D9,2,A*%
%TO.N,Net-(D9-A)*%
X167075000Y-72350000D03*
%TD*%
D16*
%TO.P,R11,1*%
%TO.N,Net-(D5-A)*%
X165366300Y-62839600D03*
%TO.P,R11,2*%
%TO.N,+12V*%
X163716300Y-62839600D03*
%TD*%
D24*
%TO.P,R10,1*%
%TO.N,Net-(D10-A)*%
X166680100Y-66715200D03*
%TO.P,R10,2*%
%TO.N,GND*%
X166680100Y-65065200D03*
%TD*%
D25*
%TO.P,IC6,1*%
%TO.N,Net-(IC4-Pad1)*%
X123975800Y-73406000D03*
%TO.P,IC6,2*%
%TO.N,Net-(IC6-Pad2)*%
X123975800Y-75946000D03*
%TO.P,IC6,3,E*%
%TO.N,GND*%
X130125800Y-75946000D03*
%TO.P,IC6,4,C*%
%TO.N,S6*%
X130125800Y-73406000D03*
%TD*%
D26*
%TO.P,R19,1*%
%TO.N,Net-(R19-Pad1)*%
X121564400Y-83872700D03*
%TO.P,R19,2*%
%TO.N,Net-(IC4-Pad2)*%
X121564400Y-85697700D03*
%TD*%
D20*
%TO.P,R16,1*%
%TO.N,Net-(D6-A)*%
X138895650Y-82118200D03*
%TO.P,R16,2*%
%TO.N,+12V*%
X140545650Y-82118200D03*
%TD*%
D27*
%TO.P,R31,1*%
%TO.N,Net-(J4-Pad3)*%
X119430800Y-75105900D03*
%TO.P,R31,2*%
%TO.N,Net-(R30-Pad1)*%
X119430800Y-73280900D03*
%TD*%
D20*
%TO.P,R26,1*%
%TO.N,Net-(D1-A)*%
X137515600Y-58318400D03*
%TO.P,R26,2*%
%TO.N,+12V*%
X139165600Y-58318400D03*
%TD*%
D14*
%TO.P,Q3,1,G*%
%TO.N,Net-(D11-A)*%
X164538900Y-60310800D03*
%TO.P,Q3,2,S*%
%TO.N,GND*%
X164538900Y-58410800D03*
%TO.P,Q3,3,D*%
%TO.N,P2*%
X162663900Y-59360800D03*
%TD*%
D16*
%TO.P,R17,1*%
%TO.N,+12V*%
X145376400Y-82550000D03*
%TO.P,R17,2*%
%TO.N,Net-(D14-A)*%
X143726400Y-82550000D03*
%TD*%
D28*
%TO.P,D4,1,K*%
%TO.N,S2*%
X168325900Y-70205600D03*
%TO.P,D4,2,A*%
%TO.N,Net-(D4-A)*%
X166750900Y-70205600D03*
%TD*%
%TO.P,D5,1,K*%
%TO.N,S3*%
X168427600Y-62839600D03*
%TO.P,D5,2,A*%
%TO.N,Net-(D5-A)*%
X166852600Y-62839600D03*
%TD*%
D29*
%TO.P,D2,1,K*%
%TO.N,+12V*%
X129812800Y-59105800D03*
%TO.P,D2,2,A*%
%TO.N,Net-(D2-A)*%
X125812800Y-59105800D03*
%TD*%
D27*
%TO.P,R25,1*%
%TO.N,Net-(J4-Pad2)*%
X119354600Y-80465300D03*
%TO.P,R25,2*%
%TO.N,Net-(R24-Pad1)*%
X119354600Y-78640300D03*
%TD*%
D26*
%TO.P,R24,1*%
%TO.N,Net-(R24-Pad1)*%
X121513600Y-78640300D03*
%TO.P,R24,2*%
%TO.N,Net-(IC5-Pad2)*%
X121513600Y-80465300D03*
%TD*%
D30*
%TO.P,C5,1*%
%TO.N,S5*%
X132384800Y-78995100D03*
%TO.P,C5,2*%
%TO.N,GND*%
X132384800Y-80720100D03*
%TD*%
D12*
%TO.P,J4,1,1*%
%TO.N,Net-(J4-Pad1)*%
X111788600Y-85158000D03*
D13*
%TO.P,J4,2,2*%
%TO.N,Net-(J4-Pad2)*%
X111788600Y-80078000D03*
%TO.P,J4,3,3*%
%TO.N,Net-(J4-Pad3)*%
X111788600Y-74998000D03*
%TD*%
D22*
%TO.P,D8,1,K*%
%TO.N,S6*%
X136708200Y-68808600D03*
%TO.P,D8,2,A*%
%TO.N,Net-(D8-A)*%
X138283200Y-68808600D03*
%TD*%
D20*
%TO.P,R2,1*%
%TO.N,+12V*%
X158407600Y-76352400D03*
%TO.P,R2,2*%
%TO.N,Net-(D9-A)*%
X160057600Y-76352400D03*
%TD*%
D12*
%TO.P,J3,1,1*%
%TO.N,Net-(IC4-Pad1)*%
X111810800Y-69875400D03*
D13*
%TO.P,J3,2,2*%
%TO.N,GND*%
X111810800Y-64795400D03*
%TO.P,J3,3,3*%
%TO.N,Net-(D2-A)*%
X111810800Y-59715400D03*
%TD*%
D28*
%TO.P,D3,1,K*%
%TO.N,S1*%
X173736100Y-74574400D03*
%TO.P,D3,2,A*%
%TO.N,Net-(D3-A)*%
X172161100Y-74574400D03*
%TD*%
D31*
%TO.P,J5,1,Pin_1*%
%TO.N,+12V*%
X133985000Y-64998600D03*
D32*
%TO.P,J5,2,Pin_2*%
%TO.N,GND*%
X133985000Y-62458600D03*
%TO.P,J5,3,Pin_3*%
%TO.N,unconnected-(J5-Pin_3-Pad3)*%
X136525000Y-64998600D03*
%TO.P,J5,4,Pin_4*%
%TO.N,GND*%
X136525000Y-62458600D03*
%TO.P,J5,5,Pin_5*%
%TO.N,P1*%
X139065000Y-64998600D03*
%TO.P,J5,6,Pin_6*%
%TO.N,P0*%
X139065000Y-62458600D03*
%TO.P,J5,7,Pin_7*%
%TO.N,P5*%
X141605000Y-64998600D03*
%TO.P,J5,8,Pin_8*%
%TO.N,P2*%
X141605000Y-62458600D03*
%TO.P,J5,9,Pin_9*%
%TO.N,unconnected-(J5-Pin_9-Pad9)*%
X144145000Y-64998600D03*
%TO.P,J5,10,Pin_10*%
%TO.N,unconnected-(J5-Pin_10-Pad10)*%
X144145000Y-62458600D03*
%TO.P,J5,11,Pin_11*%
%TO.N,P4*%
X146685000Y-64998600D03*
%TO.P,J5,12,Pin_12*%
%TO.N,P3*%
X146685000Y-62458600D03*
%TD*%
D23*
%TO.P,D11,1,K*%
%TO.N,S3*%
X168579800Y-61187600D03*
%TO.P,D11,2,A*%
%TO.N,Net-(D11-A)*%
X168579800Y-57887600D03*
%TD*%
D20*
%TO.P,R21,1*%
%TO.N,Net-(D7-A)*%
X139007500Y-75595000D03*
%TO.P,R21,2*%
%TO.N,+12V*%
X140657500Y-75595000D03*
%TD*%
D33*
%TO.P,D14,1,K*%
%TO.N,S4*%
X135686800Y-83744800D03*
%TO.P,D14,2,A*%
%TO.N,Net-(D14-A)*%
X135686800Y-87044800D03*
%TD*%
D25*
%TO.P,IC4,1*%
%TO.N,Net-(IC4-Pad1)*%
X123925000Y-83921600D03*
%TO.P,IC4,2*%
%TO.N,Net-(IC4-Pad2)*%
X123925000Y-86461600D03*
%TO.P,IC4,3,E*%
%TO.N,GND*%
X130075000Y-86461600D03*
%TO.P,IC4,4,C*%
%TO.N,S4*%
X130075000Y-83921600D03*
%TD*%
D26*
%TO.P,R30,1*%
%TO.N,Net-(R30-Pad1)*%
X121564400Y-73257400D03*
%TO.P,R30,2*%
%TO.N,Net-(IC6-Pad2)*%
X121564400Y-75082400D03*
%TD*%
D33*
%TO.P,D13,1,K*%
%TO.N,S5*%
X135692400Y-77293200D03*
%TO.P,D13,2,A*%
%TO.N,Net-(D13-A)*%
X135692400Y-80593200D03*
%TD*%
D22*
%TO.P,D1,1,K*%
%TO.N,GND*%
X134442100Y-58267600D03*
%TO.P,D1,2,A*%
%TO.N,Net-(D1-A)*%
X136017100Y-58267600D03*
%TD*%
D19*
%TO.P,Q4,1,G*%
%TO.N,Net-(D14-A)*%
X139608600Y-84013000D03*
%TO.P,Q4,2,S*%
%TO.N,GND*%
X139608600Y-85913000D03*
%TO.P,Q4,3,D*%
%TO.N,P3*%
X141483600Y-84963000D03*
%TD*%
D25*
%TO.P,IC2,1*%
%TO.N,Net-(IC2-Pad1)*%
X180468600Y-71475600D03*
%TO.P,IC2,2*%
%TO.N,Net-(IC2-Pad2)*%
X180468600Y-68935600D03*
%TO.P,IC2,3,E*%
%TO.N,GND*%
X174318600Y-68935600D03*
%TO.P,IC2,4,C*%
%TO.N,S2*%
X174318600Y-71475600D03*
%TD*%
D24*
%TO.P,R15,1*%
%TO.N,Net-(D11-A)*%
X166598600Y-60135000D03*
%TO.P,R15,2*%
%TO.N,GND*%
X166598600Y-58485000D03*
%TD*%
D34*
%TO.P,C6,1*%
%TO.N,+12V*%
X128871200Y-66421000D03*
%TO.P,C6,2*%
%TO.N,GND*%
X121471200Y-66421000D03*
%TD*%
D17*
%TO.P,R14,1*%
%TO.N,Net-(R13-Pad1)*%
X178919500Y-66548000D03*
%TO.P,R14,2*%
%TO.N,Net-(J2-Pad2)*%
X180744500Y-66548000D03*
%TD*%
D33*
%TO.P,D12,1,K*%
%TO.N,S6*%
X135819400Y-70486000D03*
%TO.P,D12,2,A*%
%TO.N,Net-(D12-A)*%
X135819400Y-73786000D03*
%TD*%
D15*
%TO.P,R29,1*%
%TO.N,Net-(D12-A)*%
X137965200Y-70871600D03*
%TO.P,R29,2*%
%TO.N,GND*%
X137965200Y-72521600D03*
%TD*%
D25*
%TO.P,IC3,1*%
%TO.N,Net-(IC3-Pad1)*%
X180519400Y-62077600D03*
%TO.P,IC3,2*%
%TO.N,Net-(IC3-Pad2)*%
X180519400Y-59537600D03*
%TO.P,IC3,3,E*%
%TO.N,GND*%
X174369400Y-59537600D03*
%TO.P,IC3,4,C*%
%TO.N,S3*%
X174369400Y-62077600D03*
%TD*%
%TO.P,IC1,1*%
%TO.N,Net-(IC1-Pad1)*%
X180392400Y-80340200D03*
%TO.P,IC1,2*%
%TO.N,Net-(IC1-Pad2)*%
X180392400Y-77800200D03*
%TO.P,IC1,3,E*%
%TO.N,GND*%
X174242400Y-77800200D03*
%TO.P,IC1,4,C*%
%TO.N,S1*%
X174242400Y-80340200D03*
%TD*%
D14*
%TO.P,Q2,1,G*%
%TO.N,Net-(D10-A)*%
X164566600Y-66873200D03*
%TO.P,Q2,2,S*%
%TO.N,GND*%
X164566600Y-64973200D03*
%TO.P,Q2,3,D*%
%TO.N,P1*%
X162691600Y-65923200D03*
%TD*%
D22*
%TO.P,D7,1,K*%
%TO.N,S5*%
X135844600Y-75595000D03*
%TO.P,D7,2,A*%
%TO.N,Net-(D7-A)*%
X137419600Y-75595000D03*
%TD*%
D17*
%TO.P,R9,1*%
%TO.N,Net-(R8-Pad1)*%
X178868700Y-75793600D03*
%TO.P,R9,2*%
%TO.N,Net-(J1-Pad1)*%
X180693700Y-75793600D03*
%TD*%
D21*
%TO.P,C4,1*%
%TO.N,S4*%
X132334000Y-84289600D03*
%TO.P,C4,2*%
%TO.N,GND*%
X132334000Y-85839600D03*
%TD*%
D17*
%TO.P,R4,1*%
%TO.N,Net-(R3-Pad1)*%
X178716300Y-86918800D03*
%TO.P,R4,2*%
%TO.N,Net-(J1-Pad3)*%
X180541300Y-86918800D03*
%TD*%
D16*
%TO.P,R6,1*%
%TO.N,Net-(D4-A)*%
X165213800Y-70205600D03*
%TO.P,R6,2*%
%TO.N,+12V*%
X163563800Y-70205600D03*
%TD*%
D12*
%TO.P,J2,1,1*%
%TO.N,Net-(IC3-Pad2)*%
X187833800Y-59781600D03*
D13*
%TO.P,J2,2,2*%
%TO.N,Net-(J2-Pad2)*%
X187833800Y-64861600D03*
%TO.P,J2,3,3*%
%TO.N,Net-(IC2-Pad2)*%
X187833800Y-69941600D03*
%TD*%
D24*
%TO.P,R5,1*%
%TO.N,Net-(D9-A)*%
X164617400Y-74561200D03*
%TO.P,R5,2*%
%TO.N,GND*%
X164617400Y-72911200D03*
%TD*%
D16*
%TO.P,R28,1*%
%TO.N,+12V*%
X145439400Y-71374000D03*
%TO.P,R28,2*%
%TO.N,Net-(D12-A)*%
X143789400Y-71374000D03*
%TD*%
D31*
%TO.P,J6,1,Pin_1*%
%TO.N,+12V*%
X166497000Y-79781400D03*
D32*
%TO.P,J6,2,Pin_2*%
%TO.N,S6*%
X166497000Y-82321400D03*
%TO.P,J6,3,Pin_3*%
%TO.N,unconnected-(J6-Pin_3-Pad3)*%
X163957000Y-79781400D03*
%TO.P,J6,4,Pin_4*%
%TO.N,S5*%
X163957000Y-82321400D03*
%TO.P,J6,5,Pin_5*%
%TO.N,unconnected-(J6-Pin_5-Pad5)*%
X161417000Y-79781400D03*
%TO.P,J6,6,Pin_6*%
%TO.N,S4*%
X161417000Y-82321400D03*
%TO.P,J6,7,Pin_7*%
%TO.N,unconnected-(J6-Pin_7-Pad7)*%
X158877000Y-79781400D03*
%TO.P,J6,8,Pin_8*%
%TO.N,S3*%
X158877000Y-82321400D03*
%TO.P,J6,9,Pin_9*%
%TO.N,S1*%
X156337000Y-79781400D03*
%TO.P,J6,10,Pin_10*%
%TO.N,S2*%
X156337000Y-82321400D03*
%TO.P,J6,11,Pin_11*%
%TO.N,GND*%
X153797000Y-79781400D03*
%TO.P,J6,12,Pin_12*%
X153797000Y-82321400D03*
%TD*%
D20*
%TO.P,R27,1*%
%TO.N,Net-(D8-A)*%
X139718700Y-68808600D03*
%TO.P,R27,2*%
%TO.N,+12V*%
X141368700Y-68808600D03*
%TD*%
D21*
%TO.P,C8,1*%
%TO.N,S6*%
X132410200Y-73774000D03*
%TO.P,C8,2*%
%TO.N,GND*%
X132410200Y-75324000D03*
%TD*%
D23*
%TO.P,D10,1,K*%
%TO.N,S2*%
X168783000Y-68299600D03*
%TO.P,D10,2,A*%
%TO.N,Net-(D10-A)*%
X168783000Y-64999600D03*
%TD*%
D17*
%TO.P,R3,1*%
%TO.N,Net-(R3-Pad1)*%
X178868700Y-82397600D03*
%TO.P,R3,2*%
%TO.N,Net-(IC1-Pad1)*%
X180693700Y-82397600D03*
%TD*%
D25*
%TO.P,IC5,1*%
%TO.N,Net-(IC4-Pad1)*%
X123975800Y-78689200D03*
%TO.P,IC5,2*%
%TO.N,Net-(IC5-Pad2)*%
X123975800Y-81229200D03*
%TO.P,IC5,3,E*%
%TO.N,GND*%
X130125800Y-81229200D03*
%TO.P,IC5,4,C*%
%TO.N,S5*%
X130125800Y-78689200D03*
%TD*%
D19*
%TO.P,Q5,1,G*%
%TO.N,Net-(D13-A)*%
X139834900Y-77561400D03*
%TO.P,Q5,2,S*%
%TO.N,GND*%
X139834900Y-79461400D03*
%TO.P,Q5,3,D*%
%TO.N,P4*%
X141709900Y-78511400D03*
%TD*%
D26*
%TO.P,R20,1*%
%TO.N,Net-(R19-Pad1)*%
X119430800Y-83872700D03*
%TO.P,R20,2*%
%TO.N,Net-(J4-Pad1)*%
X119430800Y-85697700D03*
%TD*%
D15*
%TO.P,R23,1*%
%TO.N,Net-(D13-A)*%
X137953000Y-77495400D03*
%TO.P,R23,2*%
%TO.N,GND*%
X137953000Y-79145400D03*
%TD*%
D18*
%TO.P,C2,1*%
%TO.N,S2*%
X171805600Y-70675800D03*
%TO.P,C2,2*%
%TO.N,GND*%
X171805600Y-69125800D03*
%TD*%
D35*
%TO.N,+12V*%
X141991600Y-82169000D03*
X158496000Y-62941200D03*
X162179000Y-70205600D03*
X142042400Y-75595000D03*
X142448800Y-68808600D03*
X158496000Y-64973200D03*
X140614400Y-58547000D03*
D36*
X129660400Y-61823600D03*
D35*
X159156400Y-74980800D03*
X163855400Y-76428600D03*
%TO.N,GND*%
X139019800Y-71653400D03*
X132384800Y-77266800D03*
D37*
X117729000Y-66090800D03*
D35*
X141432800Y-86029800D03*
X132334000Y-87477600D03*
X163703000Y-72047600D03*
X132410200Y-82423000D03*
X171754800Y-67505600D03*
X137953000Y-80035400D03*
X170484800Y-59994800D03*
X131572000Y-69570600D03*
X171881800Y-77647800D03*
%TO.N,S6*%
X146405600Y-79207600D03*
X144475000Y-69875000D03*
%TO.N,S3*%
X170002200Y-62890400D03*
%TO.N,S2*%
X156083000Y-74803000D03*
X156108400Y-71297800D03*
%TO.N,P3*%
X148996400Y-76657200D03*
X148996400Y-85013800D03*
%TO.N,P1*%
X159575000Y-65938400D03*
X158425000Y-58750200D03*
%TO.N,P4*%
X147421600Y-75946000D03*
X147320000Y-80492600D03*
%TD*%
D38*
%TO.N,Net-(D2-A)*%
X112453800Y-59105800D02*
X125812800Y-59105800D01*
X111777200Y-59782400D02*
X112453800Y-59105800D01*
D39*
%TO.N,+12V*%
X163563800Y-68554600D02*
X163563800Y-68630800D01*
D40*
X162179000Y-70205600D02*
X162560000Y-70205600D01*
D39*
X158496000Y-63042800D02*
X158496000Y-62941200D01*
X163563800Y-68630800D02*
X163525200Y-68669400D01*
X163525200Y-70167000D02*
X163563800Y-70205600D01*
D40*
X160103820Y-64940180D02*
X162204400Y-62839600D01*
D41*
X133070600Y-67982800D02*
X134035800Y-67017600D01*
D40*
X145376400Y-81851000D02*
X145376400Y-82550000D01*
D42*
X142734800Y-75590400D02*
X145376400Y-78232000D01*
D39*
X159134700Y-75002500D02*
X158753700Y-75002500D01*
X158598600Y-61595000D02*
X158445200Y-61748400D01*
X158394400Y-75361800D02*
X158394400Y-76339200D01*
D42*
X141368700Y-68808600D02*
X142448800Y-68808600D01*
D40*
X144830800Y-81305400D02*
X145376400Y-81851000D01*
D41*
X134035800Y-67017600D02*
X134035800Y-65049400D01*
D39*
X158394400Y-76339200D02*
X158407600Y-76352400D01*
D40*
X158740200Y-64940180D02*
X160103820Y-64940180D01*
X141940800Y-82118200D02*
X140545650Y-82118200D01*
D39*
X158597600Y-63144400D02*
X158496000Y-63042800D01*
D40*
X141991600Y-82169000D02*
X141940800Y-82118200D01*
X141986000Y-82042000D02*
X142722600Y-81305400D01*
X141986000Y-82174600D02*
X141986000Y-82042000D01*
X163690900Y-62814200D02*
X163716300Y-62839600D01*
D42*
X144750000Y-68800000D02*
X145439400Y-69489400D01*
D41*
X134035800Y-65049400D02*
X133985000Y-64998600D01*
X128871200Y-66421000D02*
X130433000Y-67982800D01*
D42*
X168910100Y-76301500D02*
X168910100Y-74574400D01*
D40*
X142722600Y-81305400D02*
X144830800Y-81305400D01*
X158496000Y-64973200D02*
X158707180Y-64973200D01*
D41*
X130433000Y-67982800D02*
X133070600Y-67982800D01*
D38*
X128871200Y-66243200D02*
X129660400Y-65454000D01*
D40*
X140614400Y-58547000D02*
X140385800Y-58318400D01*
X140385800Y-58318400D02*
X139165600Y-58318400D01*
X163716300Y-62838600D02*
X163716300Y-62839600D01*
D42*
X142047000Y-75590400D02*
X142734800Y-75590400D01*
D39*
X158445200Y-62992000D02*
X158597600Y-63144400D01*
D40*
X162204400Y-62839600D02*
X163716300Y-62839600D01*
D42*
X142042400Y-75595000D02*
X140657500Y-75595000D01*
X142448800Y-67945000D02*
X142448800Y-68808600D01*
D39*
X158445200Y-61748400D02*
X158445200Y-62992000D01*
D42*
X164388800Y-76962000D02*
X168249600Y-76962000D01*
X163855400Y-76428600D02*
X164388800Y-76962000D01*
D38*
X129660400Y-65454000D02*
X129660400Y-59258200D01*
D42*
X141826200Y-67322400D02*
X142448800Y-67945000D01*
D38*
X129660400Y-59258200D02*
X129812800Y-59105800D01*
D39*
X163525200Y-68669400D02*
X163525200Y-70167000D01*
D40*
X158707180Y-64973200D02*
X158740200Y-64940180D01*
D39*
X158753700Y-75002500D02*
X158394400Y-75361800D01*
D42*
X142457400Y-68800000D02*
X144750000Y-68800000D01*
X142448800Y-68808600D02*
X142457400Y-68800000D01*
D40*
X163563800Y-70205600D02*
X162179000Y-70205600D01*
D38*
X128871200Y-66421000D02*
X128871200Y-66243200D01*
D42*
X142042400Y-75595000D02*
X142047000Y-75590400D01*
X134066800Y-67322400D02*
X141826200Y-67322400D01*
D41*
X133883400Y-64897000D02*
X134035800Y-65049400D01*
D39*
X159156400Y-74980800D02*
X159134700Y-75002500D01*
D40*
X141991600Y-82169000D02*
X141986000Y-82174600D01*
D42*
X145439400Y-69489400D02*
X145439400Y-71374000D01*
X168249600Y-76962000D02*
X168910100Y-76301500D01*
X134041400Y-67297000D02*
X134066800Y-67322400D01*
D40*
%TO.N,GND*%
X132383700Y-80721200D02*
X132384800Y-80720100D01*
D43*
X111982300Y-64897000D02*
X111931700Y-64846400D01*
D40*
X132384800Y-75349400D02*
X132384800Y-77266800D01*
X171754800Y-69075000D02*
X171805600Y-69125800D01*
D43*
X116636800Y-64897000D02*
X111982300Y-64897000D01*
D40*
X137775200Y-85698600D02*
X138104400Y-85698600D01*
D43*
X117729000Y-66090800D02*
X117703600Y-66065400D01*
D40*
X139705600Y-80035400D02*
X139834900Y-79906100D01*
D42*
X171881800Y-77647800D02*
X171856400Y-77673200D01*
D40*
X138095200Y-72521600D02*
X137965200Y-72521600D01*
D42*
X132334000Y-85915800D02*
X132321000Y-85902800D01*
X174305100Y-59473300D02*
X174369400Y-59537600D01*
X166804400Y-65013100D02*
X166697700Y-64906400D01*
D39*
X133985000Y-58724700D02*
X133985000Y-62458600D01*
D40*
X171995800Y-68935600D02*
X174318600Y-68935600D01*
X139019800Y-71653400D02*
X138963400Y-71653400D01*
X163703000Y-72047600D02*
X162911700Y-72838900D01*
X171780200Y-64973200D02*
X170738800Y-63931800D01*
D43*
X117729000Y-66090800D02*
X121623600Y-66090800D01*
D40*
X131495800Y-80721200D02*
X131546600Y-80721200D01*
X164566600Y-64973200D02*
X166588100Y-64973200D01*
X171754800Y-67505600D02*
X171754800Y-69075000D01*
X171754800Y-67505600D02*
X171754800Y-67005200D01*
X132359400Y-80745500D02*
X132384800Y-80720100D01*
X131038600Y-81178400D02*
X131495800Y-80721200D01*
D42*
X171856400Y-78879400D02*
X171881800Y-78904800D01*
D40*
X169646600Y-63931800D02*
X169641600Y-63926800D01*
X166598600Y-57379600D02*
X166598600Y-58485000D01*
X171907200Y-59956400D02*
X173950600Y-59956400D01*
X139608600Y-85974400D02*
X139608600Y-85913000D01*
X139872500Y-72562500D02*
X139872500Y-72578000D01*
X139664000Y-86029800D02*
X139608600Y-85974400D01*
X138104400Y-85698600D02*
X138334000Y-85928200D01*
X130125800Y-75946000D02*
X131788200Y-75946000D01*
X137953000Y-80035400D02*
X137953000Y-79145400D01*
X139834900Y-79906100D02*
X139834900Y-79461400D01*
D39*
X166588100Y-64973200D02*
X166680100Y-65065200D01*
D42*
X173609000Y-77800200D02*
X174242400Y-77800200D01*
D40*
X139019800Y-71653400D02*
X139019800Y-71709800D01*
D39*
X134442100Y-58267600D02*
X133985000Y-58724700D01*
D42*
X132321000Y-85902800D02*
X130633800Y-85902800D01*
D43*
X121623600Y-66090800D02*
X121649000Y-66065400D01*
D40*
X130125800Y-81229200D02*
X130176600Y-81178400D01*
X171780200Y-66979800D02*
X171780200Y-64973200D01*
D42*
X172504400Y-78904800D02*
X173609000Y-77800200D01*
D41*
X131572000Y-69570600D02*
X133032800Y-69570600D01*
D43*
X117703600Y-65963800D02*
X116636800Y-64897000D01*
D42*
X166526700Y-65077400D02*
X166697700Y-64906400D01*
D40*
X138963400Y-71653400D02*
X138095200Y-72521600D01*
X132359400Y-82372200D02*
X132359400Y-80745500D01*
X162911700Y-72838900D02*
X162557700Y-72838900D01*
X170484800Y-59994800D02*
X170484800Y-57454800D01*
X163703000Y-72047600D02*
X164566600Y-72911200D01*
X164566600Y-72911200D02*
X164617400Y-72911200D01*
X131788200Y-75946000D02*
X132410200Y-75324000D01*
X139593400Y-85928200D02*
X139608600Y-85913000D01*
X137953000Y-80035400D02*
X139705600Y-80035400D01*
X167818500Y-63926800D02*
X166680100Y-65065200D01*
D43*
X117703600Y-66065400D02*
X117703600Y-65963800D01*
D40*
X171805600Y-69125800D02*
X171995800Y-68935600D01*
X167006000Y-56972200D02*
X166598600Y-57379600D01*
D42*
X171881800Y-78904800D02*
X172504400Y-78904800D01*
D40*
X171754800Y-67005200D02*
X171780200Y-66979800D01*
X130176600Y-81178400D02*
X131038600Y-81178400D01*
X132410200Y-82423000D02*
X132359400Y-82372200D01*
X138334000Y-85928200D02*
X139593400Y-85928200D01*
X141432800Y-86029800D02*
X139664000Y-86029800D01*
X170002200Y-56972200D02*
X167006000Y-56972200D01*
X170484800Y-57454800D02*
X170002200Y-56972200D01*
X164538900Y-58410800D02*
X166524400Y-58410800D01*
X171625000Y-69125800D02*
X171805600Y-69125800D01*
D41*
X133032800Y-69570600D02*
X133070600Y-69532800D01*
D42*
X171856400Y-77673200D02*
X171856400Y-78879400D01*
D40*
X171868800Y-59994800D02*
X171907200Y-59956400D01*
D42*
X132334000Y-87477600D02*
X132334000Y-85915800D01*
D40*
X173950600Y-59956400D02*
X174369400Y-59537600D01*
X131546600Y-80721200D02*
X132383700Y-80721200D01*
X170484800Y-59994800D02*
X171868800Y-59994800D01*
D39*
X166524400Y-58410800D02*
X166598600Y-58485000D01*
D40*
X170738800Y-63931800D02*
X169646600Y-63931800D01*
X169641600Y-63926800D02*
X167818500Y-63926800D01*
X139019800Y-71709800D02*
X139872500Y-72562500D01*
X166537400Y-58546200D02*
X166598600Y-58485000D01*
X132410200Y-75324000D02*
X132384800Y-75349400D01*
D42*
X130633800Y-85902800D02*
X130075000Y-86461600D01*
D40*
%TO.N,S6*%
X134250000Y-73275000D02*
X133751000Y-73774000D01*
X136708200Y-69875000D02*
X144475000Y-69875000D01*
X146416000Y-79197200D02*
X148869400Y-79197200D01*
X135819400Y-70486000D02*
X134864000Y-70486000D01*
X165785800Y-85013800D02*
X165811199Y-84988401D01*
X134864000Y-70486000D02*
X134250000Y-71100000D01*
X165811199Y-84988401D02*
X165811198Y-84988400D01*
X136708200Y-68808600D02*
X136708200Y-69597200D01*
X148869400Y-79197200D02*
X149555200Y-79883000D01*
X149555200Y-82931000D02*
X151638000Y-85013800D01*
X165811199Y-84988401D02*
X166497000Y-84302600D01*
X151638000Y-85013800D02*
X165785800Y-85013800D01*
X166497000Y-84302600D02*
X166497000Y-82321400D01*
X146405600Y-79207600D02*
X146416000Y-79197200D01*
X134250000Y-71100000D02*
X134250000Y-73275000D01*
X130125800Y-73406000D02*
X130493800Y-73774000D01*
X136708200Y-69875000D02*
X136430400Y-69875000D01*
X130493800Y-73774000D02*
X132410200Y-73774000D01*
X133751000Y-73774000D02*
X132410200Y-73774000D01*
X136708200Y-69597200D02*
X136708200Y-69875000D01*
X136430400Y-69875000D02*
X135819400Y-70486000D01*
X149555200Y-79883000D02*
X149555200Y-82931000D01*
X132575000Y-73609200D02*
X132410200Y-73774000D01*
%TO.N,Net-(D1-A)*%
X136017100Y-58267600D02*
X137464800Y-58267600D01*
X137464800Y-58267600D02*
X137515600Y-58318400D01*
D44*
%TO.N,Net-(IC4-Pad1)*%
X109296200Y-82550000D02*
X123266200Y-82550000D01*
D38*
X109220000Y-82473800D02*
X109220000Y-77622400D01*
X111777200Y-69942400D02*
X109220000Y-72499600D01*
D44*
X123212200Y-71450200D02*
X123975800Y-72213800D01*
X123975800Y-78689200D02*
X122350200Y-77063600D01*
X111777200Y-69942400D02*
X113234200Y-71399400D01*
X115417600Y-77622400D02*
X109220000Y-77622400D01*
X116027200Y-77012800D02*
X115417600Y-77622400D01*
X122324800Y-77012800D02*
X116027200Y-77012800D01*
X123291600Y-82600800D02*
X123925000Y-83234200D01*
X113234200Y-71399400D02*
X123186800Y-71399400D01*
D38*
X109220000Y-72499600D02*
X109220000Y-77622400D01*
D44*
X123975800Y-72213800D02*
X123975800Y-73406000D01*
D38*
X109270800Y-82524600D02*
X109220000Y-82473800D01*
D44*
X109270800Y-82524600D02*
X109296200Y-82550000D01*
X123925000Y-83234200D02*
X123925000Y-83921600D01*
%TO.N,Net-(IC4-Pad2)*%
X121564400Y-85697700D02*
X121564400Y-85928200D01*
X121564400Y-85928200D02*
X122097800Y-86461600D01*
X122097800Y-86461600D02*
X123925000Y-86461600D01*
%TO.N,Net-(IC5-Pad2)*%
X121513600Y-80467200D02*
X122275600Y-81229200D01*
D42*
X121513600Y-80465300D02*
X121513600Y-80467200D01*
D44*
X122275600Y-81229200D02*
X123975800Y-81229200D01*
D42*
%TO.N,Net-(D8-A)*%
X138283200Y-68808600D02*
X139718700Y-68808600D01*
D44*
%TO.N,Net-(IC1-Pad2)*%
X180392400Y-77800200D02*
X180468600Y-77876400D01*
X185978800Y-77876400D02*
X188163200Y-80060800D01*
X180468600Y-77876400D02*
X185978800Y-77876400D01*
%TO.N,Net-(J4-Pad1)*%
X113893600Y-85217000D02*
X111763000Y-85217000D01*
X114321600Y-85645000D02*
X113893600Y-85217000D01*
X119456200Y-85645000D02*
X114321600Y-85645000D01*
X111763000Y-85217000D02*
X111755000Y-85225000D01*
%TO.N,Net-(J4-Pad3)*%
X111925600Y-75133200D02*
X119403500Y-75133200D01*
D41*
X119403500Y-75133200D02*
X119430800Y-75105900D01*
D44*
%TO.N,Net-(J1-Pad3)*%
X188180000Y-85200000D02*
X188200000Y-85180000D01*
X182262000Y-85200000D02*
X188180000Y-85200000D01*
X180541300Y-86918800D02*
X180543200Y-86918800D01*
X180543200Y-86918800D02*
X182262000Y-85200000D01*
X188137800Y-85115400D02*
X188163200Y-85140800D01*
%TO.N,Net-(IC1-Pad1)*%
X180619400Y-80567200D02*
X180392400Y-80340200D01*
X180619400Y-82323300D02*
X180619400Y-80567200D01*
%TO.N,Net-(IC2-Pad2)*%
X180468600Y-68935600D02*
X187147200Y-68935600D01*
X187147200Y-68935600D02*
X188163200Y-69951600D01*
D42*
%TO.N,Net-(IC2-Pad1)*%
X180468600Y-73483800D02*
X180695600Y-73710800D01*
X180468600Y-71475600D02*
X180468600Y-73483800D01*
%TO.N,Net-(IC3-Pad1)*%
X180519400Y-62077600D02*
X180519400Y-64240100D01*
X180519400Y-64240100D02*
X180693700Y-64414400D01*
D44*
%TO.N,Net-(IC3-Pad2)*%
X187909200Y-59537600D02*
X188163200Y-59791600D01*
D41*
X187858400Y-59486800D02*
X188163200Y-59791600D01*
D44*
X180519400Y-59537600D02*
X187909200Y-59537600D01*
D40*
%TO.N,S4*%
X161417000Y-82321400D02*
X162661600Y-81076800D01*
X167487600Y-81076800D02*
X168554400Y-82143600D01*
X134188200Y-82118200D02*
X135707450Y-82118200D01*
X132308600Y-83997800D02*
X134188200Y-82118200D01*
D42*
X135568550Y-82257100D02*
X135707450Y-82118200D01*
D40*
X151104600Y-85852000D02*
X145973800Y-80721200D01*
D42*
X135688600Y-83892400D02*
X135692400Y-83896200D01*
D40*
X168554400Y-82143600D02*
X168554400Y-85140800D01*
X162661600Y-81076800D02*
X167487600Y-81076800D01*
X135819400Y-82118200D02*
X135707450Y-82118200D01*
D42*
X135688600Y-81885900D02*
X135688600Y-83892400D01*
D40*
X132308600Y-84238800D02*
X132308600Y-83997800D01*
X137216400Y-80721200D02*
X135819400Y-82118200D01*
X168554400Y-85140800D02*
X167843200Y-85852000D01*
X130075000Y-83921600D02*
X131966000Y-83921600D01*
X131966000Y-83921600D02*
X132334000Y-84289600D01*
X167843200Y-85852000D02*
X151104600Y-85852000D01*
X145973800Y-80721200D02*
X137216400Y-80721200D01*
%TO.N,S3*%
X171907200Y-61506400D02*
X173798200Y-61506400D01*
X168427600Y-61339800D02*
X168579800Y-61187600D01*
X168579800Y-61187600D02*
X168656000Y-61263800D01*
X170002200Y-62890400D02*
X168478400Y-62890400D01*
X173798200Y-61506400D02*
X174369400Y-62077600D01*
D42*
X170002200Y-62890400D02*
X170027600Y-62915800D01*
D40*
X168478400Y-62890400D02*
X168427600Y-62839600D01*
X168580000Y-62992000D02*
X168427600Y-62839600D01*
D42*
X171094400Y-62915800D02*
X171907200Y-62103000D01*
D40*
X168427600Y-62839600D02*
X168427600Y-61339800D01*
X168503800Y-62763400D02*
X168427600Y-62839600D01*
D42*
X170027600Y-62915800D02*
X171094400Y-62915800D01*
X171907200Y-62103000D02*
X171907200Y-61506400D01*
D39*
X171907200Y-61757600D02*
X171907200Y-61506400D01*
D40*
%TO.N,S2*%
X168286900Y-68795700D02*
X168286900Y-70166600D01*
X168325900Y-70205600D02*
X168478300Y-70358000D01*
X156108400Y-74828400D02*
X156108400Y-76606400D01*
X171805600Y-70675800D02*
X172377400Y-70675800D01*
X168325900Y-70281700D02*
X168325900Y-70205600D01*
X168286900Y-70166600D02*
X168325900Y-70205600D01*
D39*
X171805600Y-70675800D02*
X171754800Y-70726600D01*
D40*
X155067000Y-81051400D02*
X156337000Y-82321400D01*
X173177200Y-71475600D02*
X174318600Y-71475600D01*
X169519600Y-70205600D02*
X168325900Y-70205600D01*
X167309800Y-71297800D02*
X168325900Y-70281700D01*
X169989800Y-70675800D02*
X169519600Y-70205600D01*
X156083000Y-74803000D02*
X156108400Y-74828400D01*
X171805600Y-70675800D02*
X169989800Y-70675800D01*
X168783000Y-68299600D02*
X168286900Y-68795700D01*
X155067000Y-77647800D02*
X155067000Y-81051400D01*
X172377400Y-70675800D02*
X173177200Y-71475600D01*
X156108400Y-76606400D02*
X155067000Y-77647800D01*
X156108400Y-71297800D02*
X167309800Y-71297800D01*
%TO.N,S5*%
X150190200Y-82600800D02*
X150190200Y-79324200D01*
X135879600Y-77106000D02*
X135879600Y-75630000D01*
X151968200Y-84378800D02*
X150190200Y-82600800D01*
X145352327Y-76936600D02*
X143040727Y-74625000D01*
X132384800Y-78995100D02*
X134466500Y-78995100D01*
X163652000Y-84378800D02*
X151968200Y-84378800D01*
X135955000Y-75595000D02*
X135844600Y-75595000D01*
X143040727Y-74625000D02*
X136925000Y-74625000D01*
X163957000Y-84073800D02*
X163652000Y-84378800D01*
X147802600Y-76936600D02*
X145352327Y-76936600D01*
X150190200Y-79324200D02*
X147802600Y-76936600D01*
X132078900Y-78689200D02*
X130125800Y-78689200D01*
X136925000Y-74625000D02*
X135955000Y-75595000D01*
X134466500Y-78995100D02*
X135692400Y-77769200D01*
X163957000Y-82321400D02*
X163957000Y-84073800D01*
X135879600Y-75630000D02*
X135844600Y-75595000D01*
X135692400Y-77293200D02*
X135879600Y-77106000D01*
D42*
X135654900Y-75784700D02*
X135844600Y-75595000D01*
D40*
X135692400Y-77769200D02*
X135692400Y-77293200D01*
X132384800Y-78995100D02*
X132078900Y-78689200D01*
D42*
%TO.N,S1*%
X167075000Y-74600000D02*
X167075000Y-75650000D01*
X171856400Y-76403200D02*
X173126300Y-76403200D01*
X170955000Y-80454800D02*
X171881800Y-80454800D01*
X173736100Y-75793400D02*
X173736100Y-74574400D01*
X170484800Y-77774800D02*
X170383200Y-77876400D01*
X173736100Y-74574400D02*
X173736100Y-73812300D01*
X170383200Y-77876400D02*
X170383200Y-79883000D01*
X170484800Y-77774800D02*
X171856400Y-76403200D01*
X168500000Y-73175000D02*
X167075000Y-74600000D01*
X173126300Y-76403200D02*
X173736100Y-75793400D01*
D40*
X156337000Y-78460600D02*
X156337000Y-79781400D01*
D42*
X173736100Y-73812300D02*
X173098800Y-73175000D01*
X173098800Y-73175000D02*
X168500000Y-73175000D01*
X170383200Y-79883000D02*
X170955000Y-80454800D01*
D40*
X157073600Y-77724000D02*
X156337000Y-78460600D01*
D42*
X171881800Y-80454800D02*
X171945600Y-80391000D01*
D40*
X170484800Y-77774800D02*
X170434000Y-77724000D01*
D42*
X174191600Y-80391000D02*
X174242400Y-80340200D01*
D40*
X170434000Y-77724000D02*
X157073600Y-77724000D01*
D42*
X171945600Y-80391000D02*
X174191600Y-80391000D01*
%TO.N,Net-(R13-Pad1)*%
X178868700Y-64414400D02*
X178868700Y-66497200D01*
X178868700Y-66497200D02*
X178919500Y-66548000D01*
D40*
%TO.N,Net-(D9-A)*%
X164439700Y-74738900D02*
X164617400Y-74561200D01*
X165675800Y-74624200D02*
X167075000Y-73225000D01*
X164680400Y-74624200D02*
X165675800Y-74624200D01*
X164617400Y-74561200D02*
X164680400Y-74624200D01*
D39*
X162557700Y-75668900D02*
X162557700Y-74738900D01*
D40*
X167075000Y-73225000D02*
X167075000Y-72350000D01*
X164543100Y-74486900D02*
X164617400Y-74561200D01*
X162557700Y-74738900D02*
X164439700Y-74738900D01*
D39*
X160057600Y-76352400D02*
X161874200Y-76352400D01*
X161874200Y-76352400D02*
X162557700Y-75668900D01*
%TO.N,Net-(D10-A)*%
X164465000Y-66974800D02*
X164566600Y-66873200D01*
D40*
X168531300Y-64959600D02*
X168743000Y-64959600D01*
D39*
X164566600Y-67831200D02*
X164566600Y-66873200D01*
D40*
X168407900Y-65083000D02*
X168531300Y-64959600D01*
X168289200Y-65083000D02*
X168407900Y-65083000D01*
X164566600Y-66873200D02*
X166522100Y-66873200D01*
D39*
X166522100Y-66873200D02*
X166680100Y-66715200D01*
X165213800Y-68478400D02*
X164566600Y-67831200D01*
D40*
X168743000Y-64959600D02*
X168783000Y-64999600D01*
X168783000Y-64999600D02*
X168395700Y-64999600D01*
X168395700Y-64999600D02*
X166680100Y-66715200D01*
D39*
X165213800Y-68554600D02*
X165213800Y-68478400D01*
%TO.N,Net-(D11-A)*%
X164527700Y-60299600D02*
X164538900Y-60310800D01*
D40*
X168579800Y-58437800D02*
X166882600Y-60135000D01*
D39*
X162687000Y-60299600D02*
X164527700Y-60299600D01*
D40*
X166882600Y-60135000D02*
X166598600Y-60135000D01*
D39*
X166422800Y-60310800D02*
X166598600Y-60135000D01*
D40*
X164538900Y-60310800D02*
X166422800Y-60310800D01*
D39*
X164498300Y-60351400D02*
X164538900Y-60310800D01*
D40*
X168579800Y-57837800D02*
X168579800Y-58437800D01*
X168528800Y-58446400D02*
X168528800Y-57888800D01*
D39*
X160248600Y-61595000D02*
X161391600Y-61595000D01*
X161391600Y-61595000D02*
X162687000Y-60299600D01*
D40*
X168528800Y-57888800D02*
X168579800Y-57837800D01*
%TO.N,Net-(D12-A)*%
X137965200Y-70871600D02*
X138628400Y-70871600D01*
X139872500Y-70678000D02*
X139739900Y-70810600D01*
X138628400Y-70871600D02*
X138825000Y-70675000D01*
X139595400Y-70810600D02*
X139540000Y-70866000D01*
X137378400Y-70871600D02*
X135819400Y-72430600D01*
X135819400Y-72430600D02*
X135819400Y-73786000D01*
D39*
X143779200Y-71363800D02*
X143789400Y-71374000D01*
D40*
X139869500Y-70675000D02*
X139872500Y-70678000D01*
X138825000Y-70675000D02*
X139869500Y-70675000D01*
X143576000Y-71363800D02*
X143779200Y-71363800D01*
X139872500Y-70678000D02*
X142890200Y-70678000D01*
X137965200Y-70871600D02*
X137378400Y-70871600D01*
X139739900Y-70810600D02*
X139595400Y-70810600D01*
X142890200Y-70678000D02*
X143576000Y-71363800D01*
%TO.N,Net-(D13-A)*%
X137749800Y-77495400D02*
X137953000Y-77495400D01*
X143726400Y-78143600D02*
X143726400Y-78232000D01*
X139759700Y-77486200D02*
X139834900Y-77561400D01*
X137962200Y-77486200D02*
X139759700Y-77486200D01*
X140020600Y-77561400D02*
X140035800Y-77546200D01*
X137953000Y-77495400D02*
X137962200Y-77486200D01*
X135692400Y-79552800D02*
X137749800Y-77495400D01*
X143144200Y-77561400D02*
X143726400Y-78143600D01*
X139834900Y-77561400D02*
X140020600Y-77561400D01*
X135692400Y-80593200D02*
X135692400Y-79552800D01*
X139834900Y-77561400D02*
X143144200Y-77561400D01*
D44*
%TO.N,Net-(R3-Pad1)*%
X178716300Y-82727800D02*
X178716300Y-86918800D01*
X178767100Y-82677000D02*
X178716300Y-82727800D01*
D42*
%TO.N,Net-(R8-Pad1)*%
X178870600Y-75791700D02*
X178868700Y-75793600D01*
X178870600Y-73710800D02*
X178870600Y-75791700D01*
%TO.N,Net-(R19-Pad1)*%
X119481600Y-83870800D02*
X121562500Y-83870800D01*
X121562500Y-83870800D02*
X121564400Y-83872700D01*
%TO.N,Net-(R24-Pad1)*%
X121462800Y-78691100D02*
X121513600Y-78640300D01*
X119430800Y-78691100D02*
X121462800Y-78691100D01*
D40*
%TO.N,P0*%
X142945000Y-61321800D02*
X142945000Y-63277599D01*
X153163900Y-73788900D02*
X151739600Y-72364600D01*
X142519399Y-63703200D02*
X140309600Y-63703200D01*
X143840200Y-60426600D02*
X142945000Y-61321800D01*
X160682700Y-73788900D02*
X153163900Y-73788900D01*
X151739600Y-72364600D02*
X151739600Y-61544200D01*
X150622000Y-60426600D02*
X143840200Y-60426600D01*
X140309600Y-63703200D02*
X139065000Y-62458600D01*
X151739600Y-61544200D02*
X150622000Y-60426600D01*
X142945000Y-63277599D02*
X142519399Y-63703200D01*
%TO.N,P3*%
X148996400Y-76657200D02*
X148996400Y-62966600D01*
X141534400Y-85013800D02*
X141483600Y-84963000D01*
X148996400Y-62966600D02*
X148488400Y-62458600D01*
X148488400Y-62458600D02*
X146685000Y-62458600D01*
X148996400Y-85013800D02*
X141534400Y-85013800D01*
%TO.N,P1*%
X143306800Y-58750200D02*
X141681200Y-60375800D01*
X137769600Y-63703200D02*
X139065000Y-64998600D01*
X159575000Y-65938400D02*
X162676400Y-65938400D01*
X141681200Y-60375800D02*
X138531600Y-60375800D01*
X138531600Y-60375800D02*
X137769600Y-61137800D01*
X162676400Y-65938400D02*
X162691600Y-65923200D01*
X137769600Y-61137800D02*
X137769600Y-63703200D01*
X158425000Y-58750200D02*
X143306800Y-58750200D01*
%TO.N,P2*%
X141605000Y-62458600D02*
X141605000Y-61468000D01*
X161697400Y-59639200D02*
X161975800Y-59360800D01*
X160731200Y-59639200D02*
X161697400Y-59639200D01*
X141605000Y-61468000D02*
X143433800Y-59639200D01*
X161975800Y-59360800D02*
X162663900Y-59360800D01*
X143433800Y-59639200D02*
X161036000Y-59639200D01*
%TO.N,P5*%
X141747500Y-72507100D02*
X142113000Y-72872600D01*
X145745200Y-67995800D02*
X143383000Y-67995800D01*
X143383000Y-67995800D02*
X141605000Y-66217800D01*
X146354800Y-72491600D02*
X146354800Y-68605400D01*
X146354800Y-68605400D02*
X145745200Y-67995800D01*
X141747500Y-71628000D02*
X141747500Y-72507100D01*
X141470400Y-71628000D02*
X141747500Y-71628000D01*
X141605000Y-66217800D02*
X141605000Y-64998600D01*
X145973800Y-72872600D02*
X146354800Y-72491600D01*
X142113000Y-72872600D02*
X145973800Y-72872600D01*
%TO.N,P4*%
X147447000Y-66649600D02*
X146685000Y-65887600D01*
X147447000Y-75920600D02*
X147447000Y-66649600D01*
X146685000Y-65887600D02*
X146685000Y-64998600D01*
X142671800Y-80086200D02*
X141709900Y-79124300D01*
X141709900Y-79124300D02*
X141709900Y-78511400D01*
X147421600Y-75946000D02*
X147447000Y-75920600D01*
X146913600Y-80086200D02*
X142671800Y-80086200D01*
X147320000Y-80492600D02*
X146913600Y-80086200D01*
D42*
%TO.N,Net-(D3-A)*%
X170560100Y-74574400D02*
X172161100Y-74574400D01*
D40*
%TO.N,Net-(D4-A)*%
X165213800Y-70205600D02*
X166750900Y-70205600D01*
D42*
%TO.N,Net-(D5-A)*%
X165366300Y-62839600D02*
X166852600Y-62839600D01*
D40*
%TO.N,Net-(D6-A)*%
X137282450Y-82118200D02*
X138895650Y-82118200D01*
D42*
%TO.N,Net-(D7-A)*%
X137419600Y-75595000D02*
X139007500Y-75595000D01*
%TO.N,Net-(IC6-Pad2)*%
X123874200Y-75844400D02*
X123975800Y-75946000D01*
D44*
X122986800Y-75946000D02*
X123975800Y-75946000D01*
X122123200Y-75082400D02*
X122986800Y-75946000D01*
X121564400Y-75082400D02*
X122123200Y-75082400D01*
D41*
%TO.N,Net-(J4-Pad2)*%
X119352700Y-80467200D02*
X119354600Y-80465300D01*
D44*
X112179600Y-80467200D02*
X112187400Y-80475000D01*
X119344900Y-80475000D02*
X119352700Y-80467200D01*
X112187400Y-80475000D02*
X119344900Y-80475000D01*
D40*
%TO.N,Net-(D14-A)*%
X143726400Y-83400400D02*
X143726400Y-82550000D01*
X135735800Y-85687300D02*
X137374500Y-84048600D01*
X143129000Y-83997800D02*
X143726400Y-83400400D01*
X139608600Y-84013000D02*
X142885200Y-84013000D01*
X139573000Y-84048600D02*
X139608600Y-84013000D01*
X142885200Y-84013000D02*
X142900400Y-83997800D01*
X135735800Y-87077600D02*
X135735800Y-85687300D01*
X137374500Y-84048600D02*
X139573000Y-84048600D01*
X142900400Y-83997800D02*
X143129000Y-83997800D01*
X135692400Y-87121000D02*
X135735800Y-87077600D01*
D42*
%TO.N,Net-(R30-Pad1)*%
X121515500Y-73306300D02*
X121564400Y-73257400D01*
X119481600Y-73306300D02*
X121515500Y-73306300D01*
D44*
%TO.N,Net-(J1-Pad1)*%
X180693700Y-75793600D02*
X181467300Y-75020000D01*
X181467300Y-75020000D02*
X188124000Y-75020000D01*
X188124000Y-75020000D02*
X188163200Y-74980800D01*
%TO.N,Net-(J2-Pad2)*%
X180744500Y-66548000D02*
X186486800Y-66548000D01*
X186486800Y-66548000D02*
X188150000Y-64884800D01*
%TD*%
M02*
