%TF.GenerationSoftware,KiCad,Pcbnew,9.0.6*%
%TF.CreationDate,2025-12-26T20:18:00+00:00*%
%TF.ProjectId,PIDI-BOX-01-FRONTPANEL-1-3TE-A1,50494449-2d42-44f5-982d-30312d46524f,rev?*%
%TF.SameCoordinates,Original*%
%TF.FileFunction,Copper,L3,Inr*%
%TF.FilePolarity,Positive*%
%FSLAX46Y46*%
G04 Gerber Fmt 4.6, Leading zero omitted, Abs format (unit mm)*
G04 Created by KiCad (PCBNEW 9.0.6) date 2025-12-26 20:18:00*
%MOMM*%
%LPD*%
G01*
G04 APERTURE LIST*
%TA.AperFunction,ComponentPad*%
%ADD10R,1.700000X1.700000*%
%TD*%
%TA.AperFunction,ViaPad*%
%ADD11C,0.600000*%
%TD*%
%TA.AperFunction,ViaPad*%
%ADD12C,1.000000*%
%TD*%
G04 APERTURE END LIST*
D10*
%TO.N,N/C*%
%TO.C,REF\u002A\u002A*%
X95275400Y-79476600D03*
%TD*%
%TO.N,N/C*%
%TO.C,REF\u002A\u002A*%
X118745000Y-79476600D03*
%TD*%
D11*
%TO.N,GND*%
X118575000Y-54800000D03*
D12*
X125225000Y-76100000D03*
X95224600Y-56819800D03*
D11*
X101567600Y-79317458D03*
X107035600Y-79372700D03*
X112344200Y-78155800D03*
X86950000Y-55500000D03*
D12*
X112445800Y-51181000D03*
D11*
%TO.N,BUT3G16*%
X121294600Y-72288400D03*
X87096600Y-72694800D03*
%TO.N,/BUT2*%
X86300000Y-70750000D03*
%TO.N,/BUT1*%
X86400000Y-62450000D03*
%TO.N,BUT2G25*%
X87223600Y-64211200D03*
X124950000Y-68450000D03*
X97409000Y-53863800D03*
X92354400Y-63881000D03*
%TO.N,+3.3V*%
X115341400Y-56201471D03*
X100217000Y-51308000D03*
X124815600Y-65930000D03*
%TO.N,BUT1G08*%
X125012500Y-70162500D03*
X90940100Y-55184900D03*
%TO.N,+5V*%
X125500000Y-59250000D03*
X128050000Y-78075000D03*
%TO.N,G9*%
X127660400Y-64465200D03*
X127660400Y-72339200D03*
%TO.N,Net-(U1-C_TR1)*%
X121800000Y-55850000D03*
X113436400Y-76301600D03*
%TO.N,G10*%
X114598350Y-79393950D03*
X127508000Y-62077600D03*
%TO.N,G17*%
X122783600Y-64643000D03*
X108825000Y-80746600D03*
%TO.N,/BUT3*%
X86225000Y-79800000D03*
%TD*%
%TA.AperFunction,Conductor*%
%TO.N,+3.3V*%
G36*
X111845465Y-50170185D02*
G01*
X111891220Y-50222989D01*
X111901164Y-50292147D01*
X111872139Y-50355703D01*
X111847317Y-50377602D01*
X111808017Y-50403860D01*
X111668663Y-50543214D01*
X111668660Y-50543218D01*
X111559171Y-50707079D01*
X111559164Y-50707092D01*
X111483750Y-50889160D01*
X111483747Y-50889170D01*
X111445300Y-51082456D01*
X111445300Y-51082459D01*
X111445300Y-51279541D01*
X111445300Y-51279543D01*
X111445299Y-51279543D01*
X111483747Y-51472829D01*
X111483750Y-51472839D01*
X111559164Y-51654907D01*
X111559171Y-51654920D01*
X111668660Y-51818781D01*
X111668663Y-51818785D01*
X111808014Y-51958136D01*
X111808018Y-51958139D01*
X111971879Y-52067628D01*
X111971892Y-52067635D01*
X112153960Y-52143049D01*
X112153965Y-52143051D01*
X112153969Y-52143051D01*
X112153970Y-52143052D01*
X112347256Y-52181500D01*
X112347259Y-52181500D01*
X112544343Y-52181500D01*
X112674382Y-52155632D01*
X112737635Y-52143051D01*
X112919714Y-52067632D01*
X113083582Y-51958139D01*
X113222939Y-51818782D01*
X113234516Y-51801455D01*
X114574502Y-51801455D01*
X114574502Y-51998544D01*
X114612949Y-52191827D01*
X114612952Y-52191839D01*
X114688366Y-52373907D01*
X114688373Y-52373920D01*
X114797861Y-52537779D01*
X114797864Y-52537783D01*
X114937216Y-52677135D01*
X114937220Y-52677138D01*
X115101079Y-52786626D01*
X115101092Y-52786633D01*
X115261304Y-52852994D01*
X115283165Y-52862049D01*
X115476455Y-52900497D01*
X115476458Y-52900498D01*
X115476460Y-52900498D01*
X115673542Y-52900498D01*
X115673543Y-52900497D01*
X115866835Y-52862049D01*
X116048914Y-52786630D01*
X116212780Y-52677138D01*
X116352138Y-52537780D01*
X116461630Y-52373914D01*
X116537049Y-52191835D01*
X116575498Y-51998540D01*
X116575498Y-51801460D01*
X116575498Y-51801457D01*
X116575497Y-51801455D01*
X116546348Y-51654914D01*
X116537049Y-51608165D01*
X116480994Y-51472835D01*
X116461633Y-51426092D01*
X116461626Y-51426079D01*
X116352138Y-51262220D01*
X116352135Y-51262216D01*
X116212783Y-51122864D01*
X116212779Y-51122861D01*
X116048920Y-51013373D01*
X116048907Y-51013366D01*
X115866839Y-50937952D01*
X115866827Y-50937949D01*
X115673543Y-50899502D01*
X115673540Y-50899502D01*
X115476460Y-50899502D01*
X115476457Y-50899502D01*
X115283172Y-50937949D01*
X115283160Y-50937952D01*
X115101092Y-51013366D01*
X115101079Y-51013373D01*
X114937220Y-51122861D01*
X114937216Y-51122864D01*
X114797864Y-51262216D01*
X114797861Y-51262220D01*
X114688373Y-51426079D01*
X114688366Y-51426092D01*
X114612952Y-51608160D01*
X114612949Y-51608172D01*
X114574502Y-51801455D01*
X113234516Y-51801455D01*
X113250529Y-51777489D01*
X113284616Y-51726477D01*
X113332428Y-51654920D01*
X113332428Y-51654919D01*
X113332432Y-51654914D01*
X113407851Y-51472835D01*
X113446300Y-51279541D01*
X113446300Y-51082459D01*
X113446300Y-51082456D01*
X113407852Y-50889170D01*
X113407851Y-50889169D01*
X113407851Y-50889165D01*
X113407849Y-50889160D01*
X113332435Y-50707092D01*
X113332428Y-50707079D01*
X113222939Y-50543218D01*
X113222936Y-50543214D01*
X113083582Y-50403860D01*
X113044283Y-50377602D01*
X112999478Y-50323990D01*
X112990771Y-50254665D01*
X113020925Y-50191638D01*
X113080368Y-50154918D01*
X113113174Y-50150500D01*
X124748010Y-50150500D01*
X124815049Y-50170185D01*
X124860804Y-50222989D01*
X124872009Y-50275093D01*
X124854461Y-53942644D01*
X124850000Y-54875000D01*
X129425500Y-54875000D01*
X129492539Y-54894685D01*
X129538294Y-54947489D01*
X129549500Y-54999000D01*
X129549500Y-81901000D01*
X129529815Y-81968039D01*
X129477011Y-82013794D01*
X129425500Y-82025000D01*
X124900000Y-82025000D01*
X124887344Y-84644827D01*
X124877772Y-86626099D01*
X124857763Y-86693043D01*
X124804739Y-86738542D01*
X124753773Y-86749500D01*
X93924404Y-86749500D01*
X93857365Y-86729815D01*
X93811610Y-86677011D01*
X93800405Y-86625889D01*
X93797283Y-85630287D01*
X93816757Y-85563186D01*
X93869417Y-85517266D01*
X93921282Y-85505898D01*
X94081342Y-85505898D01*
X94081343Y-85505897D01*
X94274635Y-85467449D01*
X94456714Y-85392030D01*
X94620580Y-85282538D01*
X94759938Y-85143180D01*
X94869430Y-84979314D01*
X94944849Y-84797235D01*
X94983298Y-84603940D01*
X94983298Y-84406860D01*
X94983298Y-84406857D01*
X94956584Y-84272560D01*
X94956584Y-84272559D01*
X94952983Y-84254455D01*
X120741902Y-84254455D01*
X120741902Y-84451544D01*
X120780349Y-84644827D01*
X120780352Y-84644839D01*
X120855766Y-84826907D01*
X120855773Y-84826920D01*
X120965261Y-84990779D01*
X120965264Y-84990783D01*
X121104616Y-85130135D01*
X121104620Y-85130138D01*
X121268479Y-85239626D01*
X121268492Y-85239633D01*
X121450560Y-85315047D01*
X121450565Y-85315049D01*
X121643855Y-85353497D01*
X121643858Y-85353498D01*
X121643860Y-85353498D01*
X121840942Y-85353498D01*
X121840943Y-85353497D01*
X122034235Y-85315049D01*
X122216314Y-85239630D01*
X122380180Y-85130138D01*
X122519538Y-84990780D01*
X122629030Y-84826914D01*
X122704449Y-84644835D01*
X122742898Y-84451540D01*
X122742898Y-84254460D01*
X122742898Y-84254457D01*
X122742897Y-84254455D01*
X122704450Y-84061172D01*
X122704449Y-84061165D01*
X122692153Y-84031479D01*
X122629033Y-83879092D01*
X122629026Y-83879079D01*
X122519538Y-83715220D01*
X122519535Y-83715216D01*
X122380183Y-83575864D01*
X122380179Y-83575861D01*
X122216320Y-83466373D01*
X122216307Y-83466366D01*
X122034239Y-83390952D01*
X122034227Y-83390949D01*
X121840943Y-83352502D01*
X121840940Y-83352502D01*
X121643860Y-83352502D01*
X121643857Y-83352502D01*
X121450572Y-83390949D01*
X121450560Y-83390952D01*
X121268492Y-83466366D01*
X121268479Y-83466373D01*
X121104620Y-83575861D01*
X121104616Y-83575864D01*
X120965264Y-83715216D01*
X120965261Y-83715220D01*
X120855773Y-83879079D01*
X120855766Y-83879092D01*
X120780352Y-84061160D01*
X120780349Y-84061172D01*
X120741902Y-84254455D01*
X94952983Y-84254455D01*
X94944850Y-84213572D01*
X94944849Y-84213565D01*
X94944847Y-84213560D01*
X94869433Y-84031492D01*
X94869426Y-84031479D01*
X94759938Y-83867620D01*
X94759935Y-83867616D01*
X94620583Y-83728264D01*
X94620579Y-83728261D01*
X94456720Y-83618773D01*
X94456707Y-83618766D01*
X94274639Y-83543352D01*
X94274627Y-83543349D01*
X94081343Y-83504902D01*
X94081340Y-83504902D01*
X93914229Y-83504902D01*
X93847190Y-83485217D01*
X93801435Y-83432413D01*
X93790230Y-83381291D01*
X93790140Y-83352502D01*
X93785480Y-81866855D01*
X102147702Y-81866855D01*
X102147702Y-82063944D01*
X102186149Y-82257227D01*
X102186152Y-82257239D01*
X102261566Y-82439307D01*
X102261573Y-82439320D01*
X102371061Y-82603179D01*
X102371064Y-82603183D01*
X102510416Y-82742535D01*
X102510420Y-82742538D01*
X102674279Y-82852026D01*
X102674292Y-82852033D01*
X102796936Y-82902833D01*
X102856365Y-82927449D01*
X103049655Y-82965897D01*
X103049658Y-82965898D01*
X103049660Y-82965898D01*
X103246742Y-82965898D01*
X103246743Y-82965897D01*
X103440035Y-82927449D01*
X103622114Y-82852030D01*
X103785980Y-82742538D01*
X103925338Y-82603180D01*
X104034830Y-82439314D01*
X104110249Y-82257235D01*
X104148698Y-82063940D01*
X104148698Y-81917655D01*
X111270302Y-81917655D01*
X111270302Y-82114744D01*
X111308749Y-82308027D01*
X111308752Y-82308039D01*
X111384166Y-82490107D01*
X111384173Y-82490120D01*
X111493661Y-82653979D01*
X111493664Y-82653983D01*
X111633016Y-82793335D01*
X111633020Y-82793338D01*
X111796879Y-82902826D01*
X111796892Y-82902833D01*
X111978960Y-82978247D01*
X111978965Y-82978249D01*
X112172255Y-83016697D01*
X112172258Y-83016698D01*
X112172260Y-83016698D01*
X112369342Y-83016698D01*
X112369343Y-83016697D01*
X112562635Y-82978249D01*
X112744714Y-82902830D01*
X112908580Y-82793338D01*
X113047938Y-82653980D01*
X113157430Y-82490114D01*
X113232849Y-82308035D01*
X113271298Y-82114740D01*
X113271298Y-81917660D01*
X113271298Y-81917657D01*
X113271297Y-81917655D01*
X113261193Y-81866860D01*
X113232849Y-81724365D01*
X113211805Y-81673560D01*
X113157433Y-81542292D01*
X113157426Y-81542279D01*
X113047938Y-81378420D01*
X113047935Y-81378416D01*
X112908583Y-81239064D01*
X112908579Y-81239061D01*
X112744720Y-81129573D01*
X112744707Y-81129566D01*
X112562639Y-81054152D01*
X112562627Y-81054149D01*
X112369343Y-81015702D01*
X112369340Y-81015702D01*
X112172260Y-81015702D01*
X112172257Y-81015702D01*
X111978972Y-81054149D01*
X111978960Y-81054152D01*
X111796892Y-81129566D01*
X111796879Y-81129573D01*
X111633020Y-81239061D01*
X111633016Y-81239064D01*
X111493664Y-81378416D01*
X111493661Y-81378420D01*
X111384173Y-81542279D01*
X111384166Y-81542292D01*
X111308752Y-81724360D01*
X111308749Y-81724372D01*
X111270302Y-81917655D01*
X104148698Y-81917655D01*
X104148698Y-81866860D01*
X104148698Y-81866857D01*
X104148697Y-81866855D01*
X104110250Y-81673572D01*
X104110249Y-81673565D01*
X104057866Y-81547100D01*
X104034833Y-81491492D01*
X104034826Y-81491479D01*
X103925338Y-81327620D01*
X103925335Y-81327616D01*
X103785983Y-81188264D01*
X103785979Y-81188261D01*
X103622120Y-81078773D01*
X103622107Y-81078766D01*
X103440039Y-81003352D01*
X103440027Y-81003349D01*
X103246743Y-80964902D01*
X103246740Y-80964902D01*
X103049660Y-80964902D01*
X103049657Y-80964902D01*
X102856372Y-81003349D01*
X102856360Y-81003352D01*
X102674292Y-81078766D01*
X102674279Y-81078773D01*
X102510420Y-81188261D01*
X102510416Y-81188264D01*
X102371064Y-81327616D01*
X102371061Y-81327620D01*
X102261573Y-81491479D01*
X102261566Y-81491492D01*
X102186152Y-81673560D01*
X102186149Y-81673572D01*
X102147702Y-81866855D01*
X93785480Y-81866855D01*
X93781742Y-80674892D01*
X93801216Y-80607794D01*
X93853876Y-80561874D01*
X93923003Y-80551713D01*
X93986649Y-80580539D01*
X94005007Y-80600194D01*
X94023949Y-80625497D01*
X94060926Y-80674892D01*
X94067855Y-80684147D01*
X94183064Y-80770393D01*
X94183071Y-80770397D01*
X94317917Y-80820691D01*
X94317916Y-80820691D01*
X94324844Y-80821435D01*
X94377527Y-80827100D01*
X96173272Y-80827099D01*
X96232883Y-80820691D01*
X96367731Y-80770396D01*
X96482946Y-80684146D01*
X96495218Y-80667753D01*
X108024500Y-80667753D01*
X108024500Y-80825446D01*
X108055261Y-80980089D01*
X108055264Y-80980101D01*
X108115602Y-81125772D01*
X108115609Y-81125785D01*
X108203210Y-81256888D01*
X108203213Y-81256892D01*
X108314707Y-81368386D01*
X108314711Y-81368389D01*
X108445814Y-81455990D01*
X108445827Y-81455997D01*
X108531521Y-81491492D01*
X108591503Y-81516337D01*
X108721957Y-81542286D01*
X108746153Y-81547099D01*
X108746156Y-81547100D01*
X108746158Y-81547100D01*
X108903844Y-81547100D01*
X108903845Y-81547099D01*
X109058497Y-81516337D01*
X109204179Y-81455994D01*
X109335289Y-81368389D01*
X109446789Y-81256889D01*
X109534394Y-81125779D01*
X109594737Y-80980097D01*
X109625500Y-80825442D01*
X109625500Y-80667758D01*
X109625500Y-80667755D01*
X109625499Y-80667753D01*
X109613572Y-80607794D01*
X109594737Y-80513103D01*
X109562006Y-80434082D01*
X109534397Y-80367427D01*
X109534390Y-80367414D01*
X109446789Y-80236311D01*
X109446786Y-80236307D01*
X109335292Y-80124813D01*
X109335288Y-80124810D01*
X109204185Y-80037209D01*
X109204172Y-80037202D01*
X109058501Y-79976864D01*
X109058489Y-79976861D01*
X108903845Y-79946100D01*
X108903842Y-79946100D01*
X108746158Y-79946100D01*
X108746155Y-79946100D01*
X108591510Y-79976861D01*
X108591498Y-79976864D01*
X108445827Y-80037202D01*
X108445814Y-80037209D01*
X108314711Y-80124810D01*
X108314707Y-80124813D01*
X108203213Y-80236307D01*
X108203210Y-80236311D01*
X108115609Y-80367414D01*
X108115602Y-80367427D01*
X108055264Y-80513098D01*
X108055261Y-80513110D01*
X108024500Y-80667753D01*
X96495218Y-80667753D01*
X96555405Y-80587354D01*
X96555406Y-80587353D01*
X96562126Y-80578374D01*
X96569196Y-80568931D01*
X96619491Y-80434083D01*
X96625900Y-80374473D01*
X96625899Y-79238611D01*
X100767100Y-79238611D01*
X100767100Y-79396304D01*
X100797861Y-79550947D01*
X100797864Y-79550959D01*
X100858202Y-79696630D01*
X100858209Y-79696643D01*
X100945810Y-79827746D01*
X100945813Y-79827750D01*
X101057307Y-79939244D01*
X101057311Y-79939247D01*
X101188414Y-80026848D01*
X101188427Y-80026855D01*
X101321778Y-80082090D01*
X101334103Y-80087195D01*
X101488753Y-80117957D01*
X101488756Y-80117958D01*
X101488758Y-80117958D01*
X101646444Y-80117958D01*
X101646445Y-80117957D01*
X101801097Y-80087195D01*
X101946779Y-80026852D01*
X102077889Y-79939247D01*
X102189389Y-79827747D01*
X102276994Y-79696637D01*
X102337337Y-79550955D01*
X102368100Y-79396300D01*
X102368100Y-79293853D01*
X106235100Y-79293853D01*
X106235100Y-79451546D01*
X106265861Y-79606189D01*
X106265864Y-79606201D01*
X106326202Y-79751872D01*
X106326209Y-79751885D01*
X106413810Y-79882988D01*
X106413813Y-79882992D01*
X106525307Y-79994486D01*
X106525311Y-79994489D01*
X106656414Y-80082090D01*
X106656427Y-80082097D01*
X106802098Y-80142435D01*
X106802103Y-80142437D01*
X106956753Y-80173199D01*
X106956756Y-80173200D01*
X106956758Y-80173200D01*
X107114444Y-80173200D01*
X107114445Y-80173199D01*
X107269097Y-80142437D01*
X107414779Y-80082094D01*
X107545889Y-79994489D01*
X107657389Y-79882989D01*
X107744994Y-79751879D01*
X107805337Y-79606197D01*
X107836100Y-79451542D01*
X107836100Y-79315103D01*
X113797850Y-79315103D01*
X113797850Y-79472796D01*
X113828611Y-79627439D01*
X113828614Y-79627451D01*
X113888952Y-79773122D01*
X113888959Y-79773135D01*
X113976560Y-79904238D01*
X113976563Y-79904242D01*
X114088057Y-80015736D01*
X114088061Y-80015739D01*
X114219164Y-80103340D01*
X114219177Y-80103347D01*
X114364848Y-80163685D01*
X114364853Y-80163687D01*
X114519503Y-80194449D01*
X114519506Y-80194450D01*
X114519508Y-80194450D01*
X114677194Y-80194450D01*
X114677195Y-80194449D01*
X114831847Y-80163687D01*
X114977529Y-80103344D01*
X115108639Y-80015739D01*
X115220139Y-79904239D01*
X115307744Y-79773129D01*
X115316544Y-79751885D01*
X115368085Y-79627451D01*
X115368087Y-79627447D01*
X115398850Y-79472792D01*
X115398850Y-79315108D01*
X115398850Y-79315105D01*
X115398849Y-79315103D01*
X115394622Y-79293853D01*
X115368087Y-79160453D01*
X115336406Y-79083968D01*
X115307747Y-79014777D01*
X115307740Y-79014764D01*
X115220139Y-78883661D01*
X115220136Y-78883657D01*
X115108642Y-78772163D01*
X115108638Y-78772160D01*
X114977529Y-78684555D01*
X114831851Y-78624214D01*
X114831839Y-78624211D01*
X114677195Y-78593450D01*
X114677192Y-78593450D01*
X114519508Y-78593450D01*
X114519505Y-78593450D01*
X114364860Y-78624211D01*
X114364848Y-78624214D01*
X114219177Y-78684552D01*
X114219164Y-78684559D01*
X114088061Y-78772160D01*
X114088057Y-78772163D01*
X113976563Y-78883657D01*
X113976560Y-78883661D01*
X113888959Y-79014764D01*
X113888952Y-79014777D01*
X113828614Y-79160448D01*
X113828611Y-79160460D01*
X113797850Y-79315103D01*
X107836100Y-79315103D01*
X107836100Y-79293858D01*
X107836100Y-79293855D01*
X107836099Y-79293853D01*
X107805337Y-79139203D01*
X107782453Y-79083956D01*
X107744997Y-78993527D01*
X107744990Y-78993514D01*
X107657389Y-78862411D01*
X107657386Y-78862407D01*
X107545892Y-78750913D01*
X107545888Y-78750910D01*
X107414785Y-78663309D01*
X107414772Y-78663302D01*
X107269101Y-78602964D01*
X107269089Y-78602961D01*
X107114445Y-78572200D01*
X107114442Y-78572200D01*
X106956758Y-78572200D01*
X106956755Y-78572200D01*
X106802110Y-78602961D01*
X106802098Y-78602964D01*
X106656427Y-78663302D01*
X106656414Y-78663309D01*
X106525311Y-78750910D01*
X106525307Y-78750913D01*
X106413813Y-78862407D01*
X106413810Y-78862411D01*
X106326209Y-78993514D01*
X106326202Y-78993527D01*
X106265864Y-79139198D01*
X106265861Y-79139210D01*
X106235100Y-79293853D01*
X102368100Y-79293853D01*
X102368100Y-79238616D01*
X102368100Y-79238613D01*
X102368099Y-79238611D01*
X102337337Y-79083961D01*
X102337335Y-79083956D01*
X102276997Y-78938285D01*
X102276990Y-78938272D01*
X102189389Y-78807169D01*
X102189386Y-78807165D01*
X102077892Y-78695671D01*
X102077888Y-78695668D01*
X101946785Y-78608067D01*
X101946772Y-78608060D01*
X101801101Y-78547722D01*
X101801089Y-78547719D01*
X101646445Y-78516958D01*
X101646442Y-78516958D01*
X101488758Y-78516958D01*
X101488755Y-78516958D01*
X101334110Y-78547719D01*
X101334098Y-78547722D01*
X101188427Y-78608060D01*
X101188414Y-78608067D01*
X101057311Y-78695668D01*
X101057307Y-78695671D01*
X100945813Y-78807165D01*
X100945810Y-78807169D01*
X100858209Y-78938272D01*
X100858202Y-78938285D01*
X100797864Y-79083956D01*
X100797861Y-79083968D01*
X100767100Y-79238611D01*
X96625899Y-79238611D01*
X96625899Y-78578728D01*
X96619491Y-78519117D01*
X96571071Y-78389297D01*
X96569197Y-78384271D01*
X96569193Y-78384264D01*
X96482947Y-78269055D01*
X96482944Y-78269052D01*
X96367733Y-78182804D01*
X96367731Y-78182803D01*
X96232882Y-78132508D01*
X96232883Y-78132508D01*
X96173283Y-78126101D01*
X96173281Y-78126100D01*
X96173273Y-78126100D01*
X96173264Y-78126100D01*
X94377529Y-78126100D01*
X94377523Y-78126101D01*
X94317916Y-78132508D01*
X94183071Y-78182802D01*
X94183064Y-78182806D01*
X94067855Y-78269052D01*
X93997525Y-78363000D01*
X93941591Y-78404870D01*
X93871899Y-78409854D01*
X93810576Y-78376368D01*
X93777092Y-78315044D01*
X93774260Y-78289085D01*
X93773595Y-78076953D01*
X111543700Y-78076953D01*
X111543700Y-78234646D01*
X111574461Y-78389289D01*
X111574464Y-78389301D01*
X111634802Y-78534972D01*
X111634809Y-78534985D01*
X111722410Y-78666088D01*
X111722413Y-78666092D01*
X111833907Y-78777586D01*
X111833911Y-78777589D01*
X111965014Y-78865190D01*
X111965027Y-78865197D01*
X112110698Y-78925535D01*
X112110703Y-78925537D01*
X112265353Y-78956299D01*
X112265356Y-78956300D01*
X112265358Y-78956300D01*
X112423044Y-78956300D01*
X112423045Y-78956299D01*
X112577697Y-78925537D01*
X112723379Y-78865194D01*
X112854489Y-78777589D01*
X112965989Y-78666089D01*
X113024357Y-78578735D01*
X117394500Y-78578735D01*
X117394500Y-80374470D01*
X117394501Y-80374476D01*
X117400908Y-80434083D01*
X117451202Y-80568928D01*
X117451206Y-80568935D01*
X117537452Y-80684144D01*
X117537455Y-80684147D01*
X117652664Y-80770393D01*
X117652671Y-80770397D01*
X117787517Y-80820691D01*
X117787516Y-80820691D01*
X117794444Y-80821435D01*
X117847127Y-80827100D01*
X119642872Y-80827099D01*
X119702483Y-80820691D01*
X119837331Y-80770396D01*
X119952546Y-80684146D01*
X120038796Y-80568931D01*
X120089091Y-80434083D01*
X120095500Y-80374473D01*
X120095499Y-79526455D01*
X125671902Y-79526455D01*
X125671902Y-79723544D01*
X125710349Y-79916827D01*
X125710352Y-79916839D01*
X125785766Y-80098907D01*
X125785773Y-80098920D01*
X125895261Y-80262779D01*
X125895264Y-80262783D01*
X126034616Y-80402135D01*
X126034620Y-80402138D01*
X126198479Y-80511626D01*
X126198492Y-80511633D01*
X126364848Y-80580539D01*
X126380565Y-80587049D01*
X126484857Y-80607794D01*
X126573855Y-80625497D01*
X126573858Y-80625498D01*
X126573860Y-80625498D01*
X126770942Y-80625498D01*
X126770943Y-80625497D01*
X126964235Y-80587049D01*
X127146314Y-80511630D01*
X127310180Y-80402138D01*
X127449538Y-80262780D01*
X127559030Y-80098914D01*
X127634449Y-79916835D01*
X127672898Y-79723540D01*
X127672898Y-79526460D01*
X127672898Y-79526457D01*
X127672897Y-79526455D01*
X127671686Y-79520368D01*
X127634449Y-79333165D01*
X127618168Y-79293858D01*
X127559033Y-79151092D01*
X127559026Y-79151079D01*
X127449538Y-78987220D01*
X127449535Y-78987216D01*
X127310183Y-78847864D01*
X127310179Y-78847861D01*
X127146320Y-78738373D01*
X127146307Y-78738366D01*
X126964239Y-78662952D01*
X126964227Y-78662949D01*
X126770943Y-78624502D01*
X126770940Y-78624502D01*
X126573860Y-78624502D01*
X126573857Y-78624502D01*
X126380572Y-78662949D01*
X126380560Y-78662952D01*
X126198492Y-78738366D01*
X126198479Y-78738373D01*
X126034620Y-78847861D01*
X126034616Y-78847864D01*
X125895264Y-78987216D01*
X125895261Y-78987220D01*
X125785773Y-79151079D01*
X125785766Y-79151092D01*
X125710352Y-79333160D01*
X125710349Y-79333172D01*
X125671902Y-79526455D01*
X120095499Y-79526455D01*
X120095499Y-79472796D01*
X120095499Y-78578729D01*
X120095498Y-78578723D01*
X120095497Y-78578716D01*
X120089091Y-78519117D01*
X120040671Y-78389297D01*
X120038797Y-78384271D01*
X120038793Y-78384264D01*
X119952547Y-78269055D01*
X119952544Y-78269052D01*
X119837335Y-78182806D01*
X119837328Y-78182802D01*
X119702482Y-78132508D01*
X119702483Y-78132508D01*
X119642883Y-78126101D01*
X119642881Y-78126100D01*
X119642873Y-78126100D01*
X119642864Y-78126100D01*
X117847129Y-78126100D01*
X117847123Y-78126101D01*
X117787516Y-78132508D01*
X117652671Y-78182802D01*
X117652664Y-78182806D01*
X117537455Y-78269052D01*
X117537452Y-78269055D01*
X117451206Y-78384264D01*
X117451202Y-78384271D01*
X117400908Y-78519117D01*
X117394501Y-78578716D01*
X117394501Y-78578723D01*
X117394500Y-78578735D01*
X113024357Y-78578735D01*
X113053594Y-78534979D01*
X113061059Y-78516958D01*
X113105422Y-78409854D01*
X113113937Y-78389297D01*
X113144700Y-78234642D01*
X113144700Y-78076958D01*
X113144700Y-78076955D01*
X113144699Y-78076953D01*
X113132229Y-78014257D01*
X113128628Y-77996153D01*
X127249500Y-77996153D01*
X127249500Y-78153846D01*
X127280261Y-78308489D01*
X127280264Y-78308501D01*
X127340602Y-78454172D01*
X127340609Y-78454185D01*
X127428210Y-78585288D01*
X127428213Y-78585292D01*
X127539707Y-78696786D01*
X127539711Y-78696789D01*
X127670814Y-78784390D01*
X127670827Y-78784397D01*
X127816498Y-78844735D01*
X127816503Y-78844737D01*
X127919347Y-78865194D01*
X127971153Y-78875499D01*
X127971156Y-78875500D01*
X127971158Y-78875500D01*
X128128844Y-78875500D01*
X128128845Y-78875499D01*
X128283497Y-78844737D01*
X128429179Y-78784394D01*
X128560289Y-78696789D01*
X128671789Y-78585289D01*
X128759394Y-78454179D01*
X128819737Y-78308497D01*
X128850500Y-78153842D01*
X128850500Y-77996158D01*
X128850500Y-77996155D01*
X128850499Y-77996153D01*
X128819737Y-77841503D01*
X128792862Y-77776621D01*
X128759397Y-77695827D01*
X128759390Y-77695814D01*
X128671789Y-77564711D01*
X128671786Y-77564707D01*
X128560292Y-77453213D01*
X128560288Y-77453210D01*
X128429185Y-77365609D01*
X128429172Y-77365602D01*
X128283501Y-77305264D01*
X128283489Y-77305261D01*
X128128845Y-77274500D01*
X128128842Y-77274500D01*
X127971158Y-77274500D01*
X127971155Y-77274500D01*
X127816510Y-77305261D01*
X127816498Y-77305264D01*
X127670827Y-77365602D01*
X127670814Y-77365609D01*
X127539711Y-77453210D01*
X127539707Y-77453213D01*
X127428213Y-77564707D01*
X127428210Y-77564711D01*
X127340609Y-77695814D01*
X127340602Y-77695827D01*
X127280264Y-77841498D01*
X127280261Y-77841510D01*
X127249500Y-77996153D01*
X113128628Y-77996153D01*
X113113938Y-77922308D01*
X113113937Y-77922307D01*
X113113937Y-77922303D01*
X113080467Y-77841498D01*
X113053597Y-77776627D01*
X113053590Y-77776614D01*
X112965989Y-77645511D01*
X112965986Y-77645507D01*
X112854492Y-77534013D01*
X112854488Y-77534010D01*
X112723385Y-77446409D01*
X112723372Y-77446402D01*
X112577701Y-77386064D01*
X112577689Y-77386061D01*
X112423045Y-77355300D01*
X112423042Y-77355300D01*
X112265358Y-77355300D01*
X112265355Y-77355300D01*
X112110710Y-77386061D01*
X112110698Y-77386064D01*
X111965027Y-77446402D01*
X111965014Y-77446409D01*
X111833911Y-77534010D01*
X111833907Y-77534013D01*
X111722413Y-77645507D01*
X111722410Y-77645511D01*
X111634809Y-77776614D01*
X111634802Y-77776627D01*
X111574464Y-77922298D01*
X111574461Y-77922310D01*
X111543700Y-78076953D01*
X93773595Y-78076953D01*
X93767780Y-76222753D01*
X112635900Y-76222753D01*
X112635900Y-76380446D01*
X112666661Y-76535089D01*
X112666664Y-76535101D01*
X112727002Y-76680772D01*
X112727009Y-76680785D01*
X112814610Y-76811888D01*
X112814613Y-76811892D01*
X112926107Y-76923386D01*
X112926111Y-76923389D01*
X113057214Y-77010990D01*
X113057227Y-77010997D01*
X113180484Y-77062051D01*
X113202903Y-77071337D01*
X113349514Y-77100500D01*
X113357553Y-77102099D01*
X113357556Y-77102100D01*
X113357558Y-77102100D01*
X113515244Y-77102100D01*
X113515245Y-77102099D01*
X113669897Y-77071337D01*
X113815579Y-77010994D01*
X113946689Y-76923389D01*
X114058189Y-76811889D01*
X114145794Y-76680779D01*
X114206137Y-76535097D01*
X114236900Y-76380442D01*
X114236900Y-76222758D01*
X114236900Y-76222755D01*
X114236899Y-76222753D01*
X114232083Y-76198543D01*
X124224499Y-76198543D01*
X124262947Y-76391829D01*
X124262950Y-76391839D01*
X124338364Y-76573907D01*
X124338371Y-76573920D01*
X124447860Y-76737781D01*
X124447863Y-76737785D01*
X124587214Y-76877136D01*
X124587218Y-76877139D01*
X124751079Y-76986628D01*
X124751092Y-76986635D01*
X124933160Y-77062049D01*
X124933165Y-77062051D01*
X124933169Y-77062051D01*
X124933170Y-77062052D01*
X125126456Y-77100500D01*
X125126459Y-77100500D01*
X125323543Y-77100500D01*
X125453582Y-77074632D01*
X125516835Y-77062051D01*
X125698914Y-76986632D01*
X125862782Y-76877139D01*
X126002139Y-76737782D01*
X126111632Y-76573914D01*
X126187051Y-76391835D01*
X126220683Y-76222758D01*
X126225500Y-76198543D01*
X126225500Y-76001456D01*
X126187052Y-75808170D01*
X126187051Y-75808169D01*
X126187051Y-75808165D01*
X126180068Y-75791307D01*
X126111635Y-75626092D01*
X126111628Y-75626079D01*
X126002139Y-75462218D01*
X126002136Y-75462214D01*
X125862785Y-75322863D01*
X125862781Y-75322860D01*
X125698920Y-75213371D01*
X125698907Y-75213364D01*
X125516839Y-75137950D01*
X125516829Y-75137947D01*
X125323543Y-75099500D01*
X125323541Y-75099500D01*
X125126459Y-75099500D01*
X125126457Y-75099500D01*
X124933170Y-75137947D01*
X124933160Y-75137950D01*
X124751092Y-75213364D01*
X124751079Y-75213371D01*
X124587218Y-75322860D01*
X124587214Y-75322863D01*
X124447863Y-75462214D01*
X124447860Y-75462218D01*
X124338371Y-75626079D01*
X124338364Y-75626092D01*
X124262950Y-75808160D01*
X124262947Y-75808170D01*
X124224500Y-76001456D01*
X124224500Y-76001459D01*
X124224500Y-76198541D01*
X124224500Y-76198543D01*
X124224499Y-76198543D01*
X114232083Y-76198543D01*
X114206138Y-76068110D01*
X114206137Y-76068103D01*
X114167103Y-75973867D01*
X114145797Y-75922427D01*
X114145790Y-75922414D01*
X114058189Y-75791311D01*
X114058186Y-75791307D01*
X113946692Y-75679813D01*
X113946688Y-75679810D01*
X113815585Y-75592209D01*
X113815572Y-75592202D01*
X113669901Y-75531864D01*
X113669889Y-75531861D01*
X113515245Y-75501100D01*
X113515242Y-75501100D01*
X113357558Y-75501100D01*
X113357555Y-75501100D01*
X113202910Y-75531861D01*
X113202898Y-75531864D01*
X113057227Y-75592202D01*
X113057214Y-75592209D01*
X112926111Y-75679810D01*
X112926107Y-75679813D01*
X112814613Y-75791307D01*
X112814610Y-75791311D01*
X112727009Y-75922414D01*
X112727002Y-75922427D01*
X112666664Y-76068098D01*
X112666661Y-76068110D01*
X112635900Y-76222753D01*
X93767780Y-76222753D01*
X93722689Y-61844098D01*
X93713403Y-58882908D01*
X94404900Y-58882908D01*
X94404900Y-72328891D01*
X94439008Y-72456187D01*
X94471954Y-72513250D01*
X94504900Y-72570314D01*
X94598086Y-72663500D01*
X94712214Y-72729392D01*
X94839508Y-72763500D01*
X94839510Y-72763500D01*
X118929890Y-72763500D01*
X118929892Y-72763500D01*
X119057186Y-72729392D01*
X119171314Y-72663500D01*
X119264500Y-72570314D01*
X119330392Y-72456186D01*
X119364500Y-72328892D01*
X119364500Y-72209553D01*
X120494100Y-72209553D01*
X120494100Y-72367246D01*
X120524861Y-72521889D01*
X120524864Y-72521901D01*
X120585202Y-72667572D01*
X120585209Y-72667585D01*
X120672810Y-72798688D01*
X120672813Y-72798692D01*
X120784307Y-72910186D01*
X120784311Y-72910189D01*
X120915414Y-72997790D01*
X120915427Y-72997797D01*
X121038054Y-73048590D01*
X121061103Y-73058137D01*
X121215753Y-73088899D01*
X121215756Y-73088900D01*
X121215758Y-73088900D01*
X121373444Y-73088900D01*
X121373445Y-73088899D01*
X121528097Y-73058137D01*
X121673779Y-72997794D01*
X121804889Y-72910189D01*
X121916389Y-72798689D01*
X122003994Y-72667579D01*
X122064337Y-72521897D01*
X122095100Y-72367242D01*
X122095100Y-72260353D01*
X126859900Y-72260353D01*
X126859900Y-72418046D01*
X126890661Y-72572689D01*
X126890664Y-72572701D01*
X126951002Y-72718372D01*
X126951009Y-72718385D01*
X127038610Y-72849488D01*
X127038613Y-72849492D01*
X127150107Y-72960986D01*
X127150111Y-72960989D01*
X127281214Y-73048590D01*
X127281227Y-73048597D01*
X127378529Y-73088900D01*
X127426903Y-73108937D01*
X127581553Y-73139699D01*
X127581556Y-73139700D01*
X127581558Y-73139700D01*
X127739244Y-73139700D01*
X127739245Y-73139699D01*
X127893897Y-73108937D01*
X128039579Y-73048594D01*
X128170689Y-72960989D01*
X128282189Y-72849489D01*
X128369794Y-72718379D01*
X128430137Y-72572697D01*
X128460900Y-72418042D01*
X128460900Y-72260358D01*
X128460900Y-72260355D01*
X128460899Y-72260353D01*
X128450795Y-72209558D01*
X128430137Y-72105703D01*
X128409093Y-72054898D01*
X128369797Y-71960027D01*
X128369790Y-71960014D01*
X128282189Y-71828911D01*
X128282186Y-71828907D01*
X128170692Y-71717413D01*
X128170688Y-71717410D01*
X128039585Y-71629809D01*
X128039572Y-71629802D01*
X127893901Y-71569464D01*
X127893889Y-71569461D01*
X127739245Y-71538700D01*
X127739242Y-71538700D01*
X127581558Y-71538700D01*
X127581555Y-71538700D01*
X127426910Y-71569461D01*
X127426898Y-71569464D01*
X127281227Y-71629802D01*
X127281214Y-71629809D01*
X127150111Y-71717410D01*
X127150107Y-71717413D01*
X127038613Y-71828907D01*
X127038610Y-71828911D01*
X126951009Y-71960014D01*
X126951002Y-71960027D01*
X126890664Y-72105698D01*
X126890661Y-72105710D01*
X126859900Y-72260353D01*
X122095100Y-72260353D01*
X122095100Y-72209558D01*
X122095100Y-72209555D01*
X122095099Y-72209553D01*
X122064338Y-72054910D01*
X122064337Y-72054903D01*
X122064335Y-72054898D01*
X122003997Y-71909227D01*
X122003990Y-71909214D01*
X121916389Y-71778111D01*
X121916386Y-71778107D01*
X121804892Y-71666613D01*
X121804888Y-71666610D01*
X121673785Y-71579009D01*
X121673772Y-71579002D01*
X121528101Y-71518664D01*
X121528089Y-71518661D01*
X121373445Y-71487900D01*
X121373442Y-71487900D01*
X121215758Y-71487900D01*
X121215755Y-71487900D01*
X121061110Y-71518661D01*
X121061098Y-71518664D01*
X120915427Y-71579002D01*
X120915414Y-71579009D01*
X120784311Y-71666610D01*
X120784307Y-71666613D01*
X120672813Y-71778107D01*
X120672810Y-71778111D01*
X120585209Y-71909214D01*
X120585202Y-71909227D01*
X120524864Y-72054898D01*
X120524861Y-72054910D01*
X120494100Y-72209553D01*
X119364500Y-72209553D01*
X119364500Y-68371153D01*
X124149500Y-68371153D01*
X124149500Y-68528846D01*
X124180261Y-68683489D01*
X124180264Y-68683501D01*
X124240602Y-68829172D01*
X124240609Y-68829185D01*
X124328210Y-68960288D01*
X124328213Y-68960292D01*
X124439707Y-69071786D01*
X124439711Y-69071789D01*
X124570814Y-69159390D01*
X124570827Y-69159397D01*
X124680037Y-69204633D01*
X124734441Y-69248474D01*
X124756506Y-69314768D01*
X124739227Y-69382467D01*
X124688090Y-69430078D01*
X124680038Y-69433755D01*
X124633323Y-69453104D01*
X124633314Y-69453109D01*
X124502211Y-69540710D01*
X124502207Y-69540713D01*
X124390713Y-69652207D01*
X124390710Y-69652211D01*
X124303109Y-69783314D01*
X124303102Y-69783327D01*
X124242764Y-69928998D01*
X124242761Y-69929010D01*
X124212000Y-70083653D01*
X124212000Y-70241346D01*
X124242761Y-70395989D01*
X124242764Y-70396001D01*
X124303102Y-70541672D01*
X124303109Y-70541685D01*
X124390710Y-70672788D01*
X124390713Y-70672792D01*
X124502207Y-70784286D01*
X124502211Y-70784289D01*
X124633314Y-70871890D01*
X124633327Y-70871897D01*
X124778998Y-70932235D01*
X124779003Y-70932237D01*
X124933653Y-70962999D01*
X124933656Y-70963000D01*
X124933658Y-70963000D01*
X125091344Y-70963000D01*
X125091345Y-70962999D01*
X125245997Y-70932237D01*
X125391679Y-70871894D01*
X125522789Y-70784289D01*
X125634289Y-70672789D01*
X125721894Y-70541679D01*
X125782237Y-70395997D01*
X125813000Y-70241342D01*
X125813000Y-70083658D01*
X125813000Y-70083655D01*
X125812999Y-70083653D01*
X125782238Y-69929010D01*
X125782237Y-69929003D01*
X125782235Y-69928998D01*
X125721897Y-69783327D01*
X125721890Y-69783314D01*
X125634289Y-69652211D01*
X125634286Y-69652207D01*
X125522792Y-69540713D01*
X125522788Y-69540710D01*
X125391685Y-69453109D01*
X125391675Y-69453104D01*
X125282461Y-69407866D01*
X125228058Y-69364025D01*
X125205993Y-69297731D01*
X125223272Y-69230031D01*
X125274410Y-69182421D01*
X125282444Y-69178752D01*
X125329179Y-69159394D01*
X125460289Y-69071789D01*
X125571789Y-68960289D01*
X125659394Y-68829179D01*
X125719737Y-68683497D01*
X125750500Y-68528842D01*
X125750500Y-68371158D01*
X125750500Y-68371155D01*
X125750499Y-68371153D01*
X125719738Y-68216510D01*
X125719737Y-68216503D01*
X125719735Y-68216498D01*
X125659397Y-68070827D01*
X125659390Y-68070814D01*
X125571789Y-67939711D01*
X125571786Y-67939707D01*
X125460292Y-67828213D01*
X125460288Y-67828210D01*
X125329185Y-67740609D01*
X125329172Y-67740602D01*
X125183501Y-67680264D01*
X125183489Y-67680261D01*
X125028845Y-67649500D01*
X125028842Y-67649500D01*
X124871158Y-67649500D01*
X124871155Y-67649500D01*
X124716510Y-67680261D01*
X124716498Y-67680264D01*
X124570827Y-67740602D01*
X124570814Y-67740609D01*
X124439711Y-67828210D01*
X124439707Y-67828213D01*
X124328213Y-67939707D01*
X124328210Y-67939711D01*
X124240609Y-68070814D01*
X124240602Y-68070827D01*
X124180264Y-68216498D01*
X124180261Y-68216510D01*
X124149500Y-68371153D01*
X119364500Y-68371153D01*
X119364500Y-64564153D01*
X121983100Y-64564153D01*
X121983100Y-64721846D01*
X122013861Y-64876489D01*
X122013864Y-64876501D01*
X122074202Y-65022172D01*
X122074209Y-65022185D01*
X122161810Y-65153288D01*
X122161813Y-65153292D01*
X122273307Y-65264786D01*
X122273311Y-65264789D01*
X122404414Y-65352390D01*
X122404427Y-65352397D01*
X122550098Y-65412735D01*
X122550103Y-65412737D01*
X122704753Y-65443499D01*
X122704756Y-65443500D01*
X122704758Y-65443500D01*
X122862444Y-65443500D01*
X122862445Y-65443499D01*
X123017097Y-65412737D01*
X123162779Y-65352394D01*
X123293889Y-65264789D01*
X123405389Y-65153289D01*
X123492994Y-65022179D01*
X123553337Y-64876497D01*
X123584100Y-64721842D01*
X123584100Y-64564158D01*
X123584100Y-64564155D01*
X123584099Y-64564153D01*
X123553339Y-64409512D01*
X123553338Y-64409509D01*
X123553337Y-64409503D01*
X123543748Y-64386353D01*
X126859900Y-64386353D01*
X126859900Y-64544046D01*
X126890661Y-64698689D01*
X126890664Y-64698701D01*
X126951002Y-64844372D01*
X126951009Y-64844385D01*
X127038610Y-64975488D01*
X127038613Y-64975492D01*
X127150107Y-65086986D01*
X127150111Y-65086989D01*
X127281214Y-65174590D01*
X127281227Y-65174597D01*
X127426898Y-65234935D01*
X127426903Y-65234937D01*
X127576963Y-65264786D01*
X127581553Y-65265699D01*
X127581556Y-65265700D01*
X127581558Y-65265700D01*
X127739244Y-65265700D01*
X127739245Y-65265699D01*
X127893897Y-65234937D01*
X128039579Y-65174594D01*
X128170689Y-65086989D01*
X128282189Y-64975489D01*
X128369794Y-64844379D01*
X128430137Y-64698697D01*
X128460900Y-64544042D01*
X128460900Y-64386358D01*
X128460900Y-64386355D01*
X128460899Y-64386353D01*
X128436527Y-64263827D01*
X128430137Y-64231703D01*
X128430135Y-64231698D01*
X128369797Y-64086027D01*
X128369790Y-64086014D01*
X128282189Y-63954911D01*
X128282186Y-63954907D01*
X128170692Y-63843413D01*
X128170688Y-63843410D01*
X128039585Y-63755809D01*
X128039572Y-63755802D01*
X127893901Y-63695464D01*
X127893889Y-63695461D01*
X127739245Y-63664700D01*
X127739242Y-63664700D01*
X127581558Y-63664700D01*
X127581555Y-63664700D01*
X127426910Y-63695461D01*
X127426898Y-63695464D01*
X127281227Y-63755802D01*
X127281214Y-63755809D01*
X127150111Y-63843410D01*
X127150107Y-63843413D01*
X127038613Y-63954907D01*
X127038610Y-63954911D01*
X126951009Y-64086014D01*
X126951002Y-64086027D01*
X126890664Y-64231698D01*
X126890661Y-64231710D01*
X126859900Y-64386353D01*
X123543748Y-64386353D01*
X123492997Y-64263827D01*
X123492990Y-64263814D01*
X123405389Y-64132711D01*
X123405386Y-64132707D01*
X123293892Y-64021213D01*
X123293888Y-64021210D01*
X123162785Y-63933609D01*
X123162772Y-63933602D01*
X123017101Y-63873264D01*
X123017089Y-63873261D01*
X122862445Y-63842500D01*
X122862442Y-63842500D01*
X122704758Y-63842500D01*
X122704755Y-63842500D01*
X122550110Y-63873261D01*
X122550098Y-63873264D01*
X122404427Y-63933602D01*
X122404414Y-63933609D01*
X122273311Y-64021210D01*
X122273307Y-64021213D01*
X122161813Y-64132707D01*
X122161810Y-64132711D01*
X122074209Y-64263814D01*
X122074202Y-64263827D01*
X122013864Y-64409498D01*
X122013861Y-64409510D01*
X121983100Y-64564153D01*
X119364500Y-64564153D01*
X119364500Y-61998753D01*
X126707500Y-61998753D01*
X126707500Y-62156446D01*
X126738261Y-62311089D01*
X126738264Y-62311101D01*
X126798602Y-62456772D01*
X126798609Y-62456785D01*
X126886210Y-62587888D01*
X126886213Y-62587892D01*
X126997707Y-62699386D01*
X126997711Y-62699389D01*
X127128814Y-62786990D01*
X127128827Y-62786997D01*
X127274498Y-62847335D01*
X127274503Y-62847337D01*
X127429153Y-62878099D01*
X127429156Y-62878100D01*
X127429158Y-62878100D01*
X127586844Y-62878100D01*
X127586845Y-62878099D01*
X127741497Y-62847337D01*
X127887179Y-62786994D01*
X128018289Y-62699389D01*
X128129789Y-62587889D01*
X128217394Y-62456779D01*
X128277737Y-62311097D01*
X128308500Y-62156442D01*
X128308500Y-61998758D01*
X128308500Y-61998755D01*
X128308499Y-61998753D01*
X128277738Y-61844110D01*
X128277737Y-61844103D01*
X128277735Y-61844098D01*
X128217397Y-61698427D01*
X128217390Y-61698414D01*
X128129789Y-61567311D01*
X128129786Y-61567307D01*
X128018292Y-61455813D01*
X128018288Y-61455810D01*
X127887185Y-61368209D01*
X127887172Y-61368202D01*
X127741501Y-61307864D01*
X127741489Y-61307861D01*
X127586845Y-61277100D01*
X127586842Y-61277100D01*
X127429158Y-61277100D01*
X127429155Y-61277100D01*
X127274510Y-61307861D01*
X127274498Y-61307864D01*
X127128827Y-61368202D01*
X127128814Y-61368209D01*
X126997711Y-61455810D01*
X126997707Y-61455813D01*
X126886213Y-61567307D01*
X126886210Y-61567311D01*
X126798609Y-61698414D01*
X126798602Y-61698427D01*
X126738264Y-61844098D01*
X126738261Y-61844110D01*
X126707500Y-61998753D01*
X119364500Y-61998753D01*
X119364500Y-59171153D01*
X124699500Y-59171153D01*
X124699500Y-59328846D01*
X124730261Y-59483489D01*
X124730264Y-59483501D01*
X124790602Y-59629172D01*
X124790609Y-59629185D01*
X124878210Y-59760288D01*
X124878213Y-59760292D01*
X124989707Y-59871786D01*
X124989711Y-59871789D01*
X125120814Y-59959390D01*
X125120827Y-59959397D01*
X125266498Y-60019735D01*
X125266503Y-60019737D01*
X125421153Y-60050499D01*
X125421156Y-60050500D01*
X125421158Y-60050500D01*
X125578844Y-60050500D01*
X125578845Y-60050499D01*
X125733497Y-60019737D01*
X125879179Y-59959394D01*
X126010289Y-59871789D01*
X126121789Y-59760289D01*
X126209394Y-59629179D01*
X126269737Y-59483497D01*
X126300500Y-59328842D01*
X126300500Y-59171158D01*
X126300500Y-59171155D01*
X126300499Y-59171153D01*
X126269738Y-59016510D01*
X126269737Y-59016503D01*
X126269735Y-59016498D01*
X126209397Y-58870827D01*
X126209390Y-58870814D01*
X126121789Y-58739711D01*
X126121786Y-58739707D01*
X126010292Y-58628213D01*
X126010288Y-58628210D01*
X125879185Y-58540609D01*
X125879172Y-58540602D01*
X125733501Y-58480264D01*
X125733489Y-58480261D01*
X125578845Y-58449500D01*
X125578842Y-58449500D01*
X125421158Y-58449500D01*
X125421155Y-58449500D01*
X125266510Y-58480261D01*
X125266498Y-58480264D01*
X125120827Y-58540602D01*
X125120814Y-58540609D01*
X124989711Y-58628210D01*
X124989707Y-58628213D01*
X124878213Y-58739707D01*
X124878210Y-58739711D01*
X124790609Y-58870814D01*
X124790602Y-58870827D01*
X124730264Y-59016498D01*
X124730261Y-59016510D01*
X124699500Y-59171153D01*
X119364500Y-59171153D01*
X119364500Y-58882908D01*
X119330392Y-58755614D01*
X119264500Y-58641486D01*
X119171314Y-58548300D01*
X119114250Y-58515354D01*
X119057187Y-58482408D01*
X118993539Y-58465354D01*
X118929892Y-58448300D01*
X94971292Y-58448300D01*
X94839508Y-58448300D01*
X94712212Y-58482408D01*
X94598086Y-58548300D01*
X94598083Y-58548302D01*
X94504902Y-58641483D01*
X94504900Y-58641486D01*
X94439008Y-58755612D01*
X94404900Y-58882908D01*
X93713403Y-58882908D01*
X93713379Y-58875170D01*
X93707243Y-56918343D01*
X94224099Y-56918343D01*
X94262547Y-57111629D01*
X94262550Y-57111639D01*
X94337964Y-57293707D01*
X94337971Y-57293720D01*
X94447460Y-57457581D01*
X94447463Y-57457585D01*
X94586814Y-57596936D01*
X94586818Y-57596939D01*
X94750679Y-57706428D01*
X94750692Y-57706435D01*
X94932760Y-57781849D01*
X94932765Y-57781851D01*
X94932769Y-57781851D01*
X94932770Y-57781852D01*
X95126056Y-57820300D01*
X95126059Y-57820300D01*
X95323143Y-57820300D01*
X95453182Y-57794432D01*
X95516435Y-57781851D01*
X95698514Y-57706432D01*
X95862382Y-57596939D01*
X96001739Y-57457582D01*
X96111232Y-57293714D01*
X96186651Y-57111635D01*
X96193218Y-57078620D01*
X96218514Y-56951455D01*
X125649502Y-56951455D01*
X125649502Y-57148544D01*
X125687949Y-57341827D01*
X125687952Y-57341839D01*
X125763366Y-57523907D01*
X125763373Y-57523920D01*
X125872861Y-57687779D01*
X125872864Y-57687783D01*
X126012216Y-57827135D01*
X126012220Y-57827138D01*
X126176079Y-57936626D01*
X126176092Y-57936633D01*
X126358160Y-58012047D01*
X126358165Y-58012049D01*
X126551455Y-58050497D01*
X126551458Y-58050498D01*
X126551460Y-58050498D01*
X126748542Y-58050498D01*
X126748543Y-58050497D01*
X126941835Y-58012049D01*
X127123914Y-57936630D01*
X127287780Y-57827138D01*
X127427138Y-57687780D01*
X127536630Y-57523914D01*
X127612049Y-57341835D01*
X127650498Y-57148540D01*
X127650498Y-56951460D01*
X127650498Y-56951457D01*
X127650497Y-56951455D01*
X127612050Y-56758172D01*
X127612049Y-56758165D01*
X127567453Y-56650499D01*
X127536633Y-56576092D01*
X127536626Y-56576079D01*
X127427138Y-56412220D01*
X127427135Y-56412216D01*
X127287783Y-56272864D01*
X127287779Y-56272861D01*
X127123920Y-56163373D01*
X127123907Y-56163366D01*
X126941839Y-56087952D01*
X126941827Y-56087949D01*
X126748543Y-56049502D01*
X126748540Y-56049502D01*
X126551460Y-56049502D01*
X126551457Y-56049502D01*
X126358172Y-56087949D01*
X126358160Y-56087952D01*
X126176092Y-56163366D01*
X126176079Y-56163373D01*
X126012220Y-56272861D01*
X126012216Y-56272864D01*
X125872864Y-56412216D01*
X125872861Y-56412220D01*
X125763373Y-56576079D01*
X125763366Y-56576092D01*
X125687952Y-56758160D01*
X125687949Y-56758172D01*
X125649502Y-56951455D01*
X96218514Y-56951455D01*
X96224537Y-56921176D01*
X96224537Y-56921175D01*
X96225099Y-56918348D01*
X96225100Y-56918343D01*
X96225100Y-56721256D01*
X96186652Y-56527970D01*
X96186651Y-56527969D01*
X96186651Y-56527965D01*
X96186649Y-56527960D01*
X96111235Y-56345892D01*
X96111228Y-56345879D01*
X96001739Y-56182018D01*
X96001736Y-56182014D01*
X95862385Y-56042663D01*
X95862381Y-56042660D01*
X95698520Y-55933171D01*
X95698507Y-55933164D01*
X95569254Y-55879627D01*
X95516435Y-55857749D01*
X95516429Y-55857747D01*
X95323143Y-55819300D01*
X95323141Y-55819300D01*
X95126059Y-55819300D01*
X95126057Y-55819300D01*
X94932770Y-55857747D01*
X94932760Y-55857750D01*
X94750692Y-55933164D01*
X94750679Y-55933171D01*
X94586818Y-56042660D01*
X94586814Y-56042663D01*
X94447463Y-56182014D01*
X94447460Y-56182018D01*
X94337971Y-56345879D01*
X94337964Y-56345892D01*
X94262550Y-56527960D01*
X94262547Y-56527970D01*
X94224100Y-56721256D01*
X94224100Y-56721259D01*
X94224100Y-56918341D01*
X94224100Y-56918343D01*
X94224099Y-56918343D01*
X93707243Y-56918343D01*
X93706607Y-56715556D01*
X93703645Y-55771153D01*
X120999500Y-55771153D01*
X120999500Y-55928846D01*
X121030261Y-56083489D01*
X121030264Y-56083501D01*
X121090602Y-56229172D01*
X121090609Y-56229185D01*
X121178210Y-56360288D01*
X121178213Y-56360292D01*
X121289707Y-56471786D01*
X121289711Y-56471789D01*
X121420814Y-56559390D01*
X121420827Y-56559397D01*
X121566498Y-56619735D01*
X121566503Y-56619737D01*
X121721153Y-56650499D01*
X121721156Y-56650500D01*
X121721158Y-56650500D01*
X121878844Y-56650500D01*
X121878845Y-56650499D01*
X122033497Y-56619737D01*
X122179179Y-56559394D01*
X122310289Y-56471789D01*
X122421789Y-56360289D01*
X122509394Y-56229179D01*
X122569737Y-56083497D01*
X122600500Y-55928842D01*
X122600500Y-55771158D01*
X122600500Y-55771155D01*
X122600499Y-55771153D01*
X122569738Y-55616510D01*
X122569737Y-55616503D01*
X122569735Y-55616498D01*
X122509397Y-55470827D01*
X122509390Y-55470814D01*
X122421789Y-55339711D01*
X122421786Y-55339707D01*
X122310292Y-55228213D01*
X122310288Y-55228210D01*
X122179185Y-55140609D01*
X122179172Y-55140602D01*
X122033501Y-55080264D01*
X122033489Y-55080261D01*
X121878845Y-55049500D01*
X121878842Y-55049500D01*
X121721158Y-55049500D01*
X121721155Y-55049500D01*
X121566510Y-55080261D01*
X121566498Y-55080264D01*
X121420827Y-55140602D01*
X121420814Y-55140609D01*
X121289711Y-55228210D01*
X121289707Y-55228213D01*
X121178213Y-55339707D01*
X121178210Y-55339711D01*
X121090609Y-55470814D01*
X121090602Y-55470827D01*
X121030264Y-55616498D01*
X121030261Y-55616510D01*
X120999500Y-55771153D01*
X93703645Y-55771153D01*
X93700600Y-54800400D01*
X91701552Y-54785790D01*
X91634658Y-54765616D01*
X91599356Y-54730684D01*
X91592988Y-54721153D01*
X117774500Y-54721153D01*
X117774500Y-54878846D01*
X117805261Y-55033489D01*
X117805264Y-55033501D01*
X117865602Y-55179172D01*
X117865609Y-55179185D01*
X117953210Y-55310288D01*
X117953213Y-55310292D01*
X118064707Y-55421786D01*
X118064711Y-55421789D01*
X118195814Y-55509390D01*
X118195827Y-55509397D01*
X118327843Y-55564079D01*
X118341503Y-55569737D01*
X118496153Y-55600499D01*
X118496156Y-55600500D01*
X118496158Y-55600500D01*
X118653844Y-55600500D01*
X118653845Y-55600499D01*
X118808497Y-55569737D01*
X118954179Y-55509394D01*
X119085289Y-55421789D01*
X119196789Y-55310289D01*
X119284394Y-55179179D01*
X119344737Y-55033497D01*
X119375500Y-54878842D01*
X119375500Y-54721158D01*
X119375500Y-54721155D01*
X119375499Y-54721153D01*
X119358071Y-54633537D01*
X119344737Y-54566503D01*
X119344734Y-54566495D01*
X119284397Y-54420827D01*
X119284390Y-54420814D01*
X119196789Y-54289711D01*
X119196786Y-54289707D01*
X119085292Y-54178213D01*
X119085288Y-54178210D01*
X118954185Y-54090609D01*
X118954172Y-54090602D01*
X118808501Y-54030264D01*
X118808489Y-54030261D01*
X118653845Y-53999500D01*
X118653842Y-53999500D01*
X118496158Y-53999500D01*
X118496155Y-53999500D01*
X118341510Y-54030261D01*
X118341498Y-54030264D01*
X118195827Y-54090602D01*
X118195814Y-54090609D01*
X118064711Y-54178210D01*
X118064707Y-54178213D01*
X117953213Y-54289707D01*
X117953210Y-54289711D01*
X117865609Y-54420814D01*
X117865602Y-54420827D01*
X117805266Y-54566495D01*
X117805261Y-54566510D01*
X117774500Y-54721153D01*
X91592988Y-54721153D01*
X91561889Y-54674610D01*
X91450392Y-54563113D01*
X91450388Y-54563110D01*
X91319285Y-54475509D01*
X91319272Y-54475502D01*
X91173601Y-54415164D01*
X91173589Y-54415161D01*
X91018945Y-54384400D01*
X91018942Y-54384400D01*
X90861258Y-54384400D01*
X90861255Y-54384400D01*
X90706610Y-54415161D01*
X90706598Y-54415164D01*
X90560927Y-54475502D01*
X90560914Y-54475509D01*
X90429802Y-54563116D01*
X90427658Y-54564876D01*
X90426316Y-54565445D01*
X90424746Y-54566495D01*
X90424546Y-54566197D01*
X90363347Y-54592185D01*
X90294480Y-54580389D01*
X90242923Y-54533234D01*
X90225000Y-54469018D01*
X90225000Y-53784953D01*
X96608500Y-53784953D01*
X96608500Y-53942646D01*
X96639261Y-54097289D01*
X96639264Y-54097301D01*
X96699602Y-54242972D01*
X96699609Y-54242985D01*
X96787210Y-54374088D01*
X96787213Y-54374092D01*
X96898707Y-54485586D01*
X96898711Y-54485589D01*
X97029814Y-54573190D01*
X97029827Y-54573197D01*
X97175498Y-54633535D01*
X97175503Y-54633537D01*
X97330153Y-54664299D01*
X97330156Y-54664300D01*
X97330158Y-54664300D01*
X97487844Y-54664300D01*
X97487845Y-54664299D01*
X97642497Y-54633537D01*
X97676947Y-54619267D01*
X97722245Y-54600505D01*
X97788172Y-54573197D01*
X97788172Y-54573196D01*
X97788179Y-54573194D01*
X97919289Y-54485589D01*
X98030789Y-54374089D01*
X98118394Y-54242979D01*
X98178737Y-54097297D01*
X98209500Y-53942642D01*
X98209500Y-53784958D01*
X98209500Y-53784955D01*
X98209499Y-53784953D01*
X98178738Y-53630310D01*
X98178737Y-53630303D01*
X98178735Y-53630298D01*
X98118397Y-53484627D01*
X98118390Y-53484614D01*
X98030789Y-53353511D01*
X98030786Y-53353507D01*
X97919292Y-53242013D01*
X97919288Y-53242010D01*
X97788185Y-53154409D01*
X97788172Y-53154402D01*
X97642501Y-53094064D01*
X97642489Y-53094061D01*
X97487845Y-53063300D01*
X97487842Y-53063300D01*
X97330158Y-53063300D01*
X97330155Y-53063300D01*
X97175510Y-53094061D01*
X97175498Y-53094064D01*
X97029827Y-53154402D01*
X97029814Y-53154409D01*
X96898711Y-53242010D01*
X96898707Y-53242013D01*
X96787213Y-53353507D01*
X96787210Y-53353511D01*
X96699609Y-53484614D01*
X96699602Y-53484627D01*
X96639264Y-53630298D01*
X96639261Y-53630310D01*
X96608500Y-53784953D01*
X90225000Y-53784953D01*
X90225000Y-50274500D01*
X90244685Y-50207461D01*
X90297489Y-50161706D01*
X90349000Y-50150500D01*
X111778426Y-50150500D01*
X111845465Y-50170185D01*
G37*
%TD.AperFunction*%
%TD*%
M02*
