%TF.GenerationSoftware,KiCad,Pcbnew,9.0.6*%
%TF.CreationDate,2025-12-26T20:18:00+00:00*%
%TF.ProjectId,PIDI-BOX-01-FRONTPANEL-1-3TE-A1,50494449-2d42-44f5-982d-30312d46524f,rev?*%
%TF.SameCoordinates,Original*%
%TF.FileFunction,Legend,Top*%
%TF.FilePolarity,Positive*%
%FSLAX46Y46*%
G04 Gerber Fmt 4.6, Leading zero omitted, Abs format (unit mm)*
G04 Created by KiCad (PCBNEW 9.0.6) date 2025-12-26 20:18:00*
%MOMM*%
%LPD*%
G01*
G04 APERTURE LIST*
%ADD10C,0.150000*%
%ADD11C,0.120000*%
%ADD12C,0.152400*%
%ADD13C,0.350000*%
%ADD14C,0.100000*%
%ADD15C,0.200000*%
G04 APERTURE END LIST*
D10*
X96750360Y-74468695D02*
X96750360Y-73668695D01*
X96750360Y-73668695D02*
X97055122Y-73668695D01*
X97055122Y-73668695D02*
X97131312Y-73706790D01*
X97131312Y-73706790D02*
X97169407Y-73744885D01*
X97169407Y-73744885D02*
X97207503Y-73821076D01*
X97207503Y-73821076D02*
X97207503Y-73935361D01*
X97207503Y-73935361D02*
X97169407Y-74011552D01*
X97169407Y-74011552D02*
X97131312Y-74049647D01*
X97131312Y-74049647D02*
X97055122Y-74087742D01*
X97055122Y-74087742D02*
X96750360Y-74087742D01*
X97550360Y-74468695D02*
X97550360Y-73668695D01*
X97931312Y-74468695D02*
X97931312Y-73668695D01*
X97931312Y-73668695D02*
X98121788Y-73668695D01*
X98121788Y-73668695D02*
X98236074Y-73706790D01*
X98236074Y-73706790D02*
X98312264Y-73782980D01*
X98312264Y-73782980D02*
X98350359Y-73859171D01*
X98350359Y-73859171D02*
X98388455Y-74011552D01*
X98388455Y-74011552D02*
X98388455Y-74125838D01*
X98388455Y-74125838D02*
X98350359Y-74278219D01*
X98350359Y-74278219D02*
X98312264Y-74354409D01*
X98312264Y-74354409D02*
X98236074Y-74430600D01*
X98236074Y-74430600D02*
X98121788Y-74468695D01*
X98121788Y-74468695D02*
X97931312Y-74468695D01*
X98731312Y-74468695D02*
X98731312Y-73668695D01*
X99112264Y-74163933D02*
X99721788Y-74163933D01*
X100369406Y-74049647D02*
X100483692Y-74087742D01*
X100483692Y-74087742D02*
X100521787Y-74125838D01*
X100521787Y-74125838D02*
X100559883Y-74202028D01*
X100559883Y-74202028D02*
X100559883Y-74316314D01*
X100559883Y-74316314D02*
X100521787Y-74392504D01*
X100521787Y-74392504D02*
X100483692Y-74430600D01*
X100483692Y-74430600D02*
X100407502Y-74468695D01*
X100407502Y-74468695D02*
X100102740Y-74468695D01*
X100102740Y-74468695D02*
X100102740Y-73668695D01*
X100102740Y-73668695D02*
X100369406Y-73668695D01*
X100369406Y-73668695D02*
X100445597Y-73706790D01*
X100445597Y-73706790D02*
X100483692Y-73744885D01*
X100483692Y-73744885D02*
X100521787Y-73821076D01*
X100521787Y-73821076D02*
X100521787Y-73897266D01*
X100521787Y-73897266D02*
X100483692Y-73973457D01*
X100483692Y-73973457D02*
X100445597Y-74011552D01*
X100445597Y-74011552D02*
X100369406Y-74049647D01*
X100369406Y-74049647D02*
X100102740Y-74049647D01*
X101055121Y-73668695D02*
X101207502Y-73668695D01*
X101207502Y-73668695D02*
X101283692Y-73706790D01*
X101283692Y-73706790D02*
X101359883Y-73782980D01*
X101359883Y-73782980D02*
X101397978Y-73935361D01*
X101397978Y-73935361D02*
X101397978Y-74202028D01*
X101397978Y-74202028D02*
X101359883Y-74354409D01*
X101359883Y-74354409D02*
X101283692Y-74430600D01*
X101283692Y-74430600D02*
X101207502Y-74468695D01*
X101207502Y-74468695D02*
X101055121Y-74468695D01*
X101055121Y-74468695D02*
X100978930Y-74430600D01*
X100978930Y-74430600D02*
X100902740Y-74354409D01*
X100902740Y-74354409D02*
X100864644Y-74202028D01*
X100864644Y-74202028D02*
X100864644Y-73935361D01*
X100864644Y-73935361D02*
X100902740Y-73782980D01*
X100902740Y-73782980D02*
X100978930Y-73706790D01*
X100978930Y-73706790D02*
X101055121Y-73668695D01*
X101664644Y-73668695D02*
X102197978Y-74468695D01*
X102197978Y-73668695D02*
X101664644Y-74468695D01*
X102502740Y-74163933D02*
X103112264Y-74163933D01*
X103645597Y-73668695D02*
X103721787Y-73668695D01*
X103721787Y-73668695D02*
X103797978Y-73706790D01*
X103797978Y-73706790D02*
X103836073Y-73744885D01*
X103836073Y-73744885D02*
X103874168Y-73821076D01*
X103874168Y-73821076D02*
X103912263Y-73973457D01*
X103912263Y-73973457D02*
X103912263Y-74163933D01*
X103912263Y-74163933D02*
X103874168Y-74316314D01*
X103874168Y-74316314D02*
X103836073Y-74392504D01*
X103836073Y-74392504D02*
X103797978Y-74430600D01*
X103797978Y-74430600D02*
X103721787Y-74468695D01*
X103721787Y-74468695D02*
X103645597Y-74468695D01*
X103645597Y-74468695D02*
X103569406Y-74430600D01*
X103569406Y-74430600D02*
X103531311Y-74392504D01*
X103531311Y-74392504D02*
X103493216Y-74316314D01*
X103493216Y-74316314D02*
X103455120Y-74163933D01*
X103455120Y-74163933D02*
X103455120Y-73973457D01*
X103455120Y-73973457D02*
X103493216Y-73821076D01*
X103493216Y-73821076D02*
X103531311Y-73744885D01*
X103531311Y-73744885D02*
X103569406Y-73706790D01*
X103569406Y-73706790D02*
X103645597Y-73668695D01*
X104674168Y-74468695D02*
X104217025Y-74468695D01*
X104445597Y-74468695D02*
X104445597Y-73668695D01*
X104445597Y-73668695D02*
X104369406Y-73782980D01*
X104369406Y-73782980D02*
X104293216Y-73859171D01*
X104293216Y-73859171D02*
X104217025Y-73897266D01*
X105017026Y-74163933D02*
X105626550Y-74163933D01*
X106274168Y-74049647D02*
X106007502Y-74049647D01*
X106007502Y-74468695D02*
X106007502Y-73668695D01*
X106007502Y-73668695D02*
X106388454Y-73668695D01*
X107150359Y-74468695D02*
X106883692Y-74087742D01*
X106693216Y-74468695D02*
X106693216Y-73668695D01*
X106693216Y-73668695D02*
X106997978Y-73668695D01*
X106997978Y-73668695D02*
X107074168Y-73706790D01*
X107074168Y-73706790D02*
X107112263Y-73744885D01*
X107112263Y-73744885D02*
X107150359Y-73821076D01*
X107150359Y-73821076D02*
X107150359Y-73935361D01*
X107150359Y-73935361D02*
X107112263Y-74011552D01*
X107112263Y-74011552D02*
X107074168Y-74049647D01*
X107074168Y-74049647D02*
X106997978Y-74087742D01*
X106997978Y-74087742D02*
X106693216Y-74087742D01*
X107645597Y-73668695D02*
X107797978Y-73668695D01*
X107797978Y-73668695D02*
X107874168Y-73706790D01*
X107874168Y-73706790D02*
X107950359Y-73782980D01*
X107950359Y-73782980D02*
X107988454Y-73935361D01*
X107988454Y-73935361D02*
X107988454Y-74202028D01*
X107988454Y-74202028D02*
X107950359Y-74354409D01*
X107950359Y-74354409D02*
X107874168Y-74430600D01*
X107874168Y-74430600D02*
X107797978Y-74468695D01*
X107797978Y-74468695D02*
X107645597Y-74468695D01*
X107645597Y-74468695D02*
X107569406Y-74430600D01*
X107569406Y-74430600D02*
X107493216Y-74354409D01*
X107493216Y-74354409D02*
X107455120Y-74202028D01*
X107455120Y-74202028D02*
X107455120Y-73935361D01*
X107455120Y-73935361D02*
X107493216Y-73782980D01*
X107493216Y-73782980D02*
X107569406Y-73706790D01*
X107569406Y-73706790D02*
X107645597Y-73668695D01*
X108331311Y-74468695D02*
X108331311Y-73668695D01*
X108331311Y-73668695D02*
X108788454Y-74468695D01*
X108788454Y-74468695D02*
X108788454Y-73668695D01*
X109055120Y-73668695D02*
X109512263Y-73668695D01*
X109283691Y-74468695D02*
X109283691Y-73668695D01*
X109778930Y-74468695D02*
X109778930Y-73668695D01*
X109778930Y-73668695D02*
X110083692Y-73668695D01*
X110083692Y-73668695D02*
X110159882Y-73706790D01*
X110159882Y-73706790D02*
X110197977Y-73744885D01*
X110197977Y-73744885D02*
X110236073Y-73821076D01*
X110236073Y-73821076D02*
X110236073Y-73935361D01*
X110236073Y-73935361D02*
X110197977Y-74011552D01*
X110197977Y-74011552D02*
X110159882Y-74049647D01*
X110159882Y-74049647D02*
X110083692Y-74087742D01*
X110083692Y-74087742D02*
X109778930Y-74087742D01*
X110540834Y-74240123D02*
X110921787Y-74240123D01*
X110464644Y-74468695D02*
X110731311Y-73668695D01*
X110731311Y-73668695D02*
X110997977Y-74468695D01*
X111264644Y-74468695D02*
X111264644Y-73668695D01*
X111264644Y-73668695D02*
X111721787Y-74468695D01*
X111721787Y-74468695D02*
X111721787Y-73668695D01*
X112102739Y-74049647D02*
X112369405Y-74049647D01*
X112483691Y-74468695D02*
X112102739Y-74468695D01*
X112102739Y-74468695D02*
X112102739Y-73668695D01*
X112102739Y-73668695D02*
X112483691Y-73668695D01*
X113207501Y-74468695D02*
X112826549Y-74468695D01*
X112826549Y-74468695D02*
X112826549Y-73668695D01*
X113474168Y-74163933D02*
X114083692Y-74163933D01*
X114883691Y-74468695D02*
X114426548Y-74468695D01*
X114655120Y-74468695D02*
X114655120Y-73668695D01*
X114655120Y-73668695D02*
X114578929Y-73782980D01*
X114578929Y-73782980D02*
X114502739Y-73859171D01*
X114502739Y-73859171D02*
X114426548Y-73897266D01*
X115226549Y-74163933D02*
X115836073Y-74163933D01*
X116140834Y-73668695D02*
X116636072Y-73668695D01*
X116636072Y-73668695D02*
X116369406Y-73973457D01*
X116369406Y-73973457D02*
X116483691Y-73973457D01*
X116483691Y-73973457D02*
X116559882Y-74011552D01*
X116559882Y-74011552D02*
X116597977Y-74049647D01*
X116597977Y-74049647D02*
X116636072Y-74125838D01*
X116636072Y-74125838D02*
X116636072Y-74316314D01*
X116636072Y-74316314D02*
X116597977Y-74392504D01*
X116597977Y-74392504D02*
X116559882Y-74430600D01*
X116559882Y-74430600D02*
X116483691Y-74468695D01*
X116483691Y-74468695D02*
X116255120Y-74468695D01*
X116255120Y-74468695D02*
X116178929Y-74430600D01*
X116178929Y-74430600D02*
X116140834Y-74392504D01*
X116864644Y-73668695D02*
X117321787Y-73668695D01*
X117093215Y-74468695D02*
X117093215Y-73668695D01*
X117588454Y-74049647D02*
X117855120Y-74049647D01*
X117969406Y-74468695D02*
X117588454Y-74468695D01*
X117588454Y-74468695D02*
X117588454Y-73668695D01*
X117588454Y-73668695D02*
X117969406Y-73668695D01*
X118312264Y-74163933D02*
X118921788Y-74163933D01*
X119264644Y-74240123D02*
X119645597Y-74240123D01*
X119188454Y-74468695D02*
X119455121Y-73668695D01*
X119455121Y-73668695D02*
X119721787Y-74468695D01*
X120407501Y-74468695D02*
X119950358Y-74468695D01*
X120178930Y-74468695D02*
X120178930Y-73668695D01*
X120178930Y-73668695D02*
X120102739Y-73782980D01*
X120102739Y-73782980D02*
X120026549Y-73859171D01*
X120026549Y-73859171D02*
X119950358Y-73897266D01*
X86277467Y-80499304D02*
X86239371Y-80537400D01*
X86239371Y-80537400D02*
X86125086Y-80575495D01*
X86125086Y-80575495D02*
X86048895Y-80575495D01*
X86048895Y-80575495D02*
X85934609Y-80537400D01*
X85934609Y-80537400D02*
X85858419Y-80461209D01*
X85858419Y-80461209D02*
X85820324Y-80385019D01*
X85820324Y-80385019D02*
X85782228Y-80232638D01*
X85782228Y-80232638D02*
X85782228Y-80118352D01*
X85782228Y-80118352D02*
X85820324Y-79965971D01*
X85820324Y-79965971D02*
X85858419Y-79889780D01*
X85858419Y-79889780D02*
X85934609Y-79813590D01*
X85934609Y-79813590D02*
X86048895Y-79775495D01*
X86048895Y-79775495D02*
X86125086Y-79775495D01*
X86125086Y-79775495D02*
X86239371Y-79813590D01*
X86239371Y-79813590D02*
X86277467Y-79851685D01*
X86544133Y-79775495D02*
X87039371Y-79775495D01*
X87039371Y-79775495D02*
X86772705Y-80080257D01*
X86772705Y-80080257D02*
X86886990Y-80080257D01*
X86886990Y-80080257D02*
X86963181Y-80118352D01*
X86963181Y-80118352D02*
X87001276Y-80156447D01*
X87001276Y-80156447D02*
X87039371Y-80232638D01*
X87039371Y-80232638D02*
X87039371Y-80423114D01*
X87039371Y-80423114D02*
X87001276Y-80499304D01*
X87001276Y-80499304D02*
X86963181Y-80537400D01*
X86963181Y-80537400D02*
X86886990Y-80575495D01*
X86886990Y-80575495D02*
X86658419Y-80575495D01*
X86658419Y-80575495D02*
X86582228Y-80537400D01*
X86582228Y-80537400D02*
X86544133Y-80499304D01*
X86226667Y-66072104D02*
X86188571Y-66110200D01*
X86188571Y-66110200D02*
X86074286Y-66148295D01*
X86074286Y-66148295D02*
X85998095Y-66148295D01*
X85998095Y-66148295D02*
X85883809Y-66110200D01*
X85883809Y-66110200D02*
X85807619Y-66034009D01*
X85807619Y-66034009D02*
X85769524Y-65957819D01*
X85769524Y-65957819D02*
X85731428Y-65805438D01*
X85731428Y-65805438D02*
X85731428Y-65691152D01*
X85731428Y-65691152D02*
X85769524Y-65538771D01*
X85769524Y-65538771D02*
X85807619Y-65462580D01*
X85807619Y-65462580D02*
X85883809Y-65386390D01*
X85883809Y-65386390D02*
X85998095Y-65348295D01*
X85998095Y-65348295D02*
X86074286Y-65348295D01*
X86074286Y-65348295D02*
X86188571Y-65386390D01*
X86188571Y-65386390D02*
X86226667Y-65424485D01*
X86950476Y-65348295D02*
X86569524Y-65348295D01*
X86569524Y-65348295D02*
X86531428Y-65729247D01*
X86531428Y-65729247D02*
X86569524Y-65691152D01*
X86569524Y-65691152D02*
X86645714Y-65653057D01*
X86645714Y-65653057D02*
X86836190Y-65653057D01*
X86836190Y-65653057D02*
X86912381Y-65691152D01*
X86912381Y-65691152D02*
X86950476Y-65729247D01*
X86950476Y-65729247D02*
X86988571Y-65805438D01*
X86988571Y-65805438D02*
X86988571Y-65995914D01*
X86988571Y-65995914D02*
X86950476Y-66072104D01*
X86950476Y-66072104D02*
X86912381Y-66110200D01*
X86912381Y-66110200D02*
X86836190Y-66148295D01*
X86836190Y-66148295D02*
X86645714Y-66148295D01*
X86645714Y-66148295D02*
X86569524Y-66110200D01*
X86569524Y-66110200D02*
X86531428Y-66072104D01*
X100341067Y-53499095D02*
X100074400Y-53118142D01*
X99883924Y-53499095D02*
X99883924Y-52699095D01*
X99883924Y-52699095D02*
X100188686Y-52699095D01*
X100188686Y-52699095D02*
X100264876Y-52737190D01*
X100264876Y-52737190D02*
X100302971Y-52775285D01*
X100302971Y-52775285D02*
X100341067Y-52851476D01*
X100341067Y-52851476D02*
X100341067Y-52965761D01*
X100341067Y-52965761D02*
X100302971Y-53041952D01*
X100302971Y-53041952D02*
X100264876Y-53080047D01*
X100264876Y-53080047D02*
X100188686Y-53118142D01*
X100188686Y-53118142D02*
X99883924Y-53118142D01*
X100722019Y-53499095D02*
X100874400Y-53499095D01*
X100874400Y-53499095D02*
X100950590Y-53461000D01*
X100950590Y-53461000D02*
X100988686Y-53422904D01*
X100988686Y-53422904D02*
X101064876Y-53308619D01*
X101064876Y-53308619D02*
X101102971Y-53156238D01*
X101102971Y-53156238D02*
X101102971Y-52851476D01*
X101102971Y-52851476D02*
X101064876Y-52775285D01*
X101064876Y-52775285D02*
X101026781Y-52737190D01*
X101026781Y-52737190D02*
X100950590Y-52699095D01*
X100950590Y-52699095D02*
X100798209Y-52699095D01*
X100798209Y-52699095D02*
X100722019Y-52737190D01*
X100722019Y-52737190D02*
X100683924Y-52775285D01*
X100683924Y-52775285D02*
X100645828Y-52851476D01*
X100645828Y-52851476D02*
X100645828Y-53041952D01*
X100645828Y-53041952D02*
X100683924Y-53118142D01*
X100683924Y-53118142D02*
X100722019Y-53156238D01*
X100722019Y-53156238D02*
X100798209Y-53194333D01*
X100798209Y-53194333D02*
X100950590Y-53194333D01*
X100950590Y-53194333D02*
X101026781Y-53156238D01*
X101026781Y-53156238D02*
X101064876Y-53118142D01*
X101064876Y-53118142D02*
X101102971Y-53041952D01*
X100907867Y-86366695D02*
X100641200Y-85985742D01*
X100450724Y-86366695D02*
X100450724Y-85566695D01*
X100450724Y-85566695D02*
X100755486Y-85566695D01*
X100755486Y-85566695D02*
X100831676Y-85604790D01*
X100831676Y-85604790D02*
X100869771Y-85642885D01*
X100869771Y-85642885D02*
X100907867Y-85719076D01*
X100907867Y-85719076D02*
X100907867Y-85833361D01*
X100907867Y-85833361D02*
X100869771Y-85909552D01*
X100869771Y-85909552D02*
X100831676Y-85947647D01*
X100831676Y-85947647D02*
X100755486Y-85985742D01*
X100755486Y-85985742D02*
X100450724Y-85985742D01*
X101174533Y-85566695D02*
X101707867Y-85566695D01*
X101707867Y-85566695D02*
X101365009Y-86366695D01*
X86277467Y-71355304D02*
X86239371Y-71393400D01*
X86239371Y-71393400D02*
X86125086Y-71431495D01*
X86125086Y-71431495D02*
X86048895Y-71431495D01*
X86048895Y-71431495D02*
X85934609Y-71393400D01*
X85934609Y-71393400D02*
X85858419Y-71317209D01*
X85858419Y-71317209D02*
X85820324Y-71241019D01*
X85820324Y-71241019D02*
X85782228Y-71088638D01*
X85782228Y-71088638D02*
X85782228Y-70974352D01*
X85782228Y-70974352D02*
X85820324Y-70821971D01*
X85820324Y-70821971D02*
X85858419Y-70745780D01*
X85858419Y-70745780D02*
X85934609Y-70669590D01*
X85934609Y-70669590D02*
X86048895Y-70631495D01*
X86048895Y-70631495D02*
X86125086Y-70631495D01*
X86125086Y-70631495D02*
X86239371Y-70669590D01*
X86239371Y-70669590D02*
X86277467Y-70707685D01*
X87039371Y-71431495D02*
X86582228Y-71431495D01*
X86810800Y-71431495D02*
X86810800Y-70631495D01*
X86810800Y-70631495D02*
X86734609Y-70745780D01*
X86734609Y-70745780D02*
X86658419Y-70821971D01*
X86658419Y-70821971D02*
X86582228Y-70860066D01*
X91857524Y-73107895D02*
X91857524Y-72307895D01*
X91857524Y-72307895D02*
X92048000Y-72307895D01*
X92048000Y-72307895D02*
X92162286Y-72345990D01*
X92162286Y-72345990D02*
X92238476Y-72422180D01*
X92238476Y-72422180D02*
X92276571Y-72498371D01*
X92276571Y-72498371D02*
X92314667Y-72650752D01*
X92314667Y-72650752D02*
X92314667Y-72765038D01*
X92314667Y-72765038D02*
X92276571Y-72917419D01*
X92276571Y-72917419D02*
X92238476Y-72993609D01*
X92238476Y-72993609D02*
X92162286Y-73069800D01*
X92162286Y-73069800D02*
X92048000Y-73107895D01*
X92048000Y-73107895D02*
X91857524Y-73107895D01*
X93076571Y-73107895D02*
X92619428Y-73107895D01*
X92848000Y-73107895D02*
X92848000Y-72307895D01*
X92848000Y-72307895D02*
X92771809Y-72422180D01*
X92771809Y-72422180D02*
X92695619Y-72498371D01*
X92695619Y-72498371D02*
X92619428Y-72536466D01*
X111955276Y-75914695D02*
X111955276Y-76562314D01*
X111955276Y-76562314D02*
X111993371Y-76638504D01*
X111993371Y-76638504D02*
X112031466Y-76676600D01*
X112031466Y-76676600D02*
X112107657Y-76714695D01*
X112107657Y-76714695D02*
X112260038Y-76714695D01*
X112260038Y-76714695D02*
X112336228Y-76676600D01*
X112336228Y-76676600D02*
X112374323Y-76638504D01*
X112374323Y-76638504D02*
X112412419Y-76562314D01*
X112412419Y-76562314D02*
X112412419Y-75914695D01*
X113212418Y-76714695D02*
X112755275Y-76714695D01*
X112983847Y-76714695D02*
X112983847Y-75914695D01*
X112983847Y-75914695D02*
X112907656Y-76028980D01*
X112907656Y-76028980D02*
X112831466Y-76105171D01*
X112831466Y-76105171D02*
X112755275Y-76143266D01*
X122057295Y-80083332D02*
X121676342Y-80349999D01*
X122057295Y-80540475D02*
X121257295Y-80540475D01*
X121257295Y-80540475D02*
X121257295Y-80235713D01*
X121257295Y-80235713D02*
X121295390Y-80159523D01*
X121295390Y-80159523D02*
X121333485Y-80121428D01*
X121333485Y-80121428D02*
X121409676Y-80083332D01*
X121409676Y-80083332D02*
X121523961Y-80083332D01*
X121523961Y-80083332D02*
X121600152Y-80121428D01*
X121600152Y-80121428D02*
X121638247Y-80159523D01*
X121638247Y-80159523D02*
X121676342Y-80235713D01*
X121676342Y-80235713D02*
X121676342Y-80540475D01*
X121523961Y-79397618D02*
X122057295Y-79397618D01*
X121219200Y-79588094D02*
X121790628Y-79778571D01*
X121790628Y-79778571D02*
X121790628Y-79283332D01*
X105233333Y-50405395D02*
X105233333Y-50976823D01*
X105233333Y-50976823D02*
X105195238Y-51091109D01*
X105195238Y-51091109D02*
X105119047Y-51167300D01*
X105119047Y-51167300D02*
X105004762Y-51205395D01*
X105004762Y-51205395D02*
X104928571Y-51205395D01*
X105576190Y-50481585D02*
X105614286Y-50443490D01*
X105614286Y-50443490D02*
X105690476Y-50405395D01*
X105690476Y-50405395D02*
X105880952Y-50405395D01*
X105880952Y-50405395D02*
X105957143Y-50443490D01*
X105957143Y-50443490D02*
X105995238Y-50481585D01*
X105995238Y-50481585D02*
X106033333Y-50557776D01*
X106033333Y-50557776D02*
X106033333Y-50633966D01*
X106033333Y-50633966D02*
X105995238Y-50748252D01*
X105995238Y-50748252D02*
X105538095Y-51205395D01*
X105538095Y-51205395D02*
X106033333Y-51205395D01*
X119908333Y-69162295D02*
X119908333Y-69733723D01*
X119908333Y-69733723D02*
X119870238Y-69848009D01*
X119870238Y-69848009D02*
X119794047Y-69924200D01*
X119794047Y-69924200D02*
X119679762Y-69962295D01*
X119679762Y-69962295D02*
X119603571Y-69962295D01*
X120708333Y-69962295D02*
X120251190Y-69962295D01*
X120479762Y-69962295D02*
X120479762Y-69162295D01*
X120479762Y-69162295D02*
X120403571Y-69276580D01*
X120403571Y-69276580D02*
X120327381Y-69352771D01*
X120327381Y-69352771D02*
X120251190Y-69390866D01*
X120772161Y-82712295D02*
X120391209Y-82712295D01*
X120391209Y-82712295D02*
X120391209Y-81912295D01*
X121038828Y-82293247D02*
X121305494Y-82293247D01*
X121419780Y-82712295D02*
X121038828Y-82712295D01*
X121038828Y-82712295D02*
X121038828Y-81912295D01*
X121038828Y-81912295D02*
X121419780Y-81912295D01*
X121762638Y-82712295D02*
X121762638Y-81912295D01*
X121762638Y-81912295D02*
X121953114Y-81912295D01*
X121953114Y-81912295D02*
X122067400Y-81950390D01*
X122067400Y-81950390D02*
X122143590Y-82026580D01*
X122143590Y-82026580D02*
X122181685Y-82102771D01*
X122181685Y-82102771D02*
X122219781Y-82255152D01*
X122219781Y-82255152D02*
X122219781Y-82369438D01*
X122219781Y-82369438D02*
X122181685Y-82521819D01*
X122181685Y-82521819D02*
X122143590Y-82598009D01*
X122143590Y-82598009D02*
X122067400Y-82674200D01*
X122067400Y-82674200D02*
X121953114Y-82712295D01*
X121953114Y-82712295D02*
X121762638Y-82712295D01*
X122905495Y-82178961D02*
X122905495Y-82712295D01*
X122715019Y-81874200D02*
X122524542Y-82445628D01*
X122524542Y-82445628D02*
X123019781Y-82445628D01*
X88466648Y-80169095D02*
X88466648Y-79369095D01*
X89304743Y-80092904D02*
X89266647Y-80131000D01*
X89266647Y-80131000D02*
X89152362Y-80169095D01*
X89152362Y-80169095D02*
X89076171Y-80169095D01*
X89076171Y-80169095D02*
X88961885Y-80131000D01*
X88961885Y-80131000D02*
X88885695Y-80054809D01*
X88885695Y-80054809D02*
X88847600Y-79978619D01*
X88847600Y-79978619D02*
X88809504Y-79826238D01*
X88809504Y-79826238D02*
X88809504Y-79711952D01*
X88809504Y-79711952D02*
X88847600Y-79559571D01*
X88847600Y-79559571D02*
X88885695Y-79483380D01*
X88885695Y-79483380D02*
X88961885Y-79407190D01*
X88961885Y-79407190D02*
X89076171Y-79369095D01*
X89076171Y-79369095D02*
X89152362Y-79369095D01*
X89152362Y-79369095D02*
X89266647Y-79407190D01*
X89266647Y-79407190D02*
X89304743Y-79445285D01*
X89571409Y-79369095D02*
X90066647Y-79369095D01*
X90066647Y-79369095D02*
X89799981Y-79673857D01*
X89799981Y-79673857D02*
X89914266Y-79673857D01*
X89914266Y-79673857D02*
X89990457Y-79711952D01*
X89990457Y-79711952D02*
X90028552Y-79750047D01*
X90028552Y-79750047D02*
X90066647Y-79826238D01*
X90066647Y-79826238D02*
X90066647Y-80016714D01*
X90066647Y-80016714D02*
X90028552Y-80092904D01*
X90028552Y-80092904D02*
X89990457Y-80131000D01*
X89990457Y-80131000D02*
X89914266Y-80169095D01*
X89914266Y-80169095D02*
X89685695Y-80169095D01*
X89685695Y-80169095D02*
X89609504Y-80131000D01*
X89609504Y-80131000D02*
X89571409Y-80092904D01*
X106672076Y-75965495D02*
X106672076Y-76613114D01*
X106672076Y-76613114D02*
X106710171Y-76689304D01*
X106710171Y-76689304D02*
X106748266Y-76727400D01*
X106748266Y-76727400D02*
X106824457Y-76765495D01*
X106824457Y-76765495D02*
X106976838Y-76765495D01*
X106976838Y-76765495D02*
X107053028Y-76727400D01*
X107053028Y-76727400D02*
X107091123Y-76689304D01*
X107091123Y-76689304D02*
X107129219Y-76613114D01*
X107129219Y-76613114D02*
X107129219Y-75965495D01*
X107472075Y-76041685D02*
X107510171Y-76003590D01*
X107510171Y-76003590D02*
X107586361Y-75965495D01*
X107586361Y-75965495D02*
X107776837Y-75965495D01*
X107776837Y-75965495D02*
X107853028Y-76003590D01*
X107853028Y-76003590D02*
X107891123Y-76041685D01*
X107891123Y-76041685D02*
X107929218Y-76117876D01*
X107929218Y-76117876D02*
X107929218Y-76194066D01*
X107929218Y-76194066D02*
X107891123Y-76308352D01*
X107891123Y-76308352D02*
X107433980Y-76765495D01*
X107433980Y-76765495D02*
X107929218Y-76765495D01*
X108477067Y-84995095D02*
X108210400Y-84614142D01*
X108019924Y-84995095D02*
X108019924Y-84195095D01*
X108019924Y-84195095D02*
X108324686Y-84195095D01*
X108324686Y-84195095D02*
X108400876Y-84233190D01*
X108400876Y-84233190D02*
X108438971Y-84271285D01*
X108438971Y-84271285D02*
X108477067Y-84347476D01*
X108477067Y-84347476D02*
X108477067Y-84461761D01*
X108477067Y-84461761D02*
X108438971Y-84537952D01*
X108438971Y-84537952D02*
X108400876Y-84576047D01*
X108400876Y-84576047D02*
X108324686Y-84614142D01*
X108324686Y-84614142D02*
X108019924Y-84614142D01*
X109162781Y-84195095D02*
X109010400Y-84195095D01*
X109010400Y-84195095D02*
X108934209Y-84233190D01*
X108934209Y-84233190D02*
X108896114Y-84271285D01*
X108896114Y-84271285D02*
X108819924Y-84385571D01*
X108819924Y-84385571D02*
X108781828Y-84537952D01*
X108781828Y-84537952D02*
X108781828Y-84842714D01*
X108781828Y-84842714D02*
X108819924Y-84918904D01*
X108819924Y-84918904D02*
X108858019Y-84957000D01*
X108858019Y-84957000D02*
X108934209Y-84995095D01*
X108934209Y-84995095D02*
X109086590Y-84995095D01*
X109086590Y-84995095D02*
X109162781Y-84957000D01*
X109162781Y-84957000D02*
X109200876Y-84918904D01*
X109200876Y-84918904D02*
X109238971Y-84842714D01*
X109238971Y-84842714D02*
X109238971Y-84652238D01*
X109238971Y-84652238D02*
X109200876Y-84576047D01*
X109200876Y-84576047D02*
X109162781Y-84537952D01*
X109162781Y-84537952D02*
X109086590Y-84499857D01*
X109086590Y-84499857D02*
X108934209Y-84499857D01*
X108934209Y-84499857D02*
X108858019Y-84537952D01*
X108858019Y-84537952D02*
X108819924Y-84576047D01*
X108819924Y-84576047D02*
X108781828Y-84652238D01*
X101388876Y-75863895D02*
X101388876Y-76511514D01*
X101388876Y-76511514D02*
X101426971Y-76587704D01*
X101426971Y-76587704D02*
X101465066Y-76625800D01*
X101465066Y-76625800D02*
X101541257Y-76663895D01*
X101541257Y-76663895D02*
X101693638Y-76663895D01*
X101693638Y-76663895D02*
X101769828Y-76625800D01*
X101769828Y-76625800D02*
X101807923Y-76587704D01*
X101807923Y-76587704D02*
X101846019Y-76511514D01*
X101846019Y-76511514D02*
X101846019Y-75863895D01*
X102150780Y-75863895D02*
X102646018Y-75863895D01*
X102646018Y-75863895D02*
X102379352Y-76168657D01*
X102379352Y-76168657D02*
X102493637Y-76168657D01*
X102493637Y-76168657D02*
X102569828Y-76206752D01*
X102569828Y-76206752D02*
X102607923Y-76244847D01*
X102607923Y-76244847D02*
X102646018Y-76321038D01*
X102646018Y-76321038D02*
X102646018Y-76511514D01*
X102646018Y-76511514D02*
X102607923Y-76587704D01*
X102607923Y-76587704D02*
X102569828Y-76625800D01*
X102569828Y-76625800D02*
X102493637Y-76663895D01*
X102493637Y-76663895D02*
X102265066Y-76663895D01*
X102265066Y-76663895D02*
X102188875Y-76625800D01*
X102188875Y-76625800D02*
X102150780Y-76587704D01*
X111329761Y-84487295D02*
X110948809Y-84487295D01*
X110948809Y-84487295D02*
X110948809Y-83687295D01*
X111596428Y-84068247D02*
X111863094Y-84068247D01*
X111977380Y-84487295D02*
X111596428Y-84487295D01*
X111596428Y-84487295D02*
X111596428Y-83687295D01*
X111596428Y-83687295D02*
X111977380Y-83687295D01*
X112320238Y-84487295D02*
X112320238Y-83687295D01*
X112320238Y-83687295D02*
X112510714Y-83687295D01*
X112510714Y-83687295D02*
X112625000Y-83725390D01*
X112625000Y-83725390D02*
X112701190Y-83801580D01*
X112701190Y-83801580D02*
X112739285Y-83877771D01*
X112739285Y-83877771D02*
X112777381Y-84030152D01*
X112777381Y-84030152D02*
X112777381Y-84144438D01*
X112777381Y-84144438D02*
X112739285Y-84296819D01*
X112739285Y-84296819D02*
X112701190Y-84373009D01*
X112701190Y-84373009D02*
X112625000Y-84449200D01*
X112625000Y-84449200D02*
X112510714Y-84487295D01*
X112510714Y-84487295D02*
X112320238Y-84487295D01*
X113501190Y-83687295D02*
X113120238Y-83687295D01*
X113120238Y-83687295D02*
X113082142Y-84068247D01*
X113082142Y-84068247D02*
X113120238Y-84030152D01*
X113120238Y-84030152D02*
X113196428Y-83992057D01*
X113196428Y-83992057D02*
X113386904Y-83992057D01*
X113386904Y-83992057D02*
X113463095Y-84030152D01*
X113463095Y-84030152D02*
X113501190Y-84068247D01*
X113501190Y-84068247D02*
X113539285Y-84144438D01*
X113539285Y-84144438D02*
X113539285Y-84334914D01*
X113539285Y-84334914D02*
X113501190Y-84411104D01*
X113501190Y-84411104D02*
X113463095Y-84449200D01*
X113463095Y-84449200D02*
X113386904Y-84487295D01*
X113386904Y-84487295D02*
X113196428Y-84487295D01*
X113196428Y-84487295D02*
X113120238Y-84449200D01*
X113120238Y-84449200D02*
X113082142Y-84411104D01*
X115487467Y-57537704D02*
X115449371Y-57575800D01*
X115449371Y-57575800D02*
X115335086Y-57613895D01*
X115335086Y-57613895D02*
X115258895Y-57613895D01*
X115258895Y-57613895D02*
X115144609Y-57575800D01*
X115144609Y-57575800D02*
X115068419Y-57499609D01*
X115068419Y-57499609D02*
X115030324Y-57423419D01*
X115030324Y-57423419D02*
X114992228Y-57271038D01*
X114992228Y-57271038D02*
X114992228Y-57156752D01*
X114992228Y-57156752D02*
X115030324Y-57004371D01*
X115030324Y-57004371D02*
X115068419Y-56928180D01*
X115068419Y-56928180D02*
X115144609Y-56851990D01*
X115144609Y-56851990D02*
X115258895Y-56813895D01*
X115258895Y-56813895D02*
X115335086Y-56813895D01*
X115335086Y-56813895D02*
X115449371Y-56851990D01*
X115449371Y-56851990D02*
X115487467Y-56890085D01*
X115944609Y-57156752D02*
X115868419Y-57118657D01*
X115868419Y-57118657D02*
X115830324Y-57080561D01*
X115830324Y-57080561D02*
X115792228Y-57004371D01*
X115792228Y-57004371D02*
X115792228Y-56966276D01*
X115792228Y-56966276D02*
X115830324Y-56890085D01*
X115830324Y-56890085D02*
X115868419Y-56851990D01*
X115868419Y-56851990D02*
X115944609Y-56813895D01*
X115944609Y-56813895D02*
X116096990Y-56813895D01*
X116096990Y-56813895D02*
X116173181Y-56851990D01*
X116173181Y-56851990D02*
X116211276Y-56890085D01*
X116211276Y-56890085D02*
X116249371Y-56966276D01*
X116249371Y-56966276D02*
X116249371Y-57004371D01*
X116249371Y-57004371D02*
X116211276Y-57080561D01*
X116211276Y-57080561D02*
X116173181Y-57118657D01*
X116173181Y-57118657D02*
X116096990Y-57156752D01*
X116096990Y-57156752D02*
X115944609Y-57156752D01*
X115944609Y-57156752D02*
X115868419Y-57194847D01*
X115868419Y-57194847D02*
X115830324Y-57232942D01*
X115830324Y-57232942D02*
X115792228Y-57309133D01*
X115792228Y-57309133D02*
X115792228Y-57461514D01*
X115792228Y-57461514D02*
X115830324Y-57537704D01*
X115830324Y-57537704D02*
X115868419Y-57575800D01*
X115868419Y-57575800D02*
X115944609Y-57613895D01*
X115944609Y-57613895D02*
X116096990Y-57613895D01*
X116096990Y-57613895D02*
X116173181Y-57575800D01*
X116173181Y-57575800D02*
X116211276Y-57537704D01*
X116211276Y-57537704D02*
X116249371Y-57461514D01*
X116249371Y-57461514D02*
X116249371Y-57309133D01*
X116249371Y-57309133D02*
X116211276Y-57232942D01*
X116211276Y-57232942D02*
X116173181Y-57194847D01*
X116173181Y-57194847D02*
X116096990Y-57156752D01*
X97783667Y-84715695D02*
X97517000Y-84334742D01*
X97326524Y-84715695D02*
X97326524Y-83915695D01*
X97326524Y-83915695D02*
X97631286Y-83915695D01*
X97631286Y-83915695D02*
X97707476Y-83953790D01*
X97707476Y-83953790D02*
X97745571Y-83991885D01*
X97745571Y-83991885D02*
X97783667Y-84068076D01*
X97783667Y-84068076D02*
X97783667Y-84182361D01*
X97783667Y-84182361D02*
X97745571Y-84258552D01*
X97745571Y-84258552D02*
X97707476Y-84296647D01*
X97707476Y-84296647D02*
X97631286Y-84334742D01*
X97631286Y-84334742D02*
X97326524Y-84334742D01*
X98088428Y-83991885D02*
X98126524Y-83953790D01*
X98126524Y-83953790D02*
X98202714Y-83915695D01*
X98202714Y-83915695D02*
X98393190Y-83915695D01*
X98393190Y-83915695D02*
X98469381Y-83953790D01*
X98469381Y-83953790D02*
X98507476Y-83991885D01*
X98507476Y-83991885D02*
X98545571Y-84068076D01*
X98545571Y-84068076D02*
X98545571Y-84144266D01*
X98545571Y-84144266D02*
X98507476Y-84258552D01*
X98507476Y-84258552D02*
X98050333Y-84715695D01*
X98050333Y-84715695D02*
X98545571Y-84715695D01*
X125690361Y-55683495D02*
X125309409Y-55683495D01*
X125309409Y-55683495D02*
X125309409Y-54883495D01*
X125957028Y-55264447D02*
X126223694Y-55264447D01*
X126337980Y-55683495D02*
X125957028Y-55683495D01*
X125957028Y-55683495D02*
X125957028Y-54883495D01*
X125957028Y-54883495D02*
X126337980Y-54883495D01*
X126680838Y-55683495D02*
X126680838Y-54883495D01*
X126680838Y-54883495D02*
X126871314Y-54883495D01*
X126871314Y-54883495D02*
X126985600Y-54921590D01*
X126985600Y-54921590D02*
X127061790Y-54997780D01*
X127061790Y-54997780D02*
X127099885Y-55073971D01*
X127099885Y-55073971D02*
X127137981Y-55226352D01*
X127137981Y-55226352D02*
X127137981Y-55340638D01*
X127137981Y-55340638D02*
X127099885Y-55493019D01*
X127099885Y-55493019D02*
X127061790Y-55569209D01*
X127061790Y-55569209D02*
X126985600Y-55645400D01*
X126985600Y-55645400D02*
X126871314Y-55683495D01*
X126871314Y-55683495D02*
X126680838Y-55683495D01*
X127442742Y-54959685D02*
X127480838Y-54921590D01*
X127480838Y-54921590D02*
X127557028Y-54883495D01*
X127557028Y-54883495D02*
X127747504Y-54883495D01*
X127747504Y-54883495D02*
X127823695Y-54921590D01*
X127823695Y-54921590D02*
X127861790Y-54959685D01*
X127861790Y-54959685D02*
X127899885Y-55035876D01*
X127899885Y-55035876D02*
X127899885Y-55112066D01*
X127899885Y-55112066D02*
X127861790Y-55226352D01*
X127861790Y-55226352D02*
X127404647Y-55683495D01*
X127404647Y-55683495D02*
X127899885Y-55683495D01*
X118273561Y-51009895D02*
X117892609Y-51009895D01*
X117892609Y-51009895D02*
X117892609Y-50209895D01*
X118540228Y-50590847D02*
X118806894Y-50590847D01*
X118921180Y-51009895D02*
X118540228Y-51009895D01*
X118540228Y-51009895D02*
X118540228Y-50209895D01*
X118540228Y-50209895D02*
X118921180Y-50209895D01*
X119264038Y-51009895D02*
X119264038Y-50209895D01*
X119264038Y-50209895D02*
X119454514Y-50209895D01*
X119454514Y-50209895D02*
X119568800Y-50247990D01*
X119568800Y-50247990D02*
X119644990Y-50324180D01*
X119644990Y-50324180D02*
X119683085Y-50400371D01*
X119683085Y-50400371D02*
X119721181Y-50552752D01*
X119721181Y-50552752D02*
X119721181Y-50667038D01*
X119721181Y-50667038D02*
X119683085Y-50819419D01*
X119683085Y-50819419D02*
X119644990Y-50895609D01*
X119644990Y-50895609D02*
X119568800Y-50971800D01*
X119568800Y-50971800D02*
X119454514Y-51009895D01*
X119454514Y-51009895D02*
X119264038Y-51009895D01*
X120483085Y-51009895D02*
X120025942Y-51009895D01*
X120254514Y-51009895D02*
X120254514Y-50209895D01*
X120254514Y-50209895D02*
X120178323Y-50324180D01*
X120178323Y-50324180D02*
X120102133Y-50400371D01*
X120102133Y-50400371D02*
X120025942Y-50438466D01*
X117294067Y-86238495D02*
X117027400Y-85857542D01*
X116836924Y-86238495D02*
X116836924Y-85438495D01*
X116836924Y-85438495D02*
X117141686Y-85438495D01*
X117141686Y-85438495D02*
X117217876Y-85476590D01*
X117217876Y-85476590D02*
X117255971Y-85514685D01*
X117255971Y-85514685D02*
X117294067Y-85590876D01*
X117294067Y-85590876D02*
X117294067Y-85705161D01*
X117294067Y-85705161D02*
X117255971Y-85781352D01*
X117255971Y-85781352D02*
X117217876Y-85819447D01*
X117217876Y-85819447D02*
X117141686Y-85857542D01*
X117141686Y-85857542D02*
X116836924Y-85857542D01*
X118017876Y-85438495D02*
X117636924Y-85438495D01*
X117636924Y-85438495D02*
X117598828Y-85819447D01*
X117598828Y-85819447D02*
X117636924Y-85781352D01*
X117636924Y-85781352D02*
X117713114Y-85743257D01*
X117713114Y-85743257D02*
X117903590Y-85743257D01*
X117903590Y-85743257D02*
X117979781Y-85781352D01*
X117979781Y-85781352D02*
X118017876Y-85819447D01*
X118017876Y-85819447D02*
X118055971Y-85895638D01*
X118055971Y-85895638D02*
X118055971Y-86086114D01*
X118055971Y-86086114D02*
X118017876Y-86162304D01*
X118017876Y-86162304D02*
X117979781Y-86200400D01*
X117979781Y-86200400D02*
X117903590Y-86238495D01*
X117903590Y-86238495D02*
X117713114Y-86238495D01*
X117713114Y-86238495D02*
X117636924Y-86200400D01*
X117636924Y-86200400D02*
X117598828Y-86162304D01*
X103084361Y-84182295D02*
X102703409Y-84182295D01*
X102703409Y-84182295D02*
X102703409Y-83382295D01*
X103351028Y-83763247D02*
X103617694Y-83763247D01*
X103731980Y-84182295D02*
X103351028Y-84182295D01*
X103351028Y-84182295D02*
X103351028Y-83382295D01*
X103351028Y-83382295D02*
X103731980Y-83382295D01*
X104074838Y-84182295D02*
X104074838Y-83382295D01*
X104074838Y-83382295D02*
X104265314Y-83382295D01*
X104265314Y-83382295D02*
X104379600Y-83420390D01*
X104379600Y-83420390D02*
X104455790Y-83496580D01*
X104455790Y-83496580D02*
X104493885Y-83572771D01*
X104493885Y-83572771D02*
X104531981Y-83725152D01*
X104531981Y-83725152D02*
X104531981Y-83839438D01*
X104531981Y-83839438D02*
X104493885Y-83991819D01*
X104493885Y-83991819D02*
X104455790Y-84068009D01*
X104455790Y-84068009D02*
X104379600Y-84144200D01*
X104379600Y-84144200D02*
X104265314Y-84182295D01*
X104265314Y-84182295D02*
X104074838Y-84182295D01*
X105217695Y-83382295D02*
X105065314Y-83382295D01*
X105065314Y-83382295D02*
X104989123Y-83420390D01*
X104989123Y-83420390D02*
X104951028Y-83458485D01*
X104951028Y-83458485D02*
X104874838Y-83572771D01*
X104874838Y-83572771D02*
X104836742Y-83725152D01*
X104836742Y-83725152D02*
X104836742Y-84029914D01*
X104836742Y-84029914D02*
X104874838Y-84106104D01*
X104874838Y-84106104D02*
X104912933Y-84144200D01*
X104912933Y-84144200D02*
X104989123Y-84182295D01*
X104989123Y-84182295D02*
X105141504Y-84182295D01*
X105141504Y-84182295D02*
X105217695Y-84144200D01*
X105217695Y-84144200D02*
X105255790Y-84106104D01*
X105255790Y-84106104D02*
X105293885Y-84029914D01*
X105293885Y-84029914D02*
X105293885Y-83839438D01*
X105293885Y-83839438D02*
X105255790Y-83763247D01*
X105255790Y-83763247D02*
X105217695Y-83725152D01*
X105217695Y-83725152D02*
X105141504Y-83687057D01*
X105141504Y-83687057D02*
X104989123Y-83687057D01*
X104989123Y-83687057D02*
X104912933Y-83725152D01*
X104912933Y-83725152D02*
X104874838Y-83763247D01*
X104874838Y-83763247D02*
X104836742Y-83839438D01*
X121806867Y-52329895D02*
X121540200Y-51948942D01*
X121349724Y-52329895D02*
X121349724Y-51529895D01*
X121349724Y-51529895D02*
X121654486Y-51529895D01*
X121654486Y-51529895D02*
X121730676Y-51567990D01*
X121730676Y-51567990D02*
X121768771Y-51606085D01*
X121768771Y-51606085D02*
X121806867Y-51682276D01*
X121806867Y-51682276D02*
X121806867Y-51796561D01*
X121806867Y-51796561D02*
X121768771Y-51872752D01*
X121768771Y-51872752D02*
X121730676Y-51910847D01*
X121730676Y-51910847D02*
X121654486Y-51948942D01*
X121654486Y-51948942D02*
X121349724Y-51948942D01*
X122264009Y-51872752D02*
X122187819Y-51834657D01*
X122187819Y-51834657D02*
X122149724Y-51796561D01*
X122149724Y-51796561D02*
X122111628Y-51720371D01*
X122111628Y-51720371D02*
X122111628Y-51682276D01*
X122111628Y-51682276D02*
X122149724Y-51606085D01*
X122149724Y-51606085D02*
X122187819Y-51567990D01*
X122187819Y-51567990D02*
X122264009Y-51529895D01*
X122264009Y-51529895D02*
X122416390Y-51529895D01*
X122416390Y-51529895D02*
X122492581Y-51567990D01*
X122492581Y-51567990D02*
X122530676Y-51606085D01*
X122530676Y-51606085D02*
X122568771Y-51682276D01*
X122568771Y-51682276D02*
X122568771Y-51720371D01*
X122568771Y-51720371D02*
X122530676Y-51796561D01*
X122530676Y-51796561D02*
X122492581Y-51834657D01*
X122492581Y-51834657D02*
X122416390Y-51872752D01*
X122416390Y-51872752D02*
X122264009Y-51872752D01*
X122264009Y-51872752D02*
X122187819Y-51910847D01*
X122187819Y-51910847D02*
X122149724Y-51948942D01*
X122149724Y-51948942D02*
X122111628Y-52025133D01*
X122111628Y-52025133D02*
X122111628Y-52177514D01*
X122111628Y-52177514D02*
X122149724Y-52253704D01*
X122149724Y-52253704D02*
X122187819Y-52291800D01*
X122187819Y-52291800D02*
X122264009Y-52329895D01*
X122264009Y-52329895D02*
X122416390Y-52329895D01*
X122416390Y-52329895D02*
X122492581Y-52291800D01*
X122492581Y-52291800D02*
X122530676Y-52253704D01*
X122530676Y-52253704D02*
X122568771Y-52177514D01*
X122568771Y-52177514D02*
X122568771Y-52025133D01*
X122568771Y-52025133D02*
X122530676Y-51948942D01*
X122530676Y-51948942D02*
X122492581Y-51910847D01*
X122492581Y-51910847D02*
X122416390Y-51872752D01*
X91451124Y-57105895D02*
X91451124Y-56305895D01*
X91451124Y-56305895D02*
X91641600Y-56305895D01*
X91641600Y-56305895D02*
X91755886Y-56343990D01*
X91755886Y-56343990D02*
X91832076Y-56420180D01*
X91832076Y-56420180D02*
X91870171Y-56496371D01*
X91870171Y-56496371D02*
X91908267Y-56648752D01*
X91908267Y-56648752D02*
X91908267Y-56763038D01*
X91908267Y-56763038D02*
X91870171Y-56915419D01*
X91870171Y-56915419D02*
X91832076Y-56991609D01*
X91832076Y-56991609D02*
X91755886Y-57067800D01*
X91755886Y-57067800D02*
X91641600Y-57105895D01*
X91641600Y-57105895D02*
X91451124Y-57105895D01*
X92174933Y-56305895D02*
X92670171Y-56305895D01*
X92670171Y-56305895D02*
X92403505Y-56610657D01*
X92403505Y-56610657D02*
X92517790Y-56610657D01*
X92517790Y-56610657D02*
X92593981Y-56648752D01*
X92593981Y-56648752D02*
X92632076Y-56686847D01*
X92632076Y-56686847D02*
X92670171Y-56763038D01*
X92670171Y-56763038D02*
X92670171Y-56953514D01*
X92670171Y-56953514D02*
X92632076Y-57029704D01*
X92632076Y-57029704D02*
X92593981Y-57067800D01*
X92593981Y-57067800D02*
X92517790Y-57105895D01*
X92517790Y-57105895D02*
X92289219Y-57105895D01*
X92289219Y-57105895D02*
X92213028Y-57067800D01*
X92213028Y-57067800D02*
X92174933Y-57029704D01*
X93787961Y-82912295D02*
X93407009Y-82912295D01*
X93407009Y-82912295D02*
X93407009Y-82112295D01*
X94054628Y-82493247D02*
X94321294Y-82493247D01*
X94435580Y-82912295D02*
X94054628Y-82912295D01*
X94054628Y-82912295D02*
X94054628Y-82112295D01*
X94054628Y-82112295D02*
X94435580Y-82112295D01*
X94778438Y-82912295D02*
X94778438Y-82112295D01*
X94778438Y-82112295D02*
X94968914Y-82112295D01*
X94968914Y-82112295D02*
X95083200Y-82150390D01*
X95083200Y-82150390D02*
X95159390Y-82226580D01*
X95159390Y-82226580D02*
X95197485Y-82302771D01*
X95197485Y-82302771D02*
X95235581Y-82455152D01*
X95235581Y-82455152D02*
X95235581Y-82569438D01*
X95235581Y-82569438D02*
X95197485Y-82721819D01*
X95197485Y-82721819D02*
X95159390Y-82798009D01*
X95159390Y-82798009D02*
X95083200Y-82874200D01*
X95083200Y-82874200D02*
X94968914Y-82912295D01*
X94968914Y-82912295D02*
X94778438Y-82912295D01*
X95502247Y-82112295D02*
X96035581Y-82112295D01*
X96035581Y-82112295D02*
X95692723Y-82912295D01*
X91705124Y-64319495D02*
X91705124Y-63519495D01*
X91705124Y-63519495D02*
X91895600Y-63519495D01*
X91895600Y-63519495D02*
X92009886Y-63557590D01*
X92009886Y-63557590D02*
X92086076Y-63633780D01*
X92086076Y-63633780D02*
X92124171Y-63709971D01*
X92124171Y-63709971D02*
X92162267Y-63862352D01*
X92162267Y-63862352D02*
X92162267Y-63976638D01*
X92162267Y-63976638D02*
X92124171Y-64129019D01*
X92124171Y-64129019D02*
X92086076Y-64205209D01*
X92086076Y-64205209D02*
X92009886Y-64281400D01*
X92009886Y-64281400D02*
X91895600Y-64319495D01*
X91895600Y-64319495D02*
X91705124Y-64319495D01*
X92467028Y-63595685D02*
X92505124Y-63557590D01*
X92505124Y-63557590D02*
X92581314Y-63519495D01*
X92581314Y-63519495D02*
X92771790Y-63519495D01*
X92771790Y-63519495D02*
X92847981Y-63557590D01*
X92847981Y-63557590D02*
X92886076Y-63595685D01*
X92886076Y-63595685D02*
X92924171Y-63671876D01*
X92924171Y-63671876D02*
X92924171Y-63748066D01*
X92924171Y-63748066D02*
X92886076Y-63862352D01*
X92886076Y-63862352D02*
X92428933Y-64319495D01*
X92428933Y-64319495D02*
X92924171Y-64319495D01*
X99096514Y-57817095D02*
X98829847Y-57436142D01*
X98639371Y-57817095D02*
X98639371Y-57017095D01*
X98639371Y-57017095D02*
X98944133Y-57017095D01*
X98944133Y-57017095D02*
X99020323Y-57055190D01*
X99020323Y-57055190D02*
X99058418Y-57093285D01*
X99058418Y-57093285D02*
X99096514Y-57169476D01*
X99096514Y-57169476D02*
X99096514Y-57283761D01*
X99096514Y-57283761D02*
X99058418Y-57359952D01*
X99058418Y-57359952D02*
X99020323Y-57398047D01*
X99020323Y-57398047D02*
X98944133Y-57436142D01*
X98944133Y-57436142D02*
X98639371Y-57436142D01*
X99858418Y-57817095D02*
X99401275Y-57817095D01*
X99629847Y-57817095D02*
X99629847Y-57017095D01*
X99629847Y-57017095D02*
X99553656Y-57131380D01*
X99553656Y-57131380D02*
X99477466Y-57207571D01*
X99477466Y-57207571D02*
X99401275Y-57245666D01*
X100353657Y-57017095D02*
X100429847Y-57017095D01*
X100429847Y-57017095D02*
X100506038Y-57055190D01*
X100506038Y-57055190D02*
X100544133Y-57093285D01*
X100544133Y-57093285D02*
X100582228Y-57169476D01*
X100582228Y-57169476D02*
X100620323Y-57321857D01*
X100620323Y-57321857D02*
X100620323Y-57512333D01*
X100620323Y-57512333D02*
X100582228Y-57664714D01*
X100582228Y-57664714D02*
X100544133Y-57740904D01*
X100544133Y-57740904D02*
X100506038Y-57779000D01*
X100506038Y-57779000D02*
X100429847Y-57817095D01*
X100429847Y-57817095D02*
X100353657Y-57817095D01*
X100353657Y-57817095D02*
X100277466Y-57779000D01*
X100277466Y-57779000D02*
X100239371Y-57740904D01*
X100239371Y-57740904D02*
X100201276Y-57664714D01*
X100201276Y-57664714D02*
X100163180Y-57512333D01*
X100163180Y-57512333D02*
X100163180Y-57321857D01*
X100163180Y-57321857D02*
X100201276Y-57169476D01*
X100201276Y-57169476D02*
X100239371Y-57093285D01*
X100239371Y-57093285D02*
X100277466Y-57055190D01*
X100277466Y-57055190D02*
X100353657Y-57017095D01*
X88466648Y-71025095D02*
X88466648Y-70225095D01*
X89304743Y-70948904D02*
X89266647Y-70987000D01*
X89266647Y-70987000D02*
X89152362Y-71025095D01*
X89152362Y-71025095D02*
X89076171Y-71025095D01*
X89076171Y-71025095D02*
X88961885Y-70987000D01*
X88961885Y-70987000D02*
X88885695Y-70910809D01*
X88885695Y-70910809D02*
X88847600Y-70834619D01*
X88847600Y-70834619D02*
X88809504Y-70682238D01*
X88809504Y-70682238D02*
X88809504Y-70567952D01*
X88809504Y-70567952D02*
X88847600Y-70415571D01*
X88847600Y-70415571D02*
X88885695Y-70339380D01*
X88885695Y-70339380D02*
X88961885Y-70263190D01*
X88961885Y-70263190D02*
X89076171Y-70225095D01*
X89076171Y-70225095D02*
X89152362Y-70225095D01*
X89152362Y-70225095D02*
X89266647Y-70263190D01*
X89266647Y-70263190D02*
X89304743Y-70301285D01*
X89609504Y-70301285D02*
X89647600Y-70263190D01*
X89647600Y-70263190D02*
X89723790Y-70225095D01*
X89723790Y-70225095D02*
X89914266Y-70225095D01*
X89914266Y-70225095D02*
X89990457Y-70263190D01*
X89990457Y-70263190D02*
X90028552Y-70301285D01*
X90028552Y-70301285D02*
X90066647Y-70377476D01*
X90066647Y-70377476D02*
X90066647Y-70453666D01*
X90066647Y-70453666D02*
X90028552Y-70567952D01*
X90028552Y-70567952D02*
X89571409Y-71025095D01*
X89571409Y-71025095D02*
X90066647Y-71025095D01*
X98266267Y-51314695D02*
X97999600Y-50933742D01*
X97809124Y-51314695D02*
X97809124Y-50514695D01*
X97809124Y-50514695D02*
X98113886Y-50514695D01*
X98113886Y-50514695D02*
X98190076Y-50552790D01*
X98190076Y-50552790D02*
X98228171Y-50590885D01*
X98228171Y-50590885D02*
X98266267Y-50667076D01*
X98266267Y-50667076D02*
X98266267Y-50781361D01*
X98266267Y-50781361D02*
X98228171Y-50857552D01*
X98228171Y-50857552D02*
X98190076Y-50895647D01*
X98190076Y-50895647D02*
X98113886Y-50933742D01*
X98113886Y-50933742D02*
X97809124Y-50933742D01*
X99028171Y-51314695D02*
X98571028Y-51314695D01*
X98799600Y-51314695D02*
X98799600Y-50514695D01*
X98799600Y-50514695D02*
X98723409Y-50628980D01*
X98723409Y-50628980D02*
X98647219Y-50705171D01*
X98647219Y-50705171D02*
X98571028Y-50743266D01*
X121543867Y-55912495D02*
X121277200Y-55531542D01*
X121086724Y-55912495D02*
X121086724Y-55112495D01*
X121086724Y-55112495D02*
X121391486Y-55112495D01*
X121391486Y-55112495D02*
X121467676Y-55150590D01*
X121467676Y-55150590D02*
X121505771Y-55188685D01*
X121505771Y-55188685D02*
X121543867Y-55264876D01*
X121543867Y-55264876D02*
X121543867Y-55379161D01*
X121543867Y-55379161D02*
X121505771Y-55455352D01*
X121505771Y-55455352D02*
X121467676Y-55493447D01*
X121467676Y-55493447D02*
X121391486Y-55531542D01*
X121391486Y-55531542D02*
X121086724Y-55531542D01*
X121810533Y-55112495D02*
X122305771Y-55112495D01*
X122305771Y-55112495D02*
X122039105Y-55417257D01*
X122039105Y-55417257D02*
X122153390Y-55417257D01*
X122153390Y-55417257D02*
X122229581Y-55455352D01*
X122229581Y-55455352D02*
X122267676Y-55493447D01*
X122267676Y-55493447D02*
X122305771Y-55569638D01*
X122305771Y-55569638D02*
X122305771Y-55760114D01*
X122305771Y-55760114D02*
X122267676Y-55836304D01*
X122267676Y-55836304D02*
X122229581Y-55874400D01*
X122229581Y-55874400D02*
X122153390Y-55912495D01*
X122153390Y-55912495D02*
X121924819Y-55912495D01*
X121924819Y-55912495D02*
X121848628Y-55874400D01*
X121848628Y-55874400D02*
X121810533Y-55836304D01*
X86328267Y-62976904D02*
X86290171Y-63015000D01*
X86290171Y-63015000D02*
X86175886Y-63053095D01*
X86175886Y-63053095D02*
X86099695Y-63053095D01*
X86099695Y-63053095D02*
X85985409Y-63015000D01*
X85985409Y-63015000D02*
X85909219Y-62938809D01*
X85909219Y-62938809D02*
X85871124Y-62862619D01*
X85871124Y-62862619D02*
X85833028Y-62710238D01*
X85833028Y-62710238D02*
X85833028Y-62595952D01*
X85833028Y-62595952D02*
X85871124Y-62443571D01*
X85871124Y-62443571D02*
X85909219Y-62367380D01*
X85909219Y-62367380D02*
X85985409Y-62291190D01*
X85985409Y-62291190D02*
X86099695Y-62253095D01*
X86099695Y-62253095D02*
X86175886Y-62253095D01*
X86175886Y-62253095D02*
X86290171Y-62291190D01*
X86290171Y-62291190D02*
X86328267Y-62329285D01*
X86633028Y-62329285D02*
X86671124Y-62291190D01*
X86671124Y-62291190D02*
X86747314Y-62253095D01*
X86747314Y-62253095D02*
X86937790Y-62253095D01*
X86937790Y-62253095D02*
X87013981Y-62291190D01*
X87013981Y-62291190D02*
X87052076Y-62329285D01*
X87052076Y-62329285D02*
X87090171Y-62405476D01*
X87090171Y-62405476D02*
X87090171Y-62481666D01*
X87090171Y-62481666D02*
X87052076Y-62595952D01*
X87052076Y-62595952D02*
X86594933Y-63053095D01*
X86594933Y-63053095D02*
X87090171Y-63053095D01*
X86480667Y-57486904D02*
X86442571Y-57525000D01*
X86442571Y-57525000D02*
X86328286Y-57563095D01*
X86328286Y-57563095D02*
X86252095Y-57563095D01*
X86252095Y-57563095D02*
X86137809Y-57525000D01*
X86137809Y-57525000D02*
X86061619Y-57448809D01*
X86061619Y-57448809D02*
X86023524Y-57372619D01*
X86023524Y-57372619D02*
X85985428Y-57220238D01*
X85985428Y-57220238D02*
X85985428Y-57105952D01*
X85985428Y-57105952D02*
X86023524Y-56953571D01*
X86023524Y-56953571D02*
X86061619Y-56877380D01*
X86061619Y-56877380D02*
X86137809Y-56801190D01*
X86137809Y-56801190D02*
X86252095Y-56763095D01*
X86252095Y-56763095D02*
X86328286Y-56763095D01*
X86328286Y-56763095D02*
X86442571Y-56801190D01*
X86442571Y-56801190D02*
X86480667Y-56839285D01*
X87166381Y-57029761D02*
X87166381Y-57563095D01*
X86975905Y-56725000D02*
X86785428Y-57296428D01*
X86785428Y-57296428D02*
X87280667Y-57296428D01*
X125690361Y-81743895D02*
X125309409Y-81743895D01*
X125309409Y-81743895D02*
X125309409Y-80943895D01*
X125957028Y-81324847D02*
X126223694Y-81324847D01*
X126337980Y-81743895D02*
X125957028Y-81743895D01*
X125957028Y-81743895D02*
X125957028Y-80943895D01*
X125957028Y-80943895D02*
X126337980Y-80943895D01*
X126680838Y-81743895D02*
X126680838Y-80943895D01*
X126680838Y-80943895D02*
X126871314Y-80943895D01*
X126871314Y-80943895D02*
X126985600Y-80981990D01*
X126985600Y-80981990D02*
X127061790Y-81058180D01*
X127061790Y-81058180D02*
X127099885Y-81134371D01*
X127099885Y-81134371D02*
X127137981Y-81286752D01*
X127137981Y-81286752D02*
X127137981Y-81401038D01*
X127137981Y-81401038D02*
X127099885Y-81553419D01*
X127099885Y-81553419D02*
X127061790Y-81629609D01*
X127061790Y-81629609D02*
X126985600Y-81705800D01*
X126985600Y-81705800D02*
X126871314Y-81743895D01*
X126871314Y-81743895D02*
X126680838Y-81743895D01*
X127404647Y-80943895D02*
X127899885Y-80943895D01*
X127899885Y-80943895D02*
X127633219Y-81248657D01*
X127633219Y-81248657D02*
X127747504Y-81248657D01*
X127747504Y-81248657D02*
X127823695Y-81286752D01*
X127823695Y-81286752D02*
X127861790Y-81324847D01*
X127861790Y-81324847D02*
X127899885Y-81401038D01*
X127899885Y-81401038D02*
X127899885Y-81591514D01*
X127899885Y-81591514D02*
X127861790Y-81667704D01*
X127861790Y-81667704D02*
X127823695Y-81705800D01*
X127823695Y-81705800D02*
X127747504Y-81743895D01*
X127747504Y-81743895D02*
X127518933Y-81743895D01*
X127518933Y-81743895D02*
X127442742Y-81705800D01*
X127442742Y-81705800D02*
X127404647Y-81667704D01*
X92670267Y-53067304D02*
X92632171Y-53105400D01*
X92632171Y-53105400D02*
X92517886Y-53143495D01*
X92517886Y-53143495D02*
X92441695Y-53143495D01*
X92441695Y-53143495D02*
X92327409Y-53105400D01*
X92327409Y-53105400D02*
X92251219Y-53029209D01*
X92251219Y-53029209D02*
X92213124Y-52953019D01*
X92213124Y-52953019D02*
X92175028Y-52800638D01*
X92175028Y-52800638D02*
X92175028Y-52686352D01*
X92175028Y-52686352D02*
X92213124Y-52533971D01*
X92213124Y-52533971D02*
X92251219Y-52457780D01*
X92251219Y-52457780D02*
X92327409Y-52381590D01*
X92327409Y-52381590D02*
X92441695Y-52343495D01*
X92441695Y-52343495D02*
X92517886Y-52343495D01*
X92517886Y-52343495D02*
X92632171Y-52381590D01*
X92632171Y-52381590D02*
X92670267Y-52419685D01*
X92936933Y-52343495D02*
X93470267Y-52343495D01*
X93470267Y-52343495D02*
X93127409Y-53143495D01*
X86125067Y-74860504D02*
X86086971Y-74898600D01*
X86086971Y-74898600D02*
X85972686Y-74936695D01*
X85972686Y-74936695D02*
X85896495Y-74936695D01*
X85896495Y-74936695D02*
X85782209Y-74898600D01*
X85782209Y-74898600D02*
X85706019Y-74822409D01*
X85706019Y-74822409D02*
X85667924Y-74746219D01*
X85667924Y-74746219D02*
X85629828Y-74593838D01*
X85629828Y-74593838D02*
X85629828Y-74479552D01*
X85629828Y-74479552D02*
X85667924Y-74327171D01*
X85667924Y-74327171D02*
X85706019Y-74250980D01*
X85706019Y-74250980D02*
X85782209Y-74174790D01*
X85782209Y-74174790D02*
X85896495Y-74136695D01*
X85896495Y-74136695D02*
X85972686Y-74136695D01*
X85972686Y-74136695D02*
X86086971Y-74174790D01*
X86086971Y-74174790D02*
X86125067Y-74212885D01*
X86810781Y-74136695D02*
X86658400Y-74136695D01*
X86658400Y-74136695D02*
X86582209Y-74174790D01*
X86582209Y-74174790D02*
X86544114Y-74212885D01*
X86544114Y-74212885D02*
X86467924Y-74327171D01*
X86467924Y-74327171D02*
X86429828Y-74479552D01*
X86429828Y-74479552D02*
X86429828Y-74784314D01*
X86429828Y-74784314D02*
X86467924Y-74860504D01*
X86467924Y-74860504D02*
X86506019Y-74898600D01*
X86506019Y-74898600D02*
X86582209Y-74936695D01*
X86582209Y-74936695D02*
X86734590Y-74936695D01*
X86734590Y-74936695D02*
X86810781Y-74898600D01*
X86810781Y-74898600D02*
X86848876Y-74860504D01*
X86848876Y-74860504D02*
X86886971Y-74784314D01*
X86886971Y-74784314D02*
X86886971Y-74593838D01*
X86886971Y-74593838D02*
X86848876Y-74517647D01*
X86848876Y-74517647D02*
X86810781Y-74479552D01*
X86810781Y-74479552D02*
X86734590Y-74441457D01*
X86734590Y-74441457D02*
X86582209Y-74441457D01*
X86582209Y-74441457D02*
X86506019Y-74479552D01*
X86506019Y-74479552D02*
X86467924Y-74517647D01*
X86467924Y-74517647D02*
X86429828Y-74593838D01*
X88619048Y-62643095D02*
X88619048Y-61843095D01*
X89457143Y-62566904D02*
X89419047Y-62605000D01*
X89419047Y-62605000D02*
X89304762Y-62643095D01*
X89304762Y-62643095D02*
X89228571Y-62643095D01*
X89228571Y-62643095D02*
X89114285Y-62605000D01*
X89114285Y-62605000D02*
X89038095Y-62528809D01*
X89038095Y-62528809D02*
X89000000Y-62452619D01*
X89000000Y-62452619D02*
X88961904Y-62300238D01*
X88961904Y-62300238D02*
X88961904Y-62185952D01*
X88961904Y-62185952D02*
X89000000Y-62033571D01*
X89000000Y-62033571D02*
X89038095Y-61957380D01*
X89038095Y-61957380D02*
X89114285Y-61881190D01*
X89114285Y-61881190D02*
X89228571Y-61843095D01*
X89228571Y-61843095D02*
X89304762Y-61843095D01*
X89304762Y-61843095D02*
X89419047Y-61881190D01*
X89419047Y-61881190D02*
X89457143Y-61919285D01*
X90219047Y-62643095D02*
X89761904Y-62643095D01*
X89990476Y-62643095D02*
X89990476Y-61843095D01*
X89990476Y-61843095D02*
X89914285Y-61957380D01*
X89914285Y-61957380D02*
X89838095Y-62033571D01*
X89838095Y-62033571D02*
X89761904Y-62071666D01*
D11*
%TO.C,C3*%
X85765000Y-78140580D02*
X85765000Y-77859420D01*
X86785000Y-78140580D02*
X86785000Y-77859420D01*
%TO.C,C5*%
X88990580Y-65140000D02*
X88709420Y-65140000D01*
X88990580Y-66160000D02*
X88709420Y-66160000D01*
%TO.C,R9*%
X99906858Y-53760700D02*
X99432342Y-53760700D01*
X99906858Y-54805700D02*
X99432342Y-54805700D01*
%TO.C,R7*%
X100753142Y-83957900D02*
X101227658Y-83957900D01*
X100753142Y-85002900D02*
X101227658Y-85002900D01*
%TO.C,C1*%
X85790000Y-69090580D02*
X85790000Y-68809420D01*
X86810000Y-69090580D02*
X86810000Y-68809420D01*
%TO.C,D1*%
X91110000Y-71850000D02*
X88450000Y-71850000D01*
X91110000Y-73550000D02*
X88450000Y-73550000D01*
X91110000Y-73550000D02*
X91110000Y-71850000D01*
D12*
%TO.C,U1*%
X111569500Y-79966300D02*
X113169700Y-79966300D01*
X113169700Y-77502500D02*
X111569500Y-77502500D01*
D13*
X111394600Y-77309400D02*
G75*
G02*
X111044600Y-77309400I-175000J0D01*
G01*
X111044600Y-77309400D02*
G75*
G02*
X111394600Y-77309400I175000J0D01*
G01*
D11*
%TO.C,R4*%
X122602500Y-80187258D02*
X122602500Y-79712742D01*
X123647500Y-80187258D02*
X123647500Y-79712742D01*
%TO.C,J2*%
X101786400Y-51591900D02*
X101826400Y-56916900D01*
X109526400Y-51591900D02*
X101786400Y-51591900D01*
X109526400Y-51591900D02*
X109526400Y-56916900D01*
X109526400Y-56916900D02*
X101826400Y-56916900D01*
X112041400Y-56916900D02*
X110711400Y-56916900D01*
D14*
X112451400Y-51641900D02*
X111126400Y-51641900D01*
D11*
X112451400Y-56266900D02*
X112041400Y-56916900D01*
D14*
X112451400Y-56266900D02*
X112451400Y-51641900D01*
D11*
%TO.C,J1*%
X122675000Y-60090000D02*
X122675000Y-59520000D01*
X122675000Y-62630000D02*
X122675000Y-61610000D01*
X122675000Y-65170000D02*
X122675000Y-64150000D01*
X122675000Y-67710000D02*
X122675000Y-66690000D01*
X122675000Y-70250000D02*
X122675000Y-69230000D01*
X122675000Y-72790000D02*
X122675000Y-71770000D01*
X122675000Y-75330000D02*
X122675000Y-74310000D01*
X122675000Y-77420000D02*
X122675000Y-76850000D01*
X127875000Y-59520000D02*
X122675000Y-59520000D01*
X127875000Y-60090000D02*
X127875000Y-59520000D01*
X127875000Y-62630000D02*
X127875000Y-61610000D01*
X127875000Y-65170000D02*
X127875000Y-64150000D01*
X127875000Y-67710000D02*
X127875000Y-66690000D01*
X127875000Y-70250000D02*
X127875000Y-69230000D01*
X127875000Y-72790000D02*
X127875000Y-71770000D01*
X127875000Y-75330000D02*
X127875000Y-74310000D01*
X127875000Y-77420000D02*
X122675000Y-77420000D01*
X127875000Y-77420000D02*
X127875000Y-76850000D01*
X129315000Y-76850000D02*
X127875000Y-76850000D01*
D12*
%TO.C,LED4*%
X121161750Y-85378000D02*
X122223050Y-85378000D01*
X122298050Y-83328000D02*
X121236750Y-83328000D01*
D14*
X119452800Y-84963400D02*
X118792400Y-84303000D01*
X119452800Y-83642600D01*
X119452800Y-84963400D01*
G36*
X119452800Y-84963400D02*
G01*
X118792400Y-84303000D01*
X119452800Y-83642600D01*
X119452800Y-84963400D01*
G37*
D15*
%TO.C,IC3*%
X88650000Y-75725000D02*
X89725000Y-75725000D01*
X88650000Y-78650000D02*
X88650000Y-75725000D01*
D14*
X89250000Y-75775000D02*
X88650000Y-76400000D01*
D15*
X89725000Y-75725000D02*
X89725000Y-78650000D01*
X89725000Y-78650000D02*
X88650000Y-78650000D01*
D14*
X88625001Y-75450000D02*
G75*
G02*
X88153301Y-75450000I-235850J0D01*
G01*
X88153301Y-75450000D02*
G75*
G02*
X88625001Y-75450000I235850J0D01*
G01*
D12*
%TO.C,U2*%
X106268700Y-79954600D02*
X107868900Y-79954600D01*
X107868900Y-77490800D02*
X106268700Y-77490800D01*
D13*
X106093800Y-77297700D02*
G75*
G02*
X105743800Y-77297700I-175000J0D01*
G01*
X105743800Y-77297700D02*
G75*
G02*
X106093800Y-77297700I175000J0D01*
G01*
D11*
%TO.C,R6*%
X108169942Y-82687900D02*
X108644458Y-82687900D01*
X108169942Y-83732900D02*
X108644458Y-83732900D01*
D12*
%TO.C,U3*%
X100749100Y-79882558D02*
X102349300Y-79882558D01*
X102349300Y-77418758D02*
X100749100Y-77418758D01*
D13*
X100574200Y-77225658D02*
G75*
G02*
X100224200Y-77225658I-175000J0D01*
G01*
X100224200Y-77225658D02*
G75*
G02*
X100574200Y-77225658I175000J0D01*
G01*
D12*
%TO.C,LED5*%
X111690150Y-83041200D02*
X112751450Y-83041200D01*
X112826450Y-80991200D02*
X111765150Y-80991200D01*
D14*
X109981200Y-82626600D02*
X109320800Y-81966200D01*
X109981200Y-81305800D01*
X109981200Y-82626600D01*
G36*
X109981200Y-82626600D02*
G01*
X109320800Y-81966200D01*
X109981200Y-81305800D01*
X109981200Y-82626600D01*
G37*
D11*
%TO.C,C8*%
X112955000Y-53290000D02*
X112955000Y-56310000D01*
X112955000Y-56310000D02*
X117175000Y-56310000D01*
X117175000Y-53290000D02*
X112955000Y-53290000D01*
%TO.C,R2*%
X98179658Y-82383100D02*
X97705142Y-82383100D01*
X98179658Y-83428100D02*
X97705142Y-83428100D01*
D12*
%TO.C,LED2*%
X126069350Y-58075000D02*
X127130650Y-58075000D01*
X127205650Y-56025000D02*
X126144350Y-56025000D01*
D14*
X124360400Y-57660400D02*
X123700000Y-57000000D01*
X124360400Y-56339600D01*
X124360400Y-57660400D01*
G36*
X124360400Y-57660400D02*
G01*
X123700000Y-57000000D01*
X124360400Y-56339600D01*
X124360400Y-57660400D01*
G37*
D12*
%TO.C,LED1*%
X114994350Y-52925000D02*
X116055650Y-52925000D01*
X116130650Y-50875000D02*
X115069350Y-50875000D01*
D14*
X113285400Y-52510400D02*
X112625000Y-51850000D01*
X113285400Y-51189600D01*
X113285400Y-52510400D01*
G36*
X113285400Y-52510400D02*
G01*
X112625000Y-51850000D01*
X113285400Y-51189600D01*
X113285400Y-52510400D01*
G37*
D11*
%TO.C,R5*%
X117037742Y-83827500D02*
X117512258Y-83827500D01*
X117037742Y-84872500D02*
X117512258Y-84872500D01*
D12*
%TO.C,LED6*%
X102567550Y-82990400D02*
X103628850Y-82990400D01*
X103703850Y-80940400D02*
X102642550Y-80940400D01*
D14*
X100858600Y-82575800D02*
X100198200Y-81915400D01*
X100858600Y-81255000D01*
X100858600Y-82575800D01*
G36*
X100858600Y-82575800D02*
G01*
X100198200Y-81915400D01*
X100858600Y-81255000D01*
X100858600Y-82575800D01*
G37*
D11*
%TO.C,R8*%
X119262742Y-51377500D02*
X119737258Y-51377500D01*
X119262742Y-52422500D02*
X119737258Y-52422500D01*
%TO.C,D3*%
X92835000Y-54375000D02*
X90175000Y-54375000D01*
X92835000Y-56075000D02*
X90175000Y-56075000D01*
X92835000Y-56075000D02*
X92835000Y-54375000D01*
D12*
%TO.C,LED7*%
X93402150Y-85530400D02*
X94463450Y-85530400D01*
X94538450Y-83480400D02*
X93477150Y-83480400D01*
D14*
X91693200Y-85115800D02*
X91032800Y-84455400D01*
X91693200Y-83795000D01*
X91693200Y-85115800D01*
G36*
X91693200Y-85115800D02*
G01*
X91032800Y-84455400D01*
X91693200Y-83795000D01*
X91693200Y-85115800D01*
G37*
D11*
%TO.C,D2*%
X91185000Y-62975000D02*
X88525000Y-62975000D01*
X91185000Y-64675000D02*
X88525000Y-64675000D01*
X91185000Y-64675000D02*
X91185000Y-62975000D01*
%TO.C,R10*%
X99906858Y-55560700D02*
X99432342Y-55560700D01*
X99906858Y-56605700D02*
X99432342Y-56605700D01*
D15*
%TO.C,IC2*%
X88675000Y-66775000D02*
X89750000Y-66775000D01*
X88675000Y-69700000D02*
X88675000Y-66775000D01*
D14*
X89275000Y-66825000D02*
X88675000Y-67450000D01*
D15*
X89750000Y-66775000D02*
X89750000Y-69700000D01*
X89750000Y-69700000D02*
X88675000Y-69700000D01*
D14*
X88650001Y-66500000D02*
G75*
G02*
X88178301Y-66500000I-235850J0D01*
G01*
X88178301Y-66500000D02*
G75*
G02*
X88650001Y-66500000I235850J0D01*
G01*
D11*
%TO.C,R1*%
X98662258Y-51752500D02*
X98187742Y-51752500D01*
X98662258Y-52797500D02*
X98187742Y-52797500D01*
%TO.C,R3*%
X121687742Y-56427500D02*
X122162258Y-56427500D01*
X121687742Y-57472500D02*
X122162258Y-57472500D01*
%TO.C,C2*%
X85890000Y-60744980D02*
X85890000Y-60463820D01*
X86910000Y-60744980D02*
X86910000Y-60463820D01*
%TO.C,C4*%
X89140580Y-56640000D02*
X88859420Y-56640000D01*
X89140580Y-57660000D02*
X88859420Y-57660000D01*
D12*
%TO.C,LED3*%
X126091750Y-80650000D02*
X127153050Y-80650000D01*
X127228050Y-78600000D02*
X126166750Y-78600000D01*
D14*
X124382800Y-80235400D02*
X123722400Y-79575000D01*
X124382800Y-78914600D01*
X124382800Y-80235400D01*
G36*
X124382800Y-80235400D02*
G01*
X123722400Y-79575000D01*
X124382800Y-78914600D01*
X124382800Y-80235400D01*
G37*
D11*
%TO.C,C7*%
X93689200Y-51378000D02*
X93689200Y-55598000D01*
X96709200Y-51378000D02*
X93689200Y-51378000D01*
X96709200Y-55598000D02*
X96709200Y-51378000D01*
%TO.C,C6*%
X88840580Y-74090000D02*
X88559420Y-74090000D01*
X88840580Y-75110000D02*
X88559420Y-75110000D01*
D15*
%TO.C,IC1*%
X88751400Y-58403000D02*
X89826400Y-58403000D01*
X88751400Y-61328000D02*
X88751400Y-58403000D01*
D14*
X89351400Y-58453000D02*
X88751400Y-59078000D01*
D15*
X89826400Y-58403000D02*
X89826400Y-61328000D01*
X89826400Y-61328000D02*
X88751400Y-61328000D01*
D14*
X88726401Y-58128000D02*
G75*
G02*
X88254701Y-58128000I-235850J0D01*
G01*
X88254701Y-58128000D02*
G75*
G02*
X88726401Y-58128000I235850J0D01*
G01*
%TD*%
M02*
