%TF.GenerationSoftware,KiCad,Pcbnew,9.0.6*%
%TF.CreationDate,2025-12-26T20:18:00+00:00*%
%TF.ProjectId,PIDI-BOX-01-FRONTPANEL-1-3TE-A1,50494449-2d42-44f5-982d-30312d46524f,rev?*%
%TF.SameCoordinates,Original*%
%TF.FileFunction,Copper,L4,Bot*%
%TF.FilePolarity,Positive*%
%FSLAX46Y46*%
G04 Gerber Fmt 4.6, Leading zero omitted, Abs format (unit mm)*
G04 Created by KiCad (PCBNEW 9.0.6) date 2025-12-26 20:18:00*
%MOMM*%
%LPD*%
G01*
G04 APERTURE LIST*
%ADD10C,0.150000*%
%TA.AperFunction,NonConductor*%
%ADD11C,0.150000*%
%TD*%
%TA.AperFunction,ComponentPad*%
%ADD12R,1.700000X1.700000*%
%TD*%
%TA.AperFunction,ViaPad*%
%ADD13C,0.600000*%
%TD*%
%TA.AperFunction,ViaPad*%
%ADD14C,1.000000*%
%TD*%
%TA.AperFunction,Conductor*%
%ADD15C,0.200000*%
%TD*%
%TA.AperFunction,Conductor*%
%ADD16C,0.500000*%
%TD*%
G04 APERTURE END LIST*
D10*
D11*
X117946249Y-86432095D02*
X117946249Y-85632095D01*
X117946249Y-85632095D02*
X117679582Y-85632095D01*
X117679582Y-85632095D02*
X117612916Y-85670190D01*
X117612916Y-85670190D02*
X117579582Y-85708285D01*
X117579582Y-85708285D02*
X117546249Y-85784476D01*
X117546249Y-85784476D02*
X117546249Y-85898761D01*
X117546249Y-85898761D02*
X117579582Y-85974952D01*
X117579582Y-85974952D02*
X117612916Y-86013047D01*
X117612916Y-86013047D02*
X117679582Y-86051142D01*
X117679582Y-86051142D02*
X117946249Y-86051142D01*
X117246249Y-86432095D02*
X117246249Y-85632095D01*
X116912916Y-86432095D02*
X116912916Y-85632095D01*
X116912916Y-85632095D02*
X116746249Y-85632095D01*
X116746249Y-85632095D02*
X116646249Y-85670190D01*
X116646249Y-85670190D02*
X116579583Y-85746380D01*
X116579583Y-85746380D02*
X116546249Y-85822571D01*
X116546249Y-85822571D02*
X116512916Y-85974952D01*
X116512916Y-85974952D02*
X116512916Y-86089238D01*
X116512916Y-86089238D02*
X116546249Y-86241619D01*
X116546249Y-86241619D02*
X116579583Y-86317809D01*
X116579583Y-86317809D02*
X116646249Y-86394000D01*
X116646249Y-86394000D02*
X116746249Y-86432095D01*
X116746249Y-86432095D02*
X116912916Y-86432095D01*
X116212916Y-86432095D02*
X116212916Y-85632095D01*
X115879583Y-86127333D02*
X115346250Y-86127333D01*
X114779583Y-86013047D02*
X114679583Y-86051142D01*
X114679583Y-86051142D02*
X114646249Y-86089238D01*
X114646249Y-86089238D02*
X114612916Y-86165428D01*
X114612916Y-86165428D02*
X114612916Y-86279714D01*
X114612916Y-86279714D02*
X114646249Y-86355904D01*
X114646249Y-86355904D02*
X114679583Y-86394000D01*
X114679583Y-86394000D02*
X114746249Y-86432095D01*
X114746249Y-86432095D02*
X115012916Y-86432095D01*
X115012916Y-86432095D02*
X115012916Y-85632095D01*
X115012916Y-85632095D02*
X114779583Y-85632095D01*
X114779583Y-85632095D02*
X114712916Y-85670190D01*
X114712916Y-85670190D02*
X114679583Y-85708285D01*
X114679583Y-85708285D02*
X114646249Y-85784476D01*
X114646249Y-85784476D02*
X114646249Y-85860666D01*
X114646249Y-85860666D02*
X114679583Y-85936857D01*
X114679583Y-85936857D02*
X114712916Y-85974952D01*
X114712916Y-85974952D02*
X114779583Y-86013047D01*
X114779583Y-86013047D02*
X115012916Y-86013047D01*
X114179583Y-85632095D02*
X114046249Y-85632095D01*
X114046249Y-85632095D02*
X113979583Y-85670190D01*
X113979583Y-85670190D02*
X113912916Y-85746380D01*
X113912916Y-85746380D02*
X113879583Y-85898761D01*
X113879583Y-85898761D02*
X113879583Y-86165428D01*
X113879583Y-86165428D02*
X113912916Y-86317809D01*
X113912916Y-86317809D02*
X113979583Y-86394000D01*
X113979583Y-86394000D02*
X114046249Y-86432095D01*
X114046249Y-86432095D02*
X114179583Y-86432095D01*
X114179583Y-86432095D02*
X114246249Y-86394000D01*
X114246249Y-86394000D02*
X114312916Y-86317809D01*
X114312916Y-86317809D02*
X114346249Y-86165428D01*
X114346249Y-86165428D02*
X114346249Y-85898761D01*
X114346249Y-85898761D02*
X114312916Y-85746380D01*
X114312916Y-85746380D02*
X114246249Y-85670190D01*
X114246249Y-85670190D02*
X114179583Y-85632095D01*
X113646250Y-85632095D02*
X113179583Y-86432095D01*
X113179583Y-85632095D02*
X113646250Y-86432095D01*
X112912916Y-86127333D02*
X112379583Y-86127333D01*
X111912916Y-85632095D02*
X111846249Y-85632095D01*
X111846249Y-85632095D02*
X111779582Y-85670190D01*
X111779582Y-85670190D02*
X111746249Y-85708285D01*
X111746249Y-85708285D02*
X111712916Y-85784476D01*
X111712916Y-85784476D02*
X111679582Y-85936857D01*
X111679582Y-85936857D02*
X111679582Y-86127333D01*
X111679582Y-86127333D02*
X111712916Y-86279714D01*
X111712916Y-86279714D02*
X111746249Y-86355904D01*
X111746249Y-86355904D02*
X111779582Y-86394000D01*
X111779582Y-86394000D02*
X111846249Y-86432095D01*
X111846249Y-86432095D02*
X111912916Y-86432095D01*
X111912916Y-86432095D02*
X111979582Y-86394000D01*
X111979582Y-86394000D02*
X112012916Y-86355904D01*
X112012916Y-86355904D02*
X112046249Y-86279714D01*
X112046249Y-86279714D02*
X112079582Y-86127333D01*
X112079582Y-86127333D02*
X112079582Y-85936857D01*
X112079582Y-85936857D02*
X112046249Y-85784476D01*
X112046249Y-85784476D02*
X112012916Y-85708285D01*
X112012916Y-85708285D02*
X111979582Y-85670190D01*
X111979582Y-85670190D02*
X111912916Y-85632095D01*
X111012915Y-86432095D02*
X111412915Y-86432095D01*
X111212915Y-86432095D02*
X111212915Y-85632095D01*
X111212915Y-85632095D02*
X111279582Y-85746380D01*
X111279582Y-85746380D02*
X111346249Y-85822571D01*
X111346249Y-85822571D02*
X111412915Y-85860666D01*
X110712915Y-86127333D02*
X110179582Y-86127333D01*
X109612915Y-86013047D02*
X109846248Y-86013047D01*
X109846248Y-86432095D02*
X109846248Y-85632095D01*
X109846248Y-85632095D02*
X109512915Y-85632095D01*
X108846248Y-86432095D02*
X109079581Y-86051142D01*
X109246248Y-86432095D02*
X109246248Y-85632095D01*
X109246248Y-85632095D02*
X108979581Y-85632095D01*
X108979581Y-85632095D02*
X108912915Y-85670190D01*
X108912915Y-85670190D02*
X108879581Y-85708285D01*
X108879581Y-85708285D02*
X108846248Y-85784476D01*
X108846248Y-85784476D02*
X108846248Y-85898761D01*
X108846248Y-85898761D02*
X108879581Y-85974952D01*
X108879581Y-85974952D02*
X108912915Y-86013047D01*
X108912915Y-86013047D02*
X108979581Y-86051142D01*
X108979581Y-86051142D02*
X109246248Y-86051142D01*
X108412915Y-85632095D02*
X108279581Y-85632095D01*
X108279581Y-85632095D02*
X108212915Y-85670190D01*
X108212915Y-85670190D02*
X108146248Y-85746380D01*
X108146248Y-85746380D02*
X108112915Y-85898761D01*
X108112915Y-85898761D02*
X108112915Y-86165428D01*
X108112915Y-86165428D02*
X108146248Y-86317809D01*
X108146248Y-86317809D02*
X108212915Y-86394000D01*
X108212915Y-86394000D02*
X108279581Y-86432095D01*
X108279581Y-86432095D02*
X108412915Y-86432095D01*
X108412915Y-86432095D02*
X108479581Y-86394000D01*
X108479581Y-86394000D02*
X108546248Y-86317809D01*
X108546248Y-86317809D02*
X108579581Y-86165428D01*
X108579581Y-86165428D02*
X108579581Y-85898761D01*
X108579581Y-85898761D02*
X108546248Y-85746380D01*
X108546248Y-85746380D02*
X108479581Y-85670190D01*
X108479581Y-85670190D02*
X108412915Y-85632095D01*
X107812915Y-86432095D02*
X107812915Y-85632095D01*
X107812915Y-85632095D02*
X107412915Y-86432095D01*
X107412915Y-86432095D02*
X107412915Y-85632095D01*
X107179582Y-85632095D02*
X106779582Y-85632095D01*
X106979582Y-86432095D02*
X106979582Y-85632095D01*
X106546249Y-86432095D02*
X106546249Y-85632095D01*
X106546249Y-85632095D02*
X106279582Y-85632095D01*
X106279582Y-85632095D02*
X106212916Y-85670190D01*
X106212916Y-85670190D02*
X106179582Y-85708285D01*
X106179582Y-85708285D02*
X106146249Y-85784476D01*
X106146249Y-85784476D02*
X106146249Y-85898761D01*
X106146249Y-85898761D02*
X106179582Y-85974952D01*
X106179582Y-85974952D02*
X106212916Y-86013047D01*
X106212916Y-86013047D02*
X106279582Y-86051142D01*
X106279582Y-86051142D02*
X106546249Y-86051142D01*
X105879582Y-86203523D02*
X105546249Y-86203523D01*
X105946249Y-86432095D02*
X105712916Y-85632095D01*
X105712916Y-85632095D02*
X105479582Y-86432095D01*
X105246249Y-86432095D02*
X105246249Y-85632095D01*
X105246249Y-85632095D02*
X104846249Y-86432095D01*
X104846249Y-86432095D02*
X104846249Y-85632095D01*
X104512916Y-86013047D02*
X104279583Y-86013047D01*
X104179583Y-86432095D02*
X104512916Y-86432095D01*
X104512916Y-86432095D02*
X104512916Y-85632095D01*
X104512916Y-85632095D02*
X104179583Y-85632095D01*
X103546250Y-86432095D02*
X103879583Y-86432095D01*
X103879583Y-86432095D02*
X103879583Y-85632095D01*
X103312916Y-86127333D02*
X102779583Y-86127333D01*
X102079582Y-86432095D02*
X102479582Y-86432095D01*
X102279582Y-86432095D02*
X102279582Y-85632095D01*
X102279582Y-85632095D02*
X102346249Y-85746380D01*
X102346249Y-85746380D02*
X102412916Y-85822571D01*
X102412916Y-85822571D02*
X102479582Y-85860666D01*
X101779582Y-86127333D02*
X101246249Y-86127333D01*
X100979582Y-85632095D02*
X100546248Y-85632095D01*
X100546248Y-85632095D02*
X100779582Y-85936857D01*
X100779582Y-85936857D02*
X100679582Y-85936857D01*
X100679582Y-85936857D02*
X100612915Y-85974952D01*
X100612915Y-85974952D02*
X100579582Y-86013047D01*
X100579582Y-86013047D02*
X100546248Y-86089238D01*
X100546248Y-86089238D02*
X100546248Y-86279714D01*
X100546248Y-86279714D02*
X100579582Y-86355904D01*
X100579582Y-86355904D02*
X100612915Y-86394000D01*
X100612915Y-86394000D02*
X100679582Y-86432095D01*
X100679582Y-86432095D02*
X100879582Y-86432095D01*
X100879582Y-86432095D02*
X100946248Y-86394000D01*
X100946248Y-86394000D02*
X100979582Y-86355904D01*
X100346248Y-85632095D02*
X99946248Y-85632095D01*
X100146248Y-86432095D02*
X100146248Y-85632095D01*
X99712915Y-86013047D02*
X99479582Y-86013047D01*
X99379582Y-86432095D02*
X99712915Y-86432095D01*
X99712915Y-86432095D02*
X99712915Y-85632095D01*
X99712915Y-85632095D02*
X99379582Y-85632095D01*
X99079582Y-86127333D02*
X98546249Y-86127333D01*
X98246248Y-86203523D02*
X97912915Y-86203523D01*
X98312915Y-86432095D02*
X98079582Y-85632095D01*
X98079582Y-85632095D02*
X97846248Y-86432095D01*
X97246248Y-86432095D02*
X97646248Y-86432095D01*
X97446248Y-86432095D02*
X97446248Y-85632095D01*
X97446248Y-85632095D02*
X97512915Y-85746380D01*
X97512915Y-85746380D02*
X97579582Y-85822571D01*
X97579582Y-85822571D02*
X97646248Y-85860666D01*
D12*
%TO.P,REF\u002A\u002A,1*%
%TO.N,N/C*%
X95275400Y-79476600D03*
%TD*%
%TO.P,REF\u002A\u002A,1*%
%TO.N,N/C*%
X118745000Y-79476600D03*
%TD*%
D13*
%TO.N,GND*%
X118575000Y-54800000D03*
D14*
X125225000Y-76100000D03*
X95224600Y-56819800D03*
D13*
X101567600Y-79317458D03*
X107035600Y-79372700D03*
X112344200Y-78155800D03*
X86950000Y-55500000D03*
D14*
X112445800Y-51181000D03*
D13*
%TO.N,BUT3G16*%
X121294600Y-72288400D03*
X87096600Y-72694800D03*
%TO.N,/BUT2*%
X86300000Y-70750000D03*
%TO.N,/BUT1*%
X86400000Y-62450000D03*
%TO.N,BUT2G25*%
X87223600Y-64211200D03*
X124950000Y-68450000D03*
X97409000Y-53863800D03*
X92354400Y-63881000D03*
%TO.N,+3.3V*%
X115341400Y-56201471D03*
X100217000Y-51308000D03*
X124815600Y-65930000D03*
%TO.N,BUT1G08*%
X125012500Y-70162500D03*
X90940100Y-55184900D03*
%TO.N,+5V*%
X125500000Y-59250000D03*
X128050000Y-78075000D03*
%TO.N,G9*%
X127660400Y-64465200D03*
X127660400Y-72339200D03*
%TO.N,Net-(U1-C_TR1)*%
X121800000Y-55850000D03*
X113436400Y-76301600D03*
%TO.N,G10*%
X114598350Y-79393950D03*
X127508000Y-62077600D03*
%TO.N,G17*%
X122783600Y-64643000D03*
X108825000Y-80746600D03*
%TO.N,/BUT3*%
X86225000Y-79800000D03*
%TD*%
D15*
%TO.N,BUT3G16*%
X121294600Y-73625000D02*
X121294600Y-72288400D01*
X120472200Y-74447400D02*
X121294600Y-73625000D01*
X94937200Y-74447400D02*
X120472200Y-74447400D01*
X87096600Y-72694800D02*
X93184600Y-72694800D01*
X93184600Y-72694800D02*
X94937200Y-74447400D01*
%TO.N,/BUT1*%
X86400000Y-62450000D02*
X86400000Y-62300000D01*
%TO.N,BUT2G25*%
X97409000Y-53863800D02*
X97424800Y-53848000D01*
X123774200Y-67274200D02*
X124950000Y-68450000D01*
X97424800Y-53848000D02*
X121898000Y-53848000D01*
X121898000Y-53848000D02*
X123774200Y-55724200D01*
X87223600Y-64211200D02*
X87553800Y-63881000D01*
X87553800Y-63881000D02*
X92354400Y-63881000D01*
X123774200Y-55724200D02*
X123774200Y-67274200D01*
%TO.N,BUT1G08*%
X126125000Y-69050000D02*
X125012500Y-70162500D01*
X122250200Y-53263800D02*
X124256800Y-55270400D01*
X124256800Y-59606800D02*
X126125000Y-61475000D01*
X124256800Y-55270400D02*
X124256800Y-59606800D01*
X126125000Y-61475000D02*
X126125000Y-69050000D01*
X90940100Y-55184900D02*
X92861200Y-53263800D01*
X92861200Y-53263800D02*
X122250200Y-53263800D01*
D16*
%TO.N,+5V*%
X128575000Y-61175000D02*
X126650000Y-59250000D01*
X126650000Y-59250000D02*
X125500000Y-59250000D01*
X128050000Y-78075000D02*
X128575000Y-77550000D01*
X128575000Y-77550000D02*
X128575000Y-61175000D01*
D15*
%TO.N,G9*%
X127660400Y-64465200D02*
X127660400Y-64516000D01*
X127660400Y-72339200D02*
X127660400Y-64465200D01*
%TO.N,Net-(U1-C_TR1)*%
X113436400Y-76301600D02*
X114596800Y-76301600D01*
X114596800Y-76301600D02*
X116052600Y-77757400D01*
X116052600Y-81407000D02*
X116560600Y-81915000D01*
X116560600Y-81915000D02*
X121220428Y-81915000D01*
X121220428Y-81915000D02*
X122358200Y-80777228D01*
X122358200Y-66173400D02*
X121800000Y-65615200D01*
X121800000Y-65615200D02*
X121800000Y-55850000D01*
X116052600Y-77757400D02*
X116052600Y-81407000D01*
X122358200Y-80777228D02*
X122358200Y-66173400D01*
%TO.N,G10*%
X114598350Y-79393950D02*
X114604800Y-79400400D01*
X126847600Y-72313800D02*
X126847600Y-62738000D01*
X123444000Y-75717400D02*
X126847600Y-72313800D01*
X114604800Y-82219800D02*
X115239800Y-82854800D01*
X123444000Y-80822800D02*
X123444000Y-75717400D01*
X126847600Y-62738000D02*
X127508000Y-62077600D01*
X121412000Y-82854800D02*
X123444000Y-80822800D01*
X115239800Y-82854800D02*
X121412000Y-82854800D01*
X114604800Y-79400400D02*
X114604800Y-82219800D01*
%TO.N,G17*%
X115855800Y-82454800D02*
X121246314Y-82454800D01*
X122758200Y-80942914D02*
X122758200Y-64668400D01*
X122758200Y-64668400D02*
X122783600Y-64643000D01*
X114393600Y-77012800D02*
X115477750Y-78096950D01*
X121246314Y-82454800D02*
X122758200Y-80942914D01*
X108825000Y-80746600D02*
X108825000Y-77857000D01*
X115477750Y-78096950D02*
X115477750Y-82076750D01*
X115477750Y-82076750D02*
X115855800Y-82454800D01*
X108825000Y-77857000D02*
X109669200Y-77012800D01*
X109669200Y-77012800D02*
X114393600Y-77012800D01*
%TD*%
%TA.AperFunction,Conductor*%
%TO.N,/BUT2*%
G36*
X92688518Y-65078404D02*
G01*
X92755410Y-65098585D01*
X92800773Y-65151726D01*
X92811600Y-65202401D01*
X92811600Y-71352514D01*
X92791915Y-71419553D01*
X92739111Y-71465308D01*
X92688518Y-71476511D01*
X85773718Y-71527732D01*
X85706535Y-71508544D01*
X85660390Y-71456081D01*
X85648800Y-71403735D01*
X85648800Y-65151180D01*
X85668485Y-65084141D01*
X85721289Y-65038386D01*
X85773716Y-65027183D01*
X92688518Y-65078404D01*
G37*
%TD.AperFunction*%
%TD*%
%TA.AperFunction,Conductor*%
%TO.N,/BUT1*%
G36*
X92790413Y-56451061D02*
G01*
X92857305Y-56471242D01*
X92902668Y-56524383D01*
X92913495Y-56575058D01*
X92913495Y-62725171D01*
X92893810Y-62792210D01*
X92841006Y-62837965D01*
X92790413Y-62849168D01*
X85875613Y-62900389D01*
X85808430Y-62881201D01*
X85762285Y-62828738D01*
X85750695Y-62776392D01*
X85750695Y-56523837D01*
X85770380Y-56456798D01*
X85823184Y-56411043D01*
X85875611Y-56399840D01*
X92790413Y-56451061D01*
G37*
%TD.AperFunction*%
%TD*%
%TA.AperFunction,Conductor*%
%TO.N,/BUT3*%
G36*
X92636475Y-73749406D02*
G01*
X92703367Y-73769587D01*
X92748730Y-73822728D01*
X92759557Y-73873403D01*
X92759557Y-80023516D01*
X92739872Y-80090555D01*
X92687068Y-80136310D01*
X92636475Y-80147513D01*
X85721675Y-80198734D01*
X85654492Y-80179546D01*
X85608347Y-80127083D01*
X85596757Y-80074737D01*
X85596757Y-73822182D01*
X85616442Y-73755143D01*
X85669246Y-73709388D01*
X85721673Y-73698185D01*
X92636475Y-73749406D01*
G37*
%TD.AperFunction*%
%TD*%
M02*
