M48
; DRILL file {KiCad 9.0.6} date 2025-12-26T20:18:02+0000
; FORMAT={-:-/ absolute / metric / decimal}
; #@! TF.CreationDate,2025-12-26T20:18:02+00:00
; #@! TF.GenerationSoftware,Kicad,Pcbnew,9.0.6
; #@! TF.FileFunction,Plated,1,4,PTH
FMAT,2
METRIC
; #@! TA.AperFunction,Plated,PTH,ViaDrill
T1C0.300
; #@! TA.AperFunction,Plated,PTH,ViaDrill
T2C0.500
; #@! TA.AperFunction,Plated,PTH,ComponentDrill
T3C1.000
%
G90
G05
T1
X86.225Y-79.8
X86.3Y-70.75
X86.4Y-62.45
X86.95Y-55.5
X87.097Y-72.695
X87.224Y-64.211
X90.94Y-55.185
X92.354Y-63.881
X97.409Y-53.864
X100.217Y-51.308
X101.568Y-79.317
X107.036Y-79.373
X108.825Y-80.747
X112.344Y-78.156
X113.436Y-76.302
X114.598Y-79.394
X115.341Y-56.201
X118.575Y-54.8
X121.295Y-72.288
X121.8Y-55.85
X122.784Y-64.643
X124.816Y-65.93
X124.95Y-68.45
X125.012Y-70.162
X125.5Y-59.25
X127.508Y-62.078
X127.66Y-64.465
X127.66Y-72.339
X128.05Y-78.075
T2
X95.225Y-56.82
X112.446Y-51.181
X125.225Y-76.1
T3
X95.275Y-79.477
X118.745Y-79.477
M30
