%TF.GenerationSoftware,KiCad,Pcbnew,9.0.6*%
%TF.CreationDate,2025-12-26T20:18:00+00:00*%
%TF.ProjectId,PIDI-BOX-01-FRONTPANEL-1-3TE-A1,50494449-2d42-44f5-982d-30312d46524f,rev?*%
%TF.SameCoordinates,Original*%
%TF.FileFunction,Legend,Bot*%
%TF.FilePolarity,Positive*%
%FSLAX46Y46*%
G04 Gerber Fmt 4.6, Leading zero omitted, Abs format (unit mm)*
G04 Created by KiCad (PCBNEW 9.0.6) date 2025-12-26 20:18:00*
%MOMM*%
%LPD*%
G01*
G04 APERTURE LIST*
%ADD10C,0.100000*%
%ADD11C,0.300000*%
%ADD12C,0.150000*%
G04 APERTURE END LIST*
D10*
X85850000Y-56450000D02*
X92900000Y-56450000D01*
X92900000Y-62900000D01*
X85850000Y-62900000D01*
X85850000Y-56450000D01*
X85700000Y-65050000D02*
X92800000Y-65050000D01*
X92800000Y-71450000D01*
X85700000Y-71450000D01*
X85700000Y-65050000D01*
X85650000Y-73700000D02*
X92800000Y-73700000D01*
X92800000Y-80250000D01*
X85650000Y-80250000D01*
X85650000Y-73700000D01*
D11*
X89466917Y-67393685D02*
X89395489Y-67322257D01*
X89395489Y-67322257D02*
X89252632Y-67250828D01*
X89252632Y-67250828D02*
X88895489Y-67250828D01*
X88895489Y-67250828D02*
X88752632Y-67322257D01*
X88752632Y-67322257D02*
X88681203Y-67393685D01*
X88681203Y-67393685D02*
X88609774Y-67536542D01*
X88609774Y-67536542D02*
X88609774Y-67679400D01*
X88609774Y-67679400D02*
X88681203Y-67893685D01*
X88681203Y-67893685D02*
X89538346Y-68750828D01*
X89538346Y-68750828D02*
X88609774Y-68750828D01*
D12*
X116406438Y-54108695D02*
X116787390Y-54108695D01*
X116787390Y-54108695D02*
X116787390Y-53308695D01*
X116139771Y-53689647D02*
X115873105Y-53689647D01*
X115758819Y-54108695D02*
X116139771Y-54108695D01*
X116139771Y-54108695D02*
X116139771Y-53308695D01*
X116139771Y-53308695D02*
X115758819Y-53308695D01*
X115415961Y-54108695D02*
X115415961Y-53308695D01*
X115415961Y-53308695D02*
X115225485Y-53308695D01*
X115225485Y-53308695D02*
X115111199Y-53346790D01*
X115111199Y-53346790D02*
X115035009Y-53422980D01*
X115035009Y-53422980D02*
X114996914Y-53499171D01*
X114996914Y-53499171D02*
X114958818Y-53651552D01*
X114958818Y-53651552D02*
X114958818Y-53765838D01*
X114958818Y-53765838D02*
X114996914Y-53918219D01*
X114996914Y-53918219D02*
X115035009Y-53994409D01*
X115035009Y-53994409D02*
X115111199Y-54070600D01*
X115111199Y-54070600D02*
X115225485Y-54108695D01*
X115225485Y-54108695D02*
X115415961Y-54108695D01*
X114196914Y-54108695D02*
X114654057Y-54108695D01*
X114425485Y-54108695D02*
X114425485Y-53308695D01*
X114425485Y-53308695D02*
X114501676Y-53422980D01*
X114501676Y-53422980D02*
X114577866Y-53499171D01*
X114577866Y-53499171D02*
X114654057Y-53537266D01*
X127277638Y-78035495D02*
X127658590Y-78035495D01*
X127658590Y-78035495D02*
X127658590Y-77235495D01*
X127010971Y-77616447D02*
X126744305Y-77616447D01*
X126630019Y-78035495D02*
X127010971Y-78035495D01*
X127010971Y-78035495D02*
X127010971Y-77235495D01*
X127010971Y-77235495D02*
X126630019Y-77235495D01*
X126287161Y-78035495D02*
X126287161Y-77235495D01*
X126287161Y-77235495D02*
X126096685Y-77235495D01*
X126096685Y-77235495D02*
X125982399Y-77273590D01*
X125982399Y-77273590D02*
X125906209Y-77349780D01*
X125906209Y-77349780D02*
X125868114Y-77425971D01*
X125868114Y-77425971D02*
X125830018Y-77578352D01*
X125830018Y-77578352D02*
X125830018Y-77692638D01*
X125830018Y-77692638D02*
X125868114Y-77845019D01*
X125868114Y-77845019D02*
X125906209Y-77921209D01*
X125906209Y-77921209D02*
X125982399Y-77997400D01*
X125982399Y-77997400D02*
X126096685Y-78035495D01*
X126096685Y-78035495D02*
X126287161Y-78035495D01*
X125563352Y-77235495D02*
X125068114Y-77235495D01*
X125068114Y-77235495D02*
X125334780Y-77540257D01*
X125334780Y-77540257D02*
X125220495Y-77540257D01*
X125220495Y-77540257D02*
X125144304Y-77578352D01*
X125144304Y-77578352D02*
X125106209Y-77616447D01*
X125106209Y-77616447D02*
X125068114Y-77692638D01*
X125068114Y-77692638D02*
X125068114Y-77883114D01*
X125068114Y-77883114D02*
X125106209Y-77959304D01*
X125106209Y-77959304D02*
X125144304Y-77997400D01*
X125144304Y-77997400D02*
X125220495Y-78035495D01*
X125220495Y-78035495D02*
X125449066Y-78035495D01*
X125449066Y-78035495D02*
X125525257Y-77997400D01*
X125525257Y-77997400D02*
X125563352Y-77959304D01*
X112952038Y-84588695D02*
X113332990Y-84588695D01*
X113332990Y-84588695D02*
X113332990Y-83788695D01*
X112685371Y-84169647D02*
X112418705Y-84169647D01*
X112304419Y-84588695D02*
X112685371Y-84588695D01*
X112685371Y-84588695D02*
X112685371Y-83788695D01*
X112685371Y-83788695D02*
X112304419Y-83788695D01*
X111961561Y-84588695D02*
X111961561Y-83788695D01*
X111961561Y-83788695D02*
X111771085Y-83788695D01*
X111771085Y-83788695D02*
X111656799Y-83826790D01*
X111656799Y-83826790D02*
X111580609Y-83902980D01*
X111580609Y-83902980D02*
X111542514Y-83979171D01*
X111542514Y-83979171D02*
X111504418Y-84131552D01*
X111504418Y-84131552D02*
X111504418Y-84245838D01*
X111504418Y-84245838D02*
X111542514Y-84398219D01*
X111542514Y-84398219D02*
X111580609Y-84474409D01*
X111580609Y-84474409D02*
X111656799Y-84550600D01*
X111656799Y-84550600D02*
X111771085Y-84588695D01*
X111771085Y-84588695D02*
X111961561Y-84588695D01*
X110780609Y-83788695D02*
X111161561Y-83788695D01*
X111161561Y-83788695D02*
X111199657Y-84169647D01*
X111199657Y-84169647D02*
X111161561Y-84131552D01*
X111161561Y-84131552D02*
X111085371Y-84093457D01*
X111085371Y-84093457D02*
X110894895Y-84093457D01*
X110894895Y-84093457D02*
X110818704Y-84131552D01*
X110818704Y-84131552D02*
X110780609Y-84169647D01*
X110780609Y-84169647D02*
X110742514Y-84245838D01*
X110742514Y-84245838D02*
X110742514Y-84436314D01*
X110742514Y-84436314D02*
X110780609Y-84512504D01*
X110780609Y-84512504D02*
X110818704Y-84550600D01*
X110818704Y-84550600D02*
X110894895Y-84588695D01*
X110894895Y-84588695D02*
X111085371Y-84588695D01*
X111085371Y-84588695D02*
X111161561Y-84550600D01*
X111161561Y-84550600D02*
X111199657Y-84512504D01*
X95070438Y-82963095D02*
X95451390Y-82963095D01*
X95451390Y-82963095D02*
X95451390Y-82163095D01*
X94803771Y-82544047D02*
X94537105Y-82544047D01*
X94422819Y-82963095D02*
X94803771Y-82963095D01*
X94803771Y-82963095D02*
X94803771Y-82163095D01*
X94803771Y-82163095D02*
X94422819Y-82163095D01*
X94079961Y-82963095D02*
X94079961Y-82163095D01*
X94079961Y-82163095D02*
X93889485Y-82163095D01*
X93889485Y-82163095D02*
X93775199Y-82201190D01*
X93775199Y-82201190D02*
X93699009Y-82277380D01*
X93699009Y-82277380D02*
X93660914Y-82353571D01*
X93660914Y-82353571D02*
X93622818Y-82505952D01*
X93622818Y-82505952D02*
X93622818Y-82620238D01*
X93622818Y-82620238D02*
X93660914Y-82772619D01*
X93660914Y-82772619D02*
X93699009Y-82848809D01*
X93699009Y-82848809D02*
X93775199Y-82925000D01*
X93775199Y-82925000D02*
X93889485Y-82963095D01*
X93889485Y-82963095D02*
X94079961Y-82963095D01*
X93356152Y-82163095D02*
X92822818Y-82163095D01*
X92822818Y-82163095D02*
X93165676Y-82963095D01*
D11*
X88659774Y-60250828D02*
X89516917Y-60250828D01*
X89088346Y-60250828D02*
X89088346Y-58750828D01*
X89088346Y-58750828D02*
X89231203Y-58965114D01*
X89231203Y-58965114D02*
X89374060Y-59107971D01*
X89374060Y-59107971D02*
X89516917Y-59179400D01*
X89238346Y-76200828D02*
X88309774Y-76200828D01*
X88309774Y-76200828D02*
X88809774Y-76772257D01*
X88809774Y-76772257D02*
X88595489Y-76772257D01*
X88595489Y-76772257D02*
X88452632Y-76843685D01*
X88452632Y-76843685D02*
X88381203Y-76915114D01*
X88381203Y-76915114D02*
X88309774Y-77057971D01*
X88309774Y-77057971D02*
X88309774Y-77415114D01*
X88309774Y-77415114D02*
X88381203Y-77557971D01*
X88381203Y-77557971D02*
X88452632Y-77629400D01*
X88452632Y-77629400D02*
X88595489Y-77700828D01*
X88595489Y-77700828D02*
X89024060Y-77700828D01*
X89024060Y-77700828D02*
X89166917Y-77629400D01*
X89166917Y-77629400D02*
X89238346Y-77557971D01*
D12*
X127430038Y-59544295D02*
X127810990Y-59544295D01*
X127810990Y-59544295D02*
X127810990Y-58744295D01*
X127163371Y-59125247D02*
X126896705Y-59125247D01*
X126782419Y-59544295D02*
X127163371Y-59544295D01*
X127163371Y-59544295D02*
X127163371Y-58744295D01*
X127163371Y-58744295D02*
X126782419Y-58744295D01*
X126439561Y-59544295D02*
X126439561Y-58744295D01*
X126439561Y-58744295D02*
X126249085Y-58744295D01*
X126249085Y-58744295D02*
X126134799Y-58782390D01*
X126134799Y-58782390D02*
X126058609Y-58858580D01*
X126058609Y-58858580D02*
X126020514Y-58934771D01*
X126020514Y-58934771D02*
X125982418Y-59087152D01*
X125982418Y-59087152D02*
X125982418Y-59201438D01*
X125982418Y-59201438D02*
X126020514Y-59353819D01*
X126020514Y-59353819D02*
X126058609Y-59430009D01*
X126058609Y-59430009D02*
X126134799Y-59506200D01*
X126134799Y-59506200D02*
X126249085Y-59544295D01*
X126249085Y-59544295D02*
X126439561Y-59544295D01*
X125677657Y-58820485D02*
X125639561Y-58782390D01*
X125639561Y-58782390D02*
X125563371Y-58744295D01*
X125563371Y-58744295D02*
X125372895Y-58744295D01*
X125372895Y-58744295D02*
X125296704Y-58782390D01*
X125296704Y-58782390D02*
X125258609Y-58820485D01*
X125258609Y-58820485D02*
X125220514Y-58896676D01*
X125220514Y-58896676D02*
X125220514Y-58972866D01*
X125220514Y-58972866D02*
X125258609Y-59087152D01*
X125258609Y-59087152D02*
X125715752Y-59544295D01*
X125715752Y-59544295D02*
X125220514Y-59544295D01*
X104112838Y-84131495D02*
X104493790Y-84131495D01*
X104493790Y-84131495D02*
X104493790Y-83331495D01*
X103846171Y-83712447D02*
X103579505Y-83712447D01*
X103465219Y-84131495D02*
X103846171Y-84131495D01*
X103846171Y-84131495D02*
X103846171Y-83331495D01*
X103846171Y-83331495D02*
X103465219Y-83331495D01*
X103122361Y-84131495D02*
X103122361Y-83331495D01*
X103122361Y-83331495D02*
X102931885Y-83331495D01*
X102931885Y-83331495D02*
X102817599Y-83369590D01*
X102817599Y-83369590D02*
X102741409Y-83445780D01*
X102741409Y-83445780D02*
X102703314Y-83521971D01*
X102703314Y-83521971D02*
X102665218Y-83674352D01*
X102665218Y-83674352D02*
X102665218Y-83788638D01*
X102665218Y-83788638D02*
X102703314Y-83941019D01*
X102703314Y-83941019D02*
X102741409Y-84017209D01*
X102741409Y-84017209D02*
X102817599Y-84093400D01*
X102817599Y-84093400D02*
X102931885Y-84131495D01*
X102931885Y-84131495D02*
X103122361Y-84131495D01*
X101979504Y-83331495D02*
X102131885Y-83331495D01*
X102131885Y-83331495D02*
X102208076Y-83369590D01*
X102208076Y-83369590D02*
X102246171Y-83407685D01*
X102246171Y-83407685D02*
X102322361Y-83521971D01*
X102322361Y-83521971D02*
X102360457Y-83674352D01*
X102360457Y-83674352D02*
X102360457Y-83979114D01*
X102360457Y-83979114D02*
X102322361Y-84055304D01*
X102322361Y-84055304D02*
X102284266Y-84093400D01*
X102284266Y-84093400D02*
X102208076Y-84131495D01*
X102208076Y-84131495D02*
X102055695Y-84131495D01*
X102055695Y-84131495D02*
X101979504Y-84093400D01*
X101979504Y-84093400D02*
X101941409Y-84055304D01*
X101941409Y-84055304D02*
X101903314Y-83979114D01*
X101903314Y-83979114D02*
X101903314Y-83788638D01*
X101903314Y-83788638D02*
X101941409Y-83712447D01*
X101941409Y-83712447D02*
X101979504Y-83674352D01*
X101979504Y-83674352D02*
X102055695Y-83636257D01*
X102055695Y-83636257D02*
X102208076Y-83636257D01*
X102208076Y-83636257D02*
X102284266Y-83674352D01*
X102284266Y-83674352D02*
X102322361Y-83712447D01*
X102322361Y-83712447D02*
X102360457Y-83788638D01*
X122400838Y-82556695D02*
X122781790Y-82556695D01*
X122781790Y-82556695D02*
X122781790Y-81756695D01*
X122134171Y-82137647D02*
X121867505Y-82137647D01*
X121753219Y-82556695D02*
X122134171Y-82556695D01*
X122134171Y-82556695D02*
X122134171Y-81756695D01*
X122134171Y-81756695D02*
X121753219Y-81756695D01*
X121410361Y-82556695D02*
X121410361Y-81756695D01*
X121410361Y-81756695D02*
X121219885Y-81756695D01*
X121219885Y-81756695D02*
X121105599Y-81794790D01*
X121105599Y-81794790D02*
X121029409Y-81870980D01*
X121029409Y-81870980D02*
X120991314Y-81947171D01*
X120991314Y-81947171D02*
X120953218Y-82099552D01*
X120953218Y-82099552D02*
X120953218Y-82213838D01*
X120953218Y-82213838D02*
X120991314Y-82366219D01*
X120991314Y-82366219D02*
X121029409Y-82442409D01*
X121029409Y-82442409D02*
X121105599Y-82518600D01*
X121105599Y-82518600D02*
X121219885Y-82556695D01*
X121219885Y-82556695D02*
X121410361Y-82556695D01*
X120267504Y-82023361D02*
X120267504Y-82556695D01*
X120457980Y-81718600D02*
X120648457Y-82290028D01*
X120648457Y-82290028D02*
X120153218Y-82290028D01*
M02*
