%TF.GenerationSoftware,KiCad,Pcbnew,9.0.6*%
%TF.CreationDate,2025-12-26T20:18:00+00:00*%
%TF.ProjectId,PIDI-BOX-01-FRONTPANEL-1-3TE-A1,50494449-2d42-44f5-982d-30312d46524f,rev?*%
%TF.SameCoordinates,Original*%
%TF.FileFunction,Copper,L1,Top*%
%TF.FilePolarity,Positive*%
%FSLAX46Y46*%
G04 Gerber Fmt 4.6, Leading zero omitted, Abs format (unit mm)*
G04 Created by KiCad (PCBNEW 9.0.6) date 2025-12-26 20:18:00*
%MOMM*%
%LPD*%
G01*
G04 APERTURE LIST*
G04 Aperture macros list*
%AMRoundRect*
0 Rectangle with rounded corners*
0 $1 Rounding radius*
0 $2 $3 $4 $5 $6 $7 $8 $9 X,Y pos of 4 corners*
0 Add a 4 corners polygon primitive as box body*
4,1,4,$2,$3,$4,$5,$6,$7,$8,$9,$2,$3,0*
0 Add four circle primitives for the rounded corners*
1,1,$1+$1,$2,$3*
1,1,$1+$1,$4,$5*
1,1,$1+$1,$6,$7*
1,1,$1+$1,$8,$9*
0 Add four rect primitives between the rounded corners*
20,1,$1+$1,$2,$3,$4,$5,0*
20,1,$1+$1,$4,$5,$6,$7,0*
20,1,$1+$1,$6,$7,$8,$9,0*
20,1,$1+$1,$8,$9,$2,$3,0*%
G04 Aperture macros list end*
%ADD10C,0.150000*%
%TA.AperFunction,NonConductor*%
%ADD11C,0.150000*%
%TD*%
%TA.AperFunction,SMDPad,CuDef*%
%ADD12RoundRect,0.225000X0.250000X-0.225000X0.250000X0.225000X-0.250000X0.225000X-0.250000X-0.225000X0*%
%TD*%
%TA.AperFunction,SMDPad,CuDef*%
%ADD13RoundRect,0.225000X0.225000X0.250000X-0.225000X0.250000X-0.225000X-0.250000X0.225000X-0.250000X0*%
%TD*%
%TA.AperFunction,SMDPad,CuDef*%
%ADD14RoundRect,0.200000X0.200000X0.275000X-0.200000X0.275000X-0.200000X-0.275000X0.200000X-0.275000X0*%
%TD*%
%TA.AperFunction,SMDPad,CuDef*%
%ADD15RoundRect,0.200000X-0.200000X-0.275000X0.200000X-0.275000X0.200000X0.275000X-0.200000X0.275000X0*%
%TD*%
%TA.AperFunction,SMDPad,CuDef*%
%ADD16RoundRect,0.125000X0.125000X0.125000X-0.125000X0.125000X-0.125000X-0.125000X0.125000X-0.125000X0*%
%TD*%
%TA.AperFunction,SMDPad,CuDef*%
%ADD17R,0.787400X0.355600*%
%TD*%
%TA.AperFunction,SMDPad,CuDef*%
%ADD18RoundRect,0.200000X0.275000X-0.200000X0.275000X0.200000X-0.275000X0.200000X-0.275000X-0.200000X0*%
%TD*%
%TA.AperFunction,SMDPad,CuDef*%
%ADD19R,1.700000X5.000000*%
%TD*%
%TA.AperFunction,SMDPad,CuDef*%
%ADD20R,3.150000X1.000000*%
%TD*%
%TA.AperFunction,SMDPad,CuDef*%
%ADD21R,1.008000X1.701800*%
%TD*%
%TA.AperFunction,SMDPad,CuDef*%
%ADD22R,1.016000X1.701800*%
%TD*%
%TA.AperFunction,SMDPad,CuDef*%
%ADD23R,1.150000X0.600000*%
%TD*%
%TA.AperFunction,SMDPad,CuDef*%
%ADD24RoundRect,0.250000X-0.420000X-0.945000X0.420000X-0.945000X0.420000X0.945000X-0.420000X0.945000X0*%
%TD*%
%TA.AperFunction,ComponentPad*%
%ADD25R,1.700000X1.700000*%
%TD*%
%TA.AperFunction,SMDPad,CuDef*%
%ADD26RoundRect,0.250000X-0.945000X0.420000X-0.945000X-0.420000X0.945000X-0.420000X0.945000X0.420000X0*%
%TD*%
%TA.AperFunction,ViaPad*%
%ADD27C,0.600000*%
%TD*%
%TA.AperFunction,ViaPad*%
%ADD28C,1.000000*%
%TD*%
%TA.AperFunction,Conductor*%
%ADD29C,0.400000*%
%TD*%
%TA.AperFunction,Conductor*%
%ADD30C,0.500000*%
%TD*%
%TA.AperFunction,Conductor*%
%ADD31C,0.200000*%
%TD*%
%TA.AperFunction,Conductor*%
%ADD32C,1.000000*%
%TD*%
%TA.AperFunction,Conductor*%
%ADD33C,0.300000*%
%TD*%
G04 APERTURE END LIST*
D10*
D11*
X96929750Y-74023733D02*
X96929750Y-73323733D01*
X96929750Y-73323733D02*
X97196417Y-73323733D01*
X97196417Y-73323733D02*
X97263084Y-73357066D01*
X97263084Y-73357066D02*
X97296417Y-73390400D01*
X97296417Y-73390400D02*
X97329750Y-73457066D01*
X97329750Y-73457066D02*
X97329750Y-73557066D01*
X97329750Y-73557066D02*
X97296417Y-73623733D01*
X97296417Y-73623733D02*
X97263084Y-73657066D01*
X97263084Y-73657066D02*
X97196417Y-73690400D01*
X97196417Y-73690400D02*
X96929750Y-73690400D01*
X97629750Y-74023733D02*
X97629750Y-73323733D01*
X97963083Y-74023733D02*
X97963083Y-73323733D01*
X97963083Y-73323733D02*
X98129750Y-73323733D01*
X98129750Y-73323733D02*
X98229750Y-73357066D01*
X98229750Y-73357066D02*
X98296417Y-73423733D01*
X98296417Y-73423733D02*
X98329750Y-73490400D01*
X98329750Y-73490400D02*
X98363083Y-73623733D01*
X98363083Y-73623733D02*
X98363083Y-73723733D01*
X98363083Y-73723733D02*
X98329750Y-73857066D01*
X98329750Y-73857066D02*
X98296417Y-73923733D01*
X98296417Y-73923733D02*
X98229750Y-73990400D01*
X98229750Y-73990400D02*
X98129750Y-74023733D01*
X98129750Y-74023733D02*
X97963083Y-74023733D01*
X98663083Y-74023733D02*
X98663083Y-73323733D01*
X98996416Y-73757066D02*
X99529750Y-73757066D01*
X100096417Y-73657066D02*
X100196417Y-73690400D01*
X100196417Y-73690400D02*
X100229750Y-73723733D01*
X100229750Y-73723733D02*
X100263083Y-73790400D01*
X100263083Y-73790400D02*
X100263083Y-73890400D01*
X100263083Y-73890400D02*
X100229750Y-73957066D01*
X100229750Y-73957066D02*
X100196417Y-73990400D01*
X100196417Y-73990400D02*
X100129750Y-74023733D01*
X100129750Y-74023733D02*
X99863083Y-74023733D01*
X99863083Y-74023733D02*
X99863083Y-73323733D01*
X99863083Y-73323733D02*
X100096417Y-73323733D01*
X100096417Y-73323733D02*
X100163083Y-73357066D01*
X100163083Y-73357066D02*
X100196417Y-73390400D01*
X100196417Y-73390400D02*
X100229750Y-73457066D01*
X100229750Y-73457066D02*
X100229750Y-73523733D01*
X100229750Y-73523733D02*
X100196417Y-73590400D01*
X100196417Y-73590400D02*
X100163083Y-73623733D01*
X100163083Y-73623733D02*
X100096417Y-73657066D01*
X100096417Y-73657066D02*
X99863083Y-73657066D01*
X100696417Y-73323733D02*
X100829750Y-73323733D01*
X100829750Y-73323733D02*
X100896417Y-73357066D01*
X100896417Y-73357066D02*
X100963083Y-73423733D01*
X100963083Y-73423733D02*
X100996417Y-73557066D01*
X100996417Y-73557066D02*
X100996417Y-73790400D01*
X100996417Y-73790400D02*
X100963083Y-73923733D01*
X100963083Y-73923733D02*
X100896417Y-73990400D01*
X100896417Y-73990400D02*
X100829750Y-74023733D01*
X100829750Y-74023733D02*
X100696417Y-74023733D01*
X100696417Y-74023733D02*
X100629750Y-73990400D01*
X100629750Y-73990400D02*
X100563083Y-73923733D01*
X100563083Y-73923733D02*
X100529750Y-73790400D01*
X100529750Y-73790400D02*
X100529750Y-73557066D01*
X100529750Y-73557066D02*
X100563083Y-73423733D01*
X100563083Y-73423733D02*
X100629750Y-73357066D01*
X100629750Y-73357066D02*
X100696417Y-73323733D01*
X101229750Y-73323733D02*
X101696416Y-74023733D01*
X101696416Y-73323733D02*
X101229750Y-74023733D01*
X101963083Y-73757066D02*
X102496417Y-73757066D01*
X102963084Y-73323733D02*
X103029750Y-73323733D01*
X103029750Y-73323733D02*
X103096417Y-73357066D01*
X103096417Y-73357066D02*
X103129750Y-73390400D01*
X103129750Y-73390400D02*
X103163084Y-73457066D01*
X103163084Y-73457066D02*
X103196417Y-73590400D01*
X103196417Y-73590400D02*
X103196417Y-73757066D01*
X103196417Y-73757066D02*
X103163084Y-73890400D01*
X103163084Y-73890400D02*
X103129750Y-73957066D01*
X103129750Y-73957066D02*
X103096417Y-73990400D01*
X103096417Y-73990400D02*
X103029750Y-74023733D01*
X103029750Y-74023733D02*
X102963084Y-74023733D01*
X102963084Y-74023733D02*
X102896417Y-73990400D01*
X102896417Y-73990400D02*
X102863084Y-73957066D01*
X102863084Y-73957066D02*
X102829750Y-73890400D01*
X102829750Y-73890400D02*
X102796417Y-73757066D01*
X102796417Y-73757066D02*
X102796417Y-73590400D01*
X102796417Y-73590400D02*
X102829750Y-73457066D01*
X102829750Y-73457066D02*
X102863084Y-73390400D01*
X102863084Y-73390400D02*
X102896417Y-73357066D01*
X102896417Y-73357066D02*
X102963084Y-73323733D01*
X103863084Y-74023733D02*
X103463084Y-74023733D01*
X103663084Y-74023733D02*
X103663084Y-73323733D01*
X103663084Y-73323733D02*
X103596417Y-73423733D01*
X103596417Y-73423733D02*
X103529751Y-73490400D01*
X103529751Y-73490400D02*
X103463084Y-73523733D01*
X104163084Y-73757066D02*
X104696418Y-73757066D01*
X105263085Y-73657066D02*
X105029751Y-73657066D01*
X105029751Y-74023733D02*
X105029751Y-73323733D01*
X105029751Y-73323733D02*
X105363085Y-73323733D01*
X106029751Y-74023733D02*
X105796418Y-73690400D01*
X105629751Y-74023733D02*
X105629751Y-73323733D01*
X105629751Y-73323733D02*
X105896418Y-73323733D01*
X105896418Y-73323733D02*
X105963085Y-73357066D01*
X105963085Y-73357066D02*
X105996418Y-73390400D01*
X105996418Y-73390400D02*
X106029751Y-73457066D01*
X106029751Y-73457066D02*
X106029751Y-73557066D01*
X106029751Y-73557066D02*
X105996418Y-73623733D01*
X105996418Y-73623733D02*
X105963085Y-73657066D01*
X105963085Y-73657066D02*
X105896418Y-73690400D01*
X105896418Y-73690400D02*
X105629751Y-73690400D01*
X106463085Y-73323733D02*
X106596418Y-73323733D01*
X106596418Y-73323733D02*
X106663085Y-73357066D01*
X106663085Y-73357066D02*
X106729751Y-73423733D01*
X106729751Y-73423733D02*
X106763085Y-73557066D01*
X106763085Y-73557066D02*
X106763085Y-73790400D01*
X106763085Y-73790400D02*
X106729751Y-73923733D01*
X106729751Y-73923733D02*
X106663085Y-73990400D01*
X106663085Y-73990400D02*
X106596418Y-74023733D01*
X106596418Y-74023733D02*
X106463085Y-74023733D01*
X106463085Y-74023733D02*
X106396418Y-73990400D01*
X106396418Y-73990400D02*
X106329751Y-73923733D01*
X106329751Y-73923733D02*
X106296418Y-73790400D01*
X106296418Y-73790400D02*
X106296418Y-73557066D01*
X106296418Y-73557066D02*
X106329751Y-73423733D01*
X106329751Y-73423733D02*
X106396418Y-73357066D01*
X106396418Y-73357066D02*
X106463085Y-73323733D01*
X107063084Y-74023733D02*
X107063084Y-73323733D01*
X107063084Y-73323733D02*
X107463084Y-74023733D01*
X107463084Y-74023733D02*
X107463084Y-73323733D01*
X107696417Y-73323733D02*
X108096417Y-73323733D01*
X107896417Y-74023733D02*
X107896417Y-73323733D01*
X108329750Y-74023733D02*
X108329750Y-73323733D01*
X108329750Y-73323733D02*
X108596417Y-73323733D01*
X108596417Y-73323733D02*
X108663084Y-73357066D01*
X108663084Y-73357066D02*
X108696417Y-73390400D01*
X108696417Y-73390400D02*
X108729750Y-73457066D01*
X108729750Y-73457066D02*
X108729750Y-73557066D01*
X108729750Y-73557066D02*
X108696417Y-73623733D01*
X108696417Y-73623733D02*
X108663084Y-73657066D01*
X108663084Y-73657066D02*
X108596417Y-73690400D01*
X108596417Y-73690400D02*
X108329750Y-73690400D01*
X108996417Y-73823733D02*
X109329750Y-73823733D01*
X108929750Y-74023733D02*
X109163084Y-73323733D01*
X109163084Y-73323733D02*
X109396417Y-74023733D01*
X109629750Y-74023733D02*
X109629750Y-73323733D01*
X109629750Y-73323733D02*
X110029750Y-74023733D01*
X110029750Y-74023733D02*
X110029750Y-73323733D01*
X110363083Y-73657066D02*
X110596417Y-73657066D01*
X110696417Y-74023733D02*
X110363083Y-74023733D01*
X110363083Y-74023733D02*
X110363083Y-73323733D01*
X110363083Y-73323733D02*
X110696417Y-73323733D01*
X111329750Y-74023733D02*
X110996416Y-74023733D01*
X110996416Y-74023733D02*
X110996416Y-73323733D01*
X111563083Y-73757066D02*
X112096417Y-73757066D01*
X112796417Y-74023733D02*
X112396417Y-74023733D01*
X112596417Y-74023733D02*
X112596417Y-73323733D01*
X112596417Y-73323733D02*
X112529750Y-73423733D01*
X112529750Y-73423733D02*
X112463084Y-73490400D01*
X112463084Y-73490400D02*
X112396417Y-73523733D01*
X113096417Y-73757066D02*
X113629751Y-73757066D01*
X113896418Y-73323733D02*
X114329751Y-73323733D01*
X114329751Y-73323733D02*
X114096418Y-73590400D01*
X114096418Y-73590400D02*
X114196418Y-73590400D01*
X114196418Y-73590400D02*
X114263084Y-73623733D01*
X114263084Y-73623733D02*
X114296418Y-73657066D01*
X114296418Y-73657066D02*
X114329751Y-73723733D01*
X114329751Y-73723733D02*
X114329751Y-73890400D01*
X114329751Y-73890400D02*
X114296418Y-73957066D01*
X114296418Y-73957066D02*
X114263084Y-73990400D01*
X114263084Y-73990400D02*
X114196418Y-74023733D01*
X114196418Y-74023733D02*
X113996418Y-74023733D01*
X113996418Y-74023733D02*
X113929751Y-73990400D01*
X113929751Y-73990400D02*
X113896418Y-73957066D01*
X114529751Y-73323733D02*
X114929751Y-73323733D01*
X114729751Y-74023733D02*
X114729751Y-73323733D01*
X115163084Y-73657066D02*
X115396418Y-73657066D01*
X115496418Y-74023733D02*
X115163084Y-74023733D01*
X115163084Y-74023733D02*
X115163084Y-73323733D01*
X115163084Y-73323733D02*
X115496418Y-73323733D01*
X115796417Y-73757066D02*
X116329751Y-73757066D01*
X116629751Y-73823733D02*
X116963084Y-73823733D01*
X116563084Y-74023733D02*
X116796418Y-73323733D01*
X116796418Y-73323733D02*
X117029751Y-74023733D01*
X117629751Y-74023733D02*
X117229751Y-74023733D01*
X117429751Y-74023733D02*
X117429751Y-73323733D01*
X117429751Y-73323733D02*
X117363084Y-73423733D01*
X117363084Y-73423733D02*
X117296418Y-73490400D01*
X117296418Y-73490400D02*
X117229751Y-73523733D01*
D12*
%TO.P,C3,1*%
%TO.N,/BUT3*%
X86275000Y-78775000D03*
%TO.P,C3,2*%
%TO.N,GND*%
X86275000Y-77225000D03*
%TD*%
D13*
%TO.P,C5,1*%
%TO.N,Net-(IC1-VDD)*%
X89625000Y-65650000D03*
%TO.P,C5,2*%
%TO.N,GND*%
X88075000Y-65650000D03*
%TD*%
D14*
%TO.P,R9,1*%
%TO.N,SDA*%
X100494600Y-54283200D03*
%TO.P,R9,2*%
%TO.N,+3.3V*%
X98844600Y-54283200D03*
%TD*%
D15*
%TO.P,R7,1*%
%TO.N,Net-(U3-C_TR1)*%
X100165400Y-84480400D03*
%TO.P,R7,2*%
%TO.N,Net-(LED6-Pad1)*%
X101815400Y-84480400D03*
%TD*%
D12*
%TO.P,C1,1*%
%TO.N,/BUT2*%
X86300000Y-69725000D03*
%TO.P,C1,2*%
%TO.N,GND*%
X86300000Y-68175000D03*
%TD*%
D16*
%TO.P,D1,1,1*%
%TO.N,BUT-PRESS*%
X90600000Y-72700000D03*
%TO.P,D1,2,2*%
%TO.N,BUT3G16*%
X88400000Y-72700000D03*
%TD*%
D17*
%TO.P,U1,1,E_TR1*%
%TO.N,GND*%
X111302800Y-78084401D03*
%TO.P,U1,2,B_TR1*%
%TO.N,G10*%
X111302800Y-78734400D03*
%TO.P,U1,3,C_TR2*%
%TO.N,Net-(U1-C_TR2)*%
X111302800Y-79384399D03*
%TO.P,U1,4,E_TR2*%
%TO.N,GND*%
X113436400Y-79384399D03*
%TO.P,U1,5,B_TR2*%
%TO.N,G20*%
X113436400Y-78734400D03*
%TO.P,U1,6,C_TR1*%
%TO.N,Net-(U1-C_TR1)*%
X113436400Y-78084401D03*
%TD*%
D18*
%TO.P,R4,1*%
%TO.N,Net-(U1-C_TR2)*%
X123125000Y-80775000D03*
%TO.P,R4,2*%
%TO.N,Net-(LED3-Pad1)*%
X123125000Y-79125000D03*
%TD*%
D19*
%TO.P,J2,1,Pin_1*%
%TO.N,GND*%
X110751400Y-54266900D03*
%TO.P,J2,2,Pin_2*%
%TO.N,+3.3V*%
X108211400Y-54266900D03*
%TO.P,J2,3,Pin_3*%
%TO.N,SCL*%
X105671400Y-54266900D03*
%TO.P,J2,4,Pin_4*%
%TO.N,SDA*%
X103131400Y-54266900D03*
%TD*%
D20*
%TO.P,J1,1,Pin_1*%
%TO.N,GND*%
X127800000Y-76090000D03*
%TO.P,J1,2,Pin_2*%
X122750000Y-76090000D03*
%TO.P,J1,3,Pin_3*%
%TO.N,G20*%
X127800000Y-73550000D03*
%TO.P,J1,4,Pin_4*%
%TO.N,BUT3G16*%
X122750000Y-73550000D03*
%TO.P,J1,5,Pin_5*%
%TO.N,G21*%
X127800000Y-71010000D03*
%TO.P,J1,6,Pin_6*%
%TO.N,BUT1G08*%
X122750000Y-71010000D03*
%TO.P,J1,7,Pin_7*%
%TO.N,SDA*%
X127800000Y-68470000D03*
%TO.P,J1,8,Pin_8*%
%TO.N,BUT2G25*%
X122750000Y-68470000D03*
%TO.P,J1,9,Pin_9*%
%TO.N,SCL*%
X127800000Y-65930000D03*
%TO.P,J1,10,Pin_10*%
%TO.N,+3.3V*%
X122750000Y-65930000D03*
%TO.P,J1,11,Pin_11*%
%TO.N,G9*%
X127800000Y-63390000D03*
%TO.P,J1,12,Pin_12*%
%TO.N,G17*%
X122750000Y-63390000D03*
%TO.P,J1,13,Pin_13*%
%TO.N,G10*%
X127800000Y-60850000D03*
%TO.P,J1,14,Pin_14*%
%TO.N,+5V*%
X122750000Y-60850000D03*
%TD*%
D21*
%TO.P,LED4,1*%
%TO.N,Net-(LED4-Pad1)*%
X120167400Y-84328000D03*
D22*
%TO.P,LED4,2*%
%TO.N,+5V*%
X123317400Y-84328000D03*
%TD*%
D23*
%TO.P,IC3,1,Q*%
%TO.N,BUT3G16*%
X87875000Y-76250000D03*
%TO.P,IC3,2,VSS*%
%TO.N,GND*%
X87875000Y-77200000D03*
%TO.P,IC3,3,I*%
%TO.N,/BUT3*%
X87875000Y-78150000D03*
%TO.P,IC3,4,AHLB*%
%TO.N,unconnected-(IC3-AHLB-Pad4)*%
X90475000Y-78150000D03*
%TO.P,IC3,5,VDD*%
%TO.N,Net-(IC1-VDD)*%
X90475000Y-77200000D03*
%TO.P,IC3,6,TOG*%
%TO.N,unconnected-(IC3-TOG-Pad6)*%
X90475000Y-76250000D03*
%TD*%
D17*
%TO.P,U2,1,E_TR1*%
%TO.N,GND*%
X106002000Y-78072701D03*
%TO.P,U2,2,B_TR1*%
%TO.N,G9*%
X106002000Y-78722700D03*
%TO.P,U2,3,C_TR2*%
%TO.N,Net-(U2-C_TR2)*%
X106002000Y-79372699D03*
%TO.P,U2,4,E_TR2*%
%TO.N,GND*%
X108135600Y-79372699D03*
%TO.P,U2,5,B_TR2*%
%TO.N,G17*%
X108135600Y-78722700D03*
%TO.P,U2,6,C_TR1*%
%TO.N,Net-(U2-C_TR1)*%
X108135600Y-78072701D03*
%TD*%
D15*
%TO.P,R6,1*%
%TO.N,Net-(U2-C_TR2)*%
X107582200Y-83210400D03*
%TO.P,R6,2*%
%TO.N,Net-(LED5-Pad1)*%
X109232200Y-83210400D03*
%TD*%
D17*
%TO.P,U3,1,E_TR1*%
%TO.N,GND*%
X100482400Y-78000659D03*
%TO.P,U3,2,B_TR1*%
%TO.N,BUT-PRESS*%
X100482400Y-78650658D03*
%TO.P,U3,3,C_TR2*%
%TO.N,Net-(U3-C_TR2)*%
X100482400Y-79300657D03*
%TO.P,U3,4,E_TR2*%
%TO.N,GND*%
X102616000Y-79300657D03*
%TO.P,U3,5,B_TR2*%
%TO.N,G21*%
X102616000Y-78650658D03*
%TO.P,U3,6,C_TR1*%
%TO.N,Net-(U3-C_TR1)*%
X102616000Y-78000659D03*
%TD*%
D21*
%TO.P,LED5,1*%
%TO.N,Net-(LED5-Pad1)*%
X110695800Y-81991200D03*
D22*
%TO.P,LED5,2*%
%TO.N,+5V*%
X113845800Y-81991200D03*
%TD*%
D24*
%TO.P,C8,1*%
%TO.N,+3.3V*%
X113885000Y-54800000D03*
%TO.P,C8,2*%
%TO.N,GND*%
X116965000Y-54800000D03*
%TD*%
D14*
%TO.P,R2,1*%
%TO.N,Net-(U3-C_TR2)*%
X98767400Y-82905600D03*
%TO.P,R2,2*%
%TO.N,Net-(LED7-Pad1)*%
X97117400Y-82905600D03*
%TD*%
D21*
%TO.P,LED2,1*%
%TO.N,Net-(LED2-Pad1)*%
X125075000Y-57025000D03*
D22*
%TO.P,LED2,2*%
%TO.N,+5V*%
X128225000Y-57025000D03*
%TD*%
D21*
%TO.P,LED1,1*%
%TO.N,GND*%
X114000000Y-51875000D03*
D22*
%TO.P,LED1,2*%
%TO.N,Net-(LED1-Pad2)*%
X117150000Y-51875000D03*
%TD*%
D15*
%TO.P,R5,1*%
%TO.N,Net-(U2-C_TR1)*%
X116450000Y-84350000D03*
%TO.P,R5,2*%
%TO.N,Net-(LED4-Pad1)*%
X118100000Y-84350000D03*
%TD*%
D21*
%TO.P,LED6,1*%
%TO.N,Net-(LED6-Pad1)*%
X101573200Y-81940400D03*
D22*
%TO.P,LED6,2*%
%TO.N,+5V*%
X104723200Y-81940400D03*
%TD*%
D15*
%TO.P,R8,1*%
%TO.N,Net-(LED1-Pad2)*%
X118675000Y-51900000D03*
%TO.P,R8,2*%
%TO.N,+5V*%
X120325000Y-51900000D03*
%TD*%
D16*
%TO.P,D3,1,1*%
%TO.N,BUT-PRESS*%
X92325000Y-55225000D03*
%TO.P,D3,2,2*%
%TO.N,BUT1G08*%
X90125000Y-55225000D03*
%TD*%
D21*
%TO.P,LED7,1*%
%TO.N,Net-(LED7-Pad1)*%
X92407800Y-84480400D03*
D22*
%TO.P,LED7,2*%
%TO.N,+5V*%
X95557800Y-84480400D03*
%TD*%
D16*
%TO.P,D2,1,1*%
%TO.N,BUT-PRESS*%
X90675000Y-63825000D03*
%TO.P,D2,2,2*%
%TO.N,BUT2G25*%
X88475000Y-63825000D03*
%TD*%
D25*
%TO.P,REF\u002A\u002A,1*%
%TO.N,N/C*%
X95275400Y-79476600D03*
%TD*%
D14*
%TO.P,R10,1*%
%TO.N,SCL*%
X100494600Y-56083200D03*
%TO.P,R10,2*%
%TO.N,+3.3V*%
X98844600Y-56083200D03*
%TD*%
D23*
%TO.P,IC2,1,Q*%
%TO.N,BUT2G25*%
X87900000Y-67300000D03*
%TO.P,IC2,2,VSS*%
%TO.N,GND*%
X87900000Y-68250000D03*
%TO.P,IC2,3,I*%
%TO.N,/BUT2*%
X87900000Y-69200000D03*
%TO.P,IC2,4,AHLB*%
%TO.N,unconnected-(IC2-AHLB-Pad4)*%
X90500000Y-69200000D03*
%TO.P,IC2,5,VDD*%
%TO.N,Net-(IC1-VDD)*%
X90500000Y-68250000D03*
%TO.P,IC2,6,TOG*%
%TO.N,unconnected-(IC2-TOG-Pad6)*%
X90500000Y-67300000D03*
%TD*%
D25*
%TO.P,REF\u002A\u002A,1*%
%TO.N,N/C*%
X118745000Y-79476600D03*
%TD*%
D14*
%TO.P,R1,1*%
%TO.N,+3.3V*%
X99250000Y-52275000D03*
%TO.P,R1,2*%
%TO.N,Net-(IC1-VDD)*%
X97600000Y-52275000D03*
%TD*%
D15*
%TO.P,R3,1*%
%TO.N,Net-(U1-C_TR1)*%
X121100000Y-56950000D03*
%TO.P,R3,2*%
%TO.N,Net-(LED2-Pad1)*%
X122750000Y-56950000D03*
%TD*%
D12*
%TO.P,C2,1*%
%TO.N,/BUT1*%
X86400000Y-61379400D03*
%TO.P,C2,2*%
%TO.N,GND*%
X86400000Y-59829400D03*
%TD*%
D13*
%TO.P,C4,1*%
%TO.N,Net-(IC1-VDD)*%
X89775000Y-57150000D03*
%TO.P,C4,2*%
%TO.N,GND*%
X88225000Y-57150000D03*
%TD*%
D21*
%TO.P,LED3,1*%
%TO.N,Net-(LED3-Pad1)*%
X125097400Y-79600000D03*
D22*
%TO.P,LED3,2*%
%TO.N,+5V*%
X128247400Y-79600000D03*
%TD*%
D26*
%TO.P,C7,1*%
%TO.N,Net-(IC1-VDD)*%
X95199200Y-52308000D03*
%TO.P,C7,2*%
%TO.N,GND*%
X95199200Y-55388000D03*
%TD*%
D13*
%TO.P,C6,1*%
%TO.N,Net-(IC1-VDD)*%
X89475000Y-74600000D03*
%TO.P,C6,2*%
%TO.N,GND*%
X87925000Y-74600000D03*
%TD*%
D23*
%TO.P,IC1,1,Q*%
%TO.N,BUT1G08*%
X87976400Y-58928000D03*
%TO.P,IC1,2,VSS*%
%TO.N,GND*%
X87976400Y-59878000D03*
%TO.P,IC1,3,I*%
%TO.N,/BUT1*%
X87976400Y-60828000D03*
%TO.P,IC1,4,AHLB*%
%TO.N,unconnected-(IC1-AHLB-Pad4)*%
X90576400Y-60828000D03*
%TO.P,IC1,5,VDD*%
%TO.N,Net-(IC1-VDD)*%
X90576400Y-59878000D03*
%TO.P,IC1,6,TOG*%
%TO.N,unconnected-(IC1-TOG-Pad6)*%
X90576400Y-58928000D03*
%TD*%
D27*
%TO.N,GND*%
X118575000Y-54800000D03*
D28*
X125225000Y-76100000D03*
X95224600Y-56819800D03*
D27*
X101567600Y-79317458D03*
X107035600Y-79372700D03*
X112344200Y-78155800D03*
X86950000Y-55500000D03*
D28*
X112445800Y-51181000D03*
D27*
%TO.N,BUT3G16*%
X121294600Y-72288400D03*
X87096600Y-72694800D03*
%TO.N,/BUT2*%
X86300000Y-70750000D03*
%TO.N,/BUT1*%
X86400000Y-62450000D03*
%TO.N,BUT2G25*%
X87223600Y-64211200D03*
X124950000Y-68450000D03*
X97409000Y-53863800D03*
X92354400Y-63881000D03*
%TO.N,+3.3V*%
X115341400Y-56201471D03*
X100217000Y-51308000D03*
X124815600Y-65930000D03*
%TO.N,BUT1G08*%
X125012500Y-70162500D03*
X90940100Y-55184900D03*
%TO.N,+5V*%
X125500000Y-59250000D03*
X128050000Y-78075000D03*
%TO.N,G9*%
X127660400Y-64465200D03*
X127660400Y-72339200D03*
%TO.N,Net-(U1-C_TR1)*%
X121800000Y-55850000D03*
X113436400Y-76301600D03*
%TO.N,G10*%
X114598350Y-79393950D03*
X127508000Y-62077600D03*
%TO.N,G17*%
X122783600Y-64643000D03*
X108825000Y-80746600D03*
%TO.N,/BUT3*%
X86225000Y-79800000D03*
%TD*%
D29*
%TO.N,GND*%
X88875000Y-70484600D02*
X88875000Y-68500000D01*
D30*
X125150000Y-76125000D02*
X125185000Y-76090000D01*
D29*
X87630000Y-70662800D02*
X88696800Y-70662800D01*
D31*
X87825000Y-68175000D02*
X87900000Y-68250000D01*
D29*
X86325000Y-65650000D02*
X88075000Y-65650000D01*
D31*
X106696201Y-78072701D02*
X106002000Y-78072701D01*
D32*
X125185000Y-76090000D02*
X125215000Y-76090000D01*
D31*
X122741600Y-76098400D02*
X122750000Y-76090000D01*
D30*
X95200000Y-56795200D02*
X95224600Y-56819800D01*
D29*
X86300000Y-63763200D02*
X87763200Y-62300000D01*
D30*
X88225000Y-57150000D02*
X86950000Y-57150000D01*
X95200000Y-55387500D02*
X95200000Y-56795200D01*
D29*
X88875000Y-68500000D02*
X88625000Y-68250000D01*
X89075000Y-60251600D02*
X88701400Y-59878000D01*
D32*
X125215000Y-76090000D02*
X125225000Y-76100000D01*
D30*
X113108600Y-51181000D02*
X113752600Y-51825000D01*
D31*
X101567600Y-78677258D02*
X100891001Y-78000659D01*
X101567600Y-79317458D02*
X102174198Y-79317458D01*
D29*
X86284000Y-74600000D02*
X86258400Y-74574400D01*
D31*
X102174198Y-79317458D02*
X102190999Y-79300657D01*
D29*
X86300000Y-68175000D02*
X86300000Y-65675000D01*
X86258400Y-74883400D02*
X86258400Y-75031600D01*
D30*
X86400000Y-59829400D02*
X86400000Y-57700000D01*
D31*
X112272801Y-78084401D02*
X111302800Y-78084401D01*
D30*
X86350000Y-68225000D02*
X87775000Y-68225000D01*
D32*
X125225000Y-76100000D02*
X125235000Y-76090000D01*
D29*
X88701400Y-59878000D02*
X87976400Y-59878000D01*
X86448600Y-59878000D02*
X87872000Y-59878000D01*
D31*
X87850000Y-77225000D02*
X87875000Y-77200000D01*
D29*
X86258400Y-77208400D02*
X86258400Y-75064800D01*
X88625000Y-68250000D02*
X87900000Y-68250000D01*
D30*
X110751400Y-51808600D02*
X111379000Y-51181000D01*
X86400000Y-57700000D02*
X86950000Y-57150000D01*
D29*
X88350000Y-62300000D02*
X89075000Y-61575000D01*
D30*
X110751400Y-54266900D02*
X110751400Y-51808600D01*
D29*
X86300000Y-65675000D02*
X86300000Y-63763200D01*
D31*
X112344200Y-78695800D02*
X113032799Y-79384399D01*
D32*
X125235000Y-76090000D02*
X127800000Y-76090000D01*
D29*
X86258400Y-74883400D02*
X86258400Y-72034400D01*
D31*
X107660599Y-79372699D02*
X108135600Y-79372699D01*
D29*
X86275000Y-77225000D02*
X86258400Y-77208400D01*
D32*
X122750000Y-76090000D02*
X125115000Y-76090000D01*
D31*
X107035600Y-78412100D02*
X106696201Y-78072701D01*
X112344200Y-78155800D02*
X112344200Y-78695800D01*
D30*
X125115000Y-76090000D02*
X125150000Y-76125000D01*
X86950000Y-57150000D02*
X86950000Y-55500000D01*
D29*
X87925000Y-74600000D02*
X86284000Y-74600000D01*
D31*
X102190999Y-79300657D02*
X102616000Y-79300657D01*
X112344200Y-78155800D02*
X112272801Y-78084401D01*
X113032799Y-79384399D02*
X113436400Y-79384399D01*
D29*
X86300000Y-65675000D02*
X86325000Y-65650000D01*
D30*
X86300000Y-68175000D02*
X86350000Y-68225000D01*
X111379000Y-51181000D02*
X113108600Y-51181000D01*
D31*
X100891001Y-78000659D02*
X100482400Y-78000659D01*
X101567600Y-79317458D02*
X101567600Y-78677258D01*
X107035600Y-79372700D02*
X107660598Y-79372700D01*
D33*
X118575000Y-54800000D02*
X116962500Y-54800000D01*
D29*
X88696800Y-70662800D02*
X88875000Y-70484600D01*
D31*
X107660598Y-79372700D02*
X107660599Y-79372699D01*
X86400000Y-59829400D02*
X86448600Y-59878000D01*
D29*
X86258400Y-72034400D02*
X87630000Y-70662800D01*
X89075000Y-61575000D02*
X89075000Y-60251600D01*
X86258400Y-74574400D02*
X86258400Y-74883400D01*
D31*
X87872000Y-59878000D02*
X88000000Y-59750000D01*
D29*
X86275000Y-77225000D02*
X87050000Y-77225000D01*
D31*
X107035600Y-79372700D02*
X107035600Y-78412100D01*
D29*
X87050000Y-77225000D02*
X87850000Y-77225000D01*
X87976400Y-59878000D02*
X87976400Y-59773600D01*
X87763200Y-62300000D02*
X88350000Y-62300000D01*
D31*
%TO.N,BUT3G16*%
X87274400Y-72694800D02*
X87279600Y-72700000D01*
X121294600Y-72288400D02*
X122250200Y-72288400D01*
X122250200Y-72288400D02*
X122750000Y-72788200D01*
X88696800Y-73198550D02*
X88198250Y-72700000D01*
X88696800Y-75428200D02*
X88696800Y-73198550D01*
X87875000Y-76250000D02*
X88696800Y-75428200D01*
X122750000Y-72788200D02*
X122750000Y-73550000D01*
X87096600Y-72694800D02*
X87274400Y-72694800D01*
X87279600Y-72700000D02*
X88198250Y-72700000D01*
%TO.N,/BUT2*%
X87375000Y-69725000D02*
X87900000Y-69200000D01*
X86300000Y-69725000D02*
X87375000Y-69725000D01*
X86300000Y-69725000D02*
X86300000Y-70750000D01*
%TO.N,/BUT1*%
X87375000Y-61325000D02*
X88000000Y-60700000D01*
X86400000Y-61325000D02*
X86400000Y-62450000D01*
X86400000Y-61325000D02*
X87375000Y-61325000D01*
D33*
%TO.N,Net-(IC1-VDD)*%
X97562500Y-52312500D02*
X97600000Y-52275000D01*
D31*
X89625000Y-59856200D02*
X89662000Y-59893200D01*
D33*
X89625000Y-59725000D02*
X89625000Y-65450000D01*
X91650000Y-56725000D02*
X91650000Y-53125000D01*
D31*
X89662000Y-59893200D02*
X90456800Y-59893200D01*
D33*
X92462500Y-52312500D02*
X95200000Y-52312500D01*
X89425000Y-76900000D02*
X89725000Y-77200000D01*
X95200000Y-52312500D02*
X97562500Y-52312500D01*
D31*
X90456800Y-59893200D02*
X90600000Y-59750000D01*
X89625000Y-59725000D02*
X89625000Y-59856200D01*
D33*
X89525000Y-65750000D02*
X89525000Y-74550000D01*
X89625000Y-65650000D02*
X89525000Y-65750000D01*
X89775000Y-57150000D02*
X89450000Y-57475000D01*
X89775000Y-57150000D02*
X91225000Y-57150000D01*
X89425000Y-74650000D02*
X89425000Y-76900000D01*
X89525000Y-74550000D02*
X89475000Y-74600000D01*
X91225000Y-57150000D02*
X91650000Y-56725000D01*
X89725000Y-77200000D02*
X90475000Y-77200000D01*
X89475000Y-74600000D02*
X89425000Y-74650000D01*
X89625000Y-57450000D02*
X89625000Y-59725000D01*
X91650000Y-53125000D02*
X92462500Y-52312500D01*
D31*
X89475000Y-68250000D02*
X90500000Y-68250000D01*
D33*
X89450000Y-65475000D02*
X89625000Y-65650000D01*
D31*
%TO.N,BUT2G25*%
X92684600Y-63550800D02*
X92354400Y-63881000D01*
X124930000Y-68470000D02*
X122750000Y-68470000D01*
X88849200Y-64400950D02*
X88273250Y-63825000D01*
X93980000Y-53873400D02*
X93472000Y-54381400D01*
X92684600Y-57429400D02*
X92684600Y-63550800D01*
X93472000Y-56642000D02*
X92684600Y-57429400D01*
X124950000Y-68450000D02*
X124930000Y-68470000D01*
X97399400Y-53873400D02*
X93980000Y-53873400D01*
X87609800Y-63825000D02*
X87223600Y-64211200D01*
X88849200Y-66650800D02*
X88849200Y-64400950D01*
X97409000Y-53863800D02*
X97399400Y-53873400D01*
X87900000Y-67300000D02*
X88200000Y-67300000D01*
X93472000Y-54381400D02*
X93472000Y-56642000D01*
X88273250Y-63825000D02*
X87609800Y-63825000D01*
X88200000Y-67300000D02*
X88849200Y-66650800D01*
%TO.N,+3.3V*%
X99250000Y-52275000D02*
X98856800Y-52668200D01*
X98856800Y-54271000D02*
X98844600Y-54283200D01*
D30*
X124815600Y-65930000D02*
X124820600Y-65925000D01*
X114939200Y-54800000D02*
X113887500Y-54800000D01*
D31*
X98856800Y-52668200D02*
X98856800Y-54271000D01*
D30*
X108211400Y-51264600D02*
X108211400Y-54266900D01*
X115341400Y-55202200D02*
X114939200Y-54800000D01*
D31*
X98844600Y-56083200D02*
X98844600Y-54283200D01*
D30*
X100572600Y-50952400D02*
X107899200Y-50952400D01*
X124815600Y-65930000D02*
X122750000Y-65930000D01*
X100217000Y-51308000D02*
X99250000Y-52275000D01*
X115341400Y-56201471D02*
X115341400Y-55202200D01*
X100217000Y-51308000D02*
X100572600Y-50952400D01*
X107899200Y-50952400D02*
X108211400Y-51264600D01*
D31*
%TO.N,BUT1G08*%
X89000000Y-58225000D02*
X89000000Y-56148250D01*
X124165000Y-71010000D02*
X122750000Y-71010000D01*
X90940100Y-55184900D02*
X90900000Y-55225000D01*
X88000000Y-58800000D02*
X88425000Y-58800000D01*
X88425000Y-58800000D02*
X89000000Y-58225000D01*
X125012500Y-70162500D02*
X124165000Y-71010000D01*
X89000000Y-56148250D02*
X89923250Y-55225000D01*
X90900000Y-55225000D02*
X89973250Y-55225000D01*
D30*
%TO.N,+5V*%
X125525000Y-59275000D02*
X125500000Y-59250000D01*
X124800000Y-59275000D02*
X125475000Y-59275000D01*
D33*
X127762000Y-55473600D02*
X124714000Y-55473600D01*
D30*
X104723200Y-81940400D02*
X104723200Y-85884400D01*
X125475000Y-59275000D02*
X125500000Y-59250000D01*
X104792400Y-85953600D02*
X105096800Y-85953600D01*
X127400000Y-59275000D02*
X125525000Y-59275000D01*
X124975000Y-81675000D02*
X127573300Y-81675000D01*
D33*
X128250000Y-55961600D02*
X127762000Y-55473600D01*
D30*
X97031000Y-85953600D02*
X105096800Y-85953600D01*
X123342400Y-83307600D02*
X124975000Y-81675000D01*
D33*
X121090400Y-51850000D02*
X120000000Y-51850000D01*
D30*
X113952800Y-86156800D02*
X122889500Y-86156800D01*
X105096800Y-85953600D02*
X113749600Y-85953600D01*
X123225000Y-60850000D02*
X124800000Y-59275000D01*
X122889500Y-86156800D02*
X123342400Y-85703900D01*
X113845800Y-85857400D02*
X113845800Y-81991200D01*
D33*
X124714000Y-55473600D02*
X121090400Y-51850000D01*
D30*
X123342400Y-85703900D02*
X123342400Y-83307600D01*
X113749600Y-85953600D02*
X113952800Y-86156800D01*
X128250000Y-58425000D02*
X127400000Y-59275000D01*
X122750000Y-60850000D02*
X123225000Y-60850000D01*
X104723200Y-85884400D02*
X104792400Y-85953600D01*
X128272400Y-80975900D02*
X128272400Y-78297400D01*
X127573300Y-81675000D02*
X128272400Y-80975900D01*
X128272400Y-78297400D02*
X128050000Y-78075000D01*
X113749600Y-85953600D02*
X113845800Y-85857400D01*
D33*
X128250000Y-57050000D02*
X128250000Y-55961600D01*
D30*
X95557800Y-84480400D02*
X97031000Y-85953600D01*
X128250000Y-57050000D02*
X128250000Y-58425000D01*
D31*
%TO.N,G9*%
X105206800Y-78521200D02*
X105206800Y-75590400D01*
X125571200Y-72650400D02*
X125882400Y-72339200D01*
X127660400Y-64465200D02*
X127660400Y-63529600D01*
X105206800Y-75590400D02*
X105949800Y-74847400D01*
X105949800Y-74847400D02*
X124727286Y-74847400D01*
X106002000Y-78722700D02*
X105408300Y-78722700D01*
X105408300Y-78722700D02*
X105206800Y-78521200D01*
X124727286Y-74847400D02*
X125571200Y-74003486D01*
X125571200Y-74003486D02*
X125571200Y-72650400D01*
X125882400Y-72339200D02*
X127660400Y-72339200D01*
X127660400Y-63529600D02*
X127800000Y-63390000D01*
%TO.N,Net-(U1-C_TR2)*%
X123125000Y-81625000D02*
X123125000Y-80775000D01*
X111302800Y-79857600D02*
X111709200Y-80264000D01*
X115976400Y-82804000D02*
X121946000Y-82804000D01*
X111302800Y-79384399D02*
X111302800Y-79857600D01*
X121946000Y-82804000D02*
X123125000Y-81625000D01*
X114913043Y-80264000D02*
X115570000Y-80920957D01*
X111709200Y-80264000D02*
X114913043Y-80264000D01*
X115570000Y-82397600D02*
X115976400Y-82804000D01*
X115570000Y-80920957D02*
X115570000Y-82397600D01*
%TO.N,Net-(U1-C_TR1)*%
X121100000Y-56550000D02*
X121800000Y-55850000D01*
X121100000Y-56950000D02*
X121100000Y-56550000D01*
X113436400Y-76301600D02*
X113436400Y-78084401D01*
%TO.N,Net-(U2-C_TR2)*%
X106002000Y-79372699D02*
X106002000Y-81630200D01*
X106002000Y-81630200D02*
X107582200Y-83210400D01*
%TO.N,SCL*%
X124764800Y-62280800D02*
X125222000Y-62738000D01*
X100494600Y-56083200D02*
X100494600Y-56658200D01*
X120802400Y-61823600D02*
X121259600Y-62280800D01*
X105810000Y-57277000D02*
X105810000Y-54405500D01*
X125222000Y-64770000D02*
X126382000Y-65930000D01*
X121259600Y-62280800D02*
X124764800Y-62280800D01*
X105937000Y-57404000D02*
X119956200Y-57404000D01*
X101240400Y-57404000D02*
X105683000Y-57404000D01*
X119956200Y-57404000D02*
X120802400Y-58250200D01*
X105810000Y-54405500D02*
X105671400Y-54266900D01*
X105683000Y-57404000D02*
X105810000Y-57277000D01*
X120802400Y-58250200D02*
X120802400Y-61823600D01*
X125222000Y-62738000D02*
X125222000Y-64770000D01*
X100494600Y-56658200D02*
X101240400Y-57404000D01*
X105810000Y-57277000D02*
X105937000Y-57404000D01*
X126382000Y-65930000D02*
X127800000Y-65930000D01*
%TO.N,Net-(U2-C_TR1)*%
X108135600Y-78072701D02*
X109213101Y-78072701D01*
X109213101Y-78072701D02*
X110134400Y-78994000D01*
X114604800Y-80670400D02*
X114960400Y-81026000D01*
X114960400Y-81026000D02*
X114960400Y-83185000D01*
X111048800Y-80670400D02*
X114604800Y-80670400D01*
X114960400Y-83185000D02*
X116125400Y-84350000D01*
X110134400Y-78994000D02*
X110134400Y-79756000D01*
X110134400Y-79756000D02*
X111048800Y-80670400D01*
X116125400Y-84350000D02*
X116450000Y-84350000D01*
%TO.N,SDA*%
X120402400Y-58612200D02*
X120402400Y-66702400D01*
X100584000Y-57810400D02*
X119600600Y-57810400D01*
X103098300Y-54300000D02*
X103131400Y-54266900D01*
X120402400Y-66702400D02*
X121050000Y-67350000D01*
X100494600Y-54283200D02*
X99669600Y-55108200D01*
X99669600Y-56896000D02*
X100584000Y-57810400D01*
X99669600Y-55108200D02*
X99669600Y-56896000D01*
X121050000Y-67350000D02*
X126680000Y-67350000D01*
X126680000Y-67350000D02*
X127800000Y-68470000D01*
X100900000Y-54300000D02*
X103098300Y-54300000D01*
X119600600Y-57810400D02*
X120402400Y-58612200D01*
X103270000Y-54405500D02*
X103270000Y-55150000D01*
%TO.N,G10*%
X127508000Y-62077600D02*
X127508000Y-62077600D01*
X127508000Y-62077600D02*
X127800000Y-61785600D01*
X114598349Y-79393950D02*
X114128299Y-79864000D01*
X127800000Y-61785600D02*
X127800000Y-60850000D01*
X114128299Y-79864000D02*
X112902800Y-79864000D01*
X111773200Y-78734400D02*
X111302800Y-78734400D01*
X114598350Y-79393950D02*
X114598349Y-79393950D01*
X112902800Y-79864000D02*
X111773200Y-78734400D01*
%TO.N,Net-(U3-C_TR1)*%
X100888800Y-80314800D02*
X103276400Y-80314800D01*
X103276400Y-80314800D02*
X103835200Y-79756000D01*
X100165400Y-81038200D02*
X100888800Y-80314800D01*
X103835200Y-79756000D02*
X103835200Y-78626159D01*
X103835200Y-78626159D02*
X103209700Y-78000659D01*
X103209700Y-78000659D02*
X102616000Y-78000659D01*
X100165400Y-84480400D02*
X100165400Y-81038200D01*
%TO.N,Net-(U3-C_TR2)*%
X99362943Y-79300657D02*
X100482400Y-79300657D01*
X98716600Y-82854800D02*
X98716600Y-79947000D01*
X98767400Y-82905600D02*
X98716600Y-82854800D01*
X98716600Y-79947000D02*
X99362943Y-79300657D01*
%TO.N,Net-(LED5-Pad1)*%
X109982000Y-81991200D02*
X110695800Y-81991200D01*
X109232200Y-83210400D02*
X109232200Y-82741000D01*
X109232200Y-82741000D02*
X109982000Y-81991200D01*
%TO.N,Net-(LED3-Pad1)*%
X124700000Y-79125000D02*
X125175000Y-79600000D01*
X123125000Y-79125000D02*
X124700000Y-79125000D01*
D33*
%TO.N,Net-(LED2-Pad1)*%
X122750000Y-56950000D02*
X122775000Y-56975000D01*
X122775000Y-56975000D02*
X125102600Y-56975000D01*
D31*
%TO.N,Net-(LED6-Pad1)*%
X101815400Y-84480400D02*
X101815400Y-82182600D01*
X101815400Y-82182600D02*
X101573200Y-81940400D01*
%TO.N,Net-(LED4-Pad1)*%
X118175000Y-84275000D02*
X120089400Y-84275000D01*
X118100000Y-84350000D02*
X118175000Y-84275000D01*
X120089400Y-84275000D02*
X120142400Y-84328000D01*
%TO.N,G17*%
X122783600Y-64643000D02*
X122750000Y-64609400D01*
X108825000Y-80582800D02*
X108829300Y-80578500D01*
X122783600Y-64643000D02*
X122682000Y-64744600D01*
X108825000Y-80746600D02*
X108825000Y-80582800D01*
X108829300Y-78894899D02*
X108657101Y-78722700D01*
X122682000Y-64744600D02*
X122682000Y-64770000D01*
X108657101Y-78722700D02*
X108135600Y-78722700D01*
X122750000Y-64609400D02*
X122750000Y-63390000D01*
X108829300Y-80578500D02*
X108829300Y-78894899D01*
%TO.N,BUT-PRESS*%
X98780600Y-74777600D02*
X99364800Y-75361800D01*
X90876750Y-63825000D02*
X91490800Y-63825000D01*
X94988000Y-74777600D02*
X98780600Y-74777600D01*
X91490800Y-63825000D02*
X91660600Y-63994800D01*
X91660600Y-64508000D02*
X92760800Y-65608200D01*
X99364800Y-78282800D02*
X99732658Y-78650658D01*
X92910400Y-72700000D02*
X94988000Y-74777600D01*
X92526750Y-55225000D02*
X92252800Y-55498950D01*
X92760800Y-72700000D02*
X90801750Y-72700000D01*
X92252800Y-55498950D02*
X92252800Y-63063000D01*
X99364800Y-75361800D02*
X99364800Y-78282800D01*
X99732658Y-78650658D02*
X100482400Y-78650658D01*
X91660600Y-63994800D02*
X91660600Y-64508000D01*
X92252800Y-63063000D02*
X91490800Y-63825000D01*
X92760800Y-72700000D02*
X92910400Y-72700000D01*
X91490800Y-63825000D02*
X91578300Y-63912500D01*
X92760800Y-65608200D02*
X92760800Y-72700000D01*
%TO.N,G20*%
X125971200Y-74169172D02*
X124892972Y-75247400D01*
X124892972Y-75247400D02*
X115659000Y-75247400D01*
X114858800Y-77825600D02*
X113950000Y-78734400D01*
X113950000Y-78734400D02*
X113436400Y-78734400D01*
X125971200Y-74155400D02*
X125971200Y-74169172D01*
X127800000Y-73550000D02*
X126576600Y-73550000D01*
X115659000Y-75247400D02*
X114858800Y-76047600D01*
X114858800Y-76047600D02*
X114858800Y-77825600D01*
X126576600Y-73550000D02*
X125971200Y-74155400D01*
%TO.N,G21*%
X125069600Y-73939400D02*
X124561600Y-74447400D01*
X103081101Y-74447400D02*
X101840343Y-75688158D01*
X124561600Y-74447400D02*
X103081101Y-74447400D01*
X125069600Y-71831200D02*
X125069600Y-73939400D01*
X101840343Y-78333600D02*
X102157401Y-78650658D01*
X102157401Y-78650658D02*
X102616000Y-78650658D01*
X101840343Y-75688158D02*
X101840343Y-78333600D01*
X127800000Y-71010000D02*
X125890800Y-71010000D01*
X125890800Y-71010000D02*
X125069600Y-71831200D01*
%TO.N,/BUT3*%
X86275000Y-79750000D02*
X86225000Y-79800000D01*
X87250000Y-78775000D02*
X87875000Y-78150000D01*
X86275000Y-78775000D02*
X86275000Y-79750000D01*
X86275000Y-78775000D02*
X87250000Y-78775000D01*
D30*
%TO.N,Net-(LED1-Pad2)*%
X116922400Y-51875000D02*
X118650000Y-51875000D01*
X118325000Y-51825000D02*
X118350000Y-51850000D01*
D31*
%TO.N,Net-(LED7-Pad1)*%
X97117400Y-82905600D02*
X97066600Y-82956400D01*
X92964000Y-82956400D02*
X97066600Y-82956400D01*
X92407800Y-84480400D02*
X92407800Y-83512600D01*
X92407800Y-83512600D02*
X92964000Y-82956400D01*
X97066600Y-82956400D02*
X97066600Y-83210400D01*
%TD*%
M02*
