%TF.GenerationSoftware,KiCad,Pcbnew,9.0.6*%
%TF.CreationDate,2025-12-26T20:21:36+00:00*%
%TF.ProjectId,PIDI-BOX-01-RELSW-6-BUTTONS-A1,50494449-2d42-44f5-982d-30312d52454c,rev?*%
%TF.SameCoordinates,Original*%
%TF.FileFunction,Soldermask,Top*%
%TF.FilePolarity,Negative*%
%FSLAX46Y46*%
G04 Gerber Fmt 4.6, Leading zero omitted, Abs format (unit mm)*
G04 Created by KiCad (PCBNEW 9.0.6) date 2025-12-26 20:21:36*
%MOMM*%
%LPD*%
G01*
G04 APERTURE LIST*
G04 Aperture macros list*
%AMRoundRect*
0 Rectangle with rounded corners*
0 $1 Rounding radius*
0 $2 $3 $4 $5 $6 $7 $8 $9 X,Y pos of 4 corners*
0 Add a 4 corners polygon primitive as box body*
4,1,4,$2,$3,$4,$5,$6,$7,$8,$9,$2,$3,0*
0 Add four circle primitives for the rounded corners*
1,1,$1+$1,$2,$3*
1,1,$1+$1,$4,$5*
1,1,$1+$1,$6,$7*
1,1,$1+$1,$8,$9*
0 Add four rect primitives between the rounded corners*
20,1,$1+$1,$2,$3,$4,$5,0*
20,1,$1+$1,$4,$5,$6,$7,0*
20,1,$1+$1,$6,$7,$8,$9,0*
20,1,$1+$1,$8,$9,$2,$3,0*%
G04 Aperture macros list end*
%ADD10RoundRect,0.218750X-0.218750X-0.256250X0.218750X-0.256250X0.218750X0.256250X-0.218750X0.256250X0*%
%ADD11RoundRect,0.218750X-0.256250X0.218750X-0.256250X-0.218750X0.256250X-0.218750X0.256250X0.218750X0*%
%ADD12RoundRect,0.102000X0.700000X-1.050000X0.700000X1.050000X-0.700000X1.050000X-0.700000X-1.050000X0*%
%ADD13RoundRect,0.218750X0.256250X-0.218750X0.256250X0.218750X-0.256250X0.218750X-0.256250X-0.218750X0*%
%ADD14R,1.700000X1.700000*%
%ADD15O,1.700000X1.700000*%
G04 APERTURE END LIST*
D10*
%TO.C,R7*%
X120827700Y-58724800D03*
X122402700Y-58724800D03*
%TD*%
D11*
%TO.C,D5*%
X102463600Y-81356300D03*
X102463600Y-82931300D03*
%TD*%
D12*
%TO.C,S1*%
X104546400Y-61529600D03*
X104546400Y-52929600D03*
X109046400Y-61529600D03*
X109046400Y-52929600D03*
%TD*%
D13*
%TO.C,R4*%
X118516400Y-73660200D03*
X118516400Y-72085200D03*
%TD*%
D14*
%TO.C,J3*%
X121405800Y-82545000D03*
D15*
X121405800Y-85085000D03*
%TD*%
D12*
%TO.C,S2*%
X112100800Y-61529600D03*
X112100800Y-52929600D03*
X116600800Y-61529600D03*
X116600800Y-52929600D03*
%TD*%
D13*
%TO.C,R1*%
X102565200Y-61137900D03*
X102565200Y-59562900D03*
%TD*%
D11*
%TO.C,D7*%
X118567200Y-51790500D03*
X118567200Y-53365500D03*
%TD*%
D12*
%TO.C,S5*%
X104516800Y-86624800D03*
X104516800Y-78024800D03*
X109016800Y-86624800D03*
X109016800Y-78024800D03*
%TD*%
D11*
%TO.C,D4*%
X118516400Y-69062500D03*
X118516400Y-70637500D03*
%TD*%
D12*
%TO.C,S4*%
X112050000Y-73997600D03*
X112050000Y-65397600D03*
X116550000Y-73997600D03*
X116550000Y-65397600D03*
%TD*%
D14*
%TO.C,J2*%
X121405800Y-53030200D03*
D15*
X121405800Y-55570200D03*
%TD*%
D11*
%TO.C,D3*%
X102616000Y-69062500D03*
X102616000Y-70637500D03*
%TD*%
%TO.C,R2*%
X118618000Y-59512100D03*
X118618000Y-61087100D03*
%TD*%
D12*
%TO.C,S6*%
X112075400Y-86621400D03*
X112075400Y-78021400D03*
X116575400Y-86621400D03*
X116575400Y-78021400D03*
%TD*%
D11*
%TO.C,R3*%
X102616000Y-72034200D03*
X102616000Y-73609200D03*
%TD*%
D12*
%TO.C,S3*%
X104518900Y-74073800D03*
X104518900Y-65473800D03*
X109018900Y-74073800D03*
X109018900Y-65473800D03*
%TD*%
D13*
%TO.C,R6*%
X118567200Y-86055400D03*
X118567200Y-84480400D03*
%TD*%
D11*
%TO.C,R5*%
X102463600Y-84454900D03*
X102463600Y-86029900D03*
%TD*%
%TO.C,D6*%
X118567200Y-81483000D03*
X118567200Y-83058000D03*
%TD*%
%TO.C,D1*%
X102565200Y-56591200D03*
X102565200Y-58166200D03*
%TD*%
%TO.C,D2*%
X118618000Y-56413300D03*
X118618000Y-57988300D03*
%TD*%
M02*
