%TF.GenerationSoftware,KiCad,Pcbnew,9.0.6*%
%TF.CreationDate,2025-12-26T20:21:36+00:00*%
%TF.ProjectId,PIDI-BOX-01-RELSW-6-BUTTONS-A1,50494449-2d42-44f5-982d-30312d52454c,rev?*%
%TF.SameCoordinates,Original*%
%TF.FileFunction,Copper,L2,Bot*%
%TF.FilePolarity,Positive*%
%FSLAX46Y46*%
G04 Gerber Fmt 4.6, Leading zero omitted, Abs format (unit mm)*
G04 Created by KiCad (PCBNEW 9.0.6) date 2025-12-26 20:21:36*
%MOMM*%
%LPD*%
G01*
G04 APERTURE LIST*
%ADD10C,0.150000*%
%TA.AperFunction,NonConductor*%
%ADD11C,0.150000*%
%TD*%
%TA.AperFunction,ComponentPad*%
%ADD12R,1.700000X1.700000*%
%TD*%
%TA.AperFunction,ComponentPad*%
%ADD13O,1.700000X1.700000*%
%TD*%
%TA.AperFunction,SMDPad,CuDef*%
%ADD14R,3.000000X1.000000*%
%TD*%
%TA.AperFunction,ViaPad*%
%ADD15C,0.600000*%
%TD*%
%TA.AperFunction,ViaPad*%
%ADD16C,0.500000*%
%TD*%
%TA.AperFunction,Conductor*%
%ADD17C,0.300000*%
%TD*%
%TA.AperFunction,Conductor*%
%ADD18C,0.400000*%
%TD*%
%TA.AperFunction,Conductor*%
%ADD19C,0.600000*%
%TD*%
G04 APERTURE END LIST*
D10*
D11*
X118317304Y-78400039D02*
X119117304Y-78400039D01*
X118736352Y-78400039D02*
X118736352Y-77942896D01*
X118317304Y-77942896D02*
X119117304Y-77942896D01*
X118355400Y-77600040D02*
X118317304Y-77485754D01*
X118317304Y-77485754D02*
X118317304Y-77295278D01*
X118317304Y-77295278D02*
X118355400Y-77219087D01*
X118355400Y-77219087D02*
X118393495Y-77180992D01*
X118393495Y-77180992D02*
X118469685Y-77142897D01*
X118469685Y-77142897D02*
X118545876Y-77142897D01*
X118545876Y-77142897D02*
X118622066Y-77180992D01*
X118622066Y-77180992D02*
X118660161Y-77219087D01*
X118660161Y-77219087D02*
X118698257Y-77295278D01*
X118698257Y-77295278D02*
X118736352Y-77447659D01*
X118736352Y-77447659D02*
X118774447Y-77523849D01*
X118774447Y-77523849D02*
X118812542Y-77561944D01*
X118812542Y-77561944D02*
X118888733Y-77600040D01*
X118888733Y-77600040D02*
X118964923Y-77600040D01*
X118964923Y-77600040D02*
X119041114Y-77561944D01*
X119041114Y-77561944D02*
X119079209Y-77523849D01*
X119079209Y-77523849D02*
X119117304Y-77447659D01*
X119117304Y-77447659D02*
X119117304Y-77257182D01*
X119117304Y-77257182D02*
X119079209Y-77142897D01*
X118317304Y-76380992D02*
X118317304Y-76838135D01*
X118317304Y-76609563D02*
X119117304Y-76609563D01*
X119117304Y-76609563D02*
X119003019Y-76685754D01*
X119003019Y-76685754D02*
X118926828Y-76761944D01*
X118926828Y-76761944D02*
X118888733Y-76838135D01*
X118622066Y-76038134D02*
X118622066Y-75428611D01*
X118393495Y-74590515D02*
X118355400Y-74628611D01*
X118355400Y-74628611D02*
X118317304Y-74742896D01*
X118317304Y-74742896D02*
X118317304Y-74819087D01*
X118317304Y-74819087D02*
X118355400Y-74933373D01*
X118355400Y-74933373D02*
X118431590Y-75009563D01*
X118431590Y-75009563D02*
X118507780Y-75047658D01*
X118507780Y-75047658D02*
X118660161Y-75085754D01*
X118660161Y-75085754D02*
X118774447Y-75085754D01*
X118774447Y-75085754D02*
X118926828Y-75047658D01*
X118926828Y-75047658D02*
X119003019Y-75009563D01*
X119003019Y-75009563D02*
X119079209Y-74933373D01*
X119079209Y-74933373D02*
X119117304Y-74819087D01*
X119117304Y-74819087D02*
X119117304Y-74742896D01*
X119117304Y-74742896D02*
X119079209Y-74628611D01*
X119079209Y-74628611D02*
X119041114Y-74590515D01*
X119117304Y-74361944D02*
X119117304Y-73904801D01*
X118317304Y-74133373D02*
X119117304Y-74133373D01*
X118317304Y-73180991D02*
X118698257Y-73447658D01*
X118317304Y-73638134D02*
X119117304Y-73638134D01*
X119117304Y-73638134D02*
X119117304Y-73333372D01*
X119117304Y-73333372D02*
X119079209Y-73257182D01*
X119079209Y-73257182D02*
X119041114Y-73219087D01*
X119041114Y-73219087D02*
X118964923Y-73180991D01*
X118964923Y-73180991D02*
X118850638Y-73180991D01*
X118850638Y-73180991D02*
X118774447Y-73219087D01*
X118774447Y-73219087D02*
X118736352Y-73257182D01*
X118736352Y-73257182D02*
X118698257Y-73333372D01*
X118698257Y-73333372D02*
X118698257Y-73638134D01*
X118622066Y-72838134D02*
X118622066Y-72228611D01*
X118317304Y-71390515D02*
X118698257Y-71657182D01*
X118317304Y-71847658D02*
X119117304Y-71847658D01*
X119117304Y-71847658D02*
X119117304Y-71542896D01*
X119117304Y-71542896D02*
X119079209Y-71466706D01*
X119079209Y-71466706D02*
X119041114Y-71428611D01*
X119041114Y-71428611D02*
X118964923Y-71390515D01*
X118964923Y-71390515D02*
X118850638Y-71390515D01*
X118850638Y-71390515D02*
X118774447Y-71428611D01*
X118774447Y-71428611D02*
X118736352Y-71466706D01*
X118736352Y-71466706D02*
X118698257Y-71542896D01*
X118698257Y-71542896D02*
X118698257Y-71847658D01*
X118736352Y-71047658D02*
X118736352Y-70780992D01*
X118317304Y-70666706D02*
X118317304Y-71047658D01*
X118317304Y-71047658D02*
X119117304Y-71047658D01*
X119117304Y-71047658D02*
X119117304Y-70666706D01*
X118317304Y-69942896D02*
X118317304Y-70323848D01*
X118317304Y-70323848D02*
X119117304Y-70323848D01*
X118355400Y-69714325D02*
X118317304Y-69600039D01*
X118317304Y-69600039D02*
X118317304Y-69409563D01*
X118317304Y-69409563D02*
X118355400Y-69333372D01*
X118355400Y-69333372D02*
X118393495Y-69295277D01*
X118393495Y-69295277D02*
X118469685Y-69257182D01*
X118469685Y-69257182D02*
X118545876Y-69257182D01*
X118545876Y-69257182D02*
X118622066Y-69295277D01*
X118622066Y-69295277D02*
X118660161Y-69333372D01*
X118660161Y-69333372D02*
X118698257Y-69409563D01*
X118698257Y-69409563D02*
X118736352Y-69561944D01*
X118736352Y-69561944D02*
X118774447Y-69638134D01*
X118774447Y-69638134D02*
X118812542Y-69676229D01*
X118812542Y-69676229D02*
X118888733Y-69714325D01*
X118888733Y-69714325D02*
X118964923Y-69714325D01*
X118964923Y-69714325D02*
X119041114Y-69676229D01*
X119041114Y-69676229D02*
X119079209Y-69638134D01*
X119079209Y-69638134D02*
X119117304Y-69561944D01*
X119117304Y-69561944D02*
X119117304Y-69371467D01*
X119117304Y-69371467D02*
X119079209Y-69257182D01*
X119117304Y-68990515D02*
X118317304Y-68800039D01*
X118317304Y-68800039D02*
X118888733Y-68647658D01*
X118888733Y-68647658D02*
X118317304Y-68495277D01*
X118317304Y-68495277D02*
X119117304Y-68304801D01*
X118622066Y-68000038D02*
X118622066Y-67390515D01*
X119117304Y-66666705D02*
X119117304Y-66819086D01*
X119117304Y-66819086D02*
X119079209Y-66895277D01*
X119079209Y-66895277D02*
X119041114Y-66933372D01*
X119041114Y-66933372D02*
X118926828Y-67009562D01*
X118926828Y-67009562D02*
X118774447Y-67047658D01*
X118774447Y-67047658D02*
X118469685Y-67047658D01*
X118469685Y-67047658D02*
X118393495Y-67009562D01*
X118393495Y-67009562D02*
X118355400Y-66971467D01*
X118355400Y-66971467D02*
X118317304Y-66895277D01*
X118317304Y-66895277D02*
X118317304Y-66742896D01*
X118317304Y-66742896D02*
X118355400Y-66666705D01*
X118355400Y-66666705D02*
X118393495Y-66628610D01*
X118393495Y-66628610D02*
X118469685Y-66590515D01*
X118469685Y-66590515D02*
X118660161Y-66590515D01*
X118660161Y-66590515D02*
X118736352Y-66628610D01*
X118736352Y-66628610D02*
X118774447Y-66666705D01*
X118774447Y-66666705D02*
X118812542Y-66742896D01*
X118812542Y-66742896D02*
X118812542Y-66895277D01*
X118812542Y-66895277D02*
X118774447Y-66971467D01*
X118774447Y-66971467D02*
X118736352Y-67009562D01*
X118736352Y-67009562D02*
X118660161Y-67047658D01*
X118622066Y-66247657D02*
X118622066Y-65638134D01*
X118736352Y-64990515D02*
X118698257Y-64876229D01*
X118698257Y-64876229D02*
X118660161Y-64838134D01*
X118660161Y-64838134D02*
X118583971Y-64800038D01*
X118583971Y-64800038D02*
X118469685Y-64800038D01*
X118469685Y-64800038D02*
X118393495Y-64838134D01*
X118393495Y-64838134D02*
X118355400Y-64876229D01*
X118355400Y-64876229D02*
X118317304Y-64952419D01*
X118317304Y-64952419D02*
X118317304Y-65257181D01*
X118317304Y-65257181D02*
X119117304Y-65257181D01*
X119117304Y-65257181D02*
X119117304Y-64990515D01*
X119117304Y-64990515D02*
X119079209Y-64914324D01*
X119079209Y-64914324D02*
X119041114Y-64876229D01*
X119041114Y-64876229D02*
X118964923Y-64838134D01*
X118964923Y-64838134D02*
X118888733Y-64838134D01*
X118888733Y-64838134D02*
X118812542Y-64876229D01*
X118812542Y-64876229D02*
X118774447Y-64914324D01*
X118774447Y-64914324D02*
X118736352Y-64990515D01*
X118736352Y-64990515D02*
X118736352Y-65257181D01*
X119117304Y-64457181D02*
X118469685Y-64457181D01*
X118469685Y-64457181D02*
X118393495Y-64419086D01*
X118393495Y-64419086D02*
X118355400Y-64380991D01*
X118355400Y-64380991D02*
X118317304Y-64304800D01*
X118317304Y-64304800D02*
X118317304Y-64152419D01*
X118317304Y-64152419D02*
X118355400Y-64076229D01*
X118355400Y-64076229D02*
X118393495Y-64038134D01*
X118393495Y-64038134D02*
X118469685Y-64000038D01*
X118469685Y-64000038D02*
X119117304Y-64000038D01*
X119117304Y-63733372D02*
X119117304Y-63276229D01*
X118317304Y-63504801D02*
X119117304Y-63504801D01*
X119117304Y-63123848D02*
X119117304Y-62666705D01*
X118317304Y-62895277D02*
X119117304Y-62895277D01*
X119117304Y-62247657D02*
X119117304Y-62095276D01*
X119117304Y-62095276D02*
X119079209Y-62019086D01*
X119079209Y-62019086D02*
X119003019Y-61942895D01*
X119003019Y-61942895D02*
X118850638Y-61904800D01*
X118850638Y-61904800D02*
X118583971Y-61904800D01*
X118583971Y-61904800D02*
X118431590Y-61942895D01*
X118431590Y-61942895D02*
X118355400Y-62019086D01*
X118355400Y-62019086D02*
X118317304Y-62095276D01*
X118317304Y-62095276D02*
X118317304Y-62247657D01*
X118317304Y-62247657D02*
X118355400Y-62323848D01*
X118355400Y-62323848D02*
X118431590Y-62400038D01*
X118431590Y-62400038D02*
X118583971Y-62438134D01*
X118583971Y-62438134D02*
X118850638Y-62438134D01*
X118850638Y-62438134D02*
X119003019Y-62400038D01*
X119003019Y-62400038D02*
X119079209Y-62323848D01*
X119079209Y-62323848D02*
X119117304Y-62247657D01*
X118317304Y-61561943D02*
X119117304Y-61561943D01*
X119117304Y-61561943D02*
X118317304Y-61104800D01*
X118317304Y-61104800D02*
X119117304Y-61104800D01*
X118355400Y-60761944D02*
X118317304Y-60647658D01*
X118317304Y-60647658D02*
X118317304Y-60457182D01*
X118317304Y-60457182D02*
X118355400Y-60380991D01*
X118355400Y-60380991D02*
X118393495Y-60342896D01*
X118393495Y-60342896D02*
X118469685Y-60304801D01*
X118469685Y-60304801D02*
X118545876Y-60304801D01*
X118545876Y-60304801D02*
X118622066Y-60342896D01*
X118622066Y-60342896D02*
X118660161Y-60380991D01*
X118660161Y-60380991D02*
X118698257Y-60457182D01*
X118698257Y-60457182D02*
X118736352Y-60609563D01*
X118736352Y-60609563D02*
X118774447Y-60685753D01*
X118774447Y-60685753D02*
X118812542Y-60723848D01*
X118812542Y-60723848D02*
X118888733Y-60761944D01*
X118888733Y-60761944D02*
X118964923Y-60761944D01*
X118964923Y-60761944D02*
X119041114Y-60723848D01*
X119041114Y-60723848D02*
X119079209Y-60685753D01*
X119079209Y-60685753D02*
X119117304Y-60609563D01*
X119117304Y-60609563D02*
X119117304Y-60419086D01*
X119117304Y-60419086D02*
X119079209Y-60304801D01*
X118622066Y-59961943D02*
X118622066Y-59352420D01*
X118545876Y-59009563D02*
X118545876Y-58628610D01*
X118317304Y-59085753D02*
X119117304Y-58819086D01*
X119117304Y-58819086D02*
X118317304Y-58552420D01*
X118317304Y-57866706D02*
X118317304Y-58323849D01*
X118317304Y-58095277D02*
X119117304Y-58095277D01*
X119117304Y-58095277D02*
X119003019Y-58171468D01*
X119003019Y-58171468D02*
X118926828Y-58247658D01*
X118926828Y-58247658D02*
X118888733Y-58323849D01*
D12*
%TO.P,J3,1,Pin_1*%
%TO.N,unconnected-(J3-Pin_1-Pad1)*%
X121405800Y-82545000D03*
D13*
%TO.P,J3,2,Pin_2*%
%TO.N,unconnected-(J3-Pin_2-Pad2)*%
X121405800Y-85085000D03*
%TD*%
D12*
%TO.P,J2,1,Pin_1*%
%TO.N,unconnected-(J2-Pin_1-Pad1)*%
X121405800Y-53030200D03*
D13*
%TO.P,J2,2,Pin_2*%
%TO.N,unconnected-(J2-Pin_2-Pad2)*%
X121405800Y-55570200D03*
%TD*%
D14*
%TO.P,J1,1,Pin_1*%
%TO.N,+12V*%
X104210800Y-63246000D03*
%TO.P,J1,2,Pin_2*%
%TO.N,S6*%
X109250800Y-63246000D03*
%TO.P,J1,3,Pin_3*%
%TO.N,unconnected-(J1-Pin_3-Pad3)*%
X104210800Y-65786000D03*
%TO.P,J1,4,Pin_4*%
%TO.N,S5*%
X109250800Y-65786000D03*
%TO.P,J1,5,Pin_5*%
%TO.N,unconnected-(J1-Pin_5-Pad5)*%
X104210800Y-68326000D03*
%TO.P,J1,6,Pin_6*%
%TO.N,S4*%
X109250800Y-68326000D03*
%TO.P,J1,7,Pin_7*%
%TO.N,unconnected-(J1-Pin_7-Pad7)*%
X104210800Y-70866000D03*
%TO.P,J1,8,Pin_8*%
%TO.N,S3*%
X109250800Y-70866000D03*
%TO.P,J1,9,Pin_9*%
%TO.N,S1*%
X104210800Y-73406000D03*
%TO.P,J1,10,Pin_10*%
%TO.N,S2*%
X109250800Y-73406000D03*
%TO.P,J1,11,Pin_11*%
%TO.N,GND*%
X104210800Y-75946000D03*
%TO.P,J1,12,Pin_12*%
X109250800Y-75946000D03*
%TD*%
D15*
%TO.N,S1*%
X104495600Y-55067200D03*
%TO.N,S2*%
X115417600Y-56413300D03*
%TO.N,S3*%
X107086400Y-70866000D03*
%TO.N,S4*%
X113487200Y-65147600D03*
%TO.N,S6*%
X114503200Y-77520800D03*
%TO.N,S5*%
X112572800Y-81127600D03*
D16*
%TO.N,+12V*%
X105054400Y-57658000D03*
D15*
%TO.N,GND*%
X109250800Y-79806800D03*
X114198400Y-69494400D03*
X109016800Y-54965600D03*
X116586000Y-67259200D03*
X116586000Y-79806800D03*
X116586000Y-54965600D03*
%TD*%
D17*
%TO.N,S1*%
X102006400Y-72390000D02*
X103022400Y-73406000D01*
X103022400Y-73406000D02*
X104210800Y-73406000D01*
X102006400Y-57556400D02*
X102006400Y-72390000D01*
X104495600Y-55067200D02*
X102006400Y-57556400D01*
%TO.N,S2*%
X115417600Y-56413300D02*
X107823100Y-56413300D01*
X107340400Y-73406000D02*
X109250800Y-73406000D01*
X107823100Y-56413300D02*
X106324400Y-57912000D01*
X106324400Y-72390000D02*
X107340400Y-73406000D01*
X106324400Y-57912000D02*
X106324400Y-72390000D01*
%TO.N,S3*%
X109250800Y-70866000D02*
X106934000Y-70866000D01*
%TO.N,S4*%
X113487200Y-65147600D02*
X113487200Y-67106800D01*
X112268000Y-68326000D02*
X109250800Y-68326000D01*
X113487200Y-67106800D02*
X112268000Y-68326000D01*
%TO.N,S6*%
X114503200Y-71526400D02*
X114503200Y-77520800D01*
X114401600Y-64414400D02*
X114401600Y-67716400D01*
X113233200Y-63246000D02*
X114401600Y-64414400D01*
X114401600Y-67716400D02*
X113334800Y-68783200D01*
X113334800Y-68783200D02*
X113334800Y-70358000D01*
X109250800Y-63246000D02*
X113233200Y-63246000D01*
X113334800Y-70358000D02*
X114503200Y-71526400D01*
%TO.N,S5*%
X112776000Y-71221600D02*
X111150400Y-69596000D01*
X107442000Y-69596000D02*
X107086400Y-69240400D01*
X111150400Y-69596000D02*
X107442000Y-69596000D01*
X112776000Y-80924400D02*
X112776000Y-71221600D01*
X107086400Y-66598800D02*
X107899200Y-65786000D01*
X107899200Y-65786000D02*
X109250800Y-65786000D01*
X112572800Y-81127600D02*
X112776000Y-80924400D01*
X107086400Y-69240400D02*
X107086400Y-66598800D01*
D18*
%TO.N,+12V*%
X104210800Y-63246000D02*
X104210800Y-62616400D01*
X104210800Y-62616400D02*
X105054400Y-61772800D01*
X105054400Y-61772800D02*
X105054400Y-57658000D01*
D19*
%TO.N,GND*%
X109250800Y-79806800D02*
X111943200Y-82499200D01*
X116586000Y-54965600D02*
X116586000Y-67259200D01*
X109250800Y-75946000D02*
X104210800Y-75946000D01*
X113893600Y-82499200D02*
X116586000Y-79806800D01*
X109250800Y-79806800D02*
X109250800Y-75946000D01*
X116586000Y-79806800D02*
X116586000Y-67259200D01*
X109016800Y-54965600D02*
X116586000Y-54965600D01*
X114198400Y-69494400D02*
X116535200Y-69494400D01*
X111943200Y-82499200D02*
X113893600Y-82499200D01*
%TD*%
M02*
