%TF.GenerationSoftware,KiCad,Pcbnew,9.0.6*%
%TF.CreationDate,2025-12-26T20:21:36+00:00*%
%TF.ProjectId,PIDI-BOX-01-RELSW-6-BUTTONS-A1,50494449-2d42-44f5-982d-30312d52454c,rev?*%
%TF.SameCoordinates,Original*%
%TF.FileFunction,Legend,Top*%
%TF.FilePolarity,Positive*%
%FSLAX46Y46*%
G04 Gerber Fmt 4.6, Leading zero omitted, Abs format (unit mm)*
G04 Created by KiCad (PCBNEW 9.0.6) date 2025-12-26 20:21:36*
%MOMM*%
%LPD*%
G01*
G04 APERTURE LIST*
%ADD10C,0.150000*%
%ADD11C,0.100000*%
%ADD12C,0.120000*%
%ADD13C,0.127000*%
%ADD14C,0.300000*%
G04 APERTURE END LIST*
D10*
X110841495Y-78019039D02*
X110041495Y-78019039D01*
X110041495Y-78019039D02*
X110041495Y-77714277D01*
X110041495Y-77714277D02*
X110079590Y-77638087D01*
X110079590Y-77638087D02*
X110117685Y-77599992D01*
X110117685Y-77599992D02*
X110193876Y-77561896D01*
X110193876Y-77561896D02*
X110308161Y-77561896D01*
X110308161Y-77561896D02*
X110384352Y-77599992D01*
X110384352Y-77599992D02*
X110422447Y-77638087D01*
X110422447Y-77638087D02*
X110460542Y-77714277D01*
X110460542Y-77714277D02*
X110460542Y-78019039D01*
X110841495Y-77219039D02*
X110041495Y-77219039D01*
X110841495Y-76838087D02*
X110041495Y-76838087D01*
X110041495Y-76838087D02*
X110041495Y-76647611D01*
X110041495Y-76647611D02*
X110079590Y-76533325D01*
X110079590Y-76533325D02*
X110155780Y-76457135D01*
X110155780Y-76457135D02*
X110231971Y-76419040D01*
X110231971Y-76419040D02*
X110384352Y-76380944D01*
X110384352Y-76380944D02*
X110498638Y-76380944D01*
X110498638Y-76380944D02*
X110651019Y-76419040D01*
X110651019Y-76419040D02*
X110727209Y-76457135D01*
X110727209Y-76457135D02*
X110803400Y-76533325D01*
X110803400Y-76533325D02*
X110841495Y-76647611D01*
X110841495Y-76647611D02*
X110841495Y-76838087D01*
X110841495Y-76038087D02*
X110041495Y-76038087D01*
X110536733Y-75657135D02*
X110536733Y-75047612D01*
X110422447Y-74399993D02*
X110460542Y-74285707D01*
X110460542Y-74285707D02*
X110498638Y-74247612D01*
X110498638Y-74247612D02*
X110574828Y-74209516D01*
X110574828Y-74209516D02*
X110689114Y-74209516D01*
X110689114Y-74209516D02*
X110765304Y-74247612D01*
X110765304Y-74247612D02*
X110803400Y-74285707D01*
X110803400Y-74285707D02*
X110841495Y-74361897D01*
X110841495Y-74361897D02*
X110841495Y-74666659D01*
X110841495Y-74666659D02*
X110041495Y-74666659D01*
X110041495Y-74666659D02*
X110041495Y-74399993D01*
X110041495Y-74399993D02*
X110079590Y-74323802D01*
X110079590Y-74323802D02*
X110117685Y-74285707D01*
X110117685Y-74285707D02*
X110193876Y-74247612D01*
X110193876Y-74247612D02*
X110270066Y-74247612D01*
X110270066Y-74247612D02*
X110346257Y-74285707D01*
X110346257Y-74285707D02*
X110384352Y-74323802D01*
X110384352Y-74323802D02*
X110422447Y-74399993D01*
X110422447Y-74399993D02*
X110422447Y-74666659D01*
X110041495Y-73714278D02*
X110041495Y-73561897D01*
X110041495Y-73561897D02*
X110079590Y-73485707D01*
X110079590Y-73485707D02*
X110155780Y-73409516D01*
X110155780Y-73409516D02*
X110308161Y-73371421D01*
X110308161Y-73371421D02*
X110574828Y-73371421D01*
X110574828Y-73371421D02*
X110727209Y-73409516D01*
X110727209Y-73409516D02*
X110803400Y-73485707D01*
X110803400Y-73485707D02*
X110841495Y-73561897D01*
X110841495Y-73561897D02*
X110841495Y-73714278D01*
X110841495Y-73714278D02*
X110803400Y-73790469D01*
X110803400Y-73790469D02*
X110727209Y-73866659D01*
X110727209Y-73866659D02*
X110574828Y-73904755D01*
X110574828Y-73904755D02*
X110308161Y-73904755D01*
X110308161Y-73904755D02*
X110155780Y-73866659D01*
X110155780Y-73866659D02*
X110079590Y-73790469D01*
X110079590Y-73790469D02*
X110041495Y-73714278D01*
X110041495Y-73104755D02*
X110841495Y-72571421D01*
X110041495Y-72571421D02*
X110841495Y-73104755D01*
X110536733Y-72266659D02*
X110536733Y-71657136D01*
X110041495Y-71123802D02*
X110041495Y-71047612D01*
X110041495Y-71047612D02*
X110079590Y-70971421D01*
X110079590Y-70971421D02*
X110117685Y-70933326D01*
X110117685Y-70933326D02*
X110193876Y-70895231D01*
X110193876Y-70895231D02*
X110346257Y-70857136D01*
X110346257Y-70857136D02*
X110536733Y-70857136D01*
X110536733Y-70857136D02*
X110689114Y-70895231D01*
X110689114Y-70895231D02*
X110765304Y-70933326D01*
X110765304Y-70933326D02*
X110803400Y-70971421D01*
X110803400Y-70971421D02*
X110841495Y-71047612D01*
X110841495Y-71047612D02*
X110841495Y-71123802D01*
X110841495Y-71123802D02*
X110803400Y-71199993D01*
X110803400Y-71199993D02*
X110765304Y-71238088D01*
X110765304Y-71238088D02*
X110689114Y-71276183D01*
X110689114Y-71276183D02*
X110536733Y-71314279D01*
X110536733Y-71314279D02*
X110346257Y-71314279D01*
X110346257Y-71314279D02*
X110193876Y-71276183D01*
X110193876Y-71276183D02*
X110117685Y-71238088D01*
X110117685Y-71238088D02*
X110079590Y-71199993D01*
X110079590Y-71199993D02*
X110041495Y-71123802D01*
X110841495Y-70095231D02*
X110841495Y-70552374D01*
X110841495Y-70323802D02*
X110041495Y-70323802D01*
X110041495Y-70323802D02*
X110155780Y-70399993D01*
X110155780Y-70399993D02*
X110231971Y-70476183D01*
X110231971Y-70476183D02*
X110270066Y-70552374D01*
X110536733Y-69752373D02*
X110536733Y-69142850D01*
X110841495Y-68304754D02*
X110460542Y-68571421D01*
X110841495Y-68761897D02*
X110041495Y-68761897D01*
X110041495Y-68761897D02*
X110041495Y-68457135D01*
X110041495Y-68457135D02*
X110079590Y-68380945D01*
X110079590Y-68380945D02*
X110117685Y-68342850D01*
X110117685Y-68342850D02*
X110193876Y-68304754D01*
X110193876Y-68304754D02*
X110308161Y-68304754D01*
X110308161Y-68304754D02*
X110384352Y-68342850D01*
X110384352Y-68342850D02*
X110422447Y-68380945D01*
X110422447Y-68380945D02*
X110460542Y-68457135D01*
X110460542Y-68457135D02*
X110460542Y-68761897D01*
X110422447Y-67961897D02*
X110422447Y-67695231D01*
X110841495Y-67580945D02*
X110841495Y-67961897D01*
X110841495Y-67961897D02*
X110041495Y-67961897D01*
X110041495Y-67961897D02*
X110041495Y-67580945D01*
X110841495Y-66857135D02*
X110841495Y-67238087D01*
X110841495Y-67238087D02*
X110041495Y-67238087D01*
X110803400Y-66628564D02*
X110841495Y-66514278D01*
X110841495Y-66514278D02*
X110841495Y-66323802D01*
X110841495Y-66323802D02*
X110803400Y-66247611D01*
X110803400Y-66247611D02*
X110765304Y-66209516D01*
X110765304Y-66209516D02*
X110689114Y-66171421D01*
X110689114Y-66171421D02*
X110612923Y-66171421D01*
X110612923Y-66171421D02*
X110536733Y-66209516D01*
X110536733Y-66209516D02*
X110498638Y-66247611D01*
X110498638Y-66247611D02*
X110460542Y-66323802D01*
X110460542Y-66323802D02*
X110422447Y-66476183D01*
X110422447Y-66476183D02*
X110384352Y-66552373D01*
X110384352Y-66552373D02*
X110346257Y-66590468D01*
X110346257Y-66590468D02*
X110270066Y-66628564D01*
X110270066Y-66628564D02*
X110193876Y-66628564D01*
X110193876Y-66628564D02*
X110117685Y-66590468D01*
X110117685Y-66590468D02*
X110079590Y-66552373D01*
X110079590Y-66552373D02*
X110041495Y-66476183D01*
X110041495Y-66476183D02*
X110041495Y-66285706D01*
X110041495Y-66285706D02*
X110079590Y-66171421D01*
X110041495Y-65904754D02*
X110841495Y-65714278D01*
X110841495Y-65714278D02*
X110270066Y-65561897D01*
X110270066Y-65561897D02*
X110841495Y-65409516D01*
X110841495Y-65409516D02*
X110041495Y-65219040D01*
X110536733Y-64914277D02*
X110536733Y-64304754D01*
X110041495Y-63580944D02*
X110041495Y-63733325D01*
X110041495Y-63733325D02*
X110079590Y-63809516D01*
X110079590Y-63809516D02*
X110117685Y-63847611D01*
X110117685Y-63847611D02*
X110231971Y-63923801D01*
X110231971Y-63923801D02*
X110384352Y-63961897D01*
X110384352Y-63961897D02*
X110689114Y-63961897D01*
X110689114Y-63961897D02*
X110765304Y-63923801D01*
X110765304Y-63923801D02*
X110803400Y-63885706D01*
X110803400Y-63885706D02*
X110841495Y-63809516D01*
X110841495Y-63809516D02*
X110841495Y-63657135D01*
X110841495Y-63657135D02*
X110803400Y-63580944D01*
X110803400Y-63580944D02*
X110765304Y-63542849D01*
X110765304Y-63542849D02*
X110689114Y-63504754D01*
X110689114Y-63504754D02*
X110498638Y-63504754D01*
X110498638Y-63504754D02*
X110422447Y-63542849D01*
X110422447Y-63542849D02*
X110384352Y-63580944D01*
X110384352Y-63580944D02*
X110346257Y-63657135D01*
X110346257Y-63657135D02*
X110346257Y-63809516D01*
X110346257Y-63809516D02*
X110384352Y-63885706D01*
X110384352Y-63885706D02*
X110422447Y-63923801D01*
X110422447Y-63923801D02*
X110498638Y-63961897D01*
X110536733Y-63161896D02*
X110536733Y-62552373D01*
X110422447Y-61904754D02*
X110460542Y-61790468D01*
X110460542Y-61790468D02*
X110498638Y-61752373D01*
X110498638Y-61752373D02*
X110574828Y-61714277D01*
X110574828Y-61714277D02*
X110689114Y-61714277D01*
X110689114Y-61714277D02*
X110765304Y-61752373D01*
X110765304Y-61752373D02*
X110803400Y-61790468D01*
X110803400Y-61790468D02*
X110841495Y-61866658D01*
X110841495Y-61866658D02*
X110841495Y-62171420D01*
X110841495Y-62171420D02*
X110041495Y-62171420D01*
X110041495Y-62171420D02*
X110041495Y-61904754D01*
X110041495Y-61904754D02*
X110079590Y-61828563D01*
X110079590Y-61828563D02*
X110117685Y-61790468D01*
X110117685Y-61790468D02*
X110193876Y-61752373D01*
X110193876Y-61752373D02*
X110270066Y-61752373D01*
X110270066Y-61752373D02*
X110346257Y-61790468D01*
X110346257Y-61790468D02*
X110384352Y-61828563D01*
X110384352Y-61828563D02*
X110422447Y-61904754D01*
X110422447Y-61904754D02*
X110422447Y-62171420D01*
X110041495Y-61371420D02*
X110689114Y-61371420D01*
X110689114Y-61371420D02*
X110765304Y-61333325D01*
X110765304Y-61333325D02*
X110803400Y-61295230D01*
X110803400Y-61295230D02*
X110841495Y-61219039D01*
X110841495Y-61219039D02*
X110841495Y-61066658D01*
X110841495Y-61066658D02*
X110803400Y-60990468D01*
X110803400Y-60990468D02*
X110765304Y-60952373D01*
X110765304Y-60952373D02*
X110689114Y-60914277D01*
X110689114Y-60914277D02*
X110041495Y-60914277D01*
X110041495Y-60647611D02*
X110041495Y-60190468D01*
X110841495Y-60419040D02*
X110041495Y-60419040D01*
X110041495Y-60038087D02*
X110041495Y-59580944D01*
X110841495Y-59809516D02*
X110041495Y-59809516D01*
X110041495Y-59161896D02*
X110041495Y-59009515D01*
X110041495Y-59009515D02*
X110079590Y-58933325D01*
X110079590Y-58933325D02*
X110155780Y-58857134D01*
X110155780Y-58857134D02*
X110308161Y-58819039D01*
X110308161Y-58819039D02*
X110574828Y-58819039D01*
X110574828Y-58819039D02*
X110727209Y-58857134D01*
X110727209Y-58857134D02*
X110803400Y-58933325D01*
X110803400Y-58933325D02*
X110841495Y-59009515D01*
X110841495Y-59009515D02*
X110841495Y-59161896D01*
X110841495Y-59161896D02*
X110803400Y-59238087D01*
X110803400Y-59238087D02*
X110727209Y-59314277D01*
X110727209Y-59314277D02*
X110574828Y-59352373D01*
X110574828Y-59352373D02*
X110308161Y-59352373D01*
X110308161Y-59352373D02*
X110155780Y-59314277D01*
X110155780Y-59314277D02*
X110079590Y-59238087D01*
X110079590Y-59238087D02*
X110041495Y-59161896D01*
X110841495Y-58476182D02*
X110041495Y-58476182D01*
X110041495Y-58476182D02*
X110841495Y-58019039D01*
X110841495Y-58019039D02*
X110041495Y-58019039D01*
X110803400Y-57676183D02*
X110841495Y-57561897D01*
X110841495Y-57561897D02*
X110841495Y-57371421D01*
X110841495Y-57371421D02*
X110803400Y-57295230D01*
X110803400Y-57295230D02*
X110765304Y-57257135D01*
X110765304Y-57257135D02*
X110689114Y-57219040D01*
X110689114Y-57219040D02*
X110612923Y-57219040D01*
X110612923Y-57219040D02*
X110536733Y-57257135D01*
X110536733Y-57257135D02*
X110498638Y-57295230D01*
X110498638Y-57295230D02*
X110460542Y-57371421D01*
X110460542Y-57371421D02*
X110422447Y-57523802D01*
X110422447Y-57523802D02*
X110384352Y-57599992D01*
X110384352Y-57599992D02*
X110346257Y-57638087D01*
X110346257Y-57638087D02*
X110270066Y-57676183D01*
X110270066Y-57676183D02*
X110193876Y-57676183D01*
X110193876Y-57676183D02*
X110117685Y-57638087D01*
X110117685Y-57638087D02*
X110079590Y-57599992D01*
X110079590Y-57599992D02*
X110041495Y-57523802D01*
X110041495Y-57523802D02*
X110041495Y-57333325D01*
X110041495Y-57333325D02*
X110079590Y-57219040D01*
X110536733Y-56876182D02*
X110536733Y-56266659D01*
X110612923Y-55923802D02*
X110612923Y-55542849D01*
X110841495Y-55999992D02*
X110041495Y-55733325D01*
X110041495Y-55733325D02*
X110841495Y-55466659D01*
X110841495Y-54780945D02*
X110841495Y-55238088D01*
X110841495Y-55009516D02*
X110041495Y-55009516D01*
X110041495Y-55009516D02*
X110155780Y-55085707D01*
X110155780Y-55085707D02*
X110231971Y-55161897D01*
X110231971Y-55161897D02*
X110270066Y-55238088D01*
X124140933Y-60043219D02*
X123807600Y-59567028D01*
X123569505Y-60043219D02*
X123569505Y-59043219D01*
X123569505Y-59043219D02*
X123950457Y-59043219D01*
X123950457Y-59043219D02*
X124045695Y-59090838D01*
X124045695Y-59090838D02*
X124093314Y-59138457D01*
X124093314Y-59138457D02*
X124140933Y-59233695D01*
X124140933Y-59233695D02*
X124140933Y-59376552D01*
X124140933Y-59376552D02*
X124093314Y-59471790D01*
X124093314Y-59471790D02*
X124045695Y-59519409D01*
X124045695Y-59519409D02*
X123950457Y-59567028D01*
X123950457Y-59567028D02*
X123569505Y-59567028D01*
X124474267Y-59043219D02*
X125140933Y-59043219D01*
X125140933Y-59043219D02*
X124712362Y-60043219D01*
D11*
X101873124Y-80120895D02*
X101873124Y-79320895D01*
X101873124Y-79320895D02*
X102063600Y-79320895D01*
X102063600Y-79320895D02*
X102177886Y-79358990D01*
X102177886Y-79358990D02*
X102254076Y-79435180D01*
X102254076Y-79435180D02*
X102292171Y-79511371D01*
X102292171Y-79511371D02*
X102330267Y-79663752D01*
X102330267Y-79663752D02*
X102330267Y-79778038D01*
X102330267Y-79778038D02*
X102292171Y-79930419D01*
X102292171Y-79930419D02*
X102254076Y-80006609D01*
X102254076Y-80006609D02*
X102177886Y-80082800D01*
X102177886Y-80082800D02*
X102063600Y-80120895D01*
X102063600Y-80120895D02*
X101873124Y-80120895D01*
X103054076Y-79320895D02*
X102673124Y-79320895D01*
X102673124Y-79320895D02*
X102635028Y-79701847D01*
X102635028Y-79701847D02*
X102673124Y-79663752D01*
X102673124Y-79663752D02*
X102749314Y-79625657D01*
X102749314Y-79625657D02*
X102939790Y-79625657D01*
X102939790Y-79625657D02*
X103015981Y-79663752D01*
X103015981Y-79663752D02*
X103054076Y-79701847D01*
X103054076Y-79701847D02*
X103092171Y-79778038D01*
X103092171Y-79778038D02*
X103092171Y-79968514D01*
X103092171Y-79968514D02*
X103054076Y-80044704D01*
X103054076Y-80044704D02*
X103015981Y-80082800D01*
X103015981Y-80082800D02*
X102939790Y-80120895D01*
X102939790Y-80120895D02*
X102749314Y-80120895D01*
X102749314Y-80120895D02*
X102673124Y-80082800D01*
X102673124Y-80082800D02*
X102635028Y-80044704D01*
D10*
X105994295Y-53467800D02*
X106137152Y-53515419D01*
X106137152Y-53515419D02*
X106375247Y-53515419D01*
X106375247Y-53515419D02*
X106470485Y-53467800D01*
X106470485Y-53467800D02*
X106518104Y-53420180D01*
X106518104Y-53420180D02*
X106565723Y-53324942D01*
X106565723Y-53324942D02*
X106565723Y-53229704D01*
X106565723Y-53229704D02*
X106518104Y-53134466D01*
X106518104Y-53134466D02*
X106470485Y-53086847D01*
X106470485Y-53086847D02*
X106375247Y-53039228D01*
X106375247Y-53039228D02*
X106184771Y-52991609D01*
X106184771Y-52991609D02*
X106089533Y-52943990D01*
X106089533Y-52943990D02*
X106041914Y-52896371D01*
X106041914Y-52896371D02*
X105994295Y-52801133D01*
X105994295Y-52801133D02*
X105994295Y-52705895D01*
X105994295Y-52705895D02*
X106041914Y-52610657D01*
X106041914Y-52610657D02*
X106089533Y-52563038D01*
X106089533Y-52563038D02*
X106184771Y-52515419D01*
X106184771Y-52515419D02*
X106422866Y-52515419D01*
X106422866Y-52515419D02*
X106565723Y-52563038D01*
X107518104Y-53515419D02*
X106946676Y-53515419D01*
X107232390Y-53515419D02*
X107232390Y-52515419D01*
X107232390Y-52515419D02*
X107137152Y-52658276D01*
X107137152Y-52658276D02*
X107041914Y-52753514D01*
X107041914Y-52753514D02*
X106946676Y-52801133D01*
D11*
X118433867Y-75980795D02*
X118167200Y-75599842D01*
X117976724Y-75980795D02*
X117976724Y-75180795D01*
X117976724Y-75180795D02*
X118281486Y-75180795D01*
X118281486Y-75180795D02*
X118357676Y-75218890D01*
X118357676Y-75218890D02*
X118395771Y-75256985D01*
X118395771Y-75256985D02*
X118433867Y-75333176D01*
X118433867Y-75333176D02*
X118433867Y-75447461D01*
X118433867Y-75447461D02*
X118395771Y-75523652D01*
X118395771Y-75523652D02*
X118357676Y-75561747D01*
X118357676Y-75561747D02*
X118281486Y-75599842D01*
X118281486Y-75599842D02*
X117976724Y-75599842D01*
X119119581Y-75447461D02*
X119119581Y-75980795D01*
X118929105Y-75142700D02*
X118738628Y-75714128D01*
X118738628Y-75714128D02*
X119233867Y-75714128D01*
X123278933Y-87448895D02*
X123278933Y-88020323D01*
X123278933Y-88020323D02*
X123240838Y-88134609D01*
X123240838Y-88134609D02*
X123164647Y-88210800D01*
X123164647Y-88210800D02*
X123050362Y-88248895D01*
X123050362Y-88248895D02*
X122974171Y-88248895D01*
X123583695Y-87448895D02*
X124078933Y-87448895D01*
X124078933Y-87448895D02*
X123812267Y-87753657D01*
X123812267Y-87753657D02*
X123926552Y-87753657D01*
X123926552Y-87753657D02*
X124002743Y-87791752D01*
X124002743Y-87791752D02*
X124040838Y-87829847D01*
X124040838Y-87829847D02*
X124078933Y-87906038D01*
X124078933Y-87906038D02*
X124078933Y-88096514D01*
X124078933Y-88096514D02*
X124040838Y-88172704D01*
X124040838Y-88172704D02*
X124002743Y-88210800D01*
X124002743Y-88210800D02*
X123926552Y-88248895D01*
X123926552Y-88248895D02*
X123697981Y-88248895D01*
X123697981Y-88248895D02*
X123621790Y-88210800D01*
X123621790Y-88210800D02*
X123583695Y-88172704D01*
D10*
X113538095Y-53493200D02*
X113680952Y-53540819D01*
X113680952Y-53540819D02*
X113919047Y-53540819D01*
X113919047Y-53540819D02*
X114014285Y-53493200D01*
X114014285Y-53493200D02*
X114061904Y-53445580D01*
X114061904Y-53445580D02*
X114109523Y-53350342D01*
X114109523Y-53350342D02*
X114109523Y-53255104D01*
X114109523Y-53255104D02*
X114061904Y-53159866D01*
X114061904Y-53159866D02*
X114014285Y-53112247D01*
X114014285Y-53112247D02*
X113919047Y-53064628D01*
X113919047Y-53064628D02*
X113728571Y-53017009D01*
X113728571Y-53017009D02*
X113633333Y-52969390D01*
X113633333Y-52969390D02*
X113585714Y-52921771D01*
X113585714Y-52921771D02*
X113538095Y-52826533D01*
X113538095Y-52826533D02*
X113538095Y-52731295D01*
X113538095Y-52731295D02*
X113585714Y-52636057D01*
X113585714Y-52636057D02*
X113633333Y-52588438D01*
X113633333Y-52588438D02*
X113728571Y-52540819D01*
X113728571Y-52540819D02*
X113966666Y-52540819D01*
X113966666Y-52540819D02*
X114109523Y-52588438D01*
X114490476Y-52636057D02*
X114538095Y-52588438D01*
X114538095Y-52588438D02*
X114633333Y-52540819D01*
X114633333Y-52540819D02*
X114871428Y-52540819D01*
X114871428Y-52540819D02*
X114966666Y-52588438D01*
X114966666Y-52588438D02*
X115014285Y-52636057D01*
X115014285Y-52636057D02*
X115061904Y-52731295D01*
X115061904Y-52731295D02*
X115061904Y-52826533D01*
X115061904Y-52826533D02*
X115014285Y-52969390D01*
X115014285Y-52969390D02*
X114442857Y-53540819D01*
X114442857Y-53540819D02*
X115061904Y-53540819D01*
D11*
X102076267Y-63179095D02*
X101809600Y-62798142D01*
X101619124Y-63179095D02*
X101619124Y-62379095D01*
X101619124Y-62379095D02*
X101923886Y-62379095D01*
X101923886Y-62379095D02*
X102000076Y-62417190D01*
X102000076Y-62417190D02*
X102038171Y-62455285D01*
X102038171Y-62455285D02*
X102076267Y-62531476D01*
X102076267Y-62531476D02*
X102076267Y-62645761D01*
X102076267Y-62645761D02*
X102038171Y-62721952D01*
X102038171Y-62721952D02*
X102000076Y-62760047D01*
X102000076Y-62760047D02*
X101923886Y-62798142D01*
X101923886Y-62798142D02*
X101619124Y-62798142D01*
X102838171Y-63179095D02*
X102381028Y-63179095D01*
X102609600Y-63179095D02*
X102609600Y-62379095D01*
X102609600Y-62379095D02*
X102533409Y-62493380D01*
X102533409Y-62493380D02*
X102457219Y-62569571D01*
X102457219Y-62569571D02*
X102381028Y-62607666D01*
D10*
X105994295Y-78410600D02*
X106137152Y-78458219D01*
X106137152Y-78458219D02*
X106375247Y-78458219D01*
X106375247Y-78458219D02*
X106470485Y-78410600D01*
X106470485Y-78410600D02*
X106518104Y-78362980D01*
X106518104Y-78362980D02*
X106565723Y-78267742D01*
X106565723Y-78267742D02*
X106565723Y-78172504D01*
X106565723Y-78172504D02*
X106518104Y-78077266D01*
X106518104Y-78077266D02*
X106470485Y-78029647D01*
X106470485Y-78029647D02*
X106375247Y-77982028D01*
X106375247Y-77982028D02*
X106184771Y-77934409D01*
X106184771Y-77934409D02*
X106089533Y-77886790D01*
X106089533Y-77886790D02*
X106041914Y-77839171D01*
X106041914Y-77839171D02*
X105994295Y-77743933D01*
X105994295Y-77743933D02*
X105994295Y-77648695D01*
X105994295Y-77648695D02*
X106041914Y-77553457D01*
X106041914Y-77553457D02*
X106089533Y-77505838D01*
X106089533Y-77505838D02*
X106184771Y-77458219D01*
X106184771Y-77458219D02*
X106422866Y-77458219D01*
X106422866Y-77458219D02*
X106565723Y-77505838D01*
X107470485Y-77458219D02*
X106994295Y-77458219D01*
X106994295Y-77458219D02*
X106946676Y-77934409D01*
X106946676Y-77934409D02*
X106994295Y-77886790D01*
X106994295Y-77886790D02*
X107089533Y-77839171D01*
X107089533Y-77839171D02*
X107327628Y-77839171D01*
X107327628Y-77839171D02*
X107422866Y-77886790D01*
X107422866Y-77886790D02*
X107470485Y-77934409D01*
X107470485Y-77934409D02*
X107518104Y-78029647D01*
X107518104Y-78029647D02*
X107518104Y-78267742D01*
X107518104Y-78267742D02*
X107470485Y-78362980D01*
X107470485Y-78362980D02*
X107422866Y-78410600D01*
X107422866Y-78410600D02*
X107327628Y-78458219D01*
X107327628Y-78458219D02*
X107089533Y-78458219D01*
X107089533Y-78458219D02*
X106994295Y-78410600D01*
X106994295Y-78410600D02*
X106946676Y-78362980D01*
D11*
X118129124Y-67928895D02*
X118129124Y-67128895D01*
X118129124Y-67128895D02*
X118319600Y-67128895D01*
X118319600Y-67128895D02*
X118433886Y-67166990D01*
X118433886Y-67166990D02*
X118510076Y-67243180D01*
X118510076Y-67243180D02*
X118548171Y-67319371D01*
X118548171Y-67319371D02*
X118586267Y-67471752D01*
X118586267Y-67471752D02*
X118586267Y-67586038D01*
X118586267Y-67586038D02*
X118548171Y-67738419D01*
X118548171Y-67738419D02*
X118510076Y-67814609D01*
X118510076Y-67814609D02*
X118433886Y-67890800D01*
X118433886Y-67890800D02*
X118319600Y-67928895D01*
X118319600Y-67928895D02*
X118129124Y-67928895D01*
X119271981Y-67395561D02*
X119271981Y-67928895D01*
X119081505Y-67090800D02*
X118891028Y-67662228D01*
X118891028Y-67662228D02*
X119386267Y-67662228D01*
D10*
X113538095Y-65863000D02*
X113680952Y-65910619D01*
X113680952Y-65910619D02*
X113919047Y-65910619D01*
X113919047Y-65910619D02*
X114014285Y-65863000D01*
X114014285Y-65863000D02*
X114061904Y-65815380D01*
X114061904Y-65815380D02*
X114109523Y-65720142D01*
X114109523Y-65720142D02*
X114109523Y-65624904D01*
X114109523Y-65624904D02*
X114061904Y-65529666D01*
X114061904Y-65529666D02*
X114014285Y-65482047D01*
X114014285Y-65482047D02*
X113919047Y-65434428D01*
X113919047Y-65434428D02*
X113728571Y-65386809D01*
X113728571Y-65386809D02*
X113633333Y-65339190D01*
X113633333Y-65339190D02*
X113585714Y-65291571D01*
X113585714Y-65291571D02*
X113538095Y-65196333D01*
X113538095Y-65196333D02*
X113538095Y-65101095D01*
X113538095Y-65101095D02*
X113585714Y-65005857D01*
X113585714Y-65005857D02*
X113633333Y-64958238D01*
X113633333Y-64958238D02*
X113728571Y-64910619D01*
X113728571Y-64910619D02*
X113966666Y-64910619D01*
X113966666Y-64910619D02*
X114109523Y-64958238D01*
X114966666Y-65243952D02*
X114966666Y-65910619D01*
X114728571Y-64863000D02*
X114490476Y-65577285D01*
X114490476Y-65577285D02*
X115109523Y-65577285D01*
D11*
X123990133Y-57781695D02*
X123990133Y-58353123D01*
X123990133Y-58353123D02*
X123952038Y-58467409D01*
X123952038Y-58467409D02*
X123875847Y-58543600D01*
X123875847Y-58543600D02*
X123761562Y-58581695D01*
X123761562Y-58581695D02*
X123685371Y-58581695D01*
X124332990Y-57857885D02*
X124371086Y-57819790D01*
X124371086Y-57819790D02*
X124447276Y-57781695D01*
X124447276Y-57781695D02*
X124637752Y-57781695D01*
X124637752Y-57781695D02*
X124713943Y-57819790D01*
X124713943Y-57819790D02*
X124752038Y-57857885D01*
X124752038Y-57857885D02*
X124790133Y-57934076D01*
X124790133Y-57934076D02*
X124790133Y-58010266D01*
X124790133Y-58010266D02*
X124752038Y-58124552D01*
X124752038Y-58124552D02*
X124294895Y-58581695D01*
X124294895Y-58581695D02*
X124790133Y-58581695D01*
X102025524Y-68030495D02*
X102025524Y-67230495D01*
X102025524Y-67230495D02*
X102216000Y-67230495D01*
X102216000Y-67230495D02*
X102330286Y-67268590D01*
X102330286Y-67268590D02*
X102406476Y-67344780D01*
X102406476Y-67344780D02*
X102444571Y-67420971D01*
X102444571Y-67420971D02*
X102482667Y-67573352D01*
X102482667Y-67573352D02*
X102482667Y-67687638D01*
X102482667Y-67687638D02*
X102444571Y-67840019D01*
X102444571Y-67840019D02*
X102406476Y-67916209D01*
X102406476Y-67916209D02*
X102330286Y-67992400D01*
X102330286Y-67992400D02*
X102216000Y-68030495D01*
X102216000Y-68030495D02*
X102025524Y-68030495D01*
X102749333Y-67230495D02*
X103244571Y-67230495D01*
X103244571Y-67230495D02*
X102977905Y-67535257D01*
X102977905Y-67535257D02*
X103092190Y-67535257D01*
X103092190Y-67535257D02*
X103168381Y-67573352D01*
X103168381Y-67573352D02*
X103206476Y-67611447D01*
X103206476Y-67611447D02*
X103244571Y-67687638D01*
X103244571Y-67687638D02*
X103244571Y-67878114D01*
X103244571Y-67878114D02*
X103206476Y-67954304D01*
X103206476Y-67954304D02*
X103168381Y-67992400D01*
X103168381Y-67992400D02*
X103092190Y-68030495D01*
X103092190Y-68030495D02*
X102863619Y-68030495D01*
X102863619Y-68030495D02*
X102787428Y-67992400D01*
X102787428Y-67992400D02*
X102749333Y-67954304D01*
X118637067Y-63255295D02*
X118370400Y-62874342D01*
X118179924Y-63255295D02*
X118179924Y-62455295D01*
X118179924Y-62455295D02*
X118484686Y-62455295D01*
X118484686Y-62455295D02*
X118560876Y-62493390D01*
X118560876Y-62493390D02*
X118598971Y-62531485D01*
X118598971Y-62531485D02*
X118637067Y-62607676D01*
X118637067Y-62607676D02*
X118637067Y-62721961D01*
X118637067Y-62721961D02*
X118598971Y-62798152D01*
X118598971Y-62798152D02*
X118560876Y-62836247D01*
X118560876Y-62836247D02*
X118484686Y-62874342D01*
X118484686Y-62874342D02*
X118179924Y-62874342D01*
X118941828Y-62531485D02*
X118979924Y-62493390D01*
X118979924Y-62493390D02*
X119056114Y-62455295D01*
X119056114Y-62455295D02*
X119246590Y-62455295D01*
X119246590Y-62455295D02*
X119322781Y-62493390D01*
X119322781Y-62493390D02*
X119360876Y-62531485D01*
X119360876Y-62531485D02*
X119398971Y-62607676D01*
X119398971Y-62607676D02*
X119398971Y-62683866D01*
X119398971Y-62683866D02*
X119360876Y-62798152D01*
X119360876Y-62798152D02*
X118903733Y-63255295D01*
X118903733Y-63255295D02*
X119398971Y-63255295D01*
D10*
X113588895Y-78258200D02*
X113731752Y-78305819D01*
X113731752Y-78305819D02*
X113969847Y-78305819D01*
X113969847Y-78305819D02*
X114065085Y-78258200D01*
X114065085Y-78258200D02*
X114112704Y-78210580D01*
X114112704Y-78210580D02*
X114160323Y-78115342D01*
X114160323Y-78115342D02*
X114160323Y-78020104D01*
X114160323Y-78020104D02*
X114112704Y-77924866D01*
X114112704Y-77924866D02*
X114065085Y-77877247D01*
X114065085Y-77877247D02*
X113969847Y-77829628D01*
X113969847Y-77829628D02*
X113779371Y-77782009D01*
X113779371Y-77782009D02*
X113684133Y-77734390D01*
X113684133Y-77734390D02*
X113636514Y-77686771D01*
X113636514Y-77686771D02*
X113588895Y-77591533D01*
X113588895Y-77591533D02*
X113588895Y-77496295D01*
X113588895Y-77496295D02*
X113636514Y-77401057D01*
X113636514Y-77401057D02*
X113684133Y-77353438D01*
X113684133Y-77353438D02*
X113779371Y-77305819D01*
X113779371Y-77305819D02*
X114017466Y-77305819D01*
X114017466Y-77305819D02*
X114160323Y-77353438D01*
X115017466Y-77305819D02*
X114826990Y-77305819D01*
X114826990Y-77305819D02*
X114731752Y-77353438D01*
X114731752Y-77353438D02*
X114684133Y-77401057D01*
X114684133Y-77401057D02*
X114588895Y-77543914D01*
X114588895Y-77543914D02*
X114541276Y-77734390D01*
X114541276Y-77734390D02*
X114541276Y-78115342D01*
X114541276Y-78115342D02*
X114588895Y-78210580D01*
X114588895Y-78210580D02*
X114636514Y-78258200D01*
X114636514Y-78258200D02*
X114731752Y-78305819D01*
X114731752Y-78305819D02*
X114922228Y-78305819D01*
X114922228Y-78305819D02*
X115017466Y-78258200D01*
X115017466Y-78258200D02*
X115065085Y-78210580D01*
X115065085Y-78210580D02*
X115112704Y-78115342D01*
X115112704Y-78115342D02*
X115112704Y-77877247D01*
X115112704Y-77877247D02*
X115065085Y-77782009D01*
X115065085Y-77782009D02*
X115017466Y-77734390D01*
X115017466Y-77734390D02*
X114922228Y-77686771D01*
X114922228Y-77686771D02*
X114731752Y-77686771D01*
X114731752Y-77686771D02*
X114636514Y-77734390D01*
X114636514Y-77734390D02*
X114588895Y-77782009D01*
X114588895Y-77782009D02*
X114541276Y-77877247D01*
D11*
X102127067Y-75625095D02*
X101860400Y-75244142D01*
X101669924Y-75625095D02*
X101669924Y-74825095D01*
X101669924Y-74825095D02*
X101974686Y-74825095D01*
X101974686Y-74825095D02*
X102050876Y-74863190D01*
X102050876Y-74863190D02*
X102088971Y-74901285D01*
X102088971Y-74901285D02*
X102127067Y-74977476D01*
X102127067Y-74977476D02*
X102127067Y-75091761D01*
X102127067Y-75091761D02*
X102088971Y-75167952D01*
X102088971Y-75167952D02*
X102050876Y-75206047D01*
X102050876Y-75206047D02*
X101974686Y-75244142D01*
X101974686Y-75244142D02*
X101669924Y-75244142D01*
X102393733Y-74825095D02*
X102888971Y-74825095D01*
X102888971Y-74825095D02*
X102622305Y-75129857D01*
X102622305Y-75129857D02*
X102736590Y-75129857D01*
X102736590Y-75129857D02*
X102812781Y-75167952D01*
X102812781Y-75167952D02*
X102850876Y-75206047D01*
X102850876Y-75206047D02*
X102888971Y-75282238D01*
X102888971Y-75282238D02*
X102888971Y-75472714D01*
X102888971Y-75472714D02*
X102850876Y-75548904D01*
X102850876Y-75548904D02*
X102812781Y-75587000D01*
X102812781Y-75587000D02*
X102736590Y-75625095D01*
X102736590Y-75625095D02*
X102508019Y-75625095D01*
X102508019Y-75625095D02*
X102431828Y-75587000D01*
X102431828Y-75587000D02*
X102393733Y-75548904D01*
D10*
X106083195Y-65888400D02*
X106226052Y-65936019D01*
X106226052Y-65936019D02*
X106464147Y-65936019D01*
X106464147Y-65936019D02*
X106559385Y-65888400D01*
X106559385Y-65888400D02*
X106607004Y-65840780D01*
X106607004Y-65840780D02*
X106654623Y-65745542D01*
X106654623Y-65745542D02*
X106654623Y-65650304D01*
X106654623Y-65650304D02*
X106607004Y-65555066D01*
X106607004Y-65555066D02*
X106559385Y-65507447D01*
X106559385Y-65507447D02*
X106464147Y-65459828D01*
X106464147Y-65459828D02*
X106273671Y-65412209D01*
X106273671Y-65412209D02*
X106178433Y-65364590D01*
X106178433Y-65364590D02*
X106130814Y-65316971D01*
X106130814Y-65316971D02*
X106083195Y-65221733D01*
X106083195Y-65221733D02*
X106083195Y-65126495D01*
X106083195Y-65126495D02*
X106130814Y-65031257D01*
X106130814Y-65031257D02*
X106178433Y-64983638D01*
X106178433Y-64983638D02*
X106273671Y-64936019D01*
X106273671Y-64936019D02*
X106511766Y-64936019D01*
X106511766Y-64936019D02*
X106654623Y-64983638D01*
X106987957Y-64936019D02*
X107607004Y-64936019D01*
X107607004Y-64936019D02*
X107273671Y-65316971D01*
X107273671Y-65316971D02*
X107416528Y-65316971D01*
X107416528Y-65316971D02*
X107511766Y-65364590D01*
X107511766Y-65364590D02*
X107559385Y-65412209D01*
X107559385Y-65412209D02*
X107607004Y-65507447D01*
X107607004Y-65507447D02*
X107607004Y-65745542D01*
X107607004Y-65745542D02*
X107559385Y-65840780D01*
X107559385Y-65840780D02*
X107511766Y-65888400D01*
X107511766Y-65888400D02*
X107416528Y-65936019D01*
X107416528Y-65936019D02*
X107130814Y-65936019D01*
X107130814Y-65936019D02*
X107035576Y-65888400D01*
X107035576Y-65888400D02*
X106987957Y-65840780D01*
X118552933Y-88237219D02*
X118219600Y-87761028D01*
X117981505Y-88237219D02*
X117981505Y-87237219D01*
X117981505Y-87237219D02*
X118362457Y-87237219D01*
X118362457Y-87237219D02*
X118457695Y-87284838D01*
X118457695Y-87284838D02*
X118505314Y-87332457D01*
X118505314Y-87332457D02*
X118552933Y-87427695D01*
X118552933Y-87427695D02*
X118552933Y-87570552D01*
X118552933Y-87570552D02*
X118505314Y-87665790D01*
X118505314Y-87665790D02*
X118457695Y-87713409D01*
X118457695Y-87713409D02*
X118362457Y-87761028D01*
X118362457Y-87761028D02*
X117981505Y-87761028D01*
X119410076Y-87237219D02*
X119219600Y-87237219D01*
X119219600Y-87237219D02*
X119124362Y-87284838D01*
X119124362Y-87284838D02*
X119076743Y-87332457D01*
X119076743Y-87332457D02*
X118981505Y-87475314D01*
X118981505Y-87475314D02*
X118933886Y-87665790D01*
X118933886Y-87665790D02*
X118933886Y-88046742D01*
X118933886Y-88046742D02*
X118981505Y-88141980D01*
X118981505Y-88141980D02*
X119029124Y-88189600D01*
X119029124Y-88189600D02*
X119124362Y-88237219D01*
X119124362Y-88237219D02*
X119314838Y-88237219D01*
X119314838Y-88237219D02*
X119410076Y-88189600D01*
X119410076Y-88189600D02*
X119457695Y-88141980D01*
X119457695Y-88141980D02*
X119505314Y-88046742D01*
X119505314Y-88046742D02*
X119505314Y-87808647D01*
X119505314Y-87808647D02*
X119457695Y-87713409D01*
X119457695Y-87713409D02*
X119410076Y-87665790D01*
X119410076Y-87665790D02*
X119314838Y-87618171D01*
X119314838Y-87618171D02*
X119124362Y-87618171D01*
X119124362Y-87618171D02*
X119029124Y-87665790D01*
X119029124Y-87665790D02*
X118981505Y-87713409D01*
X118981505Y-87713409D02*
X118933886Y-87808647D01*
X102119133Y-87983219D02*
X101785800Y-87507028D01*
X101547705Y-87983219D02*
X101547705Y-86983219D01*
X101547705Y-86983219D02*
X101928657Y-86983219D01*
X101928657Y-86983219D02*
X102023895Y-87030838D01*
X102023895Y-87030838D02*
X102071514Y-87078457D01*
X102071514Y-87078457D02*
X102119133Y-87173695D01*
X102119133Y-87173695D02*
X102119133Y-87316552D01*
X102119133Y-87316552D02*
X102071514Y-87411790D01*
X102071514Y-87411790D02*
X102023895Y-87459409D01*
X102023895Y-87459409D02*
X101928657Y-87507028D01*
X101928657Y-87507028D02*
X101547705Y-87507028D01*
X103023895Y-86983219D02*
X102547705Y-86983219D01*
X102547705Y-86983219D02*
X102500086Y-87459409D01*
X102500086Y-87459409D02*
X102547705Y-87411790D01*
X102547705Y-87411790D02*
X102642943Y-87364171D01*
X102642943Y-87364171D02*
X102881038Y-87364171D01*
X102881038Y-87364171D02*
X102976276Y-87411790D01*
X102976276Y-87411790D02*
X103023895Y-87459409D01*
X103023895Y-87459409D02*
X103071514Y-87554647D01*
X103071514Y-87554647D02*
X103071514Y-87792742D01*
X103071514Y-87792742D02*
X103023895Y-87887980D01*
X103023895Y-87887980D02*
X102976276Y-87935600D01*
X102976276Y-87935600D02*
X102881038Y-87983219D01*
X102881038Y-87983219D02*
X102642943Y-87983219D01*
X102642943Y-87983219D02*
X102547705Y-87935600D01*
X102547705Y-87935600D02*
X102500086Y-87887980D01*
D11*
X117976724Y-80324095D02*
X117976724Y-79524095D01*
X117976724Y-79524095D02*
X118167200Y-79524095D01*
X118167200Y-79524095D02*
X118281486Y-79562190D01*
X118281486Y-79562190D02*
X118357676Y-79638380D01*
X118357676Y-79638380D02*
X118395771Y-79714571D01*
X118395771Y-79714571D02*
X118433867Y-79866952D01*
X118433867Y-79866952D02*
X118433867Y-79981238D01*
X118433867Y-79981238D02*
X118395771Y-80133619D01*
X118395771Y-80133619D02*
X118357676Y-80209809D01*
X118357676Y-80209809D02*
X118281486Y-80286000D01*
X118281486Y-80286000D02*
X118167200Y-80324095D01*
X118167200Y-80324095D02*
X117976724Y-80324095D01*
X119119581Y-79524095D02*
X118967200Y-79524095D01*
X118967200Y-79524095D02*
X118891009Y-79562190D01*
X118891009Y-79562190D02*
X118852914Y-79600285D01*
X118852914Y-79600285D02*
X118776724Y-79714571D01*
X118776724Y-79714571D02*
X118738628Y-79866952D01*
X118738628Y-79866952D02*
X118738628Y-80171714D01*
X118738628Y-80171714D02*
X118776724Y-80247904D01*
X118776724Y-80247904D02*
X118814819Y-80286000D01*
X118814819Y-80286000D02*
X118891009Y-80324095D01*
X118891009Y-80324095D02*
X119043390Y-80324095D01*
X119043390Y-80324095D02*
X119119581Y-80286000D01*
X119119581Y-80286000D02*
X119157676Y-80247904D01*
X119157676Y-80247904D02*
X119195771Y-80171714D01*
X119195771Y-80171714D02*
X119195771Y-79981238D01*
X119195771Y-79981238D02*
X119157676Y-79905047D01*
X119157676Y-79905047D02*
X119119581Y-79866952D01*
X119119581Y-79866952D02*
X119043390Y-79828857D01*
X119043390Y-79828857D02*
X118891009Y-79828857D01*
X118891009Y-79828857D02*
X118814819Y-79866952D01*
X118814819Y-79866952D02*
X118776724Y-79905047D01*
X118776724Y-79905047D02*
X118738628Y-79981238D01*
X101974724Y-55432095D02*
X101974724Y-54632095D01*
X101974724Y-54632095D02*
X102165200Y-54632095D01*
X102165200Y-54632095D02*
X102279486Y-54670190D01*
X102279486Y-54670190D02*
X102355676Y-54746380D01*
X102355676Y-54746380D02*
X102393771Y-54822571D01*
X102393771Y-54822571D02*
X102431867Y-54974952D01*
X102431867Y-54974952D02*
X102431867Y-55089238D01*
X102431867Y-55089238D02*
X102393771Y-55241619D01*
X102393771Y-55241619D02*
X102355676Y-55317809D01*
X102355676Y-55317809D02*
X102279486Y-55394000D01*
X102279486Y-55394000D02*
X102165200Y-55432095D01*
X102165200Y-55432095D02*
X101974724Y-55432095D01*
X103193771Y-55432095D02*
X102736628Y-55432095D01*
X102965200Y-55432095D02*
X102965200Y-54632095D01*
X102965200Y-54632095D02*
X102889009Y-54746380D01*
X102889009Y-54746380D02*
X102812819Y-54822571D01*
X102812819Y-54822571D02*
X102736628Y-54860666D01*
X117976724Y-55279695D02*
X117976724Y-54479695D01*
X117976724Y-54479695D02*
X118167200Y-54479695D01*
X118167200Y-54479695D02*
X118281486Y-54517790D01*
X118281486Y-54517790D02*
X118357676Y-54593980D01*
X118357676Y-54593980D02*
X118395771Y-54670171D01*
X118395771Y-54670171D02*
X118433867Y-54822552D01*
X118433867Y-54822552D02*
X118433867Y-54936838D01*
X118433867Y-54936838D02*
X118395771Y-55089219D01*
X118395771Y-55089219D02*
X118357676Y-55165409D01*
X118357676Y-55165409D02*
X118281486Y-55241600D01*
X118281486Y-55241600D02*
X118167200Y-55279695D01*
X118167200Y-55279695D02*
X117976724Y-55279695D01*
X118738628Y-54555885D02*
X118776724Y-54517790D01*
X118776724Y-54517790D02*
X118852914Y-54479695D01*
X118852914Y-54479695D02*
X119043390Y-54479695D01*
X119043390Y-54479695D02*
X119119581Y-54517790D01*
X119119581Y-54517790D02*
X119157676Y-54555885D01*
X119157676Y-54555885D02*
X119195771Y-54632076D01*
X119195771Y-54632076D02*
X119195771Y-54708266D01*
X119195771Y-54708266D02*
X119157676Y-54822552D01*
X119157676Y-54822552D02*
X118700533Y-55279695D01*
X118700533Y-55279695D02*
X119195771Y-55279695D01*
D12*
%TO.C,R7*%
X120130200Y-57989800D02*
X120130200Y-59459800D01*
X120130200Y-59459800D02*
X122415200Y-59459800D01*
X122415200Y-57989800D02*
X120130200Y-57989800D01*
%TO.C,D5*%
X101728600Y-80658800D02*
X101728600Y-82943800D01*
X103198600Y-80658800D02*
X101728600Y-80658800D01*
X103198600Y-82943800D02*
X103198600Y-80658800D01*
D13*
%TO.C,S1*%
X103796400Y-54229600D02*
X103796400Y-60229600D01*
X103796400Y-54229600D02*
X109796400Y-54229600D01*
X109796400Y-54229600D02*
X109796400Y-60229600D01*
X109796400Y-60229600D02*
X103796400Y-60229600D01*
D14*
X103646400Y-62979600D02*
G75*
G02*
X103346400Y-62979600I-150000J0D01*
G01*
X103346400Y-62979600D02*
G75*
G02*
X103646400Y-62979600I150000J0D01*
G01*
D12*
%TO.C,R4*%
X117781400Y-72072700D02*
X117781400Y-74357700D01*
X117781400Y-74357700D02*
X119251400Y-74357700D01*
X119251400Y-74357700D02*
X119251400Y-72072700D01*
%TO.C,J3*%
X120135800Y-81275000D02*
X121405800Y-81275000D01*
X120135800Y-82545000D02*
X120135800Y-81275000D01*
X122448729Y-84705000D02*
X122845800Y-84705000D01*
X122448729Y-85465000D02*
X122845800Y-85465000D01*
X122515800Y-82165000D02*
X122845800Y-82165000D01*
X122515800Y-82925000D02*
X122845800Y-82925000D01*
X122845800Y-81215000D02*
X122845800Y-86415000D01*
X122845800Y-83815000D02*
X125505800Y-83815000D01*
X122845800Y-86415000D02*
X125505800Y-86415000D01*
X125505800Y-81215000D02*
X122845800Y-81215000D01*
X125505800Y-82165000D02*
X131505800Y-82165000D01*
X125505800Y-82225000D02*
X131505800Y-82225000D01*
X125505800Y-82345000D02*
X131505800Y-82345000D01*
X125505800Y-82465000D02*
X131505800Y-82465000D01*
X125505800Y-82585000D02*
X131505800Y-82585000D01*
X125505800Y-82705000D02*
X131505800Y-82705000D01*
X125505800Y-82825000D02*
X131505800Y-82825000D01*
X125505800Y-84705000D02*
X131505800Y-84705000D01*
X125505800Y-86415000D02*
X125505800Y-81215000D01*
X131505800Y-82165000D02*
X131505800Y-82925000D01*
X131505800Y-82925000D02*
X125505800Y-82925000D01*
X131505800Y-84705000D02*
X131505800Y-85465000D01*
X131505800Y-85465000D02*
X125505800Y-85465000D01*
D13*
%TO.C,S2*%
X111350800Y-54229600D02*
X111350800Y-60229600D01*
X111350800Y-54229600D02*
X117350800Y-54229600D01*
X117350800Y-54229600D02*
X117350800Y-60229600D01*
X117350800Y-60229600D02*
X111350800Y-60229600D01*
D14*
X111200800Y-62979600D02*
G75*
G02*
X110900800Y-62979600I-150000J0D01*
G01*
X110900800Y-62979600D02*
G75*
G02*
X111200800Y-62979600I150000J0D01*
G01*
D12*
%TO.C,R1*%
X101830200Y-59550400D02*
X101830200Y-61835400D01*
X101830200Y-61835400D02*
X103300200Y-61835400D01*
X103300200Y-61835400D02*
X103300200Y-59550400D01*
%TO.C,D7*%
X117832200Y-51093000D02*
X117832200Y-53378000D01*
X119302200Y-51093000D02*
X117832200Y-51093000D01*
X119302200Y-53378000D02*
X119302200Y-51093000D01*
D13*
%TO.C,S5*%
X103766800Y-79324800D02*
X103766800Y-85324800D01*
X103766800Y-79324800D02*
X109766800Y-79324800D01*
X109766800Y-79324800D02*
X109766800Y-85324800D01*
X109766800Y-85324800D02*
X103766800Y-85324800D01*
D14*
X103616800Y-88074800D02*
G75*
G02*
X103316800Y-88074800I-150000J0D01*
G01*
X103316800Y-88074800D02*
G75*
G02*
X103616800Y-88074800I150000J0D01*
G01*
D12*
%TO.C,D4*%
X117781400Y-68365000D02*
X117781400Y-70650000D01*
X119251400Y-68365000D02*
X117781400Y-68365000D01*
X119251400Y-70650000D02*
X119251400Y-68365000D01*
D13*
%TO.C,S4*%
X111300000Y-66697600D02*
X111300000Y-72697600D01*
X111300000Y-66697600D02*
X117300000Y-66697600D01*
X117300000Y-66697600D02*
X117300000Y-72697600D01*
X117300000Y-72697600D02*
X111300000Y-72697600D01*
D14*
X111150000Y-75447600D02*
G75*
G02*
X110850000Y-75447600I-150000J0D01*
G01*
X110850000Y-75447600D02*
G75*
G02*
X111150000Y-75447600I150000J0D01*
G01*
D12*
%TO.C,J2*%
X120135800Y-51760200D02*
X121405800Y-51760200D01*
X120135800Y-53030200D02*
X120135800Y-51760200D01*
X122448729Y-55190200D02*
X122845800Y-55190200D01*
X122448729Y-55950200D02*
X122845800Y-55950200D01*
X122515800Y-52650200D02*
X122845800Y-52650200D01*
X122515800Y-53410200D02*
X122845800Y-53410200D01*
X122845800Y-51700200D02*
X122845800Y-56900200D01*
X122845800Y-54300200D02*
X125505800Y-54300200D01*
X122845800Y-56900200D02*
X125505800Y-56900200D01*
X125505800Y-51700200D02*
X122845800Y-51700200D01*
X125505800Y-52650200D02*
X131505800Y-52650200D01*
X125505800Y-52710200D02*
X131505800Y-52710200D01*
X125505800Y-52830200D02*
X131505800Y-52830200D01*
X125505800Y-52950200D02*
X131505800Y-52950200D01*
X125505800Y-53070200D02*
X131505800Y-53070200D01*
X125505800Y-53190200D02*
X131505800Y-53190200D01*
X125505800Y-53310200D02*
X131505800Y-53310200D01*
X125505800Y-55190200D02*
X131505800Y-55190200D01*
X125505800Y-56900200D02*
X125505800Y-51700200D01*
X131505800Y-52650200D02*
X131505800Y-53410200D01*
X131505800Y-53410200D02*
X125505800Y-53410200D01*
X131505800Y-55190200D02*
X131505800Y-55950200D01*
X131505800Y-55950200D02*
X125505800Y-55950200D01*
%TO.C,D3*%
X101881000Y-68365000D02*
X101881000Y-70650000D01*
X103351000Y-68365000D02*
X101881000Y-68365000D01*
X103351000Y-70650000D02*
X103351000Y-68365000D01*
%TO.C,R2*%
X117883000Y-58814600D02*
X117883000Y-61099600D01*
X119353000Y-58814600D02*
X117883000Y-58814600D01*
X119353000Y-61099600D02*
X119353000Y-58814600D01*
D13*
%TO.C,S6*%
X111325400Y-79321400D02*
X111325400Y-85321400D01*
X111325400Y-79321400D02*
X117325400Y-79321400D01*
X117325400Y-79321400D02*
X117325400Y-85321400D01*
X117325400Y-85321400D02*
X111325400Y-85321400D01*
D14*
X111175400Y-88071400D02*
G75*
G02*
X110875400Y-88071400I-150000J0D01*
G01*
X110875400Y-88071400D02*
G75*
G02*
X111175400Y-88071400I150000J0D01*
G01*
D12*
%TO.C,R3*%
X101881000Y-71336700D02*
X101881000Y-73621700D01*
X103351000Y-71336700D02*
X101881000Y-71336700D01*
X103351000Y-73621700D02*
X103351000Y-71336700D01*
D13*
%TO.C,S3*%
X103768900Y-66773800D02*
X103768900Y-72773800D01*
X103768900Y-66773800D02*
X109768900Y-66773800D01*
X109768900Y-66773800D02*
X109768900Y-72773800D01*
X109768900Y-72773800D02*
X103768900Y-72773800D01*
D14*
X103618900Y-75523800D02*
G75*
G02*
X103318900Y-75523800I-150000J0D01*
G01*
X103318900Y-75523800D02*
G75*
G02*
X103618900Y-75523800I150000J0D01*
G01*
D12*
%TO.C,R6*%
X117832200Y-84467900D02*
X117832200Y-86752900D01*
X117832200Y-86752900D02*
X119302200Y-86752900D01*
X119302200Y-86752900D02*
X119302200Y-84467900D01*
%TO.C,R5*%
X101728600Y-83757400D02*
X101728600Y-86042400D01*
X103198600Y-83757400D02*
X101728600Y-83757400D01*
X103198600Y-86042400D02*
X103198600Y-83757400D01*
%TO.C,D6*%
X117832200Y-80785500D02*
X117832200Y-83070500D01*
X119302200Y-80785500D02*
X117832200Y-80785500D01*
X119302200Y-83070500D02*
X119302200Y-80785500D01*
%TO.C,D1*%
X101830200Y-55893700D02*
X101830200Y-58178700D01*
X103300200Y-55893700D02*
X101830200Y-55893700D01*
X103300200Y-58178700D02*
X103300200Y-55893700D01*
%TO.C,D2*%
X117883000Y-55715800D02*
X117883000Y-58000800D01*
X119353000Y-55715800D02*
X117883000Y-55715800D01*
X119353000Y-58000800D02*
X119353000Y-55715800D01*
%TD*%
M02*
