%TF.GenerationSoftware,KiCad,Pcbnew,9.0.6*%
%TF.CreationDate,2025-12-26T20:22:19+00:00*%
%TF.ProjectId,PIDI-BOX-01-RELSW-6-MAIN-A1,50494449-2d42-44f5-982d-30312d52454c,rev?*%
%TF.SameCoordinates,Original*%
%TF.FileFunction,Paste,Top*%
%TF.FilePolarity,Positive*%
%FSLAX46Y46*%
G04 Gerber Fmt 4.6, Leading zero omitted, Abs format (unit mm)*
G04 Created by KiCad (PCBNEW 9.0.6) date 2025-12-26 20:22:19*
%MOMM*%
%LPD*%
G01*
G04 APERTURE LIST*
G04 Aperture macros list*
%AMRoundRect*
0 Rectangle with rounded corners*
0 $1 Rounding radius*
0 $2 $3 $4 $5 $6 $7 $8 $9 X,Y pos of 4 corners*
0 Add a 4 corners polygon primitive as box body*
4,1,4,$2,$3,$4,$5,$6,$7,$8,$9,$2,$3,0*
0 Add four circle primitives for the rounded corners*
1,1,$1+$1,$2,$3*
1,1,$1+$1,$4,$5*
1,1,$1+$1,$6,$7*
1,1,$1+$1,$8,$9*
0 Add four rect primitives between the rounded corners*
20,1,$1+$1,$2,$3,$4,$5,0*
20,1,$1+$1,$4,$5,$6,$7,0*
20,1,$1+$1,$6,$7,$8,$9,0*
20,1,$1+$1,$8,$9,$2,$3,0*%
G04 Aperture macros list end*
%ADD10RoundRect,0.218750X0.256250X-0.218750X0.256250X0.218750X-0.256250X0.218750X-0.256250X-0.218750X0*%
%ADD11RoundRect,0.137500X-0.137500X0.662500X-0.137500X-0.662500X0.137500X-0.662500X0.137500X0.662500X0*%
%ADD12RoundRect,0.237500X-0.237500X0.250000X-0.237500X-0.250000X0.237500X-0.250000X0.237500X0.250000X0*%
%ADD13RoundRect,0.225000X-0.225000X-0.250000X0.225000X-0.250000X0.225000X0.250000X-0.225000X0.250000X0*%
%ADD14RoundRect,0.200000X-0.200000X-0.275000X0.200000X-0.275000X0.200000X0.275000X-0.200000X0.275000X0*%
%ADD15RoundRect,0.250000X1.000000X0.650000X-1.000000X0.650000X-1.000000X-0.650000X1.000000X-0.650000X0*%
%ADD16RoundRect,0.250000X1.950000X1.000000X-1.950000X1.000000X-1.950000X-1.000000X1.950000X-1.000000X0*%
%ADD17RoundRect,0.218750X-0.218750X-0.256250X0.218750X-0.256250X0.218750X0.256250X-0.218750X0.256250X0*%
G04 APERTURE END LIST*
D10*
%TO.C,D8*%
X151587200Y-81940500D03*
X151587200Y-80365500D03*
%TD*%
D11*
%TO.C,U1*%
X154578300Y-68860800D03*
X153308300Y-68860800D03*
X152038300Y-68860800D03*
X150768300Y-68860800D03*
X149498300Y-68860800D03*
X148228300Y-68860800D03*
X146958300Y-68860800D03*
X145688300Y-68860800D03*
X145688300Y-75360800D03*
X146958300Y-75360800D03*
X148228300Y-75360800D03*
X149498300Y-75360800D03*
X150768300Y-75360800D03*
X152038300Y-75360800D03*
X153308300Y-75360800D03*
X154578300Y-75360800D03*
%TD*%
D12*
%TO.C,R3*%
X171100000Y-77850000D03*
X171100000Y-79675000D03*
%TD*%
D13*
%TO.C,C1*%
X134025000Y-70050000D03*
X135575000Y-70050000D03*
%TD*%
D14*
%TO.C,R1*%
X118725000Y-64000000D03*
X120375000Y-64000000D03*
%TD*%
D10*
%TO.C,D4*%
X171100000Y-82875000D03*
X171100000Y-81300000D03*
%TD*%
D15*
%TO.C,D1*%
X129863600Y-59359800D03*
X125863600Y-59359800D03*
%TD*%
D12*
%TO.C,R4*%
X172650000Y-77850000D03*
X172650000Y-79675000D03*
%TD*%
D10*
%TO.C,D6*%
X145211800Y-81965900D03*
X145211800Y-80390900D03*
%TD*%
D12*
%TO.C,R7*%
X149733000Y-80418300D03*
X149733000Y-82243300D03*
%TD*%
D10*
%TO.C,D5*%
X172650000Y-82837500D03*
X172650000Y-81262500D03*
%TD*%
D16*
%TO.C,C2*%
X129582400Y-66649600D03*
X122182400Y-66649600D03*
%TD*%
D10*
%TO.C,D3*%
X169550000Y-82887500D03*
X169550000Y-81312500D03*
%TD*%
%TO.C,D7*%
X148259800Y-81940500D03*
X148259800Y-80365500D03*
%TD*%
D12*
%TO.C,R2*%
X169550000Y-77850000D03*
X169550000Y-79675000D03*
%TD*%
%TO.C,R5*%
X143687800Y-80418300D03*
X143687800Y-82243300D03*
%TD*%
%TO.C,R6*%
X146735800Y-80418300D03*
X146735800Y-82243300D03*
%TD*%
D17*
%TO.C,D2*%
X118786200Y-62488800D03*
X120361200Y-62488800D03*
%TD*%
M02*
