%TF.GenerationSoftware,KiCad,Pcbnew,9.0.6*%
%TF.CreationDate,2025-12-26T20:22:19+00:00*%
%TF.ProjectId,PIDI-BOX-01-RELSW-6-MAIN-A1,50494449-2d42-44f5-982d-30312d52454c,rev?*%
%TF.SameCoordinates,Original*%
%TF.FileFunction,Soldermask,Bot*%
%TF.FilePolarity,Negative*%
%FSLAX46Y46*%
G04 Gerber Fmt 4.6, Leading zero omitted, Abs format (unit mm)*
G04 Created by KiCad (PCBNEW 9.0.6) date 2025-12-26 20:22:19*
%MOMM*%
%LPD*%
G01*
G04 APERTURE LIST*
G04 Aperture macros list*
%AMRoundRect*
0 Rectangle with rounded corners*
0 $1 Rounding radius*
0 $2 $3 $4 $5 $6 $7 $8 $9 X,Y pos of 4 corners*
0 Add a 4 corners polygon primitive as box body*
4,1,4,$2,$3,$4,$5,$6,$7,$8,$9,$2,$3,0*
0 Add four circle primitives for the rounded corners*
1,1,$1+$1,$2,$3*
1,1,$1+$1,$4,$5*
1,1,$1+$1,$6,$7*
1,1,$1+$1,$8,$9*
0 Add four rect primitives between the rounded corners*
20,1,$1+$1,$2,$3,$4,$5,0*
20,1,$1+$1,$4,$5,$6,$7,0*
20,1,$1+$1,$6,$7,$8,$9,0*
20,1,$1+$1,$8,$9,$2,$3,0*%
G04 Aperture macros list end*
%ADD10RoundRect,0.102000X0.754000X0.754000X-0.754000X0.754000X-0.754000X-0.754000X0.754000X-0.754000X0*%
%ADD11C,1.712000*%
%ADD12C,2.004000*%
%ADD13R,2.400000X2.400000*%
%ADD14C,2.400000*%
%ADD15RoundRect,0.102000X-0.754000X-0.754000X0.754000X-0.754000X0.754000X0.754000X-0.754000X0.754000X0*%
%ADD16R,1.700000X1.700000*%
%ADD17C,1.700000*%
G04 APERTURE END LIST*
D10*
%TO.C,REL6*%
X141026900Y-75641000D03*
D11*
X138486900Y-75641000D03*
D12*
X130866900Y-75641000D03*
X123246900Y-75641000D03*
%TD*%
D13*
%TO.C,J4*%
X111980000Y-85120000D03*
D14*
X111980000Y-80040000D03*
X111980000Y-74960000D03*
%TD*%
D15*
%TO.C,REL1*%
X159258000Y-70561200D03*
D11*
X161798000Y-70561200D03*
D12*
X169418000Y-70561200D03*
X177038000Y-70561200D03*
%TD*%
D10*
%TO.C,REL4*%
X141046200Y-87045800D03*
D11*
X138506200Y-87045800D03*
D12*
X130886200Y-87045800D03*
X123266200Y-87045800D03*
%TD*%
D13*
%TO.C,J1*%
X187934600Y-59842400D03*
D14*
X187934600Y-64922400D03*
X187934600Y-70002400D03*
%TD*%
D13*
%TO.C,J2*%
X187934600Y-75031600D03*
D14*
X187934600Y-80111600D03*
X187934600Y-85191600D03*
%TD*%
D13*
%TO.C,J3*%
X111963200Y-69900800D03*
D14*
X111963200Y-64820800D03*
X111963200Y-59740800D03*
%TD*%
D16*
%TO.C,J5*%
X133959600Y-65074800D03*
D17*
X133959600Y-62534800D03*
X136499600Y-65074800D03*
X136499600Y-62534800D03*
X139039600Y-65074800D03*
X139039600Y-62534800D03*
X141579600Y-65074800D03*
X141579600Y-62534800D03*
X144119600Y-65074800D03*
X144119600Y-62534800D03*
X146659600Y-65074800D03*
X146659600Y-62534800D03*
%TD*%
D15*
%TO.C,REL3*%
X159258000Y-58674000D03*
D11*
X161798000Y-58674000D03*
D12*
X169418000Y-58674000D03*
X177038000Y-58674000D03*
%TD*%
D15*
%TO.C,Rel2*%
X159277300Y-64643200D03*
D11*
X161817300Y-64643200D03*
D12*
X169437300Y-64643200D03*
X177057300Y-64643200D03*
%TD*%
D16*
%TO.C,J6*%
X166550000Y-79814000D03*
D17*
X166550000Y-82354000D03*
X164010000Y-79814000D03*
X164010000Y-82354000D03*
X161470000Y-79814000D03*
X161470000Y-82354000D03*
X158930000Y-79814000D03*
X158930000Y-82354000D03*
X156390000Y-79814000D03*
X156390000Y-82354000D03*
X153850000Y-79814000D03*
X153850000Y-82354000D03*
%TD*%
D10*
%TO.C,REL5*%
X141046200Y-81330600D03*
D11*
X138506200Y-81330600D03*
D12*
X130886200Y-81330600D03*
X123266200Y-81330600D03*
%TD*%
M02*
