%TF.GenerationSoftware,KiCad,Pcbnew,9.0.6*%
%TF.CreationDate,2025-12-26T20:22:19+00:00*%
%TF.ProjectId,PIDI-BOX-01-RELSW-6-MAIN-A1,50494449-2d42-44f5-982d-30312d52454c,rev?*%
%TF.SameCoordinates,Original*%
%TF.FileFunction,Copper,L1,Top*%
%TF.FilePolarity,Positive*%
%FSLAX46Y46*%
G04 Gerber Fmt 4.6, Leading zero omitted, Abs format (unit mm)*
G04 Created by KiCad (PCBNEW 9.0.6) date 2025-12-26 20:22:19*
%MOMM*%
%LPD*%
G01*
G04 APERTURE LIST*
G04 Aperture macros list*
%AMRoundRect*
0 Rectangle with rounded corners*
0 $1 Rounding radius*
0 $2 $3 $4 $5 $6 $7 $8 $9 X,Y pos of 4 corners*
0 Add a 4 corners polygon primitive as box body*
4,1,4,$2,$3,$4,$5,$6,$7,$8,$9,$2,$3,0*
0 Add four circle primitives for the rounded corners*
1,1,$1+$1,$2,$3*
1,1,$1+$1,$4,$5*
1,1,$1+$1,$6,$7*
1,1,$1+$1,$8,$9*
0 Add four rect primitives between the rounded corners*
20,1,$1+$1,$2,$3,$4,$5,0*
20,1,$1+$1,$4,$5,$6,$7,0*
20,1,$1+$1,$6,$7,$8,$9,0*
20,1,$1+$1,$8,$9,$2,$3,0*%
G04 Aperture macros list end*
%ADD10C,0.150000*%
%TA.AperFunction,NonConductor*%
%ADD11C,0.150000*%
%TD*%
%TA.AperFunction,SMDPad,CuDef*%
%ADD12RoundRect,0.218750X0.256250X-0.218750X0.256250X0.218750X-0.256250X0.218750X-0.256250X-0.218750X0*%
%TD*%
%TA.AperFunction,SMDPad,CuDef*%
%ADD13RoundRect,0.137500X-0.137500X0.662500X-0.137500X-0.662500X0.137500X-0.662500X0.137500X0.662500X0*%
%TD*%
%TA.AperFunction,ComponentPad*%
%ADD14R,1.508000X1.508000*%
%TD*%
%TA.AperFunction,ComponentPad*%
%ADD15C,1.508000*%
%TD*%
%TA.AperFunction,ComponentPad*%
%ADD16C,1.800000*%
%TD*%
%TA.AperFunction,ComponentPad*%
%ADD17R,2.400000X2.400000*%
%TD*%
%TA.AperFunction,ComponentPad*%
%ADD18C,2.400000*%
%TD*%
%TA.AperFunction,SMDPad,CuDef*%
%ADD19RoundRect,0.237500X-0.237500X0.250000X-0.237500X-0.250000X0.237500X-0.250000X0.237500X0.250000X0*%
%TD*%
%TA.AperFunction,SMDPad,CuDef*%
%ADD20RoundRect,0.225000X-0.225000X-0.250000X0.225000X-0.250000X0.225000X0.250000X-0.225000X0.250000X0*%
%TD*%
%TA.AperFunction,ComponentPad*%
%ADD21R,1.700000X1.700000*%
%TD*%
%TA.AperFunction,ComponentPad*%
%ADD22C,1.700000*%
%TD*%
%TA.AperFunction,SMDPad,CuDef*%
%ADD23RoundRect,0.200000X-0.200000X-0.275000X0.200000X-0.275000X0.200000X0.275000X-0.200000X0.275000X0*%
%TD*%
%TA.AperFunction,SMDPad,CuDef*%
%ADD24RoundRect,0.250000X1.000000X0.650000X-1.000000X0.650000X-1.000000X-0.650000X1.000000X-0.650000X0*%
%TD*%
%TA.AperFunction,SMDPad,CuDef*%
%ADD25RoundRect,0.250000X1.950000X1.000000X-1.950000X1.000000X-1.950000X-1.000000X1.950000X-1.000000X0*%
%TD*%
%TA.AperFunction,SMDPad,CuDef*%
%ADD26RoundRect,0.218750X-0.218750X-0.256250X0.218750X-0.256250X0.218750X0.256250X-0.218750X0.256250X0*%
%TD*%
%TA.AperFunction,ViaPad*%
%ADD27C,1.200000*%
%TD*%
%TA.AperFunction,ViaPad*%
%ADD28C,1.000000*%
%TD*%
%TA.AperFunction,ViaPad*%
%ADD29C,1.500000*%
%TD*%
%TA.AperFunction,ViaPad*%
%ADD30C,0.600000*%
%TD*%
%TA.AperFunction,Conductor*%
%ADD31C,1.000000*%
%TD*%
%TA.AperFunction,Conductor*%
%ADD32C,1.500000*%
%TD*%
%TA.AperFunction,Conductor*%
%ADD33C,0.300000*%
%TD*%
%TA.AperFunction,Conductor*%
%ADD34C,0.200000*%
%TD*%
%TA.AperFunction,Conductor*%
%ADD35C,0.600000*%
%TD*%
%TA.AperFunction,Conductor*%
%ADD36C,0.500000*%
%TD*%
%TA.AperFunction,Conductor*%
%ADD37C,1.200000*%
%TD*%
%TA.AperFunction,Conductor*%
%ADD38C,0.000000*%
%TD*%
%TA.AperFunction,Conductor*%
%ADD39C,0.400000*%
%TD*%
G04 APERTURE END LIST*
D10*
D11*
X158889160Y-87906340D02*
X158889160Y-87106340D01*
X158889160Y-87106340D02*
X159193922Y-87106340D01*
X159193922Y-87106340D02*
X159270112Y-87144435D01*
X159270112Y-87144435D02*
X159308207Y-87182530D01*
X159308207Y-87182530D02*
X159346303Y-87258721D01*
X159346303Y-87258721D02*
X159346303Y-87373006D01*
X159346303Y-87373006D02*
X159308207Y-87449197D01*
X159308207Y-87449197D02*
X159270112Y-87487292D01*
X159270112Y-87487292D02*
X159193922Y-87525387D01*
X159193922Y-87525387D02*
X158889160Y-87525387D01*
X159689160Y-87906340D02*
X159689160Y-87106340D01*
X160070112Y-87906340D02*
X160070112Y-87106340D01*
X160070112Y-87106340D02*
X160260588Y-87106340D01*
X160260588Y-87106340D02*
X160374874Y-87144435D01*
X160374874Y-87144435D02*
X160451064Y-87220625D01*
X160451064Y-87220625D02*
X160489159Y-87296816D01*
X160489159Y-87296816D02*
X160527255Y-87449197D01*
X160527255Y-87449197D02*
X160527255Y-87563483D01*
X160527255Y-87563483D02*
X160489159Y-87715864D01*
X160489159Y-87715864D02*
X160451064Y-87792054D01*
X160451064Y-87792054D02*
X160374874Y-87868245D01*
X160374874Y-87868245D02*
X160260588Y-87906340D01*
X160260588Y-87906340D02*
X160070112Y-87906340D01*
X160870112Y-87906340D02*
X160870112Y-87106340D01*
X161251064Y-87601578D02*
X161860588Y-87601578D01*
X162508206Y-87487292D02*
X162622492Y-87525387D01*
X162622492Y-87525387D02*
X162660587Y-87563483D01*
X162660587Y-87563483D02*
X162698683Y-87639673D01*
X162698683Y-87639673D02*
X162698683Y-87753959D01*
X162698683Y-87753959D02*
X162660587Y-87830149D01*
X162660587Y-87830149D02*
X162622492Y-87868245D01*
X162622492Y-87868245D02*
X162546302Y-87906340D01*
X162546302Y-87906340D02*
X162241540Y-87906340D01*
X162241540Y-87906340D02*
X162241540Y-87106340D01*
X162241540Y-87106340D02*
X162508206Y-87106340D01*
X162508206Y-87106340D02*
X162584397Y-87144435D01*
X162584397Y-87144435D02*
X162622492Y-87182530D01*
X162622492Y-87182530D02*
X162660587Y-87258721D01*
X162660587Y-87258721D02*
X162660587Y-87334911D01*
X162660587Y-87334911D02*
X162622492Y-87411102D01*
X162622492Y-87411102D02*
X162584397Y-87449197D01*
X162584397Y-87449197D02*
X162508206Y-87487292D01*
X162508206Y-87487292D02*
X162241540Y-87487292D01*
X163193921Y-87106340D02*
X163346302Y-87106340D01*
X163346302Y-87106340D02*
X163422492Y-87144435D01*
X163422492Y-87144435D02*
X163498683Y-87220625D01*
X163498683Y-87220625D02*
X163536778Y-87373006D01*
X163536778Y-87373006D02*
X163536778Y-87639673D01*
X163536778Y-87639673D02*
X163498683Y-87792054D01*
X163498683Y-87792054D02*
X163422492Y-87868245D01*
X163422492Y-87868245D02*
X163346302Y-87906340D01*
X163346302Y-87906340D02*
X163193921Y-87906340D01*
X163193921Y-87906340D02*
X163117730Y-87868245D01*
X163117730Y-87868245D02*
X163041540Y-87792054D01*
X163041540Y-87792054D02*
X163003444Y-87639673D01*
X163003444Y-87639673D02*
X163003444Y-87373006D01*
X163003444Y-87373006D02*
X163041540Y-87220625D01*
X163041540Y-87220625D02*
X163117730Y-87144435D01*
X163117730Y-87144435D02*
X163193921Y-87106340D01*
X163803444Y-87106340D02*
X164336778Y-87906340D01*
X164336778Y-87106340D02*
X163803444Y-87906340D01*
X164641540Y-87601578D02*
X165251064Y-87601578D01*
X165784397Y-87106340D02*
X165860587Y-87106340D01*
X165860587Y-87106340D02*
X165936778Y-87144435D01*
X165936778Y-87144435D02*
X165974873Y-87182530D01*
X165974873Y-87182530D02*
X166012968Y-87258721D01*
X166012968Y-87258721D02*
X166051063Y-87411102D01*
X166051063Y-87411102D02*
X166051063Y-87601578D01*
X166051063Y-87601578D02*
X166012968Y-87753959D01*
X166012968Y-87753959D02*
X165974873Y-87830149D01*
X165974873Y-87830149D02*
X165936778Y-87868245D01*
X165936778Y-87868245D02*
X165860587Y-87906340D01*
X165860587Y-87906340D02*
X165784397Y-87906340D01*
X165784397Y-87906340D02*
X165708206Y-87868245D01*
X165708206Y-87868245D02*
X165670111Y-87830149D01*
X165670111Y-87830149D02*
X165632016Y-87753959D01*
X165632016Y-87753959D02*
X165593920Y-87601578D01*
X165593920Y-87601578D02*
X165593920Y-87411102D01*
X165593920Y-87411102D02*
X165632016Y-87258721D01*
X165632016Y-87258721D02*
X165670111Y-87182530D01*
X165670111Y-87182530D02*
X165708206Y-87144435D01*
X165708206Y-87144435D02*
X165784397Y-87106340D01*
X166812968Y-87906340D02*
X166355825Y-87906340D01*
X166584397Y-87906340D02*
X166584397Y-87106340D01*
X166584397Y-87106340D02*
X166508206Y-87220625D01*
X166508206Y-87220625D02*
X166432016Y-87296816D01*
X166432016Y-87296816D02*
X166355825Y-87334911D01*
X167155826Y-87601578D02*
X167765350Y-87601578D01*
X168603445Y-87906340D02*
X168336778Y-87525387D01*
X168146302Y-87906340D02*
X168146302Y-87106340D01*
X168146302Y-87106340D02*
X168451064Y-87106340D01*
X168451064Y-87106340D02*
X168527254Y-87144435D01*
X168527254Y-87144435D02*
X168565349Y-87182530D01*
X168565349Y-87182530D02*
X168603445Y-87258721D01*
X168603445Y-87258721D02*
X168603445Y-87373006D01*
X168603445Y-87373006D02*
X168565349Y-87449197D01*
X168565349Y-87449197D02*
X168527254Y-87487292D01*
X168527254Y-87487292D02*
X168451064Y-87525387D01*
X168451064Y-87525387D02*
X168146302Y-87525387D01*
X168946302Y-87487292D02*
X169212968Y-87487292D01*
X169327254Y-87906340D02*
X168946302Y-87906340D01*
X168946302Y-87906340D02*
X168946302Y-87106340D01*
X168946302Y-87106340D02*
X169327254Y-87106340D01*
X170051064Y-87906340D02*
X169670112Y-87906340D01*
X169670112Y-87906340D02*
X169670112Y-87106340D01*
X170279635Y-87868245D02*
X170393921Y-87906340D01*
X170393921Y-87906340D02*
X170584397Y-87906340D01*
X170584397Y-87906340D02*
X170660588Y-87868245D01*
X170660588Y-87868245D02*
X170698683Y-87830149D01*
X170698683Y-87830149D02*
X170736778Y-87753959D01*
X170736778Y-87753959D02*
X170736778Y-87677768D01*
X170736778Y-87677768D02*
X170698683Y-87601578D01*
X170698683Y-87601578D02*
X170660588Y-87563483D01*
X170660588Y-87563483D02*
X170584397Y-87525387D01*
X170584397Y-87525387D02*
X170432016Y-87487292D01*
X170432016Y-87487292D02*
X170355826Y-87449197D01*
X170355826Y-87449197D02*
X170317731Y-87411102D01*
X170317731Y-87411102D02*
X170279635Y-87334911D01*
X170279635Y-87334911D02*
X170279635Y-87258721D01*
X170279635Y-87258721D02*
X170317731Y-87182530D01*
X170317731Y-87182530D02*
X170355826Y-87144435D01*
X170355826Y-87144435D02*
X170432016Y-87106340D01*
X170432016Y-87106340D02*
X170622493Y-87106340D01*
X170622493Y-87106340D02*
X170736778Y-87144435D01*
X171003445Y-87106340D02*
X171193921Y-87906340D01*
X171193921Y-87906340D02*
X171346302Y-87334911D01*
X171346302Y-87334911D02*
X171498683Y-87906340D01*
X171498683Y-87906340D02*
X171689160Y-87106340D01*
X171993922Y-87601578D02*
X172603446Y-87601578D01*
X173327255Y-87106340D02*
X173174874Y-87106340D01*
X173174874Y-87106340D02*
X173098683Y-87144435D01*
X173098683Y-87144435D02*
X173060588Y-87182530D01*
X173060588Y-87182530D02*
X172984398Y-87296816D01*
X172984398Y-87296816D02*
X172946302Y-87449197D01*
X172946302Y-87449197D02*
X172946302Y-87753959D01*
X172946302Y-87753959D02*
X172984398Y-87830149D01*
X172984398Y-87830149D02*
X173022493Y-87868245D01*
X173022493Y-87868245D02*
X173098683Y-87906340D01*
X173098683Y-87906340D02*
X173251064Y-87906340D01*
X173251064Y-87906340D02*
X173327255Y-87868245D01*
X173327255Y-87868245D02*
X173365350Y-87830149D01*
X173365350Y-87830149D02*
X173403445Y-87753959D01*
X173403445Y-87753959D02*
X173403445Y-87563483D01*
X173403445Y-87563483D02*
X173365350Y-87487292D01*
X173365350Y-87487292D02*
X173327255Y-87449197D01*
X173327255Y-87449197D02*
X173251064Y-87411102D01*
X173251064Y-87411102D02*
X173098683Y-87411102D01*
X173098683Y-87411102D02*
X173022493Y-87449197D01*
X173022493Y-87449197D02*
X172984398Y-87487292D01*
X172984398Y-87487292D02*
X172946302Y-87563483D01*
X173746303Y-87601578D02*
X174355827Y-87601578D01*
X174736779Y-87906340D02*
X174736779Y-87106340D01*
X174736779Y-87106340D02*
X175003445Y-87677768D01*
X175003445Y-87677768D02*
X175270112Y-87106340D01*
X175270112Y-87106340D02*
X175270112Y-87906340D01*
X175612969Y-87677768D02*
X175993922Y-87677768D01*
X175536779Y-87906340D02*
X175803446Y-87106340D01*
X175803446Y-87106340D02*
X176070112Y-87906340D01*
X176336779Y-87906340D02*
X176336779Y-87106340D01*
X176717731Y-87906340D02*
X176717731Y-87106340D01*
X176717731Y-87106340D02*
X177174874Y-87906340D01*
X177174874Y-87906340D02*
X177174874Y-87106340D01*
X177555826Y-87601578D02*
X178165350Y-87601578D01*
X178508206Y-87677768D02*
X178889159Y-87677768D01*
X178432016Y-87906340D02*
X178698683Y-87106340D01*
X178698683Y-87106340D02*
X178965349Y-87906340D01*
X179651063Y-87906340D02*
X179193920Y-87906340D01*
X179422492Y-87906340D02*
X179422492Y-87106340D01*
X179422492Y-87106340D02*
X179346301Y-87220625D01*
X179346301Y-87220625D02*
X179270111Y-87296816D01*
X179270111Y-87296816D02*
X179193920Y-87334911D01*
D12*
%TO.P,D8,1,K*%
%TO.N,S1*%
X151587200Y-81940500D03*
%TO.P,D8,2,A*%
%TO.N,Net-(D8-A)*%
X151587200Y-80365500D03*
%TD*%
D13*
%TO.P,U1,1,I1*%
%TO.N,P0*%
X154578300Y-68860800D03*
%TO.P,U1,2,I2*%
%TO.N,P1*%
X153308300Y-68860800D03*
%TO.P,U1,3,I3*%
%TO.N,P2*%
X152038300Y-68860800D03*
%TO.P,U1,4,I4*%
%TO.N,P3*%
X150768300Y-68860800D03*
%TO.P,U1,5,I5*%
%TO.N,P4*%
X149498300Y-68860800D03*
%TO.P,U1,6,I6*%
%TO.N,P5*%
X148228300Y-68860800D03*
%TO.P,U1,7,I7*%
%TO.N,unconnected-(U1-I7-Pad7)*%
X146958300Y-68860800D03*
%TO.P,U1,8,GND*%
%TO.N,GND*%
X145688300Y-68860800D03*
%TO.P,U1,9,COM*%
%TO.N,+12V*%
X145688300Y-75360800D03*
%TO.P,U1,10,O7*%
%TO.N,unconnected-(U1-O7-Pad10)*%
X146958300Y-75360800D03*
%TO.P,U1,11,O6*%
%TO.N,S6*%
X148228300Y-75360800D03*
%TO.P,U1,12,O5*%
%TO.N,S5*%
X149498300Y-75360800D03*
%TO.P,U1,13,O4*%
%TO.N,S4*%
X150768300Y-75360800D03*
%TO.P,U1,14,O3*%
%TO.N,S3*%
X152038300Y-75360800D03*
%TO.P,U1,15,O2*%
%TO.N,S2*%
X153308300Y-75360800D03*
%TO.P,U1,16,O1*%
%TO.N,S1*%
X154578300Y-75360800D03*
%TD*%
D14*
%TO.P,REL6,1*%
%TO.N,S6*%
X141026900Y-75641000D03*
D15*
%TO.P,REL6,2*%
%TO.N,+12V*%
X138486900Y-75641000D03*
D16*
%TO.P,REL6,3*%
%TO.N,Net-(J3-Pad1)*%
X130866900Y-75641000D03*
%TO.P,REL6,4*%
%TO.N,Net-(J4-Pad3)*%
X123246900Y-75641000D03*
%TD*%
D17*
%TO.P,J4,1,1*%
%TO.N,Net-(J4-Pad1)*%
X111980000Y-85120000D03*
D18*
%TO.P,J4,2,2*%
%TO.N,Net-(J4-Pad2)*%
X111980000Y-80040000D03*
%TO.P,J4,3,3*%
%TO.N,Net-(J4-Pad3)*%
X111980000Y-74960000D03*
%TD*%
D19*
%TO.P,R3,1*%
%TO.N,+12V*%
X171100000Y-77850000D03*
%TO.P,R3,2*%
%TO.N,Net-(D4-A)*%
X171100000Y-79675000D03*
%TD*%
D14*
%TO.P,REL1,1*%
%TO.N,S1*%
X159258000Y-70561200D03*
D15*
%TO.P,REL1,2*%
%TO.N,+12V*%
X161798000Y-70561200D03*
D16*
%TO.P,REL1,3*%
%TO.N,Net-(J2-Pad3)*%
X169418000Y-70561200D03*
%TO.P,REL1,4*%
%TO.N,Net-(J2-Pad2)*%
X177038000Y-70561200D03*
%TD*%
D14*
%TO.P,REL4,1*%
%TO.N,S4*%
X141046200Y-87045800D03*
D15*
%TO.P,REL4,2*%
%TO.N,+12V*%
X138506200Y-87045800D03*
D16*
%TO.P,REL4,3*%
%TO.N,Net-(J3-Pad1)*%
X130886200Y-87045800D03*
%TO.P,REL4,4*%
%TO.N,Net-(J4-Pad1)*%
X123266200Y-87045800D03*
%TD*%
D17*
%TO.P,J1,1,1*%
%TO.N,Net-(J1-Pad1)*%
X187934600Y-59842400D03*
D18*
%TO.P,J1,2,2*%
%TO.N,Net-(J1-Pad2)*%
X187934600Y-64922400D03*
%TO.P,J1,3,3*%
%TO.N,Net-(J1-Pad3)*%
X187934600Y-70002400D03*
%TD*%
D20*
%TO.P,C1,1*%
%TO.N,+12V*%
X134025000Y-70050000D03*
%TO.P,C1,2*%
%TO.N,GND*%
X135575000Y-70050000D03*
%TD*%
D17*
%TO.P,J2,1,1*%
%TO.N,Net-(J2-Pad1)*%
X187934600Y-75031600D03*
D18*
%TO.P,J2,2,2*%
%TO.N,Net-(J2-Pad2)*%
X187934600Y-80111600D03*
%TO.P,J2,3,3*%
%TO.N,Net-(J2-Pad3)*%
X187934600Y-85191600D03*
%TD*%
D17*
%TO.P,J3,1,1*%
%TO.N,Net-(J3-Pad1)*%
X111963200Y-69900800D03*
D18*
%TO.P,J3,2,2*%
%TO.N,GND*%
X111963200Y-64820800D03*
%TO.P,J3,3,3*%
%TO.N,Net-(D1-A)*%
X111963200Y-59740800D03*
%TD*%
D21*
%TO.P,J5,1,Pin_1*%
%TO.N,+12V*%
X133959600Y-65074800D03*
D22*
%TO.P,J5,2,Pin_2*%
%TO.N,GND*%
X133959600Y-62534800D03*
%TO.P,J5,3,Pin_3*%
%TO.N,unconnected-(J5-Pin_3-Pad3)*%
X136499600Y-65074800D03*
%TO.P,J5,4,Pin_4*%
%TO.N,unconnected-(J5-Pin_4-Pad4)*%
X136499600Y-62534800D03*
%TO.P,J5,5,Pin_5*%
%TO.N,P1*%
X139039600Y-65074800D03*
%TO.P,J5,6,Pin_6*%
%TO.N,P0*%
X139039600Y-62534800D03*
%TO.P,J5,7,Pin_7*%
%TO.N,P5*%
X141579600Y-65074800D03*
%TO.P,J5,8,Pin_8*%
%TO.N,P2*%
X141579600Y-62534800D03*
%TO.P,J5,9,Pin_9*%
%TO.N,unconnected-(J5-Pin_9-Pad9)*%
X144119600Y-65074800D03*
%TO.P,J5,10,Pin_10*%
%TO.N,unconnected-(J5-Pin_10-Pad10)*%
X144119600Y-62534800D03*
%TO.P,J5,11,Pin_11*%
%TO.N,P4*%
X146659600Y-65074800D03*
%TO.P,J5,12,Pin_12*%
%TO.N,P3*%
X146659600Y-62534800D03*
%TD*%
D23*
%TO.P,R1,1*%
%TO.N,Net-(D2-A)*%
X118725000Y-64000000D03*
%TO.P,R1,2*%
%TO.N,+12V*%
X120375000Y-64000000D03*
%TD*%
D12*
%TO.P,D4,1,K*%
%TO.N,S5*%
X171100000Y-82875000D03*
%TO.P,D4,2,A*%
%TO.N,Net-(D4-A)*%
X171100000Y-81300000D03*
%TD*%
D14*
%TO.P,REL3,1*%
%TO.N,S3*%
X159258000Y-58674000D03*
D15*
%TO.P,REL3,2*%
%TO.N,+12V*%
X161798000Y-58674000D03*
D16*
%TO.P,REL3,3*%
%TO.N,Net-(J1-Pad2)*%
X169418000Y-58674000D03*
%TO.P,REL3,4*%
%TO.N,Net-(J1-Pad1)*%
X177038000Y-58674000D03*
%TD*%
D24*
%TO.P,D1,1,K*%
%TO.N,+12V*%
X129863600Y-59359800D03*
%TO.P,D1,2,A*%
%TO.N,Net-(D1-A)*%
X125863600Y-59359800D03*
%TD*%
D19*
%TO.P,R4,1*%
%TO.N,+12V*%
X172650000Y-77850000D03*
%TO.P,R4,2*%
%TO.N,Net-(D5-A)*%
X172650000Y-79675000D03*
%TD*%
D12*
%TO.P,D6,1,K*%
%TO.N,S3*%
X145211800Y-81965900D03*
%TO.P,D6,2,A*%
%TO.N,Net-(D6-A)*%
X145211800Y-80390900D03*
%TD*%
D19*
%TO.P,R7,1*%
%TO.N,+12V*%
X149733000Y-80418300D03*
%TO.P,R7,2*%
%TO.N,Net-(D8-A)*%
X149733000Y-82243300D03*
%TD*%
D12*
%TO.P,D5,1,K*%
%TO.N,S4*%
X172650000Y-82837500D03*
%TO.P,D5,2,A*%
%TO.N,Net-(D5-A)*%
X172650000Y-81262500D03*
%TD*%
D14*
%TO.P,Rel2,1*%
%TO.N,S2*%
X159277300Y-64643200D03*
D15*
%TO.P,Rel2,2*%
%TO.N,+12V*%
X161817300Y-64643200D03*
D16*
%TO.P,Rel2,3*%
%TO.N,Net-(J2-Pad1)*%
X169437300Y-64643200D03*
%TO.P,Rel2,4*%
%TO.N,Net-(J1-Pad3)*%
X177057300Y-64643200D03*
%TD*%
D21*
%TO.P,J6,1,Pin_1*%
%TO.N,+12V*%
X166550000Y-79814000D03*
D22*
%TO.P,J6,2,Pin_2*%
%TO.N,S6*%
X166550000Y-82354000D03*
%TO.P,J6,3,Pin_3*%
%TO.N,unconnected-(J6-Pin_3-Pad3)*%
X164010000Y-79814000D03*
%TO.P,J6,4,Pin_4*%
%TO.N,S5*%
X164010000Y-82354000D03*
%TO.P,J6,5,Pin_5*%
%TO.N,unconnected-(J6-Pin_5-Pad5)*%
X161470000Y-79814000D03*
%TO.P,J6,6,Pin_6*%
%TO.N,S4*%
X161470000Y-82354000D03*
%TO.P,J6,7,Pin_7*%
%TO.N,unconnected-(J6-Pin_7-Pad7)*%
X158930000Y-79814000D03*
%TO.P,J6,8,Pin_8*%
%TO.N,S3*%
X158930000Y-82354000D03*
%TO.P,J6,9,Pin_9*%
%TO.N,S1*%
X156390000Y-79814000D03*
%TO.P,J6,10,Pin_10*%
%TO.N,S2*%
X156390000Y-82354000D03*
%TO.P,J6,11,Pin_11*%
%TO.N,GND*%
X153850000Y-79814000D03*
%TO.P,J6,12,Pin_12*%
X153850000Y-82354000D03*
%TD*%
D14*
%TO.P,REL5,1*%
%TO.N,S5*%
X141046200Y-81330600D03*
D15*
%TO.P,REL5,2*%
%TO.N,+12V*%
X138506200Y-81330600D03*
D16*
%TO.P,REL5,3*%
%TO.N,Net-(J3-Pad1)*%
X130886200Y-81330600D03*
%TO.P,REL5,4*%
%TO.N,Net-(J4-Pad2)*%
X123266200Y-81330600D03*
%TD*%
D25*
%TO.P,C2,1*%
%TO.N,+12V*%
X129582400Y-66649600D03*
%TO.P,C2,2*%
%TO.N,GND*%
X122182400Y-66649600D03*
%TD*%
D12*
%TO.P,D3,1,K*%
%TO.N,S6*%
X169550000Y-82887500D03*
%TO.P,D3,2,A*%
%TO.N,Net-(D3-A)*%
X169550000Y-81312500D03*
%TD*%
%TO.P,D7,1,K*%
%TO.N,S2*%
X148259800Y-81940500D03*
%TO.P,D7,2,A*%
%TO.N,Net-(D7-A)*%
X148259800Y-80365500D03*
%TD*%
D19*
%TO.P,R2,1*%
%TO.N,+12V*%
X169550000Y-77850000D03*
%TO.P,R2,2*%
%TO.N,Net-(D3-A)*%
X169550000Y-79675000D03*
%TD*%
%TO.P,R5,1*%
%TO.N,+12V*%
X143687800Y-80418300D03*
%TO.P,R5,2*%
%TO.N,Net-(D6-A)*%
X143687800Y-82243300D03*
%TD*%
%TO.P,R6,1*%
%TO.N,+12V*%
X146735800Y-80418300D03*
%TO.P,R6,2*%
%TO.N,Net-(D7-A)*%
X146735800Y-82243300D03*
%TD*%
D26*
%TO.P,D2,1,K*%
%TO.N,GND*%
X118786200Y-62488800D03*
%TO.P,D2,2,A*%
%TO.N,Net-(D2-A)*%
X120361200Y-62488800D03*
%TD*%
D27*
%TO.N,+12V*%
X138477350Y-68100850D03*
D28*
%TO.N,GND*%
X137000000Y-70000000D03*
D29*
X118618000Y-66294000D03*
D28*
X144094200Y-70104000D03*
D30*
%TO.N,Net-(D8-A)*%
X151511000Y-79273400D03*
X149682200Y-83286600D03*
%TD*%
D31*
%TO.N,Net-(J1-Pad1)*%
X186842400Y-58674000D02*
X187934600Y-59766200D01*
X187934600Y-59766200D02*
X187934600Y-59842400D01*
X177038000Y-58674000D02*
X186842400Y-58674000D01*
%TO.N,Net-(J1-Pad3)*%
X177057300Y-64643200D02*
X180670400Y-64643200D01*
X180670400Y-64643200D02*
X186029600Y-70002400D01*
X186029600Y-70002400D02*
X187934600Y-70002400D01*
%TO.N,Net-(J1-Pad2)*%
X187934600Y-64846200D02*
X187934600Y-64922400D01*
X169418000Y-58674000D02*
X172161200Y-61417200D01*
X184505600Y-61417200D02*
X187934600Y-64846200D01*
X172161200Y-61417200D02*
X184505600Y-61417200D01*
%TO.N,Net-(J2-Pad3)*%
X169418000Y-70561200D02*
X172212000Y-70561200D01*
X186842400Y-85191600D02*
X188010800Y-85191600D01*
X172212000Y-70561200D02*
X186842400Y-85191600D01*
%TO.N,Net-(J2-Pad2)*%
X177038000Y-70561200D02*
X186588400Y-80111600D01*
X186588400Y-80111600D02*
X188010800Y-80111600D01*
%TO.N,Net-(J2-Pad1)*%
X187096400Y-75031600D02*
X188010800Y-75031600D01*
X169437300Y-64643200D02*
X172154900Y-67360800D01*
X172154900Y-67360800D02*
X179425600Y-67360800D01*
X179425600Y-67360800D02*
X187096400Y-75031600D01*
D32*
%TO.N,Net-(J3-Pad1)*%
X115646400Y-69926400D02*
X118770400Y-73050400D01*
X130993900Y-75412400D02*
X130993900Y-80854300D01*
D31*
X111777200Y-69942400D02*
X111818800Y-69900800D01*
X130866900Y-74879000D02*
X130866900Y-75285400D01*
D32*
X129038300Y-73050400D02*
X130866900Y-74879000D01*
D31*
X130866900Y-75285400D02*
X130993900Y-75412400D01*
X111818800Y-69900800D02*
X111963200Y-69900800D01*
D32*
X111963200Y-69900800D02*
X111988800Y-69926400D01*
X111988800Y-69926400D02*
X115646400Y-69926400D01*
X131013200Y-80873600D02*
X131013200Y-86766400D01*
X118770400Y-73050400D02*
X129038300Y-73050400D01*
D31*
X130993900Y-80854300D02*
X131013200Y-80873600D01*
%TO.N,Net-(J4-Pad1)*%
X111948500Y-85145600D02*
X121366000Y-85145600D01*
X121366000Y-85145600D02*
X123266200Y-87045800D01*
D33*
%TO.N,P1*%
X153308300Y-69195700D02*
X153314400Y-69201800D01*
X142494000Y-71983600D02*
X151688800Y-71983600D01*
X140335000Y-69824600D02*
X142494000Y-71983600D01*
X139080000Y-65086000D02*
X140335000Y-66341000D01*
X153308300Y-68860800D02*
X153308300Y-69195700D01*
X140335000Y-66341000D02*
X140335000Y-69824600D01*
X153308300Y-70364100D02*
X153308300Y-68860800D01*
X151688800Y-71983600D02*
X153308300Y-70364100D01*
%TO.N,P5*%
X143256000Y-71272400D02*
X147472400Y-71272400D01*
X141620000Y-65086000D02*
X141630400Y-65096400D01*
X141630400Y-65096400D02*
X141630400Y-69646800D01*
X148228300Y-70516500D02*
X148228300Y-68860800D01*
X141630400Y-69646800D02*
X143256000Y-71272400D01*
X147472400Y-71272400D02*
X148228300Y-70516500D01*
%TO.N,P4*%
X149498300Y-66491100D02*
X149498300Y-69635800D01*
X148093200Y-65086000D02*
X149498300Y-66491100D01*
X146700000Y-65086000D02*
X148093200Y-65086000D01*
%TO.N,P2*%
X148793200Y-60121800D02*
X142621000Y-60121800D01*
X152038300Y-63366900D02*
X148793200Y-60121800D01*
X152038300Y-69635800D02*
X152038300Y-63366900D01*
X141620000Y-61122800D02*
X141620000Y-62546000D01*
X142621000Y-60121800D02*
X141620000Y-61122800D01*
%TO.N,P3*%
X150768300Y-63595500D02*
X149718800Y-62546000D01*
X150768300Y-69635800D02*
X150768300Y-63595500D01*
X149718800Y-62546000D02*
X146700000Y-62546000D01*
%TO.N,P0*%
X149398706Y-59232800D02*
X141020800Y-59232800D01*
X154578300Y-69635800D02*
X154578300Y-64412394D01*
X154578300Y-64412394D02*
X149398706Y-59232800D01*
X141020800Y-59232800D02*
X139080000Y-61173600D01*
X139080000Y-61173600D02*
X139080000Y-62546000D01*
D31*
%TO.N,+12V*%
X129582400Y-66649600D02*
X129582800Y-66650000D01*
X138428200Y-68150000D02*
X134012200Y-68150000D01*
D34*
X146786600Y-80418300D02*
X146786600Y-79390800D01*
X144160800Y-79365400D02*
X146812000Y-79365400D01*
D35*
X166550000Y-77950000D02*
X166550000Y-79814000D01*
D34*
X143687800Y-79806800D02*
X144145000Y-79349600D01*
D35*
X161766500Y-64694000D02*
X161766500Y-72612500D01*
D32*
X129863600Y-66063600D02*
X129863600Y-59359800D01*
D31*
X161766500Y-64694000D02*
X161817300Y-64643200D01*
D35*
X161766500Y-72612500D02*
X166550000Y-77396000D01*
D36*
X144475200Y-72999600D02*
X145688300Y-74212700D01*
D34*
X149631400Y-79365400D02*
X146812000Y-79365400D01*
D35*
X166624000Y-79740000D02*
X166550000Y-79814000D01*
D34*
X172650000Y-77850000D02*
X171100000Y-77850000D01*
X143687800Y-80418300D02*
X143687800Y-79806800D01*
D35*
X134025000Y-68082000D02*
X134025000Y-70050000D01*
D34*
X144145000Y-79349600D02*
X144160800Y-79365400D01*
D31*
X134000000Y-65086000D02*
X133959600Y-65126400D01*
D34*
X127440800Y-64000000D02*
X129277600Y-65836800D01*
D35*
X138506200Y-81153000D02*
X138506200Y-87045800D01*
D34*
X149682200Y-78892400D02*
X151409400Y-77165200D01*
D31*
X133759600Y-66650000D02*
X134000000Y-66409600D01*
D34*
X149682200Y-79314600D02*
X149682200Y-78892400D01*
D31*
X134000000Y-66409600D02*
X134000000Y-65086000D01*
X134000000Y-68057000D02*
X134000000Y-65086000D01*
X133959600Y-65126400D02*
X133959600Y-68097400D01*
D35*
X129404600Y-65963800D02*
X129277600Y-65836800D01*
D34*
X172657500Y-77857500D02*
X172650000Y-77850000D01*
D35*
X166550000Y-77396000D02*
X166550000Y-77950000D01*
D34*
X151409400Y-73700000D02*
X146201000Y-73700000D01*
D31*
X161868100Y-64592400D02*
X161817300Y-64643200D01*
D35*
X134000000Y-68057000D02*
X134025000Y-68082000D01*
D36*
X138477350Y-73152000D02*
X138629750Y-72999600D01*
X145688300Y-74212700D02*
X145688300Y-75360800D01*
D35*
X138477350Y-75453650D02*
X138486900Y-75463200D01*
D34*
X120175000Y-64000000D02*
X127440800Y-64000000D01*
D32*
X129582400Y-66344800D02*
X129863600Y-66063600D01*
D34*
X146201000Y-73700000D02*
X145688300Y-74212700D01*
D31*
X138477350Y-68100850D02*
X138428200Y-68150000D01*
D34*
X169550000Y-77850000D02*
X166650000Y-77850000D01*
D35*
X129252200Y-66319400D02*
X129252200Y-66268600D01*
D31*
X133959600Y-68097400D02*
X134000000Y-68057000D01*
X138486900Y-81133700D02*
X138506200Y-81153000D01*
D36*
X138629750Y-72999600D02*
X144475200Y-72999600D01*
D32*
X129582400Y-66649600D02*
X129582400Y-66344800D01*
D34*
X166650000Y-77850000D02*
X166550000Y-77950000D01*
X151409400Y-77165200D02*
X151409400Y-73700000D01*
D35*
X138477350Y-68100850D02*
X138477350Y-75453650D01*
D34*
X171100000Y-77850000D02*
X169550000Y-77850000D01*
D35*
X138486900Y-75463200D02*
X138486900Y-81133700D01*
D34*
X149682200Y-79314600D02*
X149631400Y-79365400D01*
D35*
X161868100Y-58902800D02*
X161868100Y-64592400D01*
D31*
X134012200Y-68150000D02*
X133959600Y-68097400D01*
D34*
X149682200Y-80418300D02*
X149682200Y-79314600D01*
D37*
X129582800Y-66650000D02*
X133759600Y-66650000D01*
D34*
X146786600Y-79390800D02*
X146812000Y-79365400D01*
%TO.N,GND*%
X116671600Y-62500000D02*
X115824000Y-63347600D01*
D35*
X135578200Y-70053200D02*
X136946800Y-70053200D01*
D32*
X122182400Y-66598800D02*
X121852200Y-66268600D01*
X122182400Y-66649600D02*
X122182400Y-66598800D01*
D35*
X136946800Y-70053200D02*
X137000000Y-70000000D01*
D32*
X121826800Y-66294000D02*
X122182400Y-66649600D01*
X118618000Y-66294000D02*
X121826800Y-66294000D01*
X111963200Y-64877900D02*
X113379300Y-66294000D01*
X116128800Y-66294000D02*
X118618000Y-66294000D01*
D34*
X118786200Y-62488800D02*
X118775000Y-62500000D01*
D32*
X111963200Y-64820800D02*
X111963200Y-64877900D01*
X113379300Y-66294000D02*
X118618000Y-66294000D01*
D35*
X145688300Y-69805300D02*
X145688300Y-68860800D01*
X145389600Y-70104000D02*
X145688300Y-69805300D01*
X135575000Y-70050000D02*
X135578200Y-70053200D01*
D34*
X118775000Y-62500000D02*
X116671600Y-62500000D01*
X115824000Y-63347600D02*
X115824000Y-65989200D01*
D35*
X144094200Y-70104000D02*
X145389600Y-70104000D01*
D31*
%TO.N,Net-(J4-Pad2)*%
X113035900Y-81153000D02*
X111948500Y-80065600D01*
X123266200Y-81330600D02*
X123088600Y-81153000D01*
X123088600Y-81153000D02*
X113035900Y-81153000D01*
%TO.N,Net-(J4-Pad3)*%
X123246900Y-75641000D02*
X123246900Y-75285400D01*
X112578700Y-75615800D02*
X123221700Y-75615800D01*
X123221700Y-75615800D02*
X123246900Y-75641000D01*
X111948500Y-74985600D02*
X112578700Y-75615800D01*
D38*
%TO.N,S6*%
X148260800Y-75360800D02*
X148285200Y-75336400D01*
D39*
X148228300Y-76571700D02*
X148228300Y-75360800D01*
D34*
X167083500Y-82887500D02*
X166550000Y-82354000D01*
D39*
X141026900Y-75177900D02*
X141026900Y-75641000D01*
X142435900Y-77050000D02*
X147750000Y-77050000D01*
X147750000Y-77050000D02*
X148228300Y-76571700D01*
D38*
X148228300Y-75360800D02*
X148260800Y-75360800D01*
D39*
X141026900Y-75641000D02*
X142435900Y-77050000D01*
D34*
X169550000Y-82887500D02*
X167083500Y-82887500D01*
D39*
%TO.N,S3*%
X156108400Y-70612000D02*
X154889200Y-71831200D01*
X152038300Y-72739500D02*
X152038300Y-75360800D01*
D33*
X159004000Y-82254000D02*
X159004000Y-82428000D01*
D39*
X156743200Y-58902800D02*
X156108400Y-59537600D01*
X152946600Y-71831200D02*
X152038300Y-72739500D01*
D34*
X157486200Y-85013800D02*
X158930000Y-83570000D01*
D39*
X160528000Y-60256100D02*
X159174700Y-58902800D01*
X159174700Y-58902800D02*
X156743200Y-58902800D01*
X160528000Y-74422000D02*
X160528000Y-60256100D01*
X157700000Y-77250000D02*
X160528000Y-74422000D01*
D33*
X157714000Y-78810800D02*
X157650000Y-78810800D01*
D34*
X145237200Y-84480400D02*
X145770600Y-85013800D01*
D39*
X157700000Y-78796800D02*
X157700000Y-77250000D01*
D34*
X145770600Y-85013800D02*
X157486200Y-85013800D01*
D33*
X157650000Y-78810800D02*
X157650000Y-80900000D01*
D34*
X158930000Y-83570000D02*
X158930000Y-82354000D01*
X145237200Y-81965900D02*
X145237200Y-84480400D01*
D39*
X156108400Y-59537600D02*
X156108400Y-70612000D01*
X154889200Y-71831200D02*
X152946600Y-71831200D01*
D33*
X157650000Y-80900000D02*
X159004000Y-82254000D01*
D39*
%TO.N,S2*%
X157022800Y-65532000D02*
X157911600Y-64643200D01*
D33*
X151384000Y-84302600D02*
X155778200Y-84302600D01*
D34*
X148844100Y-81356200D02*
X150545800Y-81356200D01*
D39*
X153619200Y-72644000D02*
X155219400Y-72644000D01*
D33*
X155778200Y-84302600D02*
X156390000Y-83690800D01*
D39*
X155219400Y-72644000D02*
X157022800Y-70840600D01*
D33*
X150647400Y-81254600D02*
X150647400Y-83566000D01*
X150647400Y-83566000D02*
X151384000Y-84302600D01*
D34*
X150545800Y-81356200D02*
X150647400Y-81254600D01*
D33*
X153308300Y-76206100D02*
X150647400Y-78867000D01*
D39*
X157911600Y-64643200D02*
X159277300Y-64643200D01*
D33*
X150647400Y-78867000D02*
X150647400Y-81254600D01*
X153308300Y-75360800D02*
X153308300Y-76206100D01*
X156390000Y-83690800D02*
X156390000Y-82354000D01*
D39*
X157022800Y-70840600D02*
X157022800Y-65532000D01*
X153308300Y-72954900D02*
X153619200Y-72644000D01*
X153308300Y-75360800D02*
X153308300Y-72954900D01*
D34*
X148259800Y-81940500D02*
X148844100Y-81356200D01*
%TO.N,S1*%
X155127200Y-81076800D02*
X153162000Y-81076800D01*
D39*
X154578300Y-75360800D02*
X158189200Y-75360800D01*
D34*
X156390000Y-79814000D02*
X155127200Y-81076800D01*
X153162000Y-81076800D02*
X152298300Y-81940500D01*
D39*
X156413074Y-79790926D02*
X156413074Y-75360800D01*
D34*
X152298300Y-81940500D02*
X151587200Y-81940500D01*
D39*
X158189200Y-75360800D02*
X159258000Y-74292000D01*
X156390000Y-79814000D02*
X156413074Y-79790926D01*
X159258000Y-74292000D02*
X159258000Y-70561200D01*
%TO.N,S4*%
X150750000Y-75379100D02*
X150750000Y-76859400D01*
D34*
X172650000Y-83850000D02*
X171720000Y-84780000D01*
D39*
X141046200Y-87045800D02*
X156754200Y-87045800D01*
X159020000Y-84780000D02*
X161470000Y-84780000D01*
X149158400Y-78451000D02*
X143595800Y-78451000D01*
D34*
X171720000Y-84780000D02*
X161470000Y-84780000D01*
D39*
X143595800Y-78451000D02*
X142494000Y-79552800D01*
X161470000Y-84780000D02*
X161470000Y-82354000D01*
X150768300Y-75360800D02*
X150750000Y-75379100D01*
X156754200Y-87045800D02*
X159020000Y-84780000D01*
D34*
X172650000Y-82837500D02*
X172650000Y-83850000D01*
D39*
X142494000Y-79552800D02*
X142494000Y-87045800D01*
X150750000Y-76859400D02*
X149158400Y-78451000D01*
D34*
%TO.N,S5*%
X164000000Y-83650000D02*
X164000000Y-82364000D01*
X171100000Y-82875000D02*
X171100000Y-83800000D01*
D39*
X142899800Y-77750000D02*
X148650000Y-77750000D01*
D34*
X164000000Y-82364000D02*
X164010000Y-82354000D01*
X170750000Y-84150000D02*
X164500000Y-84150000D01*
D39*
X149498300Y-76901700D02*
X149498300Y-75360800D01*
X141046200Y-81330600D02*
X141046200Y-79603600D01*
D34*
X171100000Y-83800000D02*
X170750000Y-84150000D01*
D39*
X148650000Y-77750000D02*
X149498300Y-76901700D01*
X141046200Y-79603600D02*
X142899800Y-77750000D01*
D34*
X164500000Y-84150000D02*
X164000000Y-83650000D01*
D32*
%TO.N,Net-(D1-A)*%
X111777200Y-59782400D02*
X111818800Y-59740800D01*
X111963200Y-59740800D02*
X112420400Y-59283600D01*
X111818800Y-59740800D02*
X111963200Y-59740800D01*
X112420400Y-59283600D02*
X125787400Y-59283600D01*
X125787400Y-59283600D02*
X125863600Y-59359800D01*
D34*
%TO.N,Net-(D2-A)*%
X120161200Y-62488800D02*
X118738800Y-63911200D01*
X118922900Y-63601600D02*
X118707400Y-63601600D01*
%TO.N,Net-(D3-A)*%
X169550000Y-79675000D02*
X169550000Y-81312500D01*
%TO.N,Net-(D4-A)*%
X171100000Y-79675000D02*
X171100000Y-81300000D01*
%TO.N,Net-(D5-A)*%
X172650000Y-79675000D02*
X172650000Y-81262500D01*
%TO.N,Net-(D6-A)*%
X145211800Y-80543400D02*
X144526000Y-81229200D01*
X143687800Y-81737200D02*
X143687800Y-82243300D01*
X145211800Y-80390900D02*
X145211800Y-80543400D01*
X144221200Y-81229200D02*
X144094200Y-81356200D01*
X144094200Y-81356200D02*
X144068800Y-81356200D01*
X144068800Y-81356200D02*
X143687800Y-81737200D01*
X144526000Y-81229200D02*
X144221200Y-81229200D01*
%TO.N,Net-(D7-A)*%
X148285200Y-80365500D02*
X148259900Y-80365500D01*
X148259800Y-80365500D02*
X148259800Y-80719300D01*
X146735800Y-81813400D02*
X146735800Y-82243300D01*
X148285200Y-80365500D02*
X148285200Y-80518000D01*
X147851500Y-81127600D02*
X147421600Y-81127600D01*
X148259800Y-80719300D02*
X147851500Y-81127600D01*
X147421600Y-81127600D02*
X146735800Y-81813400D01*
%TO.N,Net-(D8-A)*%
X151587200Y-79349600D02*
X151587200Y-80365500D01*
X149682200Y-83464400D02*
X149682200Y-83286600D01*
X149682200Y-82243300D02*
X149682200Y-83286600D01*
X149707600Y-83489800D02*
X149682200Y-83464400D01*
X151511000Y-79273400D02*
X151587200Y-79349600D01*
%TD*%
M02*
