M48
; DRILL file {KiCad 9.0.6} date 2025-12-26T20:22:24+0000
; FORMAT={-:-/ absolute / metric / decimal}
; #@! TF.CreationDate,2025-12-26T20:22:24+00:00
; #@! TF.GenerationSoftware,Kicad,Pcbnew,9.0.6
; #@! TF.FileFunction,Plated,1,2,PTH
FMAT,2
METRIC
; #@! TA.AperFunction,Plated,PTH,ViaDrill
T1C0.300
; #@! TA.AperFunction,Plated,PTH,ViaDrill
T2C0.500
; #@! TA.AperFunction,Plated,PTH,ViaDrill
T3C0.600
; #@! TA.AperFunction,Plated,PTH,ViaDrill
T4C0.700
; #@! TA.AperFunction,Plated,PTH,ComponentDrill
T5C1.000
; #@! TA.AperFunction,Plated,PTH,ComponentDrill
T6C1.200
; #@! TA.AperFunction,Plated,PTH,ComponentDrill
T7C1.300
%
G90
G05
T1
X149.682Y-83.287
X151.511Y-79.273
T2
X137.0Y-70.0
X144.094Y-70.104
T3
X138.477Y-68.101
T4
X118.618Y-66.294
T5
X133.96Y-62.535
X133.96Y-65.075
X136.5Y-62.535
X136.5Y-65.075
X138.487Y-75.641
X138.506Y-81.331
X138.506Y-87.046
X139.04Y-62.535
X139.04Y-65.075
X141.027Y-75.641
X141.046Y-81.331
X141.046Y-87.046
X141.58Y-62.535
X141.58Y-65.075
X144.12Y-62.535
X144.12Y-65.075
X146.66Y-62.535
X146.66Y-65.075
X153.85Y-79.814
X153.85Y-82.354
X156.39Y-79.814
X156.39Y-82.354
X158.93Y-79.814
X158.93Y-82.354
X159.258Y-58.674
X159.258Y-70.561
X159.277Y-64.643
X161.47Y-79.814
X161.47Y-82.354
X161.798Y-58.674
X161.798Y-70.561
X161.817Y-64.643
X164.01Y-79.814
X164.01Y-82.354
X166.55Y-79.814
X166.55Y-82.354
T6
X123.247Y-75.641
X123.266Y-81.331
X123.266Y-87.046
X130.867Y-75.641
X130.886Y-81.331
X130.886Y-87.046
X169.418Y-58.674
X169.418Y-70.561
X169.437Y-64.643
X177.038Y-58.674
X177.038Y-70.561
X177.057Y-64.643
T7
X111.963Y-59.741
X111.963Y-64.821
X111.963Y-69.901
X111.98Y-74.96
X111.98Y-80.04
X111.98Y-85.12
X187.935Y-59.842
X187.935Y-64.922
X187.935Y-70.002
X187.935Y-75.032
X187.935Y-80.112
X187.935Y-85.192
M30
