%TF.GenerationSoftware,KiCad,Pcbnew,9.0.6*%
%TF.CreationDate,2025-12-26T20:22:19+00:00*%
%TF.ProjectId,PIDI-BOX-01-RELSW-6-MAIN-A1,50494449-2d42-44f5-982d-30312d52454c,rev?*%
%TF.SameCoordinates,Original*%
%TF.FileFunction,Legend,Top*%
%TF.FilePolarity,Positive*%
%FSLAX46Y46*%
G04 Gerber Fmt 4.6, Leading zero omitted, Abs format (unit mm)*
G04 Created by KiCad (PCBNEW 9.0.6) date 2025-12-26 20:22:19*
%MOMM*%
%LPD*%
G01*
G04 APERTURE LIST*
%ADD10C,0.150000*%
%ADD11C,0.120000*%
%ADD12C,0.127000*%
%ADD13C,0.200000*%
%ADD14C,0.100000*%
G04 APERTURE END LIST*
D10*
X154889160Y-86706340D02*
X154889160Y-85906340D01*
X154889160Y-85906340D02*
X155193922Y-85906340D01*
X155193922Y-85906340D02*
X155270112Y-85944435D01*
X155270112Y-85944435D02*
X155308207Y-85982530D01*
X155308207Y-85982530D02*
X155346303Y-86058721D01*
X155346303Y-86058721D02*
X155346303Y-86173006D01*
X155346303Y-86173006D02*
X155308207Y-86249197D01*
X155308207Y-86249197D02*
X155270112Y-86287292D01*
X155270112Y-86287292D02*
X155193922Y-86325387D01*
X155193922Y-86325387D02*
X154889160Y-86325387D01*
X155689160Y-86706340D02*
X155689160Y-85906340D01*
X156070112Y-86706340D02*
X156070112Y-85906340D01*
X156070112Y-85906340D02*
X156260588Y-85906340D01*
X156260588Y-85906340D02*
X156374874Y-85944435D01*
X156374874Y-85944435D02*
X156451064Y-86020625D01*
X156451064Y-86020625D02*
X156489159Y-86096816D01*
X156489159Y-86096816D02*
X156527255Y-86249197D01*
X156527255Y-86249197D02*
X156527255Y-86363483D01*
X156527255Y-86363483D02*
X156489159Y-86515864D01*
X156489159Y-86515864D02*
X156451064Y-86592054D01*
X156451064Y-86592054D02*
X156374874Y-86668245D01*
X156374874Y-86668245D02*
X156260588Y-86706340D01*
X156260588Y-86706340D02*
X156070112Y-86706340D01*
X156870112Y-86706340D02*
X156870112Y-85906340D01*
X157251064Y-86401578D02*
X157860588Y-86401578D01*
X158508206Y-86287292D02*
X158622492Y-86325387D01*
X158622492Y-86325387D02*
X158660587Y-86363483D01*
X158660587Y-86363483D02*
X158698683Y-86439673D01*
X158698683Y-86439673D02*
X158698683Y-86553959D01*
X158698683Y-86553959D02*
X158660587Y-86630149D01*
X158660587Y-86630149D02*
X158622492Y-86668245D01*
X158622492Y-86668245D02*
X158546302Y-86706340D01*
X158546302Y-86706340D02*
X158241540Y-86706340D01*
X158241540Y-86706340D02*
X158241540Y-85906340D01*
X158241540Y-85906340D02*
X158508206Y-85906340D01*
X158508206Y-85906340D02*
X158584397Y-85944435D01*
X158584397Y-85944435D02*
X158622492Y-85982530D01*
X158622492Y-85982530D02*
X158660587Y-86058721D01*
X158660587Y-86058721D02*
X158660587Y-86134911D01*
X158660587Y-86134911D02*
X158622492Y-86211102D01*
X158622492Y-86211102D02*
X158584397Y-86249197D01*
X158584397Y-86249197D02*
X158508206Y-86287292D01*
X158508206Y-86287292D02*
X158241540Y-86287292D01*
X159193921Y-85906340D02*
X159346302Y-85906340D01*
X159346302Y-85906340D02*
X159422492Y-85944435D01*
X159422492Y-85944435D02*
X159498683Y-86020625D01*
X159498683Y-86020625D02*
X159536778Y-86173006D01*
X159536778Y-86173006D02*
X159536778Y-86439673D01*
X159536778Y-86439673D02*
X159498683Y-86592054D01*
X159498683Y-86592054D02*
X159422492Y-86668245D01*
X159422492Y-86668245D02*
X159346302Y-86706340D01*
X159346302Y-86706340D02*
X159193921Y-86706340D01*
X159193921Y-86706340D02*
X159117730Y-86668245D01*
X159117730Y-86668245D02*
X159041540Y-86592054D01*
X159041540Y-86592054D02*
X159003444Y-86439673D01*
X159003444Y-86439673D02*
X159003444Y-86173006D01*
X159003444Y-86173006D02*
X159041540Y-86020625D01*
X159041540Y-86020625D02*
X159117730Y-85944435D01*
X159117730Y-85944435D02*
X159193921Y-85906340D01*
X159803444Y-85906340D02*
X160336778Y-86706340D01*
X160336778Y-85906340D02*
X159803444Y-86706340D01*
X160641540Y-86401578D02*
X161251064Y-86401578D01*
X161784397Y-85906340D02*
X161860587Y-85906340D01*
X161860587Y-85906340D02*
X161936778Y-85944435D01*
X161936778Y-85944435D02*
X161974873Y-85982530D01*
X161974873Y-85982530D02*
X162012968Y-86058721D01*
X162012968Y-86058721D02*
X162051063Y-86211102D01*
X162051063Y-86211102D02*
X162051063Y-86401578D01*
X162051063Y-86401578D02*
X162012968Y-86553959D01*
X162012968Y-86553959D02*
X161974873Y-86630149D01*
X161974873Y-86630149D02*
X161936778Y-86668245D01*
X161936778Y-86668245D02*
X161860587Y-86706340D01*
X161860587Y-86706340D02*
X161784397Y-86706340D01*
X161784397Y-86706340D02*
X161708206Y-86668245D01*
X161708206Y-86668245D02*
X161670111Y-86630149D01*
X161670111Y-86630149D02*
X161632016Y-86553959D01*
X161632016Y-86553959D02*
X161593920Y-86401578D01*
X161593920Y-86401578D02*
X161593920Y-86211102D01*
X161593920Y-86211102D02*
X161632016Y-86058721D01*
X161632016Y-86058721D02*
X161670111Y-85982530D01*
X161670111Y-85982530D02*
X161708206Y-85944435D01*
X161708206Y-85944435D02*
X161784397Y-85906340D01*
X162812968Y-86706340D02*
X162355825Y-86706340D01*
X162584397Y-86706340D02*
X162584397Y-85906340D01*
X162584397Y-85906340D02*
X162508206Y-86020625D01*
X162508206Y-86020625D02*
X162432016Y-86096816D01*
X162432016Y-86096816D02*
X162355825Y-86134911D01*
X163155826Y-86401578D02*
X163765350Y-86401578D01*
X164603445Y-86706340D02*
X164336778Y-86325387D01*
X164146302Y-86706340D02*
X164146302Y-85906340D01*
X164146302Y-85906340D02*
X164451064Y-85906340D01*
X164451064Y-85906340D02*
X164527254Y-85944435D01*
X164527254Y-85944435D02*
X164565349Y-85982530D01*
X164565349Y-85982530D02*
X164603445Y-86058721D01*
X164603445Y-86058721D02*
X164603445Y-86173006D01*
X164603445Y-86173006D02*
X164565349Y-86249197D01*
X164565349Y-86249197D02*
X164527254Y-86287292D01*
X164527254Y-86287292D02*
X164451064Y-86325387D01*
X164451064Y-86325387D02*
X164146302Y-86325387D01*
X164946302Y-86287292D02*
X165212968Y-86287292D01*
X165327254Y-86706340D02*
X164946302Y-86706340D01*
X164946302Y-86706340D02*
X164946302Y-85906340D01*
X164946302Y-85906340D02*
X165327254Y-85906340D01*
X166051064Y-86706340D02*
X165670112Y-86706340D01*
X165670112Y-86706340D02*
X165670112Y-85906340D01*
X166279635Y-86668245D02*
X166393921Y-86706340D01*
X166393921Y-86706340D02*
X166584397Y-86706340D01*
X166584397Y-86706340D02*
X166660588Y-86668245D01*
X166660588Y-86668245D02*
X166698683Y-86630149D01*
X166698683Y-86630149D02*
X166736778Y-86553959D01*
X166736778Y-86553959D02*
X166736778Y-86477768D01*
X166736778Y-86477768D02*
X166698683Y-86401578D01*
X166698683Y-86401578D02*
X166660588Y-86363483D01*
X166660588Y-86363483D02*
X166584397Y-86325387D01*
X166584397Y-86325387D02*
X166432016Y-86287292D01*
X166432016Y-86287292D02*
X166355826Y-86249197D01*
X166355826Y-86249197D02*
X166317731Y-86211102D01*
X166317731Y-86211102D02*
X166279635Y-86134911D01*
X166279635Y-86134911D02*
X166279635Y-86058721D01*
X166279635Y-86058721D02*
X166317731Y-85982530D01*
X166317731Y-85982530D02*
X166355826Y-85944435D01*
X166355826Y-85944435D02*
X166432016Y-85906340D01*
X166432016Y-85906340D02*
X166622493Y-85906340D01*
X166622493Y-85906340D02*
X166736778Y-85944435D01*
X167003445Y-85906340D02*
X167193921Y-86706340D01*
X167193921Y-86706340D02*
X167346302Y-86134911D01*
X167346302Y-86134911D02*
X167498683Y-86706340D01*
X167498683Y-86706340D02*
X167689160Y-85906340D01*
X167993922Y-86401578D02*
X168603446Y-86401578D01*
X169327255Y-85906340D02*
X169174874Y-85906340D01*
X169174874Y-85906340D02*
X169098683Y-85944435D01*
X169098683Y-85944435D02*
X169060588Y-85982530D01*
X169060588Y-85982530D02*
X168984398Y-86096816D01*
X168984398Y-86096816D02*
X168946302Y-86249197D01*
X168946302Y-86249197D02*
X168946302Y-86553959D01*
X168946302Y-86553959D02*
X168984398Y-86630149D01*
X168984398Y-86630149D02*
X169022493Y-86668245D01*
X169022493Y-86668245D02*
X169098683Y-86706340D01*
X169098683Y-86706340D02*
X169251064Y-86706340D01*
X169251064Y-86706340D02*
X169327255Y-86668245D01*
X169327255Y-86668245D02*
X169365350Y-86630149D01*
X169365350Y-86630149D02*
X169403445Y-86553959D01*
X169403445Y-86553959D02*
X169403445Y-86363483D01*
X169403445Y-86363483D02*
X169365350Y-86287292D01*
X169365350Y-86287292D02*
X169327255Y-86249197D01*
X169327255Y-86249197D02*
X169251064Y-86211102D01*
X169251064Y-86211102D02*
X169098683Y-86211102D01*
X169098683Y-86211102D02*
X169022493Y-86249197D01*
X169022493Y-86249197D02*
X168984398Y-86287292D01*
X168984398Y-86287292D02*
X168946302Y-86363483D01*
X169746303Y-86401578D02*
X170355827Y-86401578D01*
X170736779Y-86706340D02*
X170736779Y-85906340D01*
X170736779Y-85906340D02*
X171003445Y-86477768D01*
X171003445Y-86477768D02*
X171270112Y-85906340D01*
X171270112Y-85906340D02*
X171270112Y-86706340D01*
X171612969Y-86477768D02*
X171993922Y-86477768D01*
X171536779Y-86706340D02*
X171803446Y-85906340D01*
X171803446Y-85906340D02*
X172070112Y-86706340D01*
X172336779Y-86706340D02*
X172336779Y-85906340D01*
X172717731Y-86706340D02*
X172717731Y-85906340D01*
X172717731Y-85906340D02*
X173174874Y-86706340D01*
X173174874Y-86706340D02*
X173174874Y-85906340D01*
X173555826Y-86401578D02*
X174165350Y-86401578D01*
X174508206Y-86477768D02*
X174889159Y-86477768D01*
X174432016Y-86706340D02*
X174698683Y-85906340D01*
X174698683Y-85906340D02*
X174965349Y-86706340D01*
X175651063Y-86706340D02*
X175193920Y-86706340D01*
X175422492Y-86706340D02*
X175422492Y-85906340D01*
X175422492Y-85906340D02*
X175346301Y-86020625D01*
X175346301Y-86020625D02*
X175270111Y-86096816D01*
X175270111Y-86096816D02*
X175193920Y-86134911D01*
X151898695Y-79381275D02*
X151098695Y-79381275D01*
X151098695Y-79381275D02*
X151098695Y-79190799D01*
X151098695Y-79190799D02*
X151136790Y-79076513D01*
X151136790Y-79076513D02*
X151212980Y-79000323D01*
X151212980Y-79000323D02*
X151289171Y-78962228D01*
X151289171Y-78962228D02*
X151441552Y-78924132D01*
X151441552Y-78924132D02*
X151555838Y-78924132D01*
X151555838Y-78924132D02*
X151708219Y-78962228D01*
X151708219Y-78962228D02*
X151784409Y-79000323D01*
X151784409Y-79000323D02*
X151860600Y-79076513D01*
X151860600Y-79076513D02*
X151898695Y-79190799D01*
X151898695Y-79190799D02*
X151898695Y-79381275D01*
X151441552Y-78466990D02*
X151403457Y-78543180D01*
X151403457Y-78543180D02*
X151365361Y-78581275D01*
X151365361Y-78581275D02*
X151289171Y-78619371D01*
X151289171Y-78619371D02*
X151251076Y-78619371D01*
X151251076Y-78619371D02*
X151174885Y-78581275D01*
X151174885Y-78581275D02*
X151136790Y-78543180D01*
X151136790Y-78543180D02*
X151098695Y-78466990D01*
X151098695Y-78466990D02*
X151098695Y-78314609D01*
X151098695Y-78314609D02*
X151136790Y-78238418D01*
X151136790Y-78238418D02*
X151174885Y-78200323D01*
X151174885Y-78200323D02*
X151251076Y-78162228D01*
X151251076Y-78162228D02*
X151289171Y-78162228D01*
X151289171Y-78162228D02*
X151365361Y-78200323D01*
X151365361Y-78200323D02*
X151403457Y-78238418D01*
X151403457Y-78238418D02*
X151441552Y-78314609D01*
X151441552Y-78314609D02*
X151441552Y-78466990D01*
X151441552Y-78466990D02*
X151479647Y-78543180D01*
X151479647Y-78543180D02*
X151517742Y-78581275D01*
X151517742Y-78581275D02*
X151593933Y-78619371D01*
X151593933Y-78619371D02*
X151746314Y-78619371D01*
X151746314Y-78619371D02*
X151822504Y-78581275D01*
X151822504Y-78581275D02*
X151860600Y-78543180D01*
X151860600Y-78543180D02*
X151898695Y-78466990D01*
X151898695Y-78466990D02*
X151898695Y-78314609D01*
X151898695Y-78314609D02*
X151860600Y-78238418D01*
X151860600Y-78238418D02*
X151822504Y-78200323D01*
X151822504Y-78200323D02*
X151746314Y-78162228D01*
X151746314Y-78162228D02*
X151593933Y-78162228D01*
X151593933Y-78162228D02*
X151517742Y-78200323D01*
X151517742Y-78200323D02*
X151479647Y-78238418D01*
X151479647Y-78238418D02*
X151441552Y-78314609D01*
X149890476Y-66662295D02*
X149890476Y-67309914D01*
X149890476Y-67309914D02*
X149928571Y-67386104D01*
X149928571Y-67386104D02*
X149966666Y-67424200D01*
X149966666Y-67424200D02*
X150042857Y-67462295D01*
X150042857Y-67462295D02*
X150195238Y-67462295D01*
X150195238Y-67462295D02*
X150271428Y-67424200D01*
X150271428Y-67424200D02*
X150309523Y-67386104D01*
X150309523Y-67386104D02*
X150347619Y-67309914D01*
X150347619Y-67309914D02*
X150347619Y-66662295D01*
X151147618Y-67462295D02*
X150690475Y-67462295D01*
X150919047Y-67462295D02*
X150919047Y-66662295D01*
X150919047Y-66662295D02*
X150842856Y-66776580D01*
X150842856Y-66776580D02*
X150766666Y-66852771D01*
X150766666Y-66852771D02*
X150690475Y-66890866D01*
X119480952Y-73812295D02*
X119214285Y-73431342D01*
X119023809Y-73812295D02*
X119023809Y-73012295D01*
X119023809Y-73012295D02*
X119328571Y-73012295D01*
X119328571Y-73012295D02*
X119404761Y-73050390D01*
X119404761Y-73050390D02*
X119442856Y-73088485D01*
X119442856Y-73088485D02*
X119480952Y-73164676D01*
X119480952Y-73164676D02*
X119480952Y-73278961D01*
X119480952Y-73278961D02*
X119442856Y-73355152D01*
X119442856Y-73355152D02*
X119404761Y-73393247D01*
X119404761Y-73393247D02*
X119328571Y-73431342D01*
X119328571Y-73431342D02*
X119023809Y-73431342D01*
X119823809Y-73393247D02*
X120090475Y-73393247D01*
X120204761Y-73812295D02*
X119823809Y-73812295D01*
X119823809Y-73812295D02*
X119823809Y-73012295D01*
X119823809Y-73012295D02*
X120204761Y-73012295D01*
X120928571Y-73812295D02*
X120547619Y-73812295D01*
X120547619Y-73812295D02*
X120547619Y-73012295D01*
X121538095Y-73012295D02*
X121385714Y-73012295D01*
X121385714Y-73012295D02*
X121309523Y-73050390D01*
X121309523Y-73050390D02*
X121271428Y-73088485D01*
X121271428Y-73088485D02*
X121195238Y-73202771D01*
X121195238Y-73202771D02*
X121157142Y-73355152D01*
X121157142Y-73355152D02*
X121157142Y-73659914D01*
X121157142Y-73659914D02*
X121195238Y-73736104D01*
X121195238Y-73736104D02*
X121233333Y-73774200D01*
X121233333Y-73774200D02*
X121309523Y-73812295D01*
X121309523Y-73812295D02*
X121461904Y-73812295D01*
X121461904Y-73812295D02*
X121538095Y-73774200D01*
X121538095Y-73774200D02*
X121576190Y-73736104D01*
X121576190Y-73736104D02*
X121614285Y-73659914D01*
X121614285Y-73659914D02*
X121614285Y-73469438D01*
X121614285Y-73469438D02*
X121576190Y-73393247D01*
X121576190Y-73393247D02*
X121538095Y-73355152D01*
X121538095Y-73355152D02*
X121461904Y-73317057D01*
X121461904Y-73317057D02*
X121309523Y-73317057D01*
X121309523Y-73317057D02*
X121233333Y-73355152D01*
X121233333Y-73355152D02*
X121195238Y-73393247D01*
X121195238Y-73393247D02*
X121157142Y-73469438D01*
X118269333Y-86820695D02*
X118269333Y-87392123D01*
X118269333Y-87392123D02*
X118231238Y-87506409D01*
X118231238Y-87506409D02*
X118155047Y-87582600D01*
X118155047Y-87582600D02*
X118040762Y-87620695D01*
X118040762Y-87620695D02*
X117964571Y-87620695D01*
X118993143Y-87087361D02*
X118993143Y-87620695D01*
X118802667Y-86782600D02*
X118612190Y-87354028D01*
X118612190Y-87354028D02*
X119107429Y-87354028D01*
X171412295Y-76383332D02*
X171031342Y-76649999D01*
X171412295Y-76840475D02*
X170612295Y-76840475D01*
X170612295Y-76840475D02*
X170612295Y-76535713D01*
X170612295Y-76535713D02*
X170650390Y-76459523D01*
X170650390Y-76459523D02*
X170688485Y-76421428D01*
X170688485Y-76421428D02*
X170764676Y-76383332D01*
X170764676Y-76383332D02*
X170878961Y-76383332D01*
X170878961Y-76383332D02*
X170955152Y-76421428D01*
X170955152Y-76421428D02*
X170993247Y-76459523D01*
X170993247Y-76459523D02*
X171031342Y-76535713D01*
X171031342Y-76535713D02*
X171031342Y-76840475D01*
X170612295Y-76116666D02*
X170612295Y-75621428D01*
X170612295Y-75621428D02*
X170917057Y-75888094D01*
X170917057Y-75888094D02*
X170917057Y-75773809D01*
X170917057Y-75773809D02*
X170955152Y-75697618D01*
X170955152Y-75697618D02*
X170993247Y-75659523D01*
X170993247Y-75659523D02*
X171069438Y-75621428D01*
X171069438Y-75621428D02*
X171259914Y-75621428D01*
X171259914Y-75621428D02*
X171336104Y-75659523D01*
X171336104Y-75659523D02*
X171374200Y-75697618D01*
X171374200Y-75697618D02*
X171412295Y-75773809D01*
X171412295Y-75773809D02*
X171412295Y-76002380D01*
X171412295Y-76002380D02*
X171374200Y-76078571D01*
X171374200Y-76078571D02*
X171336104Y-76116666D01*
X179280952Y-71962295D02*
X179014285Y-71581342D01*
X178823809Y-71962295D02*
X178823809Y-71162295D01*
X178823809Y-71162295D02*
X179128571Y-71162295D01*
X179128571Y-71162295D02*
X179204761Y-71200390D01*
X179204761Y-71200390D02*
X179242856Y-71238485D01*
X179242856Y-71238485D02*
X179280952Y-71314676D01*
X179280952Y-71314676D02*
X179280952Y-71428961D01*
X179280952Y-71428961D02*
X179242856Y-71505152D01*
X179242856Y-71505152D02*
X179204761Y-71543247D01*
X179204761Y-71543247D02*
X179128571Y-71581342D01*
X179128571Y-71581342D02*
X178823809Y-71581342D01*
X179623809Y-71543247D02*
X179890475Y-71543247D01*
X180004761Y-71962295D02*
X179623809Y-71962295D01*
X179623809Y-71962295D02*
X179623809Y-71162295D01*
X179623809Y-71162295D02*
X180004761Y-71162295D01*
X180728571Y-71962295D02*
X180347619Y-71962295D01*
X180347619Y-71962295D02*
X180347619Y-71162295D01*
X181414285Y-71962295D02*
X180957142Y-71962295D01*
X181185714Y-71962295D02*
X181185714Y-71162295D01*
X181185714Y-71162295D02*
X181109523Y-71276580D01*
X181109523Y-71276580D02*
X181033333Y-71352771D01*
X181033333Y-71352771D02*
X180957142Y-71390866D01*
X119330952Y-85062295D02*
X119064285Y-84681342D01*
X118873809Y-85062295D02*
X118873809Y-84262295D01*
X118873809Y-84262295D02*
X119178571Y-84262295D01*
X119178571Y-84262295D02*
X119254761Y-84300390D01*
X119254761Y-84300390D02*
X119292856Y-84338485D01*
X119292856Y-84338485D02*
X119330952Y-84414676D01*
X119330952Y-84414676D02*
X119330952Y-84528961D01*
X119330952Y-84528961D02*
X119292856Y-84605152D01*
X119292856Y-84605152D02*
X119254761Y-84643247D01*
X119254761Y-84643247D02*
X119178571Y-84681342D01*
X119178571Y-84681342D02*
X118873809Y-84681342D01*
X119673809Y-84643247D02*
X119940475Y-84643247D01*
X120054761Y-85062295D02*
X119673809Y-85062295D01*
X119673809Y-85062295D02*
X119673809Y-84262295D01*
X119673809Y-84262295D02*
X120054761Y-84262295D01*
X120778571Y-85062295D02*
X120397619Y-85062295D01*
X120397619Y-85062295D02*
X120397619Y-84262295D01*
X121388095Y-84528961D02*
X121388095Y-85062295D01*
X121197619Y-84224200D02*
X121007142Y-84795628D01*
X121007142Y-84795628D02*
X121502381Y-84795628D01*
X181254733Y-56864695D02*
X181254733Y-57436123D01*
X181254733Y-57436123D02*
X181216638Y-57550409D01*
X181216638Y-57550409D02*
X181140447Y-57626600D01*
X181140447Y-57626600D02*
X181026162Y-57664695D01*
X181026162Y-57664695D02*
X180949971Y-57664695D01*
X182054733Y-57664695D02*
X181597590Y-57664695D01*
X181826162Y-57664695D02*
X181826162Y-56864695D01*
X181826162Y-56864695D02*
X181749971Y-56978980D01*
X181749971Y-56978980D02*
X181673781Y-57055171D01*
X181673781Y-57055171D02*
X181597590Y-57093266D01*
X135098467Y-69040704D02*
X135060371Y-69078800D01*
X135060371Y-69078800D02*
X134946086Y-69116895D01*
X134946086Y-69116895D02*
X134869895Y-69116895D01*
X134869895Y-69116895D02*
X134755609Y-69078800D01*
X134755609Y-69078800D02*
X134679419Y-69002609D01*
X134679419Y-69002609D02*
X134641324Y-68926419D01*
X134641324Y-68926419D02*
X134603228Y-68774038D01*
X134603228Y-68774038D02*
X134603228Y-68659752D01*
X134603228Y-68659752D02*
X134641324Y-68507371D01*
X134641324Y-68507371D02*
X134679419Y-68431180D01*
X134679419Y-68431180D02*
X134755609Y-68354990D01*
X134755609Y-68354990D02*
X134869895Y-68316895D01*
X134869895Y-68316895D02*
X134946086Y-68316895D01*
X134946086Y-68316895D02*
X135060371Y-68354990D01*
X135060371Y-68354990D02*
X135098467Y-68393085D01*
X135860371Y-69116895D02*
X135403228Y-69116895D01*
X135631800Y-69116895D02*
X135631800Y-68316895D01*
X135631800Y-68316895D02*
X135555609Y-68431180D01*
X135555609Y-68431180D02*
X135479419Y-68507371D01*
X135479419Y-68507371D02*
X135403228Y-68545466D01*
X180704733Y-86363095D02*
X180704733Y-86934523D01*
X180704733Y-86934523D02*
X180666638Y-87048809D01*
X180666638Y-87048809D02*
X180590447Y-87125000D01*
X180590447Y-87125000D02*
X180476162Y-87163095D01*
X180476162Y-87163095D02*
X180399971Y-87163095D01*
X181047590Y-86439285D02*
X181085686Y-86401190D01*
X181085686Y-86401190D02*
X181161876Y-86363095D01*
X181161876Y-86363095D02*
X181352352Y-86363095D01*
X181352352Y-86363095D02*
X181428543Y-86401190D01*
X181428543Y-86401190D02*
X181466638Y-86439285D01*
X181466638Y-86439285D02*
X181504733Y-86515476D01*
X181504733Y-86515476D02*
X181504733Y-86591666D01*
X181504733Y-86591666D02*
X181466638Y-86705952D01*
X181466638Y-86705952D02*
X181009495Y-87163095D01*
X181009495Y-87163095D02*
X181504733Y-87163095D01*
X118169333Y-56970695D02*
X118169333Y-57542123D01*
X118169333Y-57542123D02*
X118131238Y-57656409D01*
X118131238Y-57656409D02*
X118055047Y-57732600D01*
X118055047Y-57732600D02*
X117940762Y-57770695D01*
X117940762Y-57770695D02*
X117864571Y-57770695D01*
X118474095Y-56970695D02*
X118969333Y-56970695D01*
X118969333Y-56970695D02*
X118702667Y-57275457D01*
X118702667Y-57275457D02*
X118816952Y-57275457D01*
X118816952Y-57275457D02*
X118893143Y-57313552D01*
X118893143Y-57313552D02*
X118931238Y-57351647D01*
X118931238Y-57351647D02*
X118969333Y-57427838D01*
X118969333Y-57427838D02*
X118969333Y-57618314D01*
X118969333Y-57618314D02*
X118931238Y-57694504D01*
X118931238Y-57694504D02*
X118893143Y-57732600D01*
X118893143Y-57732600D02*
X118816952Y-57770695D01*
X118816952Y-57770695D02*
X118588381Y-57770695D01*
X118588381Y-57770695D02*
X118512190Y-57732600D01*
X118512190Y-57732600D02*
X118474095Y-57694504D01*
X139062733Y-58733095D02*
X139062733Y-59304523D01*
X139062733Y-59304523D02*
X139024638Y-59418809D01*
X139024638Y-59418809D02*
X138948447Y-59495000D01*
X138948447Y-59495000D02*
X138834162Y-59533095D01*
X138834162Y-59533095D02*
X138757971Y-59533095D01*
X139824638Y-58733095D02*
X139443686Y-58733095D01*
X139443686Y-58733095D02*
X139405590Y-59114047D01*
X139405590Y-59114047D02*
X139443686Y-59075952D01*
X139443686Y-59075952D02*
X139519876Y-59037857D01*
X139519876Y-59037857D02*
X139710352Y-59037857D01*
X139710352Y-59037857D02*
X139786543Y-59075952D01*
X139786543Y-59075952D02*
X139824638Y-59114047D01*
X139824638Y-59114047D02*
X139862733Y-59190238D01*
X139862733Y-59190238D02*
X139862733Y-59380714D01*
X139862733Y-59380714D02*
X139824638Y-59456904D01*
X139824638Y-59456904D02*
X139786543Y-59495000D01*
X139786543Y-59495000D02*
X139710352Y-59533095D01*
X139710352Y-59533095D02*
X139519876Y-59533095D01*
X139519876Y-59533095D02*
X139443686Y-59495000D01*
X139443686Y-59495000D02*
X139405590Y-59456904D01*
X118716667Y-65962295D02*
X118450000Y-65581342D01*
X118259524Y-65962295D02*
X118259524Y-65162295D01*
X118259524Y-65162295D02*
X118564286Y-65162295D01*
X118564286Y-65162295D02*
X118640476Y-65200390D01*
X118640476Y-65200390D02*
X118678571Y-65238485D01*
X118678571Y-65238485D02*
X118716667Y-65314676D01*
X118716667Y-65314676D02*
X118716667Y-65428961D01*
X118716667Y-65428961D02*
X118678571Y-65505152D01*
X118678571Y-65505152D02*
X118640476Y-65543247D01*
X118640476Y-65543247D02*
X118564286Y-65581342D01*
X118564286Y-65581342D02*
X118259524Y-65581342D01*
X119478571Y-65962295D02*
X119021428Y-65962295D01*
X119250000Y-65962295D02*
X119250000Y-65162295D01*
X119250000Y-65162295D02*
X119173809Y-65276580D01*
X119173809Y-65276580D02*
X119097619Y-65352771D01*
X119097619Y-65352771D02*
X119021428Y-65390866D01*
X171462295Y-85140475D02*
X170662295Y-85140475D01*
X170662295Y-85140475D02*
X170662295Y-84949999D01*
X170662295Y-84949999D02*
X170700390Y-84835713D01*
X170700390Y-84835713D02*
X170776580Y-84759523D01*
X170776580Y-84759523D02*
X170852771Y-84721428D01*
X170852771Y-84721428D02*
X171005152Y-84683332D01*
X171005152Y-84683332D02*
X171119438Y-84683332D01*
X171119438Y-84683332D02*
X171271819Y-84721428D01*
X171271819Y-84721428D02*
X171348009Y-84759523D01*
X171348009Y-84759523D02*
X171424200Y-84835713D01*
X171424200Y-84835713D02*
X171462295Y-84949999D01*
X171462295Y-84949999D02*
X171462295Y-85140475D01*
X170928961Y-83997618D02*
X171462295Y-83997618D01*
X170624200Y-84188094D02*
X171195628Y-84378571D01*
X171195628Y-84378571D02*
X171195628Y-83883332D01*
X178980952Y-60262295D02*
X178714285Y-59881342D01*
X178523809Y-60262295D02*
X178523809Y-59462295D01*
X178523809Y-59462295D02*
X178828571Y-59462295D01*
X178828571Y-59462295D02*
X178904761Y-59500390D01*
X178904761Y-59500390D02*
X178942856Y-59538485D01*
X178942856Y-59538485D02*
X178980952Y-59614676D01*
X178980952Y-59614676D02*
X178980952Y-59728961D01*
X178980952Y-59728961D02*
X178942856Y-59805152D01*
X178942856Y-59805152D02*
X178904761Y-59843247D01*
X178904761Y-59843247D02*
X178828571Y-59881342D01*
X178828571Y-59881342D02*
X178523809Y-59881342D01*
X179323809Y-59843247D02*
X179590475Y-59843247D01*
X179704761Y-60262295D02*
X179323809Y-60262295D01*
X179323809Y-60262295D02*
X179323809Y-59462295D01*
X179323809Y-59462295D02*
X179704761Y-59462295D01*
X180428571Y-60262295D02*
X180047619Y-60262295D01*
X180047619Y-60262295D02*
X180047619Y-59462295D01*
X180619047Y-59462295D02*
X181114285Y-59462295D01*
X181114285Y-59462295D02*
X180847619Y-59767057D01*
X180847619Y-59767057D02*
X180961904Y-59767057D01*
X180961904Y-59767057D02*
X181038095Y-59805152D01*
X181038095Y-59805152D02*
X181076190Y-59843247D01*
X181076190Y-59843247D02*
X181114285Y-59919438D01*
X181114285Y-59919438D02*
X181114285Y-60109914D01*
X181114285Y-60109914D02*
X181076190Y-60186104D01*
X181076190Y-60186104D02*
X181038095Y-60224200D01*
X181038095Y-60224200D02*
X180961904Y-60262295D01*
X180961904Y-60262295D02*
X180733333Y-60262295D01*
X180733333Y-60262295D02*
X180657142Y-60224200D01*
X180657142Y-60224200D02*
X180619047Y-60186104D01*
X131946724Y-58452095D02*
X131946724Y-57652095D01*
X131946724Y-57652095D02*
X132137200Y-57652095D01*
X132137200Y-57652095D02*
X132251486Y-57690190D01*
X132251486Y-57690190D02*
X132327676Y-57766380D01*
X132327676Y-57766380D02*
X132365771Y-57842571D01*
X132365771Y-57842571D02*
X132403867Y-57994952D01*
X132403867Y-57994952D02*
X132403867Y-58109238D01*
X132403867Y-58109238D02*
X132365771Y-58261619D01*
X132365771Y-58261619D02*
X132327676Y-58337809D01*
X132327676Y-58337809D02*
X132251486Y-58414000D01*
X132251486Y-58414000D02*
X132137200Y-58452095D01*
X132137200Y-58452095D02*
X131946724Y-58452095D01*
X133165771Y-58452095D02*
X132708628Y-58452095D01*
X132937200Y-58452095D02*
X132937200Y-57652095D01*
X132937200Y-57652095D02*
X132861009Y-57766380D01*
X132861009Y-57766380D02*
X132784819Y-57842571D01*
X132784819Y-57842571D02*
X132708628Y-57880666D01*
X172912295Y-76383332D02*
X172531342Y-76649999D01*
X172912295Y-76840475D02*
X172112295Y-76840475D01*
X172112295Y-76840475D02*
X172112295Y-76535713D01*
X172112295Y-76535713D02*
X172150390Y-76459523D01*
X172150390Y-76459523D02*
X172188485Y-76421428D01*
X172188485Y-76421428D02*
X172264676Y-76383332D01*
X172264676Y-76383332D02*
X172378961Y-76383332D01*
X172378961Y-76383332D02*
X172455152Y-76421428D01*
X172455152Y-76421428D02*
X172493247Y-76459523D01*
X172493247Y-76459523D02*
X172531342Y-76535713D01*
X172531342Y-76535713D02*
X172531342Y-76840475D01*
X172378961Y-75697618D02*
X172912295Y-75697618D01*
X172074200Y-75888094D02*
X172645628Y-76078571D01*
X172645628Y-76078571D02*
X172645628Y-75583332D01*
X145574095Y-79406675D02*
X144774095Y-79406675D01*
X144774095Y-79406675D02*
X144774095Y-79216199D01*
X144774095Y-79216199D02*
X144812190Y-79101913D01*
X144812190Y-79101913D02*
X144888380Y-79025723D01*
X144888380Y-79025723D02*
X144964571Y-78987628D01*
X144964571Y-78987628D02*
X145116952Y-78949532D01*
X145116952Y-78949532D02*
X145231238Y-78949532D01*
X145231238Y-78949532D02*
X145383619Y-78987628D01*
X145383619Y-78987628D02*
X145459809Y-79025723D01*
X145459809Y-79025723D02*
X145536000Y-79101913D01*
X145536000Y-79101913D02*
X145574095Y-79216199D01*
X145574095Y-79216199D02*
X145574095Y-79406675D01*
X144774095Y-78263818D02*
X144774095Y-78416199D01*
X144774095Y-78416199D02*
X144812190Y-78492390D01*
X144812190Y-78492390D02*
X144850285Y-78530485D01*
X144850285Y-78530485D02*
X144964571Y-78606675D01*
X144964571Y-78606675D02*
X145116952Y-78644771D01*
X145116952Y-78644771D02*
X145421714Y-78644771D01*
X145421714Y-78644771D02*
X145497904Y-78606675D01*
X145497904Y-78606675D02*
X145536000Y-78568580D01*
X145536000Y-78568580D02*
X145574095Y-78492390D01*
X145574095Y-78492390D02*
X145574095Y-78340009D01*
X145574095Y-78340009D02*
X145536000Y-78263818D01*
X145536000Y-78263818D02*
X145497904Y-78225723D01*
X145497904Y-78225723D02*
X145421714Y-78187628D01*
X145421714Y-78187628D02*
X145231238Y-78187628D01*
X145231238Y-78187628D02*
X145155047Y-78225723D01*
X145155047Y-78225723D02*
X145116952Y-78263818D01*
X145116952Y-78263818D02*
X145078857Y-78340009D01*
X145078857Y-78340009D02*
X145078857Y-78492390D01*
X145078857Y-78492390D02*
X145116952Y-78568580D01*
X145116952Y-78568580D02*
X145155047Y-78606675D01*
X145155047Y-78606675D02*
X145231238Y-78644771D01*
X150195295Y-78901632D02*
X149814342Y-79168299D01*
X150195295Y-79358775D02*
X149395295Y-79358775D01*
X149395295Y-79358775D02*
X149395295Y-79054013D01*
X149395295Y-79054013D02*
X149433390Y-78977823D01*
X149433390Y-78977823D02*
X149471485Y-78939728D01*
X149471485Y-78939728D02*
X149547676Y-78901632D01*
X149547676Y-78901632D02*
X149661961Y-78901632D01*
X149661961Y-78901632D02*
X149738152Y-78939728D01*
X149738152Y-78939728D02*
X149776247Y-78977823D01*
X149776247Y-78977823D02*
X149814342Y-79054013D01*
X149814342Y-79054013D02*
X149814342Y-79358775D01*
X149395295Y-78634966D02*
X149395295Y-78101632D01*
X149395295Y-78101632D02*
X150195295Y-78444490D01*
X173162295Y-85090475D02*
X172362295Y-85090475D01*
X172362295Y-85090475D02*
X172362295Y-84899999D01*
X172362295Y-84899999D02*
X172400390Y-84785713D01*
X172400390Y-84785713D02*
X172476580Y-84709523D01*
X172476580Y-84709523D02*
X172552771Y-84671428D01*
X172552771Y-84671428D02*
X172705152Y-84633332D01*
X172705152Y-84633332D02*
X172819438Y-84633332D01*
X172819438Y-84633332D02*
X172971819Y-84671428D01*
X172971819Y-84671428D02*
X173048009Y-84709523D01*
X173048009Y-84709523D02*
X173124200Y-84785713D01*
X173124200Y-84785713D02*
X173162295Y-84899999D01*
X173162295Y-84899999D02*
X173162295Y-85090475D01*
X172362295Y-83909523D02*
X172362295Y-84290475D01*
X172362295Y-84290475D02*
X172743247Y-84328571D01*
X172743247Y-84328571D02*
X172705152Y-84290475D01*
X172705152Y-84290475D02*
X172667057Y-84214285D01*
X172667057Y-84214285D02*
X172667057Y-84023809D01*
X172667057Y-84023809D02*
X172705152Y-83947618D01*
X172705152Y-83947618D02*
X172743247Y-83909523D01*
X172743247Y-83909523D02*
X172819438Y-83871428D01*
X172819438Y-83871428D02*
X173009914Y-83871428D01*
X173009914Y-83871428D02*
X173086104Y-83909523D01*
X173086104Y-83909523D02*
X173124200Y-83947618D01*
X173124200Y-83947618D02*
X173162295Y-84023809D01*
X173162295Y-84023809D02*
X173162295Y-84214285D01*
X173162295Y-84214285D02*
X173124200Y-84290475D01*
X173124200Y-84290475D02*
X173086104Y-84328571D01*
X179164286Y-65762295D02*
X178897619Y-65381342D01*
X178707143Y-65762295D02*
X178707143Y-64962295D01*
X178707143Y-64962295D02*
X179011905Y-64962295D01*
X179011905Y-64962295D02*
X179088095Y-65000390D01*
X179088095Y-65000390D02*
X179126190Y-65038485D01*
X179126190Y-65038485D02*
X179164286Y-65114676D01*
X179164286Y-65114676D02*
X179164286Y-65228961D01*
X179164286Y-65228961D02*
X179126190Y-65305152D01*
X179126190Y-65305152D02*
X179088095Y-65343247D01*
X179088095Y-65343247D02*
X179011905Y-65381342D01*
X179011905Y-65381342D02*
X178707143Y-65381342D01*
X179811905Y-65724200D02*
X179735714Y-65762295D01*
X179735714Y-65762295D02*
X179583333Y-65762295D01*
X179583333Y-65762295D02*
X179507143Y-65724200D01*
X179507143Y-65724200D02*
X179469047Y-65648009D01*
X179469047Y-65648009D02*
X179469047Y-65343247D01*
X179469047Y-65343247D02*
X179507143Y-65267057D01*
X179507143Y-65267057D02*
X179583333Y-65228961D01*
X179583333Y-65228961D02*
X179735714Y-65228961D01*
X179735714Y-65228961D02*
X179811905Y-65267057D01*
X179811905Y-65267057D02*
X179850000Y-65343247D01*
X179850000Y-65343247D02*
X179850000Y-65419438D01*
X179850000Y-65419438D02*
X179469047Y-65495628D01*
X180307142Y-65762295D02*
X180230952Y-65724200D01*
X180230952Y-65724200D02*
X180192857Y-65648009D01*
X180192857Y-65648009D02*
X180192857Y-64962295D01*
X180573809Y-65038485D02*
X180611905Y-65000390D01*
X180611905Y-65000390D02*
X180688095Y-64962295D01*
X180688095Y-64962295D02*
X180878571Y-64962295D01*
X180878571Y-64962295D02*
X180954762Y-65000390D01*
X180954762Y-65000390D02*
X180992857Y-65038485D01*
X180992857Y-65038485D02*
X181030952Y-65114676D01*
X181030952Y-65114676D02*
X181030952Y-65190866D01*
X181030952Y-65190866D02*
X180992857Y-65305152D01*
X180992857Y-65305152D02*
X180535714Y-65762295D01*
X180535714Y-65762295D02*
X181030952Y-65762295D01*
X161333333Y-76962295D02*
X161333333Y-77533723D01*
X161333333Y-77533723D02*
X161295238Y-77648009D01*
X161295238Y-77648009D02*
X161219047Y-77724200D01*
X161219047Y-77724200D02*
X161104762Y-77762295D01*
X161104762Y-77762295D02*
X161028571Y-77762295D01*
X162057143Y-76962295D02*
X161904762Y-76962295D01*
X161904762Y-76962295D02*
X161828571Y-77000390D01*
X161828571Y-77000390D02*
X161790476Y-77038485D01*
X161790476Y-77038485D02*
X161714286Y-77152771D01*
X161714286Y-77152771D02*
X161676190Y-77305152D01*
X161676190Y-77305152D02*
X161676190Y-77609914D01*
X161676190Y-77609914D02*
X161714286Y-77686104D01*
X161714286Y-77686104D02*
X161752381Y-77724200D01*
X161752381Y-77724200D02*
X161828571Y-77762295D01*
X161828571Y-77762295D02*
X161980952Y-77762295D01*
X161980952Y-77762295D02*
X162057143Y-77724200D01*
X162057143Y-77724200D02*
X162095238Y-77686104D01*
X162095238Y-77686104D02*
X162133333Y-77609914D01*
X162133333Y-77609914D02*
X162133333Y-77419438D01*
X162133333Y-77419438D02*
X162095238Y-77343247D01*
X162095238Y-77343247D02*
X162057143Y-77305152D01*
X162057143Y-77305152D02*
X161980952Y-77267057D01*
X161980952Y-77267057D02*
X161828571Y-77267057D01*
X161828571Y-77267057D02*
X161752381Y-77305152D01*
X161752381Y-77305152D02*
X161714286Y-77343247D01*
X161714286Y-77343247D02*
X161676190Y-77419438D01*
X119280952Y-78912295D02*
X119014285Y-78531342D01*
X118823809Y-78912295D02*
X118823809Y-78112295D01*
X118823809Y-78112295D02*
X119128571Y-78112295D01*
X119128571Y-78112295D02*
X119204761Y-78150390D01*
X119204761Y-78150390D02*
X119242856Y-78188485D01*
X119242856Y-78188485D02*
X119280952Y-78264676D01*
X119280952Y-78264676D02*
X119280952Y-78378961D01*
X119280952Y-78378961D02*
X119242856Y-78455152D01*
X119242856Y-78455152D02*
X119204761Y-78493247D01*
X119204761Y-78493247D02*
X119128571Y-78531342D01*
X119128571Y-78531342D02*
X118823809Y-78531342D01*
X119623809Y-78493247D02*
X119890475Y-78493247D01*
X120004761Y-78912295D02*
X119623809Y-78912295D01*
X119623809Y-78912295D02*
X119623809Y-78112295D01*
X119623809Y-78112295D02*
X120004761Y-78112295D01*
X120728571Y-78912295D02*
X120347619Y-78912295D01*
X120347619Y-78912295D02*
X120347619Y-78112295D01*
X121376190Y-78112295D02*
X120995238Y-78112295D01*
X120995238Y-78112295D02*
X120957142Y-78493247D01*
X120957142Y-78493247D02*
X120995238Y-78455152D01*
X120995238Y-78455152D02*
X121071428Y-78417057D01*
X121071428Y-78417057D02*
X121261904Y-78417057D01*
X121261904Y-78417057D02*
X121338095Y-78455152D01*
X121338095Y-78455152D02*
X121376190Y-78493247D01*
X121376190Y-78493247D02*
X121414285Y-78569438D01*
X121414285Y-78569438D02*
X121414285Y-78759914D01*
X121414285Y-78759914D02*
X121376190Y-78836104D01*
X121376190Y-78836104D02*
X121338095Y-78874200D01*
X121338095Y-78874200D02*
X121261904Y-78912295D01*
X121261904Y-78912295D02*
X121071428Y-78912295D01*
X121071428Y-78912295D02*
X120995238Y-78874200D01*
X120995238Y-78874200D02*
X120957142Y-78836104D01*
X119907067Y-69323304D02*
X119868971Y-69361400D01*
X119868971Y-69361400D02*
X119754686Y-69399495D01*
X119754686Y-69399495D02*
X119678495Y-69399495D01*
X119678495Y-69399495D02*
X119564209Y-69361400D01*
X119564209Y-69361400D02*
X119488019Y-69285209D01*
X119488019Y-69285209D02*
X119449924Y-69209019D01*
X119449924Y-69209019D02*
X119411828Y-69056638D01*
X119411828Y-69056638D02*
X119411828Y-68942352D01*
X119411828Y-68942352D02*
X119449924Y-68789971D01*
X119449924Y-68789971D02*
X119488019Y-68713780D01*
X119488019Y-68713780D02*
X119564209Y-68637590D01*
X119564209Y-68637590D02*
X119678495Y-68599495D01*
X119678495Y-68599495D02*
X119754686Y-68599495D01*
X119754686Y-68599495D02*
X119868971Y-68637590D01*
X119868971Y-68637590D02*
X119907067Y-68675685D01*
X120211828Y-68675685D02*
X120249924Y-68637590D01*
X120249924Y-68637590D02*
X120326114Y-68599495D01*
X120326114Y-68599495D02*
X120516590Y-68599495D01*
X120516590Y-68599495D02*
X120592781Y-68637590D01*
X120592781Y-68637590D02*
X120630876Y-68675685D01*
X120630876Y-68675685D02*
X120668971Y-68751876D01*
X120668971Y-68751876D02*
X120668971Y-68828066D01*
X120668971Y-68828066D02*
X120630876Y-68942352D01*
X120630876Y-68942352D02*
X120173733Y-69399495D01*
X120173733Y-69399495D02*
X120668971Y-69399495D01*
X169962295Y-85140475D02*
X169162295Y-85140475D01*
X169162295Y-85140475D02*
X169162295Y-84949999D01*
X169162295Y-84949999D02*
X169200390Y-84835713D01*
X169200390Y-84835713D02*
X169276580Y-84759523D01*
X169276580Y-84759523D02*
X169352771Y-84721428D01*
X169352771Y-84721428D02*
X169505152Y-84683332D01*
X169505152Y-84683332D02*
X169619438Y-84683332D01*
X169619438Y-84683332D02*
X169771819Y-84721428D01*
X169771819Y-84721428D02*
X169848009Y-84759523D01*
X169848009Y-84759523D02*
X169924200Y-84835713D01*
X169924200Y-84835713D02*
X169962295Y-84949999D01*
X169962295Y-84949999D02*
X169962295Y-85140475D01*
X169162295Y-84416666D02*
X169162295Y-83921428D01*
X169162295Y-83921428D02*
X169467057Y-84188094D01*
X169467057Y-84188094D02*
X169467057Y-84073809D01*
X169467057Y-84073809D02*
X169505152Y-83997618D01*
X169505152Y-83997618D02*
X169543247Y-83959523D01*
X169543247Y-83959523D02*
X169619438Y-83921428D01*
X169619438Y-83921428D02*
X169809914Y-83921428D01*
X169809914Y-83921428D02*
X169886104Y-83959523D01*
X169886104Y-83959523D02*
X169924200Y-83997618D01*
X169924200Y-83997618D02*
X169962295Y-84073809D01*
X169962295Y-84073809D02*
X169962295Y-84302380D01*
X169962295Y-84302380D02*
X169924200Y-84378571D01*
X169924200Y-84378571D02*
X169886104Y-84416666D01*
X148622095Y-79330475D02*
X147822095Y-79330475D01*
X147822095Y-79330475D02*
X147822095Y-79139999D01*
X147822095Y-79139999D02*
X147860190Y-79025713D01*
X147860190Y-79025713D02*
X147936380Y-78949523D01*
X147936380Y-78949523D02*
X148012571Y-78911428D01*
X148012571Y-78911428D02*
X148164952Y-78873332D01*
X148164952Y-78873332D02*
X148279238Y-78873332D01*
X148279238Y-78873332D02*
X148431619Y-78911428D01*
X148431619Y-78911428D02*
X148507809Y-78949523D01*
X148507809Y-78949523D02*
X148584000Y-79025713D01*
X148584000Y-79025713D02*
X148622095Y-79139999D01*
X148622095Y-79139999D02*
X148622095Y-79330475D01*
X147822095Y-78606666D02*
X147822095Y-78073332D01*
X147822095Y-78073332D02*
X148622095Y-78416190D01*
X169812295Y-76383332D02*
X169431342Y-76649999D01*
X169812295Y-76840475D02*
X169012295Y-76840475D01*
X169012295Y-76840475D02*
X169012295Y-76535713D01*
X169012295Y-76535713D02*
X169050390Y-76459523D01*
X169050390Y-76459523D02*
X169088485Y-76421428D01*
X169088485Y-76421428D02*
X169164676Y-76383332D01*
X169164676Y-76383332D02*
X169278961Y-76383332D01*
X169278961Y-76383332D02*
X169355152Y-76421428D01*
X169355152Y-76421428D02*
X169393247Y-76459523D01*
X169393247Y-76459523D02*
X169431342Y-76535713D01*
X169431342Y-76535713D02*
X169431342Y-76840475D01*
X169088485Y-76078571D02*
X169050390Y-76040475D01*
X169050390Y-76040475D02*
X169012295Y-75964285D01*
X169012295Y-75964285D02*
X169012295Y-75773809D01*
X169012295Y-75773809D02*
X169050390Y-75697618D01*
X169050390Y-75697618D02*
X169088485Y-75659523D01*
X169088485Y-75659523D02*
X169164676Y-75621428D01*
X169164676Y-75621428D02*
X169240866Y-75621428D01*
X169240866Y-75621428D02*
X169355152Y-75659523D01*
X169355152Y-75659523D02*
X169812295Y-76116666D01*
X169812295Y-76116666D02*
X169812295Y-75621428D01*
X144130095Y-79014132D02*
X143749142Y-79280799D01*
X144130095Y-79471275D02*
X143330095Y-79471275D01*
X143330095Y-79471275D02*
X143330095Y-79166513D01*
X143330095Y-79166513D02*
X143368190Y-79090323D01*
X143368190Y-79090323D02*
X143406285Y-79052228D01*
X143406285Y-79052228D02*
X143482476Y-79014132D01*
X143482476Y-79014132D02*
X143596761Y-79014132D01*
X143596761Y-79014132D02*
X143672952Y-79052228D01*
X143672952Y-79052228D02*
X143711047Y-79090323D01*
X143711047Y-79090323D02*
X143749142Y-79166513D01*
X143749142Y-79166513D02*
X143749142Y-79471275D01*
X143330095Y-78290323D02*
X143330095Y-78671275D01*
X143330095Y-78671275D02*
X143711047Y-78709371D01*
X143711047Y-78709371D02*
X143672952Y-78671275D01*
X143672952Y-78671275D02*
X143634857Y-78595085D01*
X143634857Y-78595085D02*
X143634857Y-78404609D01*
X143634857Y-78404609D02*
X143672952Y-78328418D01*
X143672952Y-78328418D02*
X143711047Y-78290323D01*
X143711047Y-78290323D02*
X143787238Y-78252228D01*
X143787238Y-78252228D02*
X143977714Y-78252228D01*
X143977714Y-78252228D02*
X144053904Y-78290323D01*
X144053904Y-78290323D02*
X144092000Y-78328418D01*
X144092000Y-78328418D02*
X144130095Y-78404609D01*
X144130095Y-78404609D02*
X144130095Y-78595085D01*
X144130095Y-78595085D02*
X144092000Y-78671275D01*
X144092000Y-78671275D02*
X144053904Y-78709371D01*
X147098095Y-78957882D02*
X146717142Y-79224549D01*
X147098095Y-79415025D02*
X146298095Y-79415025D01*
X146298095Y-79415025D02*
X146298095Y-79110263D01*
X146298095Y-79110263D02*
X146336190Y-79034073D01*
X146336190Y-79034073D02*
X146374285Y-78995978D01*
X146374285Y-78995978D02*
X146450476Y-78957882D01*
X146450476Y-78957882D02*
X146564761Y-78957882D01*
X146564761Y-78957882D02*
X146640952Y-78995978D01*
X146640952Y-78995978D02*
X146679047Y-79034073D01*
X146679047Y-79034073D02*
X146717142Y-79110263D01*
X146717142Y-79110263D02*
X146717142Y-79415025D01*
X146298095Y-78272168D02*
X146298095Y-78424549D01*
X146298095Y-78424549D02*
X146336190Y-78500740D01*
X146336190Y-78500740D02*
X146374285Y-78538835D01*
X146374285Y-78538835D02*
X146488571Y-78615025D01*
X146488571Y-78615025D02*
X146640952Y-78653121D01*
X146640952Y-78653121D02*
X146945714Y-78653121D01*
X146945714Y-78653121D02*
X147021904Y-78615025D01*
X147021904Y-78615025D02*
X147060000Y-78576930D01*
X147060000Y-78576930D02*
X147098095Y-78500740D01*
X147098095Y-78500740D02*
X147098095Y-78348359D01*
X147098095Y-78348359D02*
X147060000Y-78272168D01*
X147060000Y-78272168D02*
X147021904Y-78234073D01*
X147021904Y-78234073D02*
X146945714Y-78195978D01*
X146945714Y-78195978D02*
X146755238Y-78195978D01*
X146755238Y-78195978D02*
X146679047Y-78234073D01*
X146679047Y-78234073D02*
X146640952Y-78272168D01*
X146640952Y-78272168D02*
X146602857Y-78348359D01*
X146602857Y-78348359D02*
X146602857Y-78500740D01*
X146602857Y-78500740D02*
X146640952Y-78576930D01*
X146640952Y-78576930D02*
X146679047Y-78615025D01*
X146679047Y-78615025D02*
X146755238Y-78653121D01*
X118551424Y-61377895D02*
X118551424Y-60577895D01*
X118551424Y-60577895D02*
X118741900Y-60577895D01*
X118741900Y-60577895D02*
X118856186Y-60615990D01*
X118856186Y-60615990D02*
X118932376Y-60692180D01*
X118932376Y-60692180D02*
X118970471Y-60768371D01*
X118970471Y-60768371D02*
X119008567Y-60920752D01*
X119008567Y-60920752D02*
X119008567Y-61035038D01*
X119008567Y-61035038D02*
X118970471Y-61187419D01*
X118970471Y-61187419D02*
X118932376Y-61263609D01*
X118932376Y-61263609D02*
X118856186Y-61339800D01*
X118856186Y-61339800D02*
X118741900Y-61377895D01*
X118741900Y-61377895D02*
X118551424Y-61377895D01*
X119313328Y-60654085D02*
X119351424Y-60615990D01*
X119351424Y-60615990D02*
X119427614Y-60577895D01*
X119427614Y-60577895D02*
X119618090Y-60577895D01*
X119618090Y-60577895D02*
X119694281Y-60615990D01*
X119694281Y-60615990D02*
X119732376Y-60654085D01*
X119732376Y-60654085D02*
X119770471Y-60730276D01*
X119770471Y-60730276D02*
X119770471Y-60806466D01*
X119770471Y-60806466D02*
X119732376Y-60920752D01*
X119732376Y-60920752D02*
X119275233Y-61377895D01*
X119275233Y-61377895D02*
X119770471Y-61377895D01*
D11*
%TO.C,D8*%
X150852200Y-80353000D02*
X150852200Y-82638000D01*
X150852200Y-82638000D02*
X152322200Y-82638000D01*
X152322200Y-82638000D02*
X152322200Y-80353000D01*
%TO.C,U1*%
X144873300Y-69725800D02*
X145153300Y-69725800D01*
X144873300Y-74495800D02*
X144873300Y-69725800D01*
X145153300Y-74495800D02*
X144873300Y-74495800D01*
X155113300Y-69725800D02*
X155393300Y-69725800D01*
X155393300Y-69725800D02*
X155393300Y-74495800D01*
X155393300Y-74495800D02*
X155113300Y-74495800D01*
X155593300Y-69200800D02*
X155123300Y-68860800D01*
X155593300Y-68520800D01*
X155593300Y-69200800D01*
G36*
X155593300Y-69200800D02*
G01*
X155123300Y-68860800D01*
X155593300Y-68520800D01*
X155593300Y-69200800D01*
G37*
D12*
%TO.C,REL6*%
X121996900Y-74371000D02*
X121996900Y-71541000D01*
X124706900Y-76541000D02*
X129406900Y-76541000D01*
X132326900Y-76541000D02*
X137026900Y-76541000D01*
X141996900Y-71541000D02*
X121996900Y-71541000D01*
X141996900Y-74371000D02*
X141996900Y-71541000D01*
D13*
X142896900Y-75841000D02*
G75*
G02*
X142696900Y-75841000I-100000J0D01*
G01*
X142696900Y-75841000D02*
G75*
G02*
X142896900Y-75841000I100000J0D01*
G01*
%TO.C,J4*%
X107120000Y-72420000D02*
X107180000Y-87660000D01*
X107180000Y-87660000D02*
X117280000Y-87660000D01*
D14*
X111980000Y-88220000D02*
X111980000Y-88220000D01*
X111980000Y-88320000D02*
X111980000Y-88320000D01*
D13*
X117280000Y-72420000D02*
X107120000Y-72420000D01*
X117280000Y-87660000D02*
X117280000Y-72420000D01*
D14*
X111980000Y-88220000D02*
G75*
G02*
X111980000Y-88320000I0J-50000D01*
G01*
X111980000Y-88320000D02*
G75*
G02*
X111980000Y-88220000I0J50000D01*
G01*
D11*
%TO.C,R3*%
X170577500Y-78507776D02*
X170577500Y-79017224D01*
X171622500Y-78507776D02*
X171622500Y-79017224D01*
D12*
%TO.C,REL1*%
X158288000Y-71831200D02*
X158288000Y-74661200D01*
X158288000Y-74661200D02*
X178288000Y-74661200D01*
X167958000Y-69661200D02*
X163258000Y-69661200D01*
X175578000Y-69661200D02*
X170878000Y-69661200D01*
X178288000Y-71831200D02*
X178288000Y-74661200D01*
D13*
X157588000Y-70361200D02*
G75*
G02*
X157388000Y-70361200I-100000J0D01*
G01*
X157388000Y-70361200D02*
G75*
G02*
X157588000Y-70361200I100000J0D01*
G01*
D12*
%TO.C,REL4*%
X122016200Y-85775800D02*
X122016200Y-82945800D01*
X124726200Y-87945800D02*
X129426200Y-87945800D01*
X132346200Y-87945800D02*
X137046200Y-87945800D01*
X142016200Y-82945800D02*
X122016200Y-82945800D01*
X142016200Y-85775800D02*
X142016200Y-82945800D01*
D13*
X142916200Y-87245800D02*
G75*
G02*
X142716200Y-87245800I-100000J0D01*
G01*
X142716200Y-87245800D02*
G75*
G02*
X142916200Y-87245800I100000J0D01*
G01*
%TO.C,J1*%
X182634600Y-57302400D02*
X182634600Y-72542400D01*
X182634600Y-72542400D02*
X192794600Y-72542400D01*
D14*
X187934600Y-56642400D02*
X187934600Y-56642400D01*
X187934600Y-56742400D02*
X187934600Y-56742400D01*
D13*
X192734600Y-57302400D02*
X182634600Y-57302400D01*
X192794600Y-72542400D02*
X192734600Y-57302400D01*
D14*
X187934600Y-56642400D02*
G75*
G02*
X187934600Y-56742400I0J-50000D01*
G01*
X187934600Y-56742400D02*
G75*
G02*
X187934600Y-56642400I0J50000D01*
G01*
D11*
%TO.C,C1*%
X134659420Y-69540000D02*
X134940580Y-69540000D01*
X134659420Y-70560000D02*
X134940580Y-70560000D01*
D13*
%TO.C,J2*%
X182634600Y-72491600D02*
X182634600Y-87731600D01*
X182634600Y-87731600D02*
X192794600Y-87731600D01*
D14*
X187934600Y-71831600D02*
X187934600Y-71831600D01*
X187934600Y-71931600D02*
X187934600Y-71931600D01*
D13*
X192734600Y-72491600D02*
X182634600Y-72491600D01*
X192794600Y-87731600D02*
X192734600Y-72491600D01*
D14*
X187934600Y-71831600D02*
G75*
G02*
X187934600Y-71931600I0J-50000D01*
G01*
X187934600Y-71931600D02*
G75*
G02*
X187934600Y-71831600I0J50000D01*
G01*
D13*
%TO.C,J3*%
X107103200Y-57200800D02*
X107163200Y-72440800D01*
X107163200Y-72440800D02*
X117263200Y-72440800D01*
D14*
X111963200Y-73000800D02*
X111963200Y-73000800D01*
X111963200Y-73100800D02*
X111963200Y-73100800D01*
D13*
X117263200Y-57200800D02*
X107103200Y-57200800D01*
X117263200Y-72440800D02*
X117263200Y-57200800D01*
D14*
X111963200Y-73000800D02*
G75*
G02*
X111963200Y-73100800I0J-50000D01*
G01*
X111963200Y-73100800D02*
G75*
G02*
X111963200Y-73000800I0J50000D01*
G01*
D11*
%TO.C,J5*%
X132579600Y-61154800D02*
X148039600Y-61154800D01*
X132579600Y-63804800D02*
X132579600Y-61154800D01*
X132579600Y-66454800D02*
X132579600Y-65074800D01*
X133959600Y-66454800D02*
X132579600Y-66454800D01*
X135229600Y-63804800D02*
X132579600Y-63804800D01*
X135229600Y-66454800D02*
X135229600Y-63804800D01*
X135229600Y-66454800D02*
X148039600Y-66454800D01*
X148039600Y-66454800D02*
X148039600Y-61154800D01*
%TO.C,R1*%
X119312742Y-63477500D02*
X119787258Y-63477500D01*
X119312742Y-64522500D02*
X119787258Y-64522500D01*
%TO.C,D4*%
X170365000Y-81287500D02*
X170365000Y-83572500D01*
X170365000Y-83572500D02*
X171835000Y-83572500D01*
X171835000Y-83572500D02*
X171835000Y-81287500D01*
D12*
%TO.C,REL3*%
X158288000Y-59944000D02*
X158288000Y-62774000D01*
X158288000Y-62774000D02*
X178288000Y-62774000D01*
X167958000Y-57774000D02*
X163258000Y-57774000D01*
X175578000Y-57774000D02*
X170878000Y-57774000D01*
X178288000Y-59944000D02*
X178288000Y-62774000D01*
D13*
X157588000Y-58474000D02*
G75*
G02*
X157388000Y-58474000I-100000J0D01*
G01*
X157388000Y-58474000D02*
G75*
G02*
X157588000Y-58474000I100000J0D01*
G01*
D11*
%TO.C,D1*%
X131373600Y-57709800D02*
X125863600Y-57709800D01*
X131373600Y-61009800D02*
X125863600Y-61009800D01*
X131373600Y-61009800D02*
X131373600Y-57709800D01*
%TO.C,R4*%
X172127500Y-78507776D02*
X172127500Y-79017224D01*
X173172500Y-78507776D02*
X173172500Y-79017224D01*
%TO.C,D6*%
X144476800Y-80378400D02*
X144476800Y-82663400D01*
X144476800Y-82663400D02*
X145946800Y-82663400D01*
X145946800Y-82663400D02*
X145946800Y-80378400D01*
%TO.C,R7*%
X149210500Y-81076076D02*
X149210500Y-81585524D01*
X150255500Y-81076076D02*
X150255500Y-81585524D01*
%TO.C,D5*%
X171915000Y-81250000D02*
X171915000Y-83535000D01*
X171915000Y-83535000D02*
X173385000Y-83535000D01*
X173385000Y-83535000D02*
X173385000Y-81250000D01*
D12*
%TO.C,Rel2*%
X158307300Y-65913200D02*
X158307300Y-68743200D01*
X158307300Y-68743200D02*
X178307300Y-68743200D01*
X167977300Y-63743200D02*
X163277300Y-63743200D01*
X175597300Y-63743200D02*
X170897300Y-63743200D01*
X178307300Y-65913200D02*
X178307300Y-68743200D01*
D13*
X157607300Y-64443200D02*
G75*
G02*
X157407300Y-64443200I-100000J0D01*
G01*
X157407300Y-64443200D02*
G75*
G02*
X157607300Y-64443200I100000J0D01*
G01*
D11*
%TO.C,J6*%
X152470000Y-78434000D02*
X152470000Y-83734000D01*
X165280000Y-78434000D02*
X152470000Y-78434000D01*
X165280000Y-78434000D02*
X165280000Y-81084000D01*
X165280000Y-81084000D02*
X167930000Y-81084000D01*
X166550000Y-78434000D02*
X167930000Y-78434000D01*
X167930000Y-78434000D02*
X167930000Y-79814000D01*
X167930000Y-81084000D02*
X167930000Y-83734000D01*
X167930000Y-83734000D02*
X152470000Y-83734000D01*
D12*
%TO.C,REL5*%
X122016200Y-80060600D02*
X122016200Y-77230600D01*
X124726200Y-82230600D02*
X129426200Y-82230600D01*
X132346200Y-82230600D02*
X137046200Y-82230600D01*
X142016200Y-77230600D02*
X122016200Y-77230600D01*
X142016200Y-80060600D02*
X142016200Y-77230600D01*
D13*
X142916200Y-81530600D02*
G75*
G02*
X142716200Y-81530600I-100000J0D01*
G01*
X142716200Y-81530600D02*
G75*
G02*
X142916200Y-81530600I100000J0D01*
G01*
D11*
%TO.C,C2*%
X121522400Y-62289600D02*
X121522400Y-65139600D01*
X121522400Y-71009600D02*
X121522400Y-68159600D01*
X129177963Y-62289600D02*
X121522400Y-62289600D01*
X129177963Y-71009600D02*
X121522400Y-71009600D01*
X130242400Y-63354037D02*
X129177963Y-62289600D01*
X130242400Y-63354037D02*
X130242400Y-65139600D01*
X130242400Y-69945163D02*
X129177963Y-71009600D01*
X130242400Y-69945163D02*
X130242400Y-68159600D01*
X130982400Y-69659600D02*
X130982400Y-68659600D01*
X131482400Y-69159600D02*
X130482400Y-69159600D01*
%TO.C,D3*%
X168815000Y-81300000D02*
X168815000Y-83585000D01*
X168815000Y-83585000D02*
X170285000Y-83585000D01*
X170285000Y-83585000D02*
X170285000Y-81300000D01*
%TO.C,D7*%
X147524800Y-80353000D02*
X147524800Y-82638000D01*
X147524800Y-82638000D02*
X148994800Y-82638000D01*
X148994800Y-82638000D02*
X148994800Y-80353000D01*
%TO.C,R2*%
X169027500Y-78507776D02*
X169027500Y-79017224D01*
X170072500Y-78507776D02*
X170072500Y-79017224D01*
%TO.C,R5*%
X143165300Y-81076076D02*
X143165300Y-81585524D01*
X144210300Y-81076076D02*
X144210300Y-81585524D01*
%TO.C,R6*%
X146213300Y-81076076D02*
X146213300Y-81585524D01*
X147258300Y-81076076D02*
X147258300Y-81585524D01*
%TO.C,D2*%
X118088700Y-61753800D02*
X118088700Y-63223800D01*
X118088700Y-63223800D02*
X120373700Y-63223800D01*
X120373700Y-61753800D02*
X118088700Y-61753800D01*
%TD*%
M02*
